<svg width="285" height="285" viewBox="0 0 285 285" fill="none" xmlns="http://www.w3.org/2000/svg">
<path d="M142.5 275.39C212.802 275.39 269.792 242.485 269.792 201.894C269.792 161.303 212.802 128.398 142.5 128.398C72.1983 128.398 15.2075 161.303 15.2075 201.894C15.2075 242.485 72.1983 275.39 142.5 275.39Z" fill="#F5F5F5"/>
<path d="M192.597 177.749L235.472 202.498C236.013 202.812 236.626 202.977 237.251 202.977C237.876 202.977 238.489 202.812 239.029 202.498L262.884 188.715C263.045 188.622 263.178 188.489 263.271 188.327C263.364 188.166 263.413 187.984 263.413 187.798C263.413 187.612 263.364 187.429 263.271 187.268C263.178 187.107 263.045 186.973 262.884 186.88L220.02 162.193C219.481 161.883 218.869 161.719 218.247 161.719C217.625 161.719 217.013 161.883 216.474 162.193L192.603 175.908C192.442 176.001 192.308 176.135 192.214 176.296C192.121 176.457 192.072 176.64 192.071 176.826C192.071 177.013 192.119 177.196 192.211 177.358C192.303 177.519 192.436 177.654 192.597 177.749Z" fill="#E0E0E0"/>
<path d="M158.859 168.543L55.7287 228.228C54.8888 228.715 53.9361 228.974 52.9651 228.979C51.9941 228.984 51.0388 228.735 50.194 228.256L23.404 213.094C23.1257 212.935 22.8945 212.704 22.7337 212.426C22.5729 212.149 22.4883 211.834 22.4883 211.513C22.4883 211.192 22.5729 210.877 22.7337 210.599C22.8945 210.321 23.1257 210.091 23.404 209.931L126.34 150.48C127.178 149.999 128.126 149.742 129.092 149.736C130.058 149.73 131.009 149.975 131.852 150.446L158.836 165.568C159.1 165.715 159.321 165.929 159.475 166.19C159.629 166.45 159.712 166.746 159.714 167.049C159.717 167.351 159.639 167.649 159.488 167.912C159.338 168.174 159.121 168.392 158.859 168.543Z" fill="#E0E0E0"/>
<path d="M175.366 228.445C190.996 228.445 203.666 221.128 203.666 212.103C203.666 203.077 190.996 195.761 175.366 195.761C159.736 195.761 147.065 203.077 147.065 212.103C147.065 221.128 159.736 228.445 175.366 228.445Z" fill="#E0E0E0"/>
<path d="M236.578 221.502C242.027 221.502 246.445 218.95 246.445 215.802C246.445 212.654 242.027 210.102 236.578 210.102C231.129 210.102 226.711 212.654 226.711 215.802C226.711 218.95 231.129 221.502 236.578 221.502Z" fill="#E0E0E0"/>
<path d="M236.898 125.993L236.909 201.216L261.271 187.137V111.988L236.898 125.993Z" fill="#E6E6E6"/>
<path d="M195.521 177.321L236.909 201.216V126.061L195.533 102.241L195.521 177.321Z" fill="#EBEBEB"/>
<path d="M195.521 102.167L236.909 126.061L261.271 111.988L219.9 88.1619L195.521 102.167Z" fill="#F5F5F5"/>
<path d="M200.372 129.675L231.819 147.835C231.956 147.914 232.112 147.955 232.27 147.955C232.429 147.955 232.584 147.913 232.721 147.834C232.859 147.755 232.973 147.642 233.052 147.505C233.132 147.368 233.175 147.213 233.175 147.054V131.1C233.173 130.706 233.067 130.319 232.866 129.98C232.666 129.64 232.379 129.36 232.035 129.168L200.64 111.076C200.502 110.997 200.346 110.956 200.187 110.956C200.028 110.956 199.872 110.999 199.735 111.078C199.598 111.158 199.484 111.272 199.404 111.41C199.325 111.548 199.283 111.704 199.283 111.862V127.743C199.28 128.132 199.378 128.515 199.569 128.854C199.761 129.193 200.037 129.476 200.372 129.675Z" fill="#FAFAFA"/>
<path d="M218.988 125.679C218.88 125.678 218.774 125.649 218.68 125.594L213.129 122.402C213.001 122.312 212.911 122.177 212.878 122.025C212.844 121.872 212.868 121.713 212.946 121.577C213.024 121.442 213.149 121.34 213.298 121.292C213.447 121.244 213.608 121.254 213.75 121.319L219.302 124.516C219.411 124.588 219.496 124.694 219.542 124.816C219.588 124.939 219.594 125.074 219.56 125.2C219.525 125.327 219.451 125.439 219.348 125.521C219.245 125.603 219.119 125.651 218.988 125.656V125.679Z" fill="#E0E0E0"/>
<path d="M200.372 151.951L231.819 170.105C231.957 170.184 232.112 170.225 232.271 170.225C232.429 170.225 232.585 170.183 232.722 170.104C232.859 170.025 232.973 169.912 233.053 169.775C233.132 169.638 233.175 169.483 233.176 169.324V153.364C233.173 152.97 233.066 152.584 232.866 152.245C232.666 151.905 232.379 151.625 232.036 151.432L200.64 133.38C200.503 133.301 200.347 133.26 200.189 133.26C200.031 133.26 199.875 133.302 199.738 133.381C199.601 133.46 199.486 133.574 199.407 133.71C199.327 133.847 199.285 134.003 199.284 134.161V150.041C199.285 150.426 199.385 150.805 199.576 151.139C199.767 151.474 200.041 151.754 200.372 151.951Z" fill="#FAFAFA"/>
<path d="M218.988 147.949C218.881 147.948 218.775 147.92 218.68 147.869L213.129 144.672C213.001 144.582 212.911 144.447 212.878 144.295C212.844 144.142 212.868 143.983 212.946 143.847C213.024 143.712 213.149 143.61 213.298 143.562C213.447 143.515 213.608 143.524 213.75 143.589L219.302 146.786C219.411 146.859 219.496 146.964 219.542 147.086C219.588 147.209 219.594 147.344 219.56 147.47C219.525 147.597 219.451 147.709 219.348 147.791C219.245 147.873 219.119 147.921 218.988 147.926V147.949Z" fill="#E0E0E0"/>
<path d="M200.372 174.221L231.819 192.375C231.956 192.454 232.112 192.495 232.27 192.495C232.429 192.495 232.584 192.453 232.721 192.374C232.859 192.295 232.973 192.181 233.052 192.045C233.132 191.908 233.175 191.752 233.176 191.594V175.634C233.173 175.24 233.066 174.854 232.866 174.515C232.665 174.175 232.379 173.895 232.036 173.702L200.64 155.61C200.503 155.531 200.347 155.49 200.189 155.49C200.03 155.49 199.875 155.532 199.738 155.611C199.6 155.69 199.486 155.804 199.406 155.94C199.327 156.077 199.284 156.233 199.283 156.391V172.277C199.278 172.668 199.376 173.053 199.567 173.394C199.759 173.736 200.036 174.021 200.372 174.221Z" fill="#FAFAFA"/>
<path d="M218.988 170.219C218.88 170.22 218.774 170.193 218.681 170.139L213.129 166.941C213.058 166.901 212.996 166.846 212.946 166.782C212.896 166.717 212.86 166.643 212.839 166.564C212.817 166.485 212.812 166.403 212.823 166.322C212.833 166.241 212.86 166.163 212.901 166.092C212.941 166.021 212.996 165.959 213.061 165.91C213.126 165.86 213.2 165.824 213.279 165.803C213.358 165.782 213.44 165.778 213.521 165.789C213.602 165.801 213.68 165.828 213.75 165.87L219.302 169.062C219.373 169.103 219.435 169.157 219.484 169.222C219.534 169.286 219.571 169.36 219.592 169.439C219.613 169.518 219.619 169.6 219.608 169.681C219.597 169.762 219.571 169.84 219.53 169.911C219.476 170.006 219.397 170.085 219.301 170.139C219.206 170.194 219.098 170.221 218.988 170.219Z" fill="#E0E0E0"/>
<path d="M221.394 50.2454V70.3493L238.807 80.3984V60.2945L221.394 50.2454Z" fill="#FAFAFA"/>
<path d="M223.28 51.3284L238.83 60.2945V78.221L223.303 69.2606V51.3284M222.357 49.6982L221.417 50.2682V70.3721L238.83 80.3984L239.77 79.8284V59.753L222.334 49.6982H222.357Z" fill="#E0E0E0"/>
<path d="M222.334 51.8699L237.861 60.836V78.7625L222.334 69.7964V51.8699ZM221.394 50.2397V70.3436L238.83 80.3984V60.2945L221.394 50.2454V50.2397Z" fill="#EBEBEB"/>
<path d="M223.947 65.7494L237.12 73.3532L233.227 63.23L230.536 66.4277L227.778 62.5061L223.947 65.7494Z" fill="#E0E0E0"/>
<path d="M228.519 59.4339C228.541 59.8509 228.662 60.2567 228.871 60.6183C229.08 60.9798 229.371 61.2869 229.721 61.5144C230.382 61.8963 230.924 61.5828 230.924 60.819C230.901 60.4022 230.78 59.9967 230.571 59.6353C230.362 59.2739 230.071 58.9667 229.721 58.7385C229.054 58.3566 228.519 58.6644 228.519 59.4339Z" fill="#E0E0E0"/>
<path d="M244.022 74.5789V90.5959L257.891 98.6044V82.5874L244.022 74.5789Z" fill="#FAFAFA"/>
<path d="M245.522 75.4508L257.891 82.5872V96.8999L245.522 89.7578V75.5078M244.769 74.2025L244.022 74.6357V90.6527L257.891 98.6099L258.643 98.1767V82.1597L244.769 74.1797V74.2025Z" fill="#E0E0E0"/>
<path d="M244.769 75.8842L257.138 83.0206V97.3048L244.769 90.1627V75.8842ZM244.022 74.5789V90.5959L257.891 98.6101V82.5931L244.022 74.6131V74.5789Z" fill="#EBEBEB"/>
<path d="M246.058 86.9307L256.546 92.9898L253.451 84.9243L251.302 87.4779L249.107 84.3486L246.058 86.9307Z" fill="#E0E0E0"/>
<path d="M249.694 81.9032C249.712 82.2355 249.808 82.5587 249.975 82.8469C250.141 83.135 250.373 83.38 250.651 83.5619C251.182 83.864 251.609 83.6189 251.609 82.9919C251.592 82.6595 251.496 82.3359 251.329 82.0476C251.163 81.7593 250.931 81.5145 250.651 81.3332C250.121 81.0425 249.694 81.2933 249.694 81.9032Z" fill="#E0E0E0"/>
<path d="M237.16 201.278C237.16 201.278 231.095 195.356 234.549 185.438C236.482 179.881 242.889 175.799 246.519 175.412C245.311 176.848 244.348 178.473 243.669 180.223L239.075 183.278L243.299 181.955L242.398 185.569C242.398 185.569 238.471 187.946 237.89 188.465L242.125 187.359C242.125 187.359 241.817 197.596 237.16 201.278Z" fill="#216835"/>
<path opacity="0.4" d="M237.16 201.278C237.16 201.278 231.095 195.356 234.549 185.438C236.482 179.881 242.889 175.799 246.519 175.412C245.311 176.848 244.348 178.473 243.669 180.223L239.075 183.278L243.299 181.955L242.398 185.569C242.398 185.569 238.471 187.946 237.89 188.465L242.125 187.359C242.125 187.359 241.817 197.596 237.16 201.278Z" fill="black"/>
<path d="M237.16 201.279C237.16 201.279 234.019 188.887 238.664 181.659C238.664 181.659 233.221 188.037 237.16 201.279Z" fill="white"/>
<path d="M244.097 202.954L236.687 202.863H236.612L229.202 202.954C229.202 202.954 229.117 212.074 231.933 215.813C232.714 216.805 234.532 217.523 236.658 217.523C238.784 217.523 240.614 216.822 241.389 215.813C244.182 212.086 244.097 202.954 244.097 202.954Z" fill="#37474F"/>
<path d="M244.097 202.954C244.097 205.166 240.762 206.944 236.641 206.944C232.52 206.944 229.186 205.149 229.186 202.954C229.186 200.76 232.526 198.964 236.641 198.964C240.757 198.964 244.097 200.743 244.097 202.954Z" fill="#455A64"/>
<path d="M236.641 201.894C239.206 201.894 241.378 202.715 242.147 203.855C242.335 203.591 242.438 203.277 242.444 202.954C242.444 201.375 239.844 200.104 236.641 200.104C233.438 200.104 230.838 201.387 230.838 202.954C230.844 203.278 230.949 203.593 231.14 203.855C231.904 202.715 234.076 201.894 236.641 201.894Z" fill="#263238"/>
<path d="M236.641 201.894C234.076 201.894 231.904 202.715 231.141 203.855C231.904 204.995 234.076 205.821 236.641 205.821C239.206 205.821 241.378 204.995 242.147 203.855C241.378 202.715 239.206 201.894 236.641 201.894Z" fill="#E0E0E0"/>
<path d="M236.732 204.351C236.732 204.351 233.882 204.243 231.397 200.424C230.377 198.85 229.887 198.024 229.887 198.024L233.877 197.722L229.391 196.582L227.27 193.338L230.992 193.059C229.458 192.524 227.86 192.193 226.239 192.073C226.239 192.073 222.819 186.008 221.798 185.142C224.405 185.301 226.953 185.981 229.291 187.143C231.629 188.306 233.71 189.926 235.41 191.908C241.036 198.582 237.57 204.522 236.732 204.351Z" fill="#216835"/>
<path d="M236.732 204.351C236.732 204.351 238.534 193.521 227.042 187.011C227.06 187.011 238.967 192.734 236.732 204.351Z" fill="white"/>
<path d="M236.732 204.351C236.732 204.351 239.337 204.522 241.919 201.313C242.985 199.984 243.504 199.283 243.504 199.283L239.918 198.639L244.074 198.069L246.291 195.339L242.957 194.74C244.392 194.401 245.866 194.254 247.34 194.302C247.34 194.302 251.011 189.172 251.997 188.465C249.641 188.36 247.288 188.727 245.077 189.546C242.865 190.364 240.84 191.617 239.12 193.23C233.398 198.742 235.98 204.425 236.732 204.351Z" fill="#216835"/>
<path opacity="0.2" d="M236.732 204.351C236.732 204.351 239.337 204.522 241.919 201.313C242.985 199.984 243.504 199.283 243.504 199.283L239.918 198.639L244.074 198.069L246.291 195.339L242.957 194.74C244.392 194.401 245.866 194.254 247.34 194.302C247.34 194.302 251.011 189.172 251.997 188.465C249.641 188.36 247.288 188.727 245.077 189.546C242.865 190.364 240.84 191.617 239.12 193.23C233.398 198.742 235.98 204.425 236.732 204.351Z" fill="black"/>
<path d="M236.732 204.351C236.732 204.351 236.128 194.416 247.095 189.616C247.095 189.616 235.815 193.658 236.732 204.351Z" fill="white"/>
<path d="M123.57 66.0345L120.977 64.98L120.715 64.8717H120.686C120.221 64.7038 119.725 64.6397 119.233 64.684C118.74 64.7284 118.264 64.8799 117.836 65.1282L28.8363 116.497C26.966 117.574 25.4127 119.126 24.333 120.995C23.2532 122.865 22.6852 124.985 22.686 127.144V204.63C22.6865 205.453 22.9037 206.262 23.3159 206.975C23.7281 207.688 24.3207 208.28 25.0341 208.691C25.7476 209.103 26.5567 209.319 27.3802 209.318C28.2038 209.318 29.0126 209.101 29.7255 208.688L118.811 157.257C120.082 156.523 121.137 155.467 121.871 154.195C122.604 152.923 122.99 151.481 122.989 150.013V68.115C122.991 67.5285 122.841 66.9514 122.556 66.4392L123.57 66.0345Z" fill="#216835"/>
<path opacity="0.3" d="M123.57 66.0345L120.977 64.98L120.715 64.8717H120.686C120.221 64.7038 119.725 64.6397 119.233 64.684C118.74 64.7284 118.264 64.8799 117.836 65.1282L28.8363 116.497C26.966 117.574 25.4127 119.126 24.333 120.995C23.2532 122.865 22.6852 124.985 22.686 127.144V204.63C22.6865 205.453 22.9037 206.262 23.3159 206.975C23.7281 207.688 24.3207 208.28 25.0341 208.691C25.7476 209.103 26.5567 209.319 27.3802 209.318C28.2038 209.318 29.0126 209.101 29.7255 208.688L118.811 157.257C120.082 156.523 121.137 155.467 121.871 154.195C122.604 152.923 122.99 151.481 122.989 150.013V68.115C122.991 67.5285 122.841 66.9514 122.556 66.4392L123.57 66.0345Z" fill="black"/>
<path d="M125.349 69.0498V150.976C125.35 152.444 124.963 153.886 124.229 155.157C123.494 156.428 122.437 157.483 121.165 158.215L32.0795 209.652C31.3659 210.062 30.5569 210.278 29.7336 210.278C28.9103 210.277 28.1015 210.06 27.3885 209.648C26.6755 209.237 26.0832 208.645 25.671 207.932C25.2588 207.22 25.0412 206.411 25.04 205.588V128.068C25.0405 125.943 25.5924 123.856 26.6417 122.009C27.4365 120.639 28.584 119.507 29.9648 118.731L121.98 65.6013C122.872 65.6291 123.72 66.0003 124.345 66.6375C124.97 67.2746 125.326 68.1286 125.337 69.0213L125.349 69.0498Z" fill="#216835"/>
<path opacity="0.1" d="M125.349 69.0498V150.976C125.35 152.444 124.963 153.886 124.229 155.157C123.494 156.428 122.437 157.483 121.165 158.215L32.0795 209.652C31.3659 210.062 30.5569 210.278 29.7336 210.278C28.9103 210.277 28.1015 210.06 27.3885 209.648C26.6755 209.237 26.0832 208.645 25.671 207.932C25.2588 207.22 25.0412 206.411 25.04 205.588V128.068C25.0405 125.943 25.5924 123.856 26.6417 122.009C27.4365 120.639 28.584 119.507 29.9648 118.731L121.98 65.6013C122.872 65.6291 123.72 66.0003 124.345 66.6375C124.97 67.2746 125.326 68.1286 125.337 69.0213L125.349 69.0498Z" fill="black"/>
<path d="M121.165 158.215L32.0795 209.652C31.39 210.055 30.608 210.274 29.8093 210.287C29.0105 210.3 28.2218 210.106 27.5195 209.726L80.7119 129.669L125.349 150.97C125.349 152.439 124.962 153.882 124.228 155.153C123.493 156.425 122.437 157.481 121.165 158.215Z" fill="#216835"/>
<path opacity="0.2" d="M121.165 158.215L32.0795 209.652C31.39 210.055 30.608 210.274 29.8093 210.287C29.0105 210.3 28.2218 210.106 27.5195 209.726L80.7119 129.669L125.349 150.97C125.349 152.439 124.962 153.882 124.228 155.153C123.493 156.425 122.437 157.481 121.165 158.215Z" fill="black"/>
<path d="M123.849 66.2112L87.5233 142.198C86.8078 143.691 85.7918 145.02 84.5389 146.102C83.286 147.184 81.8232 147.996 80.2421 148.487C78.6609 148.977 76.9955 149.136 75.3501 148.954C73.7047 148.771 72.1148 148.25 70.6798 147.425L26.6416 122.026C27.3933 120.691 28.4898 119.582 29.8165 118.817L121.98 65.6013C122.649 65.6172 123.299 65.8293 123.849 66.2112Z" fill="#216835"/>
<path d="M35.7847 97.6296L61.8793 82.5588V63.8799L42.9154 74.3337C40.7554 75.5226 38.9543 77.2695 37.7 79.3921C36.4457 81.5147 35.7842 83.9351 35.7847 86.4006V97.6296Z" fill="#216835"/>
<path opacity="0.5" d="M35.7847 97.6296L61.8793 82.5588V63.8799L42.9154 74.3337C40.7554 75.5226 38.9543 77.2695 37.7 79.3921C36.4457 81.5147 35.7842 83.9351 35.7847 86.4006V97.6296Z" fill="white"/>
<path d="M143.64 25.2909L141.252 23.94C138.219 22.1861 134.775 21.266 131.271 21.273C127.768 21.28 124.328 22.2139 121.302 23.9799L46.6717 67.4595C43.3589 69.3888 40.6102 72.1532 38.6998 75.4768C36.7895 78.8005 35.7843 82.5671 35.7847 86.4006C35.7844 84.4313 36.3042 82.4967 37.2915 80.7927C38.2788 79.0887 39.6985 77.6756 41.4072 76.6963C43.1158 75.7171 45.0528 75.2064 47.0221 75.2159C48.9915 75.2254 50.9234 75.7548 52.6225 76.7505L55.7461 78.5802C58.9983 80.4838 61.6958 83.2051 63.5707 86.4739C65.4456 89.7427 66.4325 93.4452 66.4336 97.2135V208.101L61.3435 221.023L70.9024 215.204L147.744 170.618C150.473 169.036 152.738 166.763 154.312 164.029C155.886 161.295 156.713 158.195 156.71 155.04V47.9712C156.709 43.3771 155.502 38.8638 153.208 34.8833C150.914 30.9029 147.615 27.595 143.64 25.2909Z" fill="#216835"/>
<path opacity="0.7" d="M143.64 25.2909L141.252 23.94C138.219 22.1861 134.775 21.266 131.271 21.273C127.768 21.28 124.328 22.2139 121.302 23.9799L46.6717 67.4595C43.3589 69.3888 40.6102 72.1532 38.6998 75.4768C36.7895 78.8005 35.7843 82.5671 35.7847 86.4006C35.7844 84.4313 36.3042 82.4967 37.2915 80.7927C38.2788 79.0887 39.6985 77.6756 41.4072 76.6963C43.1158 75.7171 45.0528 75.2064 47.0221 75.2159C48.9915 75.2254 50.9234 75.7548 52.6225 76.7505L55.7461 78.5802C58.9983 80.4838 61.6958 83.2051 63.5707 86.4739C65.4456 89.7427 66.4325 93.4452 66.4336 97.2135V208.101L61.3435 221.023L70.9024 215.204L147.744 170.618C150.473 169.036 152.738 166.763 154.312 164.029C155.886 161.295 156.713 158.195 156.71 155.04V47.9712C156.709 43.3771 155.502 38.8638 153.208 34.8833C150.914 30.9029 147.615 27.595 143.64 25.2909Z" fill="white"/>
<path d="M38.8799 210.946C38.8799 210.946 44.2322 218.772 52.8335 221.365C62.0846 224.153 66.4337 218.019 66.4337 209.886V195.174L38.8799 210.946Z" fill="#216835"/>
<path opacity="0.5" d="M38.8799 210.946C38.8799 210.946 44.2322 218.772 52.8335 221.365C62.0846 224.153 66.4337 218.019 66.4337 209.886V195.174L38.8799 210.946Z" fill="white"/>
<path d="M83.0606 132.24C82.8758 132.237 82.6969 132.174 82.5511 132.061C82.4053 131.947 82.3006 131.789 82.2529 131.61C82.2052 131.431 82.2171 131.242 82.2867 131.071C82.3564 130.9 82.48 130.756 82.6388 130.661L139.639 97.738C139.833 97.6262 140.064 97.596 140.28 97.6543C140.497 97.7125 140.681 97.8544 140.793 98.0487C140.905 98.2429 140.935 98.4737 140.877 98.6901C140.819 98.9066 140.677 99.091 140.482 99.2029L83.4825 132.126C83.3539 132.2 83.2087 132.239 83.0606 132.24Z" fill="white"/>
<path d="M83.0607 144.866C82.8753 144.865 82.6952 144.804 82.5482 144.691C82.4012 144.578 82.2955 144.42 82.2475 144.24C82.1995 144.061 82.2118 143.872 82.2826 143.7C82.3533 143.529 82.4785 143.385 82.6389 143.292L139.639 110.364C139.833 110.252 140.064 110.222 140.28 110.28C140.497 110.338 140.681 110.48 140.793 110.674C140.905 110.868 140.935 111.099 140.877 111.316C140.819 111.532 140.677 111.717 140.482 111.828L83.4825 144.78C83.3513 144.844 83.2062 144.873 83.0607 144.866Z" fill="white"/>
<path d="M83.0607 157.485C82.8753 157.485 82.6952 157.423 82.5482 157.31C82.4012 157.197 82.2955 157.039 82.2475 156.86C82.1995 156.681 82.2118 156.491 82.2826 156.32C82.3533 156.148 82.4785 156.005 82.6389 155.912L139.639 122.989C139.832 122.889 140.055 122.867 140.264 122.928C140.473 122.988 140.65 123.127 140.758 123.315C140.867 123.503 140.899 123.726 140.848 123.937C140.796 124.148 140.665 124.331 140.482 124.448L83.4825 157.371C83.3539 157.445 83.2087 157.484 83.0607 157.485Z" fill="white"/>
<path d="M83.0607 170.105C82.8753 170.105 82.6952 170.043 82.5482 169.93C82.4012 169.817 82.2955 169.659 82.2475 169.48C82.1995 169.301 82.2118 169.111 82.2826 168.94C82.3533 168.768 82.4785 168.625 82.6389 168.532L139.639 135.609C139.832 135.509 140.055 135.487 140.264 135.547C140.473 135.608 140.65 135.747 140.758 135.935C140.867 136.123 140.899 136.346 140.848 136.557C140.796 136.768 140.665 136.951 140.482 137.068L83.4825 169.991C83.355 170.067 83.2091 170.107 83.0607 170.105Z" fill="white"/>
<path d="M83.0607 182.725C82.8753 182.725 82.6952 182.663 82.5482 182.55C82.4012 182.437 82.2955 182.279 82.2475 182.1C82.1995 181.921 82.2118 181.731 82.2826 181.56C82.3533 181.388 82.4785 181.245 82.6389 181.152L139.639 148.229C139.832 148.128 140.055 148.106 140.264 148.167C140.473 148.228 140.65 148.367 140.758 148.555C140.867 148.743 140.899 148.966 140.848 149.177C140.796 149.388 140.665 149.571 140.482 149.688L83.4825 182.611C83.355 182.687 83.2091 182.726 83.0607 182.725Z" fill="white"/>
<path d="M120.492 173.73C120.344 173.731 120.198 173.693 120.07 173.619C119.942 173.544 119.836 173.437 119.763 173.308C119.655 173.116 119.626 172.889 119.684 172.676C119.741 172.462 119.88 172.28 120.071 172.168L139.65 160.848C139.843 160.748 140.067 160.726 140.275 160.787C140.484 160.848 140.661 160.987 140.769 161.175C140.878 161.363 140.91 161.585 140.859 161.796C140.807 162.007 140.677 162.19 140.494 162.307L120.914 173.622C120.785 173.694 120.64 173.731 120.492 173.73Z" fill="white"/>
<path d="M122.755 84.7249L106.328 94.2097V86.1157C106.328 80.4898 109.748 73.9519 113.971 71.5123L115.111 70.8568C119.329 68.4172 122.755 71.005 122.755 76.6309V84.7249Z" fill="#216835"/>
<path d="M126.58 87.4095L102.503 101.312L106.328 92.454L122.755 82.9692L126.58 87.4095Z" fill="#216835"/>
<path d="M114.57 73.8549C113.857 74.2653 113.282 73.9347 113.282 73.1139V69.9618C113.307 69.5153 113.436 69.0809 113.66 68.6937C113.884 68.3065 114.195 67.9775 114.57 67.7331C115.277 67.3227 115.852 67.6533 115.852 68.4741V71.6319C115.827 72.0769 115.698 72.5099 115.476 72.8959C115.253 73.282 114.943 73.6105 114.57 73.8549Z" fill="#216835"/>
<path d="M111.806 97.1281C111.874 98.764 113.071 99.4081 114.542 98.5588C115.312 98.0549 115.958 97.3827 116.431 96.5928C116.904 95.8029 117.192 94.9159 117.272 93.9988L111.806 97.1281Z" fill="#216835"/>
<path d="M195.521 72.4813C202.142 72.4813 207.508 67.1145 207.508 60.4942C207.508 53.8739 202.142 48.5071 195.521 48.5071C188.901 48.5071 183.534 53.8739 183.534 60.4942C183.534 67.1145 188.901 72.4813 195.521 72.4813Z" fill="#216835"/>
<path d="M193.384 69.8137C193.384 69.8137 194.455 73.6213 190.118 77.1553C190.118 77.1553 196.798 76.4827 197.163 70.1329L193.384 69.8137Z" fill="#216835"/>
<path d="M196.701 61.6H194.125L193.48 55.4155H197.345L196.701 61.6ZM195.413 65.59C195.176 65.6062 194.938 65.5744 194.713 65.4965C194.488 65.4185 194.282 65.2961 194.106 65.1364C193.929 64.9767 193.787 64.7832 193.688 64.5673C193.588 64.3514 193.533 64.1177 193.526 63.88C193.577 63.4154 193.798 62.986 194.146 62.6741C194.494 62.3621 194.945 62.1896 195.413 62.1896C195.88 62.1896 196.331 62.3621 196.679 62.6741C197.028 62.986 197.248 63.4154 197.299 63.88C197.291 64.1167 197.235 64.3492 197.135 64.5638C197.034 64.7783 196.892 64.9705 196.716 65.129C196.54 65.2874 196.334 65.4089 196.11 65.4861C195.886 65.5634 195.649 65.5948 195.413 65.5786V65.59Z" fill="white"/>
<path d="M171.855 106.829C170.621 106.734 169.382 106.944 168.249 107.441C167.116 107.938 166.122 108.707 165.357 109.679C162.82 113.02 157.451 120.92 157.451 120.92C157.451 120.92 155.205 118.429 153.734 116.679C152.264 114.929 150.884 113.447 150.884 113.447C150.691 112.505 150.546 111.554 150.451 110.597C150.326 109.24 150.143 108.317 149.152 107.388C148.16 106.459 147.402 105.587 147.322 104.88C147.242 104.173 146.752 103.466 146.125 104.19C145.498 104.914 145.555 107.137 146.866 108.619C146.866 108.619 144.523 107.53 143.446 106.254C142.369 104.977 140.978 102.754 140.362 103.369C139.747 103.985 138.567 110.614 140.362 112.09C142.158 113.567 146.598 116.08 146.598 116.08C146.598 116.08 152.401 130.285 156.482 130.285C160.563 130.285 167.312 119.785 167.312 119.785L171.855 106.829Z" fill="#FFA8A7"/>
<path d="M164.61 180.986L165.87 200.258C165.87 200.258 167.01 202.299 169.204 202.299L171.199 200.121C171.172 197.544 171.387 194.969 171.843 192.432C172.584 188.539 174.021 182.845 174.437 179.556L164.61 180.986Z" fill="#FFA8A7"/>
<path d="M165.744 137.45C165.744 137.45 164.741 143.931 164.245 150.235C163.852 155.262 163.595 162.233 163.504 164.85C163.482 165.534 163.498 166.219 163.55 166.902L164.61 180.986C164.61 180.986 170.84 183.722 174.448 179.556C174.448 179.556 174.887 175.52 174.26 172.716C173.893 170.945 173.938 169.114 174.391 167.363L178.296 151.677V137.313L165.744 137.45Z" fill="#37474F"/>
<path d="M168.771 142.825C169.035 143.977 169.609 145.034 170.43 145.883C171.252 146.732 172.291 147.34 173.434 147.641L175.765 161.834L179.185 149.397V142.825H168.771Z" fill="#263238"/>
<path d="M180.889 183.859L184.828 205.582H189.086C189.086 205.582 190.699 187.279 190.613 182.286L180.889 183.859Z" fill="#FFA8A7"/>
<path d="M167.733 137.307C167.733 137.307 166.901 145.692 174.403 146.427L178.296 171.399L180.889 183.853C180.889 183.853 186.965 187.815 190.613 182.28C190.613 182.28 190.984 176.01 189.473 171.69C189.079 170.567 188.916 169.377 188.995 168.19C189.416 162.068 190.579 144.107 190.009 140.129L186.258 135.221L167.733 137.307Z" fill="#37474F"/>
<path d="M181.391 107.73H185.199L187.746 120.447L186.071 125.89C185.717 127.019 185.798 128.239 186.299 129.31C187.439 131.795 189.553 136.652 190.015 140.14C188.949 140.218 187.882 140.006 186.927 139.525C185.972 139.044 185.166 138.313 184.594 137.41C184.594 137.41 181.397 141.622 173.616 141.622C169.843 141.622 166.776 138.846 165.744 137.455L167.141 131.151C167.257 130.639 167.299 130.113 167.266 129.589C167.192 128.284 167.05 125.599 167.084 123.559C167.084 123.559 163.47 122.122 164.399 117.676C165.328 113.23 171.855 106.846 171.855 106.846L174.654 106.955L181.391 107.73Z" fill="#216835"/>
<path d="M172.208 83.2198C172.208 83.2198 167.591 81.6181 166.463 86.3434C165.334 91.0687 168.811 95.6572 163.613 97.2304C163.613 97.2304 166.679 99.784 169.381 95.0131L171.661 104.703C171.661 104.703 171.661 105.233 170.852 105.638C170.852 105.638 183.962 108.556 186.487 102.013C186.835 102.389 187.072 102.855 187.173 103.358C187.273 103.86 187.233 104.381 187.057 104.863C187.057 104.863 190.927 103.295 189.838 98.2849C189.838 98.2849 192.899 98.1994 193.629 95.7085C193.629 95.7085 188.733 95.9422 188.761 90.5386C188.795 84.2971 185.512 85.2034 185.512 85.2034C185.512 85.2034 181.494 79.2298 172.208 83.2198Z" fill="#455A64"/>
<path d="M174.653 102.771V106.938C174.653 106.938 170.338 111.737 174.545 112.119C178.752 112.501 181.385 107.73 181.385 107.73V98.9177L174.653 102.771Z" fill="#FFA8A7"/>
<path d="M181.317 97.5269V97.7663C179.818 103.694 175.913 104.983 174.654 105.285L174.608 96.1133L181.129 96.0791L181.317 97.5269Z" fill="#F28F8F"/>
<path d="M175.081 84.3598C172.59 84.565 167.414 86.3833 167.34 92.944C167.266 99.5047 168.264 104.509 171.667 104.715C175.069 104.92 182.668 101.865 183.021 93.3145C183.374 84.7645 177.503 84.1318 175.081 84.3598Z" fill="#FFA8A7"/>
<path d="M171.929 95.5491L171.992 99.4023L169.723 98.7468L171.929 95.5491Z" fill="#F28F8F"/>
<path d="M175.315 95.4464C175.318 95.6025 175.275 95.756 175.191 95.8874C175.107 96.0189 174.986 96.1223 174.842 96.1847C174.699 96.247 174.541 96.2654 174.388 96.2374C174.234 96.2095 174.092 96.1365 173.98 96.0278C173.868 95.9191 173.791 95.7795 173.759 95.6269C173.726 95.4742 173.74 95.3154 173.798 95.1705C173.856 95.0257 173.956 94.9015 174.085 94.8136C174.214 94.7257 174.366 94.6781 174.522 94.6769C174.625 94.6747 174.727 94.6929 174.823 94.7304C174.919 94.768 175.006 94.8243 175.08 94.8959C175.153 94.9675 175.212 95.053 175.252 95.1475C175.293 95.2421 175.314 95.3437 175.315 95.4464Z" fill="#263238"/>
<path d="M170.145 94.9733C170.147 95.0763 170.129 95.1787 170.091 95.2747C170.054 95.3707 169.998 95.4583 169.926 95.5325C169.855 95.6067 169.769 95.666 169.675 95.7069C169.58 95.7479 169.478 95.7698 169.375 95.7713C169.22 95.7746 169.066 95.7317 168.935 95.6478C168.804 95.564 168.7 95.443 168.638 95.3003C168.575 95.1575 168.557 94.9995 168.584 94.8461C168.612 94.6927 168.684 94.551 168.792 94.4388C168.9 94.3267 169.039 94.2492 169.192 94.2161C169.344 94.1831 169.502 94.196 169.647 94.2533C169.792 94.3105 169.917 94.4095 170.006 94.5377C170.094 94.6659 170.143 94.8175 170.145 94.9733Z" fill="#263238"/>
<path d="M174.049 100.65C173.195 100.868 172.354 101.135 171.53 101.448C171.53 101.448 171.296 100.109 172.408 99.8011C172.737 99.7314 173.081 99.7779 173.38 99.9327C173.679 100.088 173.916 100.341 174.049 100.65Z" fill="#F28F8F"/>
<path d="M169.86 92.072L168.338 93.0011C168.338 93.0011 168.908 93.6053 169.512 93.2291C169.68 93.0936 169.803 92.9107 169.865 92.7042C169.927 92.4978 169.925 92.2775 169.86 92.072Z" fill="#263238"/>
<path d="M179.082 95.4236C179.082 95.4236 179.025 97.8518 180.616 97.8518H183.734V92.5907C183.734 86.6855 179.253 80.5181 169.723 85.3973C169.723 85.3973 169.164 93.611 179.082 95.4236Z" fill="#455A64"/>
<path d="M168.577 97.7206C167.095 97.7206 165.887 96.6946 165.887 95.4406C165.887 94.1866 167.095 93.1606 168.577 93.1606C170.059 93.1606 171.268 94.1866 171.268 95.4406C171.268 96.6946 170.059 97.7206 168.577 97.7206ZM168.577 93.5995C167.352 93.5995 166.354 94.4203 166.354 95.4235C166.354 96.4267 167.352 97.2532 168.577 97.2532C169.803 97.2532 170.8 96.4324 170.8 95.4235C170.8 94.4146 169.803 93.5995 168.577 93.5995Z" fill="#216835"/>
<path d="M175.195 97.7378C173.536 97.7378 172.18 96.7004 172.18 95.4236C172.18 94.1468 173.536 93.1436 175.195 93.1436C176.854 93.1436 178.21 94.181 178.21 95.4236C178.21 96.6662 176.859 97.7378 175.195 97.7378ZM175.195 93.611C173.81 93.611 172.676 94.4261 172.676 95.4236C172.676 96.4211 173.816 97.2419 175.195 97.2419C176.574 97.2419 177.714 96.4268 177.714 95.4236C177.714 94.4204 176.586 93.611 175.195 93.611Z" fill="#216835"/>
<path d="M172.431 95.1785H171.034V95.6744H172.431V95.1785Z" fill="#216835"/>
<path d="M181.568 95.1785H177.965V95.6744H181.568V95.1785Z" fill="#216835"/>
<path d="M180.604 97.5326C180.585 96.931 180.702 96.3328 180.946 95.7827C181.065 95.4402 181.282 95.1401 181.57 94.9193C181.857 94.6985 182.203 94.5667 182.565 94.5401C184.423 94.5116 184.651 96.3014 184.623 96.9341C184.537 98.6042 183.169 100.394 180.633 100.434L180.604 97.5326Z" fill="#FFA8A7"/>
<path d="M185.198 107.73C185.198 107.73 180.855 118.115 187.746 120.447L189.257 117.22C189.257 117.22 201.865 105.672 204.949 103.141C208.033 100.611 204.077 96.8714 200.252 93.3659C196.427 89.8604 192.591 86.4689 192.591 86.4689L190.676 83.0774C190.466 82.707 190.179 82.3855 189.835 82.134C189.491 81.8825 189.098 81.7067 188.681 81.6182C186.675 81.2021 182.896 80.4782 180.855 80.5979C178.005 80.7518 182.309 84.3029 183.032 84.3029C183.685 84.3224 184.321 84.5086 184.881 84.8439C185.441 85.1792 185.905 85.6523 186.23 86.2181C187.097 87.7628 187.25 90.5444 190.015 90.419L196.422 99.9893L185.198 107.73Z" fill="#FFA8A7"/>
<path d="M196.422 99.9893L198.645 102.834L195.179 100.85L196.422 99.9893Z" fill="#F28F8F"/>
<path d="M157.451 120.926L159.429 123.211L158.283 119.711L157.451 120.926Z" fill="#F28F8F"/>
<path opacity="0.2" d="M174.534 123.764C174.534 123.764 180.234 124.226 182.001 118.811C182.001 118.811 182.069 125.713 174.534 123.764Z" fill="black"/>
<path d="M165.328 201.09C165.328 201.09 164.536 198.605 165.761 198.474C166.987 198.343 169.153 198.993 169.37 199.643C169.502 200.072 169.556 200.522 169.529 200.971C170.127 200.768 170.693 200.482 171.211 200.121V199.204C171.211 199.204 172.487 199.329 172.584 200.287C172.681 201.244 172.698 202.413 172.738 203.501C172.812 205.702 173.137 207.172 170.635 207.822C168.851 208.27 167.24 209.238 166.006 210.604C165.151 211.507 164.086 212.185 162.906 212.577C161.725 212.97 160.467 213.066 159.241 212.855C155.473 212.331 155.689 209.15 157.018 208.13C158.294 207.19 159.659 206.377 161.093 205.702L165.328 201.09Z" fill="#216835"/>
<path d="M163.983 208.118C163.926 208.12 163.871 208.105 163.822 208.076C163.774 208.046 163.735 208.004 163.709 207.953C163.105 206.98 162.143 206.282 161.03 206.009C160.99 206.001 160.952 205.984 160.918 205.96C160.883 205.936 160.854 205.906 160.832 205.871C160.81 205.836 160.795 205.797 160.788 205.756C160.781 205.715 160.782 205.674 160.791 205.633C160.8 205.593 160.816 205.556 160.84 205.522C160.863 205.489 160.893 205.461 160.927 205.439C160.962 205.417 161 205.402 161.041 205.396C161.081 205.389 161.122 205.39 161.162 205.399C161.803 205.554 162.408 205.836 162.939 206.227C163.471 206.619 163.918 207.112 164.257 207.679C164.283 207.727 164.296 207.78 164.295 207.833C164.294 207.887 164.279 207.94 164.251 207.986C164.223 208.032 164.184 208.07 164.137 208.096C164.09 208.123 164.037 208.136 163.983 208.135V208.118Z" fill="#FAFAFA"/>
<path d="M165.425 206.579C165.369 206.581 165.313 206.566 165.264 206.537C165.216 206.507 165.177 206.465 165.152 206.414C164.547 205.441 163.585 204.743 162.473 204.47C162.392 204.452 162.322 204.404 162.277 204.334C162.232 204.265 162.216 204.181 162.233 204.1C162.241 204.059 162.257 204.021 162.281 203.987C162.304 203.953 162.333 203.924 162.368 203.902C162.402 203.88 162.441 203.864 162.482 203.857C162.522 203.85 162.564 203.851 162.604 203.86C163.246 204.014 163.85 204.295 164.382 204.687C164.914 205.079 165.361 205.573 165.699 206.14C165.738 206.213 165.746 206.298 165.723 206.377C165.699 206.456 165.646 206.522 165.573 206.562C165.526 206.578 165.475 206.584 165.425 206.579Z" fill="#FAFAFA"/>
<path d="M166.867 205.04C166.811 205.04 166.755 205.025 166.707 204.996C166.659 204.967 166.62 204.925 166.593 204.875C165.986 203.905 165.025 203.208 163.914 202.931C163.835 202.912 163.766 202.863 163.722 202.794C163.678 202.724 163.664 202.641 163.681 202.561C163.688 202.521 163.704 202.483 163.726 202.449C163.749 202.415 163.778 202.386 163.812 202.363C163.846 202.341 163.884 202.326 163.925 202.318C163.965 202.311 164.006 202.312 164.046 202.321C164.688 202.476 165.293 202.757 165.826 203.149C166.358 203.54 166.807 204.034 167.146 204.601C167.185 204.675 167.192 204.76 167.168 204.839C167.143 204.918 167.088 204.984 167.015 205.023C166.968 205.04 166.917 205.046 166.867 205.04Z" fill="#FAFAFA"/>
<path d="M184.828 205.582C184.782 205.338 184.792 205.088 184.858 204.849C184.925 204.61 185.046 204.39 185.211 204.206C185.377 204.022 185.583 203.878 185.813 203.786C186.043 203.695 186.291 203.658 186.538 203.678C188.533 203.678 189.958 203.735 189.781 205.217V206.277C189.781 206.277 189.781 211.561 190.18 213.271C190.579 214.981 191.56 220.396 187.49 221.188C183.42 221.981 181.938 218.509 182.679 215.22C183.139 213.367 183.417 211.473 183.511 209.566C183.603 208.363 183.141 203.963 184.463 203.678L184.828 205.582Z" fill="#216835"/>
<path d="M188.556 212.126C188.503 212.124 188.452 212.109 188.408 212.08C187.374 211.584 186.187 211.513 185.102 211.88C185.063 211.895 185.023 211.902 184.982 211.9C184.941 211.899 184.901 211.89 184.864 211.873C184.827 211.856 184.793 211.832 184.766 211.802C184.738 211.772 184.717 211.736 184.703 211.698C184.688 211.659 184.681 211.618 184.682 211.577C184.684 211.536 184.693 211.495 184.71 211.458C184.727 211.42 184.751 211.386 184.781 211.358C184.811 211.33 184.846 211.308 184.885 211.293C185.508 211.079 186.167 210.991 186.825 211.033C187.482 211.075 188.125 211.247 188.715 211.538C188.787 211.58 188.839 211.649 188.861 211.729C188.882 211.809 188.871 211.894 188.829 211.966C188.803 212.015 188.763 212.056 188.715 212.084C188.667 212.112 188.612 212.126 188.556 212.126Z" fill="#FAFAFA"/>
<path d="M188.773 209.76C188.719 209.757 188.667 209.744 188.619 209.72C187.588 209.221 186.403 209.147 185.318 209.515C185.28 209.536 185.237 209.548 185.193 209.552C185.149 209.555 185.105 209.549 185.064 209.534C185.023 209.518 184.985 209.494 184.954 209.463C184.923 209.433 184.898 209.395 184.883 209.354C184.867 209.313 184.861 209.269 184.863 209.225C184.866 209.181 184.878 209.138 184.899 209.1C184.92 209.061 184.949 209.027 184.984 209C185.019 208.974 185.059 208.955 185.102 208.945C185.723 208.728 186.382 208.637 187.039 208.68C187.696 208.722 188.338 208.895 188.927 209.19C188.962 209.209 188.994 209.236 189.019 209.268C189.045 209.3 189.063 209.336 189.075 209.376C189.086 209.415 189.089 209.456 189.084 209.497C189.079 209.537 189.066 209.576 189.046 209.612C189.017 209.658 188.977 209.696 188.929 209.722C188.881 209.748 188.827 209.761 188.773 209.76Z" fill="#FAFAFA"/>
<path d="M188.989 207.429C188.935 207.426 188.883 207.412 188.835 207.389C187.801 206.893 186.616 206.82 185.529 207.183C185.49 207.205 185.447 207.219 185.403 207.222C185.358 207.226 185.314 207.22 185.272 207.204C185.23 207.189 185.192 207.165 185.16 207.133C185.129 207.102 185.104 207.064 185.089 207.022C185.073 206.98 185.067 206.936 185.071 206.891C185.074 206.847 185.087 206.804 185.109 206.765C185.131 206.726 185.161 206.692 185.197 206.666C185.233 206.64 185.274 206.622 185.318 206.613C185.94 206.396 186.598 206.306 187.255 206.348C187.912 206.39 188.554 206.564 189.143 206.859C189.179 206.878 189.21 206.905 189.235 206.937C189.261 206.969 189.28 207.005 189.291 207.044C189.302 207.084 189.305 207.125 189.3 207.165C189.296 207.206 189.283 207.245 189.262 207.28C189.234 207.327 189.193 207.365 189.145 207.391C189.097 207.417 189.043 207.43 188.989 207.429Z" fill="#FAFAFA"/>
<path d="M159.668 206.431C158.744 206.936 157.858 207.507 157.018 208.141C155.689 209.161 155.473 212.342 159.241 212.866C160.827 213.128 162.455 212.886 163.898 212.177C163.721 210.945 163.242 209.775 162.504 208.773C161.766 207.771 160.792 206.966 159.668 206.431Z" fill="white"/>
<path d="M170.635 207.337C168.85 207.785 167.24 208.754 166.006 210.119C165.151 211.022 164.086 211.7 162.906 212.093C161.725 212.485 160.466 212.581 159.24 212.37C157.131 212.08 156.271 210.951 156.157 209.834C156.048 211.088 156.824 212.519 159.24 212.855C160.466 213.065 161.725 212.97 162.906 212.577C164.086 212.184 165.151 211.506 166.006 210.603C167.24 209.238 168.85 208.27 170.635 207.822C172.607 207.314 172.824 206.288 172.789 204.801C172.749 206.026 172.385 206.91 170.635 207.337Z" fill="#37474F"/>
<path d="M190.545 215.352C189.516 214.303 188.116 213.702 186.648 213.677C185.179 213.653 183.76 214.207 182.696 215.221C181.955 218.509 183.437 221.981 187.507 221.188C190.46 220.59 190.762 217.615 190.545 215.352Z" fill="#F5F5F5"/>
<path d="M187.53 220.544C184.258 221.183 182.662 219.062 182.542 216.497C182.406 219.347 183.984 221.878 187.53 221.188C190.158 220.675 190.682 218.247 190.619 216.127C190.534 218.07 189.867 220.083 187.53 220.544Z" fill="#455A64"/>
</svg>
