<svg width="176" height="130" viewBox="0 0 176 130" fill="none" xmlns="http://www.w3.org/2000/svg">
<path d="M81.4079 111.28C81.3213 110.133 81.5141 108.981 81.9663 107.945C82.4185 106.908 83.1134 106.025 83.9785 105.388C84.8437 104.75 85.8474 104.382 86.8849 104.321C87.9224 104.26 88.9557 104.508 89.877 105.04C90.3229 103.719 90.7805 102.375 91.569 101.27C92.3574 100.165 93.5495 99.3175 94.8214 99.3695V111.28H81.4079Z" fill="#EBEBEB"/>
<path d="M46.0672 65.1378L39.2102 80.4674L41.2589 80.5532L35.4462 92.7342H38.4992L33.7378 103.555H60.3537L54.4917 92.7342L57.3007 92.599L51.6851 80.4232L53.7596 80.288L46.0672 65.1378Z" fill="#EBEBEB"/>
<path d="M47.2288 82.9192C47.2617 82.9192 47.203 89.4192 47.0974 97.4168C46.9918 105.414 46.8792 111.914 46.844 111.912C46.8088 111.909 46.8698 105.412 46.9754 97.4142C47.081 89.4166 47.1936 82.9192 47.2288 82.9192Z" fill="#E0E0E0"/>
<path d="M50.4905 86.4943C50.3586 86.7431 50.2087 86.9796 50.0423 87.2015C49.7536 87.6279 49.3383 88.2025 48.8689 88.8317L47.6721 90.4359C47.5145 90.6654 47.3428 90.8825 47.1582 91.0859C47.2882 90.8355 47.4373 90.598 47.6041 90.3761C47.8951 89.9523 48.3081 89.3751 48.7774 88.7459L49.9742 87.1417C50.1313 86.9117 50.3039 86.6953 50.4905 86.4943Z" fill="#E0E0E0"/>
<path d="M47.1678 91.0859C46.6446 90.7176 46.1429 90.3129 45.6659 89.8743C45.164 89.4691 44.6866 89.0278 44.2368 88.5535C44.7611 88.9213 45.2635 89.326 45.741 89.7651C46.2431 90.169 46.7198 90.6103 47.1678 91.0859Z" fill="#E0E0E0"/>
<path d="M46.9824 98.6024C46.8024 98.4737 46.6341 98.3257 46.4802 98.1605C46.1799 97.8771 45.7762 97.487 45.3069 97.0658C44.8376 96.6446 44.4105 96.2728 44.1007 96.005C43.9249 95.8694 43.76 95.7172 43.6079 95.55C43.7995 95.6554 43.9811 95.7817 44.15 95.9271C44.4762 96.1871 44.915 96.5381 45.3843 96.9671C45.8537 97.3961 46.2596 97.7939 46.5459 98.0955C46.7058 98.2485 46.852 98.4183 46.9824 98.6024Z" fill="#E0E0E0"/>
<path d="M50.7746 93.9562C50.7409 94.0308 50.6991 94.1006 50.6503 94.1642C50.5658 94.2916 50.4367 94.471 50.2724 94.6842C49.9416 95.1184 49.4628 95.6956 48.9208 96.3222C48.3787 96.9488 47.8929 97.5104 47.548 97.929C47.3705 98.1629 47.1817 98.3859 46.9824 98.5972C47.013 98.522 47.0542 98.4527 47.1044 98.3918C47.1889 98.2618 47.318 98.0824 47.4823 97.8718C47.8131 97.435 48.2919 96.8578 48.8339 96.2338C49.376 95.6098 49.8618 95.043 50.2067 94.6244C50.3845 94.39 50.5741 94.1669 50.7746 93.9562Z" fill="#E0E0E0"/>
<path d="M101.895 82.5812H129.703L134.898 74.4068L140.345 82.8126L146.744 82.6982L139.847 72.4048L108.841 72.5478L101.895 82.5812Z" fill="#E0E0E0"/>
<path d="M115.801 82.6983V111.353H143.569V82.6983H140.387L134.898 74.4069L129.686 82.5735L115.801 82.6983Z" fill="#F5F5F5"/>
<path d="M126.22 98.9301H119.724V111.353H126.22V98.9301Z" fill="#E0E0E0"/>
<path d="M140.345 98.579H130.113V105.602H140.345V98.579Z" fill="#E0E0E0"/>
<path d="M133.185 98.579H132.95V105.667H133.185V98.579Z" fill="#EBEBEB"/>
<path d="M137.439 98.579H137.205V105.667H137.439V98.579Z" fill="#EBEBEB"/>
<path d="M137.322 102.206H133.067V102.466H137.322V102.206Z" fill="#EBEBEB"/>
<path d="M140.345 84.526H130.113V91.5486H140.345V84.526Z" fill="#E0E0E0"/>
<path d="M133.185 84.526H132.95V91.6136H133.185V84.526Z" fill="#EBEBEB"/>
<path d="M137.439 84.526H137.205V91.6136H137.439V84.526Z" fill="#EBEBEB"/>
<path d="M137.322 88.1531H133.067V88.4131H137.322V88.1531Z" fill="#EBEBEB"/>
<path d="M125.542 84.5884H119.088V91.3588H125.542V84.5884Z" fill="#E0E0E0"/>
<path d="M115.803 82.6982H104.532V111.35H115.803V82.6982Z" fill="#E0E0E0"/>
<path d="M122.432 84.5884H122.198V91.3588H122.432V84.5884Z" fill="#EBEBEB"/>
<path d="M125.542 88.01H119.088V88.27H125.542V88.01Z" fill="#EBEBEB"/>
<path d="M134.884 81.393C135.639 81.393 136.252 80.7144 136.252 79.8772C136.252 79.0401 135.639 78.3615 134.884 78.3615C134.128 78.3615 133.516 79.0401 133.516 79.8772C133.516 80.7144 134.128 81.393 134.884 81.393Z" fill="#E0E0E0"/>
<path d="M125.124 78.0182L126.849 75.6574V69.9816H123.235V78.0624L125.124 78.0182Z" fill="#F5F5F5"/>
<path d="M125.124 78.0182V69.9816H126.849V75.6574L125.124 78.0182Z" fill="#EBEBEB"/>
<path d="M127.093 69.147H122.832V69.9816H127.093V69.147Z" fill="#EBEBEB"/>
<path d="M115.801 95.2328H94.8311V111.353H115.801V95.2328Z" fill="#F5F5F5"/>
<path d="M107.961 95.2328H94.8311V111.353H107.961V95.2328Z" fill="#E0E0E0"/>
<path d="M106.006 100.43H97.4194V111.324H106.006V100.43Z" fill="#F5F5F5"/>
<path d="M114.646 100.386H109.115V101.946H114.646V100.386Z" fill="#EBEBEB"/>
<path d="M101.895 82.5812V83.4106H129.686V82.5734L101.895 82.5812Z" fill="#EBEBEB"/>
<path d="M129.686 83.4107L134.884 75.3273L134.898 74.4069L129.702 82.5813L129.686 83.4107Z" fill="#EBEBEB"/>
<path d="M146.61 82.6982H140.387V83.2338H146.61V82.6982Z" fill="#EBEBEB"/>
<path d="M124.005 97.0269H121.708V97.9941H124.005V97.0269Z" fill="#E0E0E0"/>
<path d="M158.44 111.353C158.44 111.389 126.901 111.42 88.0023 111.42C49.104 111.42 17.5601 111.389 17.5601 111.353C17.5601 111.316 49.0922 111.28 87.9999 111.28C126.908 111.28 158.44 111.314 158.44 111.353Z" fill="#263238"/>
<path d="M103.941 35.9372C98.7429 28.015 91.1867 24.323 83.2901 24.323C83.2901 24.323 63.9794 24.323 58.2606 43.4772C56.1486 50.5362 56.6179 58.201 59.1758 65.0754C60.1361 67.6887 61.3461 70.1807 62.785 72.5088C67.781 80.4908 83.3066 102.281 83.3066 102.281H86.6811C91.013 95.615 101.918 73.4708 105.185 66.3702C109.279 57.46 109.908 45.032 103.941 35.9372ZM86.5215 71.3674C83.2586 71.3674 80.069 70.2953 77.356 68.2868C74.643 66.2783 72.5285 63.4235 71.28 60.0835C70.0314 56.7435 69.7049 53.0682 70.3416 49.5226C70.9783 45.9769 72.5498 42.7201 74.8571 40.164C77.1645 37.6079 80.1042 35.8673 83.3045 35.1623C86.5048 34.4573 89.8219 34.8197 92.8363 36.2035C95.8507 37.5873 98.427 39.9304 100.239 42.9366C102.052 45.9427 103.019 49.4768 103.019 53.092C103.018 57.9392 101.28 62.5876 98.1859 66.0148C95.0921 69.442 90.8964 71.3674 86.5215 71.3674Z" fill="#0F7757"/>
<path opacity="0.4" d="M103.941 35.9372C98.7429 28.015 91.1867 24.323 83.2901 24.323C83.2901 24.323 63.9794 24.323 58.2606 43.4772C56.1486 50.5362 56.6179 58.201 59.1758 65.0754C60.1361 67.6887 61.3461 70.1807 62.785 72.5088C67.781 80.4908 83.3066 102.281 83.3066 102.281H86.6811C91.013 95.615 101.918 73.4708 105.185 66.3702C109.279 57.46 109.908 45.032 103.941 35.9372ZM86.5215 71.3674C83.2586 71.3674 80.069 70.2953 77.356 68.2868C74.643 66.2783 72.5285 63.4235 71.28 60.0835C70.0314 56.7435 69.7049 53.0682 70.3416 49.5226C70.9783 45.9769 72.5498 42.7201 74.8571 40.164C77.1645 37.6079 80.1042 35.8673 83.3045 35.1623C86.5048 34.4573 89.8219 34.8197 92.8363 36.2035C95.8507 37.5873 98.427 39.9304 100.239 42.9366C102.052 45.9427 103.019 49.4768 103.019 53.092C103.018 57.9392 101.28 62.5876 98.1859 66.0148C95.0921 69.442 90.8964 71.3674 86.5215 71.3674Z" fill="black"/>
<path d="M107.337 36.0855C102.139 28.1659 94.5825 24.4739 86.686 24.4739C86.686 24.4739 67.3752 24.4739 61.6564 43.6281C59.5444 50.6871 60.0137 58.3519 62.574 65.2263C63.533 67.8398 64.7422 70.3318 66.1808 72.6597C71.1768 80.6391 86.6953 102.44 86.6953 102.44C86.6953 102.44 104.626 75.1115 108.573 66.5315C112.675 57.6057 113.307 45.1829 107.337 36.0855ZM86.5428 71.5183C83.28 71.5183 80.0905 70.4463 77.3775 68.4379C74.6646 66.4295 72.5501 63.5748 71.3015 60.235C70.0529 56.8951 69.7262 53.22 70.3627 49.6744C70.9993 46.1288 72.5705 42.872 74.8776 40.3158C77.1848 37.7596 80.1243 36.0187 83.3244 35.3135C86.5245 34.6082 89.8415 34.9702 92.856 36.3536C95.8704 37.737 98.4469 40.0798 100.26 43.0856C102.072 46.0914 103.04 49.6252 103.04 53.2403C103.056 55.6456 102.64 58.0305 101.817 60.2562C100.994 62.4819 99.7793 64.504 98.2442 66.2049C96.7091 67.9058 94.884 69.2514 92.8751 70.1636C90.8663 71.0758 88.7138 71.5363 86.5428 71.5183Z" fill="#0F7757"/>
<path d="M86.5217 34.8141C83.1126 34.8141 79.7871 35.9842 77.0028 38.1636C74.2184 40.343 72.1118 43.4246 70.9727 46.9847C72.2455 43.8679 74.4044 41.2987 77.1196 39.6697C79.8347 38.0407 82.9565 37.4416 86.008 37.964C89.0594 38.4863 91.8725 40.1014 94.0173 42.5623C96.1621 45.0232 97.5205 48.1946 97.885 51.5916C98.2495 54.9887 97.5999 58.4245 96.0356 61.3739C94.4713 64.3233 92.0783 66.6241 89.2225 67.9245C86.3666 69.2248 83.205 69.4533 80.2209 68.575C77.2367 67.6966 74.5943 65.7598 72.6975 63.0605C74.2568 65.7142 76.4116 67.8735 78.9509 69.3267C81.4901 70.7799 84.3266 71.4772 87.1823 71.3502C90.038 71.2232 92.8149 70.2763 95.2409 68.6023C97.6668 66.9283 99.6586 64.5846 101.021 61.801C102.383 59.0174 103.069 55.8893 103.012 52.7234C102.955 49.5575 102.156 46.4625 100.694 43.7415C99.2325 41.0206 97.1576 38.7672 94.6731 37.2022C92.1886 35.6372 89.3797 34.8142 86.5217 34.8141Z" fill="#0F7757"/>
<path opacity="0.4" d="M86.5217 34.8141C83.1126 34.8141 79.7871 35.9842 77.0028 38.1636C74.2184 40.343 72.1118 43.4246 70.9727 46.9847C72.2455 43.8679 74.4044 41.2987 77.1196 39.6697C79.8347 38.0407 82.9565 37.4416 86.008 37.964C89.0594 38.4863 91.8725 40.1014 94.0173 42.5623C96.1621 45.0232 97.5205 48.1946 97.885 51.5916C98.2495 54.9887 97.5999 58.4245 96.0356 61.3739C94.4713 64.3233 92.0783 66.6241 89.2225 67.9245C86.3666 69.2248 83.205 69.4533 80.2209 68.575C77.2367 67.6966 74.5943 65.7598 72.6975 63.0605C74.2568 65.7142 76.4116 67.8735 78.9509 69.3267C81.4901 70.7799 84.3266 71.4772 87.1823 71.3502C90.038 71.2232 92.8149 70.2763 95.2409 68.6023C97.6668 66.9283 99.6586 64.5846 101.021 61.801C102.383 59.0174 103.069 55.8893 103.012 52.7234C102.955 49.5575 102.156 46.4625 100.694 43.7415C99.2325 41.0206 97.1576 38.7672 94.6731 37.2022C92.1886 35.6372 89.3797 34.8142 86.5217 34.8141Z" fill="black"/>
<path d="M119.415 61.4719C118.751 60.9667 117.946 60.7425 117.146 60.8401C115.794 61.0117 113.834 61.2327 113.834 61.2327V61.3029L104.37 61.9477L101.472 55.4347L97.0815 58.6405C97.0815 58.6405 97.6588 59.6649 100.12 64.7011C100.601 65.6841 101.342 66.48 102.244 66.9812C103.146 67.4824 104.165 67.6649 105.163 67.5039L116.308 65.6839V65.6605C117.46 65.5903 118.706 65.4707 118.889 65.2861C119.236 64.9377 119.551 63.6637 119.551 63.6637C119.551 63.6637 121.536 64.9637 121.919 65.0001C122.301 65.0365 122.372 64.6751 122.609 64.3007C122.778 64.0693 120.731 62.4651 119.415 61.4719Z" fill="#FFBE9D"/>
<path d="M102.063 55.0186C102.063 55.0186 100.224 51.0952 98.5435 47.3902C96.4737 42.8428 91.9095 41.9302 91.9095 41.9302L85.2965 40.9682C85.2965 40.9682 79.7631 38.1992 74.6239 45.0762L70.3999 50.3048L71.2987 51.2018L75.4875 55.3618L76.3158 56.1886L78.212 54.0254L77.332 59.5036L75.7761 67.1424L79.1389 66.6926L81.4128 51.2876L94.235 52.4186L93.2118 62.14C93.4184 62.1062 94.9695 61.7682 95.474 59.4334C95.6362 58.6884 95.6362 57.9113 95.474 57.1662L96.2156 59.2696L102.063 55.0186Z" fill="#455A64"/>
<path d="M81.3965 51.2954L79.1225 66.7004L75.7598 67.1502C78.006 69.2974 80.7338 70.7328 83.6553 71.3048C86.5767 71.8769 89.5833 71.5643 92.3577 70.4002L93.2119 62.14L94.2186 52.4264L81.3965 51.2954Z" fill="#263238"/>
<path d="M82.1568 40.2038L81.8799 52.7176L84.0107 53.092L84.2969 40.4092C84.2969 40.4092 83.5531 40.0192 82.1568 40.2038Z" fill="#263238"/>
<path d="M91.2056 52.7801L92.9679 42.0317C93.0688 41.9121 94.5144 42.4867 94.9508 43.0327L93.3692 53.0037L91.2056 52.7801Z" fill="#263238"/>
<path d="M84.0951 51.2512C84.1178 51.3194 84.1289 51.3917 84.128 51.4644C84.144 51.6616 84.144 51.86 84.128 52.0572C84.1115 52.3597 84.0197 52.6513 83.8628 52.8996C83.7661 53.0479 83.638 53.1675 83.4897 53.248C83.3258 53.3299 83.1432 53.3544 82.9664 53.3182C82.8007 53.2794 82.644 53.2033 82.5059 53.0946C82.3679 52.9859 82.2514 52.847 82.1638 52.6864C82.028 52.4266 81.9477 52.1357 81.9292 51.8362C81.9136 51.639 81.9136 51.4406 81.9292 51.2434C81.928 51.1696 81.9399 51.0963 81.9644 51.0276C81.9855 51.0276 81.9644 51.3396 82.0136 51.8258C82.0464 52.1018 82.1303 52.3674 82.26 52.6058C82.3412 52.7493 82.4477 52.8733 82.5731 52.9702C82.6985 53.0671 82.8402 53.1351 82.9899 53.17C83.1381 53.199 83.2908 53.1807 83.43 53.1172C83.5692 53.0536 83.6892 52.9475 83.776 52.8112C83.9258 52.5817 84.0188 52.3128 84.0459 52.0312C84.0975 51.5632 84.0717 51.2512 84.0951 51.2512Z" fill="#455A64"/>
<path d="M82.8373 52.3562C82.7169 52.3031 82.6204 52.1992 82.5692 52.0673C82.5179 51.9354 82.516 51.7863 82.5639 51.6529C82.6119 51.5195 82.7057 51.4126 82.8247 51.3558C82.9437 51.299 83.0783 51.2969 83.1987 51.35C83.2583 51.3763 83.3127 51.4154 83.3587 51.4649C83.4047 51.5145 83.4415 51.5736 83.4669 51.6389C83.4922 51.7042 83.5058 51.7744 83.5067 51.8455C83.5076 51.9166 83.4958 51.9872 83.4721 52.0533C83.4484 52.1194 83.4131 52.1796 83.3684 52.2306C83.3236 52.2816 83.2703 52.3223 83.2113 52.3504C83.1524 52.3785 83.089 52.3935 83.0248 52.3945C82.9607 52.3955 82.8969 52.3825 82.8373 52.3562Z" fill="#455A64"/>
<path d="M92.8622 52.4239C92.8627 52.5314 92.8343 52.6368 92.7807 52.7265C92.7271 52.8162 92.6507 52.8862 92.5611 52.9277C92.4715 52.9693 92.3728 52.9804 92.2776 52.9597C92.1823 52.9391 92.0947 52.8875 92.0258 52.8116C91.957 52.7357 91.9101 52.6389 91.8909 52.5334C91.8718 52.4279 91.8814 52.3186 91.9185 52.2191C91.9555 52.1197 92.0184 52.0346 92.0991 51.9748C92.1798 51.915 92.2747 51.8831 92.3718 51.8831C92.5015 51.8831 92.6259 51.9399 92.7178 52.0413C92.8097 52.1426 92.8616 52.2802 92.8622 52.4239Z" fill="#455A64"/>
<path d="M93.5168 52.0494C93.5129 52.2654 93.4756 52.4791 93.4066 52.6812C93.3406 52.911 93.2292 53.1215 93.0804 53.2974C92.9853 53.4065 92.8693 53.4903 92.7408 53.5425C92.6124 53.5947 92.475 53.614 92.3388 53.599C92.0671 53.5664 91.816 53.4227 91.6348 53.196C91.4937 53.0109 91.3998 52.7874 91.3626 52.5486C91.3354 52.3918 91.3306 52.2312 91.3485 52.0728C91.3514 52.0137 91.3658 51.9561 91.3908 51.9038C91.394 52.114 91.4128 52.3236 91.4471 52.5304C91.4928 52.7466 91.5863 52.9467 91.7193 53.1128C91.8847 53.3102 92.1088 53.4349 92.3506 53.4638C92.4699 53.4776 92.5906 53.4614 92.7036 53.4164C92.8165 53.3714 92.9188 53.2987 93.0029 53.2038C93.1448 53.0455 93.2552 52.8559 93.3268 52.6474C93.4488 52.286 93.4957 52.0416 93.5168 52.0494Z" fill="#455A64"/>
<path d="M82.7975 57.2C82.7811 57.2 82.7741 57.096 82.7788 56.94C82.7788 56.8594 82.7788 56.7606 82.7905 56.654C82.7905 56.5968 82.7905 56.5396 82.8022 56.485V56.3966V56.3498V56.3056L82.8703 56.238C83.1459 56.2484 83.4187 56.3036 83.6799 56.4018C83.4054 56.4359 83.1279 56.4254 82.8562 56.3706C82.8421 56.3862 82.9853 56.2432 82.9243 56.3056V56.3446V56.3914V56.4824C82.9243 56.5396 82.9125 56.5942 82.9055 56.654C82.9055 56.7632 82.8797 56.8594 82.8679 56.9426C82.8374 57.0908 82.814 57.2 82.7975 57.2Z" fill="#455A64"/>
<path d="M82.4546 60.7725C82.4237 60.4719 82.4324 60.168 82.4805 59.8703C82.4891 59.5675 82.5381 59.2679 82.6259 58.9811C82.6598 59.2814 82.6519 59.5856 82.6025 59.8833C82.5918 60.186 82.542 60.4854 82.4546 60.7725Z" fill="#455A64"/>
<path d="M82.9311 63.8743C82.6629 63.8011 82.4059 63.6846 82.1684 63.5285C82.1684 63.5441 82.105 63.4011 82.1332 63.4609V63.4219V63.3751V63.2841L82.1543 63.1151C82.1684 63.0085 82.1825 62.9097 82.1942 62.8291C82.2224 62.6679 82.2458 62.5691 82.2623 62.5691C82.2787 62.5691 82.2857 62.6757 82.281 62.8291C82.281 62.9123 82.2763 63.0085 82.267 63.1177C82.267 63.1775 82.267 63.2321 82.2529 63.2893V63.3777V63.4245V63.4661C82.2834 63.5259 82.213 63.3829 82.22 63.3985C82.4768 63.5176 82.7164 63.6779 82.9311 63.8743Z" fill="#455A64"/>
<path d="M85.0996 65.0676C84.7049 64.9543 84.3346 64.7545 84.0107 64.48C84.2126 64.5168 84.4057 64.5981 84.5786 64.7192C84.7714 64.7959 84.9485 64.9144 85.0996 65.0676Z" fill="#455A64"/>
<path d="M87.6809 65.7255C87.4538 65.9001 87.2048 66.0368 86.9417 66.1311H86.8831H86.8643L86.8267 66.1103L86.754 66.0687L86.6179 65.9907L86.3832 65.8477C86.2565 65.7645 86.1814 65.7047 86.1884 65.6865C86.1955 65.6683 86.2847 65.6865 86.4231 65.7619C86.4912 65.7931 86.5733 65.8321 86.6578 65.8789L86.7962 65.9517L86.8713 65.9907L86.9089 66.0089H86.9276H86.8878C87.138 65.8713 87.4053 65.7758 87.6809 65.7255Z" fill="#455A64"/>
<path d="M89.4336 64.9377C89.4454 64.9741 89.26 65.0885 89.0183 65.1977C88.7766 65.3069 88.5701 65.3667 88.5489 65.3329C88.5278 65.2991 88.7226 65.1821 88.9643 65.0729C89.206 64.9637 89.4195 64.9039 89.4336 64.9377Z" fill="#455A64"/>
<path d="M91.1562 63.297C91.1872 63.6009 91.1793 63.9081 91.1327 64.2096L91.0928 64.2668H91.0741L91.0342 64.285L90.9591 64.3188L90.8159 64.3786C90.7221 64.415 90.6399 64.4488 90.5672 64.4722C90.4264 64.5242 90.3325 64.5476 90.3325 64.5294C90.3325 64.5112 90.4076 64.4592 90.539 64.3838L90.7737 64.2616L90.9168 64.194L90.9919 64.1602L91.0295 64.142H91.0506L91.0131 64.1992C91.0197 63.8922 91.0679 63.5881 91.1562 63.297Z" fill="#455A64"/>
<path d="M91.4683 59.9275C91.4994 60.4948 91.4463 61.064 91.3111 61.6123C91.2784 61.3303 91.2847 61.0445 91.3299 60.7647C91.3364 60.4793 91.3831 60.1969 91.4683 59.9275Z" fill="#455A64"/>
<path d="M90.8936 57.2417C91.168 57.2077 91.4455 57.2182 91.7172 57.2729L91.7712 57.3457V57.3873V57.4341V57.5225C91.7712 57.5797 91.7595 57.6343 91.7524 57.6915C91.7384 57.8007 91.7266 57.8969 91.7125 57.9801C91.6867 58.1413 91.6609 58.2401 91.6445 58.2401C91.6281 58.2401 91.6234 58.1335 91.6257 57.9801C91.6257 57.8969 91.6257 57.7981 91.6398 57.6889L91.6515 57.5199V57.4289V57.3431L91.7055 57.4159C91.4286 57.4024 91.155 57.3437 90.8936 57.2417Z" fill="#455A64"/>
<path d="M88.0142 56.8985C88.4997 56.865 88.9869 56.923 89.455 57.0701C89.2133 57.108 88.9675 57.1018 88.7275 57.0519C88.4839 57.043 88.2431 56.9913 88.0142 56.8985Z" fill="#455A64"/>
<path d="M85.1344 56.5527C85.3762 56.5148 85.6219 56.5209 85.8619 56.5709C86.1023 56.5808 86.3399 56.6326 86.5659 56.7243C86.0803 56.7577 85.5931 56.6997 85.125 56.5527H85.1344Z" fill="#455A64"/>
<path d="M70.0479 52.1482C70.0315 52.4602 70.0244 52.7748 70.0244 53.092C70.0236 54.3269 70.1361 55.5587 70.36 56.7684V56.8048C70.3881 56.9556 70.421 57.1038 70.4539 57.252C70.5806 57.8396 70.7331 58.4194 70.9021 58.9914C70.9232 59.0616 70.9443 59.1344 70.9678 59.2046C71.5732 59.0538 73.3285 57.369 75.349 55.2656L71.1626 51.1056C70.5829 51.74 70.238 52.0754 70.0479 52.1482Z" fill="#FFBE9D"/>
<path d="M96.4762 25.1447C96.6217 26.9413 98.4686 28.4545 100.097 28.3999C100.994 28.3687 101.902 27.9267 102.763 28.2023C104.209 28.6677 104.793 30.9011 106.283 31.2001C107.391 31.4237 108.411 30.4201 109.535 30.3629C110.361 30.3135 111.141 30.7711 111.826 31.2859C112.511 31.8007 113.163 32.3961 113.938 32.6899C114.712 32.9837 115.44 32.4637 116.23 32.1959C116.425 32.7523 116.554 33.4387 116.805 34.0159C117.057 34.5931 117.362 35.6617 116.916 35.8905C116.916 35.8905 115.67 36.6055 114.949 36.5665C115.24 36.8915 115.603 37.1257 116.002 37.2453C116.401 37.365 116.822 37.3658 117.221 37.2477C117.42 38.5841 117.57 40.1259 116.751 41.1321C116.369 41.5683 115.879 41.871 115.343 42.0031C112.729 42.7519 109.995 40.7265 107.341 41.2777C106.252 41.5065 105.255 42.1565 104.155 42.3177C103.612 42.3922 103.061 42.3457 102.535 42.1809C102.008 42.0162 101.517 41.7365 101.09 41.3583C100.043 40.4197 99.3227 38.8493 97.9945 38.6023C97.4055 38.4957 96.8095 38.6829 96.2322 38.8623C95.6549 39.0417 95.0589 39.2133 94.4698 39.0755C93.8808 38.9377 93.3364 38.3865 93.3622 37.7261" fill="#263238"/>
<path d="M91.2851 42.5932C91.5784 40.7732 91.9163 38.883 91.9163 38.883C91.9163 38.883 94.0846 38.9064 95.0069 35.945C95.8845 33.1214 96.5181 26.325 96.5181 26.325C95.1273 25.3658 93.5047 24.9014 91.8685 24.9943C90.2324 25.0873 88.6611 25.7331 87.3661 26.845L85.2049 41.6C84.9538 43.3134 86.0825 44.915 87.7393 45.1984C89.4077 45.5 90.9964 44.3196 91.2851 42.5932Z" fill="#FFBE9D"/>
<path d="M94.8966 31.4158C94.8816 31.5176 94.8312 31.6089 94.7562 31.6701C94.6812 31.7313 94.5876 31.7576 94.4954 31.7434C94.4496 31.7389 94.4052 31.7242 94.3647 31.7003C94.3241 31.6764 94.2884 31.6437 94.2595 31.6042C94.2306 31.5646 94.2091 31.5191 94.1965 31.4702C94.1838 31.4213 94.1801 31.3701 94.1856 31.3196C94.2012 31.2175 94.2521 31.1262 94.3274 31.0651C94.4028 31.0039 94.4967 30.9777 94.5892 30.992C94.6347 30.9968 94.6789 31.0117 94.7192 31.0358C94.7594 31.0598 94.7949 31.0926 94.8236 31.1321C94.8522 31.1715 94.8735 31.217 94.886 31.2657C94.8986 31.3145 94.9022 31.3655 94.8966 31.4158Z" fill="#263238"/>
<path d="M95.5376 31.0909C95.486 31.1325 95.2537 30.8621 94.8735 30.7893C94.4934 30.7165 94.1836 30.8699 94.1507 30.8127C94.1179 30.7555 94.193 30.7009 94.3291 30.6281C94.5136 30.5331 94.7203 30.504 94.9204 30.5449C95.1169 30.5845 95.2973 30.6908 95.4367 30.8491C95.5376 30.9713 95.5634 31.0701 95.5376 31.0909Z" fill="#263238"/>
<path d="M91.0012 30.7321C90.9856 30.8341 90.9347 30.9254 90.8593 30.9866C90.784 31.0478 90.6901 31.074 90.5975 31.0597C90.552 31.0548 90.5078 31.0399 90.4676 31.0159C90.4273 30.9918 90.3918 30.9591 90.3632 30.9196C90.3345 30.8801 90.3133 30.8346 90.3007 30.7859C90.2882 30.7372 90.2846 30.6862 90.2901 30.6359C90.3057 30.5338 90.3566 30.4425 90.4319 30.3813C90.5073 30.3202 90.6012 30.294 90.6937 30.3083C90.7393 30.3131 90.7835 30.328 90.8237 30.352C90.864 30.3761 90.8995 30.4088 90.9281 30.4483C90.9568 30.4878 90.978 30.5333 90.9905 30.582C91.0031 30.6307 91.0067 30.6818 91.0012 30.7321Z" fill="#263238"/>
<path d="M91.5549 30.4694C91.5033 30.511 91.271 30.2406 90.8908 30.1678C90.5106 30.095 90.2009 30.251 90.1657 30.1912C90.1305 30.1314 90.2079 30.082 90.3464 30.0066C90.5307 29.9138 90.7362 29.8857 90.9354 29.926C91.1332 29.9634 91.3149 30.07 91.454 30.2302C91.5549 30.3524 91.5807 30.4512 91.5549 30.4694Z" fill="#263238"/>
<path d="M92.4351 33.8572C92.6462 33.8273 92.8599 33.8273 93.071 33.8572C93.1696 33.8572 93.2658 33.8572 93.2939 33.7922C93.3191 33.6831 93.3142 33.5681 93.2799 33.462C93.2306 33.1838 93.179 32.8926 93.1226 32.5884C92.9091 31.3482 92.7753 30.3342 92.8199 30.3238C92.8645 30.3134 93.0734 31.3144 93.2892 32.5572C93.3385 32.8614 93.3878 33.1526 93.4324 33.4308C93.4737 33.5722 93.4678 33.7254 93.416 33.8624C93.3959 33.8974 93.3691 33.927 93.3375 33.9491C93.3058 33.9711 93.2701 33.985 93.2329 33.9898C93.1768 33.9968 93.1201 33.9968 93.064 33.9898C92.8502 33.9745 92.639 33.93 92.4351 33.8572Z" fill="#263238"/>
<path d="M91.9072 38.883C90.6081 38.6484 89.3934 38.0183 88.3989 37.063C88.3989 37.063 88.9598 39.3302 91.757 39.5798L91.9072 38.883Z" fill="#EB996E"/>
<path d="M92.1136 34.84C92.0566 34.726 91.9748 34.6297 91.8756 34.5597C91.7764 34.4898 91.663 34.4485 91.5457 34.4396C91.4611 34.4324 91.376 34.4438 91.2955 34.4733C91.2149 34.5027 91.1404 34.5496 91.0763 34.6112C91.0145 34.6717 90.9709 34.7518 90.9516 34.8406C90.9323 34.9295 90.9381 35.0228 90.9684 35.1078C91.0172 35.1937 91.0877 35.2619 91.1711 35.3039C91.2545 35.346 91.3472 35.36 91.4377 35.3444C91.6275 35.3077 91.8091 35.2309 91.9728 35.1182C92.0212 35.0927 92.065 35.0574 92.1018 35.0142C92.1194 34.9938 92.1311 34.9681 92.1353 34.9402C92.1395 34.9124 92.136 34.8838 92.1253 34.8582" fill="#EB996E"/>
<path d="M91.2851 33.93C91.3485 33.93 91.2851 34.3928 91.5761 34.7854C91.8671 35.178 92.3247 35.2144 92.3176 35.2794C92.3106 35.3444 92.205 35.347 92.0196 35.3184C91.778 35.2751 91.5578 35.1388 91.3977 34.9336C91.2431 34.7362 91.1647 34.4794 91.1795 34.2186C91.1818 34.0262 91.2452 33.9196 91.2851 33.93Z" fill="#263238"/>
<path d="M89.2271 24.6662C89.9616 26.4628 92.3411 28.6468 94.1809 29.4216C94.0119 29.0524 92.9794 28.0098 92.8128 27.6406C93.5543 28.5324 94.6267 29.744 95.7602 30.0482C95.8907 30.0961 96.031 30.1007 96.1638 30.0612C96.2371 30.0198 96.3008 29.9603 96.35 29.8872C96.3992 29.8142 96.4327 29.7296 96.4477 29.64C96.6676 28.7345 96.7982 27.8052 96.8373 26.8684C96.876 26.0784 96.6409 25.3019 96.1802 24.6974C95.5537 23.9174 94.5376 23.543 93.5473 23.309C92.7323 23.076 91.8839 23.023 91.0504 23.153C90.2361 23.3246 89.4758 23.8446 89.2317 24.6116" fill="#263238"/>
<path d="M84.8411 31.4289C84.8276 30.7346 84.8511 30.0401 84.9115 29.3489C85.0969 27.7629 85.5451 21.9987 90.3464 23.4807L89.8348 24.9601C89.8348 24.9601 90.2033 28.6703 87.7393 30.6619C87.7393 30.6619 87.751 34.3669 86.0426 35.7033C86.0426 35.7033 84.8529 33.1917 84.8411 31.4393" fill="#263238"/>
<path d="M87.8424 30.4018C87.5585 30.2744 87.2484 30.2357 86.946 30.29C86.644 30.3481 86.3745 30.5347 86.1951 30.81C86.0322 31.0999 85.9744 31.4473 86.0332 31.7824C86.0938 32.1151 86.2204 32.4286 86.4039 32.7002C86.5228 32.9045 86.6836 33.0747 86.8733 33.1968C86.9699 33.2544 87.078 33.2846 87.1877 33.2846C87.2975 33.2846 87.4055 33.2544 87.5022 33.1968" fill="#FFBE9D"/>
<path d="M87.3661 32.344C87.3966 32.3622 87.237 32.5338 86.9813 32.4012C86.9141 32.3606 86.8548 32.3058 86.8069 32.2397C86.759 32.1737 86.7233 32.0978 86.702 32.0164C86.6477 31.833 86.6269 31.6394 86.641 31.447C86.6508 31.2412 86.7275 31.0464 86.8569 30.8984C86.9107 30.8349 86.9771 30.7859 87.0507 30.7552C87.1243 30.7246 87.2033 30.7131 87.2816 30.7216C87.5609 30.7684 87.6125 30.9972 87.5797 30.9972C87.5468 30.9972 87.4647 30.8854 87.2746 30.8984C87.1568 30.9243 87.0513 30.9958 86.9769 31.1002C86.9025 31.2046 86.8641 31.3349 86.8686 31.4678C86.8475 31.811 86.9156 32.1412 87.0634 32.2478C87.2112 32.3544 87.352 32.3128 87.3661 32.344Z" fill="#EB996E"/>
<path d="M115.643 30.6515C115.611 30.73 115.568 30.802 115.514 30.8647C115.361 31.0453 115.162 31.1719 114.944 31.2287C114.598 31.3248 114.233 31.2966 113.902 31.1481C113.477 30.9406 113.082 30.6656 112.729 30.3317C112.325 29.9937 111.875 29.5933 111.297 29.4555C110.999 29.393 110.691 29.4072 110.399 29.4971C110.086 29.5979 109.783 29.7329 109.495 29.9001C109.195 30.0691 108.89 30.2563 108.556 30.4201C108.225 30.6002 107.864 30.7062 107.496 30.7321C107.107 30.7463 106.724 30.6234 106.402 30.3811C106.084 30.1249 105.807 29.8122 105.581 29.4555C105.112 28.7639 104.731 28.0125 104.159 27.5211C103.881 27.2792 103.549 27.1247 103.199 27.0739C102.86 27.0316 102.517 27.0482 102.183 27.1233C101.526 27.2585 100.911 27.4899 100.306 27.5757C99.7438 27.6508 99.1741 27.596 98.6324 27.4145C97.8466 27.1553 97.144 26.6529 96.6072 25.9663C96.4101 25.7186 96.2458 25.4411 96.1191 25.1421C96.1332 25.1573 96.1451 25.1748 96.1543 25.1941C96.1778 25.2383 96.2083 25.2903 96.2459 25.3553C96.8048 26.3154 97.6624 27.0148 98.6559 27.3209C99.1886 27.4941 99.748 27.5428 100.299 27.4639C100.89 27.3755 101.5 27.1415 102.176 27.0011C102.521 26.92 102.876 26.9016 103.227 26.9465C103.598 26.999 103.948 27.1607 104.243 27.4145C104.844 27.9345 105.227 28.6937 105.691 29.3749C105.908 29.7197 106.175 30.022 106.482 30.2693C106.782 30.4965 107.14 30.6122 107.503 30.5995C107.857 30.5752 108.203 30.4736 108.521 30.3005C108.843 30.1445 109.145 29.9599 109.448 29.7805C109.744 29.6091 110.054 29.4715 110.375 29.3697C110.681 29.2782 111.002 29.2648 111.314 29.3307C111.857 29.5103 112.357 29.8221 112.778 30.2433C113.123 30.576 113.508 30.8527 113.923 31.0649C114.241 31.2125 114.591 31.2479 114.928 31.1663C115.14 31.1137 115.335 30.9987 115.493 30.8335C115.601 30.7269 115.639 30.6489 115.643 30.6515Z" fill="#263238"/>
<path d="M61.5953 82.3004L57.3384 91.8138L58.6079 91.8658L55.0011 99.4266H56.8972L53.9404 106.142H70.4586L66.8213 99.4266L68.5649 99.3408L65.0801 91.7852L66.3684 91.702L61.5953 82.3004Z" fill="#455A64"/>
<path d="M62.3135 93.34C62.3487 93.34 62.3135 97.37 62.2572 102.339C62.2009 107.307 62.1094 111.335 62.0765 111.335C62.0437 111.335 62.0765 107.305 62.1352 102.336C62.1938 97.3674 62.2807 93.34 62.3135 93.34Z" fill="#263238"/>
<path d="M64.3384 95.7814C64.2734 95.934 64.187 96.0744 64.0826 96.1974C63.8508 96.5099 63.6033 96.8076 63.3411 97.0892C63.0407 97.4246 62.7685 97.7236 62.5784 97.9498C62.483 98.0799 62.3761 98.1993 62.2593 98.306C62.3236 98.1527 62.4091 98.0114 62.5127 97.8874C62.7458 97.5761 62.9934 97.2785 63.2543 96.9956C63.557 96.6602 63.8292 96.3612 64.0193 96.135C64.1135 96.0043 64.2205 95.8857 64.3384 95.7814Z" fill="#263238"/>
<path d="M62.2735 98.4022C61.939 98.1947 61.6245 97.9499 61.3349 97.6716C61.0184 97.426 60.7258 97.1445 60.4619 96.8318C60.7966 97.039 61.1111 97.2838 61.4006 97.5624C61.7175 97.8074 62.0101 98.0889 62.2735 98.4022Z" fill="#263238"/>
<path d="M62.1609 103.069C61.7925 102.781 61.4391 102.469 61.1026 102.136C60.7397 101.838 60.3926 101.516 60.063 101.174C60.4651 101.408 60.8402 101.695 61.18 102.029C61.5445 102.33 61.874 102.679 62.1609 103.069Z" fill="#263238"/>
<path d="M64.5147 100.183C64.5452 100.209 64.0618 100.906 63.3813 101.673L62.5248 102.666C62.4165 102.814 62.2946 102.949 62.161 103.069C62.1305 103.043 62.6139 102.346 63.2945 101.579L64.151 100.589C64.2597 100.441 64.3816 100.305 64.5147 100.183Z" fill="#263238"/>
</svg>
