<svg width="275" height="247" viewBox="0 0 275 247" fill="none" xmlns="http://www.w3.org/2000/svg">
<path d="M246.829 56.0839C245.005 53.445 242.997 50.9123 240.818 48.501C223.02 28.8447 199.749 20.5257 173.168 14.9534C145.712 9.19832 113.564 7.41004 87.2025 17.784C80.9985 20.254 75.1025 23.5144 70.4385 27.9604C52.8 44.712 46.75 72.7662 27.1095 94.9419C7.46902 117.118 -2.11198 144.742 15.521 170.964C22.9845 182.069 32.4995 191.218 43.758 199.27C57.618 209.15 69.575 222.517 85.5965 230.248C102.432 238.37 124.856 241.2 143.49 237.481C164.747 233.237 177.216 216.362 193.441 204.877C206.234 195.807 221.54 189.869 234.075 180.513C253.281 166.187 267.845 143.137 265.425 120.299C263.049 98.1282 259.991 75.088 246.829 56.0839Z" fill="#1BB284"/>
<path opacity="0.7" d="M246.829 56.0839C245.005 53.445 242.997 50.9123 240.818 48.501C223.02 28.8447 199.749 20.5257 173.168 14.9534C145.712 9.19832 113.564 7.41004 87.2025 17.784C80.9985 20.254 75.1025 23.5144 70.4385 27.9604C52.8 44.712 46.75 72.7662 27.1095 94.9419C7.46902 117.118 -2.11198 144.742 15.521 170.964C22.9845 182.069 32.4995 191.218 43.758 199.27C57.618 209.15 69.575 222.517 85.5965 230.248C102.432 238.37 124.856 241.2 143.49 237.481C164.747 233.237 177.216 216.362 193.441 204.877C206.234 195.807 221.54 189.869 234.075 180.513C253.281 166.187 267.845 143.137 265.425 120.299C263.049 98.1282 259.991 75.088 246.829 56.0839Z" fill="white"/>
<path opacity="0.2" d="M250.113 15.3634C249.583 15.3639 249.067 15.514 248.638 15.7924C248.209 16.0707 247.888 16.4633 247.72 16.9146H123.69C123.497 16.4016 123.108 15.9668 122.592 15.6877C122.075 15.4086 121.465 15.3035 120.871 15.391C120.276 15.4786 119.735 15.7532 119.345 16.1657C118.955 16.5783 118.741 17.1019 118.741 17.6432C118.741 18.1845 118.955 18.7082 119.345 19.1208C119.735 19.5333 120.276 19.8079 120.871 19.8955C121.465 19.983 122.075 19.8779 122.592 19.5988C123.108 19.3197 123.497 18.8849 123.69 18.3719H247.72C247.871 18.767 248.14 19.1172 248.497 19.384C248.855 19.6508 249.288 19.8239 249.748 19.8843C250.208 19.9447 250.678 19.8901 251.105 19.7265C251.533 19.5628 251.902 19.2965 252.173 18.9566C252.443 18.6168 252.604 18.2167 252.637 17.8002C252.671 17.3837 252.576 16.9669 252.363 16.5956C252.15 16.2243 251.828 15.9129 251.431 15.6955C251.034 15.4782 250.578 15.3633 250.113 15.3634Z" fill="black"/>
<g opacity="0.2">
<path d="M153.021 18.772C154.792 57.3929 156.321 96.3843 158.186 134.862L158.004 142.405C158.004 142.405 150.057 142.405 145.871 142.781C141.686 143.156 135.201 143.156 130.598 143.156C125.994 143.156 123.486 141.65 123.486 141.65L123.789 134.852C124.713 96.3893 125.719 57.3929 126.368 18.7621" stroke="black" stroke-linejoin="round"/>
<path d="M133.205 128.494L133.183 133.039" stroke="black" stroke-linejoin="round"/>
<path d="M133.64 39.8905L133.227 124.453" stroke="black" stroke-linejoin="round"/>
<path d="M133.744 17.9272L133.65 37.3661" stroke="black" stroke-linejoin="round"/>
<path d="M140.877 62.3478L139.926 118.649" stroke="black" stroke-linejoin="round"/>
<path d="M141.614 18.4312L140.932 58.8255" stroke="black" stroke-linejoin="round"/>
<path d="M147.532 78.0076L147.796 130.263" stroke="black" stroke-linejoin="round"/>
<path d="M147.345 40.8982L147.51 73.7146" stroke="black" stroke-linejoin="round"/>
<path d="M147.235 18.9351L147.323 36.8623" stroke="black" stroke-linejoin="round"/>
</g>
<g opacity="0.2">
<path d="M217.19 18.772C215.49 59.6653 213.34 100.969 211.69 141.645C214.638 142.046 217.609 142.291 220.589 142.381H238.359C241.119 142.326 243.868 142.072 246.582 141.62C245.784 100.969 245.24 59.6653 243.832 18.772" stroke="black" stroke-linejoin="round"/>
<path d="M237.006 128.494L237.028 133.039" stroke="black" stroke-linejoin="round"/>
<path d="M236.578 39.8905L236.99 124.453" stroke="black" stroke-linejoin="round"/>
<path d="M236.467 17.9272L236.561 37.3661" stroke="black" stroke-linejoin="round"/>
<path d="M229.339 62.3478L230.285 118.649" stroke="black" stroke-linejoin="round"/>
<path d="M228.597 18.4312L229.279 58.8255" stroke="black" stroke-linejoin="round"/>
<path d="M222.679 78.0076L222.415 130.263" stroke="black" stroke-linejoin="round"/>
<path d="M222.866 40.8982L222.701 73.7146" stroke="black" stroke-linejoin="round"/>
<path d="M222.976 18.9351L222.888 36.8623" stroke="black" stroke-linejoin="round"/>
</g>
<g opacity="0.2">
<path d="M153.813 29.7585H166.293V42.8397H154.644" stroke="black" stroke-linejoin="round"/>
<path d="M181.517 29.7883H168.471V42.909H181.517V29.7883Z" stroke="black" stroke-linejoin="round"/>
</g>
<g opacity="0.2">
<path d="M216.568 29.7585H204.089V42.8397H215.738" stroke="black" stroke-linejoin="round"/>
<path d="M188.865 42.9088H201.911V29.7882H188.865V42.9088Z" stroke="black" stroke-linejoin="round"/>
</g>
<path opacity="0.2" d="M155.87 89.1917H181.852V49.978H154.732" stroke="black" stroke-linejoin="round"/>
<path opacity="0.2" d="M215.254 49.6471H188.705V89.1918H213.257" stroke="black" stroke-linejoin="round"/>
<path opacity="0.2" d="M156.728 98.4987H181.852V137.92H158.631" stroke="black" stroke-linejoin="round"/>
<path opacity="0.2" d="M213.543 98.1677H188.705V138.285H211.349" stroke="black" stroke-linejoin="round"/>
<path opacity="0.2" d="M158.516 140.79H211.695" stroke="black" stroke-linejoin="round"/>
<path opacity="0.2" d="M153.708 25.2188H216.54" stroke="black" stroke-linejoin="round"/>
<path opacity="0.2" d="M185.273 25.4905V140.247" stroke="black" stroke-linejoin="round"/>
<path opacity="0.2" d="M154.506 46.9448H215.622" stroke="black" stroke-linejoin="round"/>
<g opacity="0.2">
<path d="M195.195 190.284V152.152C195.195 151.432 195.037 150.719 194.73 150.054C194.423 149.389 193.974 148.785 193.407 148.276C192.84 147.768 192.167 147.364 191.426 147.089C190.685 146.814 189.892 146.673 189.09 146.674H133.309V190.684" stroke="black" stroke-linejoin="round"/>
<path d="M133.776 146.664H76.956C76.1538 146.663 75.3595 146.805 74.6184 147.08C73.8773 147.356 73.2041 147.76 72.6375 148.27C72.0708 148.78 71.6217 149.386 71.3161 150.052C71.0105 150.718 70.8543 151.432 70.8565 152.152V190.294" stroke="black" stroke-linejoin="round"/>
<path d="M200.706 193.925V206.769H133.336V190.284H196.652C197.727 190.284 198.759 190.668 199.519 191.35C200.279 192.033 200.706 192.959 200.706 193.925Z" stroke="black" stroke-linejoin="round"/>
<path d="M133.848 190.284H69.4047C68.8719 190.283 68.3442 190.377 67.8518 190.56C67.3594 190.742 66.9119 191.01 66.5349 191.349C66.1579 191.687 65.8588 192.088 65.6548 192.53C65.4507 192.972 65.3457 193.446 65.3457 193.925V206.769H133.848" stroke="black" stroke-linejoin="round"/>
<path d="M200.822 206.754H65.3457V227.418H200.822V206.754Z" stroke="black" stroke-linejoin="round"/>
<path d="M70.8565 168.4C70.4746 168.042 70.016 167.757 69.5085 167.563C69.0009 167.369 68.4548 167.268 67.903 167.268H55.6325C54.5506 167.267 53.5123 167.651 52.7452 168.336C51.9781 169.022 51.5449 169.952 51.5405 170.924V223.733C51.542 224.707 51.9737 225.64 52.741 226.328C53.5082 227.017 54.5482 227.403 55.6325 227.403H67.903" stroke="black" stroke-linejoin="round"/>
<path d="M196.729 227.418H209C210.084 227.418 211.123 227.031 211.889 226.343C212.656 225.655 213.086 224.721 213.086 223.747V170.924C213.082 169.953 212.649 169.023 211.884 168.338C211.118 167.653 210.081 167.268 209 167.268H196.729C196.203 167.267 195.682 167.358 195.195 167.535" stroke="black" stroke-linejoin="round"/>
</g>
<path d="M136.878 72.7267V55.4762H135.14V33.3944C135.144 31.6051 134.755 29.8327 133.995 28.1786C133.235 26.5246 132.119 25.0213 130.712 23.7549C129.305 22.4885 127.633 21.4838 125.793 20.7983C123.953 20.1128 121.98 19.76 119.988 19.76H38.5878C36.5949 19.7594 34.6215 20.1117 32.7803 20.7968C30.9392 21.482 29.2666 22.4865 27.8582 23.7529C26.4497 25.0193 25.3332 26.5227 24.5724 28.1771C23.8116 29.8315 23.4214 31.6044 23.4243 33.3944V181.96C23.4243 185.571 25.0213 189.034 27.864 191.587C30.7067 194.14 34.5622 195.575 38.5823 195.575H119.982C121.973 195.575 123.943 195.222 125.782 194.538C127.621 193.854 129.292 192.851 130.699 191.587C132.106 190.322 133.222 188.821 133.983 187.17C134.744 185.518 135.136 183.748 135.135 181.96V87.438H136.873V77.2369H135.135V72.7267H136.878Z" fill="#707070" stroke="#263238" stroke-linejoin="round"/>
<path d="M116.6 21.657H41.9647C32.6941 21.657 25.1787 28.4071 25.1787 36.7339V178.621C25.1787 186.947 32.6941 193.697 41.9647 193.697H116.6C125.87 193.697 133.386 186.947 133.386 178.621V36.7339C133.386 28.4071 125.87 21.657 116.6 21.657Z" fill="#263238" stroke="#263238" stroke-linejoin="round"/>
<path d="M115.225 22.892H85.173L85.14 22.9908C84.2545 25.8658 82.203 27.7332 79.937 27.7332H78.65C76.3785 27.7332 74.3325 25.8658 73.4415 22.9908L73.414 22.892H43.3455C39.3253 22.892 35.4699 24.3264 32.6272 26.8796C29.7845 29.4328 28.1875 32.8958 28.1875 36.5066V172.238C28.1875 174.026 28.5796 175.796 29.3414 177.447C30.1033 179.099 31.2199 180.599 32.6275 181.863C34.0351 183.127 35.7062 184.13 37.5452 184.813C39.3842 185.497 41.3552 185.848 43.3455 185.848H115.225C117.215 185.848 119.186 185.497 121.024 184.813C122.863 184.129 124.534 183.127 125.941 181.863C127.348 180.599 128.464 179.099 129.226 177.447C129.987 175.796 130.378 174.025 130.377 172.238V36.5066C130.378 34.7189 129.987 32.9487 129.226 31.2969C128.464 29.6451 127.348 28.1442 125.941 26.8799C124.534 25.6156 122.864 24.6127 121.025 23.9284C119.186 23.2442 117.215 22.892 115.225 22.892Z" fill="white" stroke="#263238" stroke-linejoin="round"/>
<path d="M115.225 22.892H85.173L85.14 22.9908C84.2545 25.8658 82.203 27.7332 79.937 27.7332H78.65C76.3785 27.7332 74.3325 25.8658 73.4415 22.9908L73.414 22.892H43.3455C39.3253 22.892 35.4699 24.3264 32.6272 26.8796C29.7845 29.4328 28.1875 32.8958 28.1875 36.5066V38.038H130.377V36.5066C130.378 34.7189 129.987 32.9487 129.226 31.2969C128.464 29.6451 127.348 28.1442 125.941 26.8799C124.534 25.6156 122.864 24.6127 121.025 23.9284C119.186 23.2442 117.215 22.892 115.225 22.892Z" fill="#1BB284"/>
<path d="M113.184 99.788C113.184 96.824 117.683 93.3363 116.869 90.5897C116.022 87.7492 110.165 86.7661 108.564 84.2764C106.964 81.7866 108.9 76.7132 106.617 74.6631C104.335 72.613 98.7301 74.3816 95.9141 72.9193C93.0981 71.4571 92.0641 66.2207 88.8906 65.4599C85.8326 64.7288 81.9661 68.7697 78.6496 68.7697C75.3331 68.7697 71.4666 64.7288 68.4086 65.4599C65.2461 66.2207 64.1516 71.4818 61.3796 72.9193C58.6076 74.3569 52.9591 72.618 50.6766 74.6681C48.3941 76.7182 50.3631 81.752 48.7351 84.2813C47.1071 86.8106 41.2771 87.7393 40.4301 90.5897C39.5996 93.3363 44.1151 96.824 44.1151 99.788C44.1151 102.752 39.6161 106.24 40.4301 108.986C41.2771 111.827 47.1346 112.81 48.7351 115.3C50.3356 117.789 48.3996 122.863 50.6821 124.913C52.9646 126.963 58.5691 125.194 61.3851 126.657C64.2011 128.119 65.2351 133.355 68.4086 134.116C71.4666 134.847 75.3331 130.806 78.6496 130.806C81.9661 130.806 85.8326 134.847 88.8906 134.116C92.0531 133.355 93.1476 128.094 95.9196 126.657C98.6916 125.219 104.34 126.958 106.623 124.908C108.905 122.858 106.936 117.824 108.564 115.295C110.192 112.765 116.022 111.837 116.869 108.986C117.7 106.24 113.184 102.752 113.184 99.788Z" fill="#1BB284"/>
<path d="M78.1714 112.217L63.2499 98.0294C62.9071 97.7019 62.7232 97.2654 62.7387 96.8161C62.7542 96.3668 62.9677 95.9414 63.3324 95.6335C63.6971 95.3256 64.183 95.1605 64.6832 95.1743C65.1835 95.1882 65.6571 95.3801 65.9999 95.7076L77.7149 106.852L92.5099 87.5862C92.6444 87.3909 92.8216 87.2222 93.0309 87.0902C93.2402 86.9583 93.4772 86.866 93.7274 86.8189C93.9777 86.7718 94.236 86.7708 94.4867 86.8161C94.7373 86.8614 94.9751 86.952 95.1856 87.0824C95.3961 87.2128 95.5749 87.3803 95.7111 87.5746C95.8473 87.769 95.9381 87.9862 95.9779 88.213C96.0178 88.4399 96.0059 88.6716 95.943 88.8942C95.8801 89.1168 95.7674 89.3256 95.6119 89.5079L78.1714 112.217Z" fill="white"/>
<path d="M39.6825 150.117L39.2315 150.527L36.1295 153.313L32.5655 150.117C32.1558 149.747 31.9258 149.246 31.9258 148.724C31.9258 148.202 32.1558 147.701 32.5655 147.331C32.9777 146.963 33.5353 146.756 34.1165 146.756C34.6977 146.756 35.2553 146.963 35.6675 147.331L36.1295 147.741L36.5805 147.331C36.9927 146.963 37.5503 146.756 38.1315 146.756C38.7127 146.756 39.2703 146.963 39.6825 147.331C40.0923 147.701 40.3223 148.202 40.3223 148.724C40.3223 149.246 40.0923 149.747 39.6825 150.117Z" stroke="#263238" stroke-linejoin="round"/>
<path d="M48.3339 154.242C50.8399 154.242 52.8714 152.417 52.8714 150.166C52.8714 147.915 50.8399 146.091 48.3339 146.091C45.8279 146.091 43.7964 147.915 43.7964 150.166C43.7964 152.417 45.8279 154.242 48.3339 154.242Z" stroke="#263238" stroke-linecap="round" stroke-linejoin="round"/>
<path d="M45.6826 150.912C45.7955 151.464 46.125 151.962 46.6114 152.314C47.0978 152.667 47.7089 152.851 48.3336 152.834C48.9646 152.876 49.5896 152.7 50.0819 152.343C50.5742 151.987 50.897 151.475 50.9846 150.912H45.6826Z" stroke="#263238" stroke-linecap="round" stroke-linejoin="round"/>
<path d="M47.2557 149.415C47.2557 149.88 47.1017 150.255 46.9147 150.255C46.7277 150.255 46.5737 149.88 46.5737 149.415C46.5737 148.951 46.7277 148.571 46.9147 148.571C47.1017 148.571 47.2557 148.946 47.2557 149.415Z" fill="#263238"/>
<path d="M49.8133 149.415C49.8133 149.88 49.6593 150.255 49.4723 150.255C49.2853 150.255 49.1313 149.88 49.1313 149.415C49.1313 148.951 49.2853 148.571 49.4723 148.571C49.6593 148.571 49.8133 148.946 49.8133 149.415Z" fill="#263238"/>
<path d="M32.6587 158.327H64.0747" stroke="#263238" stroke-linejoin="round"/>
<path d="M89.2812 162.032H99.9182" stroke="#263238" stroke-linejoin="round"/>
<path d="M80.4814 162.032H87.0814" stroke="#263238" stroke-linejoin="round"/>
<path d="M54.0815 162.032H77.9185" stroke="#263238" stroke-linejoin="round"/>
<path d="M32.6587 162.032H51.1497" stroke="#263238" stroke-linejoin="round"/>
<path d="M72.7812 165.984H93.4997" stroke="#263238" stroke-linejoin="round"/>
<path d="M54.4497 165.984H70.2182" stroke="#263238" stroke-linejoin="round"/>
<path d="M32.6587 165.984H51.8812" stroke="#263238" stroke-linejoin="round"/>
<path d="M120.818 169.936H123.381" stroke="#263238" stroke-linejoin="round"/>
<path d="M101.75 169.936H118.982" stroke="#263238" stroke-linejoin="round"/>
<path d="M68.0186 169.936H97.3501" stroke="#263238" stroke-linejoin="round"/>
<path d="M40.1499 169.936H65.0814" stroke="#263238" stroke-linejoin="round"/>
<path d="M32.6587 169.936H37.2182" stroke="#263238" stroke-linejoin="round"/>
<path d="M38.9782 56.1333C42.3074 56.1333 45.0062 53.7093 45.0062 50.719C45.0062 47.7288 42.3074 45.3048 38.9782 45.3048C35.649 45.3048 32.9502 47.7288 32.9502 50.719C32.9502 53.7093 35.649 56.1333 38.9782 56.1333Z" fill="#595959"/>
<path d="M48.0205 50.9659H68.849" stroke="#263238" stroke-linejoin="round"/>
<path d="M78.9743 24.8236C79.761 24.8236 80.3988 24.2507 80.3988 23.5441C80.3988 22.8375 79.761 22.2646 78.9743 22.2646C78.1876 22.2646 77.5498 22.8375 77.5498 23.5441C77.5498 24.2507 78.1876 24.8236 78.9743 24.8236Z" fill="#707070"/>
<path d="M37.268 28.4446C37.268 29.7339 35.6565 30.2032 35.618 31.1863V31.2554H37.191V31.6902H35.123V31.3246C35.123 29.9365 36.74 29.6697 36.74 28.4594C36.74 28.0197 36.575 27.7876 36.19 27.7876C35.805 27.7876 35.64 28.0395 35.64 28.4199V28.8003H35.145V28.4495C35.145 27.7925 35.4805 27.3578 36.245 27.3578C37.0095 27.3578 37.268 27.7876 37.268 28.4446Z" fill="white"/>
<path d="M39.8861 28.4346V28.5482C39.9085 28.7318 39.8637 28.9169 39.7585 29.0756C39.6533 29.2342 39.4934 29.3578 39.3031 29.4275C39.4943 29.4991 39.6545 29.6245 39.7597 29.7848C39.8648 29.9452 39.9091 30.1318 39.8861 30.3167V30.628C39.8861 31.285 39.5451 31.7148 38.7861 31.7148C38.0271 31.7148 37.6861 31.285 37.6861 30.628V30.3365H38.1866V30.6576C38.1866 31.0429 38.3626 31.28 38.7366 31.28C39.1106 31.28 39.2866 31.0528 39.2866 30.6181V30.2871C39.2866 29.8623 39.0886 29.6597 38.6871 29.6498H38.4011V29.2201H38.7146C38.7965 29.2214 38.8777 29.2063 38.9523 29.1758C39.0269 29.1454 39.093 29.1003 39.1457 29.044C39.1984 28.9876 39.2364 28.9214 39.257 28.8502C39.2776 28.7789 39.2801 28.7045 39.2646 28.6322V28.4346C39.2646 27.9949 39.0941 27.7677 38.7146 27.7677C38.3351 27.7677 38.1646 28.0048 38.1646 28.3901V28.652H37.6641V28.4544C37.6641 27.8023 38.0051 27.3774 38.7641 27.3774C39.5231 27.3774 39.8861 27.7825 39.8861 28.4346Z" fill="white"/>
<path d="M40.9143 28.7607V29.3535H40.4028V28.7607H40.9143ZM40.9143 31.0974V31.6902H40.4028V31.1221L40.9143 31.0974Z" fill="white"/>
<path d="M41.9925 29.146C42.0621 29.0332 42.1654 28.9402 42.2908 28.8773C42.4162 28.8145 42.5586 28.7843 42.702 28.7904C43.318 28.7904 43.5875 29.1954 43.5875 29.808V30.628C43.5875 31.2851 43.241 31.7148 42.4875 31.7148C41.734 31.7148 41.4205 31.2851 41.4205 30.628V30.3415H41.9155V30.6577C41.9155 31.043 42.0915 31.2801 42.4655 31.2801C42.8395 31.2801 43.0155 31.043 43.0155 30.6577V29.8475C43.0155 29.4622 42.834 29.2251 42.4655 29.2251C42.3954 29.221 42.325 29.2299 42.2588 29.2511C42.1926 29.2723 42.1319 29.3055 42.0804 29.3485C42.029 29.3915 41.9878 29.4434 41.9594 29.5012C41.9311 29.559 41.9161 29.6214 41.9155 29.6845V29.7833H41.415L41.547 27.4022H43.45V27.832H42.0695L41.9925 29.146Z" fill="white"/>
<path d="M46.2439 28.4298V28.5088H45.7434V28.4001C45.7434 28.0148 45.5674 27.7876 45.1934 27.7876C44.8194 27.7876 44.6104 28.0197 44.6104 28.4792V29.4672C44.6661 29.326 44.7713 29.205 44.9101 29.1221C45.049 29.0393 45.214 28.9991 45.3804 29.0077C45.9964 29.0077 46.2659 29.4029 46.2659 30.0254V30.6281C46.2659 31.2851 45.9084 31.7149 45.1659 31.7149C44.4234 31.7149 44.0659 31.2851 44.0659 30.6281V28.4594C44.0659 27.7826 44.4069 27.3578 45.1659 27.3578C45.9249 27.3578 46.2439 27.7727 46.2439 28.4298ZM44.5939 30.0353V30.6775C44.5939 31.0628 44.7699 31.2999 45.1439 31.2999C45.5179 31.2999 45.6939 31.0628 45.6939 30.6775V30.0353C45.6939 29.6499 45.5069 29.4178 45.1439 29.4178C44.7809 29.4178 44.5994 29.6401 44.5994 30.0353H44.5939Z" fill="white"/>
<path d="M98.3729 28.6174H97.0254V31.6457H98.3729V28.6174Z" fill="white"/>
<path d="M100.171 28.0098H98.8237V31.6456H100.171V28.0098Z" fill="white"/>
<path d="M101.97 27.5801H100.623V31.6457H101.97V27.5801Z" fill="white"/>
<path d="M103.768 26.8341H102.421V31.6457H103.768V26.8341Z" fill="white"/>
<path d="M120.45 31.5617H112.365V27.1157H120.45V31.5617ZM112.805 31.1616H119.999V27.5257H112.81L112.805 31.1616Z" fill="white"/>
<path d="M117.755 27.9653H113.487V30.7219H117.755V27.9653Z" fill="white"/>
<path d="M121.192 28.8199H120.175V29.8672H121.192V28.8199Z" fill="white"/>
<path d="M109.395 30.5984C109.341 30.5967 109.288 30.5832 109.241 30.5588C107.591 29.6795 106.491 30.4946 106.463 30.5292C106.435 30.5581 106.4 30.5812 106.361 30.597C106.321 30.6129 106.279 30.621 106.236 30.6209C106.193 30.6209 106.151 30.6126 106.112 30.5967C106.072 30.5807 106.038 30.5575 106.009 30.5285C105.981 30.4995 105.96 30.4655 105.947 30.4286C105.935 30.3917 105.931 30.3528 105.937 30.3146C105.942 30.2763 105.957 30.2395 105.979 30.2067C106.002 30.1739 106.032 30.1457 106.067 30.1241C106.122 30.0747 107.514 29.0077 109.554 30.0945C109.622 30.1314 109.672 30.1911 109.691 30.2604C109.711 30.3298 109.699 30.4033 109.659 30.465C109.631 30.5054 109.592 30.5389 109.546 30.5622C109.5 30.5855 109.448 30.598 109.395 30.5984Z" fill="white"/>
<path d="M110 29.6845C109.945 29.6853 109.892 29.6716 109.846 29.645C107.465 28.3754 105.864 29.6055 105.848 29.6153C105.818 29.6397 105.784 29.6584 105.747 29.6704C105.709 29.6824 105.67 29.6874 105.63 29.6851C105.59 29.6828 105.551 29.6732 105.516 29.657C105.481 29.6407 105.449 29.6182 105.424 29.5906C105.398 29.5642 105.377 29.5333 105.364 29.4998C105.352 29.4662 105.346 29.4307 105.349 29.3953C105.351 29.3598 105.362 29.3252 105.379 29.2935C105.397 29.2617 105.422 29.2334 105.452 29.2103C105.452 29.2103 107.399 27.7283 110.154 29.1806C110.188 29.1984 110.218 29.2223 110.242 29.2507C110.266 29.2791 110.284 29.3115 110.293 29.3461C110.303 29.3806 110.305 29.4165 110.299 29.4518C110.293 29.487 110.279 29.5208 110.259 29.5511C110.233 29.5922 110.195 29.6263 110.15 29.6497C110.104 29.6732 110.052 29.6852 110 29.6845Z" fill="white"/>
<path d="M110.55 28.652C110.496 28.6535 110.443 28.6415 110.396 28.6174C107.376 27.007 105.374 28.5186 105.292 28.5878C105.231 28.6356 105.152 28.6599 105.072 28.6552C104.991 28.6506 104.916 28.6175 104.863 28.5631C104.81 28.5087 104.783 28.4376 104.788 28.3653C104.793 28.2931 104.83 28.2256 104.89 28.1778C104.918 28.1778 107.299 26.3302 110.704 28.1481C110.772 28.1851 110.821 28.2447 110.841 28.3141C110.86 28.3835 110.849 28.457 110.808 28.5186C110.782 28.5594 110.744 28.5931 110.699 28.6166C110.654 28.64 110.602 28.6522 110.55 28.652Z" fill="white"/>
<path d="M108.487 31.0528C108.487 31.1876 108.443 31.3194 108.359 31.4316C108.276 31.5437 108.157 31.631 108.019 31.6826C107.88 31.7342 107.727 31.7477 107.58 31.7214C107.433 31.6951 107.298 31.6302 107.192 31.5349C107.085 31.4395 107.013 31.3181 106.984 31.1858C106.955 31.0536 106.97 30.9165 107.027 30.7919C107.084 30.6674 107.182 30.5609 107.307 30.486C107.431 30.4111 107.578 30.3711 107.728 30.3711C107.93 30.3711 108.123 30.4429 108.265 30.5708C108.407 30.6986 108.487 30.872 108.487 31.0528Z" fill="white"/>
<path d="M46.75 227.418H14.355" stroke="#263238" stroke-linejoin="round"/>
<path d="M257.95 227.418H52.7998" stroke="#263238" stroke-linejoin="round"/>
<path d="M157.416 146.224C157.416 146.224 155.375 157.127 156.866 163.381C158.356 169.635 161.475 177.855 161.816 179.154C162.157 180.453 160.666 186.213 161.266 190.477C161.865 194.74 163.235 208.142 163.235 208.142C163.235 208.142 162.982 211.481 163.548 212.297C164.067 213.079 164.336 213.975 164.324 214.885C164.368 215.839 163.614 216.817 164.324 217.503C165.033 218.19 165.572 218.768 165.605 219.479C165.638 220.191 165.666 220.902 165.688 221.376C165.71 221.851 161.579 227.354 161.651 229.019C161.722 230.683 163.301 230.748 165.539 230.071C167.778 229.394 169.747 226.351 169.747 226.351L169.945 227.774C170.033 227.803 170.126 227.816 170.22 227.813C170.314 227.809 170.406 227.788 170.491 227.752C170.575 227.715 170.651 227.664 170.713 227.601C170.775 227.537 170.823 227.463 170.852 227.383C171.027 226.518 171.077 225.637 171.001 224.76C171.001 224.266 171.468 223.318 171.402 221.772C171.319 220.616 171.135 219.468 170.852 218.338C170.852 218.338 171.32 216.896 171.402 216.298C171.485 215.7 170.852 215.246 171.292 213.685C171.732 212.124 172.392 212.094 172.392 211.146C172.401 210.186 172.27 209.229 172.002 208.3C171.705 207.48 172.992 200.653 172.953 199.7C172.915 198.746 173.058 196.128 173.058 196.128C173.058 196.128 174.466 191.909 174.394 190.249C174.323 188.59 174.235 177.638 174.235 177.638L174.059 173.597C174.059 173.597 174.455 179.525 175.252 182.721C176.05 185.917 177.518 195.016 178.398 197.007C179.278 198.998 180.549 203.716 181.027 205.603C181.506 207.49 182.199 211.155 182.199 211.155C181.949 211.93 181.894 212.745 182.039 213.541C182.09 214.18 182.206 214.814 182.386 215.434C182.386 215.434 181.533 217.128 181.687 217.597C181.829 218.383 181.908 219.177 181.924 219.973C181.924 220.329 181.071 221.668 180.362 223.718C179.652 225.768 177.249 228.228 179.322 230.179C181.396 232.131 184.938 228.312 185.51 226.272C186.082 224.232 187.38 220.492 187.495 220.131C187.993 219.351 188.314 218.49 188.441 217.597C188.556 216.688 188.556 215.77 188.441 214.86C188.694 214.195 188.878 213.511 188.991 212.815C189.085 211.98 188.991 210.197 188.991 210.197C188.991 210.197 191.026 202.293 191.191 199.65C191.356 197.007 190.306 191.588 190.13 190.64C189.954 189.691 190.13 187.429 189.695 186.732C189.261 186.036 188.37 183.684 188.37 183.684C188.37 183.684 194.97 170.479 195.954 163.302C196.939 156.124 196.576 150.191 196.125 149.015C195.674 147.839 195.234 146.787 195.234 146.787C195.234 146.787 189.69 150.314 177.7 148.832C165.71 147.35 161.046 146.807 159.841 146.491C159.051 146.296 158.234 146.206 157.416 146.224Z" fill="#263238" stroke="#263238" stroke-linejoin="round"/>
<path d="M168.668 73.606C168.668 73.606 165.495 73.8432 162.459 77.1826C159.423 80.522 157.954 84.9236 158.84 86.1339C159.725 87.3442 160.781 89.4239 160.803 89.9179C160.825 90.4119 156.695 94.0428 157.872 95.6137C159.049 97.1847 159.368 98.1727 158.422 98.3307C157.476 98.4888 155.859 99.788 156.172 100.648C156.486 101.507 158.174 102.194 157.531 103.211C156.887 104.229 156.326 104.12 156.376 105.365C156.425 106.61 157.795 107.559 157.074 107.766C156.354 107.974 154.984 108.26 155.424 109.125C155.838 109.814 156.331 110.463 156.893 111.061C156.893 111.061 162.222 115.843 172.771 116.589C183.32 117.335 193.05 108.789 194.513 107.494C195.976 106.2 196.24 105.815 196.207 105.074C196.174 104.333 195.585 103.478 195.266 102.604C194.947 101.729 195.294 99.9955 195.266 99.6398C195.239 99.2842 194.238 98.311 193.523 97.8417C192.808 97.3724 192.615 96.0089 192.835 94.7542C193.055 93.4994 191.636 92.6843 191.07 92.3336C190.503 91.9828 190.036 90.8763 190.404 89.745C190.773 88.6138 189.062 87.5566 188.347 87.0873C187.632 86.618 187.451 85.5016 187.671 84.2517C187.891 83.0019 185.982 80.4578 184.965 79.376C183.947 78.2941 182.55 74.7373 177.232 73.448C171.913 72.1586 168.668 73.606 168.668 73.606Z" fill="#263238" stroke="#263238" stroke-linejoin="round"/>
<path d="M175.406 100.223C175.406 100.223 169.449 103.286 165.396 104.501C161.342 105.716 161.166 113.818 161.254 115.833C161.342 117.849 159.109 130.431 160.506 132.046C161.903 133.662 174.608 133.331 178.97 133.059C183.331 132.787 186.411 133.627 189.282 132.565C192.153 131.503 192.511 130.668 192.456 129.359C192.401 128.05 192.698 113.763 192.577 111.027C192.456 108.29 191.625 104.397 190.531 103.617C189.436 102.836 187.154 102.189 183.804 101.359C180.455 100.529 175.406 100.223 175.406 100.223Z" fill="white" stroke="#263238" stroke-linejoin="round"/>
<path d="M159.247 136.616C159.247 136.616 157.047 146.926 157.091 147.874C157.104 148.554 157.045 149.234 156.915 149.904C156.915 149.904 161.744 151.164 163.735 151.332C165.726 151.5 170.11 151.579 171.985 151.989C173.861 152.399 181.66 151.989 184.415 151.431C187.171 150.873 189.14 150.314 190.707 149.899C191.996 149.525 193.26 149.083 194.491 148.575L196.042 147.587L192.792 136.996C192.792 136.996 187.132 137.791 181.583 138.221C176.033 138.651 165.517 137.48 164.054 137.297C162.591 137.115 159.247 136.616 159.247 136.616Z" fill="white" stroke="#263238" stroke-linejoin="round"/>
<path d="M164.213 144.94L164.054 146.283" stroke="#263238" stroke-linejoin="round"/>
<path d="M164.907 139.046L164.351 143.779" stroke="#263238" stroke-linejoin="round"/>
<path d="M164.043 139.343L162.756 143.314" stroke="#263238" stroke-linejoin="round"/>
<path d="M182.132 139.486L181.94 145.127" stroke="#263238" stroke-linejoin="round"/>
<path d="M186.554 145.246L186.829 146.787" stroke="#263238" stroke-linejoin="round"/>
<path d="M185.471 139.105L186.279 143.675" stroke="#263238" stroke-linejoin="round"/>
<path d="M192.456 129.369C192.395 128.065 192.698 113.773 192.577 111.036C192.516 109.658 192.373 110.207 192.027 108.784C190.102 110.404 185.839 113.082 177.452 113.951C171.952 114.496 166.4 113.488 161.568 111.066C161.323 112.645 161.226 114.24 161.276 115.833C161.364 117.854 159.131 130.431 160.528 132.046C161.925 133.662 174.63 133.331 178.992 133.059C183.353 132.787 186.433 133.627 189.304 132.565C192.175 131.503 192.5 130.678 192.456 129.369Z" fill="white" stroke="#263238" stroke-linejoin="round"/>
<path d="M178.2 128.959C179.6 128.851 180.992 128.671 182.369 128.42" stroke="#263238" stroke-linejoin="round"/>
<path d="M164.714 128.326C168.614 128.982 172.586 129.229 176.55 129.062" stroke="#263238" stroke-linejoin="round"/>
<path d="M166.369 126.721C166.972 127.453 167.769 128.038 168.689 128.421C169.609 128.805 170.621 128.974 171.633 128.914" stroke="#263238" stroke-linejoin="round"/>
<path d="M172.507 127.694C173.203 128.204 173.98 128.619 174.812 128.924" stroke="#263238" stroke-linejoin="round"/>
<path d="M179.965 128.623C180.928 127.804 181.736 126.849 182.358 125.797" stroke="#263238" stroke-linejoin="round"/>
<path d="M159.417 131.369C159.417 131.369 171.424 133.207 177.375 132.995C183.326 132.782 192.352 130.085 192.352 130.085L192.786 136.976C192.786 136.976 187.467 139.54 176.346 139.698C165.225 139.856 158.917 138.053 158.917 138.053L159.417 131.369Z" fill="#263238" stroke="#263238" stroke-linejoin="round"/>
<path d="M170.962 107.638C170.962 107.638 170.836 104.674 170.715 101.932C170.72 100.615 170.535 99.3035 170.165 98.0294C171.551 98.4198 172.987 98.649 174.438 98.7112C176.561 98.7507 179.74 95.7867 179.982 95.2976C180.224 94.8086 180.587 93.9688 180.587 93.9688C180.587 93.9688 180.923 98.5975 181.401 100.366C181.88 102.135 182.188 103.197 182.188 103.197" fill="white"/>
<path d="M170.962 107.638C170.962 107.638 170.836 104.674 170.715 101.932C170.72 100.615 170.535 99.3035 170.165 98.0294C171.551 98.4198 172.987 98.649 174.438 98.7112C176.561 98.7507 179.74 95.7867 179.982 95.2976C180.224 94.8086 180.587 93.9688 180.587 93.9688C180.587 93.9688 180.923 98.5975 181.401 100.366C181.88 102.135 182.188 103.197 182.188 103.197" stroke="#263238" stroke-miterlimit="10"/>
<path d="M172.909 102.752C176.132 101.161 178.91 97.4711 178.91 97.4711L179.097 96.2213C177.953 97.2587 175.918 98.7407 174.416 98.6913C172.965 98.6291 171.529 98.4 170.143 98.0096C170.513 99.2837 170.698 100.595 170.693 101.912C170.72 102.53 170.748 103.157 170.77 103.76C171.314 103.533 171.996 103.202 172.909 102.752Z" fill="#263238" stroke="#263238" stroke-linejoin="round"/>
<path d="M182.6 85.6843L180.488 85.8819C180.488 85.8819 180.444 85.6102 180.317 85.1706L180.048 84.9433C179.635 84.6024 179.498 84.7259 178.843 84.6271C178.189 84.5283 177.87 83.5947 177.826 82.6511C177.782 81.7076 176.451 81.51 174.955 80.6109C173.728 79.8749 173.178 78.3188 173.019 77.7754C172.526 77.7227 172.03 77.7062 171.534 77.726C171.315 78.7204 170.902 79.6721 170.313 80.5368C169.312 81.8805 168.382 81.7965 168.151 82.5128C167.92 83.2291 167.293 84.0887 166.765 84.227C166.237 84.3653 164.923 84.4147 164.945 85.0075C164.967 85.6003 164.62 86.5636 164.23 86.8156L163.938 87.0082C164.175 88.347 164.488 89.4288 164.488 89.6659C164.488 90.1599 164.642 93.2277 166.177 94.9616C167.711 96.6956 170.659 100.514 174.102 100.396C177.545 100.277 180.268 96.0139 180.752 94.9271C181.236 93.8403 181.362 90.7379 181.362 90.7379C182.064 90.1069 182.624 89.3606 183.012 88.5396C183.584 87.1959 182.6 85.6843 182.6 85.6843Z" fill="white" stroke="#263238" stroke-linejoin="round"/>
<path d="M164.021 85.2743C163.983 84.4394 164.846 82.9821 165.242 82.9673C166.055 82.7407 166.743 82.249 167.173 81.589C167.409 80.9863 167.25 80.3985 167.904 80.1367C168.559 79.8748 168.515 79.0449 168.515 79.0449C168.515 79.0449 166.738 80.7739 165.699 81.2877C164.963 81.6283 164.309 82.0948 163.774 82.661C163.6 83.7273 163.6 84.8107 163.774 85.8769C163.868 85.803 163.94 85.7092 163.983 85.6039C164.026 85.4986 164.039 85.3853 164.021 85.2743Z" fill="white" stroke="#263238" stroke-linejoin="round"/>
<path d="M171.435 94.1713C171.435 94.1713 172.271 95.2136 173.828 94.3244" stroke="#263238" stroke-linejoin="round"/>
<path d="M171.512 95.9546C171.512 95.9546 174.201 96.8141 175.18 94.9666" stroke="#263238" stroke-linejoin="round"/>
<path d="M168.718 89.7599C168.795 90.2539 168.619 90.6738 168.327 90.7083C168.036 90.7429 167.75 90.4021 167.673 89.9081C167.596 89.4141 167.772 88.9991 168.058 88.9596C168.344 88.9201 168.646 89.2708 168.718 89.7599Z" fill="#263238"/>
<path d="M175.312 88.9942C175.384 89.4882 175.213 89.9031 174.922 89.9377C174.63 89.9723 174.333 89.6067 174.262 89.1226C174.19 88.6385 174.361 88.2087 174.652 88.1741C174.944 88.1396 175.235 88.5051 175.312 88.9942Z" fill="#263238"/>
<path d="M165.858 87.932C165.858 87.932 166.474 86.8403 168.608 87.0033" stroke="#263238" stroke-linejoin="round"/>
<path d="M173.25 86.613C173.25 86.613 175.329 85.7041 176.968 86.8403" stroke="#263238" stroke-linejoin="round"/>
<path d="M169.009 87.2355C169.009 87.2355 170.802 88.841 170.874 90.5058" stroke="#263238" stroke-linejoin="round"/>
<path d="M176.781 152.646C176.781 152.646 174.609 154.508 174.147 159.068C173.685 163.628 173.685 172.772 173.685 172.772C173.685 172.772 174.015 175.79 174.163 177.633" stroke="#808080" stroke-linejoin="round"/>
<path d="M174.542 155.289C173.814 154.829 173.157 154.284 172.59 153.669" stroke="#808080" stroke-linejoin="round"/>
<path d="M179.228 199.472C179.921 201.641 180.625 204.284 180.955 205.583C181.434 207.47 182.127 211.136 182.127 211.136C181.877 211.911 181.823 212.726 181.967 213.522C182.018 214.161 182.134 214.794 182.314 215.414C182.314 215.414 181.461 217.108 181.615 217.577C181.757 218.363 181.836 219.157 181.852 219.954C181.852 220.309 180.999 221.648 180.29 223.698C179.58 225.748 177.177 228.208 179.25 230.16C181.324 232.111 184.866 228.292 185.438 226.252C186.01 224.212 187.308 220.472 187.423 220.112C187.921 219.331 188.242 218.47 188.369 217.577C188.484 216.668 188.484 215.75 188.369 214.841C188.622 214.176 188.806 213.491 188.919 212.796C189.013 211.961 188.919 210.177 188.919 210.177C188.919 210.177 190.954 202.273 191.119 199.63C191.143 199.042 191.132 198.454 191.086 197.867C187.415 199.495 183.271 200.056 179.228 199.472Z" fill="#595959" stroke="#263238" stroke-linejoin="round"/>
<path d="M169.675 226.331L169.873 227.754C169.961 227.783 170.054 227.797 170.148 227.793C170.242 227.789 170.334 227.768 170.419 227.732C170.504 227.696 170.579 227.644 170.641 227.581C170.703 227.517 170.751 227.444 170.78 227.364C170.955 226.498 171.005 225.617 170.929 224.74C170.929 224.246 171.396 223.298 171.33 221.752C171.247 220.596 171.063 219.448 170.78 218.318C170.78 218.318 171.248 216.876 171.33 216.278C171.413 215.68 170.78 215.226 171.22 213.665C171.66 212.104 172.32 212.074 172.32 211.126C172.33 210.166 172.198 209.209 171.93 208.28C171.633 207.46 172.92 200.633 172.881 199.68C172.881 199.383 172.881 198.924 172.881 198.43C169.367 199.63 164.956 199.117 162.156 198.563C162.706 203.325 163.174 208.117 163.174 208.117C163.174 208.117 162.921 211.457 163.487 212.272C164.006 213.054 164.275 213.95 164.263 214.86C164.307 215.814 163.553 216.792 164.263 217.479C164.972 218.165 165.511 218.743 165.544 219.455C165.577 220.166 165.605 220.877 165.627 221.352C165.649 221.826 161.518 227.329 161.59 228.994C161.661 230.658 163.24 230.723 165.478 230.046C167.717 229.369 169.675 226.331 169.675 226.331Z" fill="#595959" stroke="#263238" stroke-linejoin="round"/>
<path d="M170.604 102.535C170.604 102.535 167.706 108.957 166.87 113.971C166.034 118.985 164.67 127.734 164.12 129.418C163.57 131.103 162.024 133.064 160.182 142.41C158.339 151.757 159.632 162.664 159.632 162.664C159.632 162.664 159.12 163.158 156.854 162.882C155.292 162.656 153.764 162.27 152.3 161.731C152.3 161.731 153.164 151.228 154.187 147.405C155.21 143.581 157.597 134.432 157.597 134.432L157.536 130.031C156.785 131.866 155.877 133.647 154.819 135.356C153.334 137.673 151.783 138.557 149.27 138.646C146.756 138.735 144.98 134.516 146.674 130.885C148.368 127.254 150.018 122.557 150.969 120.017C151.921 117.478 154.874 109.406 157.058 107.781C159.241 106.156 169.537 102.332 170.604 102.535Z" fill="#1BB284" stroke="#263238" stroke-linejoin="round"/>
<path d="M182.6 100.919C182.6 100.919 182.05 115.339 182.924 120.422C183.799 125.506 186.873 131.947 187.786 134.655C188.699 137.362 189.788 147.079 190.613 150.739C191.438 154.4 191.163 163.213 191.163 163.213C191.163 163.213 193.281 163.139 194.612 163.213C195.943 163.287 201.256 160.713 201.256 160.713C201.256 160.713 200.568 154.074 199.177 149.484C197.785 144.895 195.107 135.228 194.749 133.098C194.392 130.969 193.754 128.608 193.726 127.897C193.699 127.185 194.826 122.957 194.826 122.957C194.826 122.957 198.88 112.583 198.467 109.263C198.055 105.943 193.336 104.091 191.042 103.098C188.749 102.105 182.6 100.919 182.6 100.919Z" fill="#1BB284" stroke="#263238" stroke-linejoin="round"/>
<path d="M194.106 121.697L197.252 133.01C197.252 133.01 196.531 134.699 197.081 135.158C197.402 135.435 197.597 135.808 197.631 136.206C197.631 136.206 197.175 137.89 197.741 138.676C198.308 139.461 200.893 156.178 200.893 156.178C200.893 156.178 198.731 158.154 198.764 158.989C198.779 159.804 198.636 160.614 198.341 161.385C198.104 161.993 197.241 163.213 197.631 163.316C198.022 163.42 199.595 162.768 199.705 162.289C199.816 161.91 199.979 161.545 200.189 161.202L200.546 160.357C200.663 161.462 200.712 162.572 200.695 163.682C200.623 164.311 200.426 164.924 200.112 165.49C199.738 166.098 198.858 167.081 199.529 167.293C200.2 167.506 202.213 165.06 202.213 165.06C202.813 164.924 203.385 164.702 203.907 164.403C204.809 163.909 205.557 162.205 205.639 161.602C205.722 161 205.639 158.638 205.639 158.273C205.639 157.907 205.089 155.195 205.089 155.195C205.089 155.195 206.651 142.529 206.497 138.962C206.392 136.74 206.161 134.524 205.804 132.323L205.287 129.606C205.287 129.606 204.094 114.415 202.229 111.145C200.365 107.875 197.334 105.37 194.931 104.861" fill="white"/>
<path d="M194.106 121.697L197.252 133.01C197.252 133.01 196.531 134.699 197.081 135.158C197.402 135.435 197.597 135.808 197.631 136.206C197.631 136.206 197.175 137.89 197.741 138.676C198.308 139.461 200.893 156.178 200.893 156.178C200.893 156.178 198.731 158.154 198.764 158.989C198.779 159.804 198.636 160.614 198.341 161.385C198.104 161.993 197.241 163.213 197.631 163.316C198.022 163.42 199.595 162.768 199.705 162.289C199.816 161.91 199.979 161.545 200.189 161.202L200.546 160.357C200.663 161.462 200.712 162.572 200.695 163.682C200.623 164.311 200.426 164.924 200.112 165.49C199.738 166.098 198.858 167.081 199.529 167.293C200.2 167.506 202.213 165.06 202.213 165.06C202.813 164.924 203.385 164.702 203.907 164.403C204.809 163.909 205.557 162.205 205.639 161.602C205.722 161 205.639 158.638 205.639 158.273C205.639 157.907 205.089 155.195 205.089 155.195C205.089 155.195 206.651 142.529 206.497 138.962C206.392 136.74 206.161 134.524 205.804 132.323L205.287 129.606C205.287 129.606 204.094 114.415 202.229 111.145C200.365 107.875 197.334 105.37 194.931 104.861" stroke="#263238" stroke-linejoin="round"/>
<path d="M193.88 121.331L197.252 133.01C197.252 133.01 196.531 134.699 197.081 135.158C197.402 135.435 197.597 135.808 197.631 136.206C197.631 136.206 197.175 137.89 197.741 138.676C197.903 139.054 198.017 139.446 198.082 139.847C199.661 138.923 203.28 137.317 206.013 139.931C206.146 140.067 206.312 140.175 206.497 140.247C206.497 139.753 206.497 139.308 206.497 138.962C206.392 136.74 206.16 134.524 205.804 132.323L205.287 129.606C205.287 129.606 204.094 114.415 202.229 111.145C200.365 107.875 196.685 105.395 194.276 104.881" fill="#1BB284"/>
<path d="M193.88 121.331L197.252 133.01C197.252 133.01 196.531 134.699 197.081 135.158C197.402 135.435 197.597 135.808 197.631 136.206C197.631 136.206 197.175 137.89 197.741 138.676C197.903 139.054 198.017 139.446 198.082 139.847C199.661 138.923 203.28 137.317 206.013 139.931C206.146 140.067 206.312 140.175 206.497 140.247C206.497 139.753 206.497 139.308 206.497 138.962C206.392 136.74 206.16 134.524 205.804 132.323L205.287 129.606C205.287 129.606 204.094 114.415 202.229 111.145C200.365 107.875 196.685 105.395 194.276 104.881" stroke="#263238" stroke-linejoin="round"/>
<path d="M152.069 117.221L156.64 129.68L164.103 129.423L160.292 116.283L152.069 117.221Z" fill="#263238" stroke="#263238" stroke-linejoin="round"/>
<path d="M156.788 132.012C156.987 131.888 157.143 131.717 157.239 131.518C157.52 130.856 157.998 130.006 157.998 130.006C157.998 130.006 160.336 129.087 160.638 128.89C160.941 128.692 162.981 128.158 163.267 127.684C163.553 127.21 163.548 126.933 162.525 127.245C161.502 127.556 158.345 128.415 158.345 128.415C158.345 128.415 158.851 128.213 159.252 128.01C159.654 127.808 162.382 126.321 162.69 126.217C162.998 126.113 163.075 125.555 162.849 125.194C162.624 124.834 162.448 125.392 161.529 125.688C160.611 125.985 157.245 126.958 157.245 126.958L159.054 125.782C159.357 125.585 162.096 124.468 162.096 124.468C162.096 124.468 162.904 124.068 162.882 123.604C162.86 123.139 162.552 123.06 162.244 123.164C161.936 123.268 159.879 123.431 159.17 123.737C158.46 124.043 156.134 125.14 156.134 125.14L157.179 123.065C157.179 123.065 159.995 121.292 160.402 121.188C160.809 121.084 161.617 120.585 161.502 120.2C161.386 119.815 160.556 119.77 160.556 119.77C160.556 119.77 156.986 120.823 156.288 121.499C155.589 122.176 154.214 123.614 154.214 123.614C153.941 123.024 153.74 122.409 153.615 121.781C153.615 121.223 153.549 120.205 153.109 119.662C152.669 119.118 152.559 119.311 152.559 119.311C152.559 119.311 152.559 122.275 152.388 122.561C152.218 122.848 153.846 127.501 153.846 127.501L154.55 129.428C153.185 129.609 151.81 129.72 150.43 129.759C149.396 129.7 148.027 131.419 147.812 133.563C147.766 134.024 147.826 134.49 147.989 134.929C148.152 135.369 148.414 135.774 148.759 136.119C149.103 136.464 149.524 136.741 149.993 136.934C150.462 137.126 150.971 137.23 151.486 137.238C153.34 137.169 154.726 135.825 155.413 134.966C155.897 134.267 156.248 133.5 156.453 132.698L156.788 132.012Z" fill="white" stroke="#263238" stroke-linejoin="round"/>
</svg>
