<svg width="275" height="270" viewBox="0 0 275 270" fill="none" xmlns="http://www.w3.org/2000/svg">
<path d="M243.281 52.9902C242.289 50.8193 241.14 48.7206 239.844 46.71C232.309 36.1152 218.564 26.0658 193.501 25.5582C139.667 24.4782 155.298 113.513 86.8834 121.559C21.8514 129.163 16.0159 191.16 36.4704 212.22C65.0704 237.983 93.3899 249.318 155.221 246.78C202.581 244.852 233.381 235.564 248.363 217.15C257.757 205.6 262.262 190.501 263.763 171.931C267.223 128.86 253.55 74.8224 243.281 52.9902Z" fill="#1BB284"/>
<path opacity="0.7" d="M243.281 52.9902C242.289 50.8193 241.14 48.7206 239.844 46.71C232.309 36.1152 218.564 26.0658 193.501 25.5582C139.667 24.4782 155.298 113.513 86.8834 121.559C21.8514 129.163 16.0159 191.16 36.4704 212.22C65.0704 237.983 93.3899 249.318 155.221 246.78C202.581 244.852 233.381 235.564 248.363 217.15C257.757 205.6 262.262 190.501 263.763 171.931C267.223 128.86 253.55 74.8224 243.281 52.9902Z" fill="white"/>
<path d="M248.364 217.188C233.382 235.602 202.582 244.89 155.221 246.818C93.3902 249.334 65.0927 238 36.4707 212.258H243.271L248.364 217.188Z" fill="#999999"/>
<path d="M11.5117 212.236H240.884" stroke="#263238" stroke-linecap="round" stroke-linejoin="round"/>
<path d="M243.282 44.7119V212.236L258.445 227.124" stroke="#263238" stroke-linecap="round" stroke-linejoin="round"/>
<path d="M197.989 54.6318V25.5042" stroke="#263238" stroke-linecap="round" stroke-linejoin="round"/>
<path d="M185.185 67.2029C185.15 65.5305 185.455 63.868 186.083 62.3127C186.71 60.7575 187.647 59.3409 188.839 58.1458C190.032 56.9508 191.455 56.0014 193.026 55.3532C194.596 54.7051 196.283 54.3712 197.987 54.3712C199.69 54.3712 201.377 54.7051 202.948 55.3532C204.518 56.0014 205.942 56.9508 207.134 58.1458C208.326 59.3409 209.263 60.7575 209.891 62.3127C210.518 63.868 210.823 65.5305 210.788 67.2029H185.185Z" stroke="#263238" stroke-linecap="round" stroke-linejoin="round"/>
<path d="M36.4708 212.236H25.9878" stroke="#263238" stroke-linecap="round" stroke-linejoin="round"/>
<path d="M78.9637 145.152H67.9692V212.242H78.9637V145.152Z" stroke="#263238" stroke-linecap="round" stroke-linejoin="round"/>
<path d="M64.0368 150.131H19.6133V166.423H64.0368V150.131Z" stroke="#263238" stroke-linecap="round" stroke-linejoin="round"/>
<path d="M64.0368 168.199H19.6133V184.491H64.0368V168.199Z" stroke="#263238" stroke-linecap="round" stroke-linejoin="round"/>
<path d="M64.0368 186.273H19.6133V202.565H64.0368V186.273Z" stroke="#263238" stroke-linecap="round" stroke-linejoin="round"/>
<path d="M37.1528 151.308C37.1528 151.789 37.3475 152.251 37.6941 152.591C38.0407 152.931 38.5107 153.122 39.0008 153.122H44.6493C44.8925 153.123 45.1334 153.077 45.3582 152.986C45.5831 152.895 45.7874 152.761 45.9596 152.593C46.1318 152.424 46.2684 152.224 46.3616 152.004C46.4548 151.783 46.5028 151.547 46.5028 151.308" stroke="#263238" stroke-linecap="round" stroke-linejoin="round"/>
<path d="M37.1528 169.376C37.1572 169.855 37.3536 170.313 37.6996 170.651C38.0455 170.989 38.5131 171.179 39.0008 171.18H44.6493C45.1409 171.18 45.6124 170.988 45.96 170.647C46.3076 170.306 46.5028 169.843 46.5028 169.36" stroke="#263238" stroke-linecap="round" stroke-linejoin="round"/>
<path d="M37.1528 187.45C37.1528 187.932 37.3473 188.394 37.6938 188.735C38.0402 189.076 38.5102 189.269 39.0008 189.27H44.6493C44.8927 189.27 45.1338 189.223 45.3586 189.131C45.5835 189.04 45.7878 188.906 45.96 188.737C46.1321 188.568 46.2686 188.367 46.3617 188.147C46.4549 187.926 46.5028 187.689 46.5028 187.45" stroke="#263238" stroke-linecap="round" stroke-linejoin="round"/>
<path d="M66.1706 212.242H16.0161V145.152H66.1706" stroke="#263238" stroke-linecap="round" stroke-linejoin="round"/>
<path d="M109.01 179.669V205.049L122.545 209.731C122.714 209.789 122.86 209.897 122.964 210.04C123.067 210.183 123.123 210.354 123.123 210.53V211.318C123.123 211.449 123.092 211.579 123.033 211.696C122.973 211.813 122.887 211.915 122.78 211.994C122.673 212.073 122.549 212.126 122.418 212.149C122.286 212.172 122.151 212.165 122.023 212.128L108.119 208.121L107.866 211.399C107.851 211.627 107.747 211.841 107.576 211.997C107.405 212.152 107.18 212.238 106.947 212.236H106.232C106 212.236 105.777 212.149 105.607 211.994C105.436 211.839 105.332 211.627 105.314 211.399L105.061 208.121L91.1625 212.128C91.0345 212.164 90.8997 212.17 90.7688 212.146C90.6379 212.123 90.5144 212.07 90.4079 211.991C90.3014 211.913 90.2148 211.811 90.1549 211.694C90.095 211.578 90.0633 211.449 90.0625 211.318V210.53C90.0627 210.354 90.1183 210.183 90.2217 210.04C90.3252 209.897 90.4713 209.789 90.64 209.731L104.181 205.049V179.669" stroke="#263238" stroke-linecap="round" stroke-linejoin="round"/>
<path d="M102.833 170.478V163.123" stroke="#263238" stroke-linecap="round" stroke-linejoin="round"/>
<path d="M99.6602 163.123V170.478" stroke="#263238" stroke-linecap="round" stroke-linejoin="round"/>
<path d="M89.1 161.816C86.845 161.73 85.25 160.294 85.25 157.81V144.931C85.2866 144.151 85.5529 143.399 86.0167 142.765C86.4805 142.132 87.1217 141.644 87.8625 141.361" stroke="#263238" stroke-linecap="round" stroke-linejoin="round"/>
<path d="M88.4785 143.3V157.756C88.4785 160.25 90.508 161.627 93.0655 161.185C98.6445 160.175 104.384 160.423 109.852 161.908C112.371 162.578 114.351 161.368 114.351 158.884V144.428C114.318 143.797 114.103 143.188 113.73 142.673C113.357 142.159 112.841 141.76 112.244 141.523C105.275 139.207 97.7786 138.883 90.629 140.589C90.027 140.763 89.4957 141.119 89.11 141.605C88.7243 142.091 88.5034 142.684 88.4785 143.3Z" stroke="#263238" stroke-linecap="round" stroke-linejoin="round"/>
<path d="M98.8626 171.547H91.5476C90.931 171.547 90.3204 171.665 89.7505 171.896C89.1807 172.127 88.6629 172.467 88.2266 172.894C87.7904 173.322 87.4443 173.83 87.2082 174.389C86.9721 174.949 86.8506 175.548 86.8506 176.153C86.8506 176.713 87.0772 177.25 87.4804 177.646C87.8837 178.042 88.4307 178.265 89.0011 178.265H97.5096" stroke="#263238" stroke-linecap="round" stroke-linejoin="round"/>
<path d="M100.012 178.265H124.168C124.738 178.265 125.285 178.042 125.688 177.646C126.092 177.25 126.318 176.713 126.318 176.153C126.318 175.548 126.197 174.949 125.961 174.389C125.725 173.83 125.379 173.322 124.942 172.894C124.506 172.467 123.988 172.127 123.418 171.896C122.849 171.665 122.238 171.547 121.621 171.547H102.558C101.942 171.547 101.331 171.665 100.761 171.896C100.191 172.127 99.6736 172.467 99.2374 172.894C98.8012 173.322 98.4551 173.83 98.219 174.389C97.9829 174.949 97.8613 175.548 97.8613 176.153C97.8613 176.713 98.0879 177.25 98.4912 177.646C98.8945 178.042 99.4415 178.265 100.012 178.265Z" stroke="#263238" stroke-linecap="round" stroke-linejoin="round"/>
<path d="M213.747 133.834C214.034 133.828 214.31 133.72 214.523 133.531C214.736 133.341 214.873 133.083 214.907 132.802L217.316 110.786C217.334 110.656 217.324 110.524 217.285 110.398C217.246 110.273 217.18 110.157 217.091 110.059C217.002 109.961 216.893 109.883 216.77 109.83C216.647 109.778 216.515 109.752 216.381 109.755" stroke="#263238" stroke-linecap="round" stroke-linejoin="round"/>
<path d="M154.165 154.094H231.682V147.031H154.165V154.094Z" stroke="#263238" stroke-linecap="round" stroke-linejoin="round"/>
<path d="M126.572 147.026V154.089H152.966" stroke="#263238" stroke-linecap="round" stroke-linejoin="round"/>
<path d="M234.174 146.27V141.853H158.587" stroke="#263238" stroke-linecap="round" stroke-linejoin="round"/>
<path d="M124.075 146.275H157.383V141.858H124.075V146.275Z" stroke="#263238" stroke-linecap="round" stroke-linejoin="round"/>
<path d="M227.475 155.272V212.236H229.152L229.757 155.272" stroke="#263238" stroke-linecap="round" stroke-linejoin="round"/>
<path d="M225.198 155.272L225.797 212.236H227.475V155.272" stroke="#263238" stroke-linecap="round" stroke-linejoin="round"/>
<path d="M205.31 155.272V212.236H206.987L207.587 155.272" stroke="#263238" stroke-linecap="round" stroke-linejoin="round"/>
<path d="M203.033 155.272L203.632 212.236H205.31V155.272" stroke="#263238" stroke-linecap="round" stroke-linejoin="round"/>
<path d="M152.938 155.272V212.236H154.621L155.221 155.272" stroke="#263238" stroke-linecap="round" stroke-linejoin="round"/>
<path d="M150.662 155.272L151.261 212.236H152.939V155.272" stroke="#263238" stroke-linecap="round" stroke-linejoin="round"/>
<path d="M130.774 155.272V212.236H132.451L133.051 155.272" stroke="#263238" stroke-linecap="round" stroke-linejoin="round"/>
<path d="M128.497 155.272L129.096 212.236H130.774V155.272" stroke="#263238" stroke-linecap="round" stroke-linejoin="round"/>
<path d="M187.528 140.481H171.221V141.853H187.528V140.481Z" stroke="#263238" stroke-linecap="round" stroke-linejoin="round"/>
<path d="M217.498 141.853H213.714C213.461 141.853 213.219 141.754 213.041 141.579C212.862 141.404 212.762 141.166 212.762 140.918V139.741H218.449V140.918C218.449 141.166 218.349 141.404 218.171 141.579C217.992 141.754 217.75 141.853 217.498 141.853Z" stroke="#263238" stroke-linecap="round" stroke-linejoin="round"/>
<path d="M218.449 139.752C218.449 138.953 217.173 138.299 215.6 138.299C214.027 138.299 212.757 138.953 212.757 139.752H218.449Z" stroke="#263238" stroke-linecap="round" stroke-linejoin="round"/>
<path d="M212.757 139.752C212.757 138.953 214.033 138.299 215.6 138.299V139.752H212.757Z" stroke="#263238" stroke-linecap="round" stroke-linejoin="round"/>
<path d="M212.564 133.834H180.774C180.641 133.836 180.508 133.811 180.385 133.758C180.263 133.706 180.153 133.628 180.064 133.53C179.975 133.432 179.909 133.316 179.87 133.19C179.832 133.065 179.821 132.932 179.839 132.802L182.248 110.786C182.284 110.506 182.42 110.248 182.633 110.059C182.846 109.87 183.122 109.762 183.409 109.755H215.204C215.338 109.753 215.47 109.779 215.592 109.832C215.714 109.885 215.823 109.963 215.912 110.061C216.001 110.159 216.067 110.274 216.106 110.399C216.145 110.524 216.157 110.657 216.139 110.786L213.73 132.802C213.696 133.083 213.559 133.343 213.344 133.533C213.13 133.722 212.853 133.829 212.564 133.834Z" stroke="#263238" stroke-linecap="round" stroke-linejoin="round"/>
<path d="M201.267 134.422L201.812 139.379H203.011L202.466 134.422" stroke="#263238" stroke-linecap="round" stroke-linejoin="round"/>
<path d="M193.468 134.422L194.013 139.379H201.812L201.267 134.422" stroke="#263238" stroke-linecap="round" stroke-linejoin="round"/>
<path d="M211.238 132.241H182.451C182.335 132.243 182.22 132.221 182.113 132.176C182.006 132.13 181.911 132.062 181.834 131.977C181.756 131.892 181.698 131.791 181.665 131.682C181.631 131.573 181.622 131.457 181.637 131.344L183.727 112.244C183.758 112 183.877 111.775 184.063 111.611C184.249 111.446 184.489 111.353 184.739 111.348H213.526C213.643 111.345 213.758 111.368 213.865 111.413C213.972 111.459 214.067 111.526 214.144 111.612C214.222 111.697 214.279 111.798 214.313 111.907C214.347 112.016 214.356 112.131 214.34 112.244L212.25 131.344C212.22 131.588 212.101 131.813 211.915 131.978C211.729 132.143 211.489 132.236 211.238 132.241Z" stroke="#263238" stroke-linecap="round" stroke-linejoin="round"/>
<path d="M204.215 139.379H188.403V141.858H204.215V139.379Z" stroke="#263238" stroke-linecap="round" stroke-linejoin="round"/>
<path d="M208.841 139.379H204.215V141.858H208.841V139.379Z" stroke="#263238" stroke-linecap="round" stroke-linejoin="round"/>
<path d="M223.85 116.019H172.068V127.472H223.85V116.019Z" fill="white" stroke="#263238" stroke-linecap="round" stroke-linejoin="round"/>
<path d="M178.327 122.947L177.491 122.321L177.628 123.325C177.64 123.391 177.637 123.459 177.62 123.524C177.602 123.589 177.57 123.65 177.526 123.701C177.482 123.753 177.427 123.794 177.365 123.823C177.302 123.851 177.235 123.865 177.166 123.865C177.098 123.865 177.03 123.851 176.968 123.823C176.905 123.794 176.85 123.753 176.806 123.701C176.762 123.65 176.73 123.589 176.713 123.524C176.695 123.459 176.692 123.391 176.704 123.325L176.842 122.321L176 122.947C175.947 122.986 175.887 123.013 175.823 123.027C175.759 123.041 175.693 123.042 175.628 123.029C175.564 123.016 175.503 122.99 175.45 122.953C175.396 122.916 175.351 122.868 175.318 122.812C175.285 122.756 175.264 122.694 175.257 122.63C175.25 122.565 175.257 122.5 175.278 122.439C175.299 122.378 175.333 122.321 175.378 122.274C175.423 122.227 175.477 122.189 175.538 122.164L176.501 121.77L175.538 121.376C175.477 121.35 175.422 121.312 175.378 121.264C175.333 121.216 175.299 121.16 175.278 121.098C175.257 121.036 175.25 120.971 175.257 120.906C175.264 120.841 175.285 120.779 175.318 120.722C175.351 120.666 175.395 120.617 175.449 120.58C175.502 120.542 175.563 120.516 175.628 120.503C175.692 120.49 175.759 120.491 175.823 120.506C175.888 120.52 175.948 120.548 176 120.587L176.836 121.214L176.699 120.209C176.687 120.143 176.689 120.075 176.707 120.01C176.725 119.945 176.757 119.885 176.801 119.833C176.845 119.782 176.9 119.74 176.962 119.712C177.024 119.684 177.092 119.669 177.161 119.669C177.229 119.669 177.297 119.684 177.359 119.712C177.421 119.74 177.476 119.782 177.52 119.833C177.565 119.885 177.597 119.945 177.614 120.01C177.632 120.075 177.635 120.143 177.623 120.209L177.485 121.214L178.321 120.587C178.373 120.548 178.434 120.52 178.498 120.506C178.562 120.491 178.629 120.49 178.693 120.503C178.758 120.516 178.819 120.542 178.872 120.58C178.926 120.617 178.97 120.666 179.003 120.722C179.037 120.779 179.057 120.841 179.064 120.906C179.071 120.971 179.064 121.036 179.043 121.098C179.022 121.16 178.988 121.216 178.944 121.264C178.899 121.312 178.844 121.35 178.783 121.376L177.821 121.77L178.783 122.164C178.844 122.189 178.899 122.227 178.943 122.274C178.988 122.321 179.022 122.378 179.043 122.439C179.064 122.5 179.071 122.565 179.064 122.63C179.057 122.694 179.036 122.756 179.003 122.812C178.97 122.867 178.925 122.914 178.872 122.951C178.819 122.988 178.759 123.013 178.695 123.026C178.632 123.039 178.566 123.038 178.502 123.025C178.439 123.011 178.379 122.985 178.327 122.947Z" fill="#263238"/>
<path d="M185.79 122.947L184.954 122.321L185.092 123.325C185.104 123.391 185.101 123.459 185.083 123.524C185.066 123.589 185.034 123.65 184.99 123.701C184.946 123.753 184.89 123.794 184.828 123.823C184.766 123.851 184.698 123.865 184.63 123.865C184.561 123.866 184.494 123.851 184.432 123.823C184.37 123.794 184.315 123.753 184.271 123.701C184.228 123.65 184.196 123.589 184.179 123.524C184.162 123.459 184.16 123.391 184.173 123.325L184.311 122.321L183.475 122.947C183.422 122.986 183.361 123.013 183.297 123.027C183.232 123.041 183.165 123.042 183.101 123.029C183.036 123.017 182.975 122.991 182.921 122.953C182.867 122.916 182.821 122.868 182.787 122.812C182.755 122.756 182.735 122.693 182.729 122.629C182.723 122.565 182.731 122.5 182.752 122.439C182.774 122.377 182.808 122.321 182.853 122.274C182.898 122.227 182.952 122.189 183.013 122.164L183.97 121.77L183.013 121.376C182.952 121.35 182.897 121.312 182.852 121.264C182.808 121.216 182.773 121.16 182.752 121.098C182.731 121.037 182.723 120.971 182.729 120.907C182.735 120.842 182.755 120.779 182.787 120.722C182.821 120.666 182.866 120.617 182.92 120.579C182.974 120.541 183.035 120.515 183.1 120.503C183.165 120.49 183.232 120.491 183.297 120.505C183.361 120.52 183.422 120.548 183.475 120.587L184.311 121.214L184.173 120.209C184.16 120.143 184.162 120.075 184.179 120.01C184.196 119.945 184.228 119.885 184.271 119.833C184.315 119.782 184.37 119.74 184.432 119.712C184.494 119.683 184.561 119.669 184.63 119.669C184.698 119.669 184.766 119.684 184.828 119.712C184.89 119.74 184.946 119.782 184.99 119.833C185.034 119.885 185.066 119.945 185.083 120.01C185.101 120.075 185.104 120.143 185.092 120.209L184.954 121.214L185.79 120.587C185.843 120.548 185.903 120.52 185.967 120.506C186.031 120.491 186.098 120.49 186.163 120.503C186.227 120.516 186.288 120.542 186.342 120.58C186.395 120.618 186.44 120.666 186.472 120.722C186.506 120.779 186.527 120.841 186.534 120.906C186.54 120.971 186.533 121.036 186.512 121.098C186.492 121.16 186.458 121.216 186.413 121.264C186.368 121.312 186.313 121.35 186.252 121.376L185.295 121.77L186.252 122.164C186.313 122.189 186.368 122.227 186.413 122.274C186.457 122.321 186.491 122.378 186.512 122.439C186.533 122.5 186.54 122.565 186.533 122.63C186.527 122.694 186.506 122.756 186.472 122.812C186.439 122.868 186.394 122.916 186.341 122.953C186.287 122.99 186.226 123.016 186.162 123.029C186.098 123.042 186.031 123.041 185.967 123.027C185.903 123.013 185.843 122.986 185.79 122.947Z" fill="#263238"/>
<path d="M193.254 122.947L192.418 122.321L192.555 123.325C192.568 123.391 192.566 123.459 192.549 123.524C192.532 123.589 192.501 123.65 192.457 123.701C192.413 123.753 192.359 123.794 192.297 123.823C192.235 123.851 192.167 123.866 192.099 123.865C192.03 123.866 191.962 123.853 191.899 123.825C191.836 123.797 191.781 123.755 191.736 123.703C191.692 123.652 191.66 123.591 191.643 123.525C191.626 123.46 191.623 123.392 191.637 123.325L191.774 122.321L190.938 122.947C190.885 122.986 190.825 123.013 190.761 123.027C190.697 123.041 190.631 123.042 190.566 123.029C190.502 123.016 190.441 122.99 190.388 122.953C190.334 122.916 190.289 122.868 190.256 122.812C190.223 122.756 190.202 122.694 190.195 122.63C190.188 122.566 190.195 122.501 190.216 122.439C190.237 122.378 190.271 122.321 190.316 122.274C190.361 122.227 190.415 122.189 190.476 122.164L191.433 121.77L190.476 121.376C190.415 121.35 190.36 121.312 190.316 121.264C190.271 121.216 190.237 121.16 190.216 121.098C190.195 121.036 190.188 120.971 190.195 120.906C190.202 120.841 190.223 120.779 190.256 120.722C190.289 120.666 190.333 120.618 190.387 120.58C190.44 120.542 190.501 120.516 190.566 120.503C190.63 120.49 190.697 120.491 190.761 120.506C190.826 120.52 190.886 120.548 190.938 120.587L191.774 121.214L191.637 120.209C191.623 120.143 191.626 120.075 191.643 120.009C191.66 119.944 191.692 119.883 191.736 119.831C191.781 119.779 191.836 119.738 191.899 119.71C191.962 119.682 192.03 119.668 192.099 119.669C192.167 119.669 192.235 119.683 192.297 119.712C192.359 119.74 192.413 119.782 192.457 119.833C192.501 119.885 192.532 119.945 192.549 120.011C192.566 120.076 192.568 120.143 192.555 120.209L192.418 121.214L193.254 120.587C193.306 120.548 193.366 120.52 193.43 120.506C193.495 120.491 193.561 120.49 193.626 120.503C193.69 120.516 193.751 120.542 193.805 120.58C193.858 120.618 193.903 120.666 193.936 120.722C193.968 120.779 193.988 120.842 193.994 120.907C194 120.971 193.992 121.037 193.971 121.098C193.95 121.16 193.915 121.216 193.871 121.264C193.826 121.312 193.771 121.35 193.71 121.376L192.753 121.77L193.71 122.164C193.771 122.189 193.826 122.227 193.87 122.274C193.915 122.321 193.949 122.378 193.97 122.439C193.991 122.501 193.998 122.566 193.991 122.63C193.984 122.694 193.963 122.756 193.93 122.812C193.897 122.867 193.852 122.914 193.799 122.951C193.746 122.988 193.686 123.013 193.622 123.026C193.559 123.039 193.493 123.038 193.429 123.025C193.366 123.011 193.306 122.985 193.254 122.947Z" fill="#263238"/>
<path d="M200.75 122.947L199.909 122.321L200.046 123.325C200.059 123.391 200.057 123.459 200.04 123.524C200.023 123.589 199.992 123.65 199.948 123.701C199.905 123.753 199.85 123.794 199.788 123.823C199.726 123.851 199.658 123.866 199.59 123.865C199.521 123.865 199.454 123.851 199.391 123.823C199.329 123.794 199.274 123.753 199.23 123.701C199.186 123.65 199.154 123.589 199.136 123.524C199.119 123.459 199.116 123.391 199.128 123.325L199.265 122.321L198.429 122.947C198.377 122.986 198.316 123.013 198.252 123.027C198.188 123.041 198.122 123.042 198.058 123.029C197.993 123.016 197.932 122.99 197.879 122.953C197.825 122.916 197.781 122.868 197.747 122.812C197.714 122.756 197.693 122.694 197.686 122.63C197.679 122.565 197.687 122.5 197.707 122.439C197.728 122.378 197.762 122.321 197.807 122.274C197.852 122.227 197.907 122.189 197.967 122.164L198.93 121.77L197.967 121.376C197.906 121.35 197.852 121.312 197.807 121.264C197.762 121.216 197.728 121.16 197.707 121.098C197.686 121.036 197.679 120.971 197.686 120.906C197.693 120.841 197.714 120.779 197.747 120.722C197.78 120.666 197.825 120.618 197.878 120.58C197.931 120.542 197.993 120.516 198.057 120.503C198.122 120.49 198.188 120.491 198.253 120.506C198.317 120.52 198.377 120.548 198.429 120.587L199.265 121.214L199.128 120.209C199.116 120.143 199.119 120.075 199.136 120.01C199.154 119.945 199.186 119.885 199.23 119.833C199.274 119.782 199.329 119.74 199.391 119.712C199.454 119.684 199.521 119.669 199.59 119.669C199.658 119.669 199.726 119.683 199.788 119.712C199.85 119.74 199.905 119.782 199.948 119.833C199.992 119.885 200.023 119.945 200.04 120.01C200.057 120.075 200.059 120.143 200.046 120.209L199.909 121.214L200.75 120.587C200.803 120.548 200.863 120.52 200.927 120.506C200.991 120.491 201.058 120.49 201.123 120.503C201.187 120.516 201.248 120.542 201.302 120.58C201.355 120.618 201.4 120.666 201.432 120.722C201.465 120.779 201.485 120.841 201.491 120.906C201.498 120.97 201.491 121.035 201.47 121.097C201.449 121.158 201.415 121.215 201.371 121.263C201.327 121.311 201.273 121.349 201.212 121.376L200.25 121.77L201.207 122.164C201.267 122.189 201.322 122.227 201.367 122.274C201.412 122.321 201.446 122.377 201.467 122.439C201.489 122.5 201.497 122.565 201.49 122.629C201.484 122.693 201.465 122.756 201.432 122.812C201.399 122.868 201.354 122.916 201.301 122.953C201.247 122.99 201.186 123.016 201.122 123.029C201.058 123.042 200.991 123.041 200.927 123.027C200.863 123.013 200.803 122.986 200.75 122.947Z" fill="#263238"/>
<path d="M208.186 122.947L207.35 122.321L207.488 123.325C207.5 123.391 207.497 123.459 207.479 123.524C207.462 123.589 207.43 123.65 207.386 123.701C207.342 123.753 207.287 123.794 207.224 123.823C207.162 123.851 207.094 123.865 207.026 123.865C206.957 123.865 206.89 123.851 206.827 123.823C206.765 123.794 206.71 123.753 206.666 123.701C206.622 123.65 206.59 123.589 206.572 123.524C206.555 123.459 206.552 123.391 206.564 123.325L206.701 122.321L205.865 122.947C205.813 122.986 205.752 123.013 205.688 123.027C205.624 123.041 205.558 123.042 205.494 123.029C205.429 123.016 205.368 122.99 205.315 122.953C205.262 122.916 205.217 122.868 205.183 122.812C205.15 122.756 205.129 122.694 205.122 122.63C205.115 122.565 205.123 122.5 205.144 122.439C205.164 122.378 205.198 122.321 205.243 122.274C205.288 122.227 205.343 122.189 205.403 122.164L206.366 121.77L205.403 121.376C205.342 121.35 205.288 121.312 205.243 121.264C205.198 121.216 205.164 121.16 205.143 121.098C205.122 121.036 205.115 120.971 205.122 120.906C205.129 120.841 205.15 120.779 205.183 120.722C205.216 120.666 205.261 120.617 205.314 120.58C205.367 120.542 205.429 120.516 205.493 120.503C205.558 120.49 205.624 120.491 205.689 120.506C205.753 120.52 205.813 120.548 205.865 120.587L206.701 121.214L206.564 120.209C206.552 120.143 206.555 120.075 206.572 120.01C206.59 119.945 206.622 119.885 206.666 119.833C206.71 119.782 206.765 119.74 206.827 119.712C206.89 119.684 206.957 119.669 207.026 119.669C207.094 119.669 207.162 119.684 207.224 119.712C207.287 119.74 207.342 119.782 207.386 119.833C207.43 119.885 207.462 119.945 207.479 120.01C207.497 120.075 207.5 120.143 207.488 120.209L207.35 121.176L208.186 120.55C208.239 120.51 208.299 120.482 208.363 120.468C208.427 120.453 208.494 120.452 208.559 120.465C208.623 120.478 208.684 120.504 208.738 120.542C208.791 120.58 208.836 120.628 208.868 120.685C208.902 120.741 208.923 120.803 208.93 120.868C208.936 120.933 208.929 120.998 208.908 121.06C208.888 121.122 208.854 121.178 208.809 121.226C208.764 121.274 208.709 121.312 208.648 121.338L207.686 121.732L208.648 122.126C208.709 122.151 208.764 122.189 208.809 122.236C208.853 122.284 208.887 122.34 208.908 122.401C208.929 122.463 208.936 122.528 208.929 122.592C208.923 122.656 208.902 122.719 208.868 122.774C208.838 122.833 208.796 122.884 208.744 122.926C208.692 122.967 208.632 122.996 208.567 123.013C208.503 123.029 208.435 123.032 208.37 123.02C208.304 123.009 208.241 122.984 208.186 122.947Z" fill="#263238"/>
<path d="M220.666 121.748C220.666 121.748 219.142 123.611 217.267 123.611C215.391 123.611 213.873 121.748 213.873 121.748C213.873 121.748 215.391 119.88 217.25 119.88C219.109 119.88 220.666 121.748 220.666 121.748Z" fill="white" stroke="#263238" stroke-linecap="round" stroke-linejoin="round"/>
<path d="M218.438 121.748C218.439 121.976 218.372 122.199 218.243 122.389C218.115 122.579 217.933 122.727 217.719 122.815C217.505 122.903 217.269 122.926 217.042 122.882C216.814 122.839 216.605 122.73 216.44 122.569C216.276 122.408 216.164 122.203 216.118 121.98C216.072 121.757 216.095 121.525 216.184 121.315C216.272 121.104 216.423 120.924 216.615 120.798C216.808 120.671 217.035 120.604 217.267 120.604C217.42 120.603 217.573 120.632 217.715 120.689C217.857 120.746 217.986 120.831 218.095 120.937C218.204 121.043 218.29 121.17 218.349 121.309C218.408 121.448 218.438 121.598 218.438 121.748Z" fill="#999999" stroke="#263238" stroke-linecap="round" stroke-linejoin="round"/>
<path d="M207.559 171.644C207.559 171.644 201.261 184.415 195.728 177.935C190.195 171.455 199.545 169.025 199.545 169.025C199.545 169.025 188.281 170.332 188.281 164.338C188.281 158.344 196.3 162.092 196.3 162.092C196.3 162.092 185.883 154.116 190.954 150.752C194.485 148.408 202.977 156.87 202.977 156.87C202.977 156.87 199.732 148.597 203.527 148.408C207.322 148.219 209.83 160.218 209.83 160.218C209.83 160.218 211.926 151.378 215.743 153.922C219.56 156.465 212.745 166.282 212.745 166.282C212.745 166.282 217.651 161.525 218.988 164.9C220.324 168.275 212.745 170.521 212.745 170.521C212.745 170.521 212.69 182.893 208.494 181.391C204.297 179.89 207.559 171.644 207.559 171.644Z" fill="#1BB284"/>
<path d="M220.984 199.379C220.984 199.379 220.984 170.899 203.725 162.276" stroke="#263238" stroke-linecap="round" stroke-linejoin="round"/>
<path d="M209.896 166.822C209.896 166.822 205.078 167.665 199.639 173.475" stroke="#263238" stroke-linecap="round" stroke-linejoin="round"/>
<path d="M206.525 163.949C206.525 163.949 201.212 165.542 196.075 164.965" stroke="#263238" stroke-linecap="round" stroke-linejoin="round"/>
<path d="M208.021 165.089C210.503 163.457 212.461 161.167 213.669 158.485" stroke="#263238" stroke-linecap="round" stroke-linejoin="round"/>
<path d="M240.3 180.041C240.3 180.041 245.613 190.814 250.283 185.35C254.952 179.885 247.06 177.827 247.06 177.827C247.06 177.827 256.564 178.934 256.564 173.875C256.564 168.815 249.799 171.974 249.799 171.974C249.799 171.974 258.599 165.245 254.309 162.405C251.328 160.434 244.161 167.567 244.161 167.567C244.161 167.567 246.911 160.591 243.683 160.434C240.454 160.277 238.364 170.397 238.364 170.397C238.364 170.397 236.593 162.934 233.376 165.083C230.158 167.233 235.906 175.516 235.906 175.516C235.906 175.516 231.764 171.499 230.637 174.35C229.509 177.201 235.906 179.091 235.906 179.091C235.906 179.091 235.95 189.524 239.492 188.271C243.034 187.018 240.3 180.041 240.3 180.041Z" fill="#1BB284"/>
<mask id="mask0_20_2457" style="mask-type:luminance" maskUnits="userSpaceOnUse" x="230" y="160" width="27" height="29">
<path d="M240.3 180.041C240.3 180.041 245.613 190.814 250.283 185.35C254.952 179.885 247.06 177.827 247.06 177.827C247.06 177.827 256.564 178.934 256.564 173.875C256.564 168.815 249.799 171.974 249.799 171.974C249.799 171.974 258.599 165.245 254.309 162.405C251.328 160.434 244.161 167.567 244.161 167.567C244.161 167.567 246.911 160.591 243.683 160.434C240.454 160.277 238.364 170.397 238.364 170.397C238.364 170.397 236.593 162.934 233.376 165.083C230.158 167.233 235.906 175.516 235.906 175.516C235.906 175.516 231.764 171.499 230.637 174.35C229.509 177.201 235.906 179.091 235.906 179.091C235.906 179.091 235.95 189.524 239.492 188.271C243.034 187.018 240.3 180.041 240.3 180.041Z" fill="white"/>
</mask>
<g mask="url(#mask0_20_2457)">
<path opacity="0.1" d="M240.3 180.041C240.3 180.041 245.613 190.814 250.283 185.35C254.952 179.885 247.06 177.827 247.06 177.827C247.06 177.827 256.564 178.934 256.564 173.875C256.564 168.815 249.799 171.974 249.799 171.974C249.799 171.974 258.599 165.245 254.309 162.405C251.328 160.434 244.161 167.567 244.161 167.567C244.161 167.567 246.911 160.591 243.683 160.434C240.454 160.277 238.364 170.397 238.364 170.397C238.364 170.397 236.593 162.934 233.376 165.083C230.158 167.233 235.906 175.516 235.906 175.516C235.906 175.516 231.764 171.499 230.637 174.35C229.509 177.201 235.906 179.091 235.906 179.091C235.906 179.091 235.95 189.524 239.492 188.271C243.034 187.018 240.3 180.041 240.3 180.041Z" fill="black"/>
</g>
<path d="M239.657 174.107C232.149 179.426 231.077 197.867 231.077 197.867" stroke="#263238" stroke-linecap="round" stroke-linejoin="round"/>
<path d="M237.44 176.245C240.47 177.391 243.198 179.193 245.421 181.516" stroke="#263238" stroke-linecap="round" stroke-linejoin="round"/>
<path d="M242.082 165.089C242.082 169.117 239.651 174.107 239.651 174.107L241.433 174.647" stroke="#263238" stroke-linecap="round" stroke-linejoin="round"/>
<path d="M242.902 175.079C242.902 175.079 247.428 176.072 250.86 175.079" stroke="#263238" stroke-linecap="round" stroke-linejoin="round"/>
<path d="M224.152 152.28C224.152 152.28 211.442 152.82 212.239 146.135C212.905 140.551 221.903 144.283 221.903 144.283C221.903 144.283 214.522 135.832 219.593 132.494C224.664 129.157 227.7 138.877 227.7 138.877C227.7 138.877 230.934 124.837 236.604 127.078C240.553 128.655 234.124 140.292 234.124 140.292C234.124 140.292 241.598 135.286 243.886 138.294C246.174 141.302 235.119 147.76 235.119 147.76C235.119 147.76 243.765 144.547 243.738 149.078C243.71 153.608 231.61 153.517 231.61 153.517C231.61 153.517 238.37 154.872 236.258 157.837C234.146 160.801 228.008 155.876 228.008 155.876C228.008 155.876 219.73 161.757 218.658 157.496C217.585 153.236 224.152 152.28 224.152 152.28Z" fill="#1BB284"/>
<mask id="mask1_20_2457" style="mask-type:luminance" maskUnits="userSpaceOnUse" x="212" y="126" width="33" height="34">
<path d="M224.152 152.28C224.152 152.28 211.442 152.82 212.239 146.135C212.905 140.551 221.903 144.283 221.903 144.283C221.903 144.283 214.522 135.832 219.593 132.494C224.664 129.157 227.7 138.877 227.7 138.877C227.7 138.877 230.934 124.837 236.604 127.078C240.553 128.655 234.124 140.292 234.124 140.292C234.124 140.292 241.598 135.286 243.886 138.294C246.174 141.302 235.119 147.76 235.119 147.76C235.119 147.76 243.765 144.547 243.738 149.078C243.71 153.608 231.61 153.517 231.61 153.517C231.61 153.517 238.37 154.872 236.258 157.837C234.146 160.801 228.008 155.876 228.008 155.876C228.008 155.876 219.73 161.757 218.658 157.496C217.585 153.236 224.152 152.28 224.152 152.28Z" fill="white"/>
</mask>
<g mask="url(#mask1_20_2457)">
<path opacity="0.2" d="M224.152 152.28C224.152 152.28 211.442 152.82 212.239 146.135C212.905 140.551 221.903 144.283 221.903 144.283C221.903 144.283 214.522 135.832 219.593 132.494C224.664 129.157 227.7 138.877 227.7 138.877C227.7 138.877 230.934 124.837 236.604 127.078C240.553 128.655 234.124 140.292 234.124 140.292C234.124 140.292 241.598 135.286 243.886 138.294C246.174 141.302 235.119 147.76 235.119 147.76C235.119 147.76 243.765 144.547 243.738 149.078C243.71 153.608 231.61 153.517 231.61 153.517C231.61 153.517 238.37 154.872 236.258 157.837C234.146 160.801 228.008 155.876 228.008 155.876C228.008 155.876 219.73 161.757 218.658 157.496C217.585 153.236 224.152 152.28 224.152 152.28Z" fill="white"/>
</g>
<path d="M225.907 199.379C225.907 199.379 223.877 164.128 231.071 140.519" stroke="#263238" stroke-linecap="round" stroke-linejoin="round"/>
<path d="M217.079 146.956C217.079 146.956 222.436 146.513 228.767 149.926" stroke="#263238" stroke-linecap="round" stroke-linejoin="round"/>
<path d="M221.534 135.853C221.534 135.853 226.891 141.005 229.075 148.408" stroke="#263238" stroke-linecap="round" stroke-linejoin="round"/>
<path d="M229.553 146.227C229.553 146.227 233.035 142.447 237.44 141.475" stroke="#263238" stroke-linecap="round" stroke-linejoin="round"/>
<path d="M239.541 195.891H212.168L214.368 220.261C214.391 220.517 214.511 220.756 214.705 220.93C214.898 221.103 215.151 221.2 215.413 221.2L215.963 227.221C215.988 227.478 216.109 227.717 216.303 227.891C216.497 228.064 216.751 228.161 217.013 228.161H234.696C234.958 228.161 235.211 228.064 235.404 227.89C235.597 227.716 235.718 227.478 235.741 227.221L236.291 221.2C236.554 221.2 236.807 221.104 237.001 220.93C237.196 220.756 237.317 220.518 237.341 220.261L239.541 195.891Z" fill="white" stroke="#263238" stroke-linecap="round" stroke-linejoin="round"/>
<path d="M239.717 197.883H211.992C211.473 197.882 210.976 197.679 210.609 197.318C210.242 196.958 210.035 196.47 210.034 195.961C210.035 195.451 210.242 194.963 210.609 194.603C210.976 194.243 211.473 194.04 211.992 194.038H239.717C240.236 194.04 240.732 194.243 241.098 194.603C241.464 194.964 241.67 195.452 241.67 195.961C241.67 196.47 241.464 196.958 241.098 197.318C240.732 197.678 240.236 197.882 239.717 197.883Z" fill="#263238" stroke="#263238" stroke-linecap="round" stroke-linejoin="round"/>
<path d="M231.242 221.271H233.057" stroke="#263238" stroke-linecap="round" stroke-linejoin="round"/>
<path d="M218.647 221.271H229.421" stroke="#263238" stroke-linecap="round" stroke-linejoin="round"/>
<path d="M165.143 20.9142H157.646V161.681H165.143C166.337 161.68 167.481 161.213 168.325 160.384C169.168 159.555 169.642 158.431 169.642 157.259V25.3368C169.642 24.1648 169.168 23.0407 168.325 22.2114C167.481 21.3822 166.337 20.9156 165.143 20.9142Z" fill="#999999" stroke="#263238" stroke-linecap="round" stroke-linejoin="round"/>
<path d="M163.119 20.9142H97.8833C95.6051 20.9142 93.7583 22.7274 93.7583 24.9642V157.631C93.7583 159.868 95.6051 161.681 97.8833 161.681H163.119C165.397 161.681 167.244 159.868 167.244 157.631V24.9642C167.244 22.7274 165.397 20.9142 163.119 20.9142Z" fill="#263238" stroke="#263238" stroke-linecap="round" stroke-linejoin="round"/>
<path d="M143.225 27.108C143.119 27.9705 142.695 28.7651 142.034 29.3421C141.372 29.919 140.519 30.2384 139.634 30.24H120.747C119.861 30.2409 119.005 29.9225 118.342 29.3452C117.679 28.7679 117.255 27.9719 117.15 27.108C117.039 26.25 116.613 25.4611 115.951 24.8895C115.29 24.3179 114.439 24.0027 113.558 24.003H100.276C99.3188 24.003 98.4008 24.3751 97.7225 25.038C97.0443 25.7009 96.6611 26.6005 96.6567 27.54V155.039C96.6582 155.981 97.0399 156.884 97.7183 157.55C98.3967 158.216 99.3164 158.591 100.276 158.593H160.726C161.686 158.593 162.607 158.218 163.285 157.552C163.964 156.886 164.345 155.982 164.345 155.039V27.54C164.346 27.0732 164.253 26.6108 164.071 26.1794C163.89 25.748 163.623 25.356 163.287 25.0259C162.951 24.6959 162.551 24.4342 162.112 24.2558C161.673 24.0775 161.202 23.9861 160.726 23.9868H146.817C145.933 23.987 145.08 24.3044 144.419 24.8794C143.757 25.4543 143.333 26.247 143.225 27.108Z" fill="#1BB284"/>
<mask id="mask2_20_2457" style="mask-type:luminance" maskUnits="userSpaceOnUse" x="96" y="23" width="69" height="136">
<path d="M143.225 27.108C143.119 27.9705 142.695 28.7651 142.034 29.3421C141.372 29.919 140.519 30.2384 139.634 30.24H120.747C119.861 30.2409 119.005 29.9225 118.342 29.3452C117.679 28.7679 117.255 27.9719 117.15 27.108C117.039 26.25 116.613 25.4611 115.951 24.8895C115.29 24.3179 114.439 24.0027 113.558 24.003H100.276C99.3188 24.003 98.4008 24.3751 97.7225 25.038C97.0443 25.7009 96.6611 26.6005 96.6567 27.54V155.039C96.6582 155.981 97.0399 156.884 97.7183 157.55C98.3967 158.216 99.3164 158.591 100.276 158.593H160.726C161.686 158.593 162.607 158.218 163.285 157.552C163.964 156.886 164.345 155.982 164.345 155.039V27.54C164.346 27.0732 164.253 26.6108 164.071 26.1794C163.89 25.748 163.623 25.356 163.287 25.0259C162.951 24.6959 162.551 24.4342 162.112 24.2558C161.673 24.0775 161.202 23.9861 160.726 23.9868H146.817C145.933 23.987 145.08 24.3044 144.419 24.8794C143.757 25.4543 143.333 26.247 143.225 27.108Z" fill="white"/>
</mask>
<g mask="url(#mask2_20_2457)">
<path opacity="0.4" d="M116.594 167.546H94.5063L147.752 13.6459H169.84L116.594 167.546Z" fill="white"/>
<path opacity="0.4" d="M132.039 167.546H126.165L179.416 13.6459H185.29L132.039 167.546Z" fill="white"/>
</g>
<path d="M143.225 27.108C143.119 27.9705 142.695 28.7651 142.034 29.3421C141.372 29.919 140.519 30.2384 139.634 30.24H120.747C119.861 30.2409 119.005 29.9225 118.342 29.3452C117.679 28.7679 117.255 27.9719 117.15 27.108C117.039 26.25 116.613 25.4611 115.951 24.8895C115.29 24.3179 114.439 24.0027 113.558 24.003H100.276C99.3188 24.003 98.4008 24.3751 97.7225 25.038C97.0443 25.7009 96.6611 26.6005 96.6567 27.54V155.039C96.6582 155.981 97.0399 156.884 97.7183 157.55C98.3967 158.216 99.3164 158.591 100.276 158.593H160.726C161.686 158.593 162.607 158.218 163.285 157.552C163.964 156.886 164.345 155.982 164.345 155.039V27.54C164.346 27.0732 164.253 26.6108 164.071 26.1794C163.89 25.748 163.623 25.356 163.287 25.0259C162.951 24.6959 162.551 24.4342 162.112 24.2558C161.673 24.0775 161.202 23.9861 160.726 23.9868H146.817C145.933 23.987 145.08 24.3044 144.419 24.8794C143.757 25.4543 143.333 26.247 143.225 27.108Z" stroke="#263238" stroke-linecap="round" stroke-linejoin="round"/>
<path d="M124.003 25.8281C124.003 26.1485 123.906 26.4617 123.725 26.7282C123.543 26.9946 123.286 27.2022 122.984 27.3248C122.683 27.4474 122.351 27.4795 122.031 27.417C121.711 27.3545 121.417 27.2002 121.186 26.9736C120.955 26.7471 120.798 26.4584 120.734 26.1442C120.671 25.8299 120.703 25.5042 120.828 25.2082C120.953 24.9122 121.165 24.6592 121.436 24.4811C121.707 24.3031 122.026 24.2081 122.353 24.2081C122.79 24.2081 123.21 24.3788 123.519 24.6826C123.829 24.9864 124.003 25.3985 124.003 25.8281Z" fill="#1BB284" stroke="#263238" stroke-linecap="round" stroke-linejoin="round"/>
<path d="M137.049 24.2568H128.7C128.275 24.2568 127.868 24.4224 127.568 24.7171C127.268 25.0118 127.099 25.4115 127.099 25.8282C127.099 26.245 127.268 26.6447 127.568 26.9394C127.868 27.2341 128.275 27.3996 128.7 27.3996H137.049C137.473 27.3996 137.88 27.2341 138.18 26.9394C138.481 26.6447 138.649 26.245 138.649 25.8282C138.649 25.4115 138.481 25.0118 138.18 24.7171C137.88 24.4224 137.473 24.2568 137.049 24.2568Z" fill="#999999" stroke="#263238" stroke-linecap="round" stroke-linejoin="round"/>
<path d="M138.05 151.67H122.001C121.563 151.67 121.143 151.84 120.834 152.144C120.524 152.448 120.351 152.86 120.351 153.29C120.351 153.719 120.524 154.132 120.834 154.435C121.143 154.739 121.563 154.91 122.001 154.91H138.05C138.487 154.91 138.907 154.739 139.216 154.435C139.526 154.132 139.7 153.719 139.7 153.29C139.7 152.86 139.526 152.448 139.216 152.144C138.907 151.84 138.487 151.67 138.05 151.67Z" fill="#999999" stroke="#263238" stroke-linecap="round" stroke-linejoin="round"/>
<path d="M170.461 56.7378V46.2078C170.461 45.9744 170.367 45.7505 170.199 45.5854C170.031 45.4204 169.803 45.3276 169.565 45.3276C169.327 45.3276 169.099 45.4204 168.931 45.5854C168.763 45.7505 168.668 45.9744 168.668 46.2078V56.7378C168.668 56.9713 168.763 57.1952 168.931 57.3602C169.099 57.5253 169.327 57.618 169.565 57.618C169.803 57.618 170.031 57.5253 170.199 57.3602C170.367 57.1952 170.461 56.9713 170.461 56.7378Z" fill="#263238"/>
<path d="M170.461 64.557V61.0524C170.461 60.819 170.367 60.5951 170.199 60.43C170.031 60.265 169.803 60.1722 169.565 60.1722C169.327 60.1722 169.099 60.265 168.931 60.43C168.763 60.5951 168.668 60.819 168.668 61.0524V64.557C168.668 64.7905 168.763 65.0144 168.931 65.1794C169.099 65.3445 169.327 65.4372 169.565 65.4372C169.803 65.4372 170.031 65.3445 170.199 65.1794C170.367 65.0144 170.461 64.7905 170.461 64.557Z" fill="#263238"/>
<path d="M172.128 72.3221H91.2173V90.2178H172.128V72.3221Z" fill="white" stroke="#263238" stroke-linecap="round" stroke-linejoin="round"/>
<path d="M100.996 83.16L99.6873 82.1826L99.9018 83.754C99.9159 83.8545 99.908 83.9568 99.8786 84.0541C99.8491 84.1513 99.7989 84.2413 99.7312 84.318C99.6635 84.3947 99.58 84.4563 99.4861 84.4987C99.3922 84.5411 99.2902 84.5634 99.1868 84.564C99.083 84.5641 98.9804 84.5424 98.8858 84.5004C98.7913 84.4583 98.707 84.3968 98.6387 84.32C98.5704 84.2433 98.5197 84.153 98.49 84.0554C98.4602 83.9577 98.4522 83.8549 98.4663 83.754L98.6808 82.1826L97.3498 83.16C97.2682 83.2213 97.1742 83.2648 97.0741 83.2878C96.974 83.3108 96.8701 83.3126 96.7693 83.2932C96.6684 83.2738 96.5729 83.2336 96.489 83.1753C96.4052 83.1169 96.3349 83.0418 96.2828 82.9548V82.9224C96.231 82.8347 96.1988 82.7373 96.1883 82.6365C96.1779 82.5357 96.1894 82.4339 96.2222 82.3378C96.255 82.2417 96.3082 82.1536 96.3785 82.0794C96.4487 82.0051 96.5342 81.9464 96.6293 81.9071L98.1308 81.2915L96.6293 80.6706C96.5342 80.6313 96.4487 80.5726 96.3785 80.4983C96.3082 80.4241 96.255 80.336 96.2222 80.2399C96.1894 80.1438 96.1779 80.042 96.1883 79.9412C96.1988 79.8404 96.231 79.743 96.2828 79.6554V79.6284C96.331 79.5379 96.3984 79.4587 96.4805 79.396C96.5626 79.3334 96.6574 79.2888 96.7586 79.2652C96.8598 79.2416 96.9649 79.2397 97.0669 79.2595C97.1689 79.2793 97.2654 79.3204 97.3498 79.38L98.6588 80.3574L98.4443 78.7859C98.4301 78.6852 98.4381 78.5827 98.4679 78.4853C98.4977 78.3879 98.5485 78.298 98.6169 78.2216C98.6852 78.1453 98.7696 78.0843 98.8642 78.0428C98.9587 78.0014 99.0613 77.9804 99.1648 77.9814C99.2679 77.9812 99.3698 78.0027 99.4637 78.0445C99.5576 78.0863 99.6413 78.1474 99.7091 78.2237C99.7768 78.3 99.8271 78.3896 99.8566 78.4866C99.8861 78.5836 99.894 78.6857 99.8798 78.7859L99.6653 80.3574L100.974 79.38C101.056 79.3189 101.151 79.2756 101.251 79.2531C101.351 79.2305 101.455 79.2291 101.556 79.249C101.657 79.2689 101.753 79.3097 101.836 79.3686C101.92 79.4274 101.99 79.5031 102.041 79.5906V79.6176C102.093 79.7052 102.125 79.8026 102.136 79.9034C102.146 80.0042 102.135 80.106 102.102 80.2021C102.069 80.2982 102.016 80.3863 101.946 80.4605C101.875 80.5348 101.79 80.5935 101.695 80.6328L100.193 81.2538L101.695 81.8694C101.79 81.9086 101.875 81.9673 101.946 82.0416C102.016 82.1158 102.069 82.2039 102.102 82.3C102.135 82.3961 102.146 82.4979 102.136 82.5987C102.125 82.6995 102.093 82.7969 102.041 82.8846V82.917C101.992 83.0038 101.925 83.0796 101.845 83.1396C101.764 83.1996 101.672 83.2424 101.574 83.2652C101.475 83.2881 101.373 83.2906 101.274 83.2724C101.174 83.2543 101.08 83.216 100.996 83.16Z" fill="#263238"/>
<path d="M112.662 83.16L111.353 82.1826L111.567 83.754C111.581 83.8548 111.572 83.9572 111.542 84.0545C111.512 84.1518 111.461 84.2416 111.393 84.3182C111.325 84.3948 111.241 84.4563 111.147 84.4986C111.053 84.541 110.95 84.5633 110.847 84.564C110.743 84.5634 110.641 84.5411 110.548 84.4987C110.454 84.4563 110.37 84.3947 110.302 84.318C110.235 84.2413 110.184 84.1514 110.155 84.0541C110.126 83.9568 110.118 83.8545 110.132 83.754L110.341 82.1826L109.037 83.16C108.956 83.2213 108.862 83.2648 108.762 83.2878C108.662 83.3108 108.558 83.3127 108.457 83.2933C108.356 83.2739 108.26 83.2337 108.177 83.1753C108.093 83.117 108.022 83.0418 107.97 82.9548V82.9224C107.918 82.8348 107.886 82.7373 107.876 82.6365C107.865 82.5357 107.877 82.4339 107.91 82.3378C107.942 82.2418 107.996 82.1537 108.066 82.0794C108.136 82.0051 108.222 81.9464 108.317 81.9072L109.813 81.2916L108.317 80.6706C108.222 80.6313 108.136 80.5726 108.066 80.4983C107.996 80.4241 107.942 80.336 107.91 80.2399C107.877 80.1439 107.865 80.042 107.876 79.9412C107.886 79.8404 107.918 79.743 107.97 79.6554V79.6284C108.022 79.5409 108.092 79.4653 108.175 79.4064C108.259 79.3475 108.355 79.3067 108.455 79.2868C108.556 79.2669 108.66 79.2683 108.761 79.2909C108.861 79.3134 108.955 79.3567 109.037 79.4178L110.341 80.3952L110.132 78.8238C110.118 78.7235 110.126 78.6214 110.155 78.5244C110.184 78.4274 110.235 78.3378 110.303 78.2615C110.37 78.1852 110.454 78.1241 110.548 78.0823C110.642 78.0405 110.744 78.019 110.847 78.0192C110.95 78.0191 111.052 78.0406 111.146 78.0824C111.24 78.1242 111.324 78.1852 111.393 78.2613C111.461 78.3375 111.512 78.427 111.542 78.524C111.572 78.621 111.581 78.7232 111.567 78.8238L111.353 80.3952L112.662 79.4178C112.743 79.3568 112.837 79.3136 112.937 79.2911C113.037 79.2685 113.141 79.2672 113.241 79.2871C113.342 79.307 113.437 79.3478 113.52 79.4066C113.603 79.4655 113.672 79.5411 113.723 79.6284V79.6554C113.775 79.743 113.807 79.8404 113.818 79.9412C113.828 80.042 113.817 80.1439 113.784 80.2399C113.751 80.336 113.698 80.4241 113.628 80.4983C113.557 80.5726 113.472 80.6313 113.377 80.6706L111.875 81.2916L113.377 81.9072C113.472 81.9464 113.557 82.0051 113.628 82.0794C113.698 82.1537 113.751 82.2418 113.784 82.3378C113.817 82.4339 113.828 82.5357 113.818 82.6365C113.807 82.7373 113.775 82.8348 113.723 82.9224V82.9548C113.672 83.0416 113.602 83.1167 113.519 83.175C113.435 83.2334 113.34 83.2736 113.24 83.293C113.139 83.3124 113.036 83.3106 112.936 83.2876C112.837 83.2647 112.743 83.2212 112.662 83.16Z" fill="#263238"/>
<path d="M124.3 83.16L122.996 82.1826L123.211 83.754C123.224 83.8548 123.215 83.9572 123.185 84.0545C123.155 84.1518 123.104 84.2416 123.036 84.3182C122.968 84.3948 122.884 84.4563 122.79 84.4986C122.696 84.541 122.594 84.5633 122.49 84.564C122.387 84.5633 122.285 84.541 122.19 84.4986C122.096 84.4563 122.012 84.3948 121.944 84.3182C121.876 84.2416 121.825 84.1518 121.795 84.0545C121.765 83.9572 121.757 83.8548 121.77 83.754L121.984 82.1826L120.703 83.16C120.621 83.2213 120.527 83.2648 120.427 83.2878C120.327 83.3108 120.223 83.3127 120.122 83.2933C120.021 83.2739 119.926 83.2337 119.842 83.1753C119.758 83.117 119.688 83.0418 119.636 82.9548V82.9224C119.584 82.8348 119.552 82.7373 119.541 82.6365C119.531 82.5357 119.542 82.4339 119.575 82.3378C119.608 82.2418 119.661 82.1537 119.731 82.0794C119.802 82.0051 119.887 81.9464 119.982 81.9072L121.484 81.2916L119.982 80.6706C119.887 80.6313 119.802 80.5726 119.731 80.4983C119.661 80.4241 119.608 80.336 119.575 80.2399C119.542 80.1438 119.531 80.042 119.541 79.9412C119.552 79.8404 119.584 79.743 119.636 79.6554V79.6284C119.687 79.5409 119.757 79.4653 119.841 79.4064C119.925 79.3475 120.02 79.3067 120.121 79.2868C120.222 79.2669 120.326 79.2683 120.426 79.2909C120.527 79.3134 120.621 79.3567 120.703 79.4178L122.006 80.3952L121.792 78.8238C121.779 78.7232 121.787 78.621 121.817 78.524C121.848 78.427 121.898 78.3375 121.967 78.2613C122.035 78.1852 122.119 78.1242 122.213 78.0824C122.307 78.0406 122.409 78.0191 122.512 78.0192C122.616 78.0191 122.718 78.0406 122.812 78.0824C122.906 78.1242 122.99 78.1852 123.058 78.2613C123.126 78.3375 123.177 78.427 123.207 78.524C123.237 78.621 123.246 78.7232 123.233 78.8238L123.018 80.3952L124.3 79.38C124.382 79.3189 124.476 79.2756 124.576 79.2531C124.677 79.2305 124.781 79.2291 124.882 79.249C124.983 79.2689 125.078 79.3097 125.162 79.3686C125.245 79.4275 125.315 79.5031 125.367 79.5906V79.6176C125.42 79.7046 125.453 79.8018 125.464 79.9026C125.476 80.0033 125.465 80.1053 125.432 80.2016C125.4 80.2979 125.347 80.3862 125.277 80.4606C125.207 80.535 125.121 80.5937 125.026 80.6328L123.524 81.2538L125.02 81.8694C125.115 81.9086 125.201 81.9673 125.271 82.0416C125.341 82.1159 125.395 82.204 125.427 82.3C125.46 82.3961 125.472 82.4979 125.461 82.5987C125.451 82.6995 125.419 82.797 125.367 82.8846V82.917C125.318 83.007 125.25 83.0857 125.168 83.1478C125.086 83.2099 124.991 83.254 124.89 83.277C124.789 83.3 124.684 83.3015 124.582 83.2813C124.48 83.2611 124.384 83.2197 124.3 83.16Z" fill="#263238"/>
<path d="M135.988 83.16L134.678 82.1826L134.893 83.754C134.907 83.8545 134.899 83.9568 134.87 84.0541C134.84 84.1514 134.79 84.2414 134.722 84.318C134.655 84.3947 134.571 84.4563 134.477 84.4988C134.383 84.5412 134.281 84.5634 134.178 84.564C134.074 84.5642 133.972 84.5425 133.877 84.5004C133.782 84.4583 133.698 84.3968 133.63 84.3201C133.562 84.2433 133.511 84.1531 133.481 84.0554C133.451 83.9578 133.443 83.855 133.457 83.754L133.672 82.1826L132.363 83.16C132.281 83.2213 132.187 83.2649 132.087 83.2879C131.987 83.3108 131.883 83.3127 131.782 83.2933C131.682 83.2739 131.586 83.2337 131.502 83.1753C131.418 83.117 131.348 83.0418 131.296 82.9548V82.9224C131.244 82.8348 131.212 82.7373 131.201 82.6365C131.191 82.5357 131.203 82.4339 131.235 82.3379C131.268 82.2418 131.321 82.1537 131.392 82.0794C131.462 82.0052 131.547 81.9464 131.643 81.9072L133.144 81.2916L131.643 80.6706C131.547 80.6313 131.462 80.5726 131.392 80.4984C131.321 80.4241 131.268 80.336 131.235 80.2399C131.203 80.1439 131.191 80.0421 131.201 79.9413C131.212 79.8405 131.244 79.743 131.296 79.6554V79.6284C131.348 79.541 131.418 79.4653 131.501 79.4064C131.585 79.3475 131.68 79.3068 131.781 79.2869C131.882 79.267 131.986 79.2683 132.086 79.2909C132.187 79.3135 132.281 79.3567 132.363 79.4178L133.672 80.3952L133.457 78.8238C133.443 78.7231 133.451 78.6205 133.481 78.5232C133.511 78.4258 133.562 78.3358 133.63 78.2595C133.698 78.1831 133.783 78.1221 133.877 78.0807C133.972 78.0392 134.074 78.0182 134.178 78.0192C134.281 78.019 134.383 78.0405 134.477 78.0824C134.571 78.1242 134.654 78.1853 134.722 78.2615C134.79 78.3378 134.84 78.4275 134.87 78.5245C134.899 78.6215 134.907 78.7235 134.893 78.8238L134.678 80.3952L135.988 79.4178C136.069 79.3567 136.164 79.3135 136.264 79.2909C136.364 79.2683 136.468 79.267 136.569 79.2869C136.67 79.3068 136.766 79.3475 136.849 79.4064C136.933 79.4653 137.003 79.541 137.055 79.6284V79.6554C137.106 79.743 137.139 79.8405 137.149 79.9413C137.159 80.0421 137.148 80.1439 137.115 80.2399C137.082 80.336 137.029 80.4241 136.959 80.4984C136.889 80.5726 136.803 80.6313 136.708 80.6706L135.212 81.2916L136.708 81.9072C136.803 81.9464 136.889 82.0052 136.959 82.0794C137.029 82.1537 137.082 82.2418 137.115 82.3379C137.148 82.4339 137.159 82.5357 137.149 82.6365C137.139 82.7373 137.106 82.8348 137.055 82.9224V82.9548C137.002 83.0418 136.932 83.117 136.848 83.1753C136.764 83.2337 136.669 83.2739 136.568 83.2933C136.467 83.3127 136.363 83.3108 136.263 83.2879C136.163 83.2649 136.069 83.2213 135.988 83.16Z" fill="#263238"/>
<path d="M147.653 83.16L146.344 82.1826L146.558 83.754C146.571 83.8548 146.563 83.9572 146.532 84.0545C146.502 84.1518 146.452 84.2416 146.384 84.3182C146.315 84.3948 146.232 84.4563 146.137 84.4986C146.043 84.541 145.941 84.5633 145.838 84.564C145.734 84.5634 145.632 84.5411 145.538 84.4987C145.444 84.4563 145.361 84.3947 145.293 84.318C145.225 84.2413 145.175 84.1514 145.146 84.0541C145.116 83.9568 145.108 83.8545 145.123 83.754L145.332 82.1826L144.028 83.16C143.946 83.2213 143.852 83.2648 143.752 83.2878C143.652 83.3108 143.548 83.3127 143.447 83.2933C143.347 83.2739 143.251 83.2337 143.167 83.1753C143.083 83.117 143.013 83.0418 142.961 82.9548V82.9224C142.909 82.8348 142.877 82.7373 142.867 82.6365C142.856 82.5357 142.868 82.4339 142.9 82.3378C142.933 82.2418 142.986 82.1537 143.057 82.0794C143.127 82.0051 143.212 81.9464 143.308 81.9072L144.804 81.2916L143.308 80.6706C143.212 80.6313 143.127 80.5726 143.057 80.4983C142.986 80.4241 142.933 80.336 142.9 80.2399C142.868 80.1439 142.856 80.042 142.867 79.9412C142.877 79.8404 142.909 79.743 142.961 79.6554V79.6284C143.013 79.5409 143.083 79.4653 143.166 79.4064C143.25 79.3475 143.345 79.3067 143.446 79.2868C143.547 79.2669 143.651 79.2683 143.751 79.2909C143.852 79.3134 143.946 79.3567 144.028 79.4178L145.332 80.3952L145.123 78.8238C145.108 78.7235 145.116 78.6214 145.146 78.5244C145.175 78.4274 145.226 78.3378 145.293 78.2615C145.361 78.1852 145.445 78.1241 145.539 78.0823C145.633 78.0405 145.734 78.019 145.838 78.0192C145.941 78.0191 146.043 78.0406 146.137 78.0824C146.231 78.1242 146.315 78.1852 146.383 78.2613C146.452 78.3375 146.502 78.427 146.533 78.524C146.563 78.621 146.571 78.7232 146.558 78.8238L146.344 80.3952L147.653 79.4178C147.734 79.3568 147.828 79.3136 147.928 79.2911C148.028 79.2685 148.131 79.2672 148.232 79.2871C148.332 79.307 148.427 79.3478 148.51 79.4066C148.594 79.4655 148.663 79.5411 148.714 79.6284V79.6554C148.766 79.743 148.798 79.8404 148.809 79.9412C148.819 80.042 148.807 80.1439 148.775 80.2399C148.742 80.336 148.689 80.4241 148.618 80.4983C148.548 80.5726 148.463 80.6313 148.368 80.6706L146.866 81.2916L148.368 81.9072C148.463 81.9464 148.548 82.0051 148.618 82.0794C148.689 82.1537 148.742 82.2418 148.775 82.3378C148.807 82.4339 148.819 82.5357 148.809 82.6365C148.798 82.7373 148.766 82.8348 148.714 82.9224V82.9548C148.663 83.0416 148.593 83.1167 148.509 83.175C148.426 83.2334 148.331 83.2736 148.231 83.293C148.13 83.3124 148.027 83.3106 147.927 83.2876C147.827 83.2647 147.734 83.2212 147.653 83.16Z" fill="#263238"/>
<path d="M167.151 81.27C167.151 81.27 164.775 84.1806 161.843 84.1806C158.912 84.1806 156.541 81.27 156.541 81.27C156.541 81.27 158.912 78.354 161.843 78.354C164.775 78.354 167.151 81.27 167.151 81.27Z" fill="white" stroke="#263238" stroke-linecap="round" stroke-linejoin="round"/>
<path d="M163.669 81.27C163.669 81.6246 163.562 81.9712 163.361 82.266C163.16 82.5608 162.875 82.7906 162.541 82.9263C162.208 83.062 161.841 83.0975 161.486 83.0283C161.132 82.9592 160.807 82.7884 160.551 82.5377C160.296 82.287 160.122 81.9675 160.052 81.6197C159.981 81.272 160.017 80.9115 160.156 80.5839C160.294 80.2563 160.528 79.9763 160.828 79.7793C161.128 79.5823 161.481 79.4772 161.843 79.4772C162.327 79.4772 162.791 79.6661 163.134 80.0023C163.476 80.3385 163.669 80.7945 163.669 81.27Z" fill="#999999" stroke="#263238" stroke-linecap="round" stroke-linejoin="round"/>
<path d="M106.964 99.1548H102.141C100.935 99.1548 99.957 100.115 99.957 101.299V107.401C99.957 108.585 100.935 109.544 102.141 109.544H106.964C108.17 109.544 109.148 108.585 109.148 107.401V101.299C109.148 100.115 108.17 99.1548 106.964 99.1548Z" fill="#E8E8E8" stroke="#263238" stroke-linecap="round" stroke-linejoin="round"/>
<path d="M117.216 99.1548H112.392C111.187 99.1548 110.209 100.115 110.209 101.299V107.401C110.209 108.585 111.187 109.544 112.392 109.544H117.216C118.422 109.544 119.399 108.585 119.399 107.401V101.299C119.399 100.115 118.422 99.1548 117.216 99.1548Z" fill="#E8E8E8" stroke="#263238" stroke-linecap="round" stroke-linejoin="round"/>
<path d="M127.462 99.1548H122.639C121.433 99.1548 120.455 100.115 120.455 101.299V107.401C120.455 108.585 121.433 109.544 122.639 109.544H127.462C128.668 109.544 129.646 108.585 129.646 107.401V101.299C129.646 100.115 128.668 99.1548 127.462 99.1548Z" fill="#E8E8E8" stroke="#263238" stroke-linecap="round" stroke-linejoin="round"/>
<path d="M137.709 99.1548H132.885C131.679 99.1548 130.702 100.115 130.702 101.299V107.401C130.702 108.585 131.679 109.544 132.885 109.544H137.709C138.915 109.544 139.892 108.585 139.892 107.401V101.299C139.892 100.115 138.915 99.1548 137.709 99.1548Z" fill="#E8E8E8" stroke="#263238" stroke-linecap="round" stroke-linejoin="round"/>
<path d="M147.961 99.1548H143.137C141.931 99.1548 140.954 100.115 140.954 101.299V107.401C140.954 108.585 141.931 109.544 143.137 109.544H147.961C149.167 109.544 150.144 108.585 150.144 107.401V101.299C150.144 100.115 149.167 99.1548 147.961 99.1548Z" fill="#E8E8E8" stroke="#263238" stroke-linecap="round" stroke-linejoin="round"/>
<path d="M158.207 99.1548H153.384C152.178 99.1548 151.2 100.115 151.2 101.299V107.401C151.2 108.585 152.178 109.544 153.384 109.544H158.207C159.413 109.544 160.391 108.585 160.391 107.401V101.299C160.391 100.115 159.413 99.1548 158.207 99.1548Z" fill="#E8E8E8" stroke="#263238" stroke-linecap="round" stroke-linejoin="round"/>
<path d="M112.09 111.197H107.267C106.061 111.197 105.083 112.157 105.083 113.341V119.443C105.083 120.627 106.061 121.586 107.267 121.586H112.09C113.296 121.586 114.274 120.627 114.274 119.443V113.341C114.274 112.157 113.296 111.197 112.09 111.197Z" fill="#E8E8E8" stroke="#263238" stroke-linecap="round" stroke-linejoin="round"/>
<path d="M122.336 111.197H117.513C116.307 111.197 115.329 112.157 115.329 113.341V119.443C115.329 120.627 116.307 121.586 117.513 121.586H122.336C123.542 121.586 124.52 120.627 124.52 119.443V113.341C124.52 112.157 123.542 111.197 122.336 111.197Z" fill="#E8E8E8" stroke="#263238" stroke-linecap="round" stroke-linejoin="round"/>
<path d="M132.588 111.197H127.765C126.559 111.197 125.581 112.157 125.581 113.341V119.443C125.581 120.627 126.559 121.586 127.765 121.586H132.588C133.794 121.586 134.772 120.627 134.772 119.443V113.341C134.772 112.157 133.794 111.197 132.588 111.197Z" fill="#E8E8E8" stroke="#263238" stroke-linecap="round" stroke-linejoin="round"/>
<path d="M142.835 111.197H138.011C136.805 111.197 135.828 112.157 135.828 113.341V119.443C135.828 120.627 136.805 121.586 138.011 121.586H142.835C144.041 121.586 145.018 120.627 145.018 119.443V113.341C145.018 112.157 144.041 111.197 142.835 111.197Z" fill="#E8E8E8" stroke="#263238" stroke-linecap="round" stroke-linejoin="round"/>
<path d="M153.081 111.197H148.258C147.052 111.197 146.074 112.157 146.074 113.341V119.443C146.074 120.627 147.052 121.586 148.258 121.586H153.081C154.287 121.586 155.265 120.627 155.265 119.443V113.341C155.265 112.157 154.287 111.197 153.081 111.197Z" fill="#E8E8E8" stroke="#263238" stroke-linecap="round" stroke-linejoin="round"/>
<path d="M106.964 123.239H102.141C100.935 123.239 99.957 124.199 99.957 125.383V131.485C99.957 132.669 100.935 133.628 102.141 133.628H106.964C108.17 133.628 109.148 132.669 109.148 131.485V125.383C109.148 124.199 108.17 123.239 106.964 123.239Z" fill="#E8E8E8" stroke="#263238" stroke-linecap="round" stroke-linejoin="round"/>
<path d="M117.216 123.239H112.392C111.187 123.239 110.209 124.199 110.209 125.383V131.485C110.209 132.669 111.187 133.628 112.392 133.628H117.216C118.422 133.628 119.399 132.669 119.399 131.485V125.383C119.399 124.199 118.422 123.239 117.216 123.239Z" fill="#E8E8E8" stroke="#263238" stroke-linecap="round" stroke-linejoin="round"/>
<path d="M127.462 123.239H122.639C121.433 123.239 120.455 124.199 120.455 125.383V131.485C120.455 132.669 121.433 133.628 122.639 133.628H127.462C128.668 133.628 129.646 132.669 129.646 131.485V125.383C129.646 124.199 128.668 123.239 127.462 123.239Z" fill="#E8E8E8" stroke="#263238" stroke-linecap="round" stroke-linejoin="round"/>
<path d="M137.709 123.239H132.885C131.679 123.239 130.702 124.199 130.702 125.383V131.485C130.702 132.669 131.679 133.628 132.885 133.628H137.709C138.915 133.628 139.892 132.669 139.892 131.485V125.383C139.892 124.199 138.915 123.239 137.709 123.239Z" fill="#E8E8E8" stroke="#263238" stroke-linecap="round" stroke-linejoin="round"/>
<path d="M147.961 123.239H143.137C141.931 123.239 140.954 124.199 140.954 125.383V131.485C140.954 132.669 141.931 133.628 143.137 133.628H147.961C149.167 133.628 150.144 132.669 150.144 131.485V125.383C150.144 124.199 149.167 123.239 147.961 123.239Z" fill="#E8E8E8" stroke="#263238" stroke-linecap="round" stroke-linejoin="round"/>
<path d="M158.207 123.239H153.384C152.178 123.239 151.2 124.199 151.2 125.383V131.485C151.2 132.669 152.178 133.628 153.384 133.628H158.207C159.413 133.628 160.391 132.669 160.391 131.485V125.383C160.391 124.199 159.413 123.239 158.207 123.239Z" fill="#E8E8E8" stroke="#263238" stroke-linecap="round" stroke-linejoin="round"/>
<path d="M112.09 135.281H107.267C106.061 135.281 105.083 136.241 105.083 137.425V143.527C105.083 144.711 106.061 145.67 107.267 145.67H112.09C113.296 145.67 114.274 144.711 114.274 143.527V137.425C114.274 136.241 113.296 135.281 112.09 135.281Z" fill="#E8E8E8" stroke="#263238" stroke-linecap="round" stroke-linejoin="round"/>
<path d="M122.336 135.281H117.513C116.307 135.281 115.329 136.241 115.329 137.425V143.527C115.329 144.711 116.307 145.67 117.513 145.67H122.336C123.542 145.67 124.52 144.711 124.52 143.527V137.425C124.52 136.241 123.542 135.281 122.336 135.281Z" fill="#E8E8E8" stroke="#263238" stroke-linecap="round" stroke-linejoin="round"/>
<path d="M132.588 135.281H127.765C126.559 135.281 125.581 136.241 125.581 137.425V143.527C125.581 144.711 126.559 145.67 127.765 145.67H132.588C133.794 145.67 134.772 144.711 134.772 143.527V137.425C134.772 136.241 133.794 135.281 132.588 135.281Z" fill="#E8E8E8" stroke="#263238" stroke-linecap="round" stroke-linejoin="round"/>
<path d="M142.835 135.281H138.011C136.805 135.281 135.828 136.241 135.828 137.425V143.527C135.828 144.711 136.805 145.67 138.011 145.67H142.835C144.041 145.67 145.018 144.711 145.018 143.527V137.425C145.018 136.241 144.041 135.281 142.835 135.281Z" fill="#E8E8E8" stroke="#263238" stroke-linecap="round" stroke-linejoin="round"/>
<path d="M153.081 135.281H148.258C147.052 135.281 146.074 136.241 146.074 137.425V143.527C146.074 144.711 147.052 145.67 148.258 145.67H153.081C154.287 145.67 155.265 144.711 155.265 143.527V137.425C155.265 136.241 154.287 135.281 153.081 135.281Z" fill="#E8E8E8" stroke="#263238" stroke-linecap="round" stroke-linejoin="round"/>
<path d="M143.57 57.9409C147.539 50.6026 144.697 41.4947 137.223 37.5978C129.749 33.7009 120.473 36.4907 116.504 43.829C112.534 51.1673 115.376 60.2752 122.85 64.1721C130.324 68.069 139.601 65.2792 143.57 57.9409Z" fill="white" stroke="#263238" stroke-linecap="round" stroke-linejoin="round"/>
<path d="M130.036 65.9232C133.385 65.9301 136.643 64.852 139.304 62.856C135.712 61.5471 131.915 60.8671 128.084 60.8472C125.34 60.8679 122.62 61.3519 120.043 62.2782C122.82 64.6322 126.368 65.9261 130.036 65.9232Z" fill="#1BB284" stroke="#263238" stroke-linecap="round" stroke-linejoin="round"/>
<path d="M125.911 57.591C125.911 57.591 125.779 52.6878 124.377 49.1022C122.974 45.5166 122.177 40.2192 127.528 39.4848C132.88 38.7504 134.997 39.6198 138.061 39.3822C143.946 38.934 137.461 45.5706 137.461 45.5706L129.58 48.6C129.58 48.6 126.846 57.8286 125.911 57.591Z" fill="#263238" stroke="#263238" stroke-linecap="round" stroke-linejoin="round"/>
<path d="M125.554 59.0166L126.945 53.46L130.795 54.6048L131.956 59.13C132.064 59.563 132.268 59.9673 132.553 60.3144C132.838 60.6615 133.198 60.9429 133.606 61.1388C134.186 61.4035 134.739 61.7236 135.256 62.0946C135.256 62.0946 130.669 67.8672 121.863 62.0946C122.446 61.678 123.077 61.3318 123.744 61.0632C124.189 60.8867 124.585 60.6092 124.9 60.2534C125.214 59.8977 125.438 59.4738 125.554 59.0166Z" fill="white"/>
<mask id="mask3_20_2457" style="mask-type:luminance" maskUnits="userSpaceOnUse" x="121" y="53" width="15" height="12">
<path d="M125.554 59.0166L126.945 53.46L130.795 54.6048L131.956 59.13C132.064 59.563 132.268 59.9673 132.553 60.3144C132.838 60.6615 133.198 60.9429 133.606 61.1388C134.186 61.4035 134.739 61.7236 135.256 62.0946C135.256 62.0946 130.669 67.8672 121.863 62.0946C122.446 61.678 123.077 61.3318 123.744 61.0632C124.189 60.8867 124.585 60.6092 124.9 60.2534C125.214 59.8977 125.438 59.4738 125.554 59.0166Z" fill="white"/>
</mask>
<g mask="url(#mask3_20_2457)">
<path d="M137.582 45.7434L138.088 49.0536C138.139 49.4031 138.109 49.7592 138 50.0958L137.709 50.9976L137.879 53.1576C137.887 53.269 137.887 53.3809 137.879 53.4924C137.802 54.5724 137.258 59.8752 134.029 60.1182C131.153 60.3342 128.282 57.4182 127.264 56.0358C127.01 55.6911 126.823 55.3029 126.714 54.891L126.28 53.2116C125.87 53.2089 125.471 53.0789 125.141 52.8403C124.811 52.6016 124.567 52.2666 124.443 51.8832C124.008 50.5278 123.288 49.653 124.685 48.978C126.082 48.303 126.566 50.22 126.566 50.22C126.566 50.22 126.929 47.9898 127.314 47.3526C127.699 46.7154 128.887 46.1106 129.25 45.5652C129.455 45.1322 129.621 44.6823 129.745 44.2206C129.745 44.2206 133.996 45.0252 137.225 44.3826L137.582 45.7434Z" fill="#263238" stroke="#263238" stroke-linecap="round" stroke-linejoin="round"/>
</g>
<path d="M125.554 59.0166L126.945 53.46L130.795 54.6048L131.956 59.13C132.064 59.563 132.268 59.9673 132.553 60.3144C132.838 60.6615 133.198 60.9429 133.606 61.1388C134.186 61.4035 134.739 61.7236 135.256 62.0946C135.256 62.0946 130.669 67.8672 121.863 62.0946C122.446 61.678 123.077 61.3318 123.744 61.0632C124.189 60.8867 124.585 60.6092 124.9 60.2534C125.214 59.8977 125.438 59.4738 125.554 59.0166Z" stroke="#263238" stroke-linecap="round" stroke-linejoin="round"/>
<path d="M137.582 45.1548L138.088 48.465C138.139 48.8145 138.109 49.1706 138 49.5072L137.709 50.409L137.879 52.569C137.888 52.6822 137.888 52.7959 137.879 52.9092C137.802 53.9892 137.258 59.292 134.029 59.535C131.153 59.751 128.282 56.835 127.264 55.4526C127.011 55.1073 126.825 54.7192 126.714 54.3078L126.28 52.6284C125.868 52.6279 125.467 52.499 125.135 52.2602C124.803 52.0215 124.557 51.6852 124.432 51.3C123.997 49.9446 123.277 49.0698 124.674 48.3948C126.071 47.7198 126.566 49.626 126.566 49.626C126.566 49.626 126.929 47.3958 127.314 46.7586C127.699 46.1214 128.887 45.5166 129.25 44.9712C129.455 44.5383 129.621 44.0883 129.745 43.6266C129.745 43.6266 133.996 44.4312 137.225 43.7886L137.582 45.1548Z" fill="white" stroke="#263238" stroke-linecap="round" stroke-linejoin="round"/>
<path d="M135.3 50.679L136.356 53.1846C136.394 53.2661 136.411 53.3558 136.406 53.4455C136.4 53.5352 136.371 53.6221 136.323 53.6982C136.274 53.7744 136.207 53.8374 136.127 53.8816C136.047 53.9258 135.958 53.9498 135.866 53.9514L134.552 54.0378" stroke="#263238" stroke-width="0.75" stroke-linecap="round" stroke-linejoin="round"/>
<path d="M132.027 54.972C132.133 55.1854 132.285 55.3734 132.473 55.5228C132.66 55.6721 132.879 55.7792 133.114 55.8363C133.348 55.8935 133.593 55.8994 133.83 55.8537C134.067 55.8079 134.291 55.7115 134.486 55.5714" stroke="#263238" stroke-width="0.75" stroke-linecap="round" stroke-linejoin="round"/>
<path d="M132 41.202C126.302 40.5648 125.251 42.7734 125.251 42.7734" stroke="#7F7F7F" stroke-width="0.75" stroke-linecap="round" stroke-linejoin="round"/>
<path d="M138.253 40.5918C136.618 40.9933 134.94 41.2054 133.254 41.2236" stroke="#7F7F7F" stroke-width="0.75" stroke-linecap="round" stroke-linejoin="round"/>
<path d="M133.1 42.8112C134.722 42.8112 138 42.5142 139.309 41.0454" stroke="#7F7F7F" stroke-width="0.75" stroke-linecap="round" stroke-linejoin="round"/>
<path d="M130.702 42.5411C131.122 42.6356 131.548 42.7041 131.978 42.7463" stroke="#7F7F7F" stroke-width="0.75" stroke-linecap="round" stroke-linejoin="round"/>
<path d="M133.012 50.3172C133.012 50.7492 132.836 51.0948 132.616 51.0948C132.396 51.0948 132.22 50.7492 132.22 50.3172C132.22 49.8852 132.401 49.5396 132.616 49.5396C132.83 49.5396 133.012 49.8906 133.012 50.3172Z" fill="#263238"/>
<path d="M136.741 50.22C136.741 50.5926 136.587 50.895 136.4 50.895C136.213 50.895 136.053 50.5926 136.053 50.22C136.053 49.8474 136.207 49.545 136.4 49.545C136.592 49.545 136.741 49.842 136.741 50.22Z" fill="#263238"/>
<path d="M131.323 49.1724C131.323 49.1724 131.796 47.7846 132.616 47.8224C132.869 47.8459 133.111 47.9328 133.32 48.0746C133.529 48.2164 133.697 48.4084 133.809 48.6324" stroke="#263238" stroke-width="0.75" stroke-linecap="round" stroke-linejoin="round"/>
<path d="M136.999 48.6C136.845 48.2274 136.609 47.8062 136.295 47.8278C135.745 47.8602 135.476 48.6378 135.476 48.6378" stroke="#263238" stroke-width="0.75" stroke-linecap="round" stroke-linejoin="round"/>
<path d="M51.7494 114.167C52.8494 111.542 50.1599 103.604 48.9554 100.348C48.8854 100.16 48.7694 99.9912 48.6176 99.8571C48.4658 99.723 48.2827 99.6275 48.0846 99.579C47.8864 99.5305 47.6792 99.5305 47.481 99.5789C47.2828 99.6273 47.0998 99.7227 46.9479 99.8568C45.8479 100.813 44.5334 102.67 44.3134 106.115C44.3134 106.115 35.9204 120.625 35.9204 127.246C35.9204 133.45 48.4164 146.372 48.4164 146.372C49.8254 145.943 51.0163 145.005 51.7494 143.748C51.7494 143.748 47.0799 132.408 43.4554 127.548C43.4499 127.553 50.5119 117.072 51.7494 114.167Z" fill="#263238"/>
<mask id="mask4_20_2457" style="mask-type:luminance" maskUnits="userSpaceOnUse" x="35" y="99" width="18" height="48">
<path d="M51.7494 114.167C52.8494 111.542 50.1599 103.604 48.9554 100.348C48.8854 100.16 48.7694 99.9912 48.6176 99.8571C48.4658 99.723 48.2827 99.6275 48.0846 99.579C47.8864 99.5305 47.6792 99.5305 47.481 99.5789C47.2828 99.6273 47.0998 99.7227 46.9479 99.8568C45.8479 100.813 44.5334 102.67 44.3134 106.115C44.3134 106.115 35.9204 120.625 35.9204 127.246C35.9204 133.45 48.4164 146.372 48.4164 146.372C49.8254 145.943 51.0163 145.005 51.7494 143.748C51.7494 143.748 47.0799 132.408 43.4554 127.548C43.4499 127.553 50.5119 117.072 51.7494 114.167Z" fill="white"/>
</mask>
<g mask="url(#mask4_20_2457)">
<path opacity="0.2" d="M50.3469 118.411C50.3469 118.411 46.3484 110.047 44.8469 110.797C43.3454 111.548 39.4514 125.653 40.9419 127.899C42.4324 130.145 50.5614 146.005 52.5964 145.687C54.6314 145.368 50.3469 118.411 50.3469 118.411Z" fill="black"/>
</g>
<path d="M51.7494 114.167C52.8494 111.542 50.1599 103.604 48.9554 100.348C48.8854 100.16 48.7694 99.9912 48.6176 99.8571C48.4658 99.723 48.2827 99.6275 48.0846 99.579C47.8864 99.5305 47.6792 99.5305 47.481 99.5789C47.2828 99.6273 47.0998 99.7227 46.9479 99.8568C45.8479 100.813 44.5334 102.67 44.3134 106.115C44.3134 106.115 35.9204 120.625 35.9204 127.246C35.9204 133.45 48.4164 146.372 48.4164 146.372C49.8254 145.943 51.0163 145.005 51.7494 143.748C51.7494 143.748 47.0799 132.408 43.4554 127.548C43.4499 127.553 50.5119 117.072 51.7494 114.167Z" stroke="#263238" stroke-linecap="round" stroke-linejoin="round"/>
<path d="M50.6879 142.722L52.5744 145.687C52.5744 145.687 58.4484 147.49 59.0589 149.396C59.6694 151.303 56.6609 153.959 54.8734 153.425C53.0859 152.89 50.1709 147.598 50.1709 147.598L47.7949 144.898L50.6879 142.722Z" fill="white" stroke="#263238" stroke-linecap="round" stroke-linejoin="round"/>
<path d="M46.9863 145.622L48.2568 147.058C50.0435 146.568 51.5708 145.424 52.5248 143.861L51.7548 142.063C51.7548 142.063 50.6713 144.558 46.9863 145.622Z" fill="#1BB284" stroke="#263238" stroke-linecap="round" stroke-linejoin="round"/>
<path d="M54.516 225.099L52.866 231.822C52.8112 232.047 52.809 232.282 52.8597 232.508C52.9104 232.734 53.0126 232.946 53.1587 233.128C53.3048 233.31 53.4909 233.457 53.7031 233.558C53.9153 233.659 54.1481 233.712 54.384 233.712H64.02C64.2482 233.712 64.4737 233.663 64.6807 233.569C64.8877 233.474 65.0712 233.337 65.2184 233.165C65.3656 232.994 65.4729 232.793 65.5328 232.577C65.5928 232.361 65.6039 232.135 65.5655 231.914C65.491 231.408 65.3096 230.924 65.033 230.491C64.7564 230.059 64.3907 229.688 63.9595 229.403C61.7595 227.999 60.7145 223.603 60.7145 223.603L54.516 225.099Z" fill="#263238" stroke="#263238" stroke-linecap="round" stroke-linejoin="round"/>
<path d="M78.2596 226.222C78.2596 226.222 76.7031 228.42 76.4501 232.34C76.4419 232.518 76.4704 232.695 76.5339 232.861C76.5974 233.027 76.6946 233.179 76.8195 233.307C76.9444 233.435 77.0945 233.537 77.2608 233.607C77.427 233.676 77.6059 233.712 77.7866 233.712H94.8751C95.2086 233.714 95.5344 233.614 95.8073 233.425C96.0802 233.237 96.2865 232.97 96.3978 232.661C96.509 232.352 96.5197 232.017 96.4281 231.703C96.3366 231.388 96.1475 231.109 95.8871 230.904C95.1599 230.373 94.2981 230.048 93.3956 229.964C89.2046 229.424 85.4921 227.534 84.8211 225.104L78.2596 226.222Z" fill="#263238" stroke="#263238" stroke-linecap="round" stroke-linejoin="round"/>
<path d="M51.7495 143.748C51.7495 143.748 49.8135 151.61 50.578 168.588L51.073 187.812C51.073 187.812 48.29 201.312 53.6305 225.752C53.6305 225.752 55.2805 229.37 61.93 224.845L62.7 187.558L69.6575 146.372L51.7495 143.748Z" fill="#999999"/>
<mask id="mask5_20_2457" style="mask-type:luminance" maskUnits="userSpaceOnUse" x="50" y="143" width="20" height="85">
<path d="M51.7495 143.748C51.7495 143.748 49.8135 151.61 50.578 168.588L51.073 187.812C51.073 187.812 48.29 201.312 53.6305 225.752C53.6305 225.752 55.2805 229.37 61.93 224.845L62.7 187.558L69.6575 146.372L51.7495 143.748Z" fill="white"/>
</mask>
<g mask="url(#mask5_20_2457)">
<path opacity="0.2" d="M65.5875 161.098C65.5875 161.098 62.7495 172.206 61.6055 178.697C60.4615 185.188 53.658 184.691 52.8385 188.957C52.019 193.223 59.9885 188.206 59.213 203.537C58.4375 218.867 55.649 227.248 60.027 227.124C64.405 227 64.5315 214.92 64.5315 214.92L67.199 178.103V172.984L67.837 163.264L65.5875 161.098Z" fill="black"/>
</g>
<path d="M51.7495 143.748C51.7495 143.748 49.8135 151.61 50.578 168.588L51.073 187.812C51.073 187.812 48.29 201.312 53.6305 225.752C53.6305 225.752 55.2805 229.37 61.93 224.845L62.7 187.558L69.6575 146.372L51.7495 143.748Z" stroke="#263238" stroke-linecap="round" stroke-linejoin="round"/>
<path d="M52.8385 191.981C52.5427 192.365 52.2691 192.765 52.019 193.18" stroke="#263238" stroke-linecap="round" stroke-linejoin="round"/>
<path d="M53.1851 187.747C53.1851 187.747 59.5651 186.251 59.9996 187.747C60.3736 189.049 56.9251 187.52 53.5206 191.171" stroke="#263238" stroke-linecap="round" stroke-linejoin="round"/>
<path d="M64.2455 163.798C69.1955 171.644 76.164 187.083 76.164 187.083C76.164 187.083 75.1135 188.87 76.164 191.867C76.164 191.867 73.414 202.295 77.4015 227.227C77.4015 227.227 80.8335 229.387 85.7945 225.607C85.7945 225.607 88.2695 188.131 87.318 183.076C86.3665 178.022 77.418 144.639 77.418 144.639H57.75" fill="#999999"/>
<mask id="mask6_20_2457" style="mask-type:luminance" maskUnits="userSpaceOnUse" x="57" y="144" width="31" height="84">
<path d="M64.2455 163.798C69.1955 171.644 76.164 187.083 76.164 187.083C76.164 187.083 75.1135 188.87 76.164 191.867C76.164 191.867 73.414 202.295 77.4015 227.227C77.4015 227.227 80.8335 229.387 85.7945 225.607C85.7945 225.607 88.2695 188.131 87.318 183.076C86.3665 178.022 77.418 144.639 77.418 144.639H57.75" fill="white"/>
</mask>
<g mask="url(#mask6_20_2457)">
<path opacity="0.2" d="M63.1289 164.344C63.1289 164.344 66.1264 165.839 71.8739 164.344C77.6214 162.848 72.8584 169.204 74.7614 176.137C76.6644 183.071 82.0104 186.251 81.1524 189.243C80.2944 192.235 77.7534 192.991 77.2089 201.042C76.6644 209.093 83.8584 223.965 81.0259 227.011C78.1934 230.056 71.3294 222.853 71.3294 222.853L65.5874 184.68L63.1289 164.344Z" fill="black"/>
</g>
<path d="M64.2455 163.798C69.1955 171.644 76.164 187.083 76.164 187.083C76.164 187.083 75.1135 188.87 76.164 191.867C76.164 191.867 73.414 202.295 77.4015 227.227C77.4015 227.227 80.8335 229.387 85.7945 225.607C85.7945 225.607 88.2695 188.131 87.318 183.076C86.3665 178.022 77.418 144.639 77.418 144.639H57.75" stroke="#263238" stroke-linecap="round" stroke-linejoin="round"/>
<path d="M79.805 188.406C82.0655 188.071 84.953 187.866 84.8375 188.87C84.6505 190.555 80.619 188.843 78.166 191.678" stroke="#263238" stroke-linecap="round" stroke-linejoin="round"/>
<path d="M77.209 188.87C77.209 188.87 77.605 188.784 78.2155 188.671" stroke="#263238" stroke-linecap="round" stroke-linejoin="round"/>
<path d="M92.9497 91.6488L93.3072 88.0848C93.3072 88.0848 92.5922 84.375 92.9497 83.1168C93.3072 81.8586 96.4422 73.8828 97.4377 74.2338C98.4332 74.5848 95.9417 78.921 96.0132 80.1738C96.0132 80.1738 97.3387 80.244 97.6632 81.081C97.6632 81.081 98.9227 81.2916 98.9942 82.4094C99.3017 82.602 99.5501 82.8731 99.7129 83.1937C99.8756 83.5142 99.9466 83.8721 99.9182 84.2292C99.7807 85.4172 97.3552 88.6356 97.3552 88.6356L97.4982 93.2526L92.9497 91.6488Z" fill="white" stroke="#263238" stroke-linecap="round" stroke-linejoin="round"/>
<path d="M71.8627 85.6277C71.8627 85.6277 70.4602 82.9277 70.2567 81.9125C70.1082 81.2051 70.4052 79.7525 70.2567 79.0397C69.9157 77.3927 67.5672 72.8621 67.5672 72.8621C67.473 72.6674 67.3289 72.4999 67.1492 72.3761L65.7742 74.0393H62.0452L56.3472 81.4265L59.1522 88.0577L58.3327 89.0135C58.8332 89.4995 59.1522 89.7803 59.1522 89.7803L58.3327 94.5917L66.3627 95.3909L66.5497 92.3399H68.9917C69.3213 92.3399 69.6375 92.2113 69.8706 91.9824C70.1037 91.7536 70.2347 91.4432 70.2347 91.1195V86.9399L71.3347 86.6267C71.4408 86.6025 71.5404 86.5561 71.6265 86.4905C71.7126 86.4249 71.7831 86.3417 71.8333 86.2468C71.8835 86.1518 71.9121 86.0473 71.9172 85.9404C71.9223 85.8335 71.9037 85.7268 71.8627 85.6277Z" fill="white" stroke="#263238" stroke-linecap="round" stroke-linejoin="round"/>
<path d="M52.4424 83.2248C55.6764 87.9012 59.1524 89.7804 59.1524 89.7804L60.5219 86.4378C60.5219 86.4378 57.7719 86.1516 58.1844 83.5272C58.8279 79.6554 62.0344 83.1384 62.0344 83.1384L62.7274 80.1468C62.7274 80.1468 64.4379 78.3432 64.3169 77.7114C64.2253 77.2525 64.104 76.7997 63.9539 76.356C63.9539 76.356 70.1414 70.5726 69.4869 67.3488C69.4869 67.3488 64.3334 68.3748 58.1844 69.5088C50.6989 70.8372 48.7904 77.9544 52.4424 83.2248Z" fill="#263238" stroke="#263238" stroke-linecap="round" stroke-linejoin="round"/>
<path d="M69.014 92.34C69.014 92.34 64.7075 91.6218 63.063 89.64C61.4185 87.6582 62.7275 89.7803 63.4975 90.9953C65.1475 93.5927 66.55 92.34 69.014 92.34Z" fill="#263238"/>
<path d="M66.3628 86.2595C66.6598 86.5897 67.0346 86.8436 67.4545 86.9989C67.8745 87.1542 68.3267 87.2062 68.7718 87.1505" stroke="#263238" stroke-width="0.75" stroke-linecap="round" stroke-linejoin="round"/>
<path d="M69.498 81.0918C69.498 81.4698 69.355 81.7722 69.1735 81.7722C68.992 81.7722 68.8545 81.4698 68.8545 81.0918C68.8545 80.7138 68.9975 80.4114 69.1735 80.4114C69.3495 80.4114 69.498 80.7192 69.498 81.0918Z" fill="#263238"/>
<path d="M69.4373 79.1046C68.9919 79.0086 68.5263 79.0711 68.1234 79.2807C67.7205 79.4904 67.4065 79.8336 67.2373 80.2494" stroke="#263238" stroke-width="0.75" stroke-linecap="round" stroke-linejoin="round"/>
<path d="M54.1362 96.6923C54.1362 96.6923 54.1362 92.9987 60.6207 93.5711C68.5022 94.2731 71.6812 98.2367 71.6812 98.2367L54.1362 96.6923Z" fill="#1BB284" stroke="#263238" stroke-linecap="round" stroke-linejoin="round"/>
<path d="M66.8523 96.0281C71.7638 96.5681 80.3273 97.7291 79.8158 110.695C79.3043 123.66 77.4013 144.628 77.4013 144.628C77.4013 144.628 52.8383 154.931 50.0498 145.373C50.0498 145.373 51.3258 134.573 47.2558 117.763C43.1858 100.953 45.0283 93.6899 66.8523 96.0281Z" fill="#263238"/>
<mask id="mask7_20_2457" style="mask-type:luminance" maskUnits="userSpaceOnUse" x="45" y="95" width="35" height="55">
<path d="M66.8523 96.0281C71.7638 96.5681 80.3273 97.7291 79.8158 110.695C79.3043 123.66 77.4013 144.628 77.4013 144.628C77.4013 144.628 52.8383 154.931 50.0498 145.373C50.0498 145.373 51.3258 134.573 47.2558 117.763C43.1858 100.953 45.0283 93.6899 66.8523 96.0281Z" fill="white"/>
</mask>
<g mask="url(#mask7_20_2457)">
<path opacity="0.2" d="M81.0589 132.392C81.0589 132.392 77.8524 133.148 68.0294 127.899C52.6294 119.653 50.9024 107.552 46.5794 109.539C42.2564 111.526 50.8529 150.552 50.8529 150.552L66.8029 151.535H81.5869L81.0589 132.392Z" fill="black"/>
</g>
<path d="M66.8523 96.0281C71.7638 96.5681 80.3273 97.7291 79.8158 110.695C79.3043 123.66 77.4013 144.628 77.4013 144.628C77.4013 144.628 52.8383 154.931 50.0498 145.373C50.0498 145.373 51.3258 134.573 47.2558 117.763C43.1858 100.953 45.0283 93.6899 66.8523 96.0281Z" stroke="#263238" stroke-linecap="round" stroke-linejoin="round"/>
<path d="M38.5 127.008C38.225 127.073 37.9335 127.154 37.6255 127.251" stroke="#7F7F7F" stroke-width="0.75" stroke-linecap="round" stroke-linejoin="round"/>
<path d="M42.5588 127.251C42.5588 127.251 41.5248 126.527 39.2588 126.862" stroke="#7F7F7F" stroke-width="0.75" stroke-linecap="round" stroke-linejoin="round"/>
<path d="M68.75 96.2657C68.75 96.2657 77.2585 96.3197 81.07 98.5661C81.07 98.5661 87.8075 97.4429 90.4805 98.5661L92.895 89.7047C92.895 89.7047 96.074 88.2035 97.5975 90.4499C97.5975 90.4499 98.7415 103.95 96.8385 105.057C94.9355 106.164 79.8215 109.55 79.8215 109.55C79.8215 109.55 70.169 106.699 68.75 96.2657Z" fill="#263238"/>
<mask id="mask8_20_2457" style="mask-type:luminance" maskUnits="userSpaceOnUse" x="68" y="89" width="30" height="21">
<path d="M68.75 96.2657C68.75 96.2657 77.2585 96.3197 81.07 98.5661C81.07 98.5661 87.8075 97.4429 90.4805 98.5661L92.895 89.7047C92.895 89.7047 96.074 88.2035 97.5975 90.4499C97.5975 90.4499 98.7415 103.95 96.8385 105.057C94.9355 106.164 79.8215 109.55 79.8215 109.55C79.8215 109.55 70.169 106.699 68.75 96.2657Z" fill="white"/>
</mask>
<g mask="url(#mask8_20_2457)">
<path opacity="0.2" d="M79.7501 107.26C79.7501 107.26 79.3046 103.788 85.8001 104.236C92.2956 104.684 97.3501 104.809 97.9936 101.812C98.6371 98.8145 105.76 93.6305 103.494 103.334L101.2 113.054L87.5381 113.94L79.7501 107.26Z" fill="black"/>
</g>
<path d="M68.75 96.2657C68.75 96.2657 77.2585 96.3197 81.07 98.5661C81.07 98.5661 87.8075 97.4429 90.4805 98.5661L92.895 89.7047C92.895 89.7047 96.074 88.2035 97.5975 90.4499C97.5975 90.4499 98.7415 103.95 96.8385 105.057C94.9355 106.164 79.8215 109.55 79.8215 109.55C79.8215 109.55 70.169 106.699 68.75 96.2657Z" stroke="#263238" stroke-linecap="round" stroke-linejoin="round"/>
<path d="M92.0591 99.2303C92.7937 99.8186 93.4253 100.521 93.9291 101.309" stroke="#7F7F7F" stroke-width="0.75" stroke-linecap="round" stroke-linejoin="round"/>
<path d="M90.6841 98.6526C90.8912 98.6518 91.0959 98.6961 91.2836 98.7822" stroke="#7F7F7F" stroke-width="0.75" stroke-linecap="round" stroke-linejoin="round"/>
<path d="M47.0742 113.94C46.7772 111.143 45.9742 106.007 46.2877 102.454" stroke="#7F7F7F" stroke-width="0.75" stroke-linecap="round" stroke-linejoin="round"/>
<path d="M44.8247 107.26C44.8247 107.26 46.3097 115.9 47.0247 115.9" stroke="#7F7F7F" stroke-width="0.75" stroke-linecap="round" stroke-linejoin="round"/>
<path d="M50.1655 139.347V144.196" stroke="#7F7F7F" stroke-width="0.75" stroke-linecap="round" stroke-linejoin="round"/>
<path d="M58.5474 151.546C58.5474 151.546 59.3449 157.027 61.7979 160.412L58.5474 151.546Z" fill="#999999"/>
<path d="M58.5474 151.546C58.5474 151.546 59.3449 157.027 61.7979 160.412" stroke="#263238" stroke-linecap="round" stroke-linejoin="round"/>
<path d="M92.2019 88.6841L91.6519 90.6929C91.6519 90.6929 95.3699 89.8289 98.6589 91.5623L98.3234 89.2133C98.3234 89.2133 96.1949 87.6527 92.2019 88.6841Z" fill="#1BB284" stroke="#263238" stroke-linecap="round" stroke-linejoin="round"/>
<path d="M71.8903 140.47C69.2118 141.637 63.8988 142.663 53.4653 141.653" stroke="#7F7F7F" stroke-width="0.75" stroke-linecap="round" stroke-linejoin="round"/>
<path d="M74.5746 138.321C74.3465 138.817 73.9804 139.24 73.5186 139.541" stroke="#7F7F7F" stroke-width="0.75" stroke-linecap="round" stroke-linejoin="round"/>
<path d="M81.9497 98.8199L86.2892 101.455" stroke="#7F7F7F" stroke-width="0.75" stroke-linecap="round" stroke-linejoin="round"/>
<path d="M75.1738 120.998C77.9477 117.792 79.6728 113.84 80.1238 109.658" stroke="#7F7F7F" stroke-width="0.75" stroke-linecap="round" stroke-linejoin="round"/>
<path d="M72.6437 120.215C69.1175 124.213 64.7133 127.374 59.7627 129.46" stroke="#7F7F7F" stroke-width="0.75" stroke-linecap="round" stroke-linejoin="round"/>
<path d="M74.8001 117.472C74.3876 118.055 73.9531 118.622 73.4966 119.178" stroke="#7F7F7F" stroke-width="0.75" stroke-linecap="round" stroke-linejoin="round"/>
<path d="M76.1256 115.517C75.9166 115.862 75.6966 116.197 75.4766 116.532" stroke="#7F7F7F" stroke-width="0.75" stroke-linecap="round" stroke-linejoin="round"/>
<path d="M52.3491 136.08C57.9154 138.577 64.1076 139.409 70.1526 138.472" stroke="#7F7F7F" stroke-width="0.75" stroke-linecap="round" stroke-linejoin="round"/>
<path d="M67.2373 69.0227C67.8054 68.7798 68.3472 68.4813 68.8543 68.1317" stroke="#7F7F7F" stroke-width="0.75" stroke-linecap="round" stroke-linejoin="round"/>
<path d="M53.8395 81.7722C53.8395 81.7722 50.787 76.275 54.3125 73.278C57.002 70.9992 61.798 70.7832 65.637 69.606" stroke="#7F7F7F" stroke-width="0.75" stroke-linecap="round" stroke-linejoin="round"/>
<path d="M56.4081 77.8679C56.2366 77.3682 56.2085 76.8318 56.3268 76.3175C56.4452 75.8031 56.7054 75.3307 57.0791 74.9519C59.1746 72.9971 65.2906 72.7919 68.3376 69.8165" stroke="#7F7F7F" stroke-width="0.75" stroke-linecap="round" stroke-linejoin="round"/>
<path d="M57.651 80.4113C57.3983 80.0694 57.174 79.7083 56.98 79.3313" stroke="#7F7F7F" stroke-width="0.75" stroke-linecap="round" stroke-linejoin="round"/>
</svg>
