<svg width="151" height="147" viewBox="0 0 151 147" fill="none" xmlns="http://www.w3.org/2000/svg">
<path d="M71.8618 0.00111194C72.1298 0.00090529 72.3979 0.000698647 72.674 0.000485741C73.2388 0.000339409 73.8036 0.000733398 74.3683 0.00163926C75.2232 0.00279078 76.078 0.0016505 76.9329 0.000268221C83.8145 -0.00209416 83.8145 -0.00209415 87.1677 0.610274C87.3761 0.647635 87.5845 0.684996 87.7992 0.72349C93.23 1.72406 98.5739 3.06346 103.667 5.21358C104.05 5.36281 104.434 5.51138 104.818 5.65906C105.738 6.02467 106.616 6.45448 107.495 6.90945C107.993 7.16382 107.993 7.16382 108.509 7.35662C114.019 9.59726 119.266 13.5115 123.749 17.3546C124.232 17.7677 124.72 18.1729 125.213 18.573C125.334 18.6714 125.455 18.7698 125.579 18.8713C125.914 19.1436 126.251 19.4147 126.587 19.6858C126.742 19.8281 126.897 19.9704 127.056 20.117C127.056 20.2595 127.056 20.4021 127.056 20.5489C127.181 20.5979 127.306 20.6469 127.435 20.6974C128.048 21.0539 128.352 21.5063 128.789 22.0609C128.954 22.1901 129.119 22.3193 129.29 22.4524C129.94 22.98 130.449 23.5622 130.988 24.1997C131.393 24.6702 131.393 24.6702 131.89 25.1446C132.591 25.8549 133.222 26.6064 133.851 27.3796C134.038 27.6097 134.038 27.6097 134.229 27.8444C135.04 28.8524 135.771 29.8783 136.442 30.9848C136.848 31.639 137.289 32.2605 137.736 32.8874C139.695 35.6743 141.278 38.6813 142.843 41.7002C143.075 42.1356 143.322 42.5596 143.574 42.9841C143.947 43.6585 144.04 43.9874 143.948 44.7399C144.091 44.7399 144.234 44.7399 144.381 44.7399C146.978 50.9036 148.641 57.1483 149.755 63.7336C149.8 63.9983 149.845 64.263 149.891 64.5357C150.367 67.4556 150.497 70.3259 150.499 73.2777C150.5 73.4583 150.5 73.6388 150.5 73.8248C150.497 76.9844 150.281 80.0612 149.796 83.1863C149.763 83.4048 149.731 83.6233 149.697 83.8484C149.09 87.9084 148.297 91.9337 147.007 95.837C146.794 96.4858 146.599 97.1361 146.412 97.7927C146.173 98.5924 145.851 99.2921 145.464 100.034C145.321 100.379 145.182 100.725 145.045 101.073C144.33 102.874 143.509 104.605 142.628 106.33C142.165 107.242 141.744 108.162 141.349 109.105C141.207 109.105 141.064 109.105 140.916 109.105C140.863 109.287 140.81 109.469 140.756 109.657C140.454 110.481 140.049 111.198 139.59 111.94C139.46 112.152 139.46 112.152 139.328 112.368C137.073 116.034 134.544 119.457 131.635 122.632C131.061 123.265 130.509 123.916 129.96 124.57C129.655 124.873 129.655 124.873 129.222 124.873C129.173 124.997 129.124 125.122 129.073 125.251C128.716 125.862 128.262 126.165 127.706 126.6C127.516 126.848 127.516 126.848 127.322 127.101C126.776 127.757 126.163 128.25 125.486 128.76C125.216 128.967 124.947 129.174 124.677 129.381C124.536 129.49 124.395 129.599 124.25 129.71C123.789 130.071 123.336 130.44 122.884 130.812C122.655 131.001 122.655 131.001 122.421 131.194C122.125 131.438 121.83 131.683 121.535 131.929C120.74 132.584 119.984 133.076 119.043 133.512C118.732 133.708 118.425 133.911 118.123 134.12C113.627 137.168 108.643 139.667 103.578 141.627C102.832 141.923 102.109 142.25 101.38 142.584C99.3206 143.464 97.1734 143.987 95.0046 144.528C94.7232 144.599 94.4418 144.671 94.1604 144.743C93.3888 144.939 92.6161 145.13 91.8426 145.318C91.5419 145.392 91.2413 145.467 90.9411 145.542C85.9271 146.804 80.8402 147.024 75.6898 146.998C75.2707 146.997 75.2707 146.997 74.8432 146.996C70.6661 146.983 66.6281 146.831 62.5199 146.04C62.2928 145.998 62.0657 145.956 61.8317 145.914C60.3191 145.634 58.8201 145.31 57.3224 144.96C57.0963 144.908 56.8703 144.856 56.6375 144.803C52.0882 143.751 52.0882 143.751 50.2096 142.886C49.4552 142.553 48.6896 142.273 47.9147 141.991C45.7459 141.198 43.7377 140.259 41.7206 139.142C41.0434 138.775 40.3512 138.439 39.6588 138.102C38.7488 137.652 37.8819 137.185 37.033 136.631C36.4615 136.276 35.8765 135.953 35.2876 135.629C33.7579 134.786 32.308 133.902 30.9015 132.864C30.6374 132.674 30.3732 132.485 30.1088 132.296C28.8083 131.36 27.5264 130.427 26.3401 129.348C25.8368 128.902 25.3109 128.49 24.7835 128.072C23.4038 126.955 22.1781 125.708 20.9395 124.441C20.6694 124.173 20.6694 124.173 20.3938 123.9C17.8933 121.39 15.7679 118.713 13.8316 115.755C13.6069 115.415 13.3763 115.08 13.1448 114.745C10.8548 111.428 8.9989 107.867 7.31515 104.214C7.10135 103.753 6.88292 103.295 6.66144 102.837C6.28243 102.052 5.9174 101.262 5.56339 100.466C5.50295 100.33 5.44251 100.195 5.38024 100.055C3.98057 96.8544 3.15986 93.4756 2.31492 90.098C2.24242 89.8139 2.24242 89.8139 2.16846 89.5241C1.93307 88.5941 1.72552 87.6631 1.54679 86.7206C1.47841 86.365 1.4059 86.0101 1.33023 85.6559C0.52327 81.7895 0.500804 77.9413 0.50119 74.0067C0.500797 73.7462 0.500404 73.4857 0.5 73.2173C0.500542 70.0359 0.608473 66.9039 1.01553 63.7471C1.04481 63.5135 1.07409 63.2799 1.10425 63.0392C1.82611 57.7244 3.14877 52.3212 5.13026 47.3318C5.18547 47.1925 5.24067 47.0531 5.29755 46.9095C6.01654 45.121 6.86306 43.4004 7.74141 41.6854C7.95725 41.2612 8.16964 40.8354 8.38127 40.4091C9.21159 38.7373 10.0535 37.0753 10.9775 35.4523C11.0878 35.2527 11.198 35.053 11.3117 34.8474C11.4158 34.6906 11.5199 34.5339 11.6272 34.3724C11.7701 34.3724 11.9131 34.3724 12.0603 34.3724C12.1181 34.2167 12.1759 34.0611 12.2354 33.9007C13.4542 31.0273 15.7375 28.5449 17.7604 26.1984C18.288 25.5845 18.7878 24.9515 19.2882 24.3153C20.6032 22.7012 22.1662 21.3204 23.7726 20.0005C24.3794 19.4901 24.9273 18.9493 25.4873 18.389C25.9621 17.961 26.4476 17.5465 26.9356 17.1336C27.1243 16.9709 27.1243 16.9709 27.3167 16.805C28.2511 16.0131 28.2511 16.0131 28.7358 16.0131C28.7358 15.8706 28.7358 15.728 28.7358 15.5811C29.1646 15.4386 29.5934 15.296 30.0352 15.1492C30.0352 15.0066 30.0352 14.8641 30.0352 14.7172C30.3235 14.5129 30.6144 14.3118 30.9133 14.1232C31.3896 13.818 31.8481 13.4925 32.3091 13.1647C34.4193 11.6934 36.5116 10.3662 38.8315 9.25075C39.5489 8.893 40.2307 8.50157 40.9176 8.08896C41.858 7.53044 42.7836 7.09668 43.8074 6.71539C44.3365 6.50637 44.8267 6.26094 45.3301 5.99655C50.8856 3.17874 57.2879 1.89906 63.3726 0.826265C63.6091 0.784423 63.6091 0.784423 63.8503 0.741735C66.5426 0.268688 69.1263 -0.00360817 71.8618 0.00111194ZM49.9592 7.80547C49.4191 8.01698 48.8779 8.22538 48.3365 8.43356C47.577 8.72571 46.8191 9.02164 46.061 9.31741C46.061 9.45996 46.061 9.60252 46.061 9.74939C45.8798 9.76944 45.6986 9.78948 45.512 9.81014C44.6482 9.98884 43.9279 10.3209 43.1509 10.7213C43.001 10.7973 42.851 10.8733 42.6966 10.9515C41.352 11.6433 40.0582 12.4105 38.7697 13.2002C38.1931 13.5494 37.6152 13.8762 37.0194 14.1907C36.0611 14.7133 35.1977 15.3456 34.3225 15.9954C33.94 16.2794 33.5546 16.5595 33.1652 16.8341C29.7137 19.2698 26.4909 22.0687 23.5383 25.0847C22.4554 26.1647 22.4554 26.1647 21.9546 26.6372C21.54 26.9922 21.54 26.9922 21.5892 27.4606C21.2676 27.5676 21.2676 27.5676 20.9395 27.6766C20.5531 28.0814 20.5531 28.0814 20.168 28.5946C20.0164 28.7889 19.8648 28.9833 19.7086 29.1835C19.5431 29.399 19.3775 29.6145 19.207 29.8365C19.0241 30.0723 18.8411 30.308 18.6579 30.5436C18.2842 31.0251 17.9124 31.5081 17.5421 31.9922C17.2565 32.3642 16.969 32.7348 16.6759 33.1009C15.96 34.0069 15.3713 34.9676 14.7945 35.9653C14.678 36.1661 14.678 36.1661 14.5592 36.3711C14.1434 37.0567 14.1434 37.0567 14.0094 37.8282C13.8665 37.8282 13.7235 37.8282 13.5763 37.8282C10.6055 43.2555 10.6055 43.2555 8.38635 49.0108C8.16217 49.7077 8.16217 49.7077 7.83647 50.4586C7.51483 51.2141 7.2909 51.9385 7.07934 52.7316C7.00119 53.0163 7.00119 53.0163 6.92147 53.3067C3.45556 65.9813 2.02355 80.2918 6.44662 92.9798C6.6126 93.4572 6.76528 93.9337 6.90677 94.4187C7.58766 96.7271 8.49157 98.9125 9.46156 101.114C9.56993 101.365 9.56993 101.365 9.6805 101.622C10.0971 102.58 10.5499 103.476 11.0993 104.367C11.6889 105.352 12.1364 106.288 12.4935 107.377C12.6364 107.377 12.7793 107.377 12.9266 107.377C12.9816 107.564 13.0366 107.75 13.0932 107.943C13.3716 108.706 13.721 109.312 14.1583 109.996C14.3137 110.242 14.4687 110.488 14.6236 110.734C14.7017 110.857 14.7798 110.981 14.8602 111.108C15.3496 111.895 15.8096 112.698 16.274 113.499C16.3843 113.689 16.4946 113.878 16.6082 114.073C16.7207 114.276 16.8332 114.478 16.9491 114.687C17.102 114.918 17.102 114.918 17.2579 115.153C17.4008 115.153 17.5438 115.153 17.691 115.153C17.766 115.377 17.766 115.377 17.8424 115.605C18.1843 116.367 18.6522 116.986 19.1664 117.637C19.2586 117.757 19.3509 117.877 19.446 118C20.0413 118.764 20.6835 119.439 21.3726 120.121C21.6146 120.394 21.8547 120.669 22.0934 120.945C24.0961 123.247 26.305 125.401 28.7358 127.248C28.993 127.449 29.2502 127.649 29.5073 127.85C32.3939 130.077 35.4602 132.047 38.6978 133.728C38.9611 133.869 39.2241 134.01 39.4871 134.151C40.3048 134.59 41.1249 135.024 41.9463 135.456C42.1559 135.567 42.3656 135.677 42.5816 135.791C43.5852 136.308 44.5284 136.706 45.6279 136.968C45.6279 137.111 45.6279 137.253 45.6279 137.4C45.7878 137.465 45.9478 137.531 46.1126 137.598C47.2148 138.052 48.304 138.514 49.3771 139.033C50.5685 139.583 51.7911 139.902 53.0613 140.21C53.6331 140.364 54.1454 140.527 54.6923 140.741C55.6672 141.116 56.6558 141.358 57.6743 141.585C57.8766 141.63 58.079 141.675 58.2875 141.722C60.0605 142.106 61.8421 142.437 63.6298 142.746C63.8846 142.791 64.1394 142.837 64.4018 142.884C72.235 144.189 80.9797 144.053 88.7242 142.368C89.2317 142.265 89.7393 142.163 90.247 142.061C94.8515 141.111 99.3149 139.854 103.646 138.023C104.05 137.853 104.456 137.69 104.863 137.528C106.13 137.022 107.319 136.443 108.504 135.765C109.054 135.471 109.613 135.228 110.188 134.988C110.939 134.658 111.66 134.274 112.384 133.89C112.545 133.805 112.705 133.721 112.871 133.633C114.01 133.025 115.108 132.37 116.185 131.657C116.622 131.378 117.059 131.142 117.527 130.92C117.527 130.778 117.527 130.635 117.527 130.488C117.649 130.432 117.77 130.376 117.895 130.319C118.93 129.774 119.842 129.028 120.776 128.328C120.894 128.24 121.012 128.152 121.134 128.061C122.654 126.915 124.11 125.714 125.513 124.427C125.712 124.246 125.712 124.246 125.916 124.06C126.233 123.764 126.537 123.456 126.84 123.145C126.84 123.002 126.84 122.86 126.84 122.713C127.054 122.641 127.268 122.57 127.489 122.497C127.859 122.2 127.859 122.2 128.139 121.849C128.139 121.706 128.139 121.564 128.139 121.417C128.282 121.417 128.425 121.417 128.572 121.417C128.572 121.274 128.572 121.132 128.572 120.985C128.787 120.913 129.001 120.842 129.222 120.769C129.504 120.446 129.504 120.446 129.75 120.053C130.176 119.429 130.626 118.92 131.171 118.393C132.376 117.147 132.376 117.147 132.903 115.585C133.046 115.585 133.189 115.585 133.337 115.585C133.638 115.141 133.909 114.699 134.176 114.235C134.351 113.936 134.527 113.636 134.703 113.337C134.797 113.176 134.891 113.015 134.988 112.85C135.292 112.334 135.603 111.823 135.916 111.312C141.967 101.427 145.535 91.3373 146.703 79.8015C146.748 79.4318 146.808 79.0639 146.876 78.698C146.999 77.8786 147.015 77.0739 147.017 76.2476C147.017 76.0802 147.018 75.9128 147.019 75.7403C147.022 75.1984 147.022 74.6566 147.021 74.1147C147.02 73.929 147.02 73.7434 147.02 73.5521C147.005 68.3401 146.332 63.438 145.248 58.3473C145.178 58.0165 145.178 58.0165 145.106 57.679C144.411 54.4478 143.49 51.2511 142.216 48.1958C142.073 48.1958 141.93 48.1958 141.783 48.1958C141.756 48.0048 141.728 47.8138 141.701 47.617C141.02 43.9874 138.561 40.2458 136.585 37.1802C136.406 36.8929 136.228 36.6051 136.05 36.3171C134.681 34.1044 133.264 31.9706 131.616 29.9521C131.306 29.5704 131 29.1848 130.699 28.7962C130.546 28.6005 130.394 28.4048 130.237 28.2031C130.099 28.0246 129.962 27.8462 129.82 27.6623C129.451 27.1903 129.451 27.1903 128.789 27.0287C128.71 26.7425 128.638 26.4541 128.572 26.1647C128.279 25.6792 128.279 25.6792 127.922 25.3007C127.78 25.3007 127.637 25.3007 127.489 25.3007C127.418 25.0869 127.346 24.8731 127.273 24.6528C126.906 24.2901 126.906 24.2901 126.461 23.9373C125.907 23.4714 125.416 23.023 124.972 22.4524C124.418 21.7981 123.877 21.4447 123.158 20.9809C122.889 20.7507 122.623 20.5163 122.359 20.2789C121.477 19.4908 120.534 18.8095 119.567 18.1292C119.043 17.7411 119.043 17.7411 118.74 17.4263C118.197 16.9046 117.554 16.5325 116.918 16.1346C116.655 15.9685 116.392 15.8023 116.129 15.636C115.937 15.5153 115.937 15.5153 115.741 15.3923C115.369 15.1539 115.006 14.9058 114.642 14.6556C114.116 14.2464 114.116 14.2464 113.629 14.2852C113.629 14.1426 113.629 14.0001 113.629 13.8532C112.457 13.0436 111.217 12.4207 109.932 11.8072C109.298 11.4773 109.298 11.4773 108.671 11.0563C107.925 10.565 107.169 10.1797 106.361 9.80339C106.204 9.72995 106.047 9.65652 105.885 9.58086C104.067 8.74766 102.199 8.04523 100.321 7.35967C99.9493 7.22354 99.5786 7.08505 99.2088 6.94436C91.6991 4.12508 83.4468 3.15178 75.4732 3.14817C75.1418 3.14723 75.1418 3.14723 74.8037 3.14627C66.5499 3.14893 57.6105 4.61353 49.9592 7.80547Z" fill="#1BA279"/>
<path d="M75.2972 36.3164C75.7503 36.9942 75.7844 37.1438 75.7837 37.9144C75.7845 38.1098 75.7854 38.3052 75.7863 38.5065C75.785 38.7215 75.7837 38.9364 75.7824 39.1579C75.7828 39.386 75.7832 39.6141 75.7836 39.8491C75.7843 40.6172 75.7819 41.3853 75.7795 42.1534C75.7794 42.7025 75.7795 43.2516 75.7797 43.8007C75.7798 44.9848 75.7786 46.1689 75.7762 47.3531C75.7726 49.0651 75.7715 50.7771 75.771 52.4892C75.77 55.2667 75.7671 58.0443 75.763 60.8218C75.7591 63.5202 75.756 66.2186 75.7542 68.9171C75.754 69.0833 75.7539 69.2496 75.7538 69.4209C75.7532 70.2551 75.7527 71.0893 75.7522 71.9235C75.7477 78.8457 75.74 85.7678 75.7304 92.69C73.5409 92.7403 71.3516 92.7786 69.1617 92.8019C68.1446 92.8132 67.1279 92.8284 66.111 92.853C65.1281 92.8766 64.1455 92.8894 63.1622 92.895C62.7888 92.8989 62.4154 92.9067 62.0421 92.9184C60.1132 92.9766 58.7332 92.9942 57.2499 91.6644C56.9054 91.2933 56.5683 90.9152 56.2395 90.5301C55.8787 90.17 55.5178 89.81 55.1567 89.4502C54.8887 89.1227 54.8887 89.1227 54.6153 88.7887C54.1085 88.1947 53.6063 87.7658 52.9911 87.2903C52.8356 87.1349 52.6801 86.9795 52.5199 86.8195C52.0569 86.3583 51.5897 85.9137 51.1071 85.4737C50.8954 85.2802 50.8954 85.2802 50.6795 85.0827C50.387 84.8158 50.0937 84.5498 49.7997 84.2845C49.6594 84.1558 49.5191 84.027 49.3746 83.8943C49.2477 83.779 49.1207 83.6637 48.99 83.545C48.6598 83.1864 48.6598 83.1864 48.4527 82.7372C48.1645 82.2084 47.8994 82.1456 47.3604 81.8905C47.0064 81.5773 46.6633 81.2518 46.3283 80.9185C46.1357 80.727 45.9431 80.5354 45.7446 80.3381C45.5453 80.1376 45.346 79.9371 45.1406 79.7306C44.9379 79.5301 44.7352 79.3296 44.5264 79.1231C44.2392 78.8358 44.2392 78.8358 43.9461 78.5426C43.7702 78.3667 43.5942 78.1907 43.4129 78.0094C43.0291 77.5707 43.0291 77.5707 43.0291 77.1387C42.913 77.0897 42.7968 77.0407 42.6772 76.9902C41.4586 76.3186 40.6016 75.3601 39.7104 74.3156C39.3943 73.9526 39.0699 73.6131 38.7249 73.2779C38.2647 72.8189 38.2647 72.8189 38.0481 72.3869C38.1505 72.3003 38.253 72.2137 38.3586 72.1245C39.1894 71.4122 39.9857 70.6811 40.7552 69.903C41.501 69.1489 42.2723 68.4442 43.0782 67.7549C43.4075 67.4669 43.721 67.161 44.0307 66.8521C44.545 66.3391 44.545 66.3391 45.1812 65.8262C45.7989 65.3238 46.2973 64.7611 46.7995 64.1455C47.6014 63.218 48.5118 62.4016 49.4228 61.5831C50.374 60.7211 51.297 59.8366 52.2009 58.9254C52.3131 58.8123 52.4253 58.6992 52.5409 58.5827C52.999 58.1199 53.4561 57.6563 53.9124 57.1919C54.2524 56.8463 54.5936 56.5021 54.9351 56.158C55.134 55.956 55.333 55.7539 55.5379 55.5458C56.023 55.1076 56.023 55.1076 56.4561 55.1076C56.4561 54.9651 56.4561 54.8225 56.4561 54.6756C56.7209 54.4166 56.7209 54.4166 57.1193 54.0952C58.0307 53.3222 58.8755 52.4974 59.7181 51.6518C59.8566 51.5129 59.9951 51.3741 60.1378 51.231C60.5713 50.7957 61.0043 50.3599 61.4371 49.9238C65.5339 45.7964 65.5339 45.7964 66.4181 45.172C66.561 45.172 66.7039 45.172 66.8512 45.172C66.9048 45.0518 66.9584 44.9315 67.0136 44.8075C67.334 44.2165 67.7033 43.73 68.1506 43.2281C68.2935 43.2281 68.4365 43.2281 68.5837 43.2281C68.6409 43.1008 68.6981 42.9735 68.757 42.8424C69.0268 42.3459 69.3082 42.0209 69.7088 41.6242C69.8452 41.4885 69.9816 41.3527 70.1222 41.2129C70.2666 41.0716 70.411 40.9303 70.5599 40.7847C70.707 40.6394 70.8541 40.4941 71.0056 40.3444C71.859 39.5063 72.7247 38.6922 73.64 37.9212C74.2242 37.417 74.758 36.8677 75.2972 36.3164Z" fill="#1BA279"/>
<path d="M103.353 12.7488C103.779 12.9417 104.209 13.1227 104.642 13.2998C105.507 13.6851 106.327 14.1285 107.155 14.5873C107.564 14.8129 107.975 15.0347 108.388 15.2521C109.581 15.8811 110.684 16.5682 111.779 17.353C113.207 18.3594 114.7 19.2702 116.228 20.117C116.228 20.2595 116.228 20.4021 116.228 20.5489C116.353 20.5668 116.478 20.5846 116.607 20.6029C117.229 20.8098 117.517 21.1568 117.96 21.6289C118.103 21.7002 118.246 21.7715 118.394 21.8449C118.394 21.9874 118.394 22.13 118.394 22.2769C118.517 22.3334 118.64 22.3899 118.767 22.4481C119.299 22.7297 119.746 23.0541 120.221 23.4243C120.381 23.5482 120.542 23.6721 120.707 23.7998C121.27 24.2718 121.776 24.7782 122.292 25.3007C122.535 25.5371 122.78 25.7731 123.024 26.0086C124.632 27.5713 126.103 29.163 127.452 30.9536C127.886 31.5464 127.886 31.5464 128.311 31.9458C128.572 32.2125 128.572 32.2125 128.572 32.6444C128.786 32.7157 129.001 32.787 129.222 32.8604C130.088 33.9959 130.088 33.9959 130.088 34.8043C130.302 34.8756 130.517 34.9469 130.738 35.0203C131.101 35.5316 131.43 36.0369 131.753 36.5728C131.847 36.7268 131.941 36.8808 132.039 37.0395C132.329 37.5169 132.617 37.9962 132.903 38.4762C132.992 38.6244 133.081 38.7726 133.173 38.9253C134.636 41.3705 134.636 41.3705 134.636 42.148C134.779 42.148 134.922 42.148 135.069 42.148C135.453 42.9081 135.836 43.6687 136.219 44.4294C136.328 44.6434 136.436 44.8574 136.547 45.0778C137.1 46.1776 137.625 47.2768 138.101 48.4118C138.272 48.7675 138.443 49.123 138.615 49.4782C139.253 50.8679 139.681 52.2982 140.115 53.7611C140.222 54.1017 140.338 54.4394 140.46 54.7749C141.219 56.8806 141.616 59.0452 142.04 61.2362C142.117 61.6297 142.195 62.0232 142.273 62.4166C142.473 63.4355 142.673 64.4545 142.865 65.4751C142.928 65.8 142.928 65.8 142.991 66.1315C143.106 66.9401 143.14 67.7454 143.166 68.5605C143.171 68.7287 143.177 68.8969 143.182 69.0702C143.194 69.424 143.204 69.7778 143.215 70.1316C143.231 70.6715 143.25 71.2112 143.27 71.751C143.281 72.096 143.291 72.4409 143.301 72.7858C143.31 73.0265 143.31 73.0265 143.32 73.272C143.342 74.1572 143.297 74.8436 142.865 75.6266C141.969 76.2746 141.969 76.2746 141.349 76.2746C141.349 76.4172 141.349 76.5597 141.349 76.7066C140.985 76.961 140.62 77.2148 140.253 77.4651C139.695 77.8924 139.281 78.3906 138.838 78.9315C138.263 79.6259 137.638 80.2349 136.923 80.7834C136.345 81.2616 135.894 81.7703 135.421 82.3485C134.968 82.8709 134.479 83.3492 133.986 83.8343C133.695 84.125 133.695 84.125 133.397 84.4215C132.8 85.0177 132.202 85.614 131.604 86.2102C131.412 86.4045 131.219 86.5989 131.021 86.7991C130.521 87.2901 130.521 87.2901 129.993 87.6951C129.401 88.1848 128.95 88.7157 128.461 89.3041C128.041 89.7764 127.556 90.145 127.056 90.53C126.985 90.6726 126.913 90.8151 126.84 90.962C126.697 90.962 126.554 90.962 126.406 90.962C126.406 91.1045 126.406 91.2471 126.406 91.394C126.092 91.7023 126.092 91.7023 125.655 92.0622C124.66 92.9058 123.748 93.8132 122.833 94.7418C121.963 95.6256 121.097 96.5006 120.153 97.3067C119.038 98.2636 118.018 99.3134 116.986 100.358C115.689 101.67 114.382 102.939 112.979 104.137C112.529 104.539 112.084 104.945 111.639 105.352C111.532 105.45 111.425 105.547 111.315 105.648C110.821 106.1 110.337 106.557 109.863 107.031C109.145 107.745 108.403 108.43 107.66 109.119C106.416 110.273 105.197 111.445 104.02 112.668C103.766 112.928 103.501 113.178 103.234 113.425C103.091 113.425 102.948 113.425 102.801 113.425C102.746 113.552 102.692 113.68 102.636 113.811C102.334 114.349 102.017 114.64 101.542 115.031C100.84 115.615 100.193 116.231 99.5524 116.881C97.4527 119.005 97.4527 119.005 96.5746 119.729C96.0713 120.146 95.6509 120.576 95.2346 121.079C94.4481 122.026 93.519 123.057 92.3804 123.566C91.9444 123.758 91.9444 123.758 91.7806 124.178C91.4289 124.876 90.8601 125.323 90.2807 125.831C90.0535 126.033 89.8265 126.235 89.5997 126.438C89.4887 126.537 89.3778 126.635 89.2634 126.737C88.7794 127.18 88.3218 127.649 87.8579 128.112C87.5806 128.354 87.301 128.592 87.0187 128.828C86.2354 129.5 85.5749 130.23 84.9224 131.027C84.8191 131.135 84.7158 131.242 84.6094 131.352C84.4665 131.352 84.3235 131.352 84.1763 131.352C84.0892 131.559 84.0892 131.559 84.0003 131.771C83.7432 132.216 83.7432 132.216 83.0935 132.432C83.0935 132.575 83.0935 132.717 83.0935 132.864C82.7678 133.184 82.7678 133.184 82.322 133.553C81.7296 134.053 81.1681 134.56 80.63 135.119C79.87 135.89 79.0422 136.554 78.1827 137.213C77.6903 137.586 77.6903 137.586 77.3587 137.965C76.8446 138.524 76.4049 138.692 75.6651 138.799C73.5649 138.882 73.5649 138.882 72.794 138.222C72.5322 137.922 72.5322 137.922 72.2652 137.616C72.0559 137.417 71.8438 137.222 71.6291 137.029C71.5202 136.93 71.4113 136.831 71.2991 136.729C71.1892 136.63 71.0792 136.53 70.9658 136.428C68.8767 134.54 68.8767 134.54 68.1776 133.634C67.6981 133.057 67.1881 132.608 66.6083 132.135C66.085 131.684 65.6075 131.193 65.1186 130.704C64.6897 130.304 64.2547 129.91 63.8192 129.516C63.0038 128.78 62.2102 128.03 61.437 127.248C61.3052 127.117 61.1735 126.986 61.0377 126.85C60.9193 126.732 60.801 126.614 60.679 126.492C60.4843 126.299 60.4843 126.299 60.2856 126.101C59.9861 125.802 59.6892 125.499 59.3932 125.197C58.7998 124.619 58.1823 124.08 57.5524 123.543C57.2288 123.254 56.9155 122.954 56.6091 122.648C56.1651 122.206 55.7172 121.781 55.2539 121.36C55.0539 121.178 55.0539 121.178 54.85 120.993C54.5726 120.741 54.2945 120.49 54.0158 120.24C53.818 120.06 53.818 120.06 53.6161 119.875C53.496 119.767 53.3759 119.658 53.2521 119.546C52.991 119.257 52.991 119.257 52.991 118.825C52.7766 118.754 52.5622 118.682 52.3413 118.609C51.9707 118.259 51.6109 117.897 51.2584 117.529C51.0858 117.357 50.9131 117.184 50.7352 117.007C46.7106 112.993 46.7106 112.993 46.2125 112.496C45.6131 111.899 45.0125 111.303 44.4114 110.707C43.2333 109.539 42.0562 108.37 40.8798 107.2C40.1692 106.494 39.4581 105.788 38.7462 105.082C38.0559 104.399 37.3668 103.714 36.6783 103.028C36.4157 102.767 36.1528 102.507 35.8895 102.246C35.523 101.884 35.1578 101.52 34.7929 101.156C34.6832 101.048 34.5736 100.94 34.4606 100.829C33.7167 100.083 33.7167 100.083 33.7167 99.6016C33.5981 99.554 33.4794 99.5064 33.3572 99.4573C32.6912 99.0792 32.2004 98.5671 31.6729 98.0222C31.5722 97.9199 31.4716 97.8175 31.3679 97.7121C31.0674 97.4066 30.7678 97.1002 30.4682 96.7937C29.366 95.674 28.2096 94.6128 27.0548 93.5475C26.1729 92.7264 25.3828 91.8936 24.621 90.962C24.3484 90.7067 24.0693 90.458 23.7818 90.2195C23.178 89.7043 22.5911 89.1801 22.0222 88.6266C21.8971 88.5049 21.7721 88.3832 21.6432 88.2579C21.3725 87.9381 21.3725 87.9381 21.3725 87.5061C21.1916 87.4861 21.1916 87.4861 21.0071 87.4656C20.0318 87.1239 19.4458 86.2393 18.8008 85.4677C18.2294 84.7898 17.6058 84.2298 16.9152 83.6748C16.6081 83.4023 16.6081 83.4023 16.3915 82.9703C16.0307 82.7541 15.6697 82.5382 15.3087 82.3223C14.5622 81.7012 13.8539 81.0397 13.1431 80.3784C12.9584 80.208 12.9584 80.208 12.77 80.0342C12.2842 79.5709 12.0609 79.3003 11.8437 78.6505C11.7007 78.6505 11.5578 78.6505 11.4105 78.6505C11.7248 77.9191 12.1309 77.465 12.7099 76.9226C12.927 76.7071 13.1437 76.4912 13.3596 76.2746C14.8756 77.7865 14.8756 77.7865 15.3738 78.3037C16.038 78.9431 16.7413 79.4968 17.4743 80.0544C18.4051 80.7626 19.2541 81.4834 20.0731 82.3223C20.3592 82.5774 20.6477 82.8297 20.9394 83.0783C21.784 83.8099 22.6 84.5372 23.281 85.4272C23.9384 86.2141 24.7069 86.8433 25.4872 87.5061C25.8494 87.8152 26.2103 88.1257 26.5701 88.4376C26.818 88.6502 26.818 88.6502 27.0709 88.867C27.4363 89.2341 27.4363 89.2341 27.4363 89.666C27.6265 89.7499 27.6265 89.7499 27.8206 89.8355C28.3391 90.1179 28.6731 90.4214 29.0842 90.843C29.23 90.9907 29.3757 91.1384 29.5258 91.2906C29.676 91.445 29.8262 91.5994 29.981 91.7584C30.995 92.7958 32.0166 93.7958 33.1271 94.731C33.4847 95.052 33.7815 95.3805 34.0822 95.7543C34.5699 96.3459 35.0613 96.7585 35.6658 97.2257C36.2855 97.8121 36.8514 98.4222 37.3983 99.0751C37.925 99.6971 38.4823 100.184 39.1308 100.682C39.737 101.255 40.2907 101.849 40.8227 102.49C41.4225 103.199 42.0844 103.788 42.7904 104.389C43.5554 105.055 44.3133 105.746 44.9781 106.513C44.9781 106.656 44.9781 106.798 44.9781 106.945C45.1535 107.018 45.1535 107.018 45.3325 107.092C46.0062 107.468 46.5421 107.963 47.1031 108.484C47.2188 108.591 47.3344 108.697 47.4536 108.807C48.2196 109.521 48.9149 110.268 49.5877 111.07C50.1617 111.705 50.8138 112.245 51.4615 112.804C51.841 113.148 52.1594 113.484 52.4766 113.884C52.884 114.376 53.2359 114.727 53.7219 115.126C54.2584 115.57 54.7116 116.022 55.1566 116.557C56.1735 117.754 57.3523 118.786 58.5083 119.847C59.1399 120.427 59.7479 121.026 60.3542 121.633C60.8013 122.056 61.2541 122.472 61.7077 122.888C61.8308 123.001 61.9539 123.115 62.0808 123.231C62.9393 124.019 63.8068 124.795 64.6855 125.56C65.2088 126.034 65.7026 126.533 66.2014 127.032C66.4089 127.24 66.6164 127.447 66.824 127.653C71.2095 132.027 71.2095 132.027 71.5262 132.343C71.8249 132.641 72.1237 132.939 72.4226 133.236C72.7603 133.574 73.0957 133.913 73.4293 134.255C74.0972 134.905 74.7987 135.506 75.5137 136.104C75.6058 135.902 75.6058 135.902 75.6998 135.697C76.029 135.088 76.4873 134.806 77.0296 134.376C77.2372 134.142 77.4399 133.903 77.6387 133.661C78.3663 132.791 79.1981 132.084 80.0616 131.352C81.7378 129.918 83.287 128.367 84.8364 126.798C85.7481 125.879 86.6752 125.001 87.6586 124.159C88.3719 123.53 89.0324 122.85 89.6987 122.173C90.6743 121.189 91.6513 120.227 92.7137 119.335C93.055 119.041 93.3661 118.731 93.6781 118.406C94.1383 117.961 94.1383 117.961 94.5714 117.961C94.6429 117.747 94.7143 117.533 94.788 117.313C95.0967 117.01 95.0967 117.01 95.5053 116.678C96.32 115.991 97.0721 115.262 97.8199 114.505C98.6612 113.655 99.5153 112.844 100.43 112.072C101.12 111.459 101.754 110.791 102.393 110.125C102.801 109.753 102.801 109.753 103.234 109.753C103.292 109.615 103.35 109.477 103.41 109.335C103.667 108.889 103.667 108.889 104.317 108.673C104.388 108.459 104.46 108.246 104.533 108.025C104.676 108.025 104.819 108.025 104.966 108.025C105.025 107.887 105.083 107.749 105.142 107.607C105.4 107.161 105.4 107.161 106.049 106.945C106.049 106.803 106.049 106.66 106.049 106.513C106.39 106.171 106.39 106.171 106.848 105.784C107.007 105.649 107.166 105.513 107.33 105.373C107.659 105.102 107.996 104.84 108.337 104.583C108.987 104.035 109.505 103.412 110.045 102.757C110.156 102.642 110.266 102.528 110.381 102.41C110.524 102.41 110.666 102.41 110.814 102.41C110.871 102.282 110.929 102.154 110.988 102.022C111.68 100.747 113.009 99.8068 114.096 98.8727C114.43 98.5791 114.749 98.2686 115.064 97.9547C115.578 97.4417 115.578 97.4417 116.214 96.9287C116.866 96.4027 117.376 95.7964 117.896 95.1426C117.989 95.046 118.081 94.9494 118.177 94.8498C118.32 94.8498 118.463 94.8498 118.61 94.8498C118.667 94.7217 118.724 94.5936 118.782 94.4616C119.056 93.9623 119.33 93.6669 119.75 93.2856C119.89 93.1578 120.029 93.03 120.173 92.8983C120.318 92.7672 120.463 92.636 120.613 92.5009C120.899 92.2407 121.184 91.9803 121.469 91.7196C121.608 91.5939 121.746 91.4681 121.889 91.3385C122.278 90.9752 122.649 90.5999 123.019 90.2178C123.591 89.666 123.591 89.666 124.024 89.666C124.083 89.5364 124.141 89.4067 124.201 89.2731C124.457 88.8021 124.692 88.533 125.088 88.1777C125.216 88.0618 125.343 87.9458 125.475 87.8264C125.612 87.7029 125.75 87.5794 125.892 87.4521C127.285 86.1824 128.63 84.8743 129.951 83.5308C130.773 82.7003 131.618 81.9151 132.508 81.1575C132.91 80.8047 133.287 80.4358 133.661 80.0544C134.322 79.3833 135.019 78.7685 135.735 78.1561C136.136 77.8003 136.51 77.4294 136.883 77.0441C137.451 76.4906 137.451 76.4906 137.884 76.4906C137.956 76.2768 138.027 76.0629 138.101 75.8426C138.424 75.5697 138.747 75.2974 139.077 75.0335C139.827 74.4048 140.13 73.7104 140.483 72.8187C140.626 72.6762 140.769 72.5336 140.916 72.3868C140.702 72.3155 140.487 72.2442 140.267 72.1708C140.247 71.9797 140.247 71.9797 140.228 71.7848C139.254 62.4189 137.191 53.6041 132.903 45.1719C132.815 44.9953 132.726 44.8187 132.635 44.6368C130.533 40.4557 127.884 36.6703 124.89 33.0764C124.547 32.6582 124.204 32.2397 123.862 31.821C123.619 31.5265 123.619 31.5265 123.372 31.2262C123.125 30.925 122.88 30.6226 122.639 30.3166C122.049 29.5743 121.39 28.9771 120.67 28.3668C120.233 27.986 119.808 27.5989 119.386 27.2025C119.188 27.0167 119.188 27.0167 118.986 26.8271C118.723 26.5796 118.46 26.3314 118.199 26.0824C117.441 25.3711 116.675 24.782 115.795 24.2208C115.494 23.9903 115.196 23.7564 114.901 23.5188C113.551 22.4596 112.126 21.4742 110.628 20.6333C110.398 20.4846 110.398 20.4846 110.164 20.333C110.164 20.1904 110.164 20.0478 110.164 19.901C109.983 19.8481 109.801 19.7952 109.614 19.7407C108.775 19.4366 108.034 19.0262 107.268 18.578C105.015 17.2895 102.721 16.0525 100.289 15.1323C99.698 14.906 99.1189 14.6563 98.5372 14.4067C93.9624 12.5218 89.0682 11.5138 84.1763 10.8294C83.8304 10.7755 83.8304 10.7755 83.4776 10.7205C80.8137 10.339 78.1614 10.293 75.4731 10.2894C75.2312 10.2889 74.9893 10.2884 74.7401 10.2878C70.2699 10.2917 66.0122 10.7178 61.6536 11.6933C61.5109 11.7251 61.3682 11.7569 61.2213 11.7896C58.6335 12.3716 56.1315 13.0495 53.6629 14.0216C53.0669 14.2554 52.4687 14.4772 51.8658 14.6927C49.3843 15.5911 47.0819 16.6664 44.7706 17.9351C44.1679 18.2594 43.552 18.5536 42.9342 18.848C41.5851 19.5152 40.3613 20.3344 39.1308 21.1969C38.9424 21.3275 38.7539 21.4581 38.5598 21.5926C37.1489 22.5918 35.8121 23.6722 34.4897 24.7841C33.7571 25.3909 33.1278 25.8827 32.2008 26.1647C32.2008 26.3073 32.2008 26.4498 32.2008 26.5967C31.8364 26.8511 31.4716 27.1049 31.1044 27.3552C30.5452 27.7836 30.1303 28.2835 29.6857 28.8258C29.1378 29.4877 28.5109 30.0725 27.8855 30.6609C26.5341 31.9608 25.391 33.3745 24.2574 34.8614C23.992 35.2092 23.7237 35.5549 23.4553 35.9003C22.2305 37.4943 21.137 39.1495 20.0731 40.8521C19.9576 41.0336 19.842 41.2152 19.7229 41.4022C18.7102 43.0291 17.8784 44.7469 17.0412 46.4679C16.927 46.6995 16.8129 46.9312 16.6952 47.1698C13.0793 54.7095 11.335 63.4531 11.0155 71.7666C10.9489 72.8514 10.9489 72.8514 10.7608 73.2507C10.2414 73.5241 10.2414 73.5241 9.59681 73.7367C9.2794 73.8453 9.2794 73.8453 8.95557 73.9561C8.37863 74.1147 8.37863 74.1147 7.72894 74.1147C7.56547 69.6555 7.95448 65.5426 8.81176 61.1552C8.86156 60.8914 8.91135 60.6275 8.96266 60.3556C9.64457 56.7736 10.5762 53.3437 11.8437 49.9237C11.9377 49.67 11.9377 49.67 12.0336 49.4112C12.5908 47.928 13.212 46.542 14.0093 45.1719C14.1674 44.8086 14.3253 44.4452 14.4771 44.0793C15.9222 40.7476 17.906 37.7064 20.0731 34.8043C20.2297 34.5925 20.3863 34.3806 20.5477 34.1623C22.273 31.8431 24.0604 29.4847 26.1369 27.4607C26.2799 27.4607 26.4228 27.4607 26.5701 27.4607C26.6773 27.1399 26.6773 27.1399 26.7866 26.8127C27.0954 26.5022 27.0954 26.5022 27.504 26.1647C28.2581 25.5295 28.9793 24.8699 29.6967 24.1938C31.3005 22.7099 33.04 21.41 34.7995 20.117C34.9507 20.0052 35.1018 19.8935 35.2575 19.7783C38.4183 17.4529 41.7653 15.5027 45.297 13.7925C45.9552 13.4726 46.6034 13.139 47.252 12.8003C48.1395 12.3547 48.9865 12.1069 49.9591 11.9093C49.9591 11.7668 49.9591 11.6242 49.9591 11.4773C67.6327 5.86059 86.1432 4.83994 103.353 12.7488Z" fill="#1BA279"/>
<path d="M75.2973 16.229C75.4402 16.229 75.5832 16.229 75.7304 16.229C75.7304 19.3652 75.7304 22.5014 75.7304 25.7326C75.9448 25.7326 76.1592 25.7326 76.3801 25.7326C76.3801 25.8752 76.3801 26.0177 76.3801 26.1646C76.5231 26.1646 76.666 26.1646 76.8133 26.1646C76.8133 26.3071 76.8133 26.4497 76.8133 26.5966C76.9874 26.6701 76.9874 26.6701 77.1652 26.7451C77.8495 27.1223 78.3872 27.5988 78.9789 28.1085C78.9789 27.966 78.9789 27.8234 78.9789 27.6765C79.1218 27.6765 79.2648 27.6765 79.412 27.6765C79.5058 27.9171 79.5996 28.1576 79.6963 28.4055C79.9966 29.2263 79.9966 29.2263 80.7114 29.6204C80.7114 29.763 80.7114 29.9056 80.7114 30.0524C80.8376 30.105 80.9638 30.1577 81.0938 30.2119C81.662 30.5319 81.9728 30.8896 82.3898 31.3889C83.2091 32.3344 84.086 33.1371 85.0427 33.9403C85.405 34.2492 85.766 34.5597 86.1255 34.8717C86.2908 35.0134 86.4561 35.1552 86.6263 35.3012C86.9918 35.6682 86.9918 35.6682 86.9918 36.1002C87.1727 36.1804 87.1727 36.1804 87.3572 36.2622C87.9499 36.5817 88.4377 36.95 88.9409 37.3961C88.9409 37.5387 88.9409 37.6812 88.9409 37.8281C89.0838 37.8281 89.2267 37.8281 89.374 37.8281C89.6689 38.1831 89.9565 38.5442 90.2403 38.9081C90.7502 39.4427 91.2491 39.9317 91.8374 40.3795C92.3452 40.8015 92.7271 41.214 93.1504 41.7159C93.6204 42.269 94.05 42.7073 94.6663 43.0929C94.8494 43.2087 95.0326 43.3245 95.2213 43.4439C95.2213 43.5864 95.2213 43.729 95.2213 43.8758C95.3452 43.9265 95.4692 43.9772 95.5969 44.0294C96.2013 44.3724 96.5546 44.7815 97.0079 45.3068C97.7741 46.1792 98.5668 47.0045 99.3969 47.816C99.7691 48.1957 99.7691 48.1957 100.27 48.8301C100.616 49.3334 100.616 49.3334 101.285 49.4916C101.619 49.8451 101.619 49.8451 101.975 50.2881C102.645 51.0828 103.349 51.6688 104.208 52.2506C104.315 52.338 104.423 52.4254 104.534 52.5155C104.534 52.658 104.534 52.8006 104.534 52.9475C104.676 52.9475 104.819 52.9475 104.967 52.9475C104.967 53.09 104.967 53.2326 104.967 53.3794C105.154 53.4596 105.154 53.4596 105.346 53.5414C105.904 53.851 106.279 54.1968 106.699 54.6754C106.699 54.8179 106.699 54.9605 106.699 55.1074C106.887 55.1876 106.887 55.1876 107.078 55.2694C107.637 55.5789 108.012 55.9247 108.432 56.4033C108.432 56.5459 108.432 56.6884 108.432 56.8353C108.619 56.9155 108.619 56.9155 108.811 56.9973C109.369 57.3068 109.744 57.6527 110.164 58.1312C110.164 58.2738 110.164 58.4164 110.164 58.5632C110.334 58.63 110.504 58.6969 110.679 58.7657C111.247 58.9952 111.247 58.9952 111.68 59.2112C111.816 59.7647 111.816 59.7647 111.897 60.2912C112.183 60.2912 112.468 60.2912 112.763 60.2912C113.331 60.8176 113.331 60.8176 113.846 61.3711C113.989 61.4424 114.132 61.5137 114.279 61.5871C114.279 61.8009 114.279 62.0148 114.279 62.2351C114.422 62.2351 114.565 62.2351 114.712 62.2351C114.712 62.3776 114.712 62.5202 114.712 62.6671C114.926 62.7383 115.141 62.8096 115.362 62.883C115.362 63.0256 115.362 63.1682 115.362 63.315C115.576 63.3863 115.791 63.4576 116.011 63.531C116.011 63.6736 116.011 63.8161 116.011 63.963C116.154 63.963 116.297 63.963 116.445 63.963C116.663 64.3221 116.879 64.6822 117.094 65.043C117.309 65.1855 117.523 65.3281 117.744 65.4749C117.744 65.6175 117.744 65.76 117.744 65.9069C117.905 65.9604 118.066 66.0138 118.231 66.0689C118.896 66.3703 119.192 66.6748 119.693 67.2029C119.985 67.4516 120.279 67.699 120.573 67.9453C121.237 68.5187 121.637 69.0341 122.075 69.7948C122.745 70.5381 123.464 71.2034 124.241 71.8332C124.907 72.4005 125.453 73.0023 126.015 73.6691C126.484 74.2022 126.985 74.6946 127.489 75.1945C127.914 75.6309 128.332 76.0731 128.748 76.5175C128.857 76.6308 128.966 76.7441 129.078 76.8609C129.872 77.7119 129.872 77.7119 129.872 78.4344C125.274 78.3437 125.274 78.3437 123.956 77.5941C123.483 77.0979 123.483 77.0979 123.138 76.6162C122.768 76.1166 122.444 75.8015 121.973 75.4065C120.844 74.4338 119.802 73.3821 118.752 72.3259C118.541 72.1137 118.329 71.9016 118.117 71.6895C117.338 70.9099 116.56 70.1291 115.783 69.3483C115.123 68.6859 114.462 68.024 113.802 67.3626C113.496 67.056 113.19 66.7487 112.885 66.4414C111.907 65.4624 110.919 64.5126 109.865 63.6153C109.425 63.2379 109.014 62.8371 108.608 62.4241C108.475 62.2899 108.342 62.1557 108.206 62.0174C108.066 61.8754 107.926 61.7334 107.782 61.5871C107.61 61.4159 107.439 61.2446 107.262 61.0682C106.882 60.6892 106.503 60.309 106.126 59.9275C104.691 58.4799 104.691 58.4799 103.155 57.1407C102.65 56.7047 102.187 56.2293 101.718 55.7553C101.078 55.1112 100.437 54.468 99.7962 53.8249C99.6278 53.6552 99.4595 53.4855 99.2861 53.3107C98.4265 52.4498 97.5604 51.6168 96.6231 50.8403C95.9541 50.2768 95.3596 49.6723 94.8287 48.9786C94.3064 48.3536 93.734 47.8627 93.1148 47.3359C92.3889 46.6927 91.716 46.0004 91.0388 45.3068C90.5808 44.8606 90.1183 44.443 89.6337 44.0269C88.6937 43.2144 87.822 42.3446 86.9512 41.4594C86.0604 40.5543 85.1877 39.6814 84.1765 38.9081C83.6927 38.4382 83.2209 37.9582 82.7493 37.4763C81.945 36.6632 81.1121 35.9015 80.2453 35.1552C79.727 34.7006 79.2437 34.2174 78.7623 33.7243C78.5613 33.5327 78.3603 33.3412 78.1532 33.1438C77.6795 32.6443 77.6795 32.6443 77.6795 32.2123C77.55 32.1589 77.4204 32.1054 77.287 32.0503C76.7512 31.745 76.5028 31.4238 76.1636 30.9164C75.4394 31.0368 74.857 31.2084 74.2145 31.5644C74.2145 31.7069 74.2145 31.8495 74.2145 31.9963C74.0715 31.9963 73.9286 31.9963 73.7813 31.9963C73.7317 32.1188 73.682 32.2414 73.6308 32.3676C73.2741 32.9895 72.8347 33.3637 72.2925 33.8323C71.7451 34.3081 71.2108 34.775 70.7071 35.297C70.3163 35.6682 70.3163 35.6682 69.8832 35.6682C69.8095 35.8503 69.8095 35.8503 69.7343 36.036C69.3701 36.6717 68.9149 37.0722 68.3672 37.5581C68.1752 37.7307 67.9831 37.9034 67.7852 38.0812C67.2844 38.4761 67.2844 38.4761 66.8513 38.4761C66.7798 38.6899 66.7083 38.9037 66.6347 39.124C66.4918 39.124 66.3488 39.124 66.2016 39.124C66.2016 39.2666 66.2016 39.4092 66.2016 39.556C65.8905 39.862 65.8905 39.862 65.456 40.2199C64.4316 41.0893 63.4853 42.0217 62.5377 42.9731C62.3601 43.1505 62.1825 43.328 61.9994 43.5109C61.437 44.073 60.8754 44.6359 60.3137 45.1988C59.9344 45.5782 59.555 45.9576 59.1755 46.337C58.3305 47.1819 57.486 48.0274 56.6417 48.8731C56.3009 49.2142 55.9598 49.5549 55.6182 49.8953C55.2745 50.2382 54.9323 50.5825 54.5908 50.9276C53.3361 52.1917 52.0664 53.4185 50.6774 54.537C50.1366 54.9729 49.6915 55.3872 49.2554 55.9308C49.1303 56.0868 49.0053 56.2427 48.8764 56.4033C48.7335 56.4033 48.5905 56.4033 48.4433 56.4033C48.4433 56.5459 48.4433 56.6884 48.4433 56.8353C47.9379 57.3825 47.424 57.8665 46.8326 58.3202C46.3737 58.6998 46.0433 59.0411 45.6685 59.4947C45.2244 60.0276 44.7713 60.4848 44.238 60.9282C42.9364 62.0491 41.7464 63.2835 40.5387 64.503C36.5904 68.4895 36.5904 68.4895 35.6325 68.9287C35.1567 69.1296 35.1567 69.1296 35.0163 69.7948C34.7227 70.0825 34.7227 70.0825 34.326 70.4022C33.4348 71.1524 32.6239 71.9622 31.8084 72.7916C30.721 73.8927 29.6087 74.8895 28.3933 75.8493C27.0935 76.8871 27.0935 76.8871 26.1371 78.2184C25.1626 78.231 24.1881 78.2387 23.2135 78.2454C22.9388 78.249 22.6641 78.2526 22.3811 78.2564C18.9306 78.2743 18.9306 78.2743 17.7858 77.3274C17.6116 77.1225 17.4374 76.9176 17.2579 76.7065C17.1226 76.5664 16.9872 76.4264 16.8477 76.2821C16.7061 76.1326 16.5646 75.983 16.4188 75.829C16.2853 75.6884 16.1519 75.5478 16.0144 75.4029C15.742 74.9785 15.742 74.9785 15.7572 74.5466C16.0118 74.0003 16.3329 73.6786 16.7707 73.2641C16.9273 73.114 17.0839 72.964 17.2453 72.8093C17.3924 72.6699 17.5395 72.5304 17.6911 72.3866C17.8831 72.1906 18.0752 71.9946 18.2731 71.7927C18.7739 71.3067 18.7739 71.3067 19.3018 70.9017C19.7607 70.5222 20.0911 70.1808 20.4658 69.7273C21.0603 69.0149 21.7125 68.429 22.4208 67.8314C23.1286 67.2072 23.7766 66.527 24.43 65.847C24.8377 65.4749 24.8377 65.4749 25.2708 65.4749C25.3244 65.3502 25.378 65.2255 25.4333 65.097C25.7436 64.5398 26.0904 64.1658 26.5702 63.747C26.7132 63.747 26.8561 63.747 27.0034 63.747C27.057 63.6223 27.1106 63.4975 27.1658 63.369C27.4761 62.8119 27.8229 62.4378 28.3027 62.0191C28.4457 62.0191 28.5886 62.0191 28.7359 62.0191C28.7359 61.8765 28.7359 61.734 28.7359 61.5871C29.0007 61.3281 29.0007 61.3281 29.3991 61.0066C30.3105 60.2337 31.1553 59.4089 31.9979 58.5632C32.1364 58.4244 32.2749 58.2855 32.4176 58.1425C32.8511 57.7072 33.2841 57.2713 33.7169 56.8353C36.9638 53.5641 36.9638 53.5641 38.2785 52.4546C39.3615 51.4963 40.3535 50.435 41.3652 49.4025C41.6657 49.0964 41.9675 48.7915 42.2695 48.4867C42.5353 48.2161 42.5353 48.2161 42.8066 47.9401C43.2457 47.5477 43.2457 47.5477 43.6788 47.5477C43.6788 47.4051 43.6788 47.2626 43.6788 47.1157C43.9724 46.828 43.9724 46.828 44.3691 46.5082C45.2051 45.8162 45.9599 45.0684 46.7141 44.2884C46.8694 44.13 47.0246 43.9716 47.1845 43.8083C47.3305 43.6577 47.4765 43.5071 47.6269 43.3519C48.0101 43.0119 48.0101 43.0119 48.4433 43.0119C48.5147 42.798 48.5862 42.5842 48.6598 42.3639C49.0295 42.0003 49.0295 42.0003 49.4855 41.6214C49.9836 41.2019 50.4511 40.7919 50.9067 40.3255C51.2586 39.988 51.2586 39.988 51.6917 39.988C51.7633 39.8105 51.7633 39.8105 51.8364 39.6294C52.2155 38.9652 52.729 38.4757 53.2754 37.9496C53.4293 37.799 53.4293 37.799 53.5863 37.6454C53.8926 37.3457 54.1998 37.0469 54.5071 36.7481C55.2387 36.0213 55.9658 35.2901 56.692 34.5579C57.2684 33.9772 57.846 33.3977 58.4236 32.8183C58.7287 32.5118 59.0335 32.2049 59.3379 31.8976C59.778 31.4534 60.2196 31.0105 60.6614 30.5679C60.7979 30.4296 60.9344 30.2912 61.075 30.1487C61.4042 29.8203 61.7445 29.5032 62.0868 29.1885C62.2298 29.1885 62.3727 29.1885 62.52 29.1885C62.52 29.0459 62.52 28.9034 62.52 28.7565C62.8135 28.4688 62.8135 28.4688 63.2103 28.149C64.2177 27.313 65.0975 26.4071 65.9579 25.4221C66.4842 24.8254 67.0075 24.2799 67.6228 23.7752C68.1423 23.3482 68.583 22.9114 69.0169 22.3982C70.6909 20.4372 72.5812 18.5774 74.5571 16.92C74.8947 16.6425 74.8947 16.6425 75.2973 16.229Z" fill="#1BA279"/>
<path d="M141.417 72.9133C141.999 73.0348 141.999 73.0348 142.216 73.2508C142.231 73.687 142.234 74.1238 142.229 74.5603C142.227 74.7989 142.225 75.0375 142.223 75.2833C142.22 75.5602 142.22 75.5602 142.216 75.8427C141.93 75.9853 141.644 76.1278 141.349 76.2747C141.349 76.4172 141.349 76.5598 141.349 76.7067C140.985 76.9611 140.62 77.2149 140.253 77.4652C139.695 77.8925 139.281 78.3907 138.838 78.9315C138.263 79.626 137.638 80.235 136.923 80.7835C136.345 81.2617 135.895 81.7704 135.421 82.3486C134.968 82.871 134.479 83.3493 133.986 83.8344C133.792 84.0282 133.598 84.2219 133.397 84.4216C132.8 85.0178 132.202 85.614 131.604 86.2103C131.412 86.4046 131.219 86.599 131.021 86.7992C130.521 87.2902 130.521 87.2902 129.993 87.6952C129.401 88.1848 128.95 88.7158 128.461 89.3042C128.041 89.7765 127.557 90.1451 127.056 90.5301C126.985 90.6726 126.913 90.8152 126.84 90.9621C126.697 90.9621 126.554 90.9621 126.407 90.9621C126.407 91.1046 126.407 91.2472 126.407 91.3941C126.092 91.7024 126.092 91.7024 125.655 92.0623C124.661 92.9059 123.748 93.8133 122.833 94.7419C121.963 95.6257 121.097 96.5006 120.153 97.3068C119.038 98.2637 118.018 99.3135 116.986 100.358C115.689 101.67 114.382 102.939 112.979 104.138C112.529 104.539 112.084 104.945 111.64 105.352C111.532 105.45 111.425 105.547 111.315 105.648C110.821 106.1 110.337 106.557 109.863 107.031C109.146 107.745 108.403 108.431 107.66 109.119C106.416 110.273 105.197 111.445 104.02 112.668C103.766 112.928 103.501 113.178 103.234 113.425C103.091 113.425 102.948 113.425 102.801 113.425C102.747 113.552 102.692 113.68 102.636 113.811C102.334 114.349 102.017 114.64 101.542 115.032C100.84 115.615 100.194 116.231 99.5525 116.881C97.4528 119.005 97.4528 119.005 96.5747 119.729C96.0714 120.146 95.651 120.576 95.2347 121.079C94.4482 122.026 93.5191 123.057 92.3805 123.566C91.9445 123.758 91.9445 123.758 91.7807 124.178C91.429 124.876 90.8602 125.323 90.2808 125.831C90.0536 126.033 89.8266 126.235 89.5998 126.438C89.4334 126.586 89.4334 126.586 89.2635 126.737C88.7795 127.18 88.3219 127.649 87.858 128.113C87.5807 128.354 87.3011 128.593 87.0188 128.828C86.2355 129.5 85.575 130.23 84.9225 131.028C84.8192 131.135 84.7159 131.242 84.6095 131.352C84.4666 131.352 84.3237 131.352 84.1764 131.352C84.1183 131.49 84.0603 131.629 84.0004 131.771C83.7433 132.216 83.7433 132.216 83.0936 132.432C83.0936 132.575 83.0936 132.717 83.0936 132.864C82.7679 133.184 82.7679 133.184 82.3221 133.553C81.7297 134.054 81.1682 134.56 80.6301 135.119C79.8702 135.891 79.0423 136.554 78.1828 137.213C77.6904 137.586 77.6904 137.586 77.3588 137.965C76.8447 138.524 76.405 138.692 75.6652 138.799C73.565 138.882 73.565 138.882 72.7941 138.222C72.5323 137.922 72.5323 137.922 72.2653 137.616C72.056 137.417 71.8439 137.222 71.6292 137.029C71.5203 136.93 71.4114 136.831 71.2993 136.729C71.1893 136.63 71.0793 136.531 70.9659 136.428C68.8768 134.54 68.8768 134.54 68.1777 133.634C67.6982 133.057 67.1882 132.608 66.6084 132.135C66.0851 131.684 65.6076 131.193 65.1187 130.704C64.6898 130.304 64.2548 129.91 63.8193 129.516C63.004 128.78 62.2103 128.03 61.4371 127.249C61.3053 127.117 61.1736 126.986 61.0378 126.85C60.9194 126.732 60.8011 126.614 60.6791 126.493C60.5493 126.363 60.4195 126.234 60.2858 126.101C59.9862 125.802 59.6894 125.499 59.3933 125.197C58.7999 124.619 58.1824 124.08 57.5525 123.543C57.2289 123.254 56.9156 122.954 56.6092 122.648C56.1652 122.206 55.7173 121.781 55.254 121.36C55.1207 121.239 54.9874 121.118 54.8501 120.993C54.5727 120.741 54.2946 120.49 54.0159 120.24C53.884 120.12 53.7521 119.999 53.6162 119.875C53.4961 119.767 53.376 119.658 53.2522 119.547C52.9911 119.257 52.9911 119.257 52.9911 118.825C52.7767 118.754 52.5623 118.682 52.3414 118.609C51.9708 118.259 51.611 117.897 51.2586 117.529C51.0859 117.357 50.9132 117.185 50.7353 117.007C46.7107 112.993 46.7107 112.993 46.2126 112.496C45.6132 111.899 45.0126 111.303 44.4115 110.707C43.2334 109.539 42.0563 108.37 40.8799 107.2C40.1693 106.494 39.4582 105.788 38.7463 105.082C38.056 104.399 37.3669 103.714 36.6784 103.028C36.4158 102.767 36.1529 102.507 35.8896 102.246C35.5231 101.884 35.1579 101.52 34.793 101.156C34.6833 101.048 34.5737 100.94 34.4607 100.829C33.7168 100.083 33.7168 100.083 33.7168 99.6017C33.5388 99.5303 33.5388 99.5303 33.3573 99.4574C32.6913 99.0793 32.2005 98.5672 31.673 98.0223C31.5723 97.92 31.4717 97.8176 31.368 97.7122C31.0675 97.4067 30.7679 97.1002 30.4683 96.7938C29.3661 95.6741 28.2098 94.6129 27.0549 93.5476C26.173 92.7265 25.3829 91.8937 24.6211 90.9621C24.3485 90.7068 24.0694 90.4581 23.7819 90.2196C23.1781 89.7044 22.5912 89.1802 22.0223 88.6267C21.8973 88.505 21.7722 88.3833 21.6433 88.258C21.3726 87.9382 21.3726 87.9382 21.3726 87.5062C21.252 87.4929 21.1314 87.4795 21.0072 87.4657C20.0319 87.124 19.4459 86.2394 18.8009 85.4678C18.2295 84.7898 17.6059 84.2299 16.9153 83.6749C16.6082 83.4024 16.6082 83.4024 16.3916 82.9704C16.0308 82.7542 15.6698 82.5383 15.3088 82.3224C14.5623 81.7012 13.854 81.0398 13.1432 80.3785C13.0201 80.2649 12.8969 80.1513 12.7701 80.0343C12.2843 79.571 12.061 79.3004 11.8438 78.6506C11.7008 78.6506 11.5579 78.6506 11.4106 78.6506C11.7249 77.9192 12.131 77.4651 12.71 76.9227C12.9271 76.7072 13.1438 76.4913 13.3597 76.2747C14.8757 77.7866 14.8757 77.7866 15.3739 78.3038C16.0381 78.9432 16.7414 79.4968 17.4745 80.0545C18.4052 80.7627 19.2542 81.4835 20.0732 82.3224C20.3593 82.5775 20.6478 82.8298 20.9395 83.0784C21.7841 83.81 22.6001 84.5373 23.2811 85.4273C23.9386 86.2142 24.707 86.8434 25.4874 87.5062C25.8495 87.8153 26.2104 88.1258 26.5702 88.4377C26.7354 88.5794 26.9007 88.7211 27.071 88.8671C27.4364 89.2341 27.4364 89.2341 27.4364 89.6661C27.5632 89.722 27.6901 89.7779 27.8207 89.8356C28.3393 90.118 28.6732 90.4215 29.0844 90.8431C29.3029 91.0647 29.3029 91.0647 29.5259 91.2907C29.6761 91.4451 29.8263 91.5995 29.9811 91.7585C30.9951 92.7959 32.0167 93.7959 33.1272 94.731C33.4849 95.0521 33.7816 95.3806 34.0823 95.7544C34.57 96.346 35.0614 96.7586 35.6659 97.2258C36.2856 97.8122 36.8515 98.4223 37.3984 99.0752C37.9251 99.6972 38.4824 100.184 39.1309 100.682C39.7371 101.255 40.2908 101.85 40.8228 102.491C41.4226 103.199 42.0845 103.788 42.7905 104.389C43.5555 105.055 44.3134 105.746 44.9782 106.513C44.9782 106.656 44.9782 106.799 44.9782 106.945C45.1536 107.018 45.1536 107.018 45.3326 107.092C46.0064 107.468 46.5422 107.963 47.1032 108.484C47.2189 108.591 47.3345 108.697 47.4537 108.807C48.2197 109.521 48.915 110.268 49.5878 111.07C50.1618 111.705 50.8139 112.246 51.4616 112.804C51.8411 113.148 52.1595 113.484 52.4767 113.884C52.8841 114.376 53.236 114.727 53.722 115.126C54.2585 115.57 54.7117 116.022 55.1567 116.557C56.1736 117.754 57.3524 118.786 58.5084 119.847C59.14 120.427 59.7481 121.026 60.3543 121.633C60.8014 122.056 61.2542 122.472 61.7078 122.888C61.8925 123.058 61.8925 123.058 62.0809 123.231C62.9394 124.019 63.8069 124.795 64.6856 125.56C65.2089 126.034 65.7027 126.533 66.2015 127.033C66.409 127.24 66.6166 127.447 66.8241 127.654C71.2096 132.027 71.2096 132.027 71.5263 132.343C71.825 132.641 72.1238 132.939 72.4227 133.236C72.7604 133.574 73.0958 133.913 73.4294 134.255C74.0973 134.905 74.7989 135.506 75.5138 136.104C75.5752 135.97 75.6366 135.835 75.6999 135.697C76.0291 135.088 76.4874 134.806 77.0298 134.376C77.2373 134.142 77.4401 133.903 77.6388 133.661C78.3664 132.791 79.1982 132.084 80.0617 131.352C81.7379 129.918 83.2871 128.367 84.8365 126.798C85.7482 125.879 86.6753 125.002 87.6587 124.159C88.372 123.53 89.0325 122.85 89.6988 122.173C90.6744 121.189 91.6514 120.227 92.7138 119.335C93.0551 119.041 93.3662 118.731 93.6782 118.406C94.1384 117.961 94.1384 117.961 94.5715 117.961C94.643 117.747 94.7144 117.533 94.7881 117.313C95.0968 117.01 95.0968 117.01 95.5054 116.678C96.3201 115.991 97.0722 115.262 97.82 114.505C98.6613 113.655 99.5154 112.844 100.43 112.072C101.12 111.459 101.754 110.791 102.393 110.125C102.801 109.753 102.801 109.753 103.234 109.753C103.292 109.615 103.35 109.477 103.41 109.335C103.667 108.889 103.667 108.889 104.317 108.673C104.388 108.459 104.46 108.246 104.533 108.025C104.676 108.025 104.819 108.025 104.967 108.025C105.025 107.887 105.083 107.749 105.143 107.607C105.4 107.161 105.4 107.161 106.049 106.945C106.049 106.803 106.049 106.66 106.049 106.513C106.39 106.171 106.39 106.171 106.848 105.784C107.007 105.649 107.166 105.513 107.33 105.374C107.66 105.102 107.996 104.84 108.337 104.583C108.987 104.035 109.505 103.412 110.045 102.757C110.156 102.642 110.267 102.528 110.381 102.41C110.524 102.41 110.667 102.41 110.814 102.41C110.871 102.282 110.929 102.154 110.988 102.022C111.68 100.747 113.009 99.8069 114.096 98.8727C114.43 98.5792 114.749 98.2687 115.064 97.9548C115.578 97.4418 115.578 97.4418 116.214 96.9288C116.867 96.4028 117.376 95.7965 117.896 95.1427C118.035 94.9978 118.035 94.9978 118.177 94.8499C118.32 94.8499 118.463 94.8499 118.61 94.8499C118.696 94.6577 118.696 94.6577 118.783 94.4617C119.056 93.9624 119.33 93.667 119.751 93.2857C119.89 93.1579 120.029 93.0301 120.173 92.8984C120.318 92.7673 120.464 92.6361 120.613 92.501C120.899 92.2408 121.184 91.9804 121.47 91.7197C121.608 91.5939 121.746 91.4682 121.889 91.3386C122.278 90.9753 122.649 90.6 123.019 90.2179C123.591 89.6661 123.591 89.6661 124.024 89.6661C124.083 89.5364 124.141 89.4068 124.201 89.2732C124.457 88.8022 124.692 88.5331 125.089 88.1778C125.216 88.0619 125.343 87.9459 125.475 87.8265C125.612 87.703 125.75 87.5795 125.892 87.4522C127.285 86.1824 128.63 84.8744 129.951 83.5308C130.773 82.7004 131.618 81.9152 132.508 81.1576C132.91 80.8048 133.287 80.4358 133.661 80.0545C134.322 79.3834 135.019 78.7685 135.735 78.1562C136.136 77.8004 136.51 77.4295 136.883 77.0442C137.451 76.4907 137.451 76.4907 137.884 76.4907C137.956 76.2768 138.027 76.063 138.101 75.8427C138.411 75.591 138.722 75.34 139.037 75.0952C139.455 74.7124 139.735 74.3008 140.05 73.8313C140.608 73.0504 140.608 73.0504 141.417 72.9133Z" fill="#1BA279"/>
<path d="M75.2972 16.229C75.4402 16.229 75.5831 16.229 75.7304 16.229C75.7578 17.6281 75.7768 19.0272 75.7899 20.4265C75.7953 20.9025 75.8027 21.3785 75.8121 21.8545C75.8252 22.5386 75.8313 23.2225 75.8361 23.9068C75.8417 24.1197 75.8473 24.3325 75.8531 24.5519C75.8537 26.029 75.8537 26.029 75.2094 26.7377C74.6476 27.0286 74.6476 27.0286 74.2144 27.0286C74.2144 27.1711 74.2144 27.3137 74.2144 27.4605C73.9116 27.7575 73.9116 27.7575 73.4835 28.1085C72.5189 28.9211 71.6467 29.8063 70.7714 30.7131C70.3163 31.1324 70.3163 31.1324 69.8831 31.1324C69.8117 31.3462 69.7402 31.56 69.6666 31.7803C69.3049 32.0328 68.9427 32.2846 68.577 32.5313C67.958 33.009 67.4911 33.5889 66.9891 34.1841C66.555 34.6791 66.0955 35.0804 65.5518 35.4522C65.4089 35.4522 65.266 35.4522 65.1187 35.4522C65.1187 35.5947 65.1187 35.7373 65.1187 35.8842C64.8006 36.1964 64.8006 36.1964 64.3607 36.5591C63.527 37.262 62.7667 38.0112 62.014 38.7992C61.6537 39.124 61.6537 39.124 61.2205 39.124C61.2205 39.2666 61.2205 39.4091 61.2205 39.556C60.872 39.8437 60.872 39.8437 60.4084 40.1635C59.681 40.6852 59.168 41.2196 58.6218 41.9319C58.4788 41.9319 58.3359 41.9319 58.1886 41.9319C58.1886 42.0745 58.1886 42.217 58.1886 42.3639C57.8734 42.6728 57.8734 42.6728 57.4357 43.033C56.2788 44.0137 55.2331 45.0914 54.1763 46.1771C54.0291 46.3262 53.882 46.4753 53.7304 46.6289C53.5326 46.8316 53.5326 46.8316 53.3308 47.0385C52.9911 47.3317 52.9911 47.3317 52.558 47.3317C52.5027 47.4573 52.4474 47.5828 52.3905 47.7122C51.6549 49.0508 50.257 50.0505 49.1098 51.0348C48.0628 51.9671 47.096 52.9864 46.1152 53.9869C45.6279 54.4594 45.6279 54.4594 45.1135 54.8374C44.5864 55.288 44.2491 55.7008 43.8412 56.2548C43.1685 57.1479 42.4389 57.7593 41.5402 58.4164C40.9756 58.8616 40.5567 59.363 40.1055 59.9182C39.643 60.4492 39.1113 60.88 38.5735 61.3331C37.7388 62.0798 36.9624 62.8849 36.184 63.6893C35.8747 64.0044 35.5546 64.3087 35.2328 64.611C35.0898 64.611 34.9469 64.611 34.7996 64.611C34.7996 64.7535 34.7996 64.8961 34.7996 65.0429C34.6567 65.0429 34.5138 65.0429 34.3665 65.0429C34.3665 65.1855 34.3665 65.3281 34.3665 65.4749C34.2236 65.4749 34.0807 65.4749 33.9334 65.4749C33.7905 65.76 33.6475 66.0451 33.5003 66.3389C33.3573 66.3389 33.2144 66.3389 33.0671 66.3389C33.0671 66.4814 33.0671 66.624 33.0671 66.7709C32.9242 66.7709 32.7813 66.7709 32.634 66.7709C32.634 66.9134 32.634 67.056 32.634 67.2029C32.4911 67.2029 32.3481 67.2029 32.2009 67.2029C32.1294 67.4167 32.0579 67.6305 31.9843 67.8508C31.607 68.2373 31.607 68.2373 31.1451 68.6338C30.9182 68.8318 30.9182 68.8318 30.6866 69.0337C30.2518 69.3628 30.2518 69.3628 29.6021 69.5788C29.6021 69.7213 29.6021 69.8639 29.6021 70.0107C29.196 70.4697 29.196 70.4697 28.7358 70.8747C28.5929 70.8747 28.45 70.8747 28.3027 70.8747C28.3027 71.0173 28.3027 71.1598 28.3027 71.3067C28.0092 71.5944 28.0092 71.5944 27.6124 71.9142C26.7208 72.6513 25.9219 73.4551 25.1219 74.2901C24.6211 74.7625 24.6211 74.7625 24.188 74.7625C24.1347 74.8889 24.0813 75.0154 24.0264 75.1456C23.7129 75.7008 23.3667 76.0055 22.875 76.4095C22.2435 76.9127 22.2435 76.9127 21.8058 77.5704C21.6628 77.5704 21.5199 77.5704 21.3726 77.5704C21.3726 77.713 21.3726 77.8555 21.3726 78.0024C20.9576 78.0141 20.5425 78.0225 20.1274 78.0294C19.8962 78.0344 19.6651 78.0394 19.4269 78.0446C18.4425 77.981 18.0812 77.7537 17.4043 77.0389C17.2354 76.8312 17.0665 76.6235 16.8924 76.4095C16.6366 76.0996 16.6366 76.0996 16.3756 75.7834C15.7342 74.8777 15.7342 74.8777 15.7419 74.3306C16.1091 73.8589 16.1091 73.8589 16.6353 73.3721C16.8156 73.2023 16.996 73.0324 17.1818 72.8574C17.4339 72.6244 17.4339 72.6244 17.691 72.3866C17.8876 72.1862 18.0841 71.9857 18.2866 71.7792C18.7739 71.3067 18.7739 71.3067 19.3017 70.9017C19.7606 70.5222 20.091 70.1808 20.4658 69.7273C21.0602 69.0149 21.7124 68.429 22.4208 67.8314C23.1285 67.2072 23.7765 66.527 24.4299 65.847C24.8377 65.4749 24.8377 65.4749 25.2708 65.4749C25.3244 65.3502 25.378 65.2255 25.4332 65.097C25.7436 64.5398 26.0903 64.1658 26.5702 63.747C26.7131 63.747 26.8561 63.747 27.0033 63.747C27.0569 63.6223 27.1105 63.4975 27.1657 63.369C27.4761 62.8119 27.8228 62.4378 28.3027 62.0191C28.4456 62.0191 28.5886 62.0191 28.7358 62.0191C28.7358 61.8765 28.7358 61.734 28.7358 61.5871C29.0006 61.3281 29.0006 61.3281 29.3991 61.0066C30.3104 60.2337 31.1553 59.4089 31.9978 58.5632C32.1363 58.4244 32.2748 58.2855 32.4175 58.1425C32.8511 57.7072 33.284 57.2713 33.7168 56.8353C36.9638 53.5641 36.9638 53.5641 38.2784 52.4546C39.3614 51.4963 40.3534 50.435 41.3651 49.4025C41.6656 49.0964 41.9675 48.7915 42.2694 48.4867C42.5353 48.2161 42.5353 48.2161 42.8065 47.9401C43.2457 47.5477 43.2457 47.5477 43.6788 47.5477C43.6788 47.4051 43.6788 47.2626 43.6788 47.1157C43.9723 46.828 43.9723 46.828 44.3691 46.5082C45.2051 45.8162 45.9599 45.0684 46.7141 44.2884C46.8693 44.13 47.0245 43.9716 47.1844 43.8083C47.3304 43.6577 47.4764 43.5071 47.6269 43.3519C48.0101 43.0119 48.0101 43.0119 48.4432 43.0119C48.5147 42.798 48.5862 42.5842 48.6598 42.3639C49.0295 42.0003 49.0295 42.0003 49.4854 41.6214C49.9836 41.2019 50.451 40.7919 50.9066 40.3255C51.2586 39.988 51.2586 39.988 51.6917 39.988C51.7633 39.8105 51.7633 39.8105 51.8364 39.6294C52.2155 38.9652 52.7289 38.4757 53.2753 37.9496C53.4292 37.799 53.4292 37.799 53.5862 37.6454C53.8926 37.3457 54.1998 37.0469 54.507 36.7481C55.2387 36.0213 55.9658 35.2901 56.692 34.5579C57.2684 33.9772 57.8459 33.3977 58.4235 32.8183C58.7287 32.5118 59.0334 32.2049 59.3378 31.8976C59.778 31.4534 60.2195 31.0105 60.6614 30.5679C60.7978 30.4296 60.9343 30.2912 61.0749 30.1487C61.4041 29.8203 61.7445 29.5032 62.0868 29.1885C62.2297 29.1885 62.3727 29.1885 62.5199 29.1885C62.5199 29.0459 62.5199 28.9034 62.5199 28.7565C62.8135 28.4688 62.8135 28.4688 63.2102 28.149C64.2177 27.313 65.0975 26.4071 65.9579 25.4221C66.4842 24.8254 67.0074 24.2799 67.6227 23.7752C68.1423 23.3482 68.5829 22.9114 69.0169 22.3982C70.6908 20.4372 72.5812 18.5774 74.557 16.92C74.8947 16.6425 74.8947 16.6425 75.2972 16.229Z" fill="#1BA279"/>
<path d="M75.7305 16.229C75.8019 16.5141 75.8734 16.7992 75.947 17.093C76.3456 17.3317 76.3456 17.3317 76.8133 17.5249C77.6635 18.179 78.4543 18.8899 79.1278 19.7254C79.6156 20.317 80.107 20.7296 80.7115 21.1968C81.6333 22.0678 82.537 22.998 83.3102 24.0047C83.3102 24.1472 83.3102 24.2898 83.3102 24.4367C83.4532 24.4367 83.5961 24.4367 83.7434 24.4367C83.7434 24.5792 83.7434 24.7218 83.7434 24.8686C83.8684 24.9266 83.9935 24.9845 84.1224 25.0441C84.6216 25.3069 85.0472 25.5821 85.4759 25.9486C85.4759 26.0912 85.4759 26.2337 85.4759 26.3806C85.6188 26.3806 85.7617 26.3806 85.909 26.3806C85.9967 26.5343 86.0843 26.688 86.1746 26.8463C86.6553 27.615 87.2375 28.0857 87.9393 28.6485C90.3995 30.6484 90.3995 30.6484 90.6734 31.7804C90.861 31.8701 90.861 31.8701 91.0524 31.9618C91.6563 32.2723 92.0312 32.6688 92.5007 33.1573C93.0198 33.6886 93.5164 34.1783 94.0979 34.6422C94.6408 35.0754 95.0357 35.5357 95.4379 36.1002C95.4379 36.2427 95.4379 36.3853 95.4379 36.5322C95.5587 36.5864 95.6796 36.6407 95.8042 36.6967C97.2141 37.4509 99.2465 38.8562 99.7692 40.42C99.9769 40.5202 99.9769 40.5202 100.189 40.6225C100.635 40.852 100.635 40.852 100.838 41.284C101.156 41.88 101.528 41.9304 102.151 42.1479C102.584 42.5799 102.584 42.5799 102.584 43.4439C102.781 43.5062 102.978 43.5686 103.18 43.6329C104.226 43.9939 104.835 44.3281 105.562 45.1718C105.695 45.3233 105.828 45.4747 105.965 45.6308C106.266 46.0358 106.266 46.0358 106.266 46.4677C106.409 46.4677 106.552 46.4677 106.699 46.4677C106.815 46.6147 106.931 46.7618 107.051 46.9132C107.476 47.4369 107.853 47.8088 108.364 48.2362C109.051 48.8199 109.651 49.4356 110.245 50.1126C111.076 51.0534 111.962 51.8858 112.905 52.7121C113.353 53.1104 113.778 53.5191 114.198 53.9464C114.706 54.4631 115.231 54.9457 115.781 55.4179C116.698 56.2066 117.546 57.0542 118.394 57.9153C118.567 58.0862 118.74 58.2572 118.919 58.4333C119.484 59.0024 120.021 59.5891 120.559 60.1832C121.805 61.5417 123.1 62.8492 124.403 64.152C124.595 64.3445 124.788 64.5371 124.985 64.7354C125.962 65.707 126.95 66.6499 127.999 67.5429C128.506 67.9803 128.971 68.4525 129.439 68.9308C129.555 69.0427 129.672 69.1546 129.793 69.27C130.116 69.5808 130.428 69.9031 130.738 70.2267C130.738 70.3693 130.738 70.5118 130.738 70.6587C130.864 70.7105 130.99 70.7623 131.12 70.8157C131.701 71.1455 132.007 71.5109 132.416 72.0357C132.549 72.2022 132.682 72.3687 132.819 72.5402C133.12 73.0346 133.12 73.0346 133.12 73.8986C133.477 73.8986 133.835 73.8986 134.203 73.8986C134.379 74.2631 134.379 74.2631 134.42 74.7625C133.905 75.3295 133.905 75.3295 133.337 75.8425C133.265 75.9851 133.194 76.1276 133.12 76.2745C132.977 76.2745 132.834 76.2745 132.687 76.2745C132.638 76.4037 132.589 76.5329 132.538 76.666C132.179 77.2633 131.768 77.4377 131.171 77.7864C130.785 78.2334 130.785 78.2334 130.521 78.6504C129.693 78.3749 129.649 78.0936 129.222 77.3544C128.168 76.0947 127.026 74.9104 125.836 73.7779C125.514 73.4657 125.201 73.1429 124.891 72.8186C124.891 72.6761 124.891 72.5335 124.891 72.3866C124.605 72.2441 124.319 72.1015 124.024 71.9547C124.024 71.8121 124.024 71.6696 124.024 71.5227C123.9 71.4687 123.775 71.4147 123.647 71.359C123.091 71.0538 122.711 70.7026 122.265 70.2537C122.043 70.0341 122.043 70.0341 121.816 69.8099C121.445 69.3849 121.236 69.002 120.993 68.4988C120.706 68.2801 120.417 68.0637 120.126 67.8508C120.126 67.7083 120.126 67.5657 120.126 67.4189C119.965 67.3654 119.805 67.3119 119.639 67.2569C118.974 66.9555 118.678 66.651 118.177 66.1229C117.718 65.7368 117.257 65.354 116.793 64.9746C116.445 64.611 116.445 64.611 116.445 63.963C116.302 63.963 116.159 63.963 116.012 63.963C115.718 63.6066 115.43 63.2465 115.145 62.883C115.002 62.8118 114.859 62.7405 114.712 62.6671C114.712 62.5245 114.712 62.3819 114.712 62.2351C114.569 62.2351 114.426 62.2351 114.279 62.2351C114.279 62.0212 114.279 61.8074 114.279 61.5871C114.024 61.5069 114.024 61.5069 113.765 61.4251C113.126 61.1219 113.001 60.9377 112.763 60.2912C112.477 60.2912 112.191 60.2912 111.897 60.2912C111.883 60.1219 111.87 59.9526 111.856 59.7782C111.798 59.5911 111.74 59.404 111.68 59.2112C111.325 59.0537 110.963 58.9117 110.597 58.7792C110.227 58.4286 109.867 58.0679 109.515 57.6993C109.253 57.4988 109.253 57.4988 108.987 57.2943C108.397 56.8069 107.94 56.2819 107.451 55.698C106.839 54.9785 106.187 54.35 105.44 53.7709C105.284 53.6417 105.128 53.5125 104.967 53.3794C104.967 53.2369 104.967 53.0943 104.967 52.9475C104.824 52.9475 104.681 52.9475 104.534 52.9475C104.292 52.714 104.052 52.4785 103.82 52.2354C103.154 51.5722 102.431 50.9686 101.721 50.353C101.505 50.1405 101.505 50.1405 101.285 49.9236C101.285 49.781 101.285 49.6385 101.285 49.4916C101.089 49.4562 101.089 49.4562 100.889 49.42C100.116 49.1826 99.6784 48.5432 99.1601 47.9527C98.9282 47.6948 98.6962 47.4372 98.4638 47.1798C98.3528 47.0561 98.2417 46.9323 98.1273 46.8048C97.7581 46.3997 97.3738 46.013 96.9809 45.6308C96.4999 45.1626 96.0667 44.6779 95.6409 44.1593C95.076 43.4826 94.4428 43.0646 93.7053 42.5799C93.5543 42.2953 93.4087 42.0077 93.2722 41.7159C92.9855 41.568 92.6963 41.4246 92.406 41.284C92.0356 40.9336 91.6754 40.5724 91.3231 40.204C91.14 40.0213 90.9569 39.8387 90.7682 39.6505C90.594 39.4768 90.4198 39.303 90.2403 39.124C90.075 38.9681 89.9098 38.8122 89.7395 38.6516C89.374 38.2601 89.374 38.2601 89.374 37.8281C89.2311 37.8281 89.0882 37.8281 88.9409 37.8281C88.9409 37.6855 88.9409 37.543 88.9409 37.3961C88.8203 37.3427 88.6997 37.2892 88.5755 37.2341C87.6882 36.7558 87.0215 36.1547 86.3827 35.3847C85.6559 34.5152 84.8262 33.8041 83.9599 33.0763C82.2745 31.6564 82.2745 31.6564 81.6589 30.8894C81.2619 30.4101 80.9298 30.0708 80.4543 29.6879C79.8452 29.1885 79.8452 29.1885 79.4121 28.5405C79.4121 28.2554 79.4121 27.9703 79.4121 27.6765C79.2691 27.6765 79.1262 27.6765 78.9789 27.6765C78.9789 27.8191 78.9789 27.9616 78.9789 28.1085C78.7645 28.0372 78.5501 27.966 78.3292 27.8925C78.3292 27.75 78.3292 27.6074 78.3292 27.4605C78.1349 27.367 78.1349 27.367 77.9367 27.2715C77.463 27.0286 77.463 27.0286 76.8133 26.5966C76.8133 26.454 76.8133 26.3115 76.8133 26.1646C76.6704 26.1646 76.5274 26.1646 76.3802 26.1646C76.3802 26.022 76.3802 25.8795 76.3802 25.7326C76.1658 25.7326 75.9514 25.7326 75.7305 25.7326C75.7305 22.5964 75.7305 19.4602 75.7305 16.229Z" fill="#1BA279"/>
<path d="M35.192 75.7483C35.7254 76.0979 36.0757 76.5185 36.4711 77.0139C37.0696 77.7492 37.7531 78.3697 38.4811 78.9747C39.0976 79.4871 39.6465 80.029 40.2136 80.5946C40.5285 80.8701 40.8444 81.1445 41.161 81.4181C41.9409 82.1022 42.6134 82.8216 43.2802 83.6134C43.8849 84.2768 44.5665 84.8438 45.2546 85.419C45.3777 85.5376 45.5009 85.6562 45.6277 85.7784C45.6277 85.921 45.6277 86.0635 45.6277 86.2104C45.7706 86.2104 45.9136 86.2104 46.0608 86.2104C46.4349 86.5622 46.7893 86.9195 47.1437 87.2903C47.4044 87.5567 47.6661 87.8222 47.9287 88.0868C48.0521 88.2124 48.1755 88.338 48.3026 88.4673C48.6864 88.846 48.6864 88.846 49.3093 89.2343C49.3093 89.3768 49.3093 89.5194 49.3093 89.6662C49.4312 89.7173 49.5531 89.7683 49.6788 89.8209C50.2909 90.1626 50.7031 90.5796 51.1941 91.0795C51.486 91.3741 51.486 91.3741 51.7837 91.6747C51.9877 91.8826 52.1916 92.0906 52.3953 92.2986C53.6118 93.5349 54.8142 94.7563 56.1588 95.8552C56.2568 95.9511 56.3549 96.0471 56.4559 96.146C56.4559 96.2885 56.4559 96.4311 56.4559 96.578C56.5663 96.5432 56.6767 96.5085 56.7905 96.4727C57.4936 96.3263 58.1848 96.3236 58.8999 96.3176C59.0604 96.3155 59.221 96.3133 59.3864 96.3111C59.93 96.3042 60.4737 96.2989 61.0173 96.2936C61.4141 96.2891 61.8109 96.2846 62.2077 96.28C63.3068 96.2677 64.4059 96.2571 65.5051 96.247C66.2008 96.2405 66.8964 96.2336 67.5921 96.2266C82.0708 96.0837 96.551 96.1261 111.03 96.146C110.688 96.8706 110.314 97.3322 109.731 97.8874C109.217 98.3786 108.829 98.7908 108.431 99.3858C108.04 99.4699 108.04 99.4699 107.556 99.4744C107.372 99.4776 107.188 99.4809 106.998 99.4842C106.693 99.4846 106.693 99.4846 106.381 99.485C106.166 99.4878 105.95 99.4907 105.729 99.4935C105.002 99.5022 104.276 99.5061 103.55 99.5101C103.031 99.5152 102.512 99.5206 101.993 99.5262C100.579 99.5405 99.1656 99.5505 97.752 99.5592C96.8689 99.5646 95.9858 99.5709 95.1028 99.5775C92.657 99.5954 90.2113 99.6121 87.7655 99.6243C87.6088 99.625 87.4522 99.6258 87.2908 99.6266C87.1338 99.6274 86.9768 99.6282 86.8151 99.629C86.497 99.6306 86.1788 99.6322 85.8607 99.6338C85.624 99.635 85.624 99.635 85.3825 99.6362C82.829 99.6492 80.2756 99.671 77.7222 99.6966C75.0995 99.7227 72.4769 99.7415 69.8541 99.753C68.3819 99.7596 66.91 99.7693 65.4379 99.7872C64.0519 99.8036 62.6662 99.8106 61.2801 99.8106C60.7723 99.8121 60.2644 99.817 59.7567 99.8256C55.4462 99.8947 55.4462 99.8947 53.8882 98.6707C53.2944 98.0812 52.9197 97.5399 52.5578 96.7939C52.2746 96.6393 51.9849 96.4963 51.6915 96.362C50.6196 95.4956 49.6226 94.5385 48.6596 93.5541C47.4735 92.3483 46.266 91.1949 44.978 90.0982C44.6752 89.8378 44.3729 89.5768 44.0711 89.3153C43.9385 89.2011 43.8059 89.087 43.6693 88.9693C43.1485 88.4986 42.657 88.0049 42.1627 87.5063C41.5632 86.9028 40.9629 86.3 40.3625 85.6974C40.2063 85.5398 40.0501 85.3822 39.8892 85.2199C38.7069 84.0354 37.4971 82.8955 36.1665 81.8771C35.6686 81.461 35.2874 81.0076 34.8832 80.5027C34.4509 80.0132 33.9557 79.6158 33.4451 79.2101C32.9699 78.7786 32.5923 78.2936 32.2007 77.7867C32.5521 77.4667 32.9041 77.1473 33.2564 76.8283C33.4524 76.6504 33.6484 76.4725 33.8503 76.2892C34.6644 75.585 34.6644 75.585 35.192 75.7483Z" fill="#1BA279"/>
<path d="M28.5194 80.8105C29.1556 81.094 29.1556 81.094 29.8188 81.4585C29.8903 81.6724 29.9617 81.8862 30.0354 82.1065C30.1551 82.1661 30.2749 82.2257 30.3983 82.287C31.1233 82.6492 31.6593 83.2012 32.2416 83.7534C32.4919 83.9873 32.7423 84.221 32.9928 84.4545C33.1154 84.5692 33.2379 84.6839 33.3642 84.8021C33.8509 85.255 34.3442 85.7002 34.8404 86.1428C34.9909 86.2773 35.1413 86.4118 35.2964 86.5503C35.6562 86.8741 35.6562 86.8741 36.0992 87.0743C36.2064 87.395 36.2064 87.395 36.3157 87.7223C36.6566 88.0669 36.6566 88.0669 37.0805 88.404C38.2394 89.3846 39.2894 90.4611 40.3535 91.5417C41.4843 92.6819 42.6276 93.8316 43.9458 94.7576C44.0722 94.8593 44.1985 94.9611 44.3286 95.0659C44.3286 95.2085 44.3286 95.3511 44.3286 95.4979C44.4478 95.5462 44.567 95.5945 44.6898 95.6443C45.354 96.0199 45.8113 96.5003 46.3462 97.0436C46.454 97.1522 46.5618 97.2609 46.6729 97.3728C47.016 97.7188 47.3575 98.0662 47.6989 98.4138C48.0413 98.7612 48.384 99.1083 48.7273 99.4548C49.0385 99.769 49.3486 100.084 49.6586 100.399C50.1698 100.922 50.1698 100.922 50.8256 101.33C50.8256 101.472 50.8256 101.615 50.8256 101.762C50.9507 101.82 51.0757 101.877 51.2046 101.937C51.6918 102.194 51.6918 102.194 52.0486 102.529C52.7699 102.972 53.4465 102.928 54.2677 102.918C54.4412 102.918 54.6148 102.919 54.7936 102.919C55.3763 102.92 55.9589 102.916 56.5416 102.912C56.9594 102.911 57.3771 102.911 57.7949 102.911C58.6965 102.91 59.5981 102.908 60.4998 102.904C61.934 102.897 63.3682 102.895 64.8024 102.893C67.0812 102.89 69.3601 102.884 71.6389 102.876C75.6913 102.863 79.7436 102.854 83.796 102.848C85.2124 102.845 86.6289 102.841 88.0453 102.836C93.5456 102.817 99.0362 102.873 104.534 103.058C104.534 103.2 104.534 103.343 104.534 103.49C104.114 103.876 103.669 104.225 103.222 104.581C102.749 105.054 102.598 105.461 102.368 106.081C102.25 106.081 102.131 106.081 102.009 106.08C100.38 106.074 98.7501 106.071 97.1205 106.069C96.8388 106.068 96.557 106.068 96.2667 106.067C92.2173 106.062 88.1693 106.092 84.1202 106.15C80.5197 106.202 76.9194 106.235 73.3185 106.254C71.115 106.267 68.9123 106.289 66.7092 106.333C64.746 106.371 62.7836 106.391 60.82 106.391C59.793 106.391 58.7678 106.4 57.7412 106.431C50.8762 106.627 50.8762 106.627 48.4322 104.428C47.4807 103.509 46.6436 102.505 45.8558 101.443C45.3946 100.877 44.9102 100.473 44.3286 100.034C43.9626 99.6789 43.6023 99.3182 43.2458 98.9538C41.0182 96.6812 41.0182 96.6812 38.659 94.5479C38.005 93.974 37.4053 93.3462 36.7937 92.728C36.3718 92.3131 35.9411 91.9253 35.4901 91.5426C34.7167 90.8834 34.0088 90.174 33.2974 89.4502C32.4085 88.5481 31.5069 87.7302 30.4761 86.9874C29.9213 86.553 29.4467 86.0645 28.9525 85.5623C28.7125 85.3295 28.472 85.0973 28.2309 84.8654C27.9797 84.6208 27.7284 84.3761 27.4772 84.1314C27.2831 83.946 27.2831 83.946 27.0851 83.7568C26.7567 83.4349 26.4455 83.0957 26.1372 82.7545C26.1372 82.5406 26.1372 82.3268 26.1372 82.1065C26.291 82.031 26.4448 81.9556 26.6033 81.8778C26.8024 81.7796 27.0014 81.6813 27.2065 81.58C27.5042 81.4334 27.5042 81.4334 27.808 81.2839C28.2823 81.0686 28.2823 81.0686 28.5194 80.8105Z" fill="#1BA279"/>
<path d="M8.37891 81.4585C9.23108 81.8526 9.84454 82.409 10.5175 83.0514C11.3481 83.8438 12.1732 84.5048 13.1433 85.1303C13.7715 85.7098 14.3275 86.3268 14.8758 86.9798C15.4025 87.6018 15.9599 88.0887 16.6084 88.5862C16.9722 88.9433 17.3325 89.3039 17.6912 89.6662C17.9317 89.9064 18.1724 90.1464 18.4132 90.3863C23.6827 95.6418 23.6827 95.6418 24.057 96.0151C24.3733 96.3306 24.6898 96.646 25.0063 96.9614C25.3591 97.3136 25.7105 97.6671 26.0611 98.0215C27.0321 98.9996 28.002 99.9594 29.0634 100.841C29.7377 101.411 30.336 102.022 30.8746 102.72C31.2551 103.178 31.5974 103.507 32.0521 103.881C32.6071 104.341 33.078 104.814 33.541 105.366C34.2992 106.259 35.1539 107.029 36.0251 107.808C36.7332 108.447 37.3594 109.103 37.9603 109.84C38.4302 110.373 38.9731 110.812 39.5135 111.272C40.4391 112.085 41.3415 112.939 42.163 113.857C42.163 114 42.163 114.142 42.163 114.289C42.3372 114.363 42.3372 114.363 42.5149 114.438C43.7321 115.108 44.5439 116.032 45.4115 117.097C46.3221 118.032 47.2828 118.908 48.2475 119.786C49.0563 120.526 49.8559 121.268 50.609 122.065C50.609 122.207 50.609 122.35 50.609 122.497C50.8234 122.568 51.0378 122.639 51.2587 122.713C51.6331 123.064 51.9863 123.423 52.3415 123.793C52.6658 124.117 52.9907 124.441 53.3161 124.765C53.8378 125.284 54.3574 125.805 54.8727 126.331C55.268 126.714 55.662 127.054 56.0908 127.397C56.2829 127.562 56.475 127.727 56.6728 127.897C56.6728 128.039 56.6728 128.182 56.6728 128.329C56.799 128.383 56.9252 128.438 57.0552 128.495C57.5915 128.789 57.93 129.115 58.3512 129.557C59.4029 130.633 60.5201 131.613 61.6944 132.554C62.3411 133.113 62.8474 133.715 63.3864 134.376C63.7428 134.741 64.1037 135.101 64.4692 135.456C64.6344 135.626 64.7997 135.795 64.97 135.969C65.6019 136.585 66.2654 137.149 66.9436 137.713C67.0561 137.824 67.1686 137.934 67.2845 138.048C67.2845 138.191 67.2845 138.333 67.2845 138.48C63.5414 138.798 63.5414 138.798 62.2367 138.093C61.7076 137.601 61.2477 137.092 60.7876 136.536C60.5178 136.296 60.243 136.061 59.9619 135.834C59.3384 135.305 58.7605 134.745 58.1888 134.16C58.0715 134.048 57.9543 133.936 57.8335 133.82C57.5108 133.51 57.1992 133.188 56.8894 132.864C56.8894 132.722 56.8894 132.579 56.8894 132.432C56.761 132.378 56.6326 132.323 56.5003 132.266C55.9703 131.971 55.6997 131.673 55.3193 131.204C54.6603 130.425 53.9555 129.766 53.179 129.106C52.6504 128.654 52.162 128.193 51.6919 127.681C51.6919 127.538 51.6919 127.395 51.6919 127.249C51.5704 127.196 51.449 127.143 51.3239 127.088C49.7995 126.257 48.5804 124.825 47.4731 123.513C47.0496 123.039 46.5602 122.674 46.0612 122.281C45.8016 121.966 45.5422 121.651 45.2863 121.333C44.9514 120.954 44.594 120.642 44.2068 120.317C43.1328 119.391 42.1432 118.389 41.1479 117.38C40.7911 117.019 40.4338 116.658 40.076 116.298C39.9203 116.14 39.7647 115.982 39.6043 115.82C39.1085 115.347 38.5863 114.928 38.0483 114.505C37.5075 113.992 37.0145 113.489 36.5594 112.899C36.0799 112.322 35.5699 111.872 34.9901 111.4C34.4664 110.948 33.9871 110.46 33.5004 109.969C33.3111 109.783 33.1219 109.597 32.9269 109.405C31.8867 108.378 30.8695 107.349 29.9347 106.223C29.6017 105.842 29.6017 105.842 29.1277 105.521C28.9984 105.421 28.8692 105.321 28.736 105.217C28.736 105.075 28.736 104.932 28.736 104.786C28.4144 104.679 28.4144 104.679 28.0863 104.57C27.4707 104.005 26.9268 103.401 26.3944 102.761C25.7895 102.046 25.121 101.451 24.4081 100.845C23.7226 100.249 23.0906 99.6026 22.4556 98.9538C21.9343 98.4215 21.4362 97.9224 20.8449 97.4688C20.256 96.9817 19.7992 96.4577 19.3112 95.8734C18.7561 95.2234 18.1412 94.6348 17.5152 94.0535C17.2581 93.77 17.2581 93.77 17.2581 93.338C17.1325 93.2819 17.007 93.2258 16.8776 93.168C15.9998 92.6946 15.3262 91.9659 14.6051 91.2861C14.4438 91.1371 14.2824 90.9882 14.1162 90.8347C13.9638 90.6919 13.8113 90.549 13.6543 90.4019C13.5146 90.2711 13.375 90.1404 13.2311 90.0057C12.9268 89.6662 12.9268 89.6662 12.9268 89.2342C12.8087 89.1827 12.6906 89.1312 12.5689 89.0781C11.9325 88.7327 11.4136 88.3046 10.8559 87.8437C10.6501 87.6747 10.4444 87.5057 10.2324 87.3316C10.0495 87.1754 9.86669 87.0192 9.67829 86.8583C9.56391 86.7643 9.44952 86.6704 9.33166 86.5736C8.92921 86.0911 8.89849 85.7275 8.82303 85.1076C8.79581 84.8953 8.7686 84.683 8.74055 84.4642C8.71501 84.243 8.68947 84.0218 8.66315 83.7939C8.63509 83.5702 8.60704 83.3465 8.57813 83.116C8.50923 82.5637 8.44293 82.0113 8.37891 81.4585Z" fill="#1BA279"/>
<path d="M143.082 81.0261C143.053 81.1651 143.024 81.304 142.995 81.4471C142.767 82.6101 142.643 83.6872 142.635 84.8735C142.558 86.0755 142.558 86.0755 142.031 86.6377C141.529 86.9638 141.018 87.2357 140.483 87.5059C139.797 87.9977 139.226 88.5327 138.697 89.1933C138.509 89.4272 138.509 89.4272 138.318 89.6658C138.175 89.6658 138.032 89.6658 137.884 89.6658C137.836 89.7842 137.788 89.9026 137.738 90.0245C137.365 90.6814 136.867 91.1739 136.335 91.7008C136.226 91.8098 136.117 91.9189 136.005 92.0312C135.775 92.2605 135.545 92.4892 135.314 92.7174C134.96 93.0679 134.609 93.4207 134.258 93.7738C134.034 93.9964 133.811 94.2189 133.587 94.4412C133.482 94.5471 133.376 94.6531 133.268 94.7623C132.52 95.4975 132.52 95.4975 132.037 95.4975C131.966 95.7113 131.894 95.9252 131.821 96.1455C131.678 96.1455 131.535 96.1455 131.387 96.1455C131.387 96.288 131.387 96.4306 131.387 96.5775C130.761 97.2648 130.068 97.8663 129.371 98.4809C128.137 99.5753 126.985 100.746 125.834 101.927C125.69 102.073 125.546 102.219 125.398 102.37C125.269 102.502 125.14 102.634 125.007 102.771C124.674 103.057 124.674 103.057 124.241 103.057C124.241 103.2 124.241 103.342 124.241 103.489C123.933 103.79 123.933 103.79 123.501 104.145C122.24 105.214 121.103 106.399 119.949 107.581C119.783 107.749 119.616 107.918 119.444 108.092C119.294 108.245 119.144 108.398 118.99 108.556C118.61 108.889 118.61 108.889 118.177 108.889C118.119 109.027 118.061 109.165 118.001 109.307C117.744 109.753 117.744 109.753 117.094 109.969C117.094 110.111 117.094 110.254 117.094 110.401C116.801 110.689 116.801 110.689 116.404 111.008C115.56 111.708 114.771 112.417 114.103 113.29C113.558 113.941 112.954 114.464 112.308 115.013C111.867 115.384 111.867 115.384 111.382 115.895C111.03 116.233 111.03 116.233 110.597 116.233C110.597 116.375 110.597 116.518 110.597 116.665C110.454 116.665 110.311 116.665 110.164 116.665C110.093 116.878 110.021 117.092 109.948 117.313C109.601 117.653 109.601 117.653 109.162 118.015C108.398 118.657 107.698 119.334 107.012 120.059C106.699 120.336 106.699 120.336 106.266 120.336C106.212 120.461 106.159 120.586 106.104 120.714C105.793 121.272 105.446 121.646 104.967 122.064C104.824 122.064 104.681 122.064 104.533 122.064C104.533 122.207 104.533 122.35 104.533 122.496C104.193 122.839 104.193 122.839 103.735 123.225C103.577 123.36 103.418 123.495 103.255 123.634C102.91 123.918 102.559 124.195 102.205 124.467C101.7 124.859 101.7 124.859 101.312 125.385C100.734 126.098 100.084 126.713 99.3359 127.248C99.1929 127.248 99.05 127.248 98.9027 127.248C98.8578 127.365 98.8129 127.483 98.7665 127.603C98.3561 128.307 97.7846 128.803 97.1838 129.341C97.0672 129.448 96.9507 129.556 96.8306 129.667C96.2982 130.149 95.9111 130.475 95.2211 130.704C95.2211 130.847 95.2211 130.989 95.2211 131.136C94.9059 131.45 94.9059 131.45 94.4682 131.814C93.5096 132.627 92.5901 133.474 91.6749 134.335C91.5141 134.486 91.3533 134.636 91.1877 134.791C90.4917 135.444 89.8018 136.098 89.148 136.793C88.1182 137.887 87.4355 138.592 85.9089 138.696C85.6509 138.718 85.393 138.741 85.1272 138.764C84.3773 138.823 83.6281 138.872 82.877 138.912C83.2377 137.976 83.9326 137.37 84.6365 136.684C84.7644 136.558 84.8923 136.432 85.024 136.303C85.7891 135.554 86.5671 134.828 87.3859 134.138C87.7904 133.787 88.1827 133.428 88.5736 133.061C88.7009 132.942 88.8282 132.823 88.9594 132.701C89.2145 132.462 89.4689 132.221 89.7224 131.981C90.6255 131.136 90.6255 131.136 91.1064 131.136C91.1779 130.922 91.2493 130.708 91.323 130.488C91.8509 129.908 91.8509 129.908 92.4058 129.408C92.5487 129.408 92.6917 129.408 92.8389 129.408C92.9104 129.194 92.9819 128.98 93.0555 128.76C93.3643 128.457 93.3643 128.457 93.7729 128.126C94.5875 127.439 95.3395 126.709 96.0874 125.952C98.7543 123.266 98.7543 123.266 99.769 122.928C99.8429 122.641 99.9149 122.353 99.9856 122.064C100.294 121.74 100.294 121.74 100.703 121.416C101.522 120.736 102.271 120.013 103.017 119.257C103.859 118.407 104.713 117.596 105.627 116.823C106.318 116.21 106.952 115.542 107.591 114.877C107.998 114.505 107.998 114.505 108.432 114.505C108.503 114.291 108.575 114.077 108.648 113.857C108.972 113.531 108.972 113.531 109.393 113.182C109.552 113.046 109.711 112.911 109.875 112.772C110.042 112.631 110.209 112.49 110.381 112.345C112.102 110.872 113.686 109.275 115.27 107.658C115.443 107.482 115.616 107.307 115.795 107.126C115.951 106.967 116.107 106.807 116.269 106.643C116.661 106.297 116.661 106.297 117.094 106.297C117.146 106.173 117.197 106.048 117.25 105.92C117.586 105.33 117.977 104.992 118.493 104.551C119.714 103.482 120.854 102.348 121.994 101.194C123.159 100.016 124.322 98.8591 125.583 97.7822C126.187 97.2549 126.75 96.6896 127.313 96.1185C127.474 95.9569 127.474 95.9569 127.638 95.792C127.848 95.5801 128.058 95.3681 128.268 95.1558C128.568 94.8542 128.868 94.5544 129.169 94.2547C129.457 93.9669 129.742 93.6758 130.02 93.3781C130.305 93.1216 130.305 93.1216 130.738 93.1216C130.818 92.9345 130.818 92.9345 130.9 92.7436C131.211 92.1865 131.557 91.8124 132.037 91.3937C132.18 91.3937 132.323 91.3937 132.47 91.3937C132.551 91.2066 132.551 91.2066 132.633 91.0157C132.943 90.4586 133.29 90.0845 133.77 89.6658C133.913 89.6658 134.056 89.6658 134.203 89.6658C134.283 89.4787 134.283 89.4787 134.365 89.2878C134.676 88.7306 135.022 88.3566 135.502 87.9378C135.645 87.9378 135.788 87.9378 135.935 87.9378C135.984 87.822 136.034 87.7062 136.084 87.5868C136.822 86.2555 137.969 85.1703 139.184 84.266C139.327 84.266 139.47 84.266 139.617 84.266C139.691 84.0789 139.691 84.0789 139.766 83.888C140.125 83.2746 140.575 82.9804 141.133 82.5381C141.474 82.1421 141.801 81.7387 142.123 81.3265C142.432 81.0261 142.432 81.0261 143.082 81.0261Z" fill="#1BA279"/>
<path d="M10.7607 93.1218C10.9919 93.3557 10.9919 93.3557 11.2277 93.5943C11.8161 94.1747 12.4193 94.7301 13.0347 95.2817C13.624 95.8101 14.2035 96.3394 14.763 96.8991C15.5457 97.6773 16.3788 98.3963 17.2078 99.1249C17.3672 99.2822 17.5266 99.4395 17.6908 99.6016C17.6908 99.7441 17.6908 99.8867 17.6908 100.034C17.9052 100.105 18.1196 100.176 18.3405 100.25C18.6112 100.562 18.8808 100.876 19.1399 101.198C19.9407 102.18 20.8656 102.912 21.8978 103.634C22.0103 103.729 22.1228 103.824 22.2387 103.921C22.2387 104.064 22.2387 104.206 22.2387 104.353C22.3816 104.353 22.5245 104.353 22.6718 104.353C22.9702 104.655 22.9702 104.655 23.3227 105.082C24.2721 106.194 25.2982 107.22 26.3348 108.251C26.6378 108.554 26.6378 108.554 26.9469 108.862C27.3713 109.286 27.7962 109.709 28.2213 110.132C28.764 110.672 29.3057 111.213 29.8471 111.755C30.3677 112.275 30.8892 112.794 31.4105 113.314C31.6039 113.507 31.7972 113.7 31.9964 113.899C32.1779 114.08 32.3594 114.26 32.5463 114.446C32.7048 114.604 32.8632 114.761 33.0265 114.924C33.524 115.391 34.047 115.81 34.5829 116.233C34.9488 116.588 35.3092 116.948 35.6657 117.313C35.9027 117.551 36.1399 117.789 36.3774 118.026C36.5061 118.155 36.6349 118.284 36.7675 118.417C37.3514 119.003 37.936 119.587 38.5205 120.172C38.8271 120.479 39.1335 120.786 39.4397 121.093C39.8857 121.541 40.3326 121.987 40.7795 122.434C40.914 122.569 41.0485 122.705 41.1871 122.844C41.8405 123.496 42.5033 124.123 43.2046 124.724C44.3113 125.678 45.3342 126.713 46.3653 127.747C46.5765 127.958 46.7876 128.169 46.9988 128.38C47.549 128.929 48.0985 129.479 48.6479 130.03C49.2108 130.593 49.7744 131.157 50.3379 131.72C51.4394 132.821 52.5402 133.922 53.6406 135.024C52.9404 135.257 52.6987 135.224 51.9952 135.08C51.8038 135.041 51.6124 135.002 51.4153 134.962C51.1165 134.899 51.1165 134.899 50.8117 134.835C50.6117 134.795 50.4116 134.754 50.2056 134.713C48.7245 134.408 48.7245 134.408 48.2264 134.16C48.2264 134.018 48.2264 133.875 48.2264 133.728C48.105 133.676 47.9836 133.623 47.8584 133.569C47.2604 133.241 46.8187 132.841 46.318 132.378C45.6786 131.792 45.0381 131.216 44.3689 130.664C43.6869 130.087 43.1576 129.453 42.5958 128.76C42.2374 128.398 41.8761 128.038 41.5129 127.68C41.302 127.469 41.0913 127.258 40.8807 127.046C40.2638 126.427 39.6461 125.809 39.0282 125.19C38.7636 124.925 38.4993 124.66 38.2351 124.395C36.328 122.477 36.328 122.477 34.3171 120.669C33.6173 120.063 32.9643 119.41 32.3089 118.757C32.1721 118.623 32.0354 118.49 31.8944 118.352C31.701 118.16 31.701 118.16 31.5036 117.963C31.3876 117.849 31.2716 117.734 31.1521 117.615C30.9013 117.313 30.9013 117.313 30.9013 116.881C30.7862 116.836 30.6712 116.792 30.5527 116.746C29.8168 116.324 29.2747 115.753 28.6815 115.153C28.5614 115.035 28.4414 114.917 28.3177 114.795C27.4362 113.912 27.4362 113.912 27.4362 113.425C27.3109 113.368 27.1855 113.312 27.0564 113.254C25.5309 112.436 24.2274 110.972 23.132 109.659C22.5823 109.009 21.9925 108.464 21.331 107.929C20.8111 107.483 20.3382 107 19.8565 106.513C19.5972 106.254 19.3378 105.996 19.0782 105.737C18.5142 105.175 17.9502 104.612 17.3863 104.05C17.2523 103.916 17.1183 103.783 16.9803 103.645C16.6624 103.328 16.3469 103.008 16.0319 102.687C15.5284 102.197 14.9998 101.761 14.4559 101.316C12.3845 99.4521 11.5429 96.597 10.7607 93.9858C10.7607 93.7007 10.7607 93.4156 10.7607 93.1218Z" fill="#1BA279"/>
<path d="M140.483 93.554C139.912 97.0694 139.359 99.3396 136.453 101.628C135.935 101.978 135.935 101.978 135.502 101.978C135.431 102.191 135.359 102.405 135.286 102.626C134.984 102.921 134.984 102.921 134.582 103.247C133.718 103.974 132.925 104.753 132.132 105.555C131.196 106.5 130.246 107.39 129.222 108.241C128.676 108.761 128.182 109.267 127.719 109.861C127.197 110.493 126.608 110.964 125.973 111.481C125.443 111.998 124.926 112.523 124.417 113.061C124.024 113.425 124.024 113.425 123.591 113.425C123.537 113.55 123.482 113.675 123.426 113.803C123.123 114.352 122.78 114.715 122.333 115.154C122.09 115.394 122.09 115.394 121.843 115.639C121.674 115.804 121.505 115.969 121.331 116.139C121.078 116.387 121.078 116.387 120.821 116.641C120.508 116.949 120.195 117.257 119.881 117.564C119.624 117.816 119.371 118.074 119.125 118.337C118.827 118.609 118.827 118.609 118.394 118.609C118.394 118.751 118.394 118.894 118.394 119.041C118.083 119.345 118.083 119.345 117.649 119.702C116.958 120.287 116.309 120.893 115.673 121.538C115.106 122.113 114.536 122.658 113.913 123.172C113.406 123.593 112.98 124.027 112.56 124.535C111.971 125.246 111.317 125.827 110.613 126.423C109.995 126.964 109.427 127.549 108.851 128.134C108.468 128.509 108.074 128.852 107.66 129.192C106.81 129.902 106.119 130.731 105.4 131.568C103.315 133.873 100.625 135.117 97.6033 135.672C97.2425 135.682 96.8812 135.685 96.5205 135.672C97.5437 133.845 99.1754 132.573 100.807 131.301C101.373 130.85 101.869 130.364 102.368 129.84C103.414 128.774 104.474 127.747 105.609 126.776C106.101 126.339 106.562 125.88 107.024 125.413C107.593 124.837 108.165 124.287 108.783 123.766C109.834 122.869 110.793 121.881 111.76 120.897C112.423 120.226 113.094 119.581 113.811 118.967C114.894 118.036 115.888 117.019 116.891 116.004C119.342 113.523 119.342 113.523 120.559 112.561C120.702 112.561 120.845 112.561 120.992 112.561C121.05 112.432 121.108 112.303 121.168 112.17C121.43 111.688 121.677 111.412 122.083 111.047C122.22 110.921 122.357 110.796 122.498 110.666C122.649 110.53 122.8 110.393 122.955 110.253C124.176 109.131 125.371 107.988 126.54 106.813C126.662 106.69 126.784 106.568 126.91 106.441C127.523 105.825 128.134 105.206 128.744 104.587C128.971 104.358 129.197 104.13 129.424 103.901C129.528 103.794 129.633 103.687 129.741 103.577C129.993 103.323 130.256 103.081 130.521 102.842C130.664 102.842 130.807 102.842 130.954 102.842C131.012 102.703 131.07 102.565 131.13 102.423C131.387 101.978 131.387 101.978 132.037 101.762C132.037 101.619 132.037 101.477 132.037 101.33C132.969 100.3 132.969 100.3 133.77 100.034C133.841 99.8199 133.913 99.606 133.986 99.3857C134.129 99.3857 134.272 99.3857 134.419 99.3857C134.5 99.1986 134.5 99.1986 134.582 99.0077C134.892 98.4506 135.239 98.0765 135.719 97.6578C135.862 97.6578 136.005 97.6578 136.152 97.6578C136.21 97.5197 136.268 97.3816 136.328 97.2393C136.585 96.7938 136.585 96.7938 137.235 96.5778C137.235 96.4353 137.235 96.2927 137.235 96.1458C137.585 95.7638 137.937 95.416 138.318 95.0659C138.464 94.9317 138.61 94.7975 138.76 94.6592C139.992 93.554 139.992 93.554 140.483 93.554Z" fill="#1BA279"/>
<path d="M59.4556 109.293C59.7471 109.293 60.0385 109.293 60.33 109.292C61.1162 109.291 61.9024 109.291 62.6886 109.292C63.5245 109.293 64.3603 109.292 65.1961 109.292C66.6069 109.291 68.0178 109.292 69.4286 109.293C70.8553 109.294 72.282 109.294 73.7087 109.293C81.6761 109.287 89.6385 109.303 97.6033 109.537C97.4739 109.678 97.4739 109.678 97.3419 109.822C97.2271 109.951 97.1124 110.08 96.9942 110.212C96.8246 110.4 96.8246 110.4 96.6516 110.592C96.2331 111.142 95.949 111.722 95.6542 112.345C89.0641 112.615 82.4749 112.647 75.88 112.668C73.732 112.676 71.5841 112.689 69.4361 112.709C67.9115 112.723 66.3869 112.73 64.8622 112.732C63.9563 112.734 63.0506 112.739 62.1447 112.75C61.2975 112.761 60.4507 112.764 59.6035 112.76C59.2936 112.761 58.9836 112.764 58.6738 112.77C56.3266 112.815 56.3266 112.815 55.5649 112.178C55.2177 111.712 55.2177 111.712 54.9592 111.246C54.6383 110.684 54.2179 110.456 53.6406 110.185C53.7121 109.971 53.7836 109.757 53.8572 109.537C55.7275 109.35 57.5767 109.29 59.4556 109.293Z" fill="#1BA279"/>
<path d="M45.7363 26.2488C46.7563 26.8846 47.4268 27.4661 48.0102 28.5403C48.1353 28.723 48.2604 28.9056 48.3892 29.0938C49.0521 30.912 48.748 32.7353 48.0466 34.4936C47.3148 36.0168 47.3148 36.0168 46.562 36.3835C46.3967 36.4325 46.2314 36.4815 46.0611 36.532C46.0611 36.6746 46.0611 36.8171 46.0611 36.964C44.1765 37.6874 42.544 38.3071 40.5895 37.5563C38.68 36.6214 37.4183 35.4781 36.5458 33.5351C35.9273 31.5881 36.281 29.6869 37.182 27.8924C37.9492 26.6722 38.8897 26.0453 40.2139 25.5165C40.4328 25.4274 40.6516 25.3383 40.8771 25.2465C42.7209 24.777 44.1326 25.3591 45.7363 26.2488Z" fill="#1BA279"/>
<path d="M101.935 23.5732C101.94 25.173 101.943 26.7728 101.946 28.3726C101.947 29.1156 101.948 29.8587 101.951 30.6017C101.954 31.458 101.955 32.3142 101.956 33.1704C101.957 33.4344 101.958 33.6984 101.959 33.9704C101.959 35.3477 101.903 36.6794 101.718 38.0446C101.504 37.9733 101.289 37.902 101.068 37.8286C101.068 37.686 101.068 37.5435 101.068 37.3966C100.948 37.3832 100.827 37.3699 100.703 37.3561C99.8705 37.0645 99.3779 36.4176 98.8299 35.7463C97.9589 34.6809 96.9711 33.898 95.8707 33.0768C94.6183 32.0905 94.6183 32.0905 94.3548 31.5649C94.336 30.9819 94.3297 30.4046 94.3336 29.8217C94.3339 29.6498 94.3342 29.4778 94.3345 29.3006C94.3358 28.7504 94.3385 28.2002 94.3412 27.65C94.3423 27.2774 94.3433 26.9047 94.3442 26.5321C94.3466 25.6178 94.3503 24.7035 94.3548 23.7892C96.8855 23.6103 99.3977 23.5466 101.935 23.5732Z" fill="#1BA279"/>
<path d="M60.5708 116.233C70.5046 116.233 80.4384 116.233 90.6733 116.233C90.2445 116.732 89.8157 117.231 89.3739 117.745C88.9367 118.286 88.73 118.591 88.5077 119.257C85.1982 119.297 81.8888 119.327 78.5792 119.346C77.0425 119.355 75.5058 119.367 73.9692 119.387C72.4863 119.406 71.0037 119.416 69.5207 119.42C68.9548 119.424 68.3889 119.43 67.823 119.439C67.0306 119.452 66.2389 119.454 65.4464 119.453C65.2121 119.459 64.9778 119.465 64.7364 119.472C63.172 119.454 63.172 119.454 62.5326 118.877C62.1864 118.412 62.1864 118.412 61.911 117.95C61.567 117.387 61.0906 117.061 60.5708 116.665C60.5708 116.522 60.5708 116.38 60.5708 116.233Z" fill="#1BA279"/>
<path d="M101.935 82.9702C109.581 82.9702 117.228 82.9702 125.107 82.9702C124.703 83.776 124.437 84.0671 123.728 84.5817C123.321 84.9259 123.321 84.9259 123.046 85.5724C122.471 86.2542 122.43 86.3026 121.607 86.3741C121.232 86.3817 120.857 86.3821 120.482 86.377C120.277 86.3793 120.072 86.3816 119.86 86.384C119.183 86.3901 118.506 86.387 117.828 86.3839C117.359 86.3863 116.889 86.3893 116.419 86.3929C115.183 86.4007 113.947 86.4007 112.711 86.3992C111.449 86.399 110.188 86.4061 108.926 86.4126C106.451 86.4242 103.976 86.4277 101.501 86.4261C101.644 85.2856 101.787 84.1452 101.935 82.9702Z" fill="#1BA279"/>
<path d="M132.687 110.401C132.556 111.238 132.159 111.737 131.645 112.399C131.468 112.629 131.291 112.858 131.114 113.088C131.019 113.211 130.924 113.334 130.825 113.461C130.502 113.882 130.184 114.308 129.867 114.735C128.453 116.639 127.03 118.465 125.324 120.121C125.167 120.286 125.011 120.451 124.85 120.62C124.457 120.985 124.457 120.985 124.024 120.985C123.944 121.172 123.944 121.172 123.862 121.363C123.551 121.92 123.205 122.294 122.725 122.713C122.582 122.713 122.439 122.713 122.292 122.713C122.292 122.855 122.292 122.998 122.292 123.145C121.858 123.524 121.423 123.876 120.965 124.225C120.828 124.331 120.69 124.437 120.549 124.546C119.401 125.426 118.23 126.271 117.047 127.102C116.442 127.527 115.844 127.959 115.247 128.394C110.597 131.784 110.597 131.784 109.514 131.784C109.826 131.053 110.212 130.627 110.814 130.111C110.966 129.978 111.118 129.845 111.274 129.709C111.68 129.409 111.68 129.409 112.113 129.409C112.113 129.266 112.113 129.123 112.113 128.977C112.45 128.68 112.799 128.399 113.155 128.126C113.933 127.533 113.933 127.533 114.647 126.87C114.929 126.601 114.929 126.601 115.362 126.601C115.362 126.458 115.362 126.316 115.362 126.169C115.678 125.855 115.678 125.855 116.116 125.49C117.067 124.684 117.975 123.84 118.881 122.983C119.913 122.008 120.949 121.041 122.007 120.094C123.534 118.71 124.976 117.239 126.425 115.775C127.435 114.758 128.451 113.771 129.553 112.853C129.899 112.571 129.899 112.571 130.088 112.129C130.231 112.129 130.374 112.129 130.521 112.129C130.57 112.005 130.619 111.88 130.67 111.751C131.155 110.922 131.708 110.401 132.687 110.401Z" fill="#1BA279"/>
<path d="M18.3408 109.537C19.5408 109.765 19.9299 110.272 20.5868 111.219C21.0743 111.879 21.6499 112.423 22.2381 112.993C22.6571 113.41 23.0449 113.841 23.4301 114.289C23.9491 114.891 24.4868 115.46 25.0543 116.017C25.6174 116.57 26.1507 117.133 26.665 117.731C27.8954 119.154 29.2377 120.456 30.6689 121.676C30.9849 121.949 31.2953 122.229 31.6012 122.514C32.6308 123.471 33.6908 124.324 34.8403 125.129C37.1554 126.758 37.1554 126.758 37.8316 127.464C37.9264 128.193 37.9264 128.193 37.8316 128.76C37.4518 128.9 37.4518 128.9 36.9654 128.976C36.5534 128.782 36.5534 128.782 36.1127 128.463C35.9449 128.345 35.7771 128.226 35.6042 128.104C35.4102 127.964 35.2162 127.824 35.0163 127.68C34.647 127.424 34.2765 127.169 33.9059 126.915C33.5405 126.663 33.176 126.411 32.8117 126.158C32.3942 125.87 31.9739 125.585 31.5513 125.304C31.5513 125.162 31.5513 125.019 31.5513 124.872C31.4318 124.821 31.3123 124.77 31.1892 124.717C30.5621 124.373 30.0797 123.946 29.548 123.469C29.3549 123.297 29.1617 123.126 28.9626 122.949C28.5194 122.497 28.5194 122.497 28.5194 122.065C28.2983 122.004 28.2983 122.004 28.0727 121.943C26.7569 121.301 25.8524 120.06 24.9232 118.957C24.66 118.653 24.378 118.366 24.0933 118.082C21.6131 115.609 19.6273 112.796 18.3408 109.537Z" fill="#1BA279"/>
<path d="M112.167 89.6389C112.732 89.6411 113.297 89.6431 113.861 89.6449C115.228 89.6496 116.594 89.6567 117.961 89.6659C117.651 90.2985 117.339 90.857 116.878 91.3939C116.735 91.3939 116.592 91.3939 116.445 91.3939C116.302 91.7503 116.159 92.1066 116.012 92.4738C112.943 92.6443 109.88 92.7133 106.808 92.7168C106.643 92.7174 106.478 92.7179 106.308 92.7185C105.832 92.7197 105.355 92.7194 104.879 92.7185C104.603 92.7183 104.328 92.718 104.044 92.7178C101.664 92.6356 101.664 92.6356 101.285 92.2578C101.264 91.9344 101.257 91.61 101.258 91.2859C101.257 91.1099 101.257 90.9339 101.256 90.7527C101.285 90.3139 101.285 90.3139 101.502 90.0979C105.038 89.5544 108.6 89.6148 112.167 89.6389Z" fill="#1BA279"/>
<path d="M67.501 122.928C72.861 122.928 78.2209 122.928 83.7433 122.928C83.3145 123.499 82.8857 124.069 82.4439 124.656C82.3279 124.901 82.2119 125.146 82.0924 125.398C81.3644 126.182 80.766 126.13 79.7243 126.171C79.4764 126.174 79.2284 126.176 78.973 126.179C78.7172 126.186 78.4614 126.192 78.1979 126.199C77.6571 126.211 77.1163 126.22 76.5754 126.225C75.7474 126.236 74.9207 126.261 74.0931 126.288C73.5676 126.297 73.0421 126.306 72.5166 126.314C72.1454 126.327 72.1454 126.327 71.7667 126.34C70.0943 126.342 70.0943 126.342 69.4798 125.837C69.0983 125.324 68.8004 124.878 68.8004 124.224C68.6664 124.171 68.5324 124.117 68.3943 124.062C67.9341 123.792 67.9341 123.792 67.501 122.928Z" fill="#1BA279"/>
<path d="M61.8701 73.0344C64.6573 73.1413 64.6573 73.1413 67.5008 73.2504C67.5008 75.3174 67.5008 77.3845 67.5008 79.5142C65.7141 79.5142 63.9275 79.5142 62.0867 79.5142C62.0152 77.3758 61.9437 75.2375 61.8701 73.0344Z" fill="white"/>
<path d="M83.5266 73.2507C85.3847 73.2507 87.2429 73.2507 89.1573 73.2507C89.1573 75.2465 89.1573 77.2422 89.1573 79.2985C87.2992 79.2985 85.441 79.2985 83.5266 79.2985C83.5266 77.3027 83.5266 75.307 83.5266 73.2507Z" fill="#1BA279"/>
<path d="M54.2905 73.2507C56.0772 73.2507 57.8638 73.2507 59.7046 73.2507C59.7046 75.3178 59.7046 77.3848 59.7046 79.5145C57.0247 79.6214 57.0247 79.6214 54.2905 79.7305C54.2905 77.5921 54.2905 75.4538 54.2905 73.2507Z" fill="white"/>
<path d="M83.5266 64.1791C84.2949 64.1746 85.0631 64.1702 85.8547 64.1656C86.0955 64.1636 86.3364 64.1616 86.5845 64.1596C86.7758 64.1591 86.9671 64.1585 87.1642 64.158C87.3593 64.1568 87.5544 64.1557 87.7553 64.1545C88.291 64.1791 88.291 64.1791 89.1573 64.3951C89.1573 66.3195 89.1573 68.244 89.1573 70.2268C87.2992 70.2268 85.441 70.2268 83.5266 70.2268C83.5266 68.2311 83.5266 66.2353 83.5266 64.1791Z" fill="#1BA279"/>
<path d="M62.0869 64.3948C63.8736 64.3948 65.6602 64.3948 67.501 64.3948C67.501 66.3905 67.501 68.3863 67.501 70.4425C65.7144 70.4425 63.9277 70.4425 62.0869 70.4425C62.0869 68.4468 62.0869 66.451 62.0869 64.3948Z" fill="white"/>
<path d="M91.9727 73.2507C93.7593 73.2507 95.546 73.2507 97.3868 73.2507C97.3153 75.2465 97.2438 77.2422 97.1702 79.2985C95.455 79.2985 93.7398 79.2985 91.9727 79.2985C91.9727 77.3027 91.9727 75.307 91.9727 73.2507Z" fill="#1BA279"/>
<path d="M91.9727 64.1792C93.6878 64.1792 95.403 64.1792 97.1702 64.1792C97.1702 66.175 97.1702 68.1707 97.1702 70.2269C95.455 70.2982 93.7398 70.3695 91.9727 70.4429C91.9727 68.3759 91.9727 66.3089 91.9727 64.1792Z" fill="#1BA279"/>
<path d="M54.2905 64.3948C56.0772 64.3948 57.8638 64.3948 59.7046 64.3948C59.7046 66.3193 59.7046 68.2437 59.7046 70.2265C57.0247 70.3334 57.0247 70.3334 54.2905 70.4425C54.2905 68.4468 54.2905 66.451 54.2905 64.3948Z" fill="white"/>
<path d="M118.61 36.1001C119.456 36.3988 119.636 36.654 120.099 37.423C120.532 38.5823 120.332 39.7056 119.869 40.8249C119.351 41.4303 118.932 41.6713 118.177 41.9318C116.962 41.8886 115.855 41.595 115.005 40.6865C114.471 39.806 114.6 38.8234 114.712 37.828C115.01 37.1395 115.01 37.1395 115.362 36.7481C115.505 36.7481 115.647 36.7481 115.795 36.7481C115.795 36.6055 115.795 36.4629 115.795 36.3161C116.646 35.8916 117.68 36.0289 118.61 36.1001Z" fill="#1BA279"/>
<path d="M42.4876 29.4179C43.6405 29.7259 43.6405 29.7259 44.1119 30.2684C44.342 30.9974 44.342 30.9974 44.3284 31.7803C43.8953 32.4148 43.8953 32.4148 43.2456 32.8603C42.278 33.0326 41.8926 32.972 41.08 32.4148C40.6468 31.7803 40.6468 31.7803 40.6333 31.0109C40.9815 29.8874 41.2547 29.396 42.4876 29.4179Z" fill="#1BA279"/>
</svg>
