<svg width="161" height="25" viewBox="0 0 161 25" fill="none" xmlns="http://www.w3.org/2000/svg">
<path d="M21 13L72 13" stroke="#0F7757" stroke-linecap="round"/>
<path fill-rule="evenodd" clip-rule="evenodd" d="M12 21C13.1819 21 14.3522 20.7672 15.4442 20.3149C16.5361 19.8626 17.5282 19.1997 18.364 18.364C19.1997 17.5282 19.8626 16.5361 20.3149 15.4442C20.7672 14.3522 21 13.1819 21 12C21 10.8181 20.7672 9.64778 20.3149 8.55585C19.8626 7.46392 19.1997 6.47177 18.364 5.63604C17.5282 4.80031 16.5361 4.13738 15.4442 3.68508C14.3522 3.23279 13.1819 3 12 3C9.61305 3 7.32387 3.94821 5.63604 5.63604C3.94821 7.32387 3 9.61305 3 12C3 14.3869 3.94821 16.6761 5.63604 18.364C7.32387 20.0518 9.61305 21 12 21ZM11.768 15.64L16.768 9.64L15.232 8.36L10.932 13.519L8.707 11.293L7.293 12.707L10.293 15.707L11.067 16.481L11.768 15.64Z" fill="#0F7757"/>
<path d="M148.5 21C143.8 21 140 17.2 140 12.5C140 7.8 143.8 4 148.5 4C153.2 4 157 7.8 157 12.5C157 17.2 153.2 21 148.5 21ZM148.5 5C144.35 5 141 8.35 141 12.5C141 16.65 144.35 20 148.5 20C152.65 20 156 16.65 156 12.5C156 8.35 152.65 5 148.5 5Z" fill="#818181"/>
<path d="M147.5 16.1999L143.15 11.8499L143.85 11.1499L147.5 14.7999L153.15 9.1499L153.85 9.8499L147.5 16.1999Z" fill="#818181"/>
<line x1="89" y1="12.5" x2="140" y2="12.5" stroke="#818181" stroke-dasharray="2 2"/>
<path fill-rule="evenodd" clip-rule="evenodd" d="M80 21C81.1819 21 82.3522 20.7672 83.4442 20.3149C84.5361 19.8626 85.5282 19.1997 86.364 18.364C87.1997 17.5282 87.8626 16.5361 88.3149 15.4442C88.7672 14.3522 89 13.1819 89 12C89 10.8181 88.7672 9.64778 88.3149 8.55585C87.8626 7.46392 87.1997 6.47177 86.364 5.63604C85.5282 4.80031 84.5361 4.13738 83.4442 3.68508C82.3522 3.23279 81.1819 3 80 3C77.6131 3 75.3239 3.94821 73.636 5.63604C71.9482 7.32387 71 9.61305 71 12C71 14.3869 71.9482 16.6761 73.636 18.364C75.3239 20.0518 77.6131 21 80 21ZM79.768 15.64L84.768 9.64L83.232 8.36L78.932 13.519L76.707 11.293L75.293 12.707L78.293 15.707L79.067 16.481L79.768 15.64Z" fill="#0F7757"/>
</svg>
