<svg width="160" height="25" viewBox="0 0 160 25" fill="none" xmlns="http://www.w3.org/2000/svg">
<path d="M21 13L72 13" stroke="#0F7757" stroke-linecap="round"/>
<path d="M88 13L139 13" stroke="#0F7757" stroke-linecap="round"/>
<path fill-rule="evenodd" clip-rule="evenodd" d="M12 21C13.1819 21 14.3522 20.7672 15.4442 20.3149C16.5361 19.8626 17.5282 19.1997 18.364 18.364C19.1997 17.5282 19.8626 16.5361 20.3149 15.4442C20.7672 14.3522 21 13.1819 21 12C21 10.8181 20.7672 9.64778 20.3149 8.55585C19.8626 7.46392 19.1997 6.47177 18.364 5.63604C17.5282 4.80031 16.5361 4.13738 15.4442 3.68508C14.3522 3.23279 13.1819 3 12 3C9.61305 3 7.32387 3.94821 5.63604 5.63604C3.94821 7.32387 3 9.61305 3 12C3 14.3869 3.94821 16.6761 5.63604 18.364C7.32387 20.0518 9.61305 21 12 21ZM11.768 15.64L16.768 9.64L15.232 8.36L10.932 13.519L8.707 11.293L7.293 12.707L10.293 15.707L11.067 16.481L11.768 15.64Z" fill="#0F7757"/>
<path fill-rule="evenodd" clip-rule="evenodd" d="M80 21C81.1819 21 82.3522 20.7672 83.4442 20.3149C84.5361 19.8626 85.5282 19.1997 86.364 18.364C87.1997 17.5282 87.8626 16.5361 88.3149 15.4442C88.7672 14.3522 89 13.1819 89 12C89 10.8181 88.7672 9.64778 88.3149 8.55585C87.8626 7.46392 87.1997 6.47177 86.364 5.63604C85.5282 4.80031 84.5361 4.13738 83.4442 3.68508C82.3522 3.23279 81.1819 3 80 3C77.6131 3 75.3239 3.94821 73.636 5.63604C71.9482 7.32387 71 9.61305 71 12C71 14.3869 71.9482 16.6761 73.636 18.364C75.3239 20.0518 77.6131 21 80 21ZM79.768 15.64L84.768 9.64L83.232 8.36L78.932 13.519L76.707 11.293L75.293 12.707L78.293 15.707L79.067 16.481L79.768 15.64Z" fill="#0F7757"/>
<path fill-rule="evenodd" clip-rule="evenodd" d="M148 22C149.182 22 150.352 21.7672 151.444 21.3149C152.536 20.8626 153.528 20.1997 154.364 19.364C155.2 18.5282 155.863 17.5361 156.315 16.4442C156.767 15.3522 157 14.1819 157 13C157 11.8181 156.767 10.6478 156.315 9.55585C155.863 8.46392 155.2 7.47177 154.364 6.63604C153.528 5.80031 152.536 5.13738 151.444 4.68508C150.352 4.23279 149.182 4 148 4C145.613 4 143.324 4.94821 141.636 6.63604C139.948 8.32387 139 10.6131 139 13C139 15.3869 139.948 17.6761 141.636 19.364C143.324 21.0518 145.613 22 148 22ZM147.768 16.64L152.768 10.64L151.232 9.36L146.932 14.519L144.707 12.293L143.293 13.707L146.293 16.707L147.067 17.481L147.768 16.64Z" fill="#0F7757"/>
</svg>
