<svg width="229" height="26" viewBox="0 0 229 26" fill="none" xmlns="http://www.w3.org/2000/svg">
<path d="M21 14L72 14" stroke="#0F7757" stroke-linecap="round"/>
<path fill-rule="evenodd" clip-rule="evenodd" d="M12 22C13.1819 22 14.3522 21.7672 15.4442 21.3149C16.5361 20.8626 17.5282 20.1997 18.364 19.364C19.1997 18.5282 19.8626 17.5361 20.3149 16.4442C20.7672 15.3522 21 14.1819 21 13C21 11.8181 20.7672 10.6478 20.3149 9.55585C19.8626 8.46392 19.1997 7.47177 18.364 6.63604C17.5282 5.80031 16.5361 5.13738 15.4442 4.68508C14.3522 4.23279 13.1819 4 12 4C9.61305 4 7.32387 4.94821 5.63604 6.63604C3.94821 8.32387 3 10.6131 3 13C3 15.3869 3.94821 17.6761 5.63604 19.364C7.32387 21.0518 9.61305 22 12 22ZM11.768 16.64L16.768 10.64L15.232 9.36L10.932 14.519L8.707 12.293L7.293 13.707L10.293 16.707L11.067 17.481L11.768 16.64Z" fill="#0F7757"/>
<path fill-rule="evenodd" clip-rule="evenodd" d="M80 21C81.1819 21 82.3522 20.7672 83.4442 20.3149C84.5361 19.8626 85.5282 19.1997 86.364 18.364C87.1997 17.5282 87.8626 16.5361 88.3149 15.4442C88.7672 14.3522 89 13.1819 89 12C89 10.8181 88.7672 9.64778 88.3149 8.55585C87.8626 7.46392 87.1997 6.47177 86.364 5.63604C85.5282 4.80031 84.5361 4.13738 83.4442 3.68508C82.3522 3.23279 81.1819 3 80 3C77.6131 3 75.3239 3.94821 73.636 5.63604C71.9482 7.32387 71 9.61305 71 12C71 14.3869 71.9482 16.6761 73.636 18.364C75.3239 20.0518 77.6131 21 80 21ZM79.768 15.64L84.768 9.64L83.232 8.36L78.932 13.519L76.707 11.293L75.293 12.707L78.293 15.707L79.067 16.481L79.768 15.64Z" fill="#0F7757"/>
<path d="M148.5 22C143.8 22 140 18.2 140 13.5C140 8.8 143.8 5 148.5 5C153.2 5 157 8.8 157 13.5C157 18.2 153.2 22 148.5 22ZM148.5 6C144.35 6 141 9.35 141 13.5C141 17.65 144.35 21 148.5 21C152.65 21 156 17.65 156 13.5C156 9.35 152.65 6 148.5 6Z" fill="#818181"/>
<path d="M147.5 17.1999L143.15 12.8499L143.85 12.1499L147.5 15.7999L153.15 10.1499L153.85 10.8499L147.5 17.1999Z" fill="#818181"/>
<path d="M89 14L140 14" stroke="#0F7757" stroke-linecap="round"/>
<path d="M216.5 22C211.8 22 208 18.2 208 13.5C208 8.8 211.8 5 216.5 5C221.2 5 225 8.8 225 13.5C225 18.2 221.2 22 216.5 22ZM216.5 6C212.35 6 209 9.35 209 13.5C209 17.65 212.35 21 216.5 21C220.65 21 224 17.65 224 13.5C224 9.35 220.65 6 216.5 6Z" fill="#818181"/>
<path d="M215.5 17.1999L211.15 12.8499L211.85 12.1499L215.5 15.7999L221.15 10.1499L221.85 10.8499L215.5 17.1999Z" fill="#818181"/>
<line x1="157" y1="13.5" x2="208" y2="13.5" stroke="#818181" stroke-dasharray="2 2"/>
</svg>
