<svg width="18" height="18" viewBox="0 0 18 18" fill="none" xmlns="http://www.w3.org/2000/svg">
<path d="M14.6295 5.97C14.0944 8.05686 13.0083 9.96159 11.485 11.485C9.96159 13.0083 8.05686 14.0944 5.97 14.6295C4.36425 15.0383 3 13.6575 3 12V11.25C3 10.836 3.33675 10.5037 3.74925 10.4625C4.43205 10.3946 5.1023 10.2334 5.74125 9.98325L6.8805 11.1233C8.73665 10.2334 10.2334 8.73665 11.1233 6.8805L9.98325 5.7405C10.2336 5.10159 10.3951 4.43133 10.4633 3.7485C10.5038 3.336 10.836 3 11.25 3H12C13.656 3 15.0375 4.36425 14.6288 5.97" stroke="#0F7757" stroke-width="2" stroke-linecap="round" stroke-linejoin="round"/>
</svg>
