<svg width="129" height="129" viewBox="0 0 129 129" fill="none" xmlns="http://www.w3.org/2000/svg">
<path d="M27.3477 35.8807L25.333 50.646L48.6159 53.8229L50.6306 39.0577L27.3477 35.8807Z" fill="#EBEBEB"/>
<path d="M27.3477 35.8774C28.1655 36.9094 29.0066 37.8976 29.8322 38.9115C30.6578 39.9255 31.5092 40.9059 32.3554 41.8914C33.2352 42.9234 34.1227 43.9554 35.0077 44.9642C35.0361 44.9952 35.0593 45.0287 35.0877 45.0622C35.8737 45.9601 36.6623 46.8571 37.4535 47.7532L37.5696 47.8822L37.7141 47.7893C38.7151 47.1374 39.7145 46.4821 40.7121 45.8233C40.7476 45.8028 40.7821 45.7804 40.8153 45.7563C41.9487 45.0132 43.0771 44.2624 44.2002 43.5039C45.2735 42.7815 46.3519 42.0462 47.4226 41.3109C48.4933 40.5756 49.5666 39.8248 50.6296 39.0534C49.5253 39.6881 48.4314 40.3615 47.3349 41.0168C46.2384 41.6721 45.1445 42.3558 44.0532 43.0421C42.8388 43.7972 41.6245 44.5652 40.4102 45.346C39.5003 45.924 38.5904 46.5053 37.6806 47.0901C36.9659 46.2852 36.2461 45.475 35.5237 44.6778C34.5639 43.608 33.5999 42.5433 32.6315 41.4838C31.7612 40.5343 30.8883 39.5883 30.0128 38.6458C29.1124 37.7273 28.2403 36.7856 27.3477 35.8774Z" fill="white"/>
<path d="M40.3252 45.6792C40.3344 45.6881 40.343 45.6975 40.351 45.7076L40.6761 46.0688C41.1921 46.6415 41.7261 47.1937 42.2705 47.7355C42.9362 48.4011 43.6199 49.0487 44.3087 49.6911C44.9976 50.3335 45.6993 50.9527 46.4192 51.5616C47.139 52.1705 47.864 52.7742 48.6225 53.3366C48.0007 52.622 47.3325 51.946 46.6797 51.2726C46.027 50.5993 45.3278 49.9594 44.6441 49.3196C43.9604 48.6797 43.2483 48.0528 42.5311 47.4413C41.9609 46.9537 41.3778 46.4738 40.7767 46.0146C40.6391 45.9062 40.4998 45.8005 40.3587 45.6973L40.3252 45.6792Z" fill="white"/>
<path d="M25.4512 50.1786C26.3361 49.8381 27.2004 49.4536 28.0518 49.0589C28.9032 48.6642 29.7469 48.241 30.588 47.8179C31.429 47.3948 32.2572 46.9459 33.0751 46.4815C33.7433 46.1048 34.4038 45.7075 35.0514 45.305C35.1933 45.2173 35.33 45.1296 35.4667 45.047L35.4977 45.0264C35.485 45.0296 35.4717 45.0296 35.459 45.0264L34.9688 45.225C34.2696 45.5062 33.5833 45.8158 32.9048 46.1306C32.0508 46.5279 31.2097 46.9459 30.3712 47.3742C29.5327 47.8024 28.7046 48.2462 27.8841 48.7132C27.0637 49.1802 26.2432 49.6549 25.4512 50.1786Z" fill="white"/>
<path d="M33.281 14.5137L14.0254 19.4004L17.1243 31.6114L36.3799 26.7247L33.281 14.5137Z" fill="#EBEBEB"/>
<path d="M14.0244 19.3991C14.9919 19.9461 15.9646 20.4569 16.9347 20.9884C17.9047 21.5199 18.88 22.0204 19.8552 22.5364C20.8717 23.0679 21.8908 23.5865 22.9099 24.1051L23.0028 24.1567L25.7092 25.5163L25.8408 25.5808L25.926 25.4622C26.5039 24.634 27.0766 23.8032 27.652 22.9724C27.6732 22.9442 27.693 22.915 27.7113 22.8847C28.3649 21.9456 29.0116 20.9996 29.6515 20.0467C30.2655 19.1411 30.877 18.2227 31.4833 17.3068C32.0896 16.3909 32.6933 15.4621 33.2893 14.5229C32.6236 15.3692 31.9812 16.2438 31.3285 17.1029C30.6757 17.9621 30.0385 18.847 29.3986 19.7294C28.6866 20.7081 27.9771 21.6953 27.2701 22.6912C26.7421 23.4325 26.2132 24.1764 25.6834 24.9229C24.8578 24.5101 24.0374 24.1102 23.2195 23.7129C22.1256 23.1763 21.0317 22.6465 19.9378 22.1236C18.9574 21.6566 17.9744 21.1922 16.9914 20.7382C16.0084 20.2841 15.0151 19.8274 14.0244 19.3991Z" fill="white"/>
<path d="M27.3066 22.9619C27.3155 22.9681 27.325 22.9732 27.335 22.9774L27.704 23.158C28.2905 23.4418 28.883 23.7084 29.4816 23.9578C30.2143 24.2726 30.9548 24.5615 31.6978 24.8453C32.4408 25.1291 33.189 25.3949 33.945 25.6451C34.7009 25.8954 35.462 26.1379 36.236 26.3391C35.5214 25.9754 34.7938 25.6529 34.0637 25.3407C33.3335 25.0285 32.5853 24.7395 31.8449 24.4557C31.1044 24.1719 30.351 23.9036 29.5951 23.6534C28.994 23.4521 28.3851 23.2586 27.7685 23.0883C27.6266 23.0471 27.4847 23.0109 27.3402 22.9722L27.3066 22.9619Z" fill="white"/>
<path d="M17.0713 31.2181C17.6569 30.6738 18.2117 30.0984 18.7535 29.5153C19.2953 28.9323 19.8267 28.3389 20.3505 27.7429C20.8742 27.1469 21.3825 26.5277 21.8752 25.9059C22.2803 25.3899 22.6776 24.8739 23.0543 24.3579L23.2943 24.0199C23.2943 24.0199 23.2943 24.0019 23.3123 23.9941L23.2865 24.0174C23.1782 24.1206 23.0698 24.2212 22.964 24.327C22.5048 24.7681 22.0636 25.2274 21.6276 25.6944C21.0832 26.2749 20.5569 26.8708 20.0357 27.4694C19.5146 28.068 19.0037 28.682 18.5109 29.3064C18.0181 29.9307 17.5254 30.5473 17.0713 31.2181Z" fill="white"/>
<path d="M113.08 67.4694L93.3496 69.7837L94.8173 82.296L114.548 79.9817L113.08 67.4694Z" fill="#EBEBEB"/>
<path d="M93.3467 69.7894C94.2342 70.4576 95.132 71.0923 96.0221 71.7502C96.9122 72.4081 97.8152 73.0273 98.7157 73.6568C99.6161 74.2863 100.596 74.9648 101.538 75.6124L101.623 75.6743C102.454 76.2437 103.288 76.8121 104.126 77.3797L104.25 77.4597L104.348 77.3539C105.036 76.6092 105.715 75.8618 106.386 75.1119C106.412 75.088 106.436 75.0621 106.458 75.0345C107.227 74.1883 107.992 73.3351 108.754 72.4751C109.482 71.6599 110.207 70.8291 110.929 70.0009C111.652 69.1727 112.372 68.3317 113.079 67.4751C112.305 68.2285 111.556 69.0231 110.795 69.779C110.034 70.535 109.286 71.327 108.535 72.1294C107.701 73.0032 106.869 73.8881 106.04 74.7842C105.419 75.4499 104.799 76.1207 104.178 76.7889C103.419 76.2729 102.66 75.7698 101.902 75.2693C100.891 74.5933 99.8758 73.9242 98.8576 73.262C97.9494 72.6686 97.0369 72.0821 96.1202 71.5025C95.1836 70.9323 94.2703 70.3441 93.3467 69.7894Z" fill="white"/>
<path d="M106.038 75.0781L106.064 75.0962C106.177 75.1736 106.294 75.251 106.407 75.3232C106.951 75.6844 107.504 76.025 108.066 76.3552C108.75 76.7603 109.446 77.1447 110.145 77.5265C110.845 77.9084 111.552 78.2644 112.269 78.6127C112.986 78.961 113.706 79.3016 114.446 79.6009C113.788 79.1468 113.107 78.7314 112.424 78.3289C111.74 77.9264 111.038 77.5369 110.342 77.1576C109.645 76.7783 108.933 76.4146 108.218 76.0663C107.648 75.7876 107.068 75.5167 106.479 75.2665C106.345 75.208 106.208 75.1512 106.069 75.0962L106.038 75.0781Z" fill="white"/>
<path d="M94.8145 81.8973C95.4672 81.4329 96.1044 80.935 96.7056 80.4319C97.3067 79.9288 97.9233 79.3999 98.5116 78.8839C99.0998 78.3679 99.6932 77.8183 100.266 77.2636C100.733 76.8147 101.192 76.358 101.636 75.8833L101.92 75.5789C101.927 75.5717 101.934 75.564 101.94 75.5557C101.932 75.5635 101.923 75.5696 101.912 75.5737L101.553 75.8317C101.037 76.211 100.542 76.6057 100.047 77.0108C99.4301 77.5268 98.8315 78.0428 98.2407 78.5588C97.6499 79.0748 97.0591 79.6243 96.4863 80.179C95.9135 80.7337 95.3511 81.3013 94.8145 81.8973Z" fill="white"/>
<path d="M97.5575 41.182C95.5735 41.2182 92.6839 41.2981 90.7257 41.2981H90.6122V41.182L90.5967 38.295V38.166H90.7257C92.7716 38.166 95.6122 38.1867 97.6298 38.2254C97.6298 39.1 97.573 40.2894 97.5575 41.182ZM97.5575 41.182C97.5317 40.3384 97.5059 39.118 97.4879 38.295L97.5575 38.3647C95.5812 38.4008 92.7303 38.4189 90.7257 38.424L90.8547 38.295V41.182L90.7386 41.0659C92.671 41.0659 95.6122 41.1408 97.5704 41.182H97.5575Z" fill="#EBEBEB"/>
<path d="M93.7463 44.8227C91.7623 44.8588 88.8727 44.9388 86.9145 44.9388H86.801V44.8227L86.7881 41.9357V41.7964H86.9171C88.963 41.7964 91.8036 41.817 93.8212 41.8557C93.8212 42.7303 93.7644 43.9197 93.7489 44.8124L93.7463 44.8227ZM93.7463 44.8227C93.7205 43.9791 93.6947 42.7587 93.6767 41.9357L93.7463 42.0054C91.7701 42.0415 88.9192 42.0595 86.9145 42.0647L87.0435 41.9357L87.028 44.8227L86.9145 44.7066C88.8469 44.7066 91.7881 44.7814 93.7463 44.8227Z" fill="#EBEBEB"/>
<path d="M101.368 44.8227C99.3838 44.8588 96.4942 44.9388 94.536 44.9388H94.4276V44.8227L94.4121 41.9357V41.7964H94.5411C96.587 41.7964 99.4276 41.817 101.445 41.8557C101.445 42.7303 101.388 43.9197 101.373 44.8124L101.368 44.8227ZM101.368 44.8227C101.342 43.9791 101.316 42.7587 101.298 41.9357L101.368 42.0054C99.3941 42.0415 96.5406 42.0595 94.536 42.0647L94.665 41.9357L94.652 44.8227L94.536 44.7066C96.4684 44.7066 99.4096 44.7814 101.368 44.8227Z" fill="#EBEBEB"/>
<path d="M114.384 15.039C112.4 15.0777 109.51 15.1551 107.552 15.1551H107.436V15.039L107.423 12.1519V12.0229H107.554C109.598 12.0229 112.441 12.0436 114.456 12.0823C114.456 12.9569 114.402 14.1463 114.386 15.039H114.384ZM114.384 15.039C114.358 14.1953 114.33 12.975 114.311 12.1519L114.384 12.2216C112.407 12.2577 109.557 12.2758 107.552 12.2809L107.678 12.1519L107.665 15.039L107.552 14.9229C109.482 14.9229 112.425 14.9977 114.384 15.039Z" fill="#EBEBEB"/>
<path d="M118.194 18.6791C116.21 18.7152 113.321 18.7952 111.362 18.7952H111.246V18.6791L111.233 15.7921V15.6631H111.362C113.406 15.6631 116.249 15.6837 118.264 15.7224C118.264 16.597 118.21 17.7864 118.194 18.6791ZM118.194 18.6791C118.168 17.8354 118.14 16.6151 118.122 15.7921L118.194 15.8617C116.218 15.8979 113.367 15.9159 111.362 15.9211L111.491 15.7921L111.476 18.6791L111.362 18.563C113.292 18.563 116.236 18.6378 118.194 18.6791Z" fill="#EBEBEB"/>
<path d="M17.6366 15.0419C15.6526 15.0806 12.763 15.158 10.8048 15.158H10.6913V15.0419L10.6758 12.1549V12.0259H10.8048C12.8507 12.0259 15.6913 12.0465 17.7089 12.0852C17.7089 12.9624 17.6521 14.1492 17.6366 15.0419ZM17.6366 15.0419C17.6108 14.1982 17.585 12.9779 17.567 12.1549L17.6366 12.2271C15.6629 12.2607 12.8094 12.2787 10.8048 12.2839L10.9338 12.1549L10.9209 15.0419L10.8048 14.9284C12.7372 14.9284 15.6784 15.0032 17.6366 15.0419Z" fill="#EBEBEB"/>
<path d="M111.363 82.1757C113.347 82.137 116.237 82.0596 118.195 82.0596H118.309V82.1757L118.324 85.0627V85.1917H118.195C116.149 85.1917 113.309 85.1711 111.291 85.1324C111.291 84.2552 111.348 83.0684 111.363 82.1757ZM111.363 82.1757C111.389 83.0193 111.415 84.2397 111.433 85.0627L111.363 84.9905C113.337 84.9569 116.19 84.9389 118.195 84.9337L118.066 85.0627L118.079 82.1757L118.195 82.2892C116.263 82.2892 113.321 82.2144 111.363 82.1757Z" fill="#EBEBEB"/>
<path d="M10.8052 82.1757C12.7892 82.137 15.6788 82.0596 17.6371 82.0596H17.7532V82.1757V85.0627V85.1917H17.6242C15.5808 85.1917 12.7376 85.1711 10.7227 85.1324C10.7227 84.2552 10.7768 83.0684 10.7923 82.1757H10.8052ZM10.8052 82.1757C10.831 83.0193 10.8594 84.2397 10.8775 85.0627L10.8052 84.9905C12.7815 84.9569 15.6324 84.9389 17.6371 84.9337L17.5081 85.0627L17.5235 82.1757L17.6371 82.2892C15.7072 82.2892 12.7634 82.2144 10.8052 82.1757Z" fill="#EBEBEB"/>
<path d="M14.6154 78.5355C16.5994 78.4968 19.489 78.4194 21.4473 78.4194H21.5634V78.5355V81.4225V81.5515H21.4318C19.3884 81.5515 16.5453 81.5309 14.5303 81.4922C14.5303 80.615 14.5845 79.4282 14.5999 78.5355H14.6154ZM14.6154 78.5355C14.6412 79.3792 14.6696 80.5995 14.6877 81.4225L14.6154 81.3503C16.5917 81.3168 19.4426 81.2987 21.4473 81.2935L21.3208 81.4225V78.5355L21.4344 78.649C19.5045 78.649 16.5607 78.5742 14.6025 78.5355H14.6154Z" fill="#EBEBEB"/>
<path d="M10.3203 115.721C45.0368 115.563 83.9793 115.563 118.696 115.721C83.9793 115.881 45.0368 115.878 10.3203 115.721Z" fill="#263238"/>
<path d="M98.0866 15.0415H53.628C53.0318 15.0469 52.4425 15.1697 51.8938 15.4029C51.3451 15.6362 50.8477 15.9752 50.4301 16.4008C50.0125 16.8263 49.6828 17.3299 49.4599 17.8829C49.237 18.4359 49.1253 19.0274 49.1311 19.6236V111.139C49.1208 112.342 49.5885 113.501 50.4316 114.36C51.2748 115.219 52.4244 115.709 53.628 115.721H98.0866C99.2909 115.709 100.441 115.22 101.286 114.361C102.13 113.502 102.598 112.343 102.589 111.139V19.6236C102.599 18.419 102.131 17.2597 101.286 16.4005C100.442 15.5412 99.2911 15.0524 98.0866 15.0415ZM99.7739 108.309C99.7739 110.718 97.9679 112.666 95.7465 112.666H55.9861C53.7544 112.666 51.951 110.718 51.951 108.309V23.0911C51.951 18.1891 53.757 17.9311 55.9861 17.9311H63.9532C64.415 17.9311 64.7943 18.4471 64.7943 19.1102V19.3914C64.7943 20.9187 65.6302 20.9239 66.657 20.9239H85.0808C86.1128 20.9239 86.9461 20.9239 86.9461 19.3914V19.1231C86.9461 18.4703 87.3202 17.944 87.7924 17.944H95.7568C97.9808 17.944 99.7842 18.5967 99.7842 23.104L99.7739 108.309Z" fill="#263238"/>
<path d="M99.7766 23.0912V108.309C99.7766 110.718 97.9706 112.666 95.7492 112.666H55.9863C53.7546 112.666 51.9512 110.718 51.9512 108.309V23.0912C51.9512 18.1892 53.7572 17.9312 55.9863 17.9312H63.9533C64.4152 17.9312 64.7944 18.4472 64.7944 19.1102V19.3914C64.7944 20.9188 65.6303 20.924 66.6572 20.924H85.0809C86.1129 20.924 86.9463 20.924 86.9463 19.3914V19.1231C86.9463 18.4704 87.3204 17.9441 87.7925 17.9441H95.757C97.9732 17.9441 99.7766 18.5968 99.7766 23.0912Z" fill="white"/>
<path d="M99.7766 23.0936V30.8336H51.9434V23.0936C51.9434 18.1916 53.7494 17.9336 55.9785 17.9336H63.9455C64.4073 17.9336 64.7866 18.4496 64.7866 19.1127V19.3939C64.7866 20.9212 65.6225 20.9264 66.6494 20.9264H85.0731C86.1051 20.9264 86.9385 20.9264 86.9385 19.3939V19.1256C86.9385 18.4728 87.3126 17.9465 87.7847 17.9465H95.7492C97.9731 17.9465 99.7766 18.5992 99.7766 23.0936Z" fill="#0F7757"/>
<path d="M78.3726 18.9553H73.3467C73.3058 18.9553 73.2654 18.9472 73.2276 18.9315C73.1899 18.9157 73.1557 18.8927 73.1269 18.8637C73.0981 18.8347 73.0754 18.8002 73.0599 18.7624C73.0445 18.7245 73.0368 18.684 73.0371 18.6431C73.0371 18.6024 73.0451 18.5622 73.0607 18.5246C73.0762 18.4871 73.0991 18.4529 73.1278 18.4242C73.1565 18.3954 73.1907 18.3726 73.2282 18.3571C73.2658 18.3415 73.3061 18.3335 73.3467 18.3335H78.3726C78.4132 18.3335 78.4535 18.3415 78.491 18.3571C78.5286 18.3726 78.5627 18.3954 78.5915 18.4242C78.6202 18.4529 78.643 18.4871 78.6586 18.5246C78.6742 18.5622 78.6822 18.6024 78.6822 18.6431C78.6822 18.7254 78.6496 18.8045 78.5916 18.8629C78.5337 18.9214 78.4549 18.9546 78.3726 18.9553Z" fill="white"/>
<path d="M59.2108 25.2324H55.0596V27.864H59.2108V25.2324Z" fill="white"/>
<path d="M59.2112 25.2324C59.0435 25.3924 58.8732 25.5472 58.6952 25.7046C58.5172 25.8619 58.3546 26.0142 58.1792 26.1664L57.6426 26.6411L57.6245 26.6566L57.1472 27.072L57.124 27.09L57.1008 27.072L56.6235 26.654H56.6054L56.0662 26.1793L55.5502 25.7175C55.3825 25.5601 55.2096 25.4053 55.0342 25.2453L55.5657 25.6684C55.7411 25.8129 55.9165 25.9548 56.0817 26.1019C56.2468 26.2489 56.4687 26.427 56.6647 26.5921L57.1008 26.9636C57.2452 26.8398 57.3897 26.7056 57.5368 26.5921L58.1199 26.1019L58.6359 25.671C58.8577 25.5136 59.0332 25.3717 59.2112 25.2324Z" fill="#0F7757"/>
<path d="M56.7058 26.6387L56.6413 26.6929C56.5355 26.7806 56.4297 26.8657 56.3213 26.9509C56.213 27.036 56.0633 27.1469 55.9189 27.2424C55.7744 27.3379 55.6454 27.4307 55.5035 27.521C55.3616 27.6113 55.2223 27.6991 55.0752 27.779C55.2016 27.6681 55.3332 27.5649 55.4648 27.4643C55.5964 27.3637 55.7228 27.2682 55.8673 27.1727C56.0117 27.0773 56.1433 26.9844 56.2826 26.8941C56.422 26.8038 56.5071 26.7522 56.6232 26.6851L56.7058 26.6413V26.6387Z" fill="#0F7757"/>
<path d="M59.2038 27.7815C59.0567 27.7015 58.9148 27.6138 58.7755 27.5235C58.6362 27.4332 58.4969 27.3403 58.3601 27.2448C58.2234 27.1494 58.1021 27.0539 57.9551 26.9533C57.808 26.8527 57.7409 26.7882 57.6377 26.6953L57.5732 26.6411L57.6558 26.6876C57.7693 26.7546 57.8828 26.8243 57.9964 26.8965C58.1357 26.9868 58.2724 27.0797 58.4092 27.1752C58.5459 27.2706 58.6801 27.3661 58.8116 27.4667C58.9432 27.5673 59.0825 27.6705 59.2038 27.7815Z" fill="#0F7757"/>
<path d="M60.1145 25.2324C60.115 25.4091 60.063 25.5819 59.9653 25.729C59.8675 25.8762 59.7283 25.991 59.5652 26.059C59.4021 26.1269 59.2225 26.145 59.0492 26.1108C58.8759 26.0767 58.7166 25.9918 58.5915 25.8671C58.4664 25.7424 58.3811 25.5833 58.3464 25.4101C58.3118 25.2368 58.3293 25.0572 58.3968 24.894C58.4643 24.7307 58.5787 24.5911 58.7256 24.4929C58.8724 24.3947 59.0451 24.3423 59.2218 24.3423C59.4581 24.3423 59.6848 24.436 59.8521 24.6028C60.0194 24.7697 60.1138 24.9961 60.1145 25.2324Z" fill="#455A64"/>
<path d="M59.5054 25.4105C59.5054 25.4199 59.5035 25.4291 59.4999 25.4378C59.4962 25.4464 59.4909 25.4542 59.4841 25.4607C59.4774 25.4672 59.4694 25.4723 59.4606 25.4756C59.4519 25.4789 59.4425 25.4805 59.4332 25.4801H59.4203V25.5782C59.4206 25.5874 59.4191 25.5967 59.4157 25.6053C59.4123 25.6139 59.4072 25.6217 59.4007 25.6283C59.3941 25.6348 59.3863 25.6399 59.3777 25.6433C59.3691 25.6467 59.3599 25.6482 59.3506 25.6478C59.3321 25.6478 59.3144 25.6405 59.3014 25.6274C59.2883 25.6144 59.281 25.5967 59.281 25.5782V25.4801H58.8785C58.8705 25.4808 58.8625 25.4798 58.8549 25.4771C58.8473 25.4744 58.8404 25.4702 58.8346 25.4647C58.8217 25.4516 58.8145 25.434 58.8145 25.4156C58.8145 25.3973 58.8217 25.3797 58.8346 25.3666L59.2964 24.7681H59.3506V25.2841H59.3635C59.3803 25.2652 59.4038 25.2539 59.429 25.2524C59.4542 25.251 59.4789 25.2596 59.4977 25.2763C59.5165 25.2931 59.5279 25.3166 59.5293 25.3418C59.5308 25.367 59.5222 25.3917 59.5054 25.4105ZM59.281 25.0235L59.023 25.3408H59.281V25.0235Z" fill="white"/>
<path d="M62.5682 19.7834L62.4908 19.8608L62.4469 19.9046C62.25 19.7082 61.9833 19.5978 61.7052 19.5978C61.427 19.5978 61.1603 19.7082 60.9634 19.9046C60.9483 19.8913 60.9345 19.8766 60.9221 19.8608L60.8447 19.7859L60.9428 19.6982C61.0932 19.5777 61.27 19.4946 61.4588 19.4557C61.5078 19.4557 61.5594 19.4557 61.6084 19.4351H61.7374H61.8406C61.9342 19.4458 62.0261 19.4683 62.1141 19.5021C62.1783 19.5252 62.2404 19.5537 62.2998 19.5873C62.3619 19.6232 62.4206 19.6647 62.4753 19.7111L62.5578 19.7859L62.5682 19.7834Z" fill="white"/>
<path d="M61.2062 20.1473C61.1675 20.106 61.1262 20.0673 61.085 20.026C61.2164 19.8868 61.3909 19.7959 61.5803 19.768C61.7161 19.7492 61.8545 19.7627 61.9841 19.8076C62.1137 19.8524 62.2308 19.9273 62.3259 20.026L62.2021 20.1473C62.0697 20.0159 61.8907 19.9421 61.7042 19.9421C61.5176 19.9421 61.3386 20.0159 61.2062 20.1473Z" fill="white"/>
<path d="M62.0808 20.2682L61.9595 20.3894C61.9261 20.3548 61.886 20.3272 61.8417 20.3084C61.7973 20.2896 61.7497 20.2799 61.7015 20.2799C61.6534 20.2799 61.6057 20.2896 61.5614 20.3084C61.5171 20.3272 61.477 20.3548 61.4435 20.3894L61.3223 20.2682C61.3706 20.2158 61.4292 20.174 61.4945 20.1454C61.5598 20.1168 61.6303 20.1021 61.7015 20.1021C61.7728 20.1021 61.8433 20.1168 61.9085 20.1454C61.9738 20.174 62.0325 20.2158 62.0808 20.2682Z" fill="white"/>
<path d="M61.8143 20.4979C61.8168 20.5137 61.8158 20.5298 61.8114 20.5452C61.807 20.5606 61.7993 20.5748 61.7889 20.587C61.7785 20.5991 61.7656 20.6089 61.751 20.6155C61.7365 20.6222 61.7207 20.6257 61.7047 20.6257C61.6887 20.6257 61.6729 20.6222 61.6584 20.6155C61.6438 20.6089 61.6309 20.5991 61.6205 20.587C61.6101 20.5748 61.6024 20.5606 61.598 20.5452C61.5936 20.5298 61.5926 20.5137 61.595 20.4979C61.5991 20.4717 61.6123 20.4478 61.6325 20.4305C61.6526 20.4133 61.6782 20.4038 61.7047 20.4038C61.7312 20.4038 61.7568 20.4133 61.7769 20.4305C61.797 20.4478 61.8103 20.4717 61.8143 20.4979Z" fill="white"/>
<path d="M55.0596 20.0156C55.0596 19.9528 55.0782 19.8915 55.1131 19.8393C55.1479 19.7871 55.1975 19.7464 55.2555 19.7224C55.3135 19.6984 55.3773 19.6921 55.4388 19.7043C55.5004 19.7166 55.5569 19.7468 55.6013 19.7912C55.6457 19.8356 55.6759 19.8921 55.6882 19.9537C55.7004 20.0152 55.6941 20.079 55.6701 20.137C55.6461 20.195 55.6054 20.2446 55.5532 20.2794C55.501 20.3143 55.4397 20.3329 55.3769 20.3329C55.3352 20.3329 55.294 20.3247 55.2555 20.3088C55.217 20.2928 55.182 20.2694 55.1525 20.24C55.123 20.2105 55.0997 20.1755 55.0837 20.137C55.0678 20.0985 55.0596 20.0573 55.0596 20.0156Z" fill="white"/>
<path d="M56.0586 20.0156C56.0586 19.9528 56.0772 19.8915 56.1121 19.8393C56.1469 19.7871 56.1965 19.7464 56.2545 19.7224C56.3125 19.6984 56.3763 19.6921 56.4378 19.7043C56.4994 19.7166 56.5559 19.7468 56.6003 19.7912C56.6447 19.8356 56.6749 19.8921 56.6872 19.9537C56.6994 20.0152 56.6931 20.079 56.6691 20.137C56.6451 20.195 56.6044 20.2446 56.5522 20.2794C56.5001 20.3143 56.4387 20.3329 56.3759 20.3329C56.3343 20.3329 56.293 20.3247 56.2545 20.3088C56.216 20.2928 56.181 20.2694 56.1515 20.24C56.1221 20.2105 56.0987 20.1755 56.0827 20.137C56.0668 20.0985 56.0586 20.0573 56.0586 20.0156Z" fill="white"/>
<path d="M57.0566 20.0156C57.0566 19.9528 57.0753 19.8915 57.1101 19.8393C57.145 19.7871 57.1946 19.7464 57.2525 19.7224C57.3105 19.6984 57.3743 19.6921 57.4359 19.7043C57.4975 19.7166 57.554 19.7468 57.5984 19.7912C57.6428 19.8356 57.673 19.8921 57.6852 19.9537C57.6975 20.0152 57.6912 20.079 57.6672 20.137C57.6431 20.195 57.6025 20.2446 57.5503 20.2794C57.4981 20.3143 57.4367 20.3329 57.374 20.3329C57.2898 20.3329 57.2091 20.2995 57.1496 20.24C57.0901 20.1805 57.0566 20.0997 57.0566 20.0156Z" fill="white"/>
<path d="M58.0498 20.0156C58.0498 19.9528 58.0684 19.8915 58.1033 19.8393C58.1382 19.7871 58.1877 19.7464 58.2457 19.7224C58.3037 19.6984 58.3675 19.6921 58.4291 19.7043C58.4906 19.7166 58.5472 19.7468 58.5915 19.7912C58.6359 19.8356 58.6661 19.8921 58.6784 19.9537C58.6906 20.0152 58.6843 20.079 58.6603 20.137C58.6363 20.195 58.5956 20.2446 58.5434 20.2794C58.4913 20.3143 58.4299 20.3329 58.3671 20.3329C58.283 20.3329 58.2023 20.2995 58.1428 20.24C58.0832 20.1805 58.0498 20.0997 58.0498 20.0156Z" fill="white"/>
<path d="M59.0537 20.0156C59.0537 19.9528 59.0723 19.8915 59.1072 19.8393C59.1421 19.7871 59.1916 19.7464 59.2496 19.7224C59.3076 19.6984 59.3714 19.6921 59.433 19.7043C59.4945 19.7166 59.5511 19.7468 59.5954 19.7912C59.6398 19.8356 59.67 19.8921 59.6823 19.9537C59.6945 20.0152 59.6883 20.079 59.6642 20.137C59.6402 20.195 59.5995 20.2446 59.5474 20.2794C59.4952 20.3143 59.4338 20.3329 59.371 20.3329C59.3294 20.3329 59.2881 20.3247 59.2496 20.3088C59.2111 20.2928 59.1761 20.2694 59.1467 20.24C59.1172 20.2105 59.0938 20.1755 59.0779 20.137C59.0619 20.0985 59.0537 20.0573 59.0537 20.0156Z" fill="white"/>
<path d="M96.1874 20.7098H93.6074V19.5127H96.1874V20.7098ZM93.739 20.5782H96.061V19.6443H93.739V20.5782Z" fill="white"/>
<path d="M95.4864 19.7163H93.8223V20.5058H95.4864V19.7163Z" fill="white"/>
<path d="M96.4201 19.7915H96.1904V20.4313H96.4201V19.7915Z" fill="white"/>
<path d="M71.7451 25.7432C71.7448 25.7228 71.7486 25.7025 71.7562 25.6836C71.7639 25.6646 71.7753 25.6474 71.7897 25.633C71.8041 25.6185 71.8214 25.6071 71.8403 25.5995C71.8592 25.5918 71.8795 25.5881 71.8999 25.5884C71.9412 25.5884 71.9809 25.6046 72.0103 25.6336C72.0398 25.6625 72.0566 25.7019 72.0573 25.7432V27.397C72.0566 27.4383 72.0398 27.4776 72.0103 27.5066C71.9809 27.5356 71.9412 27.5518 71.8999 27.5518C71.8795 27.5521 71.8592 27.5484 71.8403 27.5407C71.8214 27.5331 71.8041 27.5217 71.7897 27.5072C71.7753 27.4928 71.7639 27.4756 71.7562 27.4566C71.7486 27.4377 71.7448 27.4174 71.7451 27.397V25.7432Z" fill="white"/>
<path d="M72.8902 27.3969C72.8896 27.4373 72.8734 27.4759 72.8451 27.5047C72.8167 27.5336 72.7784 27.5504 72.738 27.5517C72.7177 27.5517 72.6975 27.5477 72.6787 27.5399C72.66 27.5321 72.6429 27.5207 72.6285 27.5064C72.6141 27.492 72.6027 27.4749 72.595 27.4561C72.5872 27.4374 72.5832 27.4172 72.5832 27.3969V25.7663C72.5816 25.7335 72.5908 25.701 72.6092 25.6738C72.6276 25.6466 72.6544 25.626 72.6855 25.6153C72.7166 25.6045 72.7503 25.6042 72.7816 25.6142C72.8129 25.6242 72.8402 25.6441 72.8592 25.6709L73.7648 26.9248V25.7663C73.7655 25.7269 73.7815 25.6892 73.8094 25.6613C73.8373 25.6333 73.875 25.6174 73.9145 25.6167C73.9546 25.6167 73.9933 25.6323 74.0221 25.6602C74.051 25.6881 74.0679 25.7262 74.0693 25.7663V27.3969C74.0693 27.438 74.053 27.4773 74.0239 27.5064C73.9949 27.5354 73.9555 27.5517 73.9145 27.5517C73.8926 27.551 73.8711 27.5455 73.8515 27.5357C73.8319 27.5259 73.8147 27.512 73.8009 27.4949L73.7855 27.4795L72.8902 26.2333V27.3969Z" fill="white"/>
<path d="M74.7451 27.397V25.7432C74.7448 25.723 74.7485 25.7029 74.756 25.6841C74.7635 25.6654 74.7746 25.6483 74.7888 25.6339C74.803 25.6195 74.8199 25.608 74.8385 25.6002C74.8571 25.5924 74.8771 25.5884 74.8974 25.5884H75.2973C75.4382 25.5884 75.5734 25.6444 75.6731 25.744C75.7727 25.8437 75.8287 25.9789 75.8287 26.1199C75.8303 26.2353 75.793 26.348 75.723 26.4398C75.8341 26.5087 75.9197 26.612 75.9668 26.7339C76.0139 26.8559 76.02 26.9899 75.9841 27.1156C75.9483 27.2413 75.8724 27.3519 75.768 27.4306C75.6636 27.5093 75.5364 27.5519 75.4056 27.5518H74.9103C74.8891 27.5532 74.8678 27.5502 74.8478 27.5431C74.8279 27.5359 74.8096 27.5248 74.7941 27.5102C74.7786 27.4957 74.7662 27.4782 74.7578 27.4587C74.7494 27.4392 74.7451 27.4182 74.7451 27.397ZM75.0547 26.3495H75.2973C75.357 26.3481 75.4138 26.3233 75.4554 26.2803C75.4969 26.2373 75.5198 26.1796 75.5191 26.1199C75.5191 26.0908 75.5134 26.0621 75.5022 26.0353C75.491 26.0086 75.4746 25.9843 75.454 25.9639C75.4334 25.9435 75.4089 25.9274 75.382 25.9165C75.3551 25.9056 75.3263 25.9002 75.2973 25.9006H75.0547V26.3495ZM75.0547 27.2396H75.4056C75.4779 27.2328 75.545 27.1992 75.5938 27.1456C75.6427 27.0919 75.6698 27.0219 75.6698 26.9493C75.6698 26.8768 75.6427 26.8068 75.5938 26.7531C75.545 26.6994 75.4779 26.6659 75.4056 26.6591H75.0547V27.2396Z" fill="white"/>
<path d="M77.9603 25.831C78.1425 26.0228 78.2441 26.2772 78.2441 26.5418C78.2441 26.8063 78.1425 27.0608 77.9603 27.2526C77.8749 27.3457 77.7713 27.4203 77.6559 27.4718C77.5406 27.5232 77.4158 27.5505 77.2895 27.5518C77.1608 27.5509 77.0337 27.5239 76.9157 27.4725C76.7978 27.4211 76.6915 27.3462 76.6032 27.2526C76.4239 27.0593 76.3242 26.8054 76.3242 26.5418C76.3242 26.2781 76.4239 26.0242 76.6032 25.831C76.692 25.7387 76.7986 25.6655 76.9166 25.6158C77.0346 25.5661 77.1615 25.541 77.2895 25.542C77.4152 25.5416 77.5396 25.567 77.655 25.6167C77.7704 25.6665 77.8743 25.7394 77.9603 25.831ZM77.9242 26.5405C77.9229 26.3592 77.855 26.1847 77.7333 26.0503C77.6764 25.9877 77.6071 25.9377 77.5298 25.9034C77.4525 25.8692 77.3689 25.8515 77.2843 25.8515C77.1998 25.8515 77.1162 25.8692 77.0389 25.9034C76.9615 25.9377 76.8923 25.9877 76.8354 26.0503C76.7115 26.1833 76.6432 26.3587 76.6445 26.5405C76.6424 26.7224 76.7109 26.8981 76.8354 27.0307C76.8918 27.094 76.961 27.1447 77.0383 27.1794C77.1157 27.2141 77.1995 27.232 77.2843 27.232C77.3691 27.232 77.453 27.2141 77.5303 27.1794C77.6077 27.1447 77.6769 27.094 77.7333 27.0307C77.853 26.8957 77.9183 26.7209 77.9164 26.5405H77.9242Z" fill="white"/>
<path d="M80.0626 25.8542L79.5286 26.574L80.0626 27.3016C80.0745 27.3179 80.083 27.3365 80.0876 27.3562C80.0922 27.3759 80.0928 27.3963 80.0895 27.4162C80.0861 27.4361 80.0788 27.4552 80.068 27.4723C80.0572 27.4894 80.0431 27.5041 80.0265 27.5157C80.0017 27.5358 79.9707 27.5467 79.9388 27.5467C79.9142 27.5462 79.8901 27.5401 79.8682 27.5289C79.8463 27.5178 79.8272 27.5018 79.8124 27.4822L79.3402 26.832L78.8655 27.4796C78.8514 27.4987 78.8331 27.5143 78.8122 27.5255C78.7912 27.5367 78.768 27.543 78.7443 27.5441C78.7115 27.5445 78.6796 27.5336 78.654 27.5131C78.6374 27.5015 78.6233 27.4868 78.6125 27.4697C78.6017 27.4526 78.5943 27.4336 78.591 27.4136C78.5876 27.3937 78.5883 27.3733 78.5929 27.3536C78.5975 27.3339 78.606 27.3153 78.6178 27.299L79.1493 26.5714L78.6178 25.8464C78.606 25.8303 78.5976 25.8119 78.593 25.7924C78.5885 25.7729 78.5878 25.7527 78.5912 25.733C78.5946 25.7133 78.6019 25.6945 78.6126 25.6776C78.6234 25.6607 78.6375 25.6462 78.654 25.6349C78.6695 25.6218 78.6877 25.6123 78.7073 25.6068C78.7268 25.6014 78.7473 25.6003 78.7674 25.6034C78.7874 25.6066 78.8066 25.6141 78.8235 25.6253C78.8404 25.6365 78.8548 25.6512 78.8655 25.6684L79.3402 26.3134L79.8124 25.6684C79.8234 25.6511 79.838 25.6364 79.8551 25.6251C79.8723 25.6139 79.8916 25.6065 79.9119 25.6033C79.9321 25.6001 79.9528 25.6013 79.9726 25.6067C79.9924 25.6122 80.0107 25.6218 80.0265 25.6349C80.0441 25.6462 80.0592 25.6611 80.0707 25.6786C80.0822 25.6961 80.0899 25.7158 80.0933 25.7365C80.0967 25.7572 80.0958 25.7783 80.0905 25.7986C80.0852 25.8189 80.0757 25.8378 80.0626 25.8542Z" fill="white"/>
<path d="M93.1901 27.5364L92.865 27.7944L92.2639 26.9998L92.042 26.7083C92.0872 26.6911 92.1297 26.6676 92.1684 26.6386C92.242 26.5819 92.2997 26.5073 92.3361 26.4219L92.5709 26.7289L93.1901 27.5364Z" fill="white"/>
<path d="M92.5498 25.6634C92.443 25.5203 92.296 25.4124 92.1276 25.3533C91.9592 25.2943 91.777 25.2867 91.6042 25.3317C91.4315 25.3767 91.2761 25.4721 91.1578 25.6058C91.0396 25.7395 90.9639 25.9055 90.9404 26.0824C90.9169 26.2593 90.9467 26.4393 91.026 26.5992C91.1052 26.7591 91.2303 26.8918 91.3853 26.9803C91.5403 27.0688 91.7182 27.1091 91.8962 27.096C92.0742 27.0829 92.2443 27.0171 92.3847 26.9069C92.4561 26.8532 92.5187 26.7888 92.5705 26.716C92.6798 26.5613 92.7368 26.3757 92.7331 26.1863C92.7294 25.9969 92.6652 25.8136 92.5498 25.6634ZM92.168 26.6257C92.1293 26.6547 92.0868 26.6782 92.0416 26.6954C91.9307 26.7375 91.8086 26.7401 91.696 26.7028C91.5834 26.6654 91.487 26.5904 91.4233 26.4903C91.3595 26.3903 91.3321 26.2713 91.3458 26.1535C91.3595 26.0356 91.4134 25.926 91.4984 25.8433C91.5834 25.7605 91.6944 25.7095 91.8125 25.699C91.9307 25.6885 92.0489 25.719 92.1472 25.7854C92.2456 25.8518 92.318 25.9501 92.3523 26.0637C92.3866 26.1773 92.3808 26.2992 92.3357 26.409C92.2993 26.4944 92.2415 26.569 92.168 26.6257Z" fill="white"/>
<path d="M88.7751 25.3691H86.417V27.7273H88.7751V25.3691Z" fill="white"/>
<path d="M87.7258 25.8076H87.4678V27.2911H87.7258V25.8076Z" fill="#0F7757"/>
<path d="M86.8555 26.4217V26.6797H88.339V26.4217H86.8555Z" fill="#0F7757"/>
<path d="M96.185 25.5217C96.185 25.562 96.173 25.6014 96.1506 25.6349C96.1282 25.6684 96.0964 25.6946 96.0592 25.71C96.0219 25.7254 95.9809 25.7295 95.9414 25.7216C95.9019 25.7137 95.8655 25.6943 95.837 25.6658C95.8085 25.6373 95.7891 25.601 95.7813 25.5615C95.7734 25.5219 95.7774 25.4809 95.7929 25.4437C95.8083 25.4065 95.8344 25.3746 95.8679 25.3522C95.9014 25.3298 95.9408 25.3179 95.9812 25.3179C96.0079 25.3179 96.0344 25.3231 96.0592 25.3334C96.0839 25.3436 96.1064 25.3586 96.1253 25.3776C96.1442 25.3965 96.1592 25.419 96.1695 25.4437C96.1797 25.4684 96.185 25.4949 96.185 25.5217Z" fill="white"/>
<path d="M96.185 26.5739C96.185 26.6142 96.173 26.6537 96.1506 26.6872C96.1282 26.7207 96.0964 26.7468 96.0592 26.7622C96.0219 26.7777 95.9809 26.7817 95.9414 26.7738C95.9019 26.766 95.8655 26.7466 95.837 26.7181C95.8085 26.6896 95.7891 26.6532 95.7813 26.6137C95.7734 26.5742 95.7774 26.5332 95.7929 26.4959C95.8083 26.4587 95.8344 26.4269 95.8679 26.4045C95.9014 26.3821 95.9408 26.3701 95.9812 26.3701C96.0352 26.3701 96.0871 26.3916 96.1253 26.4298C96.1635 26.468 96.185 26.5199 96.185 26.5739Z" fill="white"/>
<path d="M96.185 27.6369C96.185 27.6772 96.173 27.7166 96.1506 27.7502C96.1282 27.7837 96.0964 27.8098 96.0592 27.8252C96.0219 27.8407 95.9809 27.8447 95.9414 27.8368C95.9019 27.829 95.8655 27.8096 95.837 27.781C95.8085 27.7525 95.7891 27.7162 95.7813 27.6767C95.7734 27.6372 95.7774 27.5962 95.7929 27.5589C95.8083 27.5217 95.8344 27.4899 95.8679 27.4675C95.9014 27.4451 95.9408 27.4331 95.9812 27.4331C96.0352 27.4331 96.0871 27.4546 96.1253 27.4928C96.1635 27.531 96.185 27.5829 96.185 27.6369Z" fill="white"/>
<path d="M99.7766 82.5317H51.9434V89.9183H99.7766V82.5317Z" fill="#0F7757"/>
<path opacity="0.7" d="M99.7766 82.5317H51.9434V89.9183H99.7766V82.5317Z" fill="white"/>
<path d="M99.7766 67.7588H51.9434V75.1453H99.7766V67.7588Z" fill="#0F7757"/>
<path opacity="0.7" d="M99.7766 67.7588H51.9434V75.1453H99.7766V67.7588Z" fill="white"/>
<path d="M99.7766 30.8232H51.9434V38.2098H99.7766V30.8232Z" fill="#EBEBEB"/>
<path d="M59.7164 35.9445C59.5677 36.0375 59.4047 36.1054 59.2339 36.1457C58.8245 36.2452 58.3925 36.1867 58.0243 35.9818C57.6561 35.7769 57.3787 35.4407 57.2474 35.0403C57.1161 34.6399 57.1406 34.2047 57.3161 33.8215C57.4915 33.4384 57.805 33.1355 58.1939 32.9733C58.5828 32.8111 59.0186 32.8014 59.4143 32.9464C59.81 33.0913 60.1365 33.38 60.3286 33.7551C60.5208 34.1301 60.5645 34.5638 60.451 34.9696C60.3376 35.3754 60.0752 35.7235 59.7164 35.9445Z" fill="#0F7757"/>
<path d="M59.3406 34.3143C59.3406 34.4164 59.3103 34.5162 59.2536 34.601C59.1969 34.6859 59.1163 34.752 59.0221 34.7911C58.9278 34.8301 58.824 34.8403 58.7239 34.8204C58.6238 34.8005 58.5319 34.7514 58.4597 34.6792C58.3876 34.607 58.3384 34.5151 58.3185 34.415C58.2986 34.3149 58.3088 34.2112 58.3479 34.1169C58.3869 34.0226 58.4531 33.942 58.5379 33.8853C58.6228 33.8286 58.7225 33.7983 58.8246 33.7983C58.9614 33.7983 59.0927 33.8527 59.1895 33.9495C59.2862 34.0462 59.3406 34.1775 59.3406 34.3143Z" fill="white"/>
<path d="M59.7168 35.7329V35.9445C59.5681 36.0375 59.4051 36.1055 59.2343 36.1457C59.0168 36.2 58.7905 36.2102 58.569 36.1756C58.3474 36.141 58.135 36.0625 57.9443 35.9445V35.7329C57.9443 35.4989 58.0373 35.2745 58.2028 35.109C58.3682 34.9435 58.5927 34.8506 58.8267 34.8506C59.0607 34.8506 59.2851 34.9435 59.4506 35.109C59.6161 35.2745 59.7091 35.4989 59.7091 35.7329H59.7168Z" fill="white"/>
<path d="M69.3711 35.6275H67.1523L68.0553 34.5181L67.1523 33.4087H69.3711L70.2741 34.5181L69.3711 35.6275Z" fill="white"/>
<path d="M63.6697 33.4087L64.0283 34.1388L64.8359 34.2549L64.2528 34.8251L64.3895 35.6275L63.6697 35.2482L62.9473 35.6275L63.0866 34.8251L62.501 34.2549L63.3085 34.1388L63.6697 33.4087Z" fill="#0F7757"/>
<path d="M84.9571 34.0664H71.8662V34.9694H84.9571V34.0664Z" fill="#263238"/>
<path d="M95.4861 34.0664H90.3545V34.9694H95.4861V34.0664Z" fill="#455A64"/>
<path d="M59.7164 43.3439C59.5677 43.4369 59.4047 43.5049 59.2339 43.5451C58.8245 43.6446 58.3925 43.5861 58.0243 43.3812C57.6561 43.1763 57.3787 42.8401 57.2474 42.4397C57.1161 42.0393 57.1406 41.6041 57.3161 41.221C57.4915 40.8378 57.805 40.5349 58.1939 40.3727C58.5828 40.2105 59.0186 40.2009 59.4143 40.3458C59.81 40.4907 60.1365 40.7794 60.3286 41.1545C60.5208 41.5295 60.5645 41.9632 60.451 42.369C60.3376 42.7748 60.0752 43.1229 59.7164 43.3439Z" fill="#455A64"/>
<path d="M59.3406 41.7138C59.3406 41.8158 59.3103 41.9156 59.2536 42.0004C59.1969 42.0853 59.1163 42.1514 59.0221 42.1905C58.9278 42.2295 58.824 42.2398 58.7239 42.2198C58.6238 42.1999 58.5319 42.1508 58.4597 42.0786C58.3876 42.0065 58.3384 41.9145 58.3185 41.8144C58.2986 41.7143 58.3088 41.6106 58.3479 41.5163C58.3869 41.422 58.4531 41.3414 58.5379 41.2847C58.6228 41.228 58.7225 41.1978 58.8246 41.1978C58.9614 41.1978 59.0927 41.2521 59.1895 41.3489C59.2862 41.4457 59.3406 41.5769 59.3406 41.7138Z" fill="white"/>
<path d="M59.7168 43.1195V43.3439C59.5681 43.4369 59.4051 43.5049 59.2343 43.5452C59.0168 43.6 58.7905 43.6105 58.5688 43.5759C58.3472 43.5413 58.1348 43.4624 57.9443 43.3439V43.1324C57.9443 42.8983 58.0373 42.6739 58.2028 42.5084C58.3682 42.343 58.5927 42.25 58.8267 42.25C59.0607 42.25 59.2851 42.343 59.4506 42.5084C59.6161 42.6739 59.7091 42.8983 59.7091 43.1324L59.7168 43.1195Z" fill="white"/>
<path d="M69.3711 43.0137H67.1523L68.0553 41.9043L67.1523 40.7949H69.3711L70.2741 41.9043L69.3711 43.0137Z" fill="white"/>
<path d="M69.4021 43.0861H67.0156L67.9728 41.9122L67.0156 40.7383H69.4021L70.3593 41.9122L69.4021 43.0861ZM67.2865 42.9571H69.3505L70.2019 41.9122L69.3505 40.8802H67.2865L68.1405 41.9122L67.2865 42.9571Z" fill="#EBEBEB"/>
<path d="M63.6697 40.7949L64.0283 41.5251L64.8359 41.6412L64.2528 42.2113L64.3895 43.0137L63.6697 42.6345L62.9473 43.0137L63.0866 42.2113L62.501 41.6412L63.3085 41.5251L63.6697 40.7949Z" fill="#0F7757"/>
<path d="M84.9571 41.4531H71.8662V42.3561H84.9571V41.4531Z" fill="#263238"/>
<path d="M95.4861 41.4531H90.3545V42.3561H95.4861V41.4531Z" fill="#455A64"/>
<path d="M92.1007 45.5967H51.9404V52.9858H92.1007V45.5967Z" fill="#0F7757"/>
<path opacity="0.7" d="M92.1007 45.5967H51.9404V52.9858H92.1007V45.5967Z" fill="white"/>
<path d="M61.9224 48.8394H51.9404V49.7424H61.9224V48.8394Z" fill="#0F7757"/>
<path d="M72.4519 48.8394H67.3203V49.7424H72.4519V48.8394Z" fill="#0F7757"/>
<path d="M59.7173 58.1044C59.4159 58.2904 59.0635 58.3763 58.7103 58.3498C58.3572 58.3232 58.0215 58.1855 57.7514 57.9564C57.4814 57.7273 57.2907 57.4186 57.2069 57.0746C57.123 56.7305 57.1502 56.3687 57.2846 56.0411C57.419 55.7134 57.6537 55.4367 57.955 55.2506C58.2563 55.0646 58.6088 54.9787 58.962 55.0052C59.3151 55.0318 59.6508 55.1694 59.9209 55.3985C60.191 55.6276 60.3816 55.9363 60.4655 56.2803C60.5494 56.6244 60.5221 56.9862 60.3877 57.3139C60.2533 57.6416 60.0186 57.9183 59.7173 58.1044Z" fill="#A6A6A6"/>
<path d="M59.3406 56.4867C59.3406 56.5888 59.3103 56.6885 59.2536 56.7734C59.1969 56.8582 59.1163 56.9244 59.0221 56.9634C58.9278 57.0025 58.824 57.0127 58.7239 56.9928C58.6238 56.9729 58.5319 56.9237 58.4597 56.8516C58.3876 56.7794 58.3384 56.6875 58.3185 56.5874C58.2986 56.4873 58.3088 56.3835 58.3479 56.2892C58.3869 56.195 58.4531 56.1144 58.5379 56.0577C58.6228 56.001 58.7225 55.9707 58.8246 55.9707C58.9614 55.9707 59.0927 56.0251 59.1895 56.1218C59.2862 56.2186 59.3406 56.3499 59.3406 56.4867Z" fill="white"/>
<path d="M59.7169 57.8951V58.104C59.4521 58.2689 59.1464 58.3563 58.8345 58.3563C58.5226 58.3563 58.2169 58.2689 57.9521 58.104V57.8951C57.9521 57.661 58.0451 57.4366 58.2106 57.2711C58.3761 57.1057 58.6005 57.0127 58.8345 57.0127C59.0685 57.0127 59.293 57.1057 59.4584 57.2711C59.6239 57.4366 59.7169 57.661 59.7169 57.8951Z" fill="white"/>
<path d="M69.3711 57.7872H67.1523L68.0553 56.6778L67.1523 55.5684H69.3711L70.2741 56.6778L69.3711 57.7872Z" fill="white"/>
<path d="M69.4021 57.8512H67.0156L67.9728 56.6773L67.0156 55.5034H69.4021L70.3593 56.6773L69.4021 57.8512ZM67.2865 57.7222H69.3505L70.2019 56.6902L69.3505 55.6453H67.2865L68.1405 56.6902L67.2865 57.7222Z" fill="#EBEBEB"/>
<path d="M63.6697 55.5684L64.0283 56.2985L64.8359 56.4172L64.2528 56.9848L64.3895 57.7872L63.6697 57.4079L62.9473 57.7872L63.0866 56.9848L62.501 56.4172L63.3085 56.2985L63.6697 55.5684Z" fill="#0F7757"/>
<path d="M84.9571 56.2261H71.8662V57.1291H84.9571V56.2261Z" fill="#DBDBDB"/>
<path d="M95.4861 56.2261H90.3545V57.1291H95.4861V56.2261Z" fill="#C7C7C7"/>
<path d="M99.7766 60.3721H51.9434V67.7586H99.7766V60.3721Z" fill="#EBEBEB"/>
<path d="M59.7173 65.4906C59.4159 65.6767 59.0635 65.7626 58.7103 65.736C58.3572 65.7094 58.0215 65.5717 57.7514 65.3426C57.4814 65.1136 57.2907 64.8049 57.2069 64.4608C57.123 64.1167 57.1502 63.755 57.2846 63.4273C57.419 63.0997 57.6537 62.823 57.955 62.6369C58.2563 62.4508 58.6088 62.3649 58.962 62.3914C59.3151 62.418 59.6508 62.5557 59.9209 62.7847C60.191 63.0138 60.3816 63.3225 60.4655 63.6666C60.5494 64.0106 60.5221 64.3725 60.3877 64.7001C60.2533 65.0278 60.0186 65.3045 59.7173 65.4906Z" fill="#37474F"/>
<path d="M59.3406 63.8729C59.3406 63.975 59.3103 64.0747 59.2536 64.1596C59.1969 64.2445 59.1163 64.3106 59.0221 64.3497C58.9278 64.3887 58.824 64.3989 58.7239 64.379C58.6238 64.3591 58.5319 64.31 58.4597 64.2378C58.3876 64.1656 58.3384 64.0737 58.3185 63.9736C58.2986 63.8735 58.3088 63.7698 58.3479 63.6755C58.3869 63.5812 58.4531 63.5006 58.5379 63.4439C58.6228 63.3872 58.7225 63.3569 58.8246 63.3569C58.9614 63.3569 59.0927 63.4113 59.1895 63.5081C59.2862 63.6048 59.3406 63.7361 59.3406 63.8729Z" fill="white"/>
<path d="M59.7169 65.274V65.4829C59.4521 65.6478 59.1464 65.7352 58.8345 65.7352C58.5226 65.7352 58.2169 65.6478 57.9521 65.4829V65.274C57.9521 65.0399 58.0451 64.8155 58.2106 64.65C58.3761 64.4846 58.6005 64.3916 58.8345 64.3916C59.0685 64.3916 59.293 64.4846 59.4584 64.65C59.6239 64.8155 59.7169 65.0399 59.7169 65.274Z" fill="white"/>
<path d="M69.3711 65.1734H67.1523L68.0553 64.064L67.1523 62.9546H69.3711L70.2741 64.064L69.3711 65.1734Z" fill="white"/>
<path d="M63.6697 62.9546L64.0283 63.6847L64.8359 63.8034L64.2528 64.371L64.3895 65.1734L63.6697 64.7941L62.9473 65.1734L63.0866 64.371L62.501 63.8034L63.3085 63.6847L63.6697 62.9546Z" fill="#0F7757"/>
<path d="M84.9571 63.6128H71.8662V64.5158H84.9571V63.6128Z" fill="#DBDBDB"/>
<path d="M95.4861 63.6128H90.3545V64.5158H95.4861V63.6128Z" fill="#C7C7C7"/>
<path d="M99.7766 89.9185H51.9434V97.305H99.7766V89.9185Z" fill="#EBEBEB"/>
<path d="M59.7164 95.0397C59.5677 95.1327 59.4047 95.2007 59.2339 95.2409C58.8245 95.3404 58.3925 95.2819 58.0243 95.077C57.6561 94.8721 57.3787 94.5359 57.2474 94.1355C57.1161 93.7351 57.1406 93.2999 57.3161 92.9167C57.4915 92.5336 57.805 92.2307 58.1939 92.0685C58.5828 91.9063 59.0186 91.8967 59.4143 92.0416C59.81 92.1865 60.1365 92.4753 60.3286 92.8503C60.5208 93.2253 60.5645 93.659 60.451 94.0648C60.3376 94.4706 60.0752 94.8187 59.7164 95.0397Z" fill="#37474F"/>
<path d="M59.3406 93.4193C59.3406 93.5214 59.3103 93.6211 59.2536 93.706C59.1969 93.7909 59.1163 93.857 59.0221 93.896C58.9278 93.9351 58.824 93.9453 58.7239 93.9254C58.6238 93.9055 58.5319 93.8564 58.4597 93.7842C58.3876 93.712 58.3384 93.6201 58.3185 93.52C58.2986 93.4199 58.3088 93.3161 58.3479 93.2219C58.3869 93.1276 58.4531 93.047 58.5379 92.9903C58.6228 92.9336 58.7225 92.9033 58.8246 92.9033C58.9614 92.9033 59.0927 92.9577 59.1895 93.0545C59.2862 93.1512 59.3406 93.2825 59.3406 93.4193Z" fill="white"/>
<path d="M59.7168 94.8282V95.0397C59.5681 95.1327 59.4051 95.2007 59.2343 95.241C59.0167 95.2954 58.7902 95.3055 58.5686 95.2704C58.3469 95.2354 58.1346 95.1561 57.9443 95.0371V94.8282C57.9443 94.5941 58.0373 94.3697 58.2028 94.2042C58.3682 94.0388 58.5927 93.9458 58.8267 93.9458C59.0607 93.9458 59.2851 94.0388 59.4506 94.2042C59.6161 94.3697 59.7091 94.5941 59.7091 94.8282H59.7168Z" fill="white"/>
<path d="M69.3711 94.7222H67.1523L68.0553 93.6128L67.1523 92.5034H69.3711L70.2741 93.6128L69.3711 94.7222Z" fill="white"/>
<path d="M63.6697 92.5034L64.0283 93.2336L64.8359 93.3497L64.2528 93.9173L64.3895 94.7222L63.6697 94.343L62.9473 94.7222L63.0866 93.9173L62.501 93.3497L63.3085 93.2336L63.6697 92.5034Z" fill="#0F7757"/>
<path d="M84.9571 93.1611H71.8662V94.0641H84.9571V93.1611Z" fill="#DBDBDB"/>
<path d="M95.4861 93.1611H90.3545V94.0641H95.4861V93.1611Z" fill="#C7C7C7"/>
<path d="M99.7761 104.691V108.303C99.789 109.05 99.6129 109.787 99.2642 110.447C98.9155 111.107 98.4055 111.668 97.7817 112.078H53.9501C53.3245 111.67 52.8123 111.111 52.4613 110.452C52.1103 109.792 51.932 109.055 51.9429 108.309V104.697L99.7761 104.691Z" fill="#EBEBEB"/>
<path d="M59.7173 109.813C59.4159 109.999 59.0635 110.085 58.7103 110.058C58.3572 110.032 58.0215 109.894 57.7514 109.665C57.4814 109.436 57.2907 109.127 57.2069 108.783C57.123 108.439 57.1502 108.077 57.2846 107.75C57.419 107.422 57.6537 107.145 57.955 106.959C58.2563 106.773 58.6088 106.687 58.962 106.714C59.3151 106.74 59.6508 106.878 59.9209 107.107C60.191 107.336 60.3816 107.645 60.4655 107.989C60.5494 108.333 60.5221 108.695 60.3877 109.022C60.2533 109.35 60.0186 109.627 59.7173 109.813Z" fill="#0F7757"/>
<path d="M59.3406 108.195C59.3406 108.297 59.3103 108.397 59.2536 108.482C59.1969 108.567 59.1163 108.633 59.0221 108.672C58.9278 108.711 58.824 108.721 58.7239 108.701C58.6238 108.681 58.5319 108.632 58.4597 108.56C58.3876 108.488 58.3384 108.396 58.3185 108.296C58.2986 108.196 58.3088 108.092 58.3479 107.998C58.3869 107.903 58.4531 107.823 58.5379 107.766C58.6228 107.709 58.7225 107.679 58.8246 107.679C58.9614 107.679 59.0927 107.734 59.1895 107.83C59.2862 107.927 59.3406 108.058 59.3406 108.195Z" fill="white"/>
<path d="M59.7169 109.601V109.813C59.4521 109.978 59.1464 110.065 58.8345 110.065C58.5226 110.065 58.2169 109.978 57.9521 109.813V109.601C57.9521 109.367 58.0451 109.143 58.2106 108.977C58.3761 108.812 58.6005 108.719 58.8345 108.719C59.0685 108.719 59.293 108.812 59.4584 108.977C59.6239 109.143 59.7169 109.367 59.7169 109.601Z" fill="white"/>
<path d="M69.3711 109.495H67.1523L68.0553 108.386L67.1523 107.276H69.3711L70.2741 108.386L69.3711 109.495Z" fill="white"/>
<path d="M63.6697 107.276L64.0283 108.007L64.8359 108.123L64.2528 108.693L64.3895 109.495L63.6697 109.116L62.9473 109.495L63.0866 108.693L62.501 108.123L63.3085 108.007L63.6697 107.276Z" fill="#0F7757"/>
<path d="M84.9571 107.935H71.8662V108.838H84.9571V107.935Z" fill="#DBDBDB"/>
<path d="M95.4861 107.935H90.3545V108.838H95.4861V107.935Z" fill="#C7C7C7"/>
<path d="M61.9224 70.999H51.9404V71.902H61.9224V70.999Z" fill="#0F7757"/>
<path d="M72.4519 70.999H67.3203V71.902H72.4519V70.999Z" fill="#0F7757"/>
<path d="M99.7766 75.145H51.9434V82.5316H99.7766V75.145Z" fill="#EBEBEB"/>
<path d="M59.7167 80.2663C59.4154 80.4522 59.063 80.538 58.71 80.5114C58.357 80.4847 58.0215 80.3471 57.7515 80.1181C57.4815 79.8891 57.2909 79.5806 57.207 79.2366C57.1231 78.8927 57.1501 78.5311 57.2843 78.2035C57.4185 77.8759 57.6529 77.5991 57.954 77.4129C58.2551 77.2267 58.6074 77.1405 58.9604 77.1667C59.3134 77.1929 59.6491 77.3302 59.9194 77.5589C60.1896 77.7875 60.3806 78.0959 60.4649 78.4397C60.5502 78.7842 60.5237 79.1468 60.3892 79.4752C60.2547 79.8036 60.0192 80.0807 59.7167 80.2663Z" fill="#0F7757"/>
<path d="M59.3406 78.6464C59.3406 78.7484 59.3103 78.8482 59.2536 78.933C59.1969 79.0179 59.1163 79.084 59.0221 79.1231C58.9278 79.1622 58.824 79.1724 58.7239 79.1525C58.6238 79.1325 58.5319 79.0834 58.4597 79.0112C58.3876 78.9391 58.3384 78.8471 58.3185 78.747C58.2986 78.6469 58.3088 78.5432 58.3479 78.4489C58.3869 78.3546 58.4531 78.274 58.5379 78.2173C58.6228 78.1606 58.7225 78.1304 58.8246 78.1304C58.9614 78.1304 59.0927 78.1847 59.1895 78.2815C59.2862 78.3783 59.3406 78.5095 59.3406 78.6464Z" fill="white"/>
<path d="M59.7169 80.0551V80.2666C59.4517 80.4304 59.1462 80.5171 58.8345 80.5171C58.5228 80.5171 58.2173 80.4304 57.9521 80.2666V80.0576C57.9521 79.8236 58.0451 79.5992 58.2106 79.4337C58.3761 79.2683 58.6005 79.1753 58.8345 79.1753C59.0685 79.1753 59.293 79.2683 59.4584 79.4337C59.6239 79.5992 59.7169 79.8236 59.7169 80.0576V80.0551Z" fill="white"/>
<path d="M69.3711 79.9489H67.1523L68.0553 78.8369L67.1523 77.7275H69.3711L70.2741 78.8369L69.3711 79.9489Z" fill="white"/>
<path d="M63.6697 77.7275L64.0283 78.4603L64.8359 78.5764L64.2528 79.144L64.3895 79.9489L63.6697 79.5697L62.9473 79.9489L63.0866 79.144L62.501 78.5764L63.3085 78.4603L63.6697 77.7275Z" fill="#0F7757"/>
<path d="M84.9571 78.3882H71.8662V79.2912H84.9571V78.3882Z" fill="#263238"/>
<path d="M95.4861 78.3882H90.3545V79.2912H95.4861V78.3882Z" fill="#455A64"/>
<path d="M61.9224 85.7749H51.9404V86.6779H61.9224V85.7749Z" fill="#0F7757"/>
<path d="M72.4519 85.7749H67.3203V86.6779H72.4519V85.7749Z" fill="#0F7757"/>
<path d="M59.7164 102.426C59.5677 102.519 59.4047 102.587 59.2339 102.627C58.8245 102.727 58.3925 102.668 58.0243 102.463C57.6561 102.258 57.3787 101.922 57.2474 101.522C57.1161 101.121 57.1406 100.686 57.3161 100.303C57.4915 99.9198 57.805 99.617 58.1939 99.4547C58.5828 99.2925 59.0186 99.2829 59.4143 99.4278C59.81 99.5727 60.1365 99.8615 60.3286 100.237C60.5208 100.612 60.5645 101.045 60.451 101.451C60.3376 101.857 60.0752 102.205 59.7164 102.426Z" fill="#A6A6A6"/>
<path d="M59.3406 100.808C59.3406 100.911 59.3103 101.01 59.2536 101.095C59.1969 101.18 59.1163 101.246 59.0221 101.285C58.9278 101.324 58.824 101.334 58.7239 101.315C58.6238 101.295 58.5319 101.246 58.4597 101.173C58.3876 101.101 58.3384 101.009 58.3185 100.909C58.2986 100.809 58.3088 100.705 58.3479 100.611C58.3869 100.517 58.4531 100.436 58.5379 100.379C58.6228 100.323 58.7225 100.292 58.8246 100.292C58.9614 100.292 59.0927 100.347 59.1895 100.444C59.2862 100.54 59.3406 100.672 59.3406 100.808Z" fill="white"/>
<path d="M59.7168 102.214V102.426C59.5681 102.519 59.4051 102.587 59.2343 102.627C59.0168 102.682 58.7905 102.692 58.5688 102.658C58.3472 102.623 58.1348 102.544 57.9443 102.426V102.214C57.9443 101.98 58.0373 101.756 58.2028 101.59C58.3682 101.425 58.5927 101.332 58.8267 101.332C59.0607 101.332 59.2851 101.425 59.4506 101.59C59.6161 101.756 59.7091 101.98 59.7091 102.214H59.7168Z" fill="white"/>
<path d="M69.3711 102.109H67.1523L68.0553 101L67.1523 99.8901H69.3711L70.2741 101L69.3711 102.109Z" fill="white"/>
<path d="M69.4021 102.168H67.0156L67.9728 100.994L67.0156 99.8203H69.4021L70.3593 100.994L69.4021 102.168ZM67.2865 102.039H69.3505L70.2019 101.007L69.3505 99.9622H67.2865L68.1405 101.007L67.2865 102.039Z" fill="#EBEBEB"/>
<path d="M63.6697 99.8901L64.0283 100.62L64.8359 100.736L64.2528 101.307L64.3895 102.109L63.6697 101.73L62.9473 102.109L63.0866 101.307L62.501 100.736L63.3085 100.62L63.6697 99.8901Z" fill="white"/>
<path d="M64.4747 102.227L63.6697 101.802L62.8622 102.227L63.017 101.327L62.3643 100.692L63.2647 100.561L63.6697 99.7427L64.0722 100.561L64.9752 100.692L64.3225 101.327L64.4747 102.227ZM62.6403 100.782L63.1563 101.283L63.0351 101.99L63.6723 101.657L64.307 101.99L64.1857 101.283L64.7017 100.782L63.9922 100.679L63.6749 100.034L63.3576 100.679L62.6403 100.782Z" fill="#EBEBEB"/>
<path d="M84.9571 100.548H71.8662V101.451H84.9571V100.548Z" fill="#DBDBDB"/>
<path d="M95.4861 100.548H90.3545V101.451H95.4861V100.548Z" fill="#C7C7C7"/>
<path opacity="0.3" d="M84.4203 45.5967H76.7422V52.9832H84.4203V45.5967Z" fill="#0F7757"/>
<path d="M80.5815 47.9492C80.3156 47.9492 80.0557 48.0281 79.8347 48.1758C79.6136 48.3235 79.4414 48.5334 79.3396 48.779C79.2379 49.0246 79.2113 49.2949 79.2631 49.5556C79.315 49.8164 79.443 50.0559 79.631 50.2439C79.819 50.4319 80.0585 50.5599 80.3192 50.6118C80.58 50.6636 80.8503 50.637 81.0959 50.5353C81.3415 50.4335 81.5514 50.2612 81.6991 50.0402C81.8468 49.8191 81.9257 49.5593 81.9257 49.2934C81.926 49.1168 81.8915 48.9418 81.824 48.7786C81.7566 48.6154 81.6576 48.467 81.5327 48.3422C81.4078 48.2173 81.2595 48.1183 81.0963 48.0508C80.933 47.9834 80.7581 47.9489 80.5815 47.9492ZM79.9545 49.4276C79.919 49.4276 79.8848 49.4134 79.8597 49.3883C79.8345 49.3631 79.8204 49.329 79.8204 49.2934C79.8147 49.2734 79.8137 49.2524 79.8175 49.232C79.8213 49.2116 79.8298 49.1923 79.8423 49.1758C79.8548 49.1592 79.871 49.1457 79.8896 49.1365C79.9081 49.1272 79.9286 49.1224 79.9494 49.1224C79.9701 49.1224 79.9906 49.1272 80.0092 49.1365C80.0278 49.1457 80.044 49.1592 80.0565 49.1758C80.069 49.1923 80.0775 49.2116 80.0813 49.232C80.0851 49.2524 80.0841 49.2734 80.0784 49.2934C80.0785 49.3273 80.0658 49.3599 80.0428 49.3848C80.0198 49.4097 79.9883 49.425 79.9545 49.4276ZM80.5815 49.4276C80.5461 49.4269 80.5124 49.4126 80.4873 49.3875C80.4623 49.3625 80.448 49.3288 80.4473 49.2934C80.4473 49.2578 80.4615 49.2237 80.4866 49.1985C80.5118 49.1734 80.5459 49.1592 80.5815 49.1592C80.6171 49.1592 80.6512 49.1734 80.6763 49.1985C80.7015 49.2237 80.7156 49.2578 80.7156 49.2934C80.7156 49.311 80.7122 49.3285 80.7054 49.3447C80.6987 49.361 80.6888 49.3758 80.6763 49.3883C80.6639 49.4007 80.6491 49.4106 80.6328 49.4173C80.6165 49.4241 80.5991 49.4276 80.5815 49.4276ZM81.211 49.4276C81.1754 49.4276 81.1413 49.4134 81.1161 49.3883C81.091 49.3631 81.0768 49.329 81.0768 49.2934C81.0711 49.2734 81.0701 49.2524 81.0739 49.232C81.0777 49.2116 81.0862 49.1923 81.0987 49.1758C81.1112 49.1592 81.1274 49.1457 81.146 49.1365C81.1646 49.1272 81.1851 49.1224 81.2058 49.1224C81.2266 49.1224 81.2471 49.1272 81.2657 49.1365C81.2843 49.1457 81.3004 49.1592 81.3129 49.1758C81.3254 49.1923 81.3339 49.2116 81.3377 49.232C81.3415 49.2524 81.3405 49.2734 81.3348 49.2934C81.3349 49.3273 81.3222 49.3599 81.2993 49.3848C81.2763 49.4097 81.2448 49.425 81.211 49.4276Z" fill="white"/>
<path opacity="0.1" d="M92.098 45.5967H84.4199V52.9832H92.098V45.5967Z" fill="#0F7757"/>
<path d="M87.214 47.9468H87.0566V50.6326H87.214V47.9468Z" fill="white"/>
<path d="M87.1367 48.0706C87.9623 47.8513 88.7905 48.2899 89.6187 48.0706V49.8998C88.7905 50.1191 87.9623 49.6805 87.1367 49.8998V48.0706Z" fill="white"/>
<path d="M99.7767 45.5967H92.0986V52.9832H99.7767V45.5967Z" fill="#0F7757"/>
<path d="M96.8017 50.6661H95.0964L94.9932 48.4009H96.8817L96.8017 50.6661Z" fill="white"/>
<path d="M97.1265 48.2383H94.7529V48.4034H97.1265V48.2383Z" fill="white"/>
<path d="M96.3635 48.3185H96.2396V48.0399H95.6385V48.3185H95.5146V47.916H96.3635V48.3185Z" fill="white"/>
<path d="M95.9998 48.6201H95.876V50.3926H95.9998V48.6201Z" fill="#0F7757"/>
<path d="M95.5368 48.61L95.4131 48.6152L95.488 50.3887L95.6118 50.3835L95.5368 48.61Z" fill="#0F7757"/>
<path d="M96.3379 48.6133L96.2617 50.3867L96.3854 50.392L96.4616 48.6186L96.3379 48.6133Z" fill="#0F7757"/>
<path opacity="0.3" d="M84.4203 67.7588H76.7422V75.1453H84.4203V67.7588Z" fill="#0F7757"/>
<path d="M80.5815 70.1089C80.3156 70.1089 80.0557 70.1877 79.8347 70.3354C79.6136 70.4831 79.4414 70.6931 79.3396 70.9387C79.2379 71.1843 79.2113 71.4546 79.2631 71.7153C79.315 71.9761 79.443 72.2156 79.631 72.4036C79.819 72.5915 80.0585 72.7196 80.3192 72.7714C80.58 72.8233 80.8503 72.7967 81.0959 72.6949C81.3415 72.5932 81.5514 72.4209 81.6991 72.1999C81.8468 71.9788 81.9257 71.7189 81.9257 71.4531C81.926 71.2765 81.8915 71.1015 81.824 70.9383C81.7566 70.775 81.6576 70.6267 81.5327 70.5018C81.4078 70.3769 81.2595 70.278 81.0963 70.2105C80.933 70.1431 80.7581 70.1085 80.5815 70.1089ZM79.9545 71.5872C79.919 71.5872 79.8848 71.5731 79.8597 71.5479C79.8345 71.5228 79.8204 71.4887 79.8204 71.4531C79.8147 71.4331 79.8137 71.4121 79.8175 71.3917C79.8213 71.3713 79.8298 71.352 79.8423 71.3354C79.8548 71.3189 79.871 71.3054 79.8896 71.2961C79.9081 71.2869 79.9286 71.2821 79.9494 71.2821C79.9701 71.2821 79.9906 71.2869 80.0092 71.2961C80.0278 71.3054 80.044 71.3189 80.0565 71.3354C80.069 71.352 80.0775 71.3713 80.0813 71.3917C80.0851 71.4121 80.0841 71.4331 80.0784 71.4531C80.0785 71.4869 80.0658 71.5196 80.0428 71.5445C80.0198 71.5694 79.9883 71.5846 79.9545 71.5872ZM80.5815 71.5872C80.5461 71.5866 80.5124 71.5722 80.4873 71.5472C80.4623 71.5222 80.448 71.4884 80.4473 71.4531C80.4473 71.4175 80.4615 71.3834 80.4866 71.3582C80.5118 71.333 80.5459 71.3189 80.5815 71.3189C80.6171 71.3189 80.6512 71.333 80.6763 71.3582C80.7015 71.3834 80.7156 71.4175 80.7156 71.4531C80.7156 71.4887 80.7015 71.5228 80.6763 71.5479C80.6512 71.5731 80.6171 71.5872 80.5815 71.5872ZM81.211 71.5872C81.1754 71.5872 81.1413 71.5731 81.1161 71.5479C81.091 71.5228 81.0768 71.4887 81.0768 71.4531C81.0711 71.4331 81.0701 71.4121 81.0739 71.3917C81.0777 71.3713 81.0862 71.352 81.0987 71.3354C81.1112 71.3189 81.1274 71.3054 81.146 71.2961C81.1646 71.2869 81.1851 71.2821 81.2058 71.2821C81.2266 71.2821 81.2471 71.2869 81.2657 71.2961C81.2843 71.3054 81.3004 71.3189 81.3129 71.3354C81.3254 71.352 81.3339 71.3713 81.3377 71.3917C81.3415 71.4121 81.3405 71.4331 81.3348 71.4531C81.3349 71.4869 81.3222 71.5196 81.2993 71.5445C81.2763 71.5694 81.2448 71.5846 81.211 71.5872Z" fill="white"/>
<path opacity="0.1" d="M92.098 67.7588H84.4199V75.1453H92.098V67.7588Z" fill="#0F7757"/>
<path d="M87.214 70.1089H87.0566V72.7947H87.214V70.1089Z" fill="white"/>
<path d="M87.1367 70.2328C87.9623 70.0109 88.7905 70.4521 89.6187 70.2328V72.0594C88.7905 72.2787 87.9623 71.8401 87.1367 72.0594V70.2328Z" fill="white"/>
<path d="M99.7767 67.7588H92.0986V75.1453H99.7767V67.7588Z" fill="#0F7757"/>
<path d="M96.8017 72.8282H95.0964L94.9932 70.563H96.8817L96.8017 72.8282Z" fill="white"/>
<path d="M97.1265 70.3979H94.7529V70.5631H97.1265V70.3979Z" fill="white"/>
<path d="M96.3635 70.4807H96.2396V70.1995H95.6385V70.4807H95.5146V70.0757H96.3635V70.4807Z" fill="white"/>
<path d="M95.9998 70.7798H95.876V72.5522H95.9998V70.7798Z" fill="#0F7757"/>
<path d="M95.5388 70.7707L95.415 70.7759L95.49 72.5493L95.6137 72.5441L95.5388 70.7707Z" fill="#0F7757"/>
<path d="M96.3396 70.7744L96.2637 72.5479L96.3874 72.5531L96.4633 70.7797L96.3396 70.7744Z" fill="#0F7757"/>
<path opacity="0.3" d="M84.4203 82.5317H76.7422V89.9183H84.4203V82.5317Z" fill="#0F7757"/>
<path d="M80.5815 84.8823C80.3156 84.8823 80.0557 84.9612 79.8347 85.1089C79.6136 85.2566 79.4414 85.4665 79.3396 85.7121C79.2379 85.9577 79.2113 86.228 79.2631 86.4887C79.315 86.7495 79.443 86.989 79.631 87.177C79.819 87.365 80.0585 87.493 80.3192 87.5449C80.58 87.5967 80.8503 87.5701 81.0959 87.4684C81.3415 87.3666 81.5514 87.1943 81.6991 86.9733C81.8468 86.7522 81.9257 86.4924 81.9257 86.2265C81.926 86.0499 81.8915 85.8749 81.824 85.7117C81.7566 85.5485 81.6576 85.4002 81.5327 85.2753C81.4078 85.1504 81.2595 85.0514 81.0963 84.984C80.933 84.9165 80.7581 84.882 80.5815 84.8823ZM79.9545 86.3607C79.919 86.3607 79.8848 86.3465 79.8597 86.3214C79.8345 86.2962 79.8204 86.2621 79.8204 86.2265C79.8147 86.2065 79.8137 86.1855 79.8175 86.1651C79.8213 86.1447 79.8298 86.1254 79.8423 86.1089C79.8548 86.0923 79.871 86.0788 79.8896 86.0696C79.9081 86.0603 79.9286 86.0555 79.9494 86.0555C79.9701 86.0555 79.9906 86.0603 80.0092 86.0696C80.0278 86.0788 80.044 86.0923 80.0565 86.1089C80.069 86.1254 80.0775 86.1447 80.0813 86.1651C80.0851 86.1855 80.0841 86.2065 80.0784 86.2265C80.0785 86.2604 80.0658 86.293 80.0428 86.3179C80.0198 86.3428 79.9883 86.3581 79.9545 86.3607ZM80.5815 86.3607C80.5461 86.36 80.5124 86.3457 80.4873 86.3206C80.4623 86.2956 80.448 86.2619 80.4473 86.2265C80.4473 86.1909 80.4615 86.1568 80.4866 86.1316C80.5118 86.1065 80.5459 86.0923 80.5815 86.0923C80.6171 86.0923 80.6512 86.1065 80.6763 86.1316C80.7015 86.1568 80.7156 86.1909 80.7156 86.2265C80.7156 86.2621 80.7015 86.2962 80.6763 86.3214C80.6512 86.3465 80.6171 86.3607 80.5815 86.3607ZM81.211 86.3607C81.1754 86.3607 81.1413 86.3465 81.1161 86.3214C81.091 86.2962 81.0768 86.2621 81.0768 86.2265C81.0711 86.2065 81.0701 86.1855 81.0739 86.1651C81.0777 86.1447 81.0862 86.1254 81.0987 86.1089C81.1112 86.0923 81.1274 86.0788 81.146 86.0696C81.1646 86.0603 81.1851 86.0555 81.2058 86.0555C81.2266 86.0555 81.2471 86.0603 81.2657 86.0696C81.2843 86.0788 81.3004 86.0923 81.3129 86.1089C81.3254 86.1254 81.3339 86.1447 81.3377 86.1651C81.3415 86.1855 81.3405 86.2065 81.3348 86.2265C81.3349 86.2604 81.3222 86.293 81.2993 86.3179C81.2763 86.3428 81.2448 86.3581 81.211 86.3607Z" fill="white"/>
<path opacity="0.1" d="M92.098 82.5317H84.4199V89.9183H92.098V82.5317Z" fill="#0F7757"/>
<path d="M87.214 84.8823H87.0566V87.5681H87.214V84.8823Z" fill="white"/>
<path d="M87.1367 85.0062C87.9623 84.7869 88.7905 85.2255 89.6187 85.0062V86.8328C88.7905 87.0521 87.9623 86.6135 87.1367 86.8328V85.0062Z" fill="white"/>
<path d="M99.7767 82.5317H92.0986V89.9183H99.7767V82.5317Z" fill="#0F7757"/>
<path d="M96.8017 87.6017H95.0964L94.9932 85.3364H96.8817L96.8017 87.6017Z" fill="white"/>
<path d="M97.1265 85.1709H94.7529V85.336H97.1265V85.1709Z" fill="white"/>
<path d="M96.3635 85.2537H96.2396V84.9725H95.6385V85.2537H95.5146V84.8486H96.3635V85.2537Z" fill="white"/>
<path d="M95.9998 85.5557H95.876V87.3281H95.9998V85.5557Z" fill="#0F7757"/>
<path d="M95.5407 85.5436L95.417 85.5488L95.4919 87.3223L95.6157 87.3171L95.5407 85.5436Z" fill="#0F7757"/>
<path d="M96.335 85.5445L96.2588 87.3179L96.3825 87.3232L96.4587 85.5498L96.335 85.5445Z" fill="#0F7757"/>
<path d="M22.854 67.5756C23.7677 68.6933 24.8065 69.7027 25.95 70.5839C24.7297 66.8841 26.6518 59.557 26.6569 60.6638C26.6802 65.9528 28.6358 72.1732 29.7813 72.7098C29.7813 72.7098 29.7813 72.7098 29.802 72.7098C32.947 73.845 36.0791 73.618 38.832 72.7872C38.832 72.7872 38.832 72.7872 38.832 72.7691C37.1472 68.5173 38.9042 61.025 38.9713 61.5203C39.7272 66.8248 42.8903 70.5245 43.5482 70.6613C46.4946 68.8682 48.2954 66.83 47.9987 66.5178C45.8521 64.2474 44.6757 59.3505 43.7675 54.2473C42.8645 49.2163 42.8619 44.6188 41.074 39.9103C39.4331 35.6017 34.6627 33.8034 31.4506 35.114C23.0114 38.5609 21.5614 66.0095 22.854 67.5756Z" fill="#263238"/>
<path d="M32.0102 34.9282C31.3091 35.1112 30.656 35.4439 30.0958 35.9035C29.5255 36.3499 28.997 36.8473 28.5169 37.3895C27.5836 38.4956 26.7707 39.6977 26.0917 40.9757C24.6907 43.5119 23.7697 46.2854 23.0963 49.0873C22.465 51.9033 22.0749 54.768 21.9301 57.6503C21.8837 58.3701 21.8785 59.0899 21.8527 59.8097L21.8398 61.9692L21.9121 64.1235L22.0462 66.2752V64.1209L22.0849 61.9692L22.1649 59.8201C22.2139 59.1054 22.2397 58.3882 22.3068 57.6761C22.5091 54.8209 22.9317 51.9856 23.571 49.1956C24.1787 46.4032 25.132 43.6974 26.409 41.1409C27.0457 39.8626 27.8108 38.6524 28.6923 37.5289C29.1387 36.9688 29.6353 36.4507 30.1758 35.9809C30.4493 35.7521 30.739 35.5434 31.0427 35.3565C31.3421 35.1665 31.6682 35.0221 32.0102 34.9282Z" fill="#263238"/>
<path d="M48.4583 65.8317C47.9005 64.72 47.3993 63.5808 46.9567 62.4184C46.4975 61.2626 46.0821 60.0964 45.7235 58.9044C45.3649 57.7125 45.0424 56.5205 44.7947 55.3105C44.547 54.1005 44.3406 52.8647 44.1136 51.6417C43.6311 49.1959 43.1512 46.7397 42.5269 44.3274C42.207 43.12 41.8664 41.9177 41.4459 40.7387C41.2338 40.1494 40.9892 39.5723 40.7131 39.0101C40.4596 38.4356 40.0897 37.92 39.627 37.4956C40.0475 37.9518 40.3767 38.4842 40.597 39.0642C40.837 39.6358 41.0463 40.2197 41.224 40.8135C41.5955 41.9977 41.8948 43.2051 42.1683 44.4255C42.7152 46.8507 43.2003 49.2914 43.6414 51.7398C43.884 52.9627 44.1033 54.183 44.369 55.4111C44.6334 56.6335 44.9685 57.8395 45.3726 59.0231C46.1607 61.3942 47.1949 63.6761 48.4583 65.8317Z" fill="#263238"/>
<path d="M54.1416 115.721H33.9557C33.7837 115.049 33.6117 114.374 33.4397 113.698C33.3279 113.255 33.2152 112.812 33.1017 112.37C33.1017 112.341 33.0888 112.316 33.0811 112.287L32.6399 110.553C32.6244 110.497 32.6089 110.44 32.596 110.383C32.4851 109.942 32.3716 109.501 32.2632 109.065C31.9811 107.969 31.7042 106.885 31.4325 105.811C31.3293 105.404 31.2261 104.993 31.1203 104.591C31.1175 104.572 31.1132 104.553 31.1074 104.534C31.0429 104.276 30.9758 104.018 30.9113 103.76C30.4908 102.114 30.0857 100.517 29.6987 98.9898C29.6523 98.8092 29.6058 98.6364 29.5594 98.4609C29.2188 97.1167 28.8937 95.8371 28.5867 94.6348L28.4577 94.1188C28.3829 93.8221 28.3107 93.5331 28.2358 93.2493C28.1688 92.9913 28.1043 92.7385 28.0423 92.4908C27.8566 91.7607 27.6786 91.0744 27.5263 90.4268C27.5005 90.321 27.4722 90.2204 27.4489 90.1198C27.2167 89.2194 27.0129 88.4118 26.8349 87.7152C26.8014 87.5914 26.773 87.4727 26.742 87.3566C26.6775 87.0986 26.6156 86.8612 26.5614 86.6419C26.533 86.531 26.5072 86.4252 26.4789 86.3246L26.0996 84.8359H45.3309C45.3309 84.8359 49.9208 100.656 54.1416 115.721Z" fill="#37474F"/>
<path d="M37.1526 115.721H36.585C36.241 114.367 35.9039 113.014 35.5737 111.66L35.1867 110.112C34.8977 108.944 34.607 107.773 34.3146 106.598C34.3146 106.546 34.2914 106.492 34.2785 106.441C32.8956 100.839 31.5385 95.2253 30.3105 89.588C30.295 89.5209 30.2795 89.4539 30.2666 89.3868C30.2666 89.3792 30.2696 89.372 30.2749 89.3667C30.2802 89.3614 30.2875 89.3584 30.295 89.3584C30.3025 89.3584 30.3097 89.3614 30.315 89.3667C30.3204 89.372 30.3234 89.3792 30.3234 89.3868L30.3414 89.4539C31.8894 94.9776 33.3368 100.548 34.7274 106.115C34.7558 106.211 34.779 106.309 34.8022 106.404C34.9183 106.864 35.0319 107.318 35.148 107.774C35.3079 108.422 35.473 109.064 35.6356 109.717C36.1481 111.714 36.6538 113.715 37.1526 115.721Z" fill="#263238"/>
<path d="M44.7066 84.8461L41.9743 98.5201L41.8505 99.1316L41.657 100.104L41.3474 101.652L41.061 103.094V103.159L41.0068 103.417L38.5584 115.687H33.9557C33.7837 115.015 33.6117 114.341 33.4397 113.665C33.3279 113.221 33.2152 112.778 33.1017 112.336C33.1017 112.308 33.0888 112.282 33.0811 112.253C32.9314 111.676 32.787 111.098 32.6399 110.52C32.6244 110.463 32.6089 110.406 32.596 110.349C32.4851 109.908 32.3716 109.467 32.2632 109.031C31.9811 107.935 31.7042 106.851 31.4325 105.778C31.3293 105.37 31.2261 104.96 31.1203 104.557C31.1175 104.538 31.1132 104.519 31.1074 104.501C31.0429 104.243 30.9758 103.985 30.9113 103.727C30.4908 102.081 30.0857 100.483 29.6987 98.9561L29.5594 98.4272C29.2188 97.083 28.8937 95.8034 28.5867 94.6011C28.5429 94.4282 28.5016 94.2579 28.4577 94.0851C28.3829 93.7884 28.3107 93.4994 28.2358 93.2156C28.1688 92.9576 28.1043 92.7048 28.0423 92.4571C27.8566 91.727 27.6786 91.0407 27.5263 90.3931C27.5005 90.2873 27.4722 90.1867 27.4489 90.0861C27.2167 89.1857 27.0129 88.3781 26.8349 87.6815C26.8014 87.5577 26.773 87.439 26.742 87.3229C26.6775 87.0649 26.6156 86.8275 26.5614 86.6082C26.533 86.4973 26.5072 86.3915 26.4789 86.2909L26.0996 84.8022L44.7066 84.8461Z" fill="#263238"/>
<path d="M44.7088 84.8384C44.7088 84.9467 44.6288 86.0871 44.4508 87.8286C44.0835 91.492 43.4803 95.1279 42.6448 98.7136C42.4332 99.5882 42.201 100.453 41.9482 101.294C41.7779 101.877 41.5922 102.455 41.3935 103.002L41.378 103.051L41.0426 103.177C39.2287 103.926 37.4751 104.814 35.7975 105.832C35.7975 105.832 35.7975 105.871 35.7975 105.94C35.7846 106.322 35.7304 107.692 35.653 109.699C35.6272 110.298 35.604 110.953 35.5756 111.655C35.5292 112.88 35.475 114.253 35.4208 115.716H16.0914C16.3494 112.468 16.592 109.17 16.8396 105.974C16.8396 105.974 15.0336 100.914 15.2297 98.3576C15.7173 92.1656 18.4934 84.841 18.4934 84.841L44.7088 84.8384Z" fill="#37474F"/>
<path d="M38.1147 98.4326L38.1379 96.8846C38.1534 95.9403 38.2179 94.996 38.254 94.0466C38.3366 91.9078 38.432 89.7612 38.6126 87.6276C38.6126 87.576 38.7029 87.576 38.7055 87.6276C38.7365 88.4764 38.7545 89.3226 38.752 90.1714C38.7494 91.0203 38.7778 91.8691 38.7752 92.7153C38.7752 94.3975 38.7752 96.0693 38.7055 97.7618C38.6823 98.4094 38.4475 99.5988 39.3815 99.671C40.1245 99.7278 40.5554 98.946 40.687 98.3242C40.8087 97.5485 40.8674 96.7642 40.8624 95.979C40.8951 95.119 40.9131 94.265 40.9166 93.4171C40.9166 91.5569 40.9604 89.7019 41.0095 87.8443C41.0095 87.7901 41.0946 87.7953 41.1023 87.8443C41.316 89.7179 41.4357 91.6011 41.461 93.4867C41.461 94.3897 41.461 95.2927 41.4223 96.1983C41.3939 97.042 41.4094 97.9424 41.1488 98.7551C40.945 99.3924 40.4831 100.004 39.8072 100.172C39.7934 100.17 39.7796 100.17 39.7659 100.172C39.775 100.176 39.7828 100.183 39.7886 100.192C39.7945 100.2 39.7982 100.21 39.7994 100.221C39.8278 100.517 39.8768 100.814 39.8846 101.113C39.8923 101.413 39.8846 101.709 39.8588 102.003C39.8459 102.306 39.8097 102.607 39.7504 102.904C39.7243 103.046 39.6889 103.187 39.6446 103.324C39.5982 103.469 39.5208 103.582 39.4615 103.724C39.4565 103.735 39.448 103.744 39.4374 103.75C39.4268 103.755 39.4147 103.757 39.4029 103.755C39.3911 103.753 39.3803 103.747 39.3723 103.738C39.3642 103.729 39.3593 103.718 39.3583 103.706C39.3583 103.657 39.3583 103.608 39.3428 103.562C39.344 103.553 39.344 103.544 39.3428 103.536C39.3317 103.45 39.3257 103.364 39.3247 103.278C39.3247 103.133 39.3402 102.989 39.3505 102.844C39.3737 102.555 39.4124 102.264 39.4511 101.978C39.4898 101.691 39.5105 101.4 39.544 101.111C39.5776 100.822 39.6343 100.52 39.6601 100.221C39.663 100.209 39.6693 100.199 39.6782 100.192C39.4119 100.242 39.1367 100.209 38.8899 100.097C38.643 99.9853 38.4364 99.8006 38.2979 99.5678C38.141 99.2112 38.0779 98.8204 38.1147 98.4326Z" fill="#263238"/>
<path d="M34.1546 106.536C34.7613 106.072 35.4002 105.651 36.0664 105.277C36.7673 104.853 37.4956 104.475 38.2465 104.147C39.7171 103.51 41.2341 103.074 42.7511 102.571C42.795 102.555 42.826 102.633 42.7821 102.648C41.3115 103.234 39.9028 104.011 38.4838 104.712C37.7846 105.055 37.0777 105.381 36.3656 105.695C35.6536 106.01 34.9415 106.376 34.2113 106.645C34.1546 106.658 34.1107 106.572 34.1546 106.536Z" fill="#263238"/>
<path d="M22.6811 93.7215C23.7131 93.7215 26.7704 93.7602 28.3571 92.2741C29.0279 91.6446 29.3891 90.7261 29.6806 89.8876C30.0132 88.9408 30.2821 87.9729 30.4856 86.9903C30.4856 86.9412 30.5656 86.9593 30.5681 87.0032C30.5913 88.1173 30.4478 89.2287 30.1424 90.3004C29.8844 91.206 29.5568 92.2199 28.8241 92.8572C28.0913 93.4944 27.0026 93.7628 26.0144 93.8892C24.9051 94.0182 23.7838 94.0026 22.6785 93.8427C22.6624 93.8424 22.6471 93.8357 22.636 93.8241C22.6249 93.8125 22.6188 93.7969 22.6192 93.7808C22.6195 93.7647 22.6262 93.7495 22.6378 93.7383C22.6494 93.7272 22.665 93.7211 22.6811 93.7215Z" fill="#263238"/>
<path d="M47.4517 93.5792C46.9873 93.6101 45.6122 93.7546 44.7892 92.3305C44.4409 91.7242 44.2113 90.8212 44.0152 89.9956C43.7907 89.0616 43.605 88.107 43.4347 87.1318C43.4347 87.0853 43.396 87.1034 43.3986 87.1472C43.4708 88.2454 43.6165 89.3374 43.8346 90.4161C44.0152 91.3114 44.2448 92.3098 44.6215 92.9213C44.7624 93.166 44.9562 93.3762 45.1888 93.5364C45.4214 93.6967 45.6868 93.8029 45.9657 93.8475C46.4701 93.9402 46.9905 93.8856 47.4646 93.6901C47.493 93.6772 47.4853 93.5766 47.4517 93.5792Z" fill="#263238"/>
<path d="M21.2858 86.4715C21.26 86.567 18.7445 96.0485 18.8606 98.3395C18.9767 100.631 20.3209 105.267 20.326 105.306C20.3312 105.344 20.0861 109.405 19.7223 115.713H19.2321L19.8333 105.362C19.7765 105.019 18.4813 100.615 18.3678 98.3705C18.244 95.9917 20.6898 86.7295 20.8059 86.3374C20.8345 86.2891 20.8781 86.2515 20.93 86.2302C20.9819 86.2089 21.0393 86.2052 21.0936 86.2195C21.1478 86.2337 21.1959 86.2653 21.2306 86.3094C21.2653 86.3535 21.2847 86.4077 21.2858 86.4638V86.4715Z" fill="#263238"/>
<path d="M38.4248 57.3771C48.3397 66.1156 57.5503 75.6951 58.3166 80.641C59.3796 87.478 55.1896 89.4259 53.3037 89.4646C48.1643 89.5729 38.5977 68.8529 35.2591 60.9375C32.0212 53.2543 36.2473 55.4705 38.4248 57.3771Z" fill="#0F7757"/>
<path d="M45.2152 84.8384L43.8323 76.149C43.8323 76.149 47.274 72.5886 45.4938 68.8579C44.596 66.9668 38.484 57.7639 35.2203 55.4419C32.1578 53.2695 28.5278 55.073 27.1681 57.4234C23.7367 63.3548 20.4782 70.1763 18.4941 84.8462L45.2152 84.8384Z" fill="#0F7757"/>
<path d="M39.7555 75.0268C38.3625 75.1775 36.9827 75.4319 35.6275 75.7879C34.9567 75.9736 34.3014 76.1903 33.6461 76.42C33.321 76.5335 32.9907 76.6367 32.6605 76.7399C32.3181 76.8562 31.963 76.9307 31.6027 76.9618C31.5975 76.9635 31.593 76.9667 31.5899 76.9711C31.5867 76.9755 31.585 76.9808 31.585 76.9863C31.585 76.9917 31.5867 76.997 31.5899 77.0014C31.593 77.0058 31.5975 77.0091 31.6027 77.0108C31.9472 77.0215 32.292 77.0086 32.6347 76.9721C32.9632 76.9263 33.2881 76.8582 33.6074 76.7683C34.2885 76.5851 34.9593 76.3735 35.6404 76.1852C37.0078 75.8033 38.3778 75.4112 39.7684 75.1403C39.8406 75.1274 39.82 75.019 39.7555 75.0268Z" fill="#263238"/>
<path d="M43.2178 76.1904C42.0699 76.0932 40.9174 76.0605 39.7658 76.0923C39.1879 76.1104 38.6177 76.162 38.0449 76.2291C37.7715 76.2626 37.498 76.2987 37.2245 76.34C36.951 76.3813 36.6311 76.469 36.3318 76.5077C36.3009 76.5077 36.3009 76.5619 36.3318 76.5567C36.6156 76.5284 36.9046 76.5567 37.191 76.5335L38.0501 76.4948C38.6254 76.469 39.2008 76.4484 39.7735 76.4174C40.9242 76.3555 42.0672 76.3065 43.2178 76.2858C43.2286 76.2833 43.2382 76.2772 43.2451 76.2686C43.2519 76.2599 43.2557 76.2492 43.2557 76.2381C43.2557 76.2271 43.2519 76.2163 43.2451 76.2077C43.2382 76.199 43.2286 76.1929 43.2178 76.1904Z" fill="#263238"/>
<path d="M26.8325 56.5256C17.5909 63.7754 8.51447 76.3065 8.45255 83.3138C8.38547 90.2308 10.7952 89.56 11.4789 89.5058C15.6585 89.2323 25.5012 69.9778 28.5069 62.1294C31.4765 54.3481 29.1029 54.7325 26.8325 56.5256Z" fill="#0F7757"/>
<path d="M17.0283 84.1081C17.5134 83.236 18.0113 82.3743 18.4809 81.4971L19.9205 78.8784C20.8699 77.1292 21.8349 75.3877 22.7585 73.623C23.6821 71.8582 24.6342 70.1142 25.5423 68.3443C26.0016 67.4619 26.4488 66.5736 26.8839 65.6792C27.3354 64.7916 27.7456 63.886 28.1739 62.9805C27.5153 64.8645 26.7521 66.7103 25.888 68.5094C25.0418 70.3154 24.1207 72.0879 23.1971 73.8552C22.2735 75.6225 21.275 77.3511 20.2559 79.0642C19.2368 80.7773 18.179 82.4775 17.0283 84.1081Z" fill="#263238"/>
<path d="M27.1914 65.3C27.362 64.9864 27.5525 64.6839 27.7616 64.3944C27.8648 64.2525 27.9628 64.1081 28.0738 63.9713C28.1847 63.8346 28.2879 63.6875 28.4117 63.5508C28.329 63.906 28.1744 64.2405 27.9577 64.5338C27.7515 64.8341 27.4917 65.0939 27.1914 65.3Z" fill="#263238"/>
<path d="M55.4237 70.5143C54.9386 67.266 53.9686 62.7381 52.7972 61.8016C51.564 60.8186 47.098 57.5317 45.8132 57.1034C44.5283 56.6751 38.8007 54.5673 37.7584 55.1839C36.9251 55.6793 37.9442 57.8748 40.6712 58.9017C43.0655 59.8047 44.3039 60.6561 44.9902 60.945C45.6764 61.234 47.387 63.4709 46.9406 64.4745C46.6826 65.0653 44.9773 65.7645 43.9091 65.3027C42.841 64.8408 42.5546 62.7227 41.3291 61.7526C40.1036 60.7825 37.9622 60.9193 37.8436 61.4946C37.7249 62.0699 38.437 62.3357 39.5541 64.2913C40.2739 65.5478 40.3539 68.5819 41.9767 70.7413C42.792 71.8249 44.2265 74.7197 44.2265 74.7197L55.4237 70.5143Z" fill="#C95F50"/>
<path d="M40.1836 60.8702C39.7916 60.8161 39.4226 60.6534 39.1181 60.4007C39.0215 60.3133 38.9476 60.2038 38.9027 60.0816C38.8577 59.9593 38.8431 59.828 38.8601 59.6989C38.862 59.6037 38.8977 59.5123 38.9607 59.4409C38.9813 59.4254 38.9607 59.3996 38.9401 59.4203C38.9105 59.4664 38.8778 59.5104 38.842 59.5519C38.8181 59.5901 38.7983 59.6308 38.7827 59.6731C38.7534 59.7559 38.7394 59.8433 38.7414 59.9311C38.7497 60.1304 38.8262 60.3208 38.9581 60.4703C39.1153 60.6316 39.3079 60.754 39.5206 60.8279C39.7333 60.9018 39.9603 60.9251 40.1836 60.896C40.2017 60.9012 40.2017 60.8728 40.1836 60.8702Z" fill="#263238"/>
<path d="M52.7976 61.8015C51.745 60.189 49.0695 57.2917 46.4379 56.3139C44.6603 55.6508 38.5947 58.6849 38.7857 59.8485C38.9766 61.0121 40.0163 61.0043 41.5566 60.8031C42.1164 60.7308 45.0757 59.6343 45.5891 60.251C46.327 61.1385 47.2842 64.1906 47.2842 64.1906L52.7976 61.8015Z" fill="#C95F50"/>
<path d="M38.9329 59.3916C39.6733 58.1352 41.3194 57.4515 42.9628 56.9097C42.9668 56.9111 42.9702 56.9138 42.9726 56.9172C42.975 56.9207 42.9763 56.9248 42.9763 56.929C42.9763 56.9332 42.975 56.9373 42.9726 56.9408C42.9702 56.9443 42.9668 56.9469 42.9628 56.9484C42.5449 57.0877 39.8668 58.3493 38.938 59.4097C38.9406 59.4226 38.9251 59.4019 38.9329 59.3916Z" fill="#263238"/>
<path d="M52.7978 61.8017C51.7451 60.1892 49.0697 57.2918 46.4381 56.314C44.6605 55.6509 39.8771 59.5003 40.0681 60.6639C40.259 61.8275 41.7554 61.9049 43.4014 61.3115C43.9329 61.1205 45.7234 59.8409 46.2239 60.4575C46.9618 61.345 48.7601 63.5535 48.7601 63.5535L52.7978 61.8017Z" fill="#C95F50"/>
<path d="M47.7305 62.1784C47.5602 61.9204 47.5035 61.8353 47.3306 61.585C47.1578 61.3347 46.9797 61.0845 46.7914 60.8497C46.6413 60.6279 46.4536 60.434 46.2367 60.2769C46.0134 60.154 45.7563 60.107 45.504 60.1428C44.9312 60.2021 44.4178 60.5711 43.9353 60.8549C43.3961 61.1722 42.2738 61.6882 41.4121 61.6056C41.1744 61.596 40.9414 61.5362 40.7284 61.4302C40.5673 61.3579 40.4265 61.2472 40.3182 61.1077C39.9363 60.4782 40.3956 59.748 40.8677 59.2295C41.7501 58.2645 42.9317 57.5602 44.0953 56.9771C44.3791 56.8352 44.6655 56.6985 44.9545 56.5643C45.2724 56.3886 45.6243 56.283 45.9865 56.2547C46.585 56.2418 47.5731 56.8404 47.8802 57.0287C47.9034 57.0416 47.9214 57.0029 47.8982 56.99C47.5267 56.763 46.6082 56.0251 45.6407 56.0844C45.2881 56.1412 44.9483 56.26 44.6371 56.4353C44.3017 56.5824 43.9715 56.7423 43.6438 56.91C43.0059 57.2328 42.3935 57.6036 41.812 58.0194C41.2315 58.4057 40.7262 58.8944 40.3208 59.4617C40.1514 59.7145 40.0537 60.0086 40.0383 60.3125C40.0229 60.6165 40.0902 60.919 40.233 61.1877C40.491 61.6237 41.0664 61.7243 41.327 61.7527C41.5796 61.7862 41.8355 61.7862 42.0881 61.7527C42.6506 61.6193 43.2032 61.4469 43.7418 61.2367C44.2578 61.0226 44.7326 60.6639 45.2692 60.4962C45.5228 60.4089 45.8004 60.4237 46.0432 60.5375C46.2646 60.6835 46.4628 60.8618 46.6315 61.0664C46.997 61.4172 47.3287 61.8016 47.6222 62.2145C47.7125 62.328 47.7924 62.2919 47.7305 62.1784Z" fill="#263238"/>
<path d="M53.5796 63.2101C53.19 62.4361 52.5167 59.2653 51.8923 58.2952C51.2679 57.3251 48.4274 53.9789 47.1193 54.1388C45.4758 54.3401 47.2225 57.289 48.0971 58.5016C48.9717 59.7142 48.8479 61.7911 48.8479 61.7911L53.5796 63.2101Z" fill="#C95F50"/>
<path d="M46.8735 56.5024C47.1831 56.8842 47.4591 57.3099 47.73 57.7227C48.008 58.1059 48.2581 58.5085 48.4782 58.9276C48.6628 59.357 48.7761 59.8136 48.8136 60.2795C48.8368 60.5091 48.8472 60.7362 48.8523 60.9658C48.8575 61.1954 48.8343 61.4818 48.8523 61.7217C48.8523 61.7475 48.8111 61.7527 48.8111 61.7217C48.7748 61.2641 48.7102 60.8091 48.6176 60.3595C48.5318 59.8922 48.3889 59.4373 48.1918 59.005C47.7971 58.1458 47.2269 57.3847 46.8245 56.5308C46.8012 56.4843 46.8502 56.4611 46.8735 56.5024Z" fill="#263238"/>
<path d="M48.8293 62.1396C48.9428 62.9291 48.7158 63.7289 48.432 64.4616C48.2867 64.8317 48.1142 65.1904 47.916 65.5349C47.7142 65.8753 47.4901 66.202 47.2451 66.5127C46.7735 67.105 46.3783 67.7543 46.0687 68.4452C45.7762 69.1555 45.5717 69.8989 45.4598 70.6588C45.3938 69.8694 45.4814 69.0748 45.7178 68.3187C45.9747 67.5624 46.3576 66.855 46.8504 66.2264C47.3194 65.628 47.7257 64.983 48.063 64.3017C48.401 63.6128 48.7415 62.9162 48.8293 62.1396Z" fill="#263238"/>
<path d="M52.8263 89.2268C49.6168 88.7934 47.5192 83.427 43.8556 74.0048C43.2106 72.3485 51.5956 62.1652 52.736 63.6848C54.1731 65.5992 58.0431 76.2572 58.4481 79.1648C59.2505 84.8821 56.5725 89.7325 52.8263 89.2268Z" fill="#C95F50"/>
<path d="M45.7881 79.2576L56.1313 69.2085C56.1313 69.2085 59.0699 77.8567 58.7939 81.4816C58.5178 85.1065 57.2459 89.237 52.8908 89.4641C49.6245 89.6344 45.7881 79.2576 45.7881 79.2576Z" fill="#0F7757"/>
<path d="M49.1343 86.2135C48.7602 85.6846 48.4274 85.1299 48.1023 84.5726C47.7773 84.0153 47.478 83.4452 47.1864 82.8698C46.8949 82.2945 46.6266 81.7037 46.3892 81.1025C46.1349 80.5065 45.9338 79.8892 45.7881 79.2578C46.0616 79.8435 46.3505 80.4162 46.6421 80.989L47.5115 82.7073C47.7927 83.2852 48.0791 83.8605 48.3474 84.4436C48.6158 85.0267 48.8918 85.6124 49.1343 86.2135Z" fill="#263238"/>
<path d="M48.0164 81.012C48.5169 80.4599 49.069 79.9491 49.6005 79.4305C50.132 78.9119 50.6738 78.3985 51.2207 77.8825C52.3095 76.866 53.4077 75.8581 54.5154 74.8587C54.8198 74.5853 55.1251 74.3144 55.4313 74.046C55.7615 73.7597 56.1279 73.5146 56.4633 73.2256C56.4689 73.2228 56.4753 73.222 56.4814 73.2232C56.4875 73.2244 56.4931 73.2276 56.4972 73.2324C56.5013 73.2371 56.5038 73.243 56.5042 73.2492C56.5046 73.2555 56.5029 73.2617 56.4994 73.2669C56.2414 73.5249 56.0066 73.8113 55.7486 74.0718C55.4906 74.3324 55.2068 74.6059 54.9308 74.8691C54.3924 75.3851 53.8506 75.8968 53.3054 76.4042C52.214 77.4207 51.1201 78.4346 49.9978 79.4176C49.3631 79.9723 48.7413 80.5502 48.0757 81.0662C48.0685 81.0741 48.0585 81.0788 48.0479 81.0793C48.0372 81.0797 48.0268 81.076 48.0189 81.0688C48.0111 81.0616 48.0064 81.0516 48.0059 81.0409C48.0054 81.0303 48.0092 81.0199 48.0164 81.012Z" fill="#263238"/>
<path d="M29.5648 55.7281C29.6396 56.2441 31.8197 59.8819 34.7093 59.7064C36.3786 59.5981 35.2434 56.2441 35.2434 56.2441L36.6959 51.662L31.1567 47.4282C31.1567 47.4282 29.5364 55.5036 29.5648 55.7281Z" fill="#C95F50"/>
<path d="M30.5635 50.4548C30.9346 51.6562 31.549 52.7684 32.3683 53.7223C33.1877 54.6761 34.1945 55.4512 35.3262 55.9993L36.6987 51.6752L31.1569 47.4414C31.1569 47.4414 30.8886 48.8011 30.5635 50.4548Z" fill="#263238"/>
<path d="M43.2254 45.2407C43.3905 53.1097 38.6949 54.0979 36.9973 54.1314C35.4493 54.1624 30.2067 54.0695 29.2289 46.2573C28.2511 38.445 31.8605 35.8805 35.3796 35.6251C38.8988 35.3697 43.0629 37.3692 43.2254 45.2407Z" fill="#C95F50"/>
<path d="M41.3809 44.6085C41.2065 44.5674 41.0343 44.5175 40.8649 44.4589C40.6689 44.4329 40.4873 44.3421 40.3489 44.2009C40.3148 44.1493 40.2989 44.0878 40.3035 44.0262C40.3082 43.9645 40.3332 43.9062 40.3747 43.8603C40.4702 43.7819 40.5848 43.7304 40.7067 43.7109C40.8287 43.6914 40.9536 43.7047 41.0687 43.7494C41.3166 43.805 41.5353 43.9502 41.6828 44.157C41.7125 44.2057 41.7277 44.262 41.7265 44.3191C41.7253 44.3761 41.7078 44.4317 41.6761 44.4792C41.6443 44.5266 41.5997 44.564 41.5474 44.5869C41.4951 44.6099 41.4373 44.6173 41.3809 44.6085Z" fill="#263238"/>
<path d="M35.9865 44.3764C36.1675 44.3618 36.3475 44.3368 36.5257 44.3015C36.7194 44.3039 36.9084 44.2412 37.0623 44.1235C37.1038 44.0777 37.1289 44.0193 37.1335 43.9577C37.1382 43.896 37.1222 43.8345 37.0881 43.783C37.0056 43.6907 36.8998 43.6223 36.7818 43.5851C36.6637 43.5479 36.5378 43.5432 36.4173 43.5714C36.1638 43.587 35.9258 43.6987 35.7517 43.8836C35.7144 43.9276 35.6906 43.9814 35.6832 44.0385C35.6757 44.0957 35.685 44.1538 35.7098 44.2059C35.7346 44.2579 35.7739 44.3017 35.823 44.332C35.872 44.3622 35.9288 44.3776 35.9865 44.3764Z" fill="#263238"/>
<path d="M36.9619 46.4404C36.9619 46.4198 36.9206 46.4637 36.9181 46.4869C36.9181 47.0209 36.8071 47.635 36.3143 47.7769C36.2989 47.7769 36.2989 47.8078 36.3143 47.8078C36.9129 47.7588 37.0393 46.9564 36.9619 46.4404Z" fill="#263238"/>
<path d="M36.5123 45.8518C35.6557 45.7409 35.4983 47.4669 36.2929 47.5675C37.0876 47.6681 37.2321 45.9421 36.5123 45.8518Z" fill="#263238"/>
<path d="M36.1673 45.9242C36.0073 46.0093 35.8448 46.1667 35.6513 46.1822C35.4578 46.1976 35.2952 45.9887 35.174 45.8029C35.1611 45.7848 35.1456 45.8029 35.143 45.821C35.1095 46.1512 35.2049 46.4995 35.5558 46.5821C35.9067 46.6646 36.1311 46.3834 36.2447 46.0661C36.2756 45.9732 36.2318 45.8777 36.1673 45.9242Z" fill="#263238"/>
<path d="M40.1991 46.4892C40.1991 46.4685 40.2378 46.5201 40.2353 46.5408C40.1656 47.0722 40.1759 47.694 40.6429 47.9185C40.6558 47.9185 40.6429 47.952 40.6429 47.9469C40.0521 47.8075 40.0469 46.9819 40.1991 46.4892Z" fill="#263238"/>
<path d="M40.7304 45.9786C41.5947 45.9993 41.5044 47.7253 40.6917 47.7098C39.879 47.6943 40.0055 45.9631 40.7304 45.9786Z" fill="#263238"/>
<path d="M41.0843 46.1152C41.2159 46.2132 41.3423 46.3887 41.5022 46.4093C41.6622 46.4299 41.8428 46.2519 41.9744 46.0816C41.9873 46.0636 42.0002 46.0816 42.0002 46.1023C42.0002 46.4325 41.8583 46.7705 41.5384 46.8144C41.2184 46.8582 41.0482 46.5564 40.9888 46.2261C40.9785 46.1642 41.0224 46.0739 41.0843 46.1152Z" fill="#263238"/>
<path d="M36.9539 50.5529C37.0648 50.6948 37.168 50.8832 37.3589 50.9244C37.5566 50.9478 37.757 50.9293 37.9472 50.8703C37.9652 50.8703 37.9807 50.8857 37.9678 50.8986C37.8776 50.993 37.7636 51.0613 37.6378 51.0963C37.512 51.1312 37.3791 51.1316 37.2532 51.0973C37.1476 51.0547 37.0571 50.9817 36.9932 50.8875C36.9294 50.7933 36.895 50.6822 36.8945 50.5684C36.8945 50.5374 36.9384 50.5323 36.9539 50.5529Z" fill="#263238"/>
<path d="M39.3402 48.7959C39.3402 48.7959 39.3892 49.6008 39.3582 49.9775C39.3582 50.0136 39.2628 50.024 39.1364 50.0214H39.1209C38.793 50.0539 38.4624 49.9961 38.165 49.8542C37.8675 49.7123 37.6146 49.4918 37.4336 49.2164C37.4103 49.1777 37.4619 49.1416 37.4929 49.1674C37.9479 49.5333 38.509 49.7423 39.0925 49.7634C39.126 49.6628 38.9635 48.3857 39.0254 48.3857C39.3153 48.4332 39.5974 48.52 39.8639 48.6437C39.8149 46.9589 39.4924 45.2897 39.4692 43.6204C39.4668 43.6074 39.4697 43.594 39.4772 43.5831C39.4847 43.5722 39.4962 43.5647 39.5092 43.5623C39.5222 43.56 39.5356 43.5628 39.5465 43.5703C39.5574 43.5778 39.5648 43.5893 39.5672 43.6023C40.0265 45.3206 40.1271 47.2582 40.2251 48.9945C40.2483 49.2138 39.4872 48.8707 39.3402 48.7959Z" fill="#263238"/>
<path d="M29.4127 46.0763C31.3503 46.3343 32.9112 40.5087 33.0944 39.7915C33.0041 40.2507 32.5242 42.6759 32.6919 42.8049C32.8985 42.8402 33.1096 42.8402 33.3162 42.8049C33.3669 42.5135 33.4393 42.2263 33.533 41.9458C33.5717 41.8142 33.533 42.2476 33.533 42.7868C33.6465 42.7868 33.7703 42.7585 33.9045 42.7481C33.9891 42.1216 34.1565 41.5091 34.4024 40.9267C34.4979 40.7074 34.3844 41.7523 34.4514 42.694C35.8395 42.5598 37.839 42.4153 39.6424 42.6578C40.1274 42.7223 40.5402 42.7972 40.904 42.8771C41.0279 42.1599 41.0743 41.3782 41.1001 41.5536C41.1703 42.0119 41.1953 42.4759 41.1749 42.9391C41.371 42.9855 41.5516 43.0294 41.7141 43.0732C41.936 42.067 41.727 40.3616 41.8483 40.6377C42.2014 41.4845 42.3905 42.3907 42.4056 43.308C43.0764 43.566 43.2441 43.726 43.2957 43.5505C43.3834 43.2306 43.4685 40.3204 41.6058 37.859C39.5831 35.1862 34.8771 33.8033 31.5799 36.827C31.5799 36.827 29.1031 37.9055 28.3549 40.181C27.6067 42.4566 28.2904 45.9241 29.4127 46.0763Z" fill="#263238"/>
<path d="M30.5654 46.2985C30.5654 46.2985 29.0174 43.734 27.859 44.2732C26.7006 44.8125 27.7609 48.4503 29.0355 49.023C29.1939 49.1075 29.3678 49.1591 29.5467 49.1746C29.7256 49.1902 29.9058 49.1694 30.0765 49.1134C30.2471 49.0575 30.4047 48.9677 30.5397 48.8492C30.6747 48.7308 30.7844 48.5863 30.8621 48.4245L30.5654 46.2985Z" fill="#C95F50"/>
<path d="M28.1871 45.3076C28.1838 45.309 28.1809 45.3113 28.1789 45.3143C28.1769 45.3172 28.1758 45.3208 28.1758 45.3244C28.1758 45.328 28.1769 45.3315 28.1789 45.3345C28.1809 45.3375 28.1838 45.3398 28.1871 45.3412C29.0798 45.7746 29.5055 46.6544 29.7867 47.5574C29.5287 47.2013 29.1779 46.9898 28.7031 47.2839C28.6773 47.2994 28.7031 47.3381 28.7238 47.3355C28.8879 47.2947 29.0606 47.3058 29.2182 47.3673C29.3758 47.4287 29.5104 47.5375 29.6036 47.6786C29.7576 47.9166 29.8864 48.1699 29.988 48.4346C30.0241 48.5197 30.1763 48.4862 30.1505 48.3907C30.1493 48.383 30.1493 48.3752 30.1505 48.3675C30.2331 47.2142 29.4333 45.5089 28.1871 45.3076Z" fill="#263238"/>
<path d="M37.3901 59.4253L33.0247 72.9238C32.8519 73.316 33.0247 73.6565 33.4298 73.6823L40.5119 74.1467C40.7292 74.1446 40.9415 74.0809 41.1241 73.9631C41.3067 73.8453 41.4523 73.6782 41.5439 73.4811L45.9015 59.9825C46.0744 59.5878 45.9015 59.2472 45.499 59.2085L38.4169 58.7441C38.1987 58.7483 37.9863 58.8146 37.8044 58.9353C37.6225 59.0559 37.4788 59.2259 37.3901 59.4253Z" fill="#37474F"/>
<path d="M38.231 59.4718L33.8734 72.9704C33.7005 73.3651 33.8734 73.7057 34.2784 73.7315L41.3605 74.1959C41.5778 74.1937 41.7901 74.13 41.9727 74.0122C42.1554 73.8944 42.3009 73.7273 42.3925 73.5302L46.7501 60.0291C46.923 59.6369 46.7501 59.2964 46.3477 59.2706L39.2656 58.8062C39.0477 58.8072 38.8346 58.8704 38.6513 58.9883C38.4681 59.1062 38.3223 59.2739 38.231 59.4718Z" fill="#455A64"/>
<path d="M40.132 60.2253C40.1219 60.3443 40.0767 60.4576 40.0021 60.5509C39.9275 60.6442 39.827 60.7133 39.7131 60.7495C39.5993 60.7856 39.4773 60.7872 39.3626 60.7539C39.2479 60.7207 39.1456 60.6542 39.0686 60.5629C38.9917 60.4715 38.9436 60.3594 38.9304 60.2407C38.9173 60.1219 38.9396 60.002 38.9946 59.896C39.0496 59.79 39.1348 59.7027 39.2395 59.6451C39.3441 59.5875 39.4635 59.5623 39.5825 59.5726C39.7419 59.5863 39.8893 59.6628 39.9923 59.7852C40.0954 59.9076 40.1456 60.0659 40.132 60.2253Z" fill="#263238"/>
<path d="M10.519 89.5003C13.615 89.926 17.4669 87.5241 27.4644 80.2252C28.8473 79.2165 24.3452 67.5368 22.8204 68.5378C20.8906 69.802 13.6717 75.1194 13.1944 75.5761C9.14897 79.4177 8.42141 89.2114 10.519 89.5003Z" fill="#C95F50"/>
<path d="M19.2422 72.0698C19.2422 72.0698 22.0802 68.0759 24.2345 66.4402C27.1086 64.2498 30.491 63.5403 31.9255 63.3287C34.9208 62.8876 42.4699 63.8938 42.5602 66.1177C42.6428 68.1327 34.9776 66.7163 34.9776 66.7163C34.9776 66.7163 43.0298 66.8711 42.6841 69.3143C42.3383 71.7576 33.5405 69.6059 33.5405 69.6059C33.5405 69.6059 41.812 69.949 41.0561 72.4129C40.4833 74.2731 32.4002 72.7741 32.4002 72.7741C32.4002 72.7741 39.5055 73.1198 38.9998 75.06C38.44 77.2014 30.8935 76.2855 30.8935 76.2855C28.7779 80.9992 25.7335 82.3253 23.5379 83.058C22.9935 83.236 19.2422 72.0698 19.2422 72.0698Z" fill="#C95F50"/>
<path d="M32.1963 66.4841C33.1432 66.4661 34.1004 66.4454 35.0343 66.5125C35.9683 66.5796 36.9229 66.6828 37.8568 66.8376C39.082 67.0177 40.2826 67.3371 41.4353 67.7896C39.33 67.1369 35.9528 66.8402 35.0085 66.7705C34.0642 66.7008 33.1251 66.5873 32.1705 66.5125C32.1679 66.5177 32.1731 66.4841 32.1963 66.4841Z" fill="#263238"/>
<path d="M31.8871 69.8896C33.0972 69.9232 34.2994 69.9103 35.4991 69.9954C36.6988 70.0806 37.834 70.2663 39.0286 70.434C39.1189 70.4469 39.0828 70.4908 38.9899 70.4805C37.7902 70.3618 36.6679 70.3437 35.4708 70.2379C34.2736 70.1322 33.0739 69.9799 31.8742 69.918C31.8665 69.918 31.8691 69.8896 31.8871 69.8896Z" fill="#263238"/>
<path d="M31.0972 72.7562C32.9496 72.7097 34.8046 73.0142 36.6209 73.3393C36.7112 73.3573 36.6571 73.4089 36.5642 73.3986C34.7298 73.169 33.2953 72.9781 31.0997 72.8207C31.0636 72.8284 31.0585 72.7562 31.0972 72.7562Z" fill="#263238"/>
<path d="M19.2418 70.4834L23.1815 84.8385C23.1815 84.8385 12.6035 91.0589 10.2815 89.4154C7.95951 87.772 9.47139 79.4799 12.1262 76.3194C13.215 75.001 19.2418 70.4834 19.2418 70.4834Z" fill="#0F7757"/>
<path d="M19.3733 70.9502L19.2185 70.478L19.2572 70.4935C18.2587 71.3088 17.2577 72.1163 16.2696 72.9393C15.2814 73.7624 14.2907 74.5828 13.3516 75.4523C12.8757 75.8735 12.4276 76.3251 12.01 76.8042C11.6104 77.2973 11.2539 77.8239 10.9444 78.378C10.3307 79.5067 9.90047 80.726 9.66992 81.99C9.77173 80.6918 10.1221 79.4252 10.7019 78.2593C10.9933 77.6731 11.3461 77.1196 11.7546 76.6081C12.1747 76.1085 12.6272 75.6371 13.1091 75.1968C14.0662 74.3274 15.0699 73.5121 16.0864 72.72C17.1029 71.928 18.1504 71.172 19.2288 70.4625L19.2598 70.4419V70.4754L19.3733 70.9502Z" fill="#263238"/>
<path d="M16.9279 74.0462C17.1678 74.7505 17.351 75.4781 17.5497 76.1953C17.7483 76.9126 17.9418 77.635 18.125 78.36C18.4914 79.8048 18.85 81.2521 19.188 82.7047C19.2808 83.102 19.3737 83.4993 19.446 83.8992C19.5182 84.2991 19.5775 84.7635 19.673 85.1892C19.6739 85.1926 19.674 85.1961 19.6735 85.1996C19.673 85.203 19.6718 85.2064 19.67 85.2094C19.6664 85.2154 19.6605 85.2198 19.6537 85.2215C19.6468 85.2232 19.6396 85.2221 19.6335 85.2185C19.6275 85.2148 19.6231 85.209 19.6214 85.2021C19.5259 84.8487 19.3789 84.5081 19.2757 84.1546C19.1725 83.8012 19.0667 83.4245 18.9712 83.0556C18.7803 82.3349 18.5928 81.6133 18.4088 80.8909C18.0399 79.4461 17.6787 77.9988 17.3587 76.5411C17.1781 75.7206 16.9717 74.895 16.8427 74.0643C16.8416 74.0587 16.8415 74.0529 16.8425 74.0473C16.8436 74.0417 16.8457 74.0363 16.8488 74.0315C16.8519 74.0267 16.856 74.0226 16.8607 74.0194C16.8654 74.0161 16.8707 74.0139 16.8763 74.0127C16.8819 74.0115 16.8876 74.0114 16.8933 74.0125C16.8989 74.0135 16.9042 74.0156 16.909 74.0188C16.9138 74.0219 16.918 74.0259 16.9212 74.0306C16.9244 74.0353 16.9267 74.0406 16.9279 74.0462Z" fill="#263238"/>
<path d="M23.1817 84.8385C23.2514 84.9727 23.2462 84.8592 23.2307 84.7766C23.2153 84.6941 23.0527 84.0026 22.9005 83.564C22.885 83.5202 22.8179 83.4428 22.8437 83.6001C22.9343 84.0187 23.0471 84.432 23.1817 84.8385Z" fill="#263238"/>
</svg>
