<svg width="144" height="144" viewBox="0 0 144 144" fill="none" xmlns="http://www.w3.org/2000/svg">
<path d="M108 108C127.882 88.1177 127.882 55.8823 108 36C88.1177 16.1178 55.8822 16.1178 36 36C16.1177 55.8823 16.1177 88.1177 36 108C55.8822 127.882 88.1177 127.882 108 108Z" fill="#0F7757"/>
<path d="M63.6258 49.894L68.8743 50.6238L70.7622 52.3369L73.0871 52.538L73.9611 54.6749L73.5241 56.187L72.0033 57.0086L68.1139 56.6371L67.9785 56.1739L69.7134 54.7842L68.3062 52.5511L64.8363 52.3063L62.9004 50.8598L63.6258 49.894Z" fill="white"/>
<path d="M108.519 94.932L104.368 94.495L99.3684 94.1934L95.7762 95.2466L92.2058 95.5351L88.7359 97.4317L86.682 98.1571L85.4059 98.5286L83.3738 100.635L81.3286 102.239L77.6096 101.194L77.4742 97.6983L75.2629 97.4623L72.9467 98.144L72.2912 97.2001L71.911 95.0456L70.7617 94.1235L69.2059 94.8315L69.0792 96.1425L67.1433 96.833L64.7921 95.2554L63.2845 92.677L64.0754 88.9187L67.506 88.1671L68.6684 88.709L70.0625 88.3025L71.4959 86.7512L73.139 86.773L76.2768 89.7578L77.0546 89.4038L76.0452 86.8036L74.9395 85.6149L74.5287 83.3468L78.2783 80.2353L77.6096 75.7647L79.0256 73.7151L79.7554 70.608L80.8479 70.0355L83.0067 67.514L82.8494 66.5525L81.0271 67.2124L80.4065 66.3865L79.1304 66.7579L77.295 67.798L77.7844 66.0194L81.5034 63.6726L82.1283 62.3616L84.4969 64.4418L85.8473 65.1803L87.3331 64.2408L86.1969 62.9297L83.2514 61.9028L79.5543 59.5866L76.0583 58.4635L73.139 58.8131L71.3429 57.8298L69.3502 57.9085L69.254 58.4373L70.0057 61.8678L70.8098 62.8948L70.8491 66.9109L67.9867 65.731L67.86 64.0091L65.0849 63.5721L63.6865 62.5932L63.4199 59.5342L66.0682 56.1124L65.487 53.2631L64.2459 53.7525L63.1315 52.944L62.2575 51.3096L61.4097 51.4276L61.4883 53.4204L60.2822 54.0235L58.5342 50.1341L57.4373 49.8282L55.6106 49.6053L54.0111 51.0649L56.974 52.5901L58.0141 54.4255L52.9229 52.5158L49.1078 50.2302L47.9585 47.1711L44.6722 47.1274L42.793 49.3125C42.3308 49.8174 41.8406 50.296 41.3247 50.7459C40.4743 51.2366 39.5891 51.6645 38.6764 52.0263L38.79 54.1327L36.168 55.0286L36.771 56.2391L41.2635 55.6797L44.1827 57.4671L45.367 61.5269L45.1442 65.495L46.4945 69.2576L44.9082 75.8871L46.6912 84.5574L49.1559 89.1241L51.7518 92.393L53.5566 92.1176L52.4335 90.4308L51.1006 89.312L49.7896 86.9303L50.7641 86.3928L53.609 90.0943L55.8553 93.4636L56.7293 96.479L59.7141 98.5024L64.5212 100.25L71.0283 100.111L73.3925 101.308L75.3285 102.754L77.7888 103.419L80.542 103.371L83.0592 102.497C83.0592 102.497 83.282 103.69 83.4525 104.271C83.6229 104.852 82.5784 107.295 82.5784 107.295L81.9797 109.996L83.6535 112.277L86.5072 112.574L91.157 115.235L92.988 115.454L93.495 117.202L93.932 117.954C102.529 113.859 109.799 107.425 114.908 99.3895L114.725 98.5155L116.193 91.9166L114.38 91.3135L108.519 94.932Z" fill="white"/>
<path d="M107.187 45.5894L105.264 43.7583L102.895 41.6825L101.414 38.3394L103.599 38.0772L103.376 36.8842L101.834 37.2076L102.939 36.2549L104.097 35.0356L103.756 33.8732L101.825 32.4398L100.798 30.0319C91.6482 23.7531 80.6987 20.6334 69.6138 21.1469C58.5289 21.6604 47.9148 25.779 39.3848 32.8768L42.6143 33.9868L41.6004 36.5477L39.5334 37.6839L40.2151 40.8828L39.3892 41.5034L38.6025 43.1159L39.328 45.1699L41.3688 44.8246L41.1328 47.0359L43.1037 46.4591L45.2145 41.18L45.0178 39.2222L48.1993 38.0423L48.6057 36.4122L51.8658 35.0793L51.6386 33.0079L54.0377 32.1776C54.0377 32.1776 55.5061 30.7442 55.8557 30.6393C56.5686 30.588 57.2842 30.588 57.997 30.6393L60.1428 31.5133L62.5769 30.801L64.2944 28.9175L67.0257 28.3668C67.482 28.5106 67.9662 28.5421 68.4372 28.4586C69.0184 28.2882 70.5218 26.9684 70.5218 26.9684L74.4942 28.074L76.1942 28.7077L76.7011 30.4558L78.5103 30.1804L78.7813 28.9656L80.4943 29.2234L80.6473 30.1848L77.4396 32.1295L80.1578 34.1048L85.013 35.2017L87.4297 37.0153L90.0518 36.4996L90.2921 35.1886L91.1661 34.686L87.4734 33.2483L85.5506 33.5585L86.9228 32.6539L84.9562 31.0894L86.8922 30.3946L89.8507 31.0413L91.2448 33.6634L92.9622 34.7996L94.99 37.8587L98.084 38.9643L99.2027 42.7926L102.38 43.754L102.633 45.065L102.729 46.6776L104.04 48.5611L104.578 49.5356L106.649 49.3084L106.999 47.0665L107.187 45.5894Z" fill="white"/>
<path d="M105.277 33.4624L105.47 34.131L105.435 36.1544L106.256 37.6796L107.668 37.767L108.315 39.9739L106.75 39.7991L108.236 46.1619L107.589 49.1205L109.468 52.0965L111.382 53.0492L113.213 59.3116L116.146 63.7428L118.855 66.9767L121.726 66.8937L121.975 64.3022L122.264 63.8958C120.354 52.0705 114.34 41.2958 105.277 33.4624Z" fill="white"/>
<path d="M75.0929 92.1133L74.7607 92.712L78.5453 92.7382L80.4157 93.9575L82.6837 93.5423L83.1251 92.0303L80.3195 92.3449L75.0929 92.1133Z" fill="white"/>
<path d="M86.0573 91.3008L83.8242 92.708L84.4448 93.5339L87.4601 92.6511L87.7704 91.5542L86.7566 91.9738L86.0573 91.3008Z" fill="white"/>
<path opacity="0.19" d="M109.879 101.924C99.8329 104.859 89.1259 104.627 79.2164 101.258C69.3069 97.8891 60.6764 91.548 54.5002 83.0981C48.324 74.6482 44.9021 64.5 44.7006 54.0355C44.4991 43.571 47.5277 33.2986 53.374 24.6172C45.9475 27.5372 39.3113 32.1621 34.0009 38.1187C28.6906 44.0753 24.8549 51.1968 22.8032 58.9086C20.7515 66.6204 20.5414 74.7065 22.1898 82.5144C23.8381 90.3223 27.2988 97.6334 32.2926 103.858C37.2864 110.082 43.6734 115.046 50.9383 118.347C58.2032 121.649 66.1425 123.197 74.1157 122.866C82.0889 122.535 89.8725 120.334 96.8387 116.441C103.805 112.549 109.758 107.073 114.219 100.456C112.807 101.007 111.361 101.487 109.879 101.924Z" fill="black"/>
<path d="M71.9862 120.423C69.6049 120.422 67.227 120.245 64.8717 119.894C64.843 119.89 64.8154 119.881 64.7904 119.866C64.7654 119.851 64.7436 119.832 64.7261 119.809C64.7087 119.785 64.696 119.759 64.6887 119.731C64.6814 119.703 64.6798 119.674 64.6838 119.645C64.6878 119.616 64.6974 119.589 64.7121 119.564C64.7268 119.539 64.7463 119.517 64.7694 119.5C64.7925 119.482 64.8189 119.469 64.8469 119.462C64.875 119.455 64.9042 119.453 64.9329 119.457C67.6808 119.866 70.4589 120.035 73.2361 119.964C73.293 119.964 73.3478 119.986 73.3892 120.025C73.4306 120.064 73.4556 120.117 73.4589 120.174C73.4601 120.203 73.4555 120.232 73.4453 120.259C73.4351 120.286 73.4196 120.311 73.3996 120.333C73.3797 120.354 73.3557 120.371 73.3291 120.382C73.3025 120.394 73.2739 120.401 73.2448 120.401C72.834 120.414 72.4101 120.423 71.9862 120.423Z" fill="#263238"/>
<path d="M62.8474 119.54H62.8037C61.3572 119.256 59.9107 118.907 58.4948 118.496C58.4661 118.488 58.4393 118.474 58.4159 118.456C58.3924 118.437 58.3728 118.414 58.3582 118.388C58.3436 118.362 58.3343 118.334 58.3307 118.304C58.3272 118.275 58.3295 118.245 58.3375 118.216C58.3455 118.187 58.3591 118.16 58.3776 118.137C58.396 118.114 58.4188 118.094 58.4448 118.079C58.4707 118.065 58.4993 118.055 58.5289 118.052C58.5585 118.048 58.5885 118.051 58.6172 118.059C60.02 118.465 61.4578 118.815 62.8868 119.09C62.9438 119.102 62.994 119.135 63.0267 119.183C63.0594 119.232 63.0719 119.291 63.0616 119.348C63.0552 119.4 63.03 119.449 62.9906 119.484C62.9513 119.52 62.9004 119.539 62.8474 119.54Z" fill="#263238"/>
<path d="M56.7691 117.945H56.7036C45.3957 114.176 35.8745 106.37 29.962 96.0209C24.0495 85.6714 22.1609 73.5051 24.6576 61.8502C24.6633 61.8222 24.6745 61.7956 24.6907 61.772C24.7068 61.7484 24.7275 61.7283 24.7515 61.7128C24.7755 61.6973 24.8024 61.6868 24.8306 61.6819C24.8587 61.677 24.8876 61.6778 24.9154 61.6842C24.9717 61.6968 25.0208 61.7307 25.0526 61.7787C25.0844 61.8268 25.0963 61.8853 25.0859 61.942C22.6153 73.4892 24.4882 85.5419 30.3463 95.7949C36.2045 106.048 45.6367 113.782 56.839 117.517C56.8944 117.536 56.9401 117.575 56.9662 117.628C56.9924 117.68 56.9969 117.741 56.9789 117.796C56.9641 117.84 56.9358 117.878 56.8981 117.905C56.8605 117.931 56.8153 117.945 56.7691 117.945Z" fill="#263238"/>
<path d="M26.5189 56.2787C26.4838 56.2784 26.4492 56.2698 26.4181 56.2536C26.3869 56.2374 26.36 56.2141 26.3395 56.1856C26.3191 56.1571 26.3057 56.1241 26.3004 56.0894C26.2951 56.0547 26.2981 56.0192 26.3091 55.9859C27.3473 53.0467 28.6644 50.2136 30.2422 47.5253C30.2562 47.5003 30.2751 47.4784 30.2978 47.4609C30.3205 47.4433 30.3464 47.4305 30.3741 47.4231C30.4018 47.4158 30.4308 47.4141 30.4591 47.4182C30.4875 47.4222 30.5148 47.4319 30.5394 47.4467C30.5893 47.4767 30.6254 47.5251 30.6402 47.5814C30.6549 47.6378 30.6469 47.6976 30.618 47.7482C29.0581 50.4116 27.7571 53.2184 26.733 56.1301C26.718 56.1746 26.6891 56.213 26.6505 56.2398C26.612 56.2666 26.5658 56.2802 26.5189 56.2787Z" fill="#263238"/>
<path d="M71.9284 123.154C62.4387 123.14 53.1403 120.485 45.0739 115.486C37.0074 110.488 30.4912 103.343 26.2545 94.8514C22.0178 86.36 20.2279 76.8571 21.085 67.4062C21.9421 57.9553 25.4124 48.9294 31.1076 41.3387C36.8028 33.748 44.4981 27.892 53.3322 24.4262C62.1663 20.9603 71.7906 20.0213 81.1281 21.7143C90.4655 23.4073 99.1475 27.6655 106.202 34.0123C113.257 40.359 118.407 48.5439 121.075 57.6509C122.959 64.0957 123.556 70.8486 122.831 77.5241C122.106 84.1996 120.073 90.6669 116.849 96.5568C113.624 102.447 109.271 107.644 104.038 111.851C98.8052 116.059 92.7946 119.194 86.3497 121.079C81.6656 122.452 76.8097 123.151 71.9284 123.154ZM72.0726 21.2829C61.4296 21.2652 51.051 24.5978 42.4078 30.8082C33.7646 37.0186 27.2953 45.7918 23.9169 55.8844C20.5385 65.9769 20.4223 76.8768 23.5847 87.0392C26.7472 97.2015 33.028 106.111 41.5368 112.504C50.0456 118.897 60.3508 122.45 70.9918 122.659C81.6327 122.869 92.0696 119.723 100.823 113.67C109.577 107.616 116.203 98.9603 119.762 88.9302C123.322 78.9 123.634 68.004 120.655 57.7864C117.577 47.2767 111.182 38.0444 102.425 31.4678C93.6684 24.8912 83.0195 21.3231 72.0682 21.2961L72.0726 21.2829Z" fill="#263238"/>
<path d="M79.0217 50.2388C79.5679 52.6293 78.6153 54.8842 76.8934 55.2732C75.1716 55.6621 73.3405 54.0496 72.7943 51.6591C72.248 49.2687 73.2051 47.0137 74.9225 46.6248C76.64 46.2358 78.4842 47.8484 79.0217 50.2388Z" fill="#263238"/>
<path d="M77.3388 48.5128C77.6622 49.413 77.4874 50.3002 76.9455 50.4925C76.4036 50.6847 75.7044 50.1166 75.381 49.2164C75.0576 48.3161 75.2368 47.4334 75.7743 47.2367C76.3118 47.0401 77.0154 47.6169 77.3388 48.5128Z" fill="white"/>
<path d="M100.36 45.1655C100.907 47.556 99.9539 49.8066 98.232 50.1999C96.5102 50.5932 94.6748 48.9719 94.1329 46.5858C93.591 44.1997 94.5393 41.9404 96.2611 41.5471C97.9829 41.1538 99.8184 42.7751 100.36 45.1655Z" fill="#263238"/>
<path d="M98.5036 43.2251C98.827 44.0991 98.6522 45.0081 98.1103 45.2004C97.5684 45.3926 96.8692 44.8245 96.5458 43.9287C96.2224 43.0328 96.4016 42.1413 96.9435 41.949C97.4854 41.7567 98.1846 42.3248 98.5036 43.2251Z" fill="white"/>
<path d="M89.6023 69.8169C87.2212 69.7992 84.8914 69.1238 82.8701 67.8652C80.8488 66.6066 79.2147 64.8139 78.1482 62.6849C78.1221 62.6336 78.1064 62.5775 78.1019 62.5201C78.0974 62.4627 78.1043 62.4049 78.1222 62.3501C78.14 62.2953 78.1685 62.2446 78.206 62.2008C78.2434 62.157 78.2891 62.1211 78.3405 62.0949C78.3919 62.0688 78.4479 62.0531 78.5053 62.0486C78.5628 62.0442 78.6205 62.051 78.6753 62.0689C78.7301 62.0868 78.7808 62.1152 78.8246 62.1527C78.8684 62.1901 78.9044 62.2359 78.9305 62.2872C80.1141 64.6728 82.0607 66.5945 84.4613 67.7473C86.8619 68.9001 89.5788 69.2179 92.1806 68.6501C97.6607 67.4046 101.52 62.3091 101.358 56.5449C101.358 56.429 101.404 56.3179 101.486 56.2359C101.568 56.154 101.679 56.1079 101.795 56.1079C101.911 56.1079 102.022 56.154 102.104 56.2359C102.186 56.3179 102.232 56.429 102.232 56.5449C102.337 59.5146 101.413 62.4294 99.6155 64.7956C97.818 67.1618 95.2577 68.8338 92.3685 69.5285C91.46 69.7272 90.5322 69.824 89.6023 69.8169Z" fill="#263238"/>
<path d="M100.069 67.6148C100.212 69.5079 99.6571 71.388 98.509 72.9C97.3608 74.4121 95.6989 75.4514 93.8368 75.8219C92.0728 76.2054 90.2312 75.9894 88.6037 75.2081C86.9763 74.4268 85.656 73.1249 84.8519 71.5086L82.9902 67.5187C82.9902 67.5187 92.8798 73.2392 99.8239 63.7866L100.069 67.6148Z" fill="#263238"/>
<path d="M92.088 76.4551C90.503 76.4436 88.952 75.9943 87.6063 75.1568C86.2606 74.3193 85.1725 73.1262 84.4621 71.7092L82.5917 67.7018C82.5518 67.6174 82.54 67.5224 82.558 67.4307C82.576 67.3391 82.6229 67.2556 82.6918 67.1926C82.7607 67.1296 82.848 67.0902 82.9409 67.0804C83.0338 67.0706 83.1274 67.0908 83.2079 67.1381C83.5969 67.3653 92.844 72.5439 99.4691 63.524C99.5227 63.452 99.5972 63.3983 99.6824 63.3702C99.7677 63.342 99.8595 63.3408 99.9454 63.3667C100.031 63.3923 100.106 63.4432 100.161 63.5127C100.217 63.5822 100.25 63.6669 100.256 63.7556L100.5 67.5838C100.697 71.884 98.1187 75.284 93.9453 76.2366C93.3364 76.3792 92.7133 76.4525 92.088 76.4551ZM83.894 68.4273L85.2488 71.3246C86.0081 72.8523 87.2561 74.0823 88.7945 74.8195C90.3329 75.5566 92.0735 75.7586 93.7399 75.3932C95.5029 75.049 97.0776 74.0682 98.1639 72.6377C99.2503 71.2072 99.7724 69.4269 99.6308 67.6363L99.4603 64.953C93.8448 71.6262 86.6385 69.5853 83.894 68.4273Z" fill="#263238"/>
<path d="M93.8361 75.8215C95.394 75.4829 96.8189 74.696 97.9352 73.5578C96.7728 71.8097 94.2119 70.9357 91.5549 71.5519C89.8171 71.9063 88.291 72.9358 87.3115 74.4143C88.2322 75.1076 89.2925 75.5925 90.419 75.8354C91.5456 76.0784 92.7115 76.0736 93.8361 75.8215Z" fill="white"/>
<path d="M92.1013 76.2325C90.3269 76.2294 88.6009 75.653 87.1806 74.5894C87.1361 74.5576 87.1054 74.51 87.0949 74.4564C87.0843 74.4028 87.0946 74.3472 87.1238 74.3009C87.6213 73.5437 88.2635 72.8922 89.0134 72.3838C89.7633 71.8753 90.6063 71.5199 91.4939 71.338C94.199 70.7218 96.856 71.5652 98.1102 73.44C98.1379 73.4812 98.1505 73.5308 98.1457 73.5802C98.1409 73.6296 98.1191 73.6758 98.084 73.711C96.9382 74.8793 95.4751 75.6861 93.8756 76.0315C93.2936 76.165 92.6984 76.2324 92.1013 76.2325ZM87.6176 74.3577C88.4999 74.9858 89.5043 75.4217 90.5658 75.637C91.6272 75.8523 92.7221 75.8423 93.7794 75.6076C95.2353 75.2913 96.5735 74.5737 97.6426 73.5362C96.467 71.9411 94.011 71.2113 91.5944 71.7619C89.9861 72.0967 88.5622 73.0231 87.6045 74.3577H87.6176Z" fill="#263238"/>
</svg>
