<svg width="250" height="250" viewBox="0 0 250 250" fill="none" xmlns="http://www.w3.org/2000/svg">
<path d="M57 58.2001L21.625 58.1451C21.625 58.1451 23.385 55.8601 25.325 55.5751C25.325 55.5751 29.115 44.3551 35.43 44.2851C41.3 44.2201 43.64 51.2001 43.64 51.2001C43.64 51.2001 46.385 48.0751 49 49.5001C51.615 50.9251 53.065 55.0351 53.065 55.0351C53.065 55.0351 55.965 56.6251 57 58.2001Z" fill="#EBEBEB"/>
<path d="M183.62 68.1997L228.355 68.2648C228.355 68.2648 228.355 65.4097 222.2 64.8397C222.2 64.8397 216.59 52.3398 207.995 54.0048C202.645 55.0398 199.9 62.3798 199.9 62.3798C199.9 62.3798 195.865 56.5948 192.63 57.7098C189.395 58.8248 187.465 64.9998 187.465 64.9998C187.465 64.9998 184.13 66.5847 183.62 68.1997Z" fill="#EBEBEB"/>
<path d="M176.25 111L206.67 111.045C206.67 111.045 203.805 108.37 202.525 108.37C201.245 108.37 197.525 99.3701 192.785 99.7651C188.045 100.16 185.5 106.795 185.5 106.795C185.5 106.795 179.71 105 176.25 111Z" fill="#EBEBEB"/>
<path d="M171.72 33.7349L197.72 33.7749C197.72 33.7749 196.43 32.0849 195.005 31.8749C195.005 31.8749 192.245 23.6149 187.6 23.5499C183.285 23.4849 181.545 28.6149 181.545 28.6149C181.545 28.6149 179.545 26.3099 177.64 27.3599C175.735 28.4099 174.64 31.4199 174.64 31.4199C174.64 31.4199 172.5 32.5749 171.72 33.7349Z" fill="#EBEBEB"/>
<path d="M38.9053 96.6899L64.9053 96.7299C64.9053 96.7299 63.6153 95.0449 62.1853 94.8299C62.1853 94.8299 59.4253 86.5699 54.7853 86.5049C50.4653 86.4449 48.7303 91.5749 48.7303 91.5749C48.7303 91.5749 46.7303 89.2699 44.8203 90.3199C42.9103 91.3699 41.8203 94.3799 41.8203 94.3799C41.8203 94.3799 39.6853 95.5349 38.9053 96.6899Z" fill="#EBEBEB"/>
<path d="M24.085 99.5849V195.09H225.915V139.68H208.405V160.945H203.895V148.91H181.635V167.97H178.685V92.7349H159.335V135.51H149.415V150.79H146.41V141.185H128.82V169.85H123.675V146.55H107.585V128.84H96.65V118.76H83.995V163.48H79.735V114.31H58.89V141.025H56.01V119.22H34.87V99.5849H24.085Z" fill="#EBEBEB"/>
<path d="M220.805 146.42H223.765V142.355H220.805V146.42Z" fill="white"/>
<path d="M215.67 146.42H218.63V142.355H215.67V146.42Z" fill="white"/>
<path d="M210.54 146.42H213.5V142.355H210.54V146.42Z" fill="white"/>
<path d="M220.805 152.54H223.765V148.475H220.805V152.54Z" fill="white"/>
<path d="M215.67 152.54H218.63V148.475H215.67V152.54Z" fill="white"/>
<path d="M210.54 152.54H213.5V148.475H210.54V152.54Z" fill="white"/>
<path d="M220.805 158.655H223.765V154.59H220.805V158.655Z" fill="white"/>
<path d="M215.67 158.655H218.63V154.59H215.67V158.655Z" fill="white"/>
<path d="M210.54 158.655H213.5V154.59H210.54V158.655Z" fill="white"/>
<path d="M220.805 164.77H223.765V160.705H220.805V164.77Z" fill="white"/>
<path d="M215.67 164.77H218.63V160.705H215.67V164.77Z" fill="white"/>
<path d="M210.54 164.77H213.5V160.705H210.54V164.77Z" fill="white"/>
<path d="M118.245 152.845H121.205V149.455H118.245V152.845Z" fill="white"/>
<path d="M113.11 152.845H116.07V149.455H113.11V152.845Z" fill="white"/>
<path d="M107.975 152.845H110.935V149.455H107.975V152.845Z" fill="white"/>
<path d="M118.245 157.945H121.205V154.555H118.245V157.945Z" fill="white"/>
<path d="M113.11 157.945H116.07V154.555H113.11V157.945Z" fill="white"/>
<path d="M107.975 157.945H110.935V154.555H107.975V157.945Z" fill="white"/>
<path d="M118.245 163.05H121.205V159.66H118.245V163.05Z" fill="white"/>
<path d="M113.11 163.05H116.07V159.66H113.11V163.05Z" fill="white"/>
<path d="M107.975 163.05H110.935V159.66H107.975V163.05Z" fill="white"/>
<path d="M118.245 168.15H121.205V164.76H118.245V168.15Z" fill="white"/>
<path d="M113.11 168.15H116.07V164.76H113.11V168.15Z" fill="white"/>
<path d="M107.975 168.15H110.935V164.76H107.975V168.15Z" fill="white"/>
<path d="M118.245 173.38H121.205V169.99H118.245V173.38Z" fill="white"/>
<path d="M113.11 173.38H116.07V169.99H113.11V173.38Z" fill="white"/>
<path d="M107.975 173.38H110.935V169.99H107.975V173.38Z" fill="white"/>
<path d="M118.245 178.61H121.205V175.22H118.245V178.61Z" fill="white"/>
<path d="M113.11 178.61H116.07V175.22H113.11V178.61Z" fill="white"/>
<path d="M107.975 178.61H110.935V175.22H107.975V178.61Z" fill="white"/>
<path d="M118.245 183.84H121.205V180.45H118.245V183.84Z" fill="white"/>
<path d="M113.11 183.84H116.07V180.45H113.11V183.84Z" fill="white"/>
<path d="M107.975 183.84H110.935V180.45H107.975V183.84Z" fill="white"/>
<path d="M118.245 189.07H121.205V185.68H118.245V189.07Z" fill="white"/>
<path d="M113.11 189.07H116.07V185.68H113.11V189.07Z" fill="white"/>
<path d="M107.975 189.07H110.935V185.68H107.975V189.07Z" fill="white"/>
<path d="M184.315 154.055H201.37V151.51H184.315V154.055Z" fill="white"/>
<path d="M184.315 158.99H201.37V156.445H184.315V158.99Z" fill="white"/>
<path d="M184.315 163.925H201.37V161.38H184.315V163.925Z" fill="white"/>
<path d="M184.315 168.855H201.37V166.31H184.315V168.855Z" fill="white"/>
<path d="M184.315 173.79H201.37V171.25H184.315V173.79Z" fill="white"/>
<path d="M184.315 178.725H201.37V176.18H184.315V178.725Z" fill="white"/>
<path d="M184.315 183.655H201.37V181.11H184.315V183.655Z" fill="white"/>
<path d="M184.315 188.59H201.37V186.045H184.315V188.59Z" fill="white"/>
<path d="M61.5348 119.225H77.2148V116.68H61.5348V119.225Z" fill="white"/>
<path d="M61.5348 124.16H77.2148V121.615H61.5348V124.16Z" fill="white"/>
<path d="M61.5348 129.095H77.2148V126.555H61.5348V129.095Z" fill="white"/>
<path d="M61.5348 134.025H77.2148V131.485H61.5348V134.025Z" fill="white"/>
<path d="M77.2152 136.42H61.5352V138.965H77.2152V136.42Z" fill="white"/>
<path d="M61.5348 143.895H77.2148V141.35H61.5348V143.895Z" fill="white"/>
<path d="M61.5348 148.825H77.2148V146.28H61.5348V148.825Z" fill="white"/>
<path d="M61.5348 153.76H77.2148V151.215H61.5348V153.76Z" fill="white"/>
<path d="M61.5348 158.45H77.2148V155.905H61.5348V158.45Z" fill="white"/>
<path d="M61.5348 163.135H77.2148V160.59H61.5348V163.135Z" fill="white"/>
<path d="M61.5348 167.825H77.2148V165.28H61.5348V167.825Z" fill="white"/>
<path d="M61.5348 172.51H77.2148V169.97H61.5348V172.51Z" fill="white"/>
<path d="M36.1801 125.185H52.7451V122.645H36.1801V125.185Z" fill="white"/>
<path d="M36.1801 130.12H52.7451V127.575H36.1801V130.12Z" fill="white"/>
<path d="M36.1801 135.055H52.7451V132.515H36.1801V135.055Z" fill="white"/>
<path d="M36.1801 139.985H52.7451V137.44H36.1801V139.985Z" fill="white"/>
<path d="M36.1801 144.92H52.7451V142.375H36.1801V144.92Z" fill="white"/>
<path d="M36.1801 149.855H52.7451V147.315H36.1801V149.855Z" fill="white"/>
<path d="M36.1801 154.785H52.7451V152.245H36.1801V154.785Z" fill="white"/>
<path d="M36.1801 159.72H52.7451V157.175H36.1801V159.72Z" fill="white"/>
<path d="M36.1801 164.135H52.7451V161.59H36.1801V164.135Z" fill="white"/>
<path d="M36.1801 168.555H52.7451V166.01H36.1801V168.555Z" fill="white"/>
<path d="M36.1801 172.965H52.7451V170.42H36.1801V172.965Z" fill="white"/>
<path d="M136 145.94H141.265V143.485H136V145.94Z" fill="white"/>
<path d="M136 150.705H141.265V148.25H136V150.705Z" fill="white"/>
<path d="M136 155.465H141.265V153.01H136V155.465Z" fill="white"/>
<path d="M136 160.23H141.265V157.775H136V160.23Z" fill="white"/>
<path d="M136 165H141.265V162.545H136V165Z" fill="white"/>
<path d="M136 169.76H141.265V167.305H136V169.76Z" fill="white"/>
<path d="M136 174.525H141.265V172.07H136V174.525Z" fill="white"/>
<path d="M136 179.29H141.265V176.835H136V179.29Z" fill="white"/>
<path d="M128.835 145.94H134.1V143.485H128.835V145.94Z" fill="white"/>
<path d="M128.835 150.705H134.1V148.25H128.835V150.705Z" fill="white"/>
<path d="M128.835 155.465H134.1V153.01H128.835V155.465Z" fill="white"/>
<path d="M128.835 160.23H134.1V157.775H128.835V160.23Z" fill="white"/>
<path d="M128.835 165H134.1V162.545H128.835V165Z" fill="white"/>
<path d="M128.835 169.76H134.1V167.305H128.835V169.76Z" fill="white"/>
<path d="M128.835 174.525H134.1V172.07H128.835V174.525Z" fill="white"/>
<path d="M128.835 179.29H134.1V176.835H128.835V179.29Z" fill="white"/>
<path d="M170.265 99.1797H175.75V95.3097H170.265V99.1797Z" fill="white"/>
<path d="M162.085 99.1797H167.57V95.3097H162.085V99.1797Z" fill="white"/>
<path d="M170.265 104.865H175.75V100.995H170.265V104.865Z" fill="white"/>
<path d="M162.085 104.865H167.57V100.995H162.085V104.865Z" fill="white"/>
<path d="M170.265 110.555H175.75V106.685H170.265V110.555Z" fill="white"/>
<path d="M162.085 110.555H167.57V106.685H162.085V110.555Z" fill="white"/>
<path d="M170.265 116.245H175.75V112.375H170.265V116.245Z" fill="white"/>
<path d="M162.085 116.245H167.57V112.375H162.085V116.245Z" fill="white"/>
<path d="M170.265 121.93H175.75V118.06H170.265V121.93Z" fill="white"/>
<path d="M162.085 121.93H167.57V118.06H162.085V121.93Z" fill="white"/>
<path d="M170.265 127.62H175.75V123.75H170.265V127.62Z" fill="white"/>
<path d="M162.085 127.62H167.57V123.75H162.085V127.62Z" fill="white"/>
<path d="M170.265 133.31H175.75V129.44H170.265V133.31Z" fill="white"/>
<path d="M162.085 133.31H167.57V129.44H162.085V133.31Z" fill="white"/>
<path d="M170.265 138.995H175.75V135.125H170.265V138.995Z" fill="white"/>
<path d="M162.085 138.995H167.57V135.125H162.085V138.995Z" fill="white"/>
<path d="M151.95 141.06H157.435V137.19H151.95V141.06Z" fill="white"/>
<path d="M151.95 146.745H157.435V142.875H151.95V146.745Z" fill="white"/>
<path d="M151.95 152.435H157.435V148.565H151.95V152.435Z" fill="white"/>
<path d="M151.95 158.125H157.435V154.255H151.95V158.125Z" fill="white"/>
<path d="M151.95 163.81H157.435V159.94H151.95V163.81Z" fill="white"/>
<path d="M151.95 169.5H157.435V165.63H151.95V169.5Z" fill="white"/>
<path d="M170.265 144.615H175.75V140.745H170.265V144.615Z" fill="white"/>
<path d="M162.085 144.615H167.57V140.745H162.085V144.615Z" fill="white"/>
<path d="M151.95 175.115H157.435V171.245H151.95V175.115Z" fill="white"/>
<path d="M170.265 150.235H175.75V146.365H170.265V150.235Z" fill="white"/>
<path d="M162.085 150.235H167.57V146.365H162.085V150.235Z" fill="white"/>
<path d="M151.95 180.74H157.435V176.87H151.95V180.74Z" fill="white"/>
<path d="M170.265 155.855H175.75V151.985H170.265V155.855Z" fill="white"/>
<path d="M162.085 155.855H167.57V151.985H162.085V155.855Z" fill="white"/>
<path d="M151.95 186.36H157.435V182.49H151.95V186.36Z" fill="white"/>
<path d="M170.265 161.475H175.75V157.605H170.265V161.475Z" fill="white"/>
<path d="M162.085 161.475H167.57V157.605H162.085V161.475Z" fill="white"/>
<path d="M170.265 167.095H175.75V163.225H170.265V167.095Z" fill="white"/>
<path d="M162.085 167.095H167.57V163.225H162.085V167.095Z" fill="white"/>
<path d="M102.39 134.73H105.35V131.34H102.39V134.73Z" fill="white"/>
<path d="M97.2548 134.73H100.215V131.34H97.2548V134.73Z" fill="white"/>
<path d="M102.39 139.83H105.35V136.44H102.39V139.83Z" fill="white"/>
<path d="M97.2548 139.83H100.215V136.44H97.2548V139.83Z" fill="white"/>
<path d="M102.39 144.935H105.35V141.545H102.39V144.935Z" fill="white"/>
<path d="M97.2548 144.935H100.215V141.545H97.2548V144.935Z" fill="white"/>
<path d="M102.39 150.04H105.35V146.65H102.39V150.04Z" fill="white"/>
<path d="M97.2548 150.04H100.215V146.65H97.2548V150.04Z" fill="white"/>
<path d="M102.39 155.27H105.35V151.88H102.39V155.27Z" fill="white"/>
<path d="M97.2548 155.27H100.215V151.88H97.2548V155.27Z" fill="white"/>
<path d="M102.39 160.495H105.35V157.105H102.39V160.495Z" fill="white"/>
<path d="M97.2548 160.495H100.215V157.105H97.2548V160.495Z" fill="white"/>
<path d="M102.39 165.725H105.35V162.335H102.39V165.725Z" fill="white"/>
<path d="M97.2548 165.725H100.215V162.335H97.2548V165.725Z" fill="white"/>
<path d="M102.39 170.955H105.35V167.565H102.39V170.955Z" fill="white"/>
<path d="M97.2548 170.955H100.215V167.565H97.2548V170.955Z" fill="white"/>
<path d="M102.39 176.24H105.35V172.85H102.39V176.24Z" fill="white"/>
<path d="M97.2548 176.24H100.215V172.85H97.2548V176.24Z" fill="white"/>
<path d="M102.39 181.525H105.35V178.135H102.39V181.525Z" fill="white"/>
<path d="M97.2548 181.525H100.215V178.135H97.2548V181.525Z" fill="white"/>
<path d="M102.39 186.81H105.35V183.42H102.39V186.81Z" fill="white"/>
<path d="M97.2548 186.81H100.215V183.42H97.2548V186.81Z" fill="white"/>
<path d="M30.0498 105.38H33.0098V101.385H30.0498V105.38Z" fill="white"/>
<path d="M24.91 105.38H27.875V101.385H24.91V105.38Z" fill="white"/>
<path d="M30.0498 111.395H33.0098V107.4H30.0498V111.395Z" fill="white"/>
<path d="M24.91 111.395H27.875V107.4H24.91V111.395Z" fill="white"/>
<path d="M30.0498 117.405H33.0098V113.41H30.0498V117.405Z" fill="white"/>
<path d="M24.91 117.405H27.875V113.41H24.91V117.405Z" fill="white"/>
<path d="M30.0498 123.415H33.0098V119.42H30.0498V123.415Z" fill="white"/>
<path d="M24.91 123.415H27.875V119.42H24.91V123.415Z" fill="white"/>
<path d="M30.0498 129.58H33.0098V125.585H30.0498V129.58Z" fill="white"/>
<path d="M24.91 129.58H27.875V125.585H24.91V129.58Z" fill="white"/>
<path d="M30.0498 135.735H33.0098V131.74H30.0498V135.735Z" fill="white"/>
<path d="M24.91 135.735H27.875V131.74H24.91V135.735Z" fill="white"/>
<path d="M30.0498 141.9H33.0098V137.905H30.0498V141.9Z" fill="white"/>
<path d="M24.91 141.9H27.875V137.905H24.91V141.9Z" fill="white"/>
<path d="M30.0498 148.06H33.0098V144.065H30.0498V148.06Z" fill="white"/>
<path d="M24.91 148.06H27.875V144.065H24.91V148.06Z" fill="white"/>
<path d="M30.0498 154.285H33.0098V150.29H30.0498V154.285Z" fill="white"/>
<path d="M24.91 154.285H27.875V150.29H24.91V154.285Z" fill="white"/>
<path d="M30.0498 160.515H33.0098V156.52H30.0498V160.515Z" fill="white"/>
<path d="M24.91 160.515H27.875V156.52H24.91V160.515Z" fill="white"/>
<path d="M30.0498 166.74H33.0098V162.745H30.0498V166.74Z" fill="white"/>
<path d="M24.91 166.74H27.875V162.745H24.91V166.74Z" fill="white"/>
<path d="M30.0498 172.965H33.0098V168.97H30.0498V172.965Z" fill="white"/>
<path d="M24.91 172.965H27.875V168.97H24.91V172.965Z" fill="white"/>
<path d="M91.4101 134.73H94.3701V131.34H91.4101V134.73Z" fill="white"/>
<path d="M86.2754 134.73H89.2354V131.34H86.2754V134.73Z" fill="white"/>
<path d="M91.4101 129.495H94.3701V126.105H91.4101V129.495Z" fill="white"/>
<path d="M86.2754 129.495H89.2354V126.105H86.2754V129.495Z" fill="white"/>
<path d="M91.4101 124.265H94.3701V120.875H91.4101V124.265Z" fill="white"/>
<path d="M86.2754 124.265H89.2354V120.875H86.2754V124.265Z" fill="white"/>
<path d="M91.4101 139.83H94.3701V136.44H91.4101V139.83Z" fill="white"/>
<path d="M86.2754 139.83H89.2354V136.44H86.2754V139.83Z" fill="white"/>
<path d="M91.4101 144.935H94.3701V141.545H91.4101V144.935Z" fill="white"/>
<path d="M86.2754 144.935H89.2354V141.545H86.2754V144.935Z" fill="white"/>
<path d="M91.4101 150.04H94.3701V146.65H91.4101V150.04Z" fill="white"/>
<path d="M86.2754 150.04H89.2354V146.65H86.2754V150.04Z" fill="white"/>
<path d="M91.4101 155.27H94.3701V151.88H91.4101V155.27Z" fill="white"/>
<path d="M86.2754 155.27H89.2354V151.88H86.2754V155.27Z" fill="white"/>
<path d="M91.4101 160.495H94.3701V157.105H91.4101V160.495Z" fill="white"/>
<path d="M86.2754 160.495H89.2354V157.105H86.2754V160.495Z" fill="white"/>
<path d="M91.4101 165.725H94.3701V162.335H91.4101V165.725Z" fill="white"/>
<path d="M86.2754 165.725H89.2354V162.335H86.2754V165.725Z" fill="white"/>
<path d="M91.4101 170.955H94.3701V167.565H91.4101V170.955Z" fill="white"/>
<path d="M86.2754 170.955H89.2354V167.565H86.2754V170.955Z" fill="white"/>
<path d="M91.4101 176.24H94.3701V172.85H91.4101V176.24Z" fill="white"/>
<path d="M86.2754 176.24H89.2354V172.85H86.2754V176.24Z" fill="white"/>
<path d="M91.4101 181.525H94.3701V178.135H91.4101V181.525Z" fill="white"/>
<path d="M86.2754 181.525H89.2354V178.135H86.2754V181.525Z" fill="white"/>
<path d="M91.4101 186.81H94.3701V183.42H91.4101V186.81Z" fill="white"/>
<path d="M86.2754 186.81H89.2354V183.42H86.2754V186.81Z" fill="white"/>
<path d="M125 234.61C182.523 234.61 229.155 229.676 229.155 223.59C229.155 217.504 182.523 212.57 125 212.57C67.4765 212.57 20.8447 217.504 20.8447 223.59C20.8447 229.676 67.4765 234.61 125 234.61Z" fill="#EBEBEB"/>
<path d="M229.315 191.455H20.6797V195.09H229.315V191.455Z" fill="#C7C7C7"/>
<path d="M35.3095 191.455C35.6361 192.645 35.6361 193.9 35.3095 195.09C35.1332 194.5 35.0489 193.886 35.0595 193.27C35.0516 192.656 35.1358 192.044 35.3095 191.455Z" fill="#263238"/>
<path d="M51.6151 191.455C51.7887 192.044 51.873 192.656 51.8651 193.27C51.8757 193.886 51.7913 194.5 51.6151 195.09C51.2885 193.9 51.2885 192.645 51.6151 191.455Z" fill="#263238"/>
<path d="M67.9247 191.455C68.2513 192.645 68.2513 193.9 67.9247 195.09C67.7484 194.5 67.6641 193.886 67.6747 193.27C67.6668 192.656 67.7511 192.044 67.9247 191.455Z" fill="#263238"/>
<path d="M84.2293 191.455C84.403 192.044 84.4872 192.656 84.4793 193.27C84.4899 193.886 84.4056 194.5 84.2293 195.09C83.9027 193.9 83.9027 192.645 84.2293 191.455Z" fill="#263238"/>
<path d="M100.54 191.455C100.867 192.645 100.867 193.9 100.54 195.09C100.364 194.5 100.279 193.886 100.29 193.27C100.282 192.656 100.366 192.044 100.54 191.455Z" fill="#263238"/>
<path d="M116.845 191.455C117.018 192.044 117.102 192.656 117.095 193.27C117.105 193.886 117.021 194.5 116.845 195.09C116.518 193.9 116.518 192.645 116.845 191.455Z" fill="#263238"/>
<path d="M133.154 191.455C133.481 192.645 133.481 193.9 133.154 195.09C132.978 194.5 132.894 193.886 132.904 193.27C132.896 192.656 132.981 192.044 133.154 191.455Z" fill="#263238"/>
<path d="M149.46 191.455C149.633 192.044 149.718 192.656 149.71 193.27C149.72 193.886 149.636 194.5 149.46 195.09C149.133 193.9 149.133 192.645 149.46 191.455Z" fill="#263238"/>
<path d="M165.769 191.455C166.096 192.645 166.096 193.9 165.769 195.09C165.593 194.5 165.509 193.886 165.519 193.27C165.512 192.656 165.596 192.044 165.769 191.455Z" fill="#263238"/>
<path d="M182.075 191.455C182.249 192.044 182.333 192.656 182.325 193.27C182.336 193.886 182.251 194.5 182.075 195.09C181.748 193.9 181.748 192.645 182.075 191.455Z" fill="#263238"/>
<path d="M198.385 191.455C198.711 192.645 198.711 193.9 198.385 195.09C198.208 194.5 198.124 193.886 198.135 193.27C198.127 192.656 198.211 192.044 198.385 191.455Z" fill="#263238"/>
<path d="M214.689 191.455C214.863 192.044 214.947 192.656 214.939 193.27C214.95 193.886 214.866 194.5 214.689 195.09C214.363 193.9 214.363 192.645 214.689 191.455Z" fill="#263238"/>
<path d="M20.6797 195.09L46.7597 194.97L72.8397 194.925L125 194.84L177.16 194.925L203.24 194.965L229.32 195.09L203.24 195.21L177.16 195.255L125 195.34L72.8397 195.255L46.7597 195.21L20.6797 195.09Z" fill="#263238"/>
<path d="M210.341 158.74C213.086 153.1 217.891 150.2 223.301 151.8C228.711 153.4 229.551 160.95 225.511 162.855C221.471 164.76 217.431 159.195 215.296 158.055C213.161 156.915 210.341 158.74 210.341 158.74Z" fill="#0F7757"/>
<path d="M207.685 173.755C207.685 173.075 207.725 172.395 207.75 171.715C207.8 170.355 207.845 169 207.895 167.64C207.985 165.14 208.255 162.72 209.285 160.43C210.195 158.361 211.712 156.617 213.635 155.43C214.349 154.992 215.119 154.656 215.925 154.43C216.654 153.692 217.582 153.181 218.595 152.96C219.848 152.706 221.136 152.673 222.4 152.865C222.445 152.865 222.445 152.94 222.4 152.935C221.195 152.783 219.971 152.871 218.8 153.195C218.296 153.33 217.808 153.519 217.345 153.76C217.054 153.915 216.775 154.092 216.51 154.29C218.001 153.959 219.559 154.102 220.965 154.7C221.26 154.635 221.563 154.61 221.865 154.625C222.26 154.637 222.652 154.692 223.035 154.79C223.819 155.011 224.57 155.339 225.265 155.765C225.305 155.765 225.265 155.845 225.225 155.825C224.543 155.453 223.813 155.177 223.055 155.005C222.686 154.922 222.312 154.867 221.935 154.84C221.73 154.84 221.52 154.84 221.315 154.84C222.859 155.556 224.099 156.796 224.815 158.34C224.815 158.38 224.77 158.415 224.75 158.375C224.324 157.481 223.702 156.695 222.93 156.076C222.157 155.457 221.255 155.02 220.29 154.8C220.17 154.77 220.05 154.75 219.93 154.73C219.958 154.91 219.976 155.092 219.985 155.275C220.025 155.55 220.07 155.82 220.125 156.095C220.239 156.653 220.386 157.204 220.565 157.745C220.748 158.292 220.967 158.826 221.22 159.345C221.463 159.894 221.77 160.412 222.135 160.89C222.139 160.893 222.142 160.897 222.144 160.902C222.147 160.907 222.148 160.912 222.147 160.918C222.147 160.923 222.146 160.928 222.143 160.933C222.141 160.937 222.137 160.941 222.133 160.945C222.129 160.948 222.124 160.95 222.118 160.951C222.113 160.952 222.108 160.951 222.103 160.95C222.098 160.949 222.093 160.946 222.089 160.942C222.085 160.939 222.082 160.934 222.08 160.93C221.755 160.43 221.375 159.93 221.08 159.43C220.793 158.925 220.547 158.399 220.345 157.855C220.134 157.305 219.966 156.74 219.845 156.165C219.79 155.86 219.74 155.555 219.705 155.245C219.668 155.06 219.657 154.872 219.67 154.685C219.034 154.589 218.389 154.576 217.75 154.645C217.99 155.99 218.25 157.395 219 158.565C219.025 158.6 218.96 158.64 218.94 158.6C218.586 157.98 218.275 157.337 218.01 156.675C217.762 156.033 217.605 155.36 217.545 154.675C216.427 154.825 215.348 155.186 214.365 155.74C212.518 156.818 211.042 158.433 210.135 160.37C209.187 162.456 208.661 164.709 208.585 167C208.405 169.885 208.365 172.785 208.085 175.66C208.085 175.845 207.765 175.91 207.73 175.7C207.652 175.054 207.636 174.403 207.685 173.755Z" fill="#263238"/>
<path d="M214.03 154.965C214.211 154.745 214.419 154.55 214.65 154.385C214.875 154.2 215.105 154.02 215.35 153.855C215.824 153.529 216.35 153.286 216.905 153.135C216.95 153.135 216.97 153.195 216.905 153.205C216.344 153.345 215.82 153.602 215.365 153.96C215.135 154.13 214.915 154.31 214.7 154.495C214.511 154.697 214.3 154.876 214.07 155.03C214.062 155.03 214.055 155.028 214.048 155.024C214.042 155.02 214.036 155.015 214.032 155.008C214.028 155.002 214.026 154.994 214.025 154.987C214.025 154.979 214.027 154.972 214.03 154.965Z" fill="#263238"/>
<path d="M222.786 157C223.239 157.529 223.659 158.085 224.046 158.665C224.419 159.252 224.732 159.875 224.981 160.525C224.981 160.525 224.981 160.555 224.951 160.525C224.321 159.293 223.58 158.121 222.736 157.025C222.706 157 222.756 156.97 222.786 157Z" fill="#263238"/>
<path d="M208.07 158.88C208.07 158.88 204.185 153.995 196.685 155.725C189.555 157.37 186.265 170.44 193.47 172.005C200.675 173.57 199.4 161.5 202.025 159.42C203.955 157.915 206.72 158.24 208.07 158.88Z" fill="#0F7757"/>
<path d="M190.89 162.865C191.378 162.436 191.894 162.04 192.435 161.68C192.945 161.331 193.5 161.053 194.085 160.855C194.377 160.412 194.703 159.992 195.06 159.6C195.722 158.888 196.487 158.279 197.33 157.795H197.105C196.707 157.775 196.308 157.775 195.91 157.795C195.111 157.846 194.329 158.043 193.6 158.375C193.555 158.375 193.525 158.325 193.565 158.31C194.308 157.989 195.084 157.754 195.88 157.61C196.266 157.541 196.658 157.508 197.05 157.51C197.26 157.51 197.47 157.51 197.68 157.55H197.8C198.488 157.204 199.213 156.938 199.96 156.755L199.755 156.7C199.387 156.617 199.015 156.557 198.64 156.52C197.893 156.434 197.139 156.446 196.395 156.555C196.387 156.552 196.381 156.547 196.376 156.54C196.371 156.533 196.369 156.525 196.369 156.517C196.369 156.509 196.371 156.501 196.376 156.494C196.381 156.488 196.387 156.482 196.395 156.48C197.146 156.39 197.904 156.36 198.66 156.39C199.297 156.409 199.93 156.491 200.55 156.635C201.001 156.553 201.457 156.501 201.915 156.48C204.53 156.37 207.38 157.345 208.99 159.48C210.6 161.615 210.915 164.48 211.2 167.095C211.645 170.712 211.745 174.363 211.5 178C211.5 178.215 211.18 178.175 211.175 178C211.075 174.915 210.965 171.835 210.675 168.76C210.54 167.34 210.39 165.915 210.15 164.505C209.978 163.294 209.631 162.115 209.12 161.005C208.56 159.869 207.678 158.923 206.585 158.285C205.487 157.655 204.262 157.278 203 157.18C201.869 157.088 200.73 157.195 199.635 157.495C199.67 157.715 199.67 157.939 199.635 158.16C199.613 158.439 199.558 158.714 199.47 158.98C199.389 159.232 199.285 159.476 199.16 159.71C199.02 159.965 198.845 160.21 198.69 160.44C198.665 160.48 198.605 160.44 198.63 160.4C198.942 159.953 199.142 159.439 199.215 158.9C199.26 158.647 199.29 158.391 199.305 158.135C199.305 157.945 199.305 157.75 199.305 157.555C198.115 157.922 197.004 158.509 196.03 159.285C195.85 159.43 195.67 159.585 195.5 159.745C195.747 159.974 195.961 160.236 196.135 160.525C196.393 160.901 196.617 161.299 196.805 161.715C197.152 162.549 197.384 163.427 197.495 164.325C197.495 164.37 197.43 164.38 197.425 164.325C197.288 163.458 197.001 162.622 196.575 161.855C196.377 161.474 196.155 161.107 195.91 160.755C195.78 160.575 195.65 160.395 195.515 160.225C195.44 160.13 195.36 160.035 195.29 159.935C194.409 160.8 193.689 161.816 193.165 162.935C193.521 163.307 193.816 163.732 194.04 164.195C194.309 164.678 194.545 165.179 194.745 165.695C195.108 166.695 195.407 167.717 195.64 168.755C195.64 168.759 195.639 168.764 195.637 168.768C195.636 168.772 195.633 168.776 195.63 168.779C195.627 168.783 195.623 168.785 195.618 168.787C195.614 168.789 195.61 168.79 195.605 168.79C195.6 168.79 195.596 168.789 195.592 168.787C195.587 168.785 195.584 168.783 195.58 168.779C195.577 168.776 195.574 168.772 195.573 168.768C195.571 168.764 195.57 168.759 195.57 168.755C195.34 167.715 194.982 166.707 194.505 165.755C194.28 165.285 194.045 164.825 193.795 164.365C193.536 163.942 193.3 163.504 193.09 163.055C192.59 164.149 192.3 165.328 192.235 166.53C192.235 166.539 192.231 166.548 192.225 166.554C192.218 166.561 192.209 166.565 192.2 166.565C192.191 166.565 192.182 166.561 192.175 166.554C192.169 166.548 192.165 166.539 192.165 166.53C192.305 164.647 192.88 162.822 193.845 161.2C193.39 161.395 192.93 161.585 192.485 161.825C191.921 162.122 191.396 162.49 190.925 162.92C190.905 162.95 190.855 162.895 190.89 162.865Z" fill="#263238"/>
<path d="M196.39 163.14C196.615 163.88 196.89 164.6 197.1 165.35C197.309 166.067 197.422 166.808 197.435 167.555H197.4C197.198 166.056 196.838 164.583 196.325 163.16C196.323 163.155 196.321 163.15 196.32 163.145C196.32 163.14 196.321 163.134 196.323 163.129C196.325 163.124 196.328 163.12 196.331 163.116C196.335 163.113 196.34 163.11 196.345 163.108C196.35 163.107 196.355 163.107 196.361 163.107C196.366 163.108 196.371 163.11 196.375 163.113C196.38 163.116 196.383 163.12 196.386 163.125C196.388 163.129 196.39 163.135 196.39 163.14Z" fill="#263238"/>
<path d="M191.641 161.305C191.937 161.019 192.274 160.78 192.641 160.595C193.012 160.425 193.396 160.288 193.791 160.185C193.831 160.185 193.846 160.25 193.791 160.26C193.403 160.359 193.031 160.512 192.686 160.715C192.338 160.899 192.004 161.107 191.686 161.34L191.641 161.305Z" fill="#263238"/>
<path d="M204.375 152.355C204.375 152.355 203.66 143.58 197.135 140.74C191.69 138.365 188.57 144.485 192.42 148.24C195.535 151.26 200.53 149.895 204.375 152.355Z" fill="#0F7757"/>
<path d="M193.63 142.44C194.623 142.84 195.591 143.297 196.53 143.81C197.309 144.264 198.061 144.765 198.78 145.31C198.675 145.09 198.58 144.855 198.47 144.64C198.3 144.307 198.115 143.973 197.915 143.64C197.514 142.976 197.032 142.365 196.48 141.82C196.445 141.79 196.48 141.74 196.53 141.77C197.075 142.317 197.576 142.905 198.03 143.53C198.253 143.852 198.459 144.186 198.645 144.53C198.838 144.841 198.986 145.178 199.085 145.53L199.16 145.58C200.297 146.491 201.341 147.512 202.275 148.63C202.275 148.545 202.235 148.455 202.215 148.38C202.09 147.95 201.96 147.525 201.82 147.105C201.541 146.203 201.144 145.343 200.64 144.545C200.615 144.505 200.68 144.47 200.705 144.51C201.215 145.312 201.671 146.147 202.07 147.01C202.25 147.431 202.4 147.863 202.52 148.305C202.616 148.593 202.686 148.889 202.73 149.19C203.015 149.55 203.295 149.91 203.56 150.285C206.36 154.285 207.765 159.095 208.1 163.92C208.198 165.358 208.223 166.8 208.175 168.24C208.165 169.693 208.036 171.143 207.79 172.575C207.79 172.67 207.63 172.64 207.635 172.55C207.665 171.285 207.8 170.02 207.82 168.755C207.84 167.49 207.82 166.21 207.7 164.945C207.498 162.42 207.025 159.924 206.29 157.5C205.532 155.018 204.415 152.659 202.975 150.5C202.7 150.445 202.43 150.37 202.16 150.305L201.16 150.045C200.534 149.884 199.926 149.661 199.345 149.38C199.336 149.375 199.33 149.367 199.327 149.358C199.324 149.349 199.325 149.339 199.33 149.33C199.335 149.321 199.343 149.315 199.352 149.312C199.361 149.309 199.371 149.31 199.38 149.315C199.955 149.629 200.579 149.845 201.225 149.955C201.725 150.055 202.265 150.12 202.78 150.24C202.314 149.548 201.813 148.881 201.28 148.24C200.037 148.351 198.783 148.259 197.57 147.965C196.924 147.809 196.289 147.61 195.67 147.37C195.02 147.12 194.4 146.795 193.755 146.53C193.705 146.505 193.755 146.435 193.785 146.465C194.953 147.101 196.227 147.518 197.545 147.695C198.703 147.878 199.873 147.975 201.045 147.985C200.58 147.455 200.1 146.935 199.59 146.45C197.889 144.736 195.844 143.402 193.59 142.535C193.565 142.5 193.585 142.42 193.63 142.44Z" fill="#263238"/>
<path d="M198.935 142.465C199.23 142.835 199.497 143.226 199.735 143.635C199.98 144.064 200.173 144.52 200.31 144.995C200.31 144.995 200.31 145.02 200.285 144.995C200.065 144.565 199.885 144.12 199.665 143.69C199.449 143.267 199.188 142.87 198.885 142.505C198.855 142.5 198.905 142.43 198.935 142.465Z" fill="#263238"/>
<path d="M192.87 145.385C193.296 145.618 193.745 145.806 194.21 145.945C194.657 146.091 195.111 146.213 195.57 146.31V146.35C195.091 146.297 194.618 146.193 194.16 146.04C193.708 145.869 193.268 145.67 192.84 145.445C192.795 145.425 192.83 145.36 192.87 145.385Z" fill="#263238"/>
<path d="M209.446 150.775C209.486 151.155 210.446 147.59 215.946 144.425C220.946 141.555 226.946 134.08 222.026 129.36C218.061 125.545 207.616 133.855 209.446 150.775Z" fill="#0F7757"/>
<path d="M205.651 171.21C205.73 167.499 206.022 163.796 206.526 160.12C206.96 156.74 207.741 153.414 208.856 150.195C209.266 149.035 209.736 147.895 210.246 146.775C210.208 146.337 210.208 145.897 210.246 145.46C210.271 144.9 210.326 144.34 210.376 143.78C210.426 143.22 210.486 142.66 210.551 142.1C210.616 141.54 210.736 140.984 210.761 140.429C210.761 140.425 210.762 140.42 210.764 140.416C210.765 140.412 210.768 140.408 210.771 140.405C210.774 140.402 210.778 140.399 210.782 140.397C210.787 140.395 210.791 140.395 210.796 140.395C210.8 140.395 210.805 140.395 210.809 140.397C210.814 140.399 210.817 140.402 210.821 140.405C210.824 140.408 210.826 140.412 210.828 140.416C210.83 140.42 210.831 140.425 210.831 140.429C210.719 141.015 210.652 141.609 210.631 142.205C210.591 142.745 210.556 143.285 210.541 143.83C210.526 144.375 210.541 144.915 210.541 145.455C210.541 145.655 210.541 145.86 210.541 146.07C211.041 144.975 211.616 143.895 212.216 142.845C211.841 140.56 212.326 138.169 212.796 135.929C212.796 135.884 212.871 135.93 212.861 135.955C212.634 137.121 212.513 138.306 212.501 139.495C212.501 140.435 212.501 141.375 212.526 142.315L212.926 141.64C213.641 140.475 214.426 139.33 215.216 138.22C215.152 137.677 215.17 137.127 215.271 136.59C215.361 135.987 215.495 135.393 215.671 134.81C215.844 134.224 216.048 133.649 216.281 133.085C216.521 132.505 216.836 131.96 217.066 131.375C217.066 131.33 217.161 131.375 217.131 131.405C216.84 131.955 216.609 132.535 216.441 133.135C216.259 133.697 216.109 134.27 215.991 134.85C215.876 135.43 215.781 136.015 215.696 136.6C215.646 136.99 215.611 137.39 215.541 137.78C216.723 136.191 218.014 134.688 219.406 133.28C219.436 133.245 219.486 133.28 219.451 133.33C217.357 135.708 215.489 138.275 213.871 141L213.696 141.304C213.996 141.115 214.346 140.964 214.631 140.804C215.166 140.504 215.701 140.21 216.241 139.92C216.781 139.63 217.286 139.355 217.801 139.065C218.071 138.92 218.336 138.765 218.606 138.625C218.931 138.483 219.243 138.316 219.541 138.125C219.581 138.095 219.626 138.16 219.581 138.185C219.051 138.475 218.581 138.91 218.081 139.235C217.581 139.56 217.041 139.879 216.506 140.179C215.506 140.724 214.461 141.119 213.506 141.679C212.836 142.854 212.221 144.055 211.651 145.28C212.236 144.905 212.836 144.55 213.441 144.21C213.831 143.99 214.226 143.775 214.621 143.565C215.014 143.382 215.386 143.158 215.731 142.895C215.766 142.865 215.816 142.895 215.781 142.945C215.137 143.521 214.425 144.016 213.661 144.42C212.951 144.835 212.236 145.235 211.501 145.595C210.911 146.885 210.376 148.204 209.906 149.539C207.581 156.114 206.731 163.09 206.321 170.04C206.201 172.104 206.141 174.17 206.111 176.24C206.081 178.31 206.196 180.37 206.191 182.435C206.191 182.495 206.091 182.51 206.081 182.435C205.836 180.6 205.791 178.74 205.711 176.895C205.631 175.05 205.611 173.09 205.651 171.21Z" fill="#263238"/>
<path d="M215.67 141.455C216.677 141.017 217.656 140.516 218.6 139.955C219.558 139.417 220.486 138.828 221.38 138.19C220.535 138.876 219.643 139.5 218.71 140.06C217.741 140.604 216.739 141.089 215.71 141.51C215.66 141.535 215.625 141.5 215.67 141.455Z" fill="#263238"/>
<path d="M214.07 134.025C214.155 133.705 214.255 133.39 214.36 133.075V133.04C214.43 132.865 214.5 132.685 214.575 132.51C214.575 132.51 214.575 132.465 214.6 132.445C214.625 132.425 214.625 132.38 214.64 132.345C214.655 132.31 214.665 132.345 214.64 132.345C214.615 132.345 214.605 132.47 214.585 132.53C214.577 132.564 214.567 132.597 214.555 132.63C214.191 133.856 213.919 135.108 213.74 136.375C213.74 136.415 213.67 136.415 213.675 136.375C213.731 135.58 213.864 134.794 214.07 134.025Z" fill="#263238"/>
<path d="M199.825 172.545L200.215 177.21L201.42 191.435H214.325L215.53 177.21L215.925 172.545H199.825Z" fill="#455A64"/>
<path d="M199.825 172.545L200.215 177.21H215.53L215.925 172.545H199.825Z" fill="#263238"/>
<path d="M198.555 175.15H217.19V170.675H198.555V175.15Z" fill="#455A64"/>
<path d="M181.2 29.8301H68.8853C66.0659 29.8301 63.7803 32.1157 63.7803 34.9351V207.955C63.7803 210.774 66.0659 213.06 68.8853 213.06H181.2C184.02 213.06 186.305 210.774 186.305 207.955V34.9351C186.305 32.1157 184.02 29.8301 181.2 29.8301Z" fill="#455A64"/>
<path d="M181.131 42.77H69.0156V200.48H181.131V42.77Z" fill="white"/>
<path d="M138.34 37.7102V37.0552C138.34 36.71 138.06 36.4302 137.715 36.4302H112.285C111.94 36.4302 111.66 36.71 111.66 37.0552V37.7102C111.66 38.0554 111.94 38.3352 112.285 38.3352H137.715C138.06 38.3352 138.34 38.0554 138.34 37.7102Z" fill="#37474F"/>
<path d="M125 210.84C124.316 210.841 123.648 210.639 123.079 210.26C122.51 209.881 122.067 209.342 121.804 208.711C121.542 208.08 121.473 207.385 121.606 206.714C121.739 206.044 122.067 205.428 122.55 204.944C123.033 204.46 123.649 204.131 124.319 203.997C124.99 203.863 125.684 203.931 126.316 204.193C126.948 204.454 127.488 204.897 127.867 205.465C128.247 206.033 128.45 206.702 128.45 207.385C128.45 208.301 128.087 209.179 127.44 209.826C126.793 210.474 125.915 210.839 125 210.84Z" fill="#37474F"/>
<path d="M146.89 168.77H103.12V182.265H146.89V168.77Z" fill="#37474F"/>
<path d="M115.5 173.935C115.426 173.859 115.344 173.792 115.255 173.735C115.137 173.658 115.011 173.593 114.88 173.54C114.728 173.476 114.571 173.426 114.41 173.39C114.246 173.351 114.078 173.331 113.91 173.33C113.601 173.307 113.292 173.384 113.03 173.55C112.939 173.62 112.866 173.711 112.817 173.816C112.768 173.92 112.745 174.035 112.75 174.15C112.745 174.276 112.776 174.401 112.84 174.51C112.909 174.611 113.002 174.693 113.11 174.75C113.257 174.83 113.413 174.892 113.575 174.935C113.755 174.99 113.97 175.045 114.22 175.11C114.496 175.172 114.769 175.253 115.035 175.35C115.257 175.428 115.466 175.539 115.655 175.68C115.819 175.805 115.952 175.966 116.045 176.15C116.14 176.365 116.187 176.599 116.18 176.835C116.189 177.105 116.13 177.373 116.01 177.615C115.899 177.829 115.738 178.013 115.54 178.15C115.329 178.29 115.096 178.391 114.85 178.45C114.571 178.516 114.286 178.547 114 178.545C113.555 178.548 113.113 178.479 112.69 178.34C112.275 178.21 111.888 178.007 111.545 177.74L111.97 176.935C112.067 177.026 112.172 177.108 112.285 177.18C112.443 177.279 112.61 177.361 112.785 177.425C112.976 177.506 113.173 177.572 113.375 177.62C113.591 177.674 113.812 177.701 114.035 177.7C114.334 177.717 114.632 177.649 114.895 177.505C114.992 177.446 115.071 177.362 115.124 177.262C115.177 177.161 115.201 177.048 115.195 176.935C115.199 176.801 115.158 176.669 115.08 176.56C114.994 176.449 114.885 176.359 114.76 176.295C114.601 176.21 114.433 176.141 114.26 176.09L113.575 175.895C113.312 175.829 113.053 175.747 112.8 175.65C112.6 175.576 112.414 175.47 112.25 175.335C112.111 175.215 111.997 175.069 111.915 174.905C111.836 174.715 111.798 174.51 111.805 174.305C111.8 174.036 111.856 173.769 111.97 173.525C112.08 173.304 112.237 173.109 112.43 172.955C112.633 172.796 112.866 172.679 113.115 172.61C113.392 172.527 113.681 172.487 113.97 172.49C114.35 172.486 114.728 172.552 115.085 172.685C115.404 172.801 115.705 172.961 115.98 173.16L115.5 173.935Z" fill="white"/>
<path d="M121.775 173.365H119.775V178.5H118.825V173.365H116.825V172.535H121.74L121.775 173.365Z" fill="white"/>
<path d="M124.07 172.535H124.895L127.24 178.5H126.24L125.61 176.88H123.31L122.705 178.5H121.705L124.07 172.535ZM125.44 176.175L124.5 173.615L123.5 176.175H125.44Z" fill="white"/>
<path d="M128.315 178.5V172.535H130.91C131.166 172.533 131.42 172.589 131.65 172.7C131.87 172.811 132.068 172.96 132.235 173.14C132.397 173.324 132.525 173.533 132.615 173.76C132.706 173.986 132.753 174.227 132.755 174.47C132.755 174.667 132.727 174.862 132.67 175.05C132.616 175.227 132.537 175.395 132.435 175.55C132.335 175.706 132.21 175.845 132.065 175.96C131.916 176.076 131.747 176.162 131.565 176.215L133 178.5H131.935L130.64 176.425H129.265V178.5H128.315ZM129.255 175.595H130.9C131.027 175.596 131.152 175.567 131.265 175.51C131.375 175.45 131.471 175.366 131.545 175.265C131.627 175.158 131.689 175.038 131.73 174.91C131.775 174.771 131.797 174.626 131.795 174.48C131.793 174.194 131.691 173.918 131.505 173.7C131.422 173.602 131.32 173.52 131.205 173.46C131.095 173.406 130.974 173.377 130.85 173.375H129.255V175.595Z" fill="white"/>
<path d="M138.5 173.365H136.5V178.5H135.55V173.365H133.55V172.535H138.5V173.365Z" fill="white"/>
<path d="M145.04 183.375H104.97L103.12 182.265H146.885L145.04 183.375Z" fill="#263238"/>
<path d="M215.181 221.825C215.266 222.935 212.091 223.255 210.766 222.535C209.695 221.768 208.674 220.933 207.711 220.035C204.526 217.22 200.126 213.1 200.126 213.1L196.866 214.57L180.941 219.87L174.226 202.5C174.226 202.5 181.931 199.24 189.256 196.32C190.386 195.87 191.496 195.435 192.576 195.015L192.776 194.935C197.691 193.045 201.776 191.615 202.181 191.935C203.311 192.675 215.096 220.705 215.181 221.825Z" fill="#D3766A"/>
<path d="M215.18 221.825C215.265 222.94 212.09 223.255 210.765 222.54C209.693 221.774 208.673 220.939 207.71 220.04C204.525 217.23 200.125 213.11 200.125 213.11L196.865 214.575L196.335 214.75L189 196.4L189.235 196.305L192.555 195.005L192.755 194.925C197.67 193.035 201.755 191.6 202.165 191.895C203.31 192.68 215.095 220.71 215.18 221.825Z" fill="#EBEBEB"/>
<path d="M215.46 222.235C215.395 221.095 203.745 192.405 202.61 191.595C202.185 191.28 197.905 192.735 192.785 194.64L192.625 194.7L199.93 213.29L200.24 213.16C200.24 213.16 209.61 222.16 210.955 222.905C212.3 223.65 215.535 223.37 215.46 222.235Z" fill="#0F7757"/>
<path d="M214.22 222.36C212.135 217.575 204.19 198.065 202.495 193.175C202.495 193.135 202.495 193.125 202.525 193.175C204.695 197.875 212.48 217.45 214.295 222.345C214.335 222.43 214.26 222.46 214.22 222.36Z" fill="#263238"/>
<path d="M200.82 215.33C199.69 213.57 199.04 211.125 199.82 209.12C199.85 209.045 199.96 209.085 199.965 209.155C200.115 211.212 200.486 213.247 201.07 215.225C201.084 215.258 201.084 215.295 201.071 215.329C201.057 215.362 201.031 215.389 200.998 215.402C200.964 215.416 200.927 215.417 200.894 215.403C200.861 215.389 200.834 215.363 200.82 215.33Z" fill="#263238"/>
<path d="M202.206 216.37C201.076 214.61 200.426 212.165 201.206 210.16C201.236 210.08 201.346 210.125 201.351 210.195C201.504 212.252 201.874 214.287 202.456 216.265C202.47 216.298 202.47 216.336 202.456 216.369C202.443 216.402 202.417 216.429 202.383 216.443C202.35 216.457 202.313 216.457 202.28 216.443C202.246 216.43 202.22 216.403 202.206 216.37Z" fill="#263238"/>
<path d="M203.591 217.405C202.466 215.645 201.811 213.2 202.591 211.195C202.621 211.12 202.731 211.16 202.736 211.23C202.887 213.287 203.26 215.322 203.846 217.3C203.86 217.334 203.859 217.372 203.845 217.406C203.831 217.439 203.804 217.466 203.771 217.48C203.737 217.494 203.699 217.494 203.665 217.48C203.631 217.466 203.605 217.439 203.591 217.405Z" fill="#263238"/>
<path d="M200.04 217.54C200.54 215.765 200.255 213.84 200.2 212.04C200.195 212.001 200.18 211.963 200.158 211.929C200.136 211.896 200.106 211.868 200.071 211.848C200.036 211.829 199.997 211.817 199.957 211.815C199.917 211.813 199.877 211.82 199.84 211.835C199.84 211.81 199.785 211.79 199.755 211.835C198.303 213.096 197.21 214.717 196.585 216.535C196.24 217.6 196.34 219.18 197.675 219.535C198.935 219.805 199.745 218.57 200.04 217.54ZM198.705 218.645C196.75 219.825 196.94 217.145 197.205 216.365C197.396 215.866 197.623 215.381 197.885 214.915C198.433 213.957 199.03 213.027 199.675 212.13C199.645 213.02 199.675 213.9 199.705 214.79C199.73 215.85 199.78 218 198.705 218.645Z" fill="#263238"/>
<path d="M194.276 206.64C193.276 207.58 193.961 209.01 194.776 209.765C196.213 211.043 197.962 211.919 199.846 212.305C199.854 212.307 199.862 212.307 199.87 212.304C199.878 212.302 199.885 212.299 199.891 212.293C199.898 212.288 199.903 212.281 199.906 212.274C199.909 212.267 199.911 212.259 199.911 212.25C199.951 212.246 199.989 212.233 200.023 212.211C200.057 212.19 200.086 212.161 200.107 212.126C200.128 212.092 200.14 212.053 200.143 212.013C200.147 211.973 200.141 211.933 200.126 211.895C199.286 210.295 198.586 208.475 197.281 207.18C196.531 206.42 195.221 205.75 194.276 206.64ZM198.366 209.725C198.796 210.505 199.191 211.3 199.651 212.06C198.649 211.595 197.671 211.079 196.721 210.515C196.267 210.233 195.831 209.923 195.416 209.585C194.786 209.05 193.306 206.8 195.586 206.87C196.846 206.91 197.851 208.8 198.366 209.725Z" fill="#263238"/>
<path opacity="0.1" d="M215.46 222.235C215.535 223.375 212.295 223.66 210.96 222.905C209.625 222.15 200.245 213.16 200.245 213.16L199.935 213.295L194.155 198.6L205.53 197.575C209.34 206.26 215.415 221.415 215.46 222.235Z" fill="black"/>
<path d="M193.971 217.77C193.971 217.77 159.351 225.72 146.616 223.425C140.526 222.325 136.116 214.485 139.056 208.48C141.786 202.875 158.496 197.185 163.216 193.885C164.716 192.855 164.546 188.755 164.546 188.755L176.946 188.59C176.946 188.59 181.366 195.615 179.496 199.035C179.466 199.09 179.431 199.145 179.391 199.205L185.001 197.075L193.971 217.77Z" fill="#37474F"/>
<path d="M186.305 208.41C184.925 205.41 183.41 202.48 182.005 199.495C181.98 199.44 181.89 199.47 181.915 199.53C183.24 202.53 184.46 205.59 185.84 208.575C187.22 211.56 188.715 214.51 190.165 217.475C190.2 217.555 190.325 217.51 190.29 217.43C188.955 214.43 187.68 211.4 186.305 208.41Z" fill="#263238"/>
<path d="M179.47 199.345C178.615 199.845 177.8 200.42 176.97 200.96C176.14 201.5 175.325 202.01 174.47 202.51C172.775 203.51 171.045 204.455 169.29 205.35C165.758 207.161 162.108 208.733 158.365 210.055C156.275 210.79 154.165 211.505 152.02 212.055C151.97 212.055 151.995 212.135 152.02 212.125C153.585 211.75 155.15 211.385 156.695 210.945C155.875 211.445 155.07 212 154.255 212.525C154.249 212.531 154.246 212.539 154.245 212.548C154.245 212.556 154.247 212.565 154.251 212.572C154.256 212.579 154.262 212.585 154.27 212.588C154.278 212.591 154.287 212.592 154.295 212.59C155.185 212.05 156.09 211.535 156.975 210.985C156.986 210.979 156.995 210.971 157.002 210.961C157.009 210.951 157.013 210.94 157.016 210.928C157.018 210.916 157.018 210.904 157.015 210.892C157.013 210.881 157.007 210.87 157 210.86L157.79 210.63C159.705 210.035 161.595 209.37 163.45 208.63C167.124 207.15 170.665 205.36 174.035 203.28C174.985 202.69 175.923 202.083 176.85 201.46C177.782 200.852 178.674 200.184 179.52 199.46C179.625 199.4 179.54 199.305 179.47 199.345Z" fill="#263238"/>
<path d="M228.465 226.08C228.55 227.19 225.375 227.505 224.05 226.79C222.979 226.023 221.959 225.188 220.995 224.29C217.815 221.475 213.41 217.355 213.41 217.355L210.155 218.82L194.705 224.105L187.5 206.735C187.5 206.735 195.205 203.475 202.535 200.555L205.85 199.255L206.05 199.175C210.97 197.285 215.05 195.855 215.46 196.145C216.595 196.93 228.38 224.96 228.465 226.08Z" fill="#D3766A"/>
<path d="M228.465 226.08C228.55 227.19 225.375 227.51 224.05 226.79C222.979 226.023 221.959 225.188 220.995 224.29C217.815 221.475 213.41 217.355 213.41 217.355L210.155 218.825L209.72 218.975L202.125 200.735L202.545 200.57C203.67 200.12 204.78 199.685 205.86 199.265L206.06 199.185C210.98 197.295 215.06 195.865 215.47 196.16C216.595 196.93 228.38 224.96 228.465 226.08Z" fill="#EBEBEB"/>
<path d="M228.755 226.33C228.67 225.19 216.63 196.665 215.48 195.87C215.05 195.56 210.79 197.075 205.7 199.05L205.54 199.11L213.1 217.61L213.41 217.475C213.41 217.475 222.91 226.33 224.26 227.07C225.61 227.81 228.845 227.465 228.755 226.33Z" fill="#0F7757"/>
<path d="M227.5 226.47C225.35 221.715 217.135 202.315 215.375 197.47C215.375 197.43 215.375 197.42 215.405 197.47C217.64 202.14 225.695 221.605 227.575 226.47C227.63 226.54 227.56 226.57 227.5 226.47Z" fill="#263238"/>
<path d="M214 219.63C212.845 217.885 212.16 215.45 212.9 213.435C212.925 213.355 213.04 213.395 213.045 213.465C213.232 215.514 213.638 217.538 214.255 219.5C214.273 219.534 214.276 219.573 214.264 219.609C214.252 219.646 214.227 219.676 214.193 219.693C214.159 219.71 214.12 219.713 214.084 219.701C214.048 219.69 214.018 219.664 214 219.63Z" fill="#263238"/>
<path d="M215.42 220.645C214.265 218.905 213.58 216.465 214.32 214.45C214.345 214.375 214.46 214.415 214.465 214.485C214.644 216.54 215.043 218.57 215.655 220.54C215.664 220.57 215.661 220.602 215.648 220.631C215.635 220.659 215.612 220.682 215.583 220.694C215.555 220.707 215.523 220.709 215.493 220.7C215.463 220.691 215.437 220.672 215.42 220.645Z" fill="#263238"/>
<path d="M216.821 221.665C215.666 219.92 214.981 217.485 215.721 215.47C215.746 215.39 215.856 215.435 215.866 215.505C216.044 217.559 216.443 219.587 217.056 221.555C217.068 221.586 217.068 221.62 217.055 221.651C217.043 221.682 217.02 221.706 216.99 221.721C216.96 221.735 216.926 221.737 216.894 221.726C216.863 221.716 216.837 221.694 216.821 221.665Z" fill="#263238"/>
<path d="M213.27 221.845C213.745 220.065 213.435 218.145 213.35 216.345C213.345 216.305 213.331 216.267 213.309 216.234C213.286 216.201 213.256 216.173 213.221 216.154C213.186 216.134 213.147 216.123 213.107 216.122C213.067 216.12 213.027 216.128 212.99 216.145C212.99 216.145 212.935 216.1 212.905 216.145C211.472 217.427 210.401 219.063 209.8 220.89C209.47 221.96 209.595 223.54 210.93 223.85C212.265 224.16 213 222.885 213.27 221.845ZM211.95 222.97C210.015 224.18 210.165 221.47 210.45 220.71C210.64 220.21 210.86 219.722 211.11 219.25C211.61 218.25 212.26 217.37 212.865 216.44C212.865 217.33 212.91 218.215 212.93 219.105C212.935 220.165 213 222.3 211.95 222.97Z" fill="#263238"/>
<path d="M207.356 211.025C206.356 211.98 207.076 213.4 207.911 214.145C209.364 215.402 211.123 216.254 213.011 216.615C213.056 216.615 213.076 216.59 213.081 216.555C213.12 216.551 213.158 216.537 213.192 216.515C213.225 216.493 213.253 216.464 213.273 216.429C213.293 216.395 213.304 216.356 213.307 216.316C213.309 216.277 213.302 216.237 213.286 216.2C212.426 214.61 211.706 212.805 210.381 211.525C209.606 210.78 208.286 210.125 207.356 211.025ZM211.491 214.06C211.931 214.83 212.331 215.62 212.806 216.375C211.798 215.925 210.813 215.425 209.856 214.875C209.395 214.604 208.954 214.3 208.536 213.965C207.901 213.44 206.391 211.21 208.671 211.25C209.931 211.265 210.961 213.14 211.501 214.06H211.491Z" fill="#263238"/>
<path d="M168.81 188.675L190.135 188.355C190.135 188.355 194.635 199.855 192.785 203.29C190.935 206.725 171.285 211.605 171.285 211.605L198.285 201.33L207.285 222.02C207.285 222.02 174.425 229.175 157 227.4C150.465 226.735 146.365 218.2 150.195 211.64C154.22 204.74 168.83 195.3 168.83 195.3L168.81 188.675Z" fill="#37474F"/>
<path d="M197.566 201.28C189.306 205.055 180.966 208.665 172.441 211.81C171.254 212.25 170.067 212.684 168.881 213.11C167.651 213.55 166.426 214.06 165.166 214.415C165.106 214.415 165.136 214.53 165.196 214.51C166.281 214.1 167.411 213.81 168.516 213.45C169.621 213.09 170.671 212.735 171.741 212.365L173.131 211.865L172.851 212.06C172.426 212.34 172.001 212.625 171.581 212.92C170.721 213.53 169.916 214.25 169.011 214.79C168.956 214.82 169.011 214.91 169.066 214.87C169.926 214.26 170.896 213.805 171.781 213.23C172.206 212.95 172.626 212.655 173.046 212.36C173.438 212.104 173.809 211.816 174.156 211.5C175.516 211 176.871 210.5 178.216 210C182.466 208.387 186.661 206.644 190.801 204.77C193.116 203.72 195.406 202.63 197.671 201.48C197.786 201.43 197.691 201.22 197.566 201.28Z" fill="#263238"/>
<path d="M200.07 212.5C198.69 209.5 197.175 206.57 195.77 203.585C195.745 203.53 195.65 203.56 195.675 203.62C197 206.62 198.225 209.68 199.605 212.665C200.985 215.65 202.48 218.605 203.925 221.57C203.965 221.645 204.09 221.605 204.05 221.525C202.715 218.5 201.445 215.47 200.07 212.5Z" fill="#263238"/>
<path d="M168.461 195.525C166.114 196.858 163.864 198.354 161.726 200C159.586 201.585 157.516 203.26 155.541 205.05C154.541 205.95 153.581 206.89 152.651 207.86C151.748 208.772 150.928 209.763 150.201 210.82C148.908 212.731 148.286 215.017 148.431 217.32C148.517 218.544 148.804 219.745 149.281 220.875C149.793 221.979 150.458 223.006 151.256 223.925C151.286 223.965 151.341 223.925 151.306 223.87C150.557 223.023 149.99 222.03 149.641 220.955C149.075 219.427 148.857 217.792 149 216.169C149.144 214.546 149.646 212.975 150.471 211.57C151.781 209.395 153.706 207.595 155.536 205.865C157.426 204.083 159.405 202.397 161.466 200.815C162.619 199.925 163.786 199.057 164.966 198.21C166.151 197.36 167.361 196.545 168.521 195.655C168.533 195.644 168.541 195.63 168.544 195.614C168.547 195.599 168.545 195.583 168.539 195.568C168.532 195.553 168.521 195.541 168.507 195.534C168.493 195.526 168.477 195.523 168.461 195.525Z" fill="#263238"/>
<path d="M174.661 196.385C172.888 195.837 171.06 195.487 169.211 195.34C167.396 195.14 165.576 195.04 163.746 195.015C163.696 195.015 163.701 195.085 163.746 195.09C165.601 195.255 167.451 195.49 169.286 195.765C171.121 196.04 172.846 196.415 174.641 196.56C174.746 196.565 174.746 196.415 174.661 196.385Z" fill="#263238"/>
<path d="M189.16 196.635C188.023 196.609 186.889 196.507 185.765 196.33C184.821 196.285 183.904 195.999 183.1 195.5C181.6 194.365 180.97 192.37 180.65 190.59C180.65 190.55 180.57 190.56 180.575 190.59C180.835 192.525 180.92 194.75 182.625 196.05C183.477 196.637 184.486 196.952 185.52 196.955C186.738 197.005 187.958 196.93 189.16 196.73C189.167 196.73 189.173 196.729 189.179 196.727C189.184 196.724 189.19 196.721 189.194 196.716C189.198 196.712 189.202 196.707 189.204 196.701C189.207 196.695 189.208 196.689 189.208 196.683C189.208 196.677 189.207 196.67 189.204 196.665C189.202 196.659 189.198 196.654 189.194 196.649C189.19 196.645 189.184 196.641 189.179 196.639C189.173 196.637 189.167 196.635 189.16 196.635Z" fill="#263238"/>
<path d="M191.5 199.71C191.383 198.587 191.182 197.474 190.9 196.38C190.635 195.255 190.315 194.145 189.96 193.045C189.555 191.8 189.085 190.57 188.595 189.355C188.595 189.31 188.505 189.355 188.52 189.355C189.225 191.415 189.87 193.5 190.405 195.61C190.672 196.657 190.909 197.707 191.115 198.76C191.363 199.778 191.363 200.841 191.115 201.86C190.823 202.894 190.229 203.818 189.41 204.515C189.41 204.515 189.41 204.54 189.41 204.515C190.126 203.947 190.691 203.212 191.056 202.374C191.42 201.536 191.573 200.621 191.5 199.71Z" fill="#263238"/>
<path d="M195.155 206.035C193.715 206.41 192.305 206.905 190.89 207.365C189.475 207.825 188.06 208.28 186.645 208.75C183.82 209.695 181.005 210.67 178.19 211.64C176.59 212.195 175.005 212.785 173.415 213.365C173.37 213.365 173.39 213.45 173.415 213.435C179.105 211.668 184.759 209.795 190.375 207.815C191.97 207.255 193.59 206.735 195.15 206.085C195.2 206.07 195.185 206.025 195.155 206.035Z" fill="#263238"/>
<path d="M153.9 172.575L157.5 173.345C158.956 171.51 159.802 169.265 159.92 166.925C159.955 166.39 160.62 169.625 159.33 173.74C163.13 174.56 168.305 175.665 172.83 176.595C173.255 174.835 173.725 173.23 173.725 173.23C173.649 174.419 173.68 175.612 173.815 176.795C174.43 176.93 175.04 177.045 175.62 177.165C176.073 174.635 176.664 172.131 177.39 169.665C177.217 172.358 177.489 175.061 178.195 177.665C181.075 178.225 182.98 178.535 182.885 178.375C179.475 172.55 183.215 170.28 182.81 165.645C182.31 160.085 177.935 158.385 178.81 154.45C179.525 151.245 181.035 145.475 177.2 143.45C176.302 142.165 175.046 141.173 173.588 140.596C172.13 140.019 170.535 139.883 169 140.205C162.095 141.445 162.755 151.87 161.93 153.81C160.76 156.58 159.19 157.335 157.54 160.435C155.89 163.535 156.955 166.07 156.7 168.36C156.445 170.65 153.18 172.43 153.9 172.575Z" fill="#263238"/>
<path d="M183.151 177.7C182.717 176.716 182.426 175.676 182.286 174.61C182.214 173.568 182.416 172.525 182.871 171.585C183.302 170.578 183.679 169.548 184.001 168.5C184.331 167.406 184.438 166.256 184.316 165.12C184.166 163.98 183.759 162.89 183.126 161.93C182.504 161.02 181.81 160.16 181.051 159.36C180.314 158.593 179.678 157.734 179.161 156.805C178.679 155.847 178.47 154.774 178.556 153.705C178.305 154.791 178.391 155.928 178.801 156.965C179.242 157.984 179.833 158.932 180.556 159.775C181.242 160.59 181.875 161.449 182.451 162.345C182.987 163.22 183.328 164.201 183.451 165.22C183.552 166.248 183.462 167.285 183.186 168.28C182.931 169.28 182.541 170.28 182.186 171.345C182.008 171.876 181.869 172.419 181.771 172.97C181.689 173.537 181.708 174.114 181.826 174.675C182.082 175.755 182.531 176.779 183.151 177.7Z" fill="#263238"/>
<path d="M164.67 143.22C163.988 144.377 163.449 145.613 163.065 146.9C162.655 148.175 162.305 149.47 161.97 150.76L161.47 152.685C161.315 153.309 161.097 153.915 160.82 154.495C160.215 155.632 159.406 156.649 158.435 157.495C157.94 157.962 157.479 158.463 157.055 158.995C156.629 159.549 156.267 160.15 155.975 160.785C155.704 161.419 155.482 162.072 155.31 162.74C155.134 163.413 155.041 164.105 155.035 164.8C155.035 165.495 155.09 166.165 155.13 166.8C155.175 167.45 155.156 168.103 155.075 168.75C154.973 169.394 154.719 170.004 154.333 170.53C153.948 171.056 153.443 171.483 152.86 171.775C153.507 171.539 154.085 171.146 154.543 170.631C155 170.116 155.322 169.496 155.48 168.825C155.621 168.156 155.693 167.474 155.695 166.79C155.695 166.11 155.66 165.45 155.695 164.79C155.803 163.508 156.142 162.256 156.695 161.095C156.971 160.525 157.306 159.985 157.695 159.485C158.102 158.979 158.543 158.501 159.015 158.055C159.506 157.579 159.971 157.079 160.41 156.555C160.861 156.017 161.239 155.422 161.535 154.785C161.814 154.151 162.03 153.491 162.18 152.815C162.34 152.165 162.475 151.51 162.61 150.855C162.89 149.55 163.145 148.245 163.455 146.955C163.733 145.672 164.14 144.421 164.67 143.22Z" fill="#263238"/>
<path d="M173.431 162.305C169.686 168.25 162.371 176.305 157.306 179.12C155.121 180.335 145.571 180.785 139.756 180.28C137.586 180.09 139.876 168.585 142.256 168.53C143.876 168.495 152.316 169.885 153.521 169.475C155.741 168.725 163.966 162.515 169.611 159.385C172.761 157.64 175.761 158.605 173.431 162.305Z" fill="#D3766A"/>
<path d="M145.935 169.425C142.015 167.96 137.22 165.9 132.57 166.72C132.052 166.799 131.575 167.049 131.215 167.43C129.125 167.76 128.655 168.845 128.655 168.845C126.8 169.75 126.47 170.93 126.47 170.93C126.47 170.93 124.02 171.345 124.025 172.865C124.025 174.575 127.465 173.66 129.665 174.31C134.71 175.81 142.2 179.57 143.615 180.145L145.935 169.425Z" fill="#D3766A"/>
<path d="M136.045 172.17C134.57 171.717 133.067 171.363 131.545 171.11C129.868 170.949 128.182 170.912 126.5 171C126.491 170.997 126.483 170.991 126.478 170.984C126.473 170.976 126.47 170.967 126.47 170.958C126.47 170.948 126.473 170.939 126.478 170.932C126.483 170.924 126.491 170.918 126.5 170.915C129.741 170.436 133.052 170.856 136.07 172.13C136.135 172.135 136.12 172.19 136.045 172.17Z" fill="#263238"/>
<path d="M137.391 169.26C135.916 168.94 133.321 168.395 128.651 168.905C128.651 168.905 128.626 168.88 128.651 168.875C131.545 168.162 134.58 168.271 137.416 169.19C137.501 169.215 137.501 169.28 137.391 169.26Z" fill="#263238"/>
<path d="M138.086 167.68C135.817 167.29 133.506 167.211 131.216 167.445V167.42C134.246 166.92 135.406 167.055 138.111 167.595C138.206 167.615 138.186 167.7 138.086 167.68Z" fill="#263238"/>
<path d="M135.63 176.5C136.21 176.955 135.975 177.26 134.665 177.26C133.355 177.26 128.165 176.155 127.935 177.995C127.705 179.835 135.04 180.94 137.22 181.125C139.401 181.315 141.596 180.972 143.615 180.125C142.24 179.575 138.305 177.65 135.63 176.5Z" fill="#D3766A"/>
<path d="M159.94 164.45L166.075 173.74C166.075 173.74 172.165 167.09 173.96 162.45C175.755 157.81 173.34 157.625 169.96 159.06C166.58 160.495 159.94 164.45 159.94 164.45Z" fill="#0F7757"/>
<path d="M161.961 164.135C161.921 164.07 161.866 164.08 161.901 164.135C163.465 166.834 165.197 169.432 167.086 171.915C167.086 171.915 167.126 171.915 167.116 171.915C166.431 170.5 162.391 164.81 161.961 164.135Z" fill="#263238"/>
<path opacity="0.1" d="M173.965 162.45C172.17 167.09 166.075 173.74 166.075 173.74L161.92 167.445L173.5 158.315C174.63 158.565 175 159.76 173.965 162.45Z" fill="black"/>
<path d="M164.316 180.75L163.641 192.285C163.641 192.285 186.001 191 192.166 190.54C192.166 190.54 185.831 167.825 179.166 160.61C175.841 157 171.936 157.27 169.451 159.79C168.821 160.43 162.656 170.125 161.866 173.92C161.196 177.265 164.316 180.75 164.316 180.75Z" fill="#0F7757"/>
<path d="M172.761 178.94C171.562 178.833 170.357 178.813 169.156 178.88C168.561 178.925 167.971 178.995 167.381 179.075C167.086 179.115 166.791 179.15 166.496 179.175C166.185 179.215 165.871 179.215 165.561 179.175C165.536 179.175 165.531 179.21 165.561 179.215C165.847 179.282 166.138 179.329 166.431 179.355C166.715 179.378 167.001 179.378 167.286 179.355C167.891 179.32 168.496 179.255 169.101 179.21C170.321 179.125 171.536 179.035 172.761 179.035C172.811 179.04 172.816 178.945 172.761 178.94Z" fill="#263238"/>
<path d="M175.501 180.5C174.549 180.221 173.583 179.996 172.606 179.825C172.106 179.745 171.606 179.69 171.131 179.65L170.421 179.6C170.161 179.6 169.896 179.6 169.641 179.6C169.611 179.6 169.606 179.64 169.641 179.645C169.886 179.645 170.141 179.73 170.371 179.77L171.101 179.885L172.571 180.115C173.546 180.26 174.521 180.41 175.496 180.59C175.508 180.591 175.519 180.587 175.528 180.579C175.537 180.571 175.542 180.56 175.543 180.548C175.544 180.536 175.54 180.524 175.532 180.515C175.524 180.506 175.513 180.501 175.501 180.5Z" fill="#263238"/>
<path opacity="0.3" d="M176.9 158.76L170.16 159.175L170.4 158.995L176.625 158.615C176.715 158.66 176.81 158.705 176.9 158.76ZM178.12 159.605L169.185 160.155C169.15 160.21 169.105 160.265 169.065 160.33L178.305 159.76C178.247 159.704 178.185 159.653 178.12 159.605ZM179.195 160.605L168.42 161.265C168.39 161.32 168.35 161.38 168.31 161.44L179.31 160.76C179.274 160.712 179.235 160.665 179.195 160.62V160.605ZM180.055 161.635L167.7 162.395C167.665 162.45 167.63 162.51 167.59 162.565L180.18 161.795C180.141 161.745 180.099 161.696 180.055 161.65V161.635ZM180.815 162.665L167 163.53C166.97 163.59 166.935 163.645 166.9 163.705L180.9 162.84L180.815 162.665ZM181.495 163.71L166.33 164.64C166.3 164.7 166.265 164.755 166.23 164.815L181.595 163.87C181.566 163.82 181.534 163.772 181.5 163.725L181.495 163.71ZM182.125 164.75L165.68 165.75C165.645 165.807 165.614 165.865 165.585 165.925L182.22 164.925L182.125 164.75ZM182.72 165.795L165.04 166.885C165.011 166.944 164.98 167 164.945 167.055L182.805 165.955C182.78 165.915 182.75 165.865 182.72 165.81V165.795ZM183.275 166.84L164.435 168C164.401 168.055 164.371 168.112 164.345 168.17L183.345 167L183.275 166.84ZM183.81 167.895L163.845 169.12L163.76 169.29L183.89 168.055L183.81 167.895ZM184.31 168.94L163.285 170.235L163.205 170.405L184.385 169.1L184.31 168.94ZM184.81 169.995L162.78 171.35C162.755 171.41 162.73 171.465 162.71 171.52L184.88 170.155C184.855 170.115 184.83 170.065 184.81 170V169.995ZM185.275 171.045L162.33 172.455C162.305 172.515 162.285 172.57 162.265 172.625L185.345 171.205C185.324 171.156 185.301 171.107 185.275 171.06V171.045ZM185.73 172.1L161.965 173.565C161.965 173.62 161.935 173.675 161.925 173.73L185.8 172.26C185.779 172.211 185.756 172.162 185.73 172.115V172.1ZM186.175 173.155L161.79 174.655C161.79 174.71 161.79 174.765 161.79 174.82L186.25 173.32L186.175 173.155ZM186.61 174.21L161.85 175.75C161.85 175.805 161.85 175.86 161.875 175.915L186.675 174.385C186.65 174.33 186.63 174.28 186.61 174.225V174.21ZM187.025 175.265L162.085 176.8C162.085 176.85 162.12 176.905 162.14 176.96L187.09 175.425C187.071 175.376 187.049 175.327 187.025 175.28V175.265ZM187.435 176.32L162.5 177.875L162.575 178.035L187.5 176.5L187.435 176.32ZM187.835 177.375L163.025 178.905L163.12 179.065L187.895 177.565C187.88 177.5 187.855 177.45 187.835 177.39V177.375ZM188.23 178.435L163.7 179.935L163.81 180.095L188.285 178.595C188.27 178.56 188.25 178.5 188.23 178.45V178.435ZM188.615 179.49L164.3 180.99V181.155L188.68 179.655C188.656 179.605 188.634 179.553 188.615 179.5V179.49ZM188.985 180.555L164.235 182.055V182.225L189.05 180.695C189.025 180.68 189 180.625 189 180.57L188.985 180.555ZM189.35 181.61L164.175 183.16V183.33L189.42 181.775L189.35 181.61ZM189.715 182.67L164.11 184.245V184.415L189.78 182.835C189.75 182.795 189.73 182.74 189.715 182.685V182.67ZM190.065 183.73L164.065 185.33V185.5L190.155 183.895L190.065 183.73ZM190.41 184.79L164 186.435V186.6L190.5 184.97C190.45 184.915 190.43 184.86 190.41 184.805V184.79ZM190.75 185.85L163.92 187.5V187.67L190.815 186.02C190.79 186 190.77 185.92 190.75 185.865V185.85ZM191.085 186.915L163.855 188.59V188.755L191.145 187.075C191.12 187.035 191.105 187 191.085 186.93V186.915ZM191.41 187.975L163.79 189.67V189.845L191.47 188.14C191.445 188.1 191.43 188.045 191.41 188V187.975ZM191.735 189.035L163.735 190.76V190.925L191.795 189.2C191.765 189.165 191.75 189.105 191.735 189.05V189.035ZM192.045 190.095L163.665 191.845V192.015L192.1 190.265C192.075 190.23 192.06 190.175 192.045 190.11V190.095Z" fill="#37474F"/>
<path d="M181.816 164.42C184.961 171.42 190 185.1 188.59 188.53C185.755 195.435 174.376 201.62 171.066 203.03C169.511 203.68 162.236 193.935 163.471 192.635C164.821 191.21 176.715 184.135 176.92 182.535C177.09 181.205 176.28 172.745 175.78 166.25C175.155 158.035 179.156 158.5 181.816 164.42Z" fill="#D3766A"/>
<path d="M166.92 190.335C166.92 190.335 161.79 191.21 158.46 191.94C156.605 192.345 153.485 193.33 152.255 194.25C150.42 195.635 143.625 202.58 145.255 204.25C146.755 205.775 151.83 199.065 151.83 199.065C151.83 199.065 146.105 205.38 148.24 206.89C150.375 208.4 155.11 200.045 155.11 200.045C155.11 200.045 149.37 206.67 151.815 207.875C153.665 208.785 158.38 201.47 158.38 201.47C158.38 201.47 153.485 207.195 155.35 208.215C157.405 209.335 162.18 202.855 162.18 202.855C167.345 204.645 170.54 203.385 172.705 202.215C173.245 201.95 166.92 190.335 166.92 190.335Z" fill="#D3766A"/>
<path d="M153.426 197.075C148.851 201.405 147.926 204.93 147.981 204.845C149.006 202.745 151.226 199.93 151.861 199.15C152.496 198.37 152.826 197.875 153.456 197.095C153.471 197.08 153.441 197.06 153.426 197.075Z" fill="#263238"/>
<path d="M156.535 199C154.608 200.67 152.993 202.67 151.765 204.905C151.72 204.995 151.765 204.99 151.83 204.905C152.605 203.905 155.735 199.985 156.56 199.015C156.575 199 156.55 199 156.535 199Z" fill="#263238"/>
<path d="M159.326 200.5C157.861 201.827 156.654 203.414 155.766 205.18C155.721 205.265 155.796 205.26 155.856 205.18C157.006 203.6 157.901 202.355 159.356 200.55C159.401 200.5 159.356 200.455 159.326 200.5Z" fill="#263238"/>
<path d="M175.196 174.625L186.266 173.45C186.266 173.45 183.166 164.98 179.871 161.25C176.576 157.52 175.301 159.585 175.031 163.25C174.761 166.915 175.196 174.625 175.196 174.625Z" fill="#0F7757"/>
<path d="M175.845 172.685C175.77 172.685 175.755 172.745 175.845 172.74C178.96 172.593 182.063 172.251 185.135 171.715V171.675C183.57 171.655 176.645 172.615 175.845 172.685Z" fill="#263238"/>
<path d="M174.886 166.07C174.886 168.94 175.011 171.95 175.116 174.75C175.116 174.8 175.581 174.67 175.771 174.635C175.846 174.635 175.806 174.545 175.736 174.555C175.599 174.568 175.462 174.568 175.326 174.555C175.221 171.725 175.111 168.895 174.921 166.055C174.921 166.05 174.886 166.05 174.886 166.07Z" fill="#263238"/>
<path d="M175 159.755C174.88 160.255 172.5 163.44 170.22 163.315C169.485 163.27 169.54 159.235 169.54 159.235L169.475 158.94L168.58 154.755L173.515 151.66L174.225 151.25C174.225 151.25 174.395 152.41 174.59 153.855L174.62 154.06C174.62 154.145 174.62 154.22 174.655 154.295C174.685 154.515 174.72 154.735 174.745 154.955C174.77 155.175 174.79 155.285 174.805 155.455C174.82 155.625 174.84 155.805 174.86 155.98C174.994 157.234 175.041 158.495 175 159.755Z" fill="#D3766A"/>
<path d="M174.585 153.855C174.153 155.023 173.472 156.084 172.589 156.962C171.705 157.84 170.641 158.515 169.47 158.94L168.575 154.755L173.51 151.66L174.22 151.25C174.22 151.25 174.39 152.41 174.585 153.855Z" fill="#263238"/>
<path d="M163.705 145.025C159.705 151.37 163.035 154.49 164.405 155.35C165.645 156.135 169.975 158.65 174.625 152.755C179.275 146.86 177.59 142.995 174.845 141.05C172.1 139.105 167.72 138.685 163.705 145.025Z" fill="#D3766A"/>
<path d="M165.345 144.715C165.509 144.773 165.676 144.822 165.845 144.86C166.012 144.938 166.201 144.957 166.38 144.915C166.433 144.891 166.477 144.85 166.505 144.798C166.533 144.747 166.544 144.688 166.535 144.63C166.499 144.517 166.434 144.416 166.346 144.337C166.258 144.258 166.151 144.204 166.035 144.18C165.81 144.092 165.56 144.092 165.335 144.18C165.281 144.201 165.234 144.238 165.202 144.287C165.169 144.335 165.152 144.393 165.153 144.451C165.154 144.509 165.173 144.566 165.208 144.613C165.242 144.66 165.29 144.696 165.345 144.715Z" fill="#263238"/>
<path d="M169.571 147.15C169.432 147.047 169.3 146.935 169.176 146.815C169.018 146.72 168.899 146.573 168.836 146.4C168.826 146.342 168.836 146.281 168.864 146.229C168.892 146.176 168.936 146.135 168.991 146.11C169.104 146.079 169.224 146.078 169.337 146.109C169.451 146.14 169.554 146.201 169.636 146.285C169.83 146.428 169.964 146.639 170.011 146.875C170.02 146.93 170.013 146.987 169.991 147.037C169.968 147.088 169.93 147.131 169.883 147.161C169.836 147.19 169.781 147.205 169.725 147.203C169.67 147.201 169.616 147.183 169.571 147.15Z" fill="#263238"/>
<path d="M167.79 148.345C167.79 148.345 167.815 148.385 167.79 148.4C167.525 148.84 167.29 149.4 167.61 149.76C167.15 149.435 167.465 148.715 167.79 148.345Z" fill="#263238"/>
<path d="M168.451 148.105C169.196 148.46 168.451 149.92 167.746 149.605C167.041 149.29 167.826 147.81 168.451 148.105Z" fill="#263238"/>
<path d="M168.7 148.33C168.785 148.48 168.83 148.695 168.98 148.79C169.13 148.885 169.36 148.815 169.555 148.73C169.555 148.73 169.58 148.73 169.555 148.76C169.508 148.905 169.407 149.027 169.274 149.102C169.14 149.176 168.983 149.197 168.835 149.16C168.54 149.055 168.475 148.705 168.55 148.385C168.58 148.325 168.665 148.27 168.7 148.33Z" fill="#263238"/>
<path d="M165.331 146.83C165.331 146.83 165.286 146.83 165.276 146.83C165.056 147.29 164.731 147.785 164.241 147.725C164.241 147.725 164.216 147.75 164.241 147.755C164.771 147.965 165.201 147.305 165.331 146.83Z" fill="#263238"/>
<path d="M165.165 146.15C164.46 145.72 163.665 147.15 164.31 147.555C164.955 147.96 165.755 146.5 165.165 146.15Z" fill="#263238"/>
<path d="M164.81 146.075C164.655 146.075 164.465 146.165 164.31 146.075C164.155 145.985 164.115 145.78 164.1 145.575C164.1 145.55 164.1 145.575 164.07 145.575C163.973 145.688 163.92 145.831 163.92 145.98C163.92 146.129 163.973 146.272 164.07 146.385C164.28 146.57 164.57 146.43 164.81 146.195C164.87 146.17 164.875 146.07 164.81 146.075Z" fill="#263238"/>
<path d="M166.035 151.875C165.884 151.962 165.708 151.995 165.535 151.97C165.364 151.885 165.213 151.766 165.09 151.62C165.09 151.62 165.055 151.62 165.06 151.62C165.083 151.742 165.139 151.856 165.222 151.948C165.305 152.041 165.411 152.109 165.53 152.145C165.636 152.164 165.745 152.151 165.844 152.108C165.942 152.066 166.026 151.995 166.085 151.905C166.085 151.905 166.06 151.87 166.035 151.875Z" fill="#263238"/>
<path d="M165.001 149.24C165.001 149.24 164.551 149.865 164.381 150.18C164.381 150.21 164.431 150.265 164.536 150.33C164.781 150.525 165.076 150.649 165.388 150.687C165.699 150.725 166.015 150.676 166.301 150.545C166.341 150.545 166.301 150.475 166.276 150.48C165.722 150.538 165.165 150.417 164.686 150.135C164.711 150.035 165.501 149.095 165.451 149.065C165.192 148.953 164.92 148.877 164.641 148.84C165.546 147.515 166.641 146.34 167.541 145.01C167.571 144.965 167.506 144.91 167.466 144.945C166.237 146.166 165.133 147.506 164.171 148.945C164.086 149.115 164.866 149.225 165.001 149.24Z" fill="#263238"/>
<path d="M164.665 150.235C164.708 150.598 164.846 150.943 165.065 151.235C165.194 151.391 165.369 151.502 165.565 151.55C165.975 151.665 166.175 151.34 166.27 151.02C166.32 150.849 166.35 150.673 166.36 150.495C165.782 150.596 165.187 150.505 164.665 150.235Z" fill="#263238"/>
<path d="M165.065 151.22C165.194 151.376 165.369 151.486 165.565 151.535C165.975 151.65 166.175 151.325 166.27 151.005C166.075 150.897 165.849 150.859 165.63 150.898C165.41 150.938 165.211 151.051 165.065 151.22Z" fill="#FF99BA"/>
<path d="M173.861 152.745C172.256 151.835 174.401 146.565 174.671 145.92C174.481 146.315 173.461 148.42 173.261 148.42C173.206 148.42 173.046 148.285 172.796 148.055C172.925 147.807 173.036 147.55 173.126 147.285C173.171 147.165 172.951 147.515 172.656 147.925L172.396 147.685C172.69 147.165 172.913 146.609 173.061 146.03C173.116 145.81 172.606 146.665 172.016 147.335C170.835 146.195 169.532 145.189 168.131 144.335C167.731 144.105 167.376 143.93 167.056 143.78C167.371 143.17 167.781 142.555 167.666 142.67C167.35 142.975 167.066 143.31 166.816 143.67L166.316 143.46C166.721 142.575 167.851 141.415 167.601 141.55C166.854 141.988 166.196 142.561 165.661 143.24C165.011 143.05 164.791 143.08 164.856 142.92C165.915 141.315 167.51 140.139 169.356 139.6C172.401 138.74 176.731 140.38 177.486 144.545C177.486 144.545 178.736 146.765 177.986 148.91C177.236 151.055 174.791 153.27 173.861 152.745Z" fill="#263238"/>
<path d="M172.966 152.225C172.966 152.225 175.496 150.9 176.171 151.905C176.846 152.91 174.171 155.365 172.871 155.2C172.7 155.192 172.533 155.148 172.379 155.073C172.226 154.998 172.089 154.893 171.977 154.763C171.865 154.634 171.781 154.483 171.729 154.32C171.678 154.157 171.659 153.986 171.676 153.815L172.966 152.225Z" fill="#D3766A"/>
<path d="M175.39 152.59C175.39 152.59 175.39 152.625 175.39 152.62C174.944 152.612 174.5 152.696 174.088 152.869C173.676 153.041 173.304 153.297 172.995 153.62C173.08 153.569 173.175 153.537 173.274 153.525C173.372 153.513 173.472 153.523 173.566 153.552C173.661 153.582 173.748 153.632 173.822 153.698C173.896 153.764 173.955 153.845 173.995 153.935C173.995 153.935 173.995 153.98 173.955 153.965C173.841 153.851 173.694 153.775 173.535 153.747C173.376 153.719 173.212 153.741 173.065 153.81C172.824 153.931 172.595 154.075 172.38 154.24C172.31 154.29 172.2 154.19 172.27 154.12C172.79 153.125 174.275 152.14 175.39 152.59Z" fill="#263238"/>
</svg>
