<svg width="275" height="256" viewBox="0 0 275 256" fill="none" xmlns="http://www.w3.org/2000/svg">
<path d="M196.015 67.0003C196.015 67.0003 173.872 44.416 138.815 45.4963C103.758 46.5766 73.8542 68.4595 49.1317 85.5808C24.4092 102.702 17.7817 129.295 32.1532 150.057C46.5247 170.819 69.4267 162.079 98.5822 175.555C127.738 189.03 133.276 196.685 165.754 193.408C198.231 190.131 222.954 156.616 219.269 120.914C215.584 85.2121 196.015 67.0003 196.015 67.0003Z" fill="#1BB284"/>
<path opacity="0.7" d="M196.015 67.0003C196.015 67.0003 173.872 44.416 138.815 45.4963C103.758 46.5766 73.8542 68.4595 49.1317 85.5808C24.4092 102.702 17.7817 129.295 32.1532 150.057C46.5247 170.819 69.4267 162.079 98.5822 175.555C127.738 189.03 133.276 196.685 165.754 193.408C198.231 190.131 222.954 156.616 219.269 120.914C215.584 85.2121 196.015 67.0003 196.015 67.0003Z" fill="white"/>
<path d="M141.691 206.474C201.993 206.474 250.877 203.992 250.877 200.929C250.877 197.867 201.993 195.384 141.691 195.384C81.3891 195.384 32.5049 197.867 32.5049 200.929C32.5049 203.992 81.3891 206.474 141.691 206.474Z" fill="#1BB284"/>
<path opacity="0.3" d="M141.691 206.474C201.993 206.474 250.877 203.992 250.877 200.929C250.877 197.867 201.993 195.384 141.691 195.384C81.3891 195.384 32.5049 197.867 32.5049 200.929C32.5049 203.992 81.3891 206.474 141.691 206.474Z" fill="white"/>
<path d="M206.217 117.35C206.184 117.35 206.596 115.441 206.64 115.302C207.113 113.94 208.895 111.565 210.617 111.57C210.903 111.577 211.184 111.641 211.442 111.757C211.7 111.872 211.93 112.037 212.115 112.24C212.3 112.443 212.437 112.681 212.517 112.937C212.597 113.192 212.619 113.461 212.58 113.725C212.454 114.857 211.365 115.814 210.38 116.372C209.225 117.043 206.217 117.35 206.217 117.35Z" fill="#1BB284"/>
<path d="M202.878 104.494C204.501 105.037 205.309 107.832 205.254 109.266C205.254 109.389 204.946 111.314 204.919 111.314H204.886C205.012 111.754 205.15 112.23 205.287 112.747C205.529 113.71 205.793 114.795 205.997 116.004C206.233 117.3 206.387 118.608 206.459 119.921C206.547 121.39 206.493 122.863 206.299 124.324C206.296 124.341 206.296 124.358 206.299 124.375C206.514 123.95 207.146 122.772 207.207 122.685C208.054 121.487 210.441 119.613 212.107 120.064C212.381 120.142 212.633 120.273 212.848 120.448C213.064 120.623 213.237 120.838 213.357 121.08C213.478 121.321 213.542 121.583 213.547 121.849C213.551 122.115 213.495 122.379 213.383 122.624C212.943 123.679 211.623 124.339 210.518 124.631C209.269 124.964 206.486 124.57 206.266 124.539C206.032 126.02 205.69 127.484 205.243 128.922C204.987 129.761 204.708 130.601 204.407 131.441C204.6 131.077 204.781 130.755 204.809 130.708C205.656 129.51 208.043 127.636 209.709 128.082C209.983 128.16 210.236 128.29 210.452 128.465C210.668 128.64 210.841 128.855 210.962 129.097C211.082 129.338 211.146 129.601 211.151 129.867C211.155 130.133 211.098 130.397 210.985 130.642C210.545 131.702 209.225 132.357 208.12 132.654C207.014 132.951 204.616 132.654 203.989 132.577C203.874 132.895 203.758 133.217 203.637 133.535C203.087 135.071 202.493 136.607 201.987 138.112C201.806 138.624 201.646 139.177 201.487 139.709C201.663 139.387 201.811 139.115 201.839 139.08C202.68 137.882 205.073 136.008 206.734 136.453C207.007 136.532 207.259 136.662 207.475 136.837C207.69 137.012 207.864 137.227 207.985 137.468C208.105 137.71 208.171 137.972 208.176 138.238C208.181 138.504 208.127 138.768 208.015 139.013C207.575 140.068 206.25 140.728 205.144 141.02C204.039 141.312 201.877 141.056 201.129 140.959C200.981 141.512 200.838 142.059 200.722 142.597C200.651 142.966 200.557 143.319 200.508 143.693C200.458 144.067 200.398 144.43 200.343 144.788C200.266 145.49 200.178 146.217 200.123 146.903C200.079 147.379 200.046 147.835 200.013 148.291C200.183 147.779 200.563 146.724 200.59 146.637C201.201 145.511 202.11 144.549 203.23 143.841C203.291 143.713 203.367 143.591 203.456 143.478C203.612 143.254 203.816 143.064 204.056 142.919C204.296 142.774 204.567 142.677 204.849 142.636C205.132 142.594 205.421 142.609 205.697 142.678C205.974 142.747 206.231 142.869 206.453 143.037C207.762 144.061 207.432 146.97 206.833 148.291C206.8 148.367 206.31 149.171 205.997 149.673C206.233 149.407 206.453 149.161 206.701 148.864C207.179 148.321 207.674 147.789 208.202 147.215L209.011 146.401C209.275 146.12 209.594 145.859 209.885 145.587C210.573 144.968 211.304 144.369 212.058 143.78C211.541 143.391 209.742 141.972 209.225 141.01C208.708 140.047 208.34 138.701 208.879 137.687C208.997 137.443 209.169 137.226 209.383 137.048C209.597 136.871 209.849 136.737 210.123 136.657C210.396 136.576 210.685 136.55 210.97 136.58C211.255 136.61 211.53 136.696 211.777 136.832C213.235 137.682 213.383 140.575 213.004 141.952C213.004 142.039 212.586 143.007 212.36 143.534C212.817 143.186 213.268 142.833 213.741 142.51C215.105 141.527 216.518 140.575 217.921 139.617L219.202 138.731C219.021 138.593 216.843 136.955 216.26 135.88C215.748 134.922 215.374 133.571 215.913 132.552C216.032 132.309 216.204 132.092 216.418 131.914C216.633 131.737 216.885 131.604 217.158 131.524C217.432 131.443 217.72 131.417 218.005 131.447C218.29 131.476 218.565 131.562 218.812 131.697C220.269 132.552 220.418 135.444 220.038 136.817C220.011 136.924 219.444 138.317 219.279 138.665C220.22 138.01 221.149 137.354 222.029 136.673C223.234 135.757 224.373 134.769 225.439 133.714C225.357 133.652 223.074 131.953 222.48 130.847C221.963 129.889 221.595 128.538 222.134 127.524C222.251 127.28 222.422 127.063 222.636 126.885C222.85 126.708 223.102 126.574 223.375 126.494C223.648 126.413 223.936 126.387 224.221 126.417C224.506 126.447 224.78 126.533 225.027 126.669C226.49 127.519 226.638 130.411 226.259 131.789C226.231 131.876 225.802 132.941 225.582 133.443L225.67 133.489C226.714 132.401 227.65 131.229 228.47 129.987C228.926 129.311 229.328 128.64 229.702 127.974C229.24 127.698 227.155 126.438 226.501 125.476C225.846 124.513 225.351 123.274 225.764 122.209C225.853 121.959 225.997 121.728 226.187 121.532C226.377 121.336 226.609 121.179 226.867 121.071C227.126 120.963 227.406 120.907 227.69 120.905C227.973 120.904 228.254 120.957 228.514 121.062C230.07 121.759 230.554 124.621 230.34 126.039C230.34 126.116 230.12 126.889 229.96 127.452C230.12 127.15 230.296 126.843 230.444 126.551C230.994 125.455 231.462 124.421 231.847 123.479C232.067 122.967 232.248 122.455 232.397 122.03C232.094 121.518 230.917 119.547 230.802 118.446C230.686 117.345 230.873 115.994 231.77 115.226C231.974 115.039 232.219 114.894 232.487 114.801C232.756 114.708 233.042 114.669 233.328 114.686C233.614 114.703 233.893 114.776 234.146 114.899C234.4 115.023 234.623 115.195 234.8 115.405C235.834 116.69 234.85 119.434 233.959 120.607C233.882 120.704 232.479 122.143 232.463 122.143V122.112C232.309 122.547 232.144 123.013 231.946 123.515C231.583 124.442 231.154 125.491 230.615 126.587C230.041 127.788 229.392 128.957 228.673 130.089C227.873 131.357 226.952 132.556 225.923 133.673L225.885 133.714C226.314 133.463 227.535 132.813 227.639 132.772C229.058 132.209 232.149 131.886 233.282 133.099C233.464 133.305 233.597 133.545 233.673 133.801C233.749 134.058 233.767 134.327 233.724 134.591C233.682 134.854 233.58 135.106 233.426 135.331C233.273 135.556 233.07 135.748 232.831 135.895C231.836 136.55 230.34 136.407 229.245 136.095C228.008 135.731 225.945 133.975 225.753 133.837C224.68 134.951 223.528 135.996 222.304 136.965C221.589 137.539 220.858 138.091 220.104 138.634C220.484 138.435 220.825 138.255 220.874 138.235C222.288 137.672 225.379 137.349 226.512 138.563C226.694 138.768 226.828 139.007 226.905 139.264C226.981 139.521 226.999 139.79 226.956 140.054C226.914 140.318 226.812 140.57 226.658 140.795C226.503 141.019 226.3 141.211 226.061 141.358C225.071 142.013 223.575 141.87 222.48 141.558C221.386 141.245 219.554 139.771 219.081 139.377L218.218 139.996C216.832 140.984 215.468 141.962 214.12 142.961C213.653 143.314 213.207 143.677 212.756 144.036C213.097 143.857 213.378 143.708 213.427 143.693C214.841 143.124 217.932 142.807 219.065 144.015C219.248 144.221 219.383 144.46 219.46 144.717C219.537 144.974 219.555 145.243 219.512 145.507C219.469 145.771 219.367 146.024 219.213 146.248C219.058 146.473 218.854 146.665 218.614 146.811C217.618 147.466 216.128 147.323 215.033 147.016C213.939 146.708 212.283 145.367 211.733 144.901C211.288 145.285 210.837 145.664 210.424 146.058C210.144 146.33 209.874 146.57 209.599 146.862C209.324 147.154 209.049 147.415 208.807 147.691C208.329 148.234 207.828 148.797 207.372 149.34C207.053 149.714 206.756 150.077 206.459 150.441C206.915 150.088 207.839 149.417 207.922 149.361C209.225 148.603 212.228 147.85 213.548 148.884C213.762 149.063 213.932 149.281 214.049 149.525C214.165 149.769 214.226 150.033 214.226 150.3C214.226 150.567 214.165 150.831 214.049 151.075C213.932 151.319 213.762 151.537 213.548 151.716C212.674 152.499 211.178 152.586 210.045 152.422C208.791 152.238 206.525 150.886 206.244 150.692C205.749 151.296 205.276 151.89 204.836 152.458C203.313 154.419 202.125 156.104 201.311 157.297L201.228 157.414L200.172 156.938C200.227 156.861 200.282 156.79 200.337 156.708C201.19 155.52 202.433 153.841 204.017 151.89C204.517 151.275 205.062 150.625 205.628 149.96C205.039 149.363 204.488 148.733 203.978 148.075C202.763 148.516 200.238 148.536 199.914 148.536C199.864 149.294 199.82 150.031 199.787 150.728C199.677 153.149 199.688 155.167 199.716 156.575V156.744L198.555 156.232C198.555 154.834 198.616 152.934 198.77 150.697C198.819 149.924 198.891 149.099 198.973 148.26C198.649 148.183 196.025 147.553 195.035 146.816C194.139 146.15 193.193 145.065 193.226 143.933C193.223 143.667 193.28 143.402 193.395 143.157C193.509 142.913 193.678 142.693 193.89 142.513C194.102 142.333 194.352 142.197 194.624 142.114C194.897 142.03 195.185 142.001 195.47 142.029C197.18 142.234 198.61 144.804 198.896 146.212C198.896 146.294 198.984 147.236 199.017 147.799C199.056 147.451 199.083 147.118 199.122 146.775C199.199 146.074 199.298 145.372 199.402 144.619C199.463 144.261 199.529 143.898 199.589 143.529C199.65 143.16 199.754 142.781 199.837 142.403C200.046 141.532 200.299 140.657 200.579 139.781C199.919 139.715 197.582 139.459 196.575 138.926C195.569 138.394 194.469 137.451 194.32 136.33C194.274 136.067 194.287 135.797 194.36 135.538C194.433 135.28 194.564 135.039 194.744 134.831C194.925 134.623 195.15 134.453 195.406 134.332C195.662 134.211 195.942 134.142 196.229 134.129C197.95 134.088 199.787 136.427 200.293 137.779C200.326 137.866 200.574 138.875 200.695 139.433C200.871 138.921 201.036 138.378 201.245 137.856C201.795 136.32 202.416 134.815 203.021 133.294C203.208 132.828 203.384 132.362 203.571 131.901C203.335 131.901 200.546 131.63 199.424 131.031C198.429 130.519 197.318 129.556 197.164 128.435C197.119 128.172 197.134 127.903 197.207 127.645C197.281 127.387 197.412 127.147 197.592 126.939C197.772 126.732 197.997 126.562 198.252 126.44C198.507 126.319 198.786 126.248 199.072 126.234C200.799 126.193 202.636 128.532 203.142 129.884C203.181 129.987 203.533 131.42 203.604 131.814C204 130.79 204.391 129.766 204.704 128.742C205.17 127.36 205.537 125.951 205.804 124.523C205.694 124.523 202.779 124.267 201.635 123.653C200.634 123.141 199.523 122.179 199.375 121.057C199.33 120.794 199.345 120.525 199.418 120.267C199.492 120.009 199.623 119.769 199.803 119.561C199.983 119.354 200.208 119.184 200.463 119.062C200.718 118.941 200.997 118.87 201.283 118.856C203.005 118.82 204.842 121.155 205.348 122.506C205.381 122.598 205.65 123.704 205.766 124.232H205.865C206.092 122.789 206.18 121.331 206.129 119.875C206.129 119.071 206.046 118.308 205.964 117.56C205.414 117.56 202.917 117.56 201.817 117.12C200.717 116.68 199.545 115.871 199.259 114.77C199.183 114.512 199.166 114.242 199.21 113.978C199.253 113.713 199.356 113.46 199.512 113.236C199.668 113.011 199.873 112.819 200.114 112.673C200.354 112.528 200.626 112.431 200.909 112.389C202.62 112.174 204.721 114.309 205.386 115.604C205.419 115.676 205.705 116.429 205.898 116.977C205.859 116.644 205.821 116.296 205.771 115.978C205.601 114.775 205.359 113.679 205.139 112.717C205.007 112.169 204.88 111.693 204.754 111.217C204.204 110.961 202.048 109.906 201.305 109.051C200.563 108.196 199.914 106.972 200.205 105.871C200.268 105.609 200.39 105.362 200.563 105.147C200.736 104.931 200.956 104.753 201.209 104.623C201.462 104.492 201.741 104.414 202.029 104.391C202.317 104.369 202.606 104.404 202.878 104.494Z" fill="#1BB284"/>
<path d="M234.052 129.239C232.705 129.188 230.01 127.903 230.01 127.898C230.01 127.892 231.456 126.505 231.561 126.428C232.765 125.532 235.658 124.467 237.094 125.353C237.328 125.507 237.525 125.705 237.671 125.934C237.818 126.164 237.911 126.419 237.945 126.684C237.978 126.949 237.952 127.218 237.867 127.473C237.782 127.728 237.64 127.963 237.451 128.164C236.681 129.024 235.202 129.28 234.052 129.239Z" fill="#1BB284"/>
<g opacity="0.5">
<path d="M206.217 117.35C206.184 117.35 206.596 115.441 206.64 115.302C207.113 113.94 208.895 111.565 210.617 111.57C210.903 111.577 211.184 111.641 211.442 111.757C211.7 111.872 211.93 112.037 212.115 112.24C212.3 112.443 212.437 112.681 212.517 112.937C212.597 113.192 212.619 113.461 212.58 113.725C212.454 114.857 211.365 115.814 210.38 116.372C209.225 117.043 206.217 117.35 206.217 117.35Z" fill="white"/>
<path d="M202.878 104.494C204.501 105.037 205.309 107.832 205.254 109.266C205.254 109.389 204.946 111.314 204.919 111.314H204.886C205.012 111.754 205.15 112.23 205.287 112.747C205.529 113.71 205.793 114.795 205.997 116.004C206.233 117.3 206.387 118.608 206.459 119.921C206.547 121.39 206.493 122.863 206.299 124.324C206.296 124.341 206.296 124.358 206.299 124.375C206.514 123.95 207.146 122.772 207.207 122.685C208.054 121.487 210.441 119.613 212.107 120.064C212.381 120.142 212.633 120.273 212.848 120.448C213.064 120.623 213.237 120.838 213.357 121.08C213.478 121.321 213.542 121.583 213.547 121.849C213.551 122.115 213.495 122.379 213.383 122.624C212.943 123.679 211.623 124.339 210.518 124.631C209.269 124.964 206.486 124.57 206.266 124.539C206.032 126.02 205.69 127.484 205.243 128.922C204.987 129.761 204.708 130.601 204.407 131.441C204.6 131.077 204.781 130.755 204.809 130.708C205.656 129.51 208.043 127.636 209.709 128.082C209.983 128.16 210.236 128.29 210.452 128.465C210.668 128.64 210.841 128.855 210.962 129.097C211.082 129.338 211.146 129.601 211.151 129.867C211.155 130.133 211.098 130.397 210.985 130.642C210.545 131.702 209.225 132.357 208.12 132.654C207.014 132.951 204.616 132.654 203.989 132.577C203.874 132.895 203.758 133.217 203.637 133.535C203.087 135.071 202.493 136.607 201.987 138.112C201.806 138.624 201.646 139.177 201.487 139.709C201.663 139.387 201.811 139.115 201.839 139.08C202.68 137.882 205.073 136.008 206.734 136.453C207.007 136.532 207.259 136.662 207.475 136.837C207.69 137.012 207.864 137.227 207.985 137.468C208.105 137.71 208.171 137.972 208.176 138.238C208.181 138.504 208.127 138.768 208.015 139.013C207.575 140.068 206.25 140.728 205.144 141.02C204.039 141.312 201.877 141.056 201.129 140.959C200.981 141.512 200.838 142.059 200.722 142.597C200.651 142.966 200.557 143.319 200.508 143.693C200.458 144.067 200.398 144.43 200.343 144.788C200.266 145.49 200.178 146.217 200.123 146.903C200.079 147.379 200.046 147.835 200.013 148.291C200.183 147.779 200.563 146.724 200.59 146.637C201.201 145.511 202.11 144.549 203.23 143.841C203.291 143.713 203.367 143.591 203.456 143.478C203.612 143.254 203.816 143.064 204.056 142.919C204.296 142.774 204.567 142.677 204.849 142.636C205.132 142.594 205.421 142.609 205.697 142.678C205.974 142.747 206.231 142.869 206.453 143.037C207.762 144.061 207.432 146.97 206.833 148.291C206.8 148.367 206.31 149.171 205.997 149.673C206.233 149.407 206.453 149.161 206.701 148.864C207.179 148.321 207.674 147.789 208.202 147.215L209.011 146.401C209.275 146.12 209.594 145.859 209.885 145.587C210.573 144.968 211.304 144.369 212.058 143.78C211.541 143.391 209.742 141.972 209.225 141.01C208.708 140.047 208.34 138.701 208.879 137.687C208.997 137.443 209.169 137.226 209.383 137.048C209.597 136.871 209.849 136.737 210.123 136.657C210.396 136.576 210.685 136.55 210.97 136.58C211.255 136.61 211.53 136.696 211.777 136.832C213.235 137.682 213.383 140.575 213.004 141.952C213.004 142.039 212.586 143.007 212.36 143.534C212.817 143.186 213.268 142.833 213.741 142.51C215.105 141.527 216.518 140.575 217.921 139.617L219.202 138.731C219.021 138.593 216.843 136.955 216.26 135.88C215.748 134.922 215.374 133.571 215.913 132.552C216.032 132.309 216.204 132.092 216.418 131.914C216.633 131.737 216.885 131.604 217.158 131.524C217.432 131.443 217.72 131.417 218.005 131.447C218.29 131.476 218.565 131.562 218.812 131.697C220.269 132.552 220.418 135.444 220.038 136.817C220.011 136.924 219.444 138.317 219.279 138.665C220.22 138.01 221.149 137.354 222.029 136.673C223.234 135.757 224.373 134.769 225.439 133.714C225.357 133.652 223.074 131.953 222.48 130.847C221.963 129.889 221.595 128.538 222.134 127.524C222.251 127.28 222.422 127.063 222.636 126.885C222.85 126.708 223.102 126.574 223.375 126.494C223.648 126.413 223.936 126.387 224.221 126.417C224.506 126.447 224.78 126.533 225.027 126.669C226.49 127.519 226.638 130.411 226.259 131.789C226.231 131.876 225.802 132.941 225.582 133.443L225.67 133.489C226.714 132.401 227.65 131.229 228.47 129.987C228.926 129.311 229.328 128.64 229.702 127.974C229.24 127.698 227.155 126.438 226.501 125.476C225.846 124.513 225.351 123.274 225.764 122.209C225.853 121.959 225.997 121.728 226.187 121.532C226.377 121.336 226.609 121.179 226.867 121.071C227.126 120.963 227.406 120.907 227.69 120.905C227.973 120.904 228.254 120.957 228.514 121.062C230.07 121.759 230.554 124.621 230.34 126.039C230.34 126.116 230.12 126.889 229.96 127.452C230.12 127.15 230.296 126.843 230.444 126.551C230.994 125.455 231.462 124.421 231.847 123.479C232.067 122.967 232.248 122.455 232.397 122.03C232.094 121.518 230.917 119.547 230.802 118.446C230.686 117.345 230.873 115.994 231.77 115.226C231.974 115.039 232.219 114.894 232.487 114.801C232.756 114.708 233.042 114.669 233.328 114.686C233.614 114.703 233.893 114.776 234.146 114.899C234.4 115.023 234.623 115.195 234.8 115.405C235.834 116.69 234.85 119.434 233.959 120.607C233.882 120.704 232.479 122.143 232.463 122.143V122.112C232.309 122.547 232.144 123.013 231.946 123.515C231.583 124.442 231.154 125.491 230.615 126.587C230.041 127.788 229.392 128.957 228.673 130.089C227.873 131.357 226.952 132.556 225.923 133.673L225.885 133.714C226.314 133.463 227.535 132.813 227.639 132.772C229.058 132.209 232.149 131.886 233.282 133.099C233.464 133.305 233.597 133.545 233.673 133.801C233.749 134.058 233.767 134.327 233.724 134.591C233.682 134.854 233.58 135.106 233.426 135.331C233.273 135.556 233.07 135.748 232.831 135.895C231.836 136.55 230.34 136.407 229.245 136.095C228.008 135.731 225.945 133.975 225.753 133.837C224.68 134.951 223.528 135.996 222.304 136.965C221.589 137.539 220.858 138.091 220.104 138.634C220.484 138.435 220.825 138.255 220.874 138.235C222.288 137.672 225.379 137.349 226.512 138.563C226.694 138.768 226.828 139.007 226.905 139.264C226.981 139.521 226.999 139.79 226.956 140.054C226.914 140.318 226.812 140.57 226.658 140.795C226.503 141.019 226.3 141.211 226.061 141.358C225.071 142.013 223.575 141.87 222.48 141.558C221.386 141.245 219.554 139.771 219.081 139.377L218.218 139.996C216.832 140.984 215.468 141.962 214.12 142.961C213.653 143.314 213.207 143.677 212.756 144.036C213.097 143.857 213.378 143.708 213.427 143.693C214.841 143.124 217.932 142.807 219.065 144.015C219.248 144.221 219.383 144.46 219.46 144.717C219.537 144.974 219.555 145.243 219.512 145.507C219.469 145.771 219.367 146.024 219.213 146.248C219.058 146.473 218.854 146.665 218.614 146.811C217.618 147.466 216.128 147.323 215.033 147.016C213.939 146.708 212.283 145.367 211.733 144.901C211.288 145.285 210.837 145.664 210.424 146.058C210.144 146.33 209.874 146.57 209.599 146.862C209.324 147.154 209.049 147.415 208.807 147.691C208.329 148.234 207.828 148.797 207.372 149.34C207.053 149.714 206.756 150.077 206.459 150.441C206.915 150.088 207.839 149.417 207.922 149.361C209.225 148.603 212.228 147.85 213.548 148.884C213.762 149.063 213.932 149.281 214.049 149.525C214.165 149.769 214.226 150.033 214.226 150.3C214.226 150.567 214.165 150.831 214.049 151.075C213.932 151.319 213.762 151.537 213.548 151.716C212.674 152.499 211.178 152.586 210.045 152.422C208.791 152.238 206.525 150.886 206.244 150.692C205.749 151.296 205.276 151.89 204.836 152.458C203.313 154.419 202.125 156.104 201.311 157.297L201.228 157.414L200.172 156.938C200.227 156.861 200.282 156.79 200.337 156.708C201.19 155.52 202.433 153.841 204.017 151.89C204.517 151.275 205.062 150.625 205.628 149.96C205.039 149.363 204.488 148.733 203.978 148.075C202.763 148.516 200.238 148.536 199.914 148.536C199.864 149.294 199.82 150.031 199.787 150.728C199.677 153.149 199.688 155.167 199.716 156.575V156.744L198.555 156.232C198.555 154.834 198.616 152.934 198.77 150.697C198.819 149.924 198.891 149.099 198.973 148.26C198.649 148.183 196.025 147.553 195.035 146.816C194.139 146.15 193.193 145.065 193.226 143.933C193.223 143.667 193.28 143.402 193.395 143.157C193.509 142.913 193.678 142.693 193.89 142.513C194.102 142.333 194.352 142.197 194.624 142.114C194.897 142.03 195.185 142.001 195.47 142.029C197.18 142.234 198.61 144.804 198.896 146.212C198.896 146.294 198.984 147.236 199.017 147.799C199.056 147.451 199.083 147.118 199.122 146.775C199.199 146.074 199.298 145.372 199.402 144.619C199.463 144.261 199.529 143.898 199.589 143.529C199.65 143.16 199.754 142.781 199.837 142.403C200.046 141.532 200.299 140.657 200.579 139.781C199.919 139.715 197.582 139.459 196.575 138.926C195.569 138.394 194.469 137.451 194.32 136.33C194.274 136.067 194.287 135.797 194.36 135.538C194.433 135.28 194.564 135.039 194.744 134.831C194.925 134.623 195.15 134.453 195.406 134.332C195.662 134.211 195.942 134.142 196.229 134.129C197.95 134.088 199.787 136.427 200.293 137.779C200.326 137.866 200.574 138.875 200.695 139.433C200.871 138.921 201.036 138.378 201.245 137.856C201.795 136.32 202.416 134.815 203.021 133.294C203.208 132.828 203.384 132.362 203.571 131.901C203.335 131.901 200.546 131.63 199.424 131.031C198.429 130.519 197.318 129.556 197.164 128.435C197.119 128.172 197.134 127.903 197.207 127.645C197.281 127.387 197.412 127.147 197.592 126.939C197.772 126.732 197.997 126.562 198.252 126.44C198.507 126.319 198.786 126.248 199.072 126.234C200.799 126.193 202.636 128.532 203.142 129.884C203.181 129.987 203.533 131.42 203.604 131.814C204 130.79 204.391 129.766 204.704 128.742C205.17 127.36 205.537 125.951 205.804 124.523C205.694 124.523 202.779 124.267 201.635 123.653C200.634 123.141 199.523 122.179 199.375 121.057C199.33 120.794 199.345 120.525 199.418 120.267C199.492 120.009 199.623 119.769 199.803 119.561C199.983 119.354 200.208 119.184 200.463 119.062C200.718 118.941 200.997 118.87 201.283 118.856C203.005 118.82 204.842 121.155 205.348 122.506C205.381 122.598 205.65 123.704 205.766 124.232H205.865C206.092 122.789 206.18 121.331 206.129 119.875C206.129 119.071 206.046 118.308 205.964 117.56C205.414 117.56 202.917 117.56 201.817 117.12C200.717 116.68 199.545 115.871 199.259 114.77C199.183 114.512 199.166 114.242 199.21 113.978C199.253 113.713 199.356 113.46 199.512 113.236C199.668 113.011 199.873 112.819 200.114 112.673C200.354 112.528 200.626 112.431 200.909 112.389C202.62 112.174 204.721 114.309 205.386 115.604C205.419 115.676 205.705 116.429 205.898 116.977C205.859 116.644 205.821 116.296 205.771 115.978C205.601 114.775 205.359 113.679 205.139 112.717C205.007 112.169 204.88 111.693 204.754 111.217C204.204 110.961 202.048 109.906 201.305 109.051C200.563 108.196 199.914 106.972 200.205 105.871C200.268 105.609 200.39 105.362 200.563 105.147C200.736 104.931 200.956 104.753 201.209 104.623C201.462 104.492 201.741 104.414 202.029 104.391C202.317 104.369 202.606 104.404 202.878 104.494Z" fill="white"/>
<path d="M234.052 129.239C232.705 129.188 230.01 127.903 230.01 127.898C230.01 127.892 231.456 126.505 231.561 126.428C232.765 125.532 235.658 124.467 237.094 125.353C237.328 125.507 237.525 125.705 237.671 125.934C237.818 126.164 237.911 126.419 237.945 126.684C237.978 126.949 237.952 127.218 237.867 127.473C237.782 127.728 237.64 127.963 237.451 128.164C236.681 129.024 235.202 129.28 234.052 129.239Z" fill="white"/>
</g>
<path d="M218.317 160.655C218.317 160.655 210.138 142.3 205.562 143.099C200.986 143.898 213.4 172.355 213.4 172.355C213.4 172.355 199.012 147.087 189.2 147.087C179.388 147.087 192.797 175.017 205.221 184.325C205.221 184.325 185.603 164.644 174.157 168.899C162.712 173.153 197.048 193.101 197.048 193.101C197.048 193.101 177.1 187.249 179.388 191.77C181.676 196.291 187.891 197.089 187.891 197.089L165.341 198.154H243.826L226.165 196.557C226.165 196.557 244.48 188.047 239.574 184.591C234.668 181.135 223.877 188.58 223.877 188.58C223.877 188.58 242.517 169.431 238.92 162.248C235.323 155.064 219.296 175.283 219.296 175.283C219.296 175.283 232.38 149.483 229.746 144.963C227.111 140.442 218.317 160.655 218.317 160.655Z" fill="#1BB284"/>
<path opacity="0.4" d="M218.317 160.655C218.317 160.655 210.138 142.3 205.562 143.099C200.986 143.898 213.4 172.355 213.4 172.355C213.4 172.355 199.012 147.087 189.2 147.087C179.388 147.087 192.797 175.017 205.221 184.325C205.221 184.325 185.603 164.644 174.157 168.899C162.712 173.153 197.048 193.101 197.048 193.101C197.048 193.101 177.1 187.249 179.388 191.77C181.676 196.291 187.891 197.089 187.891 197.089L165.341 198.154H243.826L226.165 196.557C226.165 196.557 244.48 188.047 239.574 184.591C234.668 181.135 223.877 188.58 223.877 188.58C223.877 188.58 242.517 169.431 238.92 162.248C235.323 155.064 219.296 175.283 219.296 175.283C219.296 175.283 232.38 149.483 229.746 144.963C227.111 140.442 218.317 160.655 218.317 160.655Z" fill="white"/>
<path d="M220.935 161.618C213.735 181.407 213.735 195.41 213.735 195.41C213.735 195.41 222.238 195.712 231.071 189.624" stroke="#263238" stroke-linecap="round" stroke-linejoin="round"/>
<path d="M217.338 172.278C215.853 166.361 213.884 160.558 211.447 154.921" stroke="#263238" stroke-linecap="round" stroke-linejoin="round"/>
<path d="M196.08 160.707L214.39 185.974C214.39 185.974 226.82 176.246 231.071 170.752" stroke="#263238" stroke-linecap="round" stroke-linejoin="round"/>
<path d="M214.065 192.067C214.065 192.067 194.771 183.542 186.923 178.688" stroke="#263238" stroke-linecap="round" stroke-linejoin="round"/>
<path d="M196.746 55.808H137.984C135.578 55.808 133.628 57.6235 133.628 59.863V194.099C133.628 196.339 135.578 198.154 137.984 198.154H196.746C199.152 198.154 201.102 196.339 201.102 194.099V59.863C201.102 57.6235 199.152 55.808 196.746 55.808Z" fill="white" stroke="#263238" stroke-linecap="round" stroke-linejoin="round"/>
<path d="M198.847 80.7271C198.609 80.7271 198.381 80.6391 198.213 80.4826C198.045 80.3261 197.951 80.1138 197.951 79.8925V68.7053C197.968 68.4946 198.071 68.2979 198.238 68.1544C198.404 68.0109 198.623 67.9312 198.85 67.9312C199.077 67.9312 199.296 68.0109 199.462 68.1544C199.629 68.2979 199.731 68.4946 199.749 68.7053V79.872C199.751 79.9836 199.73 80.0944 199.685 80.1981C199.641 80.3017 199.575 80.3961 199.491 80.4757C199.407 80.5553 199.307 80.6186 199.196 80.6617C199.086 80.7049 198.967 80.7271 198.847 80.7271Z" fill="#263238"/>
<path d="M198.847 91.0899C198.609 91.0899 198.381 91.0019 198.213 90.8454C198.045 90.6889 197.951 90.4766 197.951 90.2553V84.0038C197.968 83.7931 198.071 83.5963 198.238 83.4528C198.404 83.3093 198.623 83.2296 198.85 83.2296C199.077 83.2296 199.296 83.3093 199.462 83.4528C199.629 83.5963 199.731 83.7931 199.749 84.0038V90.2553C199.748 90.4771 199.652 90.6894 199.483 90.8457C199.314 91.0021 199.085 91.0899 198.847 91.0899Z" fill="#263238"/>
<path d="M191.659 55.808H132.897C130.491 55.808 128.541 57.6235 128.541 59.863V194.099C128.541 196.339 130.491 198.154 132.897 198.154H191.659C194.064 198.154 196.015 196.339 196.015 194.099V59.863C196.015 57.6235 194.064 55.808 191.659 55.808Z" fill="#263238" stroke="#263238" stroke-linecap="round" stroke-linejoin="round"/>
<path d="M191.521 65.2852H133.034V187.377H191.521V65.2852Z" fill="#1BB284"/>
<path d="M153.593 61.3837H169.164" stroke="white" stroke-width="3" stroke-linecap="round" stroke-linejoin="round"/>
<path d="M160.182 191.698C160.182 192.696 159.511 193.505 158.681 193.505C157.85 193.505 157.185 192.696 157.185 191.698C157.185 190.699 157.856 189.885 158.681 189.885C159.506 189.885 160.182 190.694 160.182 191.698Z" fill="white"/>
<path d="M162.278 95.6672C167.879 95.6672 172.42 90.7388 172.42 84.6592C172.42 78.5797 167.879 73.6512 162.278 73.6512C156.676 73.6512 152.136 78.5797 152.136 84.6592C152.136 90.7388 156.676 95.6672 162.278 95.6672Z" fill="white"/>
<path d="M162.278 84.521C164.404 84.521 166.128 82.6482 166.128 80.3379C166.128 78.0277 164.404 76.1549 162.278 76.1549C160.151 76.1549 158.428 78.0277 158.428 80.3379C158.428 82.6482 160.151 84.521 162.278 84.521Z" fill="#263238" stroke="#263238" stroke-linecap="round" stroke-linejoin="round"/>
<path d="M162.277 85.632C158.427 85.632 155.276 88.3814 155.276 91.776C155.279 92.0919 155.31 92.407 155.369 92.718C156.223 93.6459 157.283 94.3907 158.475 94.9014C159.668 95.412 160.965 95.6764 162.277 95.6764C163.59 95.6764 164.887 95.412 166.079 94.9014C167.272 94.3907 168.331 93.6459 169.185 92.718C169.24 92.4065 169.269 92.0916 169.273 91.776C169.273 88.3814 166.138 85.632 162.277 85.632Z" fill="#263238" stroke="#263238" stroke-linecap="round" stroke-linejoin="round"/>
<path d="M174.608 132.608H149.946C149.294 132.584 148.678 132.32 148.235 131.873C147.791 131.427 147.556 130.835 147.581 130.227V116.055C147.581 107.889 154.181 101.243 162.277 101.243C170.373 101.243 176.968 107.899 176.968 116.055V130.217C176.982 130.518 176.932 130.819 176.821 131.102C176.71 131.386 176.54 131.646 176.321 131.868C176.102 132.09 175.838 132.27 175.544 132.397C175.25 132.524 174.932 132.596 174.608 132.608ZM152.306 127.846H172.243V116.07C172.243 110.531 167.772 106.02 162.277 106.02C156.783 106.02 152.306 110.531 152.306 116.07V127.846Z" fill="#263238"/>
<path d="M179.399 122.936H145.156V153.093H179.399V122.936Z" fill="white"/>
<path d="M167.266 143.698L164.725 138.01C165.287 137.614 165.741 137.101 166.052 136.513C166.362 135.924 166.52 135.276 166.513 134.62C166.513 132.352 164.692 130.524 162.443 130.524C160.193 130.524 158.378 132.357 158.378 134.62C158.369 135.276 158.526 135.924 158.836 136.512C159.145 137.101 159.599 137.614 160.16 138.01L157.625 143.698H167.266Z" fill="#263238" stroke="#263238" stroke-linecap="round" stroke-linejoin="round"/>
<path d="M151.844 180.193C151.897 180.229 151.96 180.249 152.026 180.25C152.072 180.249 152.118 180.239 152.16 180.218C152.201 180.198 152.236 180.168 152.262 180.132L191.521 130.422V129.48L151.8 179.804C151.776 179.832 151.757 179.865 151.746 179.9C151.735 179.934 151.731 179.971 151.736 180.007C151.74 180.043 151.751 180.078 151.77 180.11C151.789 180.142 151.814 180.17 151.844 180.193Z" fill="white"/>
<path d="M183.623 83.1948C183.6 83.2243 183.583 83.2578 183.573 83.2934C183.564 83.329 183.562 83.366 183.569 83.4022C183.575 83.4384 183.589 83.4732 183.609 83.5044C183.63 83.5355 183.657 83.5626 183.689 83.5839C183.754 83.6266 183.833 83.6441 183.912 83.6326C183.99 83.6211 184.06 83.5816 184.107 83.5225L191.521 74.1375V73.2159L183.623 83.1948Z" fill="white"/>
<path d="M133.034 148.204L181.5 86.8506C181.547 86.7909 181.566 86.7163 181.554 86.6433C181.541 86.5703 181.498 86.5049 181.434 86.4615C181.37 86.418 181.29 86.4001 181.212 86.4116C181.133 86.4231 181.063 86.4632 181.016 86.5229L133.056 147.261L133.034 148.204Z" fill="white"/>
<path d="M147.29 186.245C147.337 186.244 147.383 186.234 147.425 186.214C147.466 186.195 147.503 186.167 147.532 186.132L150.282 182.671C150.305 182.642 150.322 182.608 150.331 182.573C150.341 182.537 150.342 182.5 150.336 182.464C150.33 182.428 150.316 182.393 150.296 182.362C150.275 182.331 150.248 182.304 150.216 182.282C150.151 182.24 150.072 182.222 149.993 182.234C149.915 182.245 149.845 182.285 149.798 182.344L147.048 185.8C147.024 185.829 147.007 185.862 146.997 185.897C146.987 185.933 146.985 185.97 146.991 186.006C146.996 186.042 147.01 186.077 147.03 186.108C147.05 186.14 147.077 186.167 147.108 186.189C147.16 186.227 147.224 186.247 147.29 186.245Z" fill="white"/>
<path d="M191.521 140.375L159.291 181.187C159.258 181.228 159.239 181.277 159.234 181.328C159.23 181.379 159.241 181.431 159.266 181.476C159.291 181.522 159.329 181.56 159.377 181.587C159.424 181.613 159.478 181.627 159.533 181.627C159.58 181.628 159.627 181.618 159.669 181.598C159.711 181.579 159.748 181.55 159.775 181.514L191.521 141.312V140.375Z" fill="white"/>
<path d="M78.3253 83.0157C78.8707 81.8908 79.134 80.6652 79.0953 79.4317C79.0953 77.143 76.1198 75.8169 72.6218 75.4534C69.1238 75.0899 67.5728 76.416 68.0898 77.2608C68.6271 77.9575 69.2829 78.568 70.0313 79.0681C70.0313 79.0681 66.5333 77.2608 64.2013 78.7097C61.8693 80.1587 65.2408 79.5545 64.5918 80.9984C63.9428 82.4422 60.3183 81.8432 59.4108 85.6985C58.5033 89.5539 61.0938 93.4144 58.7618 95.104C56.4298 96.7936 49.4118 94.4998 47.3658 98.7187C45.3198 102.938 48.2238 104.811 43.3068 107.464C38.3898 110.116 34.8038 112.707 36.2283 119.214C37.6528 125.722 42.3168 128 51.5128 125.701C60.7088 123.402 60.0598 118.226 63.0628 112.901C66.0658 107.576 70.7078 108.682 72.1323 105.667C73.5568 102.651 71.7418 99.0361 71.8738 96.2611C72.0058 93.4861 74.9813 92.887 76.1473 89.6051C77.3133 86.3232 78.3253 83.0157 78.3253 83.0157Z" fill="#263238" stroke="#263238" stroke-linecap="round" stroke-linejoin="round"/>
<path d="M37.3006 119.091C37.0594 119.545 36.9369 120.045 36.9431 120.55" stroke="white" stroke-width="0.5" stroke-linecap="round" stroke-linejoin="round"/>
<path d="M73.3535 80.6246C73.3535 80.6246 71.7365 78.8838 74.8495 79.6928C78.771 80.7168 74.1675 84.9408 72.3965 85.7907C68.8435 87.4854 64.1465 86.9427 61.3965 90.025C58.8995 92.8102 62.271 95.7133 60.775 97.92C59.279 100.127 53.2895 98.8467 51.2985 101.504C49.3075 104.161 54.912 109.865 49.1755 112.998C45.0285 115.267 40.4855 116.137 38.291 117.934" stroke="white" stroke-width="0.5" stroke-linecap="round" stroke-linejoin="round"/>
<path d="M64.053 90.926C63.7131 91.6664 63.6099 92.4825 63.756 93.2761C64.251 95.2473 67.122 98.9644 64.504 101.053C61.886 103.142 57.3925 103.025 56.65 105.472C55.9075 107.919 57.398 114.642 54.9065 117.76C52.415 120.878 47.5475 120.663 44.9295 122.752C42.3115 124.841 42.6855 126.003 42.6855 126.003" stroke="white" stroke-width="0.5" stroke-linecap="round" stroke-linejoin="round"/>
<path d="M65.3726 88.6323C65.1459 88.9306 64.9366 89.2399 64.7456 89.559" stroke="white" stroke-width="0.5" stroke-linecap="round" stroke-linejoin="round"/>
<path d="M80.0027 118.907L80.6352 123.515C80.6352 123.515 83.9352 126.587 86.3607 128.486C88.7862 130.386 95.0012 134.405 95.0012 134.405L91.8497 135.24C91.8497 135.24 81.5482 129.556 79.5132 129.096C77.4782 128.635 75.9547 125.901 75.3222 125.071C74.6897 124.242 78.3472 118.077 80.0027 118.907Z" fill="white" stroke="#263238" stroke-linecap="round" stroke-linejoin="round"/>
<path d="M86.2948 193.879C86.2948 193.879 89.4078 196.326 90.6948 197.146C91.9818 197.965 93.4833 198.333 93.2468 198.779C93.0103 199.224 92.3668 199.67 89.3363 199.291C86.3058 198.912 85.4313 197.955 84.8703 197.806C84.3093 197.658 82.9563 198.031 81.9223 197.437C80.8883 196.843 82.5273 193.306 82.5273 193.306C82.9814 193.8 83.6089 194.129 84.2984 194.233C84.988 194.338 85.6951 194.213 86.2948 193.879Z" fill="white" stroke="#263238" stroke-linecap="round" stroke-linejoin="round"/>
<path d="M93.2358 198.779C93.2382 198.755 93.2382 198.731 93.2358 198.707C91.4861 198.857 89.7218 198.702 88.0328 198.251C86.0748 197.821 85.4973 196.854 83.6328 196.854C82.9011 196.86 82.1737 196.749 81.4823 196.526C81.4622 196.697 81.4874 196.87 81.5554 197.029C81.6235 197.189 81.7324 197.331 81.8728 197.442C82.9068 198.036 84.2653 197.663 84.8208 197.811C85.3763 197.96 86.2563 198.927 89.2868 199.296C92.3173 199.665 92.9938 199.224 93.2358 198.779Z" fill="white" stroke="#263238" stroke-linecap="round" stroke-linejoin="round"/>
<path d="M69.9982 94.9248C69.9982 94.9248 70.5977 98.6829 69.8277 100.198C69.0577 101.714 66.6487 101.878 64.5917 102.2C62.5347 102.523 57.8102 104.197 58.3217 108.513C58.8332 112.829 64.7622 122.179 64.7622 124.815C64.7622 127.452 62.9582 128.809 60.9837 133.924C59.0092 139.039 59.2677 148.552 59.8837 154.706C60.3352 158.768 61.197 162.781 62.4577 166.692C62.4577 166.692 57.5077 174.126 55.3077 177.321C53.1077 180.516 45.4077 194.427 45.4077 194.427C45.4077 194.427 45.4077 194.903 46.6067 195.226C47.4503 195.417 48.323 195.47 49.1862 195.384C49.1862 195.384 63.9482 178.842 66.6982 176.046C69.4482 173.251 72.0222 168.366 72.3632 166.134C72.7042 163.901 72.2807 150.231 72.2807 150.231C72.2807 150.231 75.3662 157.102 77.7807 160.62C79.2452 162.772 80.589 164.994 81.8067 167.276C81.4686 170.168 81.4686 173.087 81.8067 175.98C82.4062 179.973 81.9002 192.804 82.4997 193.843C83.0992 194.883 85.4257 194.447 85.9427 193.971C86.4597 193.495 86.7017 190.387 86.7017 190.387C86.7017 190.387 87.7302 180.659 88.3517 176.082C88.9732 171.505 90.0017 167.608 89.6442 166.569C89.2867 165.53 87.1527 154.419 85.5192 149.161C83.8857 143.903 78.9192 134.057 77.8192 131.502C76.7192 128.947 76.0977 126.623 76.2737 125.824C76.4497 125.025 79.7937 120.233 80.6737 118.953C81.1754 118.085 81.4521 117.12 81.4817 116.135C81.5113 115.15 81.293 114.172 80.8442 113.28C79.8157 111.201 80.8442 108.401 80.6737 106.726C80.5032 105.052 77.8412 104.325 76.4662 103.69C75.0912 103.055 74.5742 101.612 74.5742 100.413C74.6582 99.4042 74.9202 98.4147 75.3497 97.4848C75.3497 97.4848 71.1147 94.9248 69.9982 94.9248Z" fill="white" stroke="#263238" stroke-linecap="round" stroke-linejoin="round"/>
<path d="M80.4044 112.02C79.9521 110.951 79.5754 109.854 79.2769 108.739" stroke="#263238" stroke-linecap="round" stroke-linejoin="round"/>
<path d="M69.2559 120.919C69.2559 120.919 70.8069 121.236 73.9144 119.793" stroke="#263238" stroke-linecap="round" stroke-linejoin="round"/>
<path d="M85.5357 149.11C83.9792 144.072 79.3647 134.871 77.9842 131.835C71.3842 134.139 65.2132 132.173 62.3147 130.903C61.8967 131.753 61.4457 132.736 60.9837 133.924C59.0092 139.044 59.2677 148.552 59.8837 154.706C60.3352 158.768 61.197 162.781 62.4577 166.692C62.4577 166.692 57.5077 174.126 55.3077 177.321C53.1077 180.516 45.4077 194.427 45.4077 194.427C45.4077 194.427 45.4077 194.903 46.6067 195.226C47.4503 195.417 48.323 195.47 49.1862 195.384C49.1862 195.384 63.9482 178.842 66.6982 176.046C69.4482 173.25 72.0222 168.366 72.3632 166.134C72.7042 163.901 72.2807 150.231 72.2807 150.231C72.2807 150.231 75.3662 157.102 77.7807 160.619C79.2452 162.772 80.589 164.994 81.8067 167.275C81.4686 170.168 81.4686 173.087 81.8067 175.979C82.4062 179.973 81.9002 192.804 82.4997 193.843C83.0992 194.882 85.4257 194.447 85.9427 193.971C86.4597 193.495 86.7017 190.387 86.7017 190.387C86.7017 190.387 87.7302 180.659 88.3517 176.082C88.9732 171.505 90.0017 167.608 89.6442 166.569C89.2867 165.53 87.1692 154.383 85.5357 149.11Z" fill="#263238" stroke="#263238" stroke-linecap="round" stroke-linejoin="round"/>
<path d="M119.163 144.036V142.991H120.103V134.789H119.163H109.879H108.938V142.991H109.879V144.036H108.933V145.94H112.557V145.3H116.484V145.94H120.109V144.036H119.163Z" fill="#1BB284" stroke="#263238" stroke-linecap="round" stroke-linejoin="round"/>
<path d="M59.1577 132.337H123.926C124.185 132.337 124.434 132.433 124.618 132.604C124.802 132.775 124.905 133.006 124.905 133.248V135.081C124.905 135.323 124.802 135.555 124.618 135.725C124.434 135.896 124.185 135.992 123.926 135.992H59.1577V132.332V132.337Z" fill="#1BB284" stroke="#263238" stroke-linecap="round" stroke-linejoin="round"/>
<path d="M105.644 131.789H101.7C101.4 131.789 101.156 132.016 101.156 132.296V136.038C101.156 136.318 101.4 136.545 101.7 136.545H105.644C105.944 136.545 106.188 136.318 106.188 136.038V132.296C106.188 132.016 105.944 131.789 105.644 131.789Z" fill="#1BB284" stroke="#263238" stroke-linecap="round" stroke-linejoin="round"/>
<path d="M61.1841 135.707C62.0966 130.519 58.3189 125.625 52.7463 124.775C47.1737 123.926 41.9164 127.443 41.0039 132.63C40.0913 137.818 43.8691 142.712 49.4417 143.561C55.0143 144.411 60.2715 140.894 61.1841 135.707Z" fill="#1BB284" stroke="#263238" stroke-linecap="round" stroke-linejoin="round"/>
<path d="M53.1959 134.144C53.7886 133.88 54.2916 133.468 54.6497 132.955C55.0077 132.442 55.2069 131.847 55.2254 131.236C55.2254 129.367 53.3774 127.851 51.0949 127.851C48.8124 127.851 46.9644 129.387 46.9644 131.236C46.9816 131.848 47.1803 132.443 47.5384 132.956C47.8966 133.47 48.4003 133.881 48.9939 134.144C48.4007 134.409 47.8974 134.821 47.5394 135.335C47.1814 135.849 46.9824 136.445 46.9644 137.057C46.9644 138.926 48.8124 140.442 51.0949 140.442C53.3774 140.442 55.2254 138.906 55.2254 137.057C55.2061 136.445 55.0066 135.85 54.6487 135.336C54.2908 134.822 53.7883 134.41 53.1959 134.144Z" fill="white" stroke="#263238" stroke-linecap="round" stroke-linejoin="round"/>
<path d="M92.9829 136.074C92.9829 136.074 96.1839 137.334 97.1739 137.334C98.1639 137.334 99.3079 136.407 99.8744 135.286C100.441 134.164 100.424 133.632 100.089 133.898L99.3794 134.41C99.3794 134.41 99.9294 133.289 99.3079 133.422C98.8775 133.555 98.5203 133.84 98.3124 134.216C98.3124 134.216 98.2409 133.222 97.6744 133.704C97.2995 134.02 96.9654 134.375 96.6789 134.763C96.6789 134.763 96.6074 133.509 96.2499 133.837C95.8924 134.164 94.5504 135.951 94.5504 135.951L92.9829 136.074Z" fill="white" stroke="#263238" stroke-linecap="round" stroke-linejoin="round"/>
<path d="M96.6788 134.753C96.6788 134.753 96.4643 136.34 95.4028 136.607L96.6788 134.753Z" fill="white"/>
<path d="M96.6788 134.753C96.6788 134.753 96.4643 136.34 95.4028 136.607" stroke="#263238" stroke-linecap="round" stroke-linejoin="round"/>
<path d="M98.3126 134.226C98.3126 134.226 97.7626 136.735 96.8936 137.134L98.3126 134.226Z" fill="white"/>
<path d="M98.3126 134.226C98.3126 134.226 97.7626 136.735 96.8936 137.134" stroke="#263238" stroke-linecap="round" stroke-linejoin="round"/>
<path d="M99.3792 134.42C99.0956 135.336 98.7142 136.223 98.2407 137.067L99.3792 134.42Z" fill="white"/>
<path d="M99.3792 134.42C99.0956 135.336 98.7142 136.223 98.2407 137.067" stroke="#263238" stroke-linecap="round" stroke-linejoin="round"/>
<path d="M76.2626 103.537C75.7086 103.188 75.26 102.714 74.9595 102.158C74.6591 101.602 74.5169 100.984 74.5466 100.362C74.6452 99.369 74.9164 98.3972 75.3496 97.4848C75.3496 97.4848 71.1421 94.9248 70.0256 94.9248C70.0256 94.9248 70.6251 98.6829 69.8551 100.198C69.6027 100.67 69.1912 101.051 68.6836 101.284C69.7004 103.832 71.0785 106.243 72.7811 108.452C74.3266 110.259 75.0801 106.45 76.2626 103.537Z" fill="white" stroke="#263238" stroke-linecap="round" stroke-linejoin="round"/>
<path d="M63.2774 102.717C62.2279 102.884 61.2344 103.276 60.3753 103.861C59.5163 104.447 58.8152 105.21 58.3274 106.091C56.6334 109.133 49.2304 122.936 49.8629 123.761C53.4599 128.471 66.5444 131.86 67.8754 133.099C69.206 134.395 70.6665 135.57 72.2369 136.607C73.5679 137.395 76.2244 137.057 76.7084 136.832C77.1924 136.607 77.5554 135.593 76.7084 135.593C76.3848 135.597 76.0696 135.497 75.8153 135.311C75.561 135.125 75.3832 134.863 75.3114 134.569C75.1904 134.118 76.6424 135.019 77.3684 134.682C78.0944 134.344 75.7459 133.11 75.0199 132.547C74.2939 131.983 73.6889 131.2 72.7209 131.2C71.7529 131.2 69.9324 131.2 69.9324 131.2C69.9324 131.2 65.4774 128.195 62.7824 125.957C60.6854 124.196 58.398 122.641 55.9569 121.318L64.1244 108.81" fill="white"/>
<path d="M63.2774 102.717C62.2279 102.884 61.2344 103.276 60.3753 103.861C59.5163 104.447 58.8152 105.21 58.3274 106.091C56.6334 109.133 49.2304 122.936 49.8629 123.761C53.4599 128.471 66.5444 131.86 67.8754 133.099C69.206 134.395 70.6665 135.57 72.2369 136.607C73.5679 137.395 76.2244 137.057 76.7084 136.832C77.1924 136.607 77.5554 135.593 76.7084 135.593C76.3848 135.597 76.0696 135.497 75.8153 135.311C75.561 135.125 75.3832 134.863 75.3114 134.569C75.1904 134.118 76.6424 135.019 77.3684 134.682C78.0944 134.344 75.7459 133.11 75.0199 132.547C74.2939 131.983 73.6889 131.2 72.7209 131.2C71.7529 131.2 69.9324 131.2 69.9324 131.2C69.9324 131.2 65.4774 128.195 62.7824 125.957C60.6854 124.196 58.398 122.641 55.9569 121.318L64.1244 108.81" stroke="#263238" stroke-linecap="round" stroke-linejoin="round"/>
<path d="M75.0144 132.552C74.2884 131.988 73.6834 131.205 72.7154 131.205C71.7474 131.205 69.9269 131.205 69.9269 131.205C69.9269 131.205 65.4719 128.2 62.7769 125.962C60.6799 124.201 58.3925 122.646 55.9514 121.323L59.2184 116.316C57.5482 115.375 55.6376 114.868 53.6854 114.847C51.4854 119.117 49.5109 123.336 49.8354 123.781C53.4324 128.491 66.5169 131.881 67.8479 133.12C69.1785 134.416 70.639 135.59 72.2094 136.627C73.5404 137.416 76.1969 137.078 76.6809 136.852C77.1649 136.627 77.5279 135.613 76.6809 135.613C76.3573 135.617 76.0421 135.518 75.7878 135.331C75.5335 135.145 75.3557 134.883 75.2839 134.589C75.1629 134.139 76.6149 135.04 77.3409 134.702C78.0669 134.364 75.7404 133.12 75.0144 132.552Z" fill="white" stroke="#263238" stroke-linecap="round" stroke-linejoin="round"/>
<path d="M79.4417 89.4105C79.0127 88.6118 79.0127 87.9718 79.1832 86.8505C79.3537 85.7292 78.3252 83.0105 78.3252 83.0105C77.2747 84.7001 74.2387 85.7036 72.8967 86.0825C71.4172 86.5023 73.5787 87.4547 73.3477 88.7295C73.1167 90.0044 70.1632 90.7417 70.1632 90.7417C70.1632 90.7417 69.2997 89.0879 68.1007 89.0879C66.9017 89.0879 66.0492 91.6479 66.7312 93.0047C66.9089 93.3806 67.2184 93.6892 67.6091 93.8798C67.9998 94.0705 68.4485 94.1321 68.8817 94.0543C68.8817 94.0543 68.7992 96.4556 70.4272 97.1724C72.1643 97.944 73.9765 98.5595 75.8392 99.0105C76.8677 99.1692 77.8962 98.6931 78.3252 97.2543C78.6607 95.8044 78.8904 94.335 79.0127 92.8563C79.7329 92.4176 80.3955 91.9021 80.9872 91.3203C81.3997 90.7673 79.8707 90.2092 79.4417 89.4105Z" fill="white" stroke="#263238" stroke-linecap="round" stroke-linejoin="round"/>
<path d="M77.7699 89.4463C77.7699 89.8866 77.6159 90.2399 77.4289 90.2399C77.2419 90.2399 77.0879 89.8866 77.0879 89.4463C77.0879 89.006 77.2419 88.6527 77.4289 88.6527C77.6159 88.6527 77.7699 89.006 77.7699 89.4463Z" fill="#263238"/>
<path d="M76.2905 88.1254C76.2905 88.1254 77.2035 87.168 77.8855 87.383" stroke="#263238" stroke-linecap="round" stroke-linejoin="round"/>
<path d="M77.8852 94.6892C77.473 94.805 77.0355 94.8186 76.6159 94.7288C76.1964 94.639 75.8092 94.4489 75.4927 94.1772" stroke="#263238" stroke-linecap="round" stroke-linejoin="round"/>
<path d="M45.4463 194.427C45.4463 194.427 43.3948 198.257 43.4718 198.779C43.5488 199.301 47.6188 202.045 49.5218 203.008C51.4248 203.971 54.8678 204.124 54.6258 202.788C54.3838 201.452 51.1168 200.561 50.3193 198.554C49.8946 197.515 49.5275 196.458 49.2193 195.384C47.8899 195.403 46.5819 195.071 45.4463 194.427Z" fill="white" stroke="#263238" stroke-linecap="round" stroke-linejoin="round"/>
<path d="M54.6368 202.808C53.1725 202.991 51.6824 202.794 50.3303 202.24C47.3768 201.047 44.5168 198.61 43.7303 197.919C43.5906 198.195 43.5014 198.491 43.4663 198.794C43.5488 199.306 47.6133 202.061 49.5163 203.023C51.4193 203.986 54.8348 204.119 54.6368 202.808Z" fill="white" stroke="#263238" stroke-linecap="round" stroke-linejoin="round"/>
</svg>
