<svg width="140" height="140" viewBox="0 0 140 140" fill="none" xmlns="http://www.w3.org/2000/svg">
<path d="M140 107.072H0V107.142H140V107.072Z" fill="#EBEBEB"/>
<path d="M108.766 109.175H99.4922V109.245H108.766V109.175Z" fill="#EBEBEB"/>
<path d="M84.5598 111.543H72.2314V111.613H84.5598V111.543Z" fill="#EBEBEB"/>
<path d="M121.587 111.773H109.049V111.843H121.587V111.773Z" fill="#EBEBEB"/>
<path d="M27.1264 109.104H15.0332V109.174H27.1264V109.104Z" fill="#EBEBEB"/>
<path d="M31.3935 109.104H29.6211V109.174H31.3935V109.104Z" fill="#EBEBEB"/>
<path d="M63.3867 110.286H37.1562V110.356H63.3867V110.286Z" fill="#EBEBEB"/>
<path d="M66.3604 94.5839H12.2952C11.8717 94.5832 11.4657 94.4144 11.1665 94.1146C10.8673 93.8149 10.6992 93.4086 10.6992 92.9851V16.9847C10.7029 16.5636 10.8726 16.1609 11.1714 15.8642C11.4703 15.5675 11.8741 15.4006 12.2952 15.3999H66.3604C66.7845 15.3999 67.1911 15.5683 67.4909 15.8682C67.7908 16.168 67.9592 16.5747 67.9592 16.9987V92.9851C67.9592 93.4091 67.7908 93.8158 67.4909 94.1156C67.1911 94.4155 66.7845 94.5839 66.3604 94.5839ZM12.2952 15.4559C11.8902 15.4566 11.5021 15.618 11.216 15.9047C10.9299 16.1913 10.7692 16.5797 10.7692 16.9847V92.9851C10.7692 93.3901 10.9299 93.7785 11.216 94.0651C11.5021 94.3518 11.8902 94.5132 12.2952 94.5139H66.3604C66.7657 94.5132 67.1541 94.3519 67.4406 94.0653C67.7272 93.7788 67.8885 93.3903 67.8892 92.9851V16.9847C67.8885 16.5795 67.7272 16.191 67.4406 15.9045C67.1541 15.6179 66.7657 15.4566 66.3604 15.4559H12.2952Z" fill="#EBEBEB"/>
<path d="M126.927 94.5839H72.8586C72.4348 94.5832 72.0285 94.4145 71.7289 94.1148C71.4292 93.8151 71.2605 93.4089 71.2598 92.9851V16.9847C71.2642 16.5633 71.4345 16.1607 71.7338 15.864C72.033 15.5674 72.4372 15.4006 72.8586 15.3999H126.927C127.347 15.4014 127.75 15.5685 128.049 15.8652C128.347 16.1618 128.516 16.5641 128.52 16.9847V92.9851C128.52 93.4082 128.352 93.814 128.053 94.1136C127.755 94.4133 127.35 94.5824 126.927 94.5839ZM72.8586 15.4559C72.4533 15.4566 72.0649 15.6179 71.7784 15.9045C71.4918 16.191 71.3305 16.5795 71.3298 16.9847V92.9851C71.3305 93.3903 71.4918 93.7788 71.7784 94.0653C72.0649 94.3519 72.4533 94.5132 72.8586 94.5139H126.927C127.332 94.5132 127.72 94.3519 128.007 94.0653C128.293 93.7788 128.455 93.3903 128.455 92.9851V16.9847C128.455 16.5795 128.293 16.191 128.007 15.9045C127.72 15.6179 127.332 15.4566 126.927 15.4559H72.8586Z" fill="#EBEBEB"/>
<path d="M95.6818 70.2744H121.851V22.162H95.6818V70.2744Z" fill="#E6E6E6"/>
<path d="M92.6971 70.2744H121.137V22.162H92.6971V70.2744Z" fill="#F0F0F0"/>
<path d="M118.757 67.8888V24.542H95.0828V67.8888H118.757Z" fill="white"/>
<path d="M35.6412 24.1079H15.0332V48.0591H35.6412V24.1079Z" fill="#E0E0E0"/>
<path d="M36.8733 24.1079H15.7305V48.0591H36.8733V24.1079Z" fill="#F5F5F5"/>
<path d="M35.1006 46.1719V25.9951H17.4998V46.1719H35.1006Z" fill="white"/>
<path d="M64.5484 38.0884H43.9404V62.0396H64.5484V38.0884Z" fill="#E0E0E0"/>
<path d="M65.7805 38.0884H44.6377V62.0396H65.7805V38.0884Z" fill="#F5F5F5"/>
<path d="M64.0078 60.1553V39.9785H46.407V60.1553H64.0078Z" fill="white"/>
<path d="M52.7664 81.9868C52.6264 81.9868 52.4864 81.9868 52.3408 82.0008C51.4474 82.0648 50.5792 82.3254 49.7983 82.764C49.0174 83.2026 48.3431 83.8083 47.8235 84.5379C47.304 85.2674 46.9521 86.1028 46.793 86.9842C46.6339 87.8656 46.6715 88.7713 46.9032 89.6364C47.5667 92.2188 47.8868 94.8775 47.8552 97.5436V105.311C47.8552 105.445 47.8816 105.578 47.933 105.701C47.9844 105.825 48.0597 105.938 48.1547 106.032C48.2496 106.127 48.3623 106.202 48.4863 106.253C48.6102 106.304 48.7431 106.33 48.8772 106.33H73.5172V81.9868H52.7664Z" fill="#F0F0F0"/>
<path d="M79.5956 88.0597C79.5605 86.5084 78.9326 85.0295 77.8409 83.9267C76.7493 82.824 75.2768 82.1811 73.7259 82.1302C72.175 82.0793 70.6636 82.6243 69.502 83.6531C68.3404 84.6819 67.6169 86.1165 67.48 87.6621C67.438 88.3273 67.5042 88.995 67.676 89.639C68.3382 92.2216 68.6583 94.8801 68.628 97.5462V105.313C68.628 105.584 68.7354 105.843 68.9266 106.034C69.1177 106.225 69.3769 106.333 69.6472 106.333H77.4312C77.7016 106.333 77.9608 106.225 78.1519 106.034C78.3431 105.843 78.4504 105.584 78.4504 105.313V97.0926C78.4275 94.5908 78.744 92.0976 79.3912 89.681C79.5321 89.1522 79.6008 88.6069 79.5956 88.0597Z" fill="#F5F5F5"/>
<path d="M65.1588 91.5513H43.0332V106.332H65.1588V91.5513Z" fill="#F0F0F0"/>
<path d="M45.8357 70.6157H25.4125C22.8729 70.6157 21.1481 72.6737 21.5597 75.2105L24.7461 94.8917H54.3617L51.1753 75.2105C50.7637 72.6737 48.3725 70.6157 45.8357 70.6157Z" fill="#EBEBEB"/>
<path d="M51.8416 70.6157H30.976C28.5596 70.6157 26.9188 72.5757 27.3108 74.9893L30.5336 94.8917H60.1464L56.9236 74.9893C56.5316 72.5757 54.258 70.6157 51.8416 70.6157Z" fill="#F5F5F5"/>
<path d="M44.4806 90.2021H64.8758C65.2293 90.2021 65.5683 90.3426 65.8182 90.5925C66.0682 90.8425 66.2086 91.1815 66.2086 91.535V94.895C66.2086 95.2484 66.0682 95.5874 65.8182 95.8374C65.5683 96.0873 65.2293 96.2278 64.8758 96.2278H44.4806C44.3752 96.2278 44.274 96.1859 44.1995 96.1113C44.1249 96.0367 44.083 95.9356 44.083 95.8302V90.5998C44.083 90.4943 44.1249 90.3932 44.1995 90.3186C44.274 90.244 44.3752 90.2021 44.4806 90.2021Z" fill="#EBEBEB"/>
<path d="M22.5653 81.9868C22.4253 81.9868 22.2853 81.9868 22.1397 82.0008C20.6788 82.1112 19.3066 82.7443 18.2745 83.7841C17.2425 84.8239 16.6196 86.2008 16.5201 87.6624C16.478 88.3276 16.5442 88.9952 16.7161 89.6392C17.3796 92.2217 17.6997 94.8803 17.6681 97.5464V105.314C17.6681 105.584 17.7755 105.843 17.9666 106.034C18.1577 106.225 18.417 106.333 18.6873 106.333H43.3273V81.9868H22.5653Z" fill="#F0F0F0"/>
<path d="M49.3947 88.0597C49.3937 87.1959 49.2084 86.3422 48.8511 85.5557C48.4938 84.7692 47.9727 84.068 47.3227 83.499C46.6727 82.93 45.9088 82.5062 45.0819 82.2561C44.2551 82.006 43.3843 81.9352 42.5279 82.0486C41.6715 82.1619 40.8492 82.4567 40.1158 82.9133C39.3825 83.3699 38.7551 83.9777 38.2754 84.6962C37.7958 85.4147 37.4751 86.2273 37.3347 87.0797C37.1942 87.932 37.2373 88.8046 37.4611 89.6389C38.1232 92.2216 38.4433 94.8801 38.4131 97.5461V105.313C38.4131 105.584 38.5205 105.843 38.7116 106.034C38.9028 106.225 39.162 106.333 39.4323 106.333H47.2163C47.4866 106.333 47.7458 106.225 47.937 106.034C48.1281 105.843 48.2355 105.584 48.2355 105.313V97.0925C48.2131 94.591 48.5286 92.098 49.1735 89.6809C49.3214 89.1533 49.3958 88.6077 49.3947 88.0597Z" fill="#F5F5F5"/>
<path d="M73.0798 107.072H22.999C22.8029 107.072 22.6149 106.994 22.4763 106.855C22.3376 106.717 22.2598 106.529 22.2598 106.333H73.8302C73.8302 106.431 73.8107 106.528 73.7728 106.618C73.735 106.708 73.6795 106.79 73.6097 106.859C73.5399 106.928 73.4571 106.982 73.3661 107.019C73.2751 107.055 73.1778 107.073 73.0798 107.072Z" fill="#E0E0E0"/>
<path d="M127.047 95.6787H114.996V96.6671H127.047V95.6787Z" fill="#E6E6E6"/>
<path d="M92.2652 107.072H94.4912V84.3162H92.2652V107.072Z" fill="#E6E6E6"/>
<path d="M84.5601 96.6699H114.996V95.6815H84.5601V96.6699Z" fill="#F5F5F5"/>
<path d="M127.047 101.091H114.996V102.08H127.047V101.091Z" fill="#E6E6E6"/>
<path d="M84.5601 102.08H114.996V101.091H84.5601V102.08Z" fill="#F5F5F5"/>
<path d="M127.047 84.8569H114.996V85.8453H127.047V84.8569Z" fill="#E6E6E6"/>
<path d="M84.5601 85.8477H114.996V84.8593H84.5601V85.8477Z" fill="#F5F5F5"/>
<path d="M127.047 90.269H114.996V91.2574H127.047V90.269Z" fill="#E6E6E6"/>
<path d="M84.5601 91.2573H114.996V90.2689H84.5601V91.2573Z" fill="#F5F5F5"/>
<path d="M122.702 107.072H124.928V84.3162H122.702V107.072Z" fill="#E6E6E6"/>
<path d="M112.77 107.072H114.996V84.3162H112.77V107.072Z" fill="#F5F5F5"/>
<path d="M84.5601 107.072H86.7861V84.3162H84.5601V107.072Z" fill="#F5F5F5"/>
<path d="M106.451 84.0503H107.641V70.7811H106.451V84.0503Z" fill="#E6E6E6"/>
<path d="M106.604 84.0391H106.94V70.7699H106.604V84.0391Z" fill="#F0F0F0"/>
<path d="M102.636 84.8568H111.44C111.44 84.5598 111.322 84.2749 111.111 84.0649C110.901 83.8548 110.617 83.7368 110.32 83.7368H103.748C103.451 83.7368 103.166 83.8548 102.956 84.0649C102.746 84.2749 102.628 84.5598 102.628 84.8568H102.636Z" fill="#F0F0F0"/>
<path d="M105.058 84.5293H105.504C105.57 84.5293 105.624 84.4754 105.624 84.4089V83.4821C105.624 83.4156 105.57 83.3617 105.504 83.3617H105.058C104.992 83.3617 104.938 83.4156 104.938 83.4821V84.4089C104.938 84.4754 104.992 84.5293 105.058 84.5293Z" fill="#F0F0F0"/>
<path d="M101.716 73.92H112.375L111.356 65.4192C111.299 64.9391 111.069 64.4964 110.707 64.1749C110.346 63.8535 109.88 63.6756 109.396 63.6748H104.701C104.217 63.6768 103.752 63.8551 103.391 64.1763C103.03 64.4976 102.799 64.9395 102.741 65.4192L101.716 73.92Z" fill="#F5F5F5"/>
<path d="M70.0001 119.717C99.9832 119.717 124.289 118.298 124.289 116.547C124.289 114.797 99.9832 113.377 70.0001 113.377C40.017 113.377 15.7109 114.797 15.7109 116.547C15.7109 118.298 40.017 119.717 70.0001 119.717Z" fill="#F5F5F5"/>
<path d="M82.7986 45.4637L82.7006 45.7941L82.611 46.0741C82.5494 46.2617 82.4822 46.4353 82.415 46.6145C82.2806 46.9645 82.135 47.3061 81.9754 47.6449C81.6648 48.3186 81.3141 48.9731 80.9254 49.6049C80.7322 49.9213 80.5278 50.2265 80.3206 50.5317C80.1134 50.8369 79.8922 51.1309 79.6598 51.4193C79.2041 52.0024 78.7152 52.5586 78.1954 53.0853L78.0862 53.1973C77.9356 53.3519 77.7569 53.4763 77.5598 53.5641C76.9765 53.8193 76.3423 53.9372 75.7062 53.9085C75.1523 53.8786 74.6082 53.7506 74.099 53.5305C73.6723 53.3502 73.269 53.1189 72.8978 52.8417C72.5647 52.5985 72.2494 52.3318 71.9542 52.0437C71.4178 51.5069 70.934 50.9199 70.5094 50.2909C70.3022 49.9885 70.1118 49.6777 69.9298 49.3641C69.7478 49.0505 69.591 48.7369 69.4202 48.3757C69.3088 48.1404 69.2829 47.8735 69.3469 47.6211C69.4109 47.3687 69.5609 47.1465 69.771 46.9927C69.9812 46.8389 70.2383 46.7632 70.4983 46.7785C70.7582 46.7937 71.0047 46.8992 71.1954 47.0765L71.2682 47.1437L71.9514 47.7709C72.1838 47.9837 72.4218 48.1881 72.6598 48.3841C73.1105 48.7665 73.5877 49.1164 74.0878 49.4313C74.4789 49.6921 74.9131 49.8817 75.3702 49.9913C75.4865 50.0241 75.6095 50.0241 75.7258 49.9913C75.7642 49.9742 75.7958 49.9446 75.8154 49.9073L75.1714 50.3945C75.527 49.9129 75.8714 49.4257 76.1878 48.9217C76.5042 48.4177 76.8066 47.8969 77.0894 47.3733C77.3722 46.8497 77.6326 46.3093 77.8734 45.7689C77.9966 45.4889 78.1058 45.2257 78.2178 44.9569L78.4978 44.2233L78.5762 44.0217C78.7997 43.5053 79.2094 43.0919 79.7238 42.8637C80.2382 42.6356 80.8197 42.6094 81.3525 42.7904C81.8853 42.9715 82.3305 43.3464 82.5995 43.8407C82.8685 44.335 82.9416 44.9124 82.8042 45.4581L82.7986 45.4637Z" fill="#263238"/>
<path d="M70.2123 48.3895L68.3195 47.7315L67.9219 45.1387C67.9219 45.1387 71.0943 45.9787 71.0803 47.5075L70.2123 48.3895Z" fill="#CE7A63"/>
<path d="M81.3628 34.8824C80.128 34.4484 78.4228 32.97 79.092 31.0576C79.6016 29.6072 81.4888 29.4784 82.2308 29.9124C82.9728 30.3464 83.0036 29.456 83.9528 29.1144C84.902 28.7728 85.5712 29.6324 86.0528 30.0832C86.5344 30.534 87.0972 30.1924 87.8112 30.2232C88.5252 30.254 89.0348 31.1892 88.6372 31.8724C87.9372 33.0708 89.0936 33.8324 88.2172 34.7676C86.9264 36.1256 87.9372 37.4584 86.1172 38.8108C85.0112 39.6396 81.8696 38.1192 81.3628 34.8824Z" fill="#263238"/>
<path d="M81.3404 36.1483C81.2944 36.1757 81.2426 36.192 81.1892 36.1959C81.0965 36.2036 81.0044 36.1745 80.9331 36.1147C80.8618 36.0549 80.8169 35.9693 80.8084 35.8767C80.7468 35.321 80.8194 34.7586 81.0201 34.2368C81.2208 33.715 81.5438 33.249 81.962 32.8779C81.9982 32.849 82.0398 32.8277 82.0843 32.8152C82.1289 32.8027 82.1755 32.7992 82.2214 32.8049C82.2673 32.8107 82.3116 32.8255 82.3517 32.8486C82.3918 32.8717 82.4268 32.9026 82.4548 32.9395C82.4836 32.9755 82.505 33.0168 82.5177 33.0611C82.5305 33.1053 82.5344 33.1517 82.5292 33.1975C82.524 33.2433 82.5098 33.2876 82.4874 33.3279C82.465 33.3682 82.4349 33.4036 82.3988 33.4323C82.0717 33.7299 81.8204 34.1015 81.666 34.516C81.5116 34.9305 81.4585 35.3759 81.5112 35.8151C81.5169 35.881 81.5039 35.9473 81.4737 36.0062C81.4435 36.0651 81.3973 36.1143 81.3404 36.1483Z" fill="#263238"/>
<path d="M79.3267 42.6637C79.3267 42.6637 76.8431 49.0197 79.2007 60.8637H90.4595C90.5379 59.1361 89.4515 50.7053 91.1175 42.5629C89.8728 42.3236 88.6139 42.1646 87.3487 42.0869C85.755 41.9945 84.1572 41.9945 82.5635 42.0869C81.4711 42.1941 80.3888 42.3869 79.3267 42.6637Z" fill="white"/>
<path d="M86.876 36.6802C86.5736 38.2202 86.274 41.0426 87.3492 42.0702C87.3492 42.0702 85.546 43.5318 83.6504 45.0102C83.2316 44.6551 82.9115 44.1979 82.7211 43.6828C82.5308 43.1678 82.4767 42.6123 82.564 42.0702C84.2804 41.6614 84.244 40.3902 83.9388 39.189L86.876 36.6802Z" fill="#CE7A63"/>
<path opacity="0.2" d="M85.6802 37.7134L83.9414 39.1974C84.0156 39.4724 84.0653 39.7535 84.0898 40.0374C84.6498 40.5694 85.6466 39.2226 85.7166 38.5366C85.7535 38.2622 85.7412 37.9834 85.6802 37.7134Z" fill="black"/>
<path d="M86.856 34.09C86.9344 36.1788 87.0856 37.3968 86.1448 38.57C84.7252 40.3284 82.0708 39.6312 81.3708 37.6068C80.7408 35.7868 80.7184 32.6788 82.67 31.654C83.0982 31.4258 83.5775 31.3108 84.0626 31.3198C84.5477 31.3289 85.0224 31.4617 85.4417 31.7057C85.861 31.9498 86.2111 32.2969 86.4586 32.7142C86.7061 33.1314 86.8429 33.605 86.856 34.09Z" fill="#CE7A63"/>
<path d="M86.8002 36.022C86.2262 37.142 85.5654 33.6 85.7334 33.0092C83.7034 33.5692 80.5898 33.3844 80.8306 31.9676C81.1106 30.3688 82.9698 30.3072 85.0306 30.5032C88.4326 30.8308 87.4218 34.8068 86.8002 36.022Z" fill="#263238"/>
<path d="M85.7943 36.2208C85.7415 36.2239 85.6887 36.2143 85.6403 36.1928C85.5978 36.1743 85.5594 36.1475 85.5273 36.1141C85.4951 36.0807 85.4699 36.0413 85.453 35.9981C85.4361 35.955 85.4279 35.9089 85.4288 35.8626C85.4297 35.8162 85.4397 35.7705 85.4583 35.728C85.6701 35.2108 86.0029 34.752 86.4287 34.39C86.8545 34.028 87.361 33.7734 87.9055 33.6476C87.9965 33.6313 88.0902 33.6515 88.1662 33.704C88.2423 33.7564 88.2945 33.8368 88.3115 33.9276C88.3264 34.0184 88.3056 34.1114 88.2533 34.1871C88.2011 34.2628 88.1216 34.3153 88.0315 34.3336C87.6006 34.4402 87.2014 34.6483 86.8672 34.9405C86.5331 35.2328 86.2737 35.6007 86.1107 36.0136C86.084 36.0753 86.0397 36.1277 85.9835 36.1645C85.9273 36.2014 85.8615 36.2209 85.7943 36.2208Z" fill="#263238"/>
<path d="M87.8973 35.56C87.7868 36.0631 87.496 36.5083 87.0797 36.8116C86.5337 37.1924 86.1025 36.7248 86.1165 36.0668C86.1305 35.476 86.4329 34.5688 87.0433 34.4512C87.6537 34.3336 88.0345 34.9412 87.8973 35.56Z" fill="#CE7A63"/>
<path d="M78.0584 113.784C77.798 113.848 77.5376 113.873 77.4256 113.784C77.397 113.757 77.3773 113.722 77.3693 113.684C77.3612 113.646 77.3653 113.606 77.3808 113.571C77.3904 113.539 77.4065 113.509 77.4282 113.483C77.4499 113.458 77.4767 113.437 77.5068 113.422C77.8232 113.246 78.6268 113.476 78.6632 113.487C78.6736 113.489 78.6827 113.495 78.6893 113.504C78.6958 113.512 78.6994 113.522 78.6994 113.533C78.6994 113.544 78.6958 113.554 78.6893 113.562C78.6827 113.571 78.6736 113.577 78.6632 113.579C78.4679 113.665 78.2655 113.733 78.0584 113.784ZM77.644 113.467C77.6129 113.474 77.5827 113.486 77.5544 113.501C77.536 113.51 77.5195 113.522 77.5061 113.538C77.4926 113.553 77.4824 113.571 77.476 113.59C77.4536 113.66 77.476 113.686 77.49 113.7C77.616 113.809 78.1312 113.686 78.498 113.537C78.2205 113.459 77.9306 113.435 77.644 113.467Z" fill="#263238"/>
<path d="M78.6605 113.574H78.6409C78.3609 113.526 77.7785 113.204 77.7617 112.963C77.7617 112.907 77.7813 112.829 77.9101 112.784C78.002 112.753 78.1026 112.759 78.1901 112.801C78.4981 112.949 78.6801 113.487 78.6885 113.509C78.6932 113.517 78.6957 113.526 78.6957 113.534C78.6957 113.543 78.6932 113.552 78.6885 113.56C78.6808 113.567 78.671 113.572 78.6605 113.574ZM77.9717 112.868H77.9437C77.8569 112.896 77.8597 112.932 77.8625 112.944C77.8625 113.089 78.2825 113.352 78.5681 113.442C78.4917 113.217 78.3468 113.021 78.1537 112.882C78.0963 112.857 78.0322 112.852 77.9717 112.868Z" fill="#263238"/>
<path d="M81.7207 114.24L79.6123 114.551L79.6795 109.718L81.7879 109.41L81.7207 114.24Z" fill="#CE7A63"/>
<path d="M79.2961 113.302H82.0597C82.1003 113.301 82.14 113.315 82.171 113.341C82.202 113.367 82.2222 113.404 82.2277 113.445L82.5077 115.307C82.5132 115.353 82.5088 115.401 82.4947 115.446C82.4806 115.49 82.4572 115.532 82.426 115.567C82.3948 115.602 82.3565 115.63 82.3136 115.65C82.2708 115.669 82.2243 115.679 82.1773 115.679C81.3513 115.665 80.1641 115.617 79.1253 115.617C77.9129 115.617 76.8237 115.682 75.4013 115.682C74.5417 115.682 74.3821 114.867 74.7377 114.735C76.3281 114.139 77.1793 114.038 78.7893 113.464C78.948 113.382 79.1193 113.328 79.2961 113.302Z" fill="#263238"/>
<path opacity="0.2" d="M79.68 109.721L79.6436 112.21L81.7548 111.899L81.7912 109.41L79.68 109.721Z" fill="black"/>
<path d="M80.6404 113.45C80.6264 112.557 80.9064 111.121 78.6804 112C77.3532 112.521 79.1536 114.052 79.1536 114.052L80.6404 113.45Z" fill="#263238"/>
<path d="M79.2007 60.8554C79.2007 60.8554 78.0807 77.815 78.3971 83.8462C78.7051 89.561 78.8787 105.773 78.9179 110.026C78.9195 110.156 78.9486 110.283 79.0032 110.4C79.0578 110.518 79.1367 110.622 79.2346 110.706C79.3326 110.791 79.4474 110.853 79.5714 110.89C79.6954 110.927 79.8258 110.937 79.9539 110.919L81.4435 110.718C81.6424 110.691 81.8268 110.599 81.9685 110.457C82.1101 110.315 82.2012 110.13 82.2275 109.931C83.1907 102.424 84.3359 90.8434 84.5851 84.6442C84.8651 77.5686 86.6067 60.8442 86.6067 60.8442L79.2007 60.8554Z" fill="#0F7757"/>
<path opacity="0.2" d="M79.2007 60.8554C79.2007 60.8554 78.0807 77.815 78.3971 83.8462C78.7051 89.561 78.8787 105.773 78.9179 110.026C78.9195 110.156 78.9486 110.283 79.0032 110.4C79.0578 110.518 79.1367 110.622 79.2346 110.706C79.3326 110.791 79.4474 110.853 79.5714 110.89C79.6954 110.927 79.8258 110.937 79.9539 110.919L81.4435 110.718C81.6424 110.691 81.8268 110.599 81.9685 110.457C82.1101 110.315 82.2012 110.13 82.2275 109.931C83.1907 102.424 84.3359 90.8434 84.5851 84.6442C84.8651 77.5686 86.6067 60.8442 86.6067 60.8442L79.2007 60.8554Z" fill="white"/>
<path d="M93.2569 113.506C93.0133 113.615 92.7613 113.688 92.6325 113.613C92.5996 113.592 92.574 113.562 92.5594 113.527C92.5448 113.491 92.542 113.451 92.5513 113.414C92.5543 113.38 92.5646 113.347 92.5815 113.318C92.5984 113.288 92.6216 113.263 92.6493 113.243C92.9293 113.013 93.7693 113.097 93.7973 113.1C93.8075 113.101 93.8174 113.105 93.8254 113.111C93.8334 113.118 93.8392 113.127 93.8421 113.137C93.8441 113.146 93.8434 113.157 93.8399 113.166C93.8365 113.176 93.8304 113.184 93.8225 113.19C93.6437 113.312 93.4544 113.418 93.2569 113.506ZM92.7921 113.268C92.7633 113.282 92.736 113.299 92.7109 113.319C92.6937 113.33 92.6792 113.346 92.6686 113.364C92.6579 113.382 92.6514 113.402 92.6493 113.422C92.6493 113.492 92.6661 113.517 92.6829 113.526C92.8257 113.613 93.3101 113.397 93.6461 113.19C93.359 113.161 93.069 113.187 92.7921 113.268Z" fill="#263238"/>
<path d="M93.8003 113.196C93.5203 113.196 92.8875 112.986 92.8287 112.75C92.8147 112.697 92.8287 112.616 92.9435 112.549C92.9854 112.524 93.0318 112.509 93.08 112.503C93.1282 112.497 93.177 112.501 93.2235 112.515C93.5539 112.608 93.8311 113.1 93.8423 113.123C93.8464 113.131 93.8486 113.139 93.8486 113.148C93.8486 113.157 93.8464 113.165 93.8423 113.173C93.8371 113.179 93.8307 113.185 93.8235 113.189C93.8163 113.192 93.8084 113.195 93.8003 113.196ZM92.9967 112.636H92.9715C92.8931 112.68 92.9015 112.714 92.9043 112.725C92.9407 112.865 93.3915 113.053 93.6883 113.092C93.5737 112.883 93.3965 112.714 93.1815 112.61C93.1237 112.595 93.0624 112.6 93.0079 112.624L92.9967 112.636Z" fill="#263238"/>
<path d="M97.0646 113.319L95.0766 113.994L93.7578 109.32L95.743 108.646L97.0646 113.319Z" fill="#CE7A63"/>
<path opacity="0.2" d="M84.4252 66.9199C83.8456 69.2411 83.9996 78.8871 84.5988 84.3247C84.7416 81.1411 85.1448 76.2327 85.5536 71.7247L84.4252 66.9199Z" fill="black"/>
<path d="M94.3124 112.86L97.034 112.37C97.0747 112.362 97.1169 112.368 97.1533 112.388C97.1897 112.408 97.2178 112.44 97.2328 112.479L97.9468 114.243C97.9643 114.286 97.9718 114.332 97.969 114.378C97.9661 114.424 97.9529 114.469 97.9303 114.509C97.9077 114.55 97.8763 114.584 97.8385 114.611C97.8006 114.638 97.7573 114.655 97.7116 114.663C96.8968 114.797 95.7152 114.96 94.6932 115.144C93.5004 115.36 93.492 115.424 92.092 115.682C91.252 115.836 90.8908 115.072 91.2072 114.878C92.6296 114.016 92.3972 113.957 93.842 113.112C93.9829 113.001 94.1421 112.915 94.3124 112.86Z" fill="#263238"/>
<path opacity="0.2" d="M93.7578 109.323L94.4382 111.731L96.4262 111.056L95.7458 108.648L93.7578 109.323Z" fill="black"/>
<path d="M83.1963 60.8554C83.1963 60.8554 84.6467 77.8178 85.7639 83.8462C86.8391 89.6478 91.7027 106.173 93.1363 109.928C93.2196 110.147 93.3844 110.326 93.5962 110.427C93.808 110.527 94.0505 110.542 94.2731 110.469L95.7095 110.001C95.9206 109.932 96.0993 109.789 96.2121 109.597C96.325 109.406 96.3643 109.18 96.3227 108.962C94.8947 101.59 92.6211 90.8154 92.0555 84.6442C91.4087 77.5686 90.4595 60.8442 90.4595 60.8442L83.1963 60.8554Z" fill="#0F7757"/>
<path opacity="0.2" d="M83.1963 60.8554C83.1963 60.8554 84.6467 77.8178 85.7639 83.8462C86.8391 89.6478 91.7027 106.173 93.1363 109.928C93.2196 110.147 93.3844 110.326 93.5962 110.427C93.808 110.527 94.0505 110.542 94.2731 110.469L95.7095 110.001C95.9206 109.932 96.0993 109.789 96.2121 109.597C96.325 109.406 96.3643 109.18 96.3227 108.962C94.8947 101.59 92.6211 90.8154 92.0555 84.6442C91.4087 77.5686 90.4595 60.8442 90.4595 60.8442L83.1963 60.8554Z" fill="white"/>
<path d="M83.768 34.9806C83.7848 35.1514 83.7092 35.297 83.5972 35.3082C83.4852 35.3194 83.3844 35.1906 83.3676 35.0282C83.3508 34.8658 83.4264 34.7146 83.5384 34.7034C83.6504 34.6922 83.7512 34.8126 83.768 34.9806Z" fill="#263238"/>
<path d="M81.8578 35.1707C81.8746 35.3387 81.799 35.4843 81.687 35.4955C81.575 35.5067 81.4742 35.3779 81.4574 35.2155C81.4406 35.0531 81.5162 34.8991 81.6282 34.8879C81.7402 34.8767 81.841 34.9999 81.8578 35.1707Z" fill="#263238"/>
<path d="M82.474 35.1934C82.3232 35.7303 82.0989 36.2438 81.8076 36.7194C81.9315 36.7903 82.0693 36.8333 82.2115 36.8453C82.3537 36.8574 82.4968 36.8383 82.6308 36.7894L82.474 35.1934Z" fill="#BA4D3C"/>
<path d="M83.16 37.2091C83.1471 37.2099 83.1343 37.2057 83.1244 37.1973C83.1145 37.189 83.1082 37.1771 83.1068 37.1643C83.106 37.1576 83.1066 37.1509 83.1084 37.1445C83.1102 37.1381 83.1133 37.1321 83.1175 37.1269C83.1217 37.1217 83.1268 37.1174 83.1327 37.1142C83.1385 37.111 83.145 37.109 83.1516 37.1083C83.3622 37.0926 83.566 37.0274 83.7466 36.9179C83.9271 36.8084 84.0792 36.6578 84.1904 36.4783C84.1964 36.4664 84.2068 36.4575 84.2194 36.4533C84.232 36.4491 84.2457 36.45 84.2576 36.4559C84.2689 36.4624 84.2775 36.4728 84.2816 36.4852C84.2857 36.4976 84.2852 36.5111 84.28 36.5231C84.1618 36.7187 83.9984 36.8831 83.8035 37.0025C83.6086 37.1218 83.3879 37.1927 83.16 37.2091Z" fill="#263238"/>
<path d="M84.2798 34.3086C84.2644 34.3098 84.2489 34.3077 84.2344 34.3024C84.2199 34.2971 84.2067 34.2887 84.1958 34.2778C84.1146 34.1812 84.0115 34.1054 83.8951 34.0567C83.7787 34.008 83.6524 33.9878 83.5266 33.9978C83.5007 34.0019 83.4742 33.9957 83.4527 33.9805C83.4313 33.9653 83.4166 33.9424 83.4118 33.9166C83.4094 33.9037 83.4096 33.8904 83.4124 33.8776C83.4152 33.8648 83.4206 33.8527 83.4281 33.842C83.4357 33.8313 83.4454 33.8222 83.4565 33.8153C83.4677 33.8084 83.4801 33.8038 83.493 33.8018C83.649 33.7854 83.8067 33.8066 83.9528 33.8636C84.0989 33.9205 84.2293 34.0117 84.333 34.1294C84.3428 34.1385 84.3505 34.1496 84.3558 34.1619C84.3612 34.1742 84.3639 34.1874 84.3639 34.2008C84.3639 34.2141 84.3612 34.2274 84.3558 34.2397C84.3505 34.2519 84.3428 34.263 84.333 34.2722C84.3192 34.2893 84.3007 34.3019 84.2798 34.3086Z" fill="#263238"/>
<path d="M80.9336 34.5774C80.9188 34.5803 80.9036 34.5803 80.8888 34.5774C80.8648 34.5664 80.8462 34.5464 80.8367 34.5218C80.8273 34.4973 80.8279 34.4699 80.8384 34.4458C80.8991 34.3 80.9938 34.1708 81.1146 34.069C81.2354 33.9672 81.3788 33.8957 81.5328 33.8606C81.5466 33.8558 81.5613 33.854 81.5759 33.8555C81.5904 33.8569 81.6045 33.8615 81.6171 33.869C81.6297 33.8764 81.6406 33.8865 81.6489 33.8986C81.6572 33.9106 81.6628 33.9243 81.6652 33.9387C81.6677 33.9532 81.667 33.968 81.6632 33.9821C81.6594 33.9962 81.6525 34.0094 81.6431 34.0206C81.6337 34.0318 81.622 34.0408 81.6087 34.047C81.5955 34.0533 81.581 34.0565 81.5664 34.0566C81.4446 34.0862 81.3317 34.1443 81.2368 34.2261C81.1419 34.3079 81.0677 34.411 81.0204 34.527C81.0118 34.5424 80.9992 34.5553 80.9839 34.5641C80.9686 34.573 80.9512 34.5776 80.9336 34.5774Z" fill="#263238"/>
<path d="M87.6404 41.7202C88.738 41.7202 91.384 41.779 91.6416 42.759C91.8992 43.739 91.6164 45.3266 91.2664 46.259C91.7816 47.6814 91.6164 49.7814 91.1264 50.4366C91.664 52.0214 91.314 53.189 90.9864 53.749C91.244 54.379 91.4764 56.1766 91.0816 57.0614C91.4064 58.3214 91.7788 60.4214 91.1964 60.8442C90.404 61.4042 88.2956 61.6842 86.806 61.3314C85.3164 60.9786 85.9016 57.9714 86.0164 57.2714C85.364 56.409 86.064 53.819 86.064 53.819C85.7364 53.0966 86.2264 50.389 86.2264 50.389C85.8316 49.7366 86.344 46.189 86.344 46.189C85.9184 45.4778 85.7336 41.7202 87.6404 41.7202Z" fill="#263238"/>
<path d="M79.5784 42.3727C80.4408 41.9919 83.3304 41.3003 82.7704 42.0619C81.9584 43.1679 82.4568 44.3327 81.9752 45.7019C82.4008 47.0095 82.2552 49.1459 81.8604 49.9019C82.211 50.9987 82.1754 52.1825 81.7596 53.2563C81.9696 53.8163 82.1628 55.5719 81.8352 56.5463C82.1152 57.7335 82.328 60.1275 81.8352 60.6679C81.4805 61.0586 81.0104 61.326 80.4932 61.4313C79.9761 61.5365 79.4389 61.4741 78.9596 61.2531C78.2736 60.9731 77.9684 58.6827 78.3072 57.8931C77.6408 56.4399 78.184 54.2867 78.184 54.2867C77.54 53.1667 78.0384 50.8175 78.0384 50.8175C77.4 48.7343 78.184 46.4299 78.184 46.4299C77.8396 45.8055 78.2036 42.9803 79.5784 42.3727Z" fill="#263238"/>
<path d="M81.48 42.6299C81.3653 42.5448 81.272 42.4343 81.2074 42.307C81.1427 42.1797 81.1086 42.0391 81.1076 41.8963C81.1054 41.8006 81.1221 41.7054 81.1569 41.6162C81.1916 41.527 81.2437 41.4456 81.3101 41.3766C81.3764 41.3076 81.4558 41.2524 81.5436 41.2143C81.6314 41.1761 81.7259 41.1557 81.8216 41.1543C82.1494 41.1815 82.468 41.2769 82.7568 41.4343C83.1964 41.6499 83.3588 41.8487 83.3784 42.1735C83.398 42.4983 82.5972 43.6407 82.1576 43.3691C81.718 43.0975 81.7264 42.9099 81.48 42.6299Z" fill="#263238"/>
<path opacity="0.2" d="M89.9755 46.634C90.1939 45.6904 90.7483 45.7744 91.2999 46.1608L91.2607 46.27C91.7759 47.6924 91.6107 49.7924 91.1207 50.4476C91.1515 50.5372 91.1795 50.6268 91.2047 50.7276C90.5187 50.0556 89.5667 48.4148 89.9755 46.634Z" fill="black"/>
<path d="M90.0704 48.9385L88.2084 49.7897L88.0264 55.8041L82.9668 59.0633L88.6312 61.0961L90.1684 66.9117L92.0332 66.0633L93.0748 56.5769L90.0704 48.9385Z" fill="#0F7757"/>
<path opacity="0.3" d="M90.0704 48.9385L88.2084 49.7897L88.0264 55.8041L82.9668 59.0633L88.6312 61.0961L90.1684 66.9117L92.0332 66.0633L93.0748 56.5769L90.0704 48.9385Z" fill="black"/>
<path d="M101.724 61.6391L99.8594 62.4903L93.8506 62.1543L96.365 60.4575L101.724 61.6391Z" fill="#0F7757"/>
<path opacity="0.3" d="M101.724 61.6391L99.8594 62.4903L93.8506 62.1543L96.365 60.4575L101.724 61.6391Z" fill="black"/>
<path d="M90.0708 48.9385L94.7356 52.7409L100.512 51.0553L98.3364 56.6665L101.724 61.6393L95.7156 61.3033L92.0336 66.0633L90.4936 60.2449L84.832 58.2121L89.8888 54.9529L90.0708 48.9385Z" fill="#0F7757"/>
<path d="M93.002 60.8945L92.96 62.7957L95.2 62.6697C95.2 62.6697 95.5024 61.4797 94.2144 60.6509L93.002 60.8945Z" fill="#CE7A63"/>
<path d="M93.6796 64.6994L95.2308 63.8062L95.2028 62.6694L92.96 62.7954L93.6796 64.6994Z" fill="#CE7A63"/>
<path d="M91.7166 42.7027C91.8986 42.8707 92.0358 42.9995 92.187 43.1479C92.3382 43.2963 92.467 43.4279 92.6238 43.5847C92.9038 43.8787 93.1838 44.1811 93.4638 44.4863C94.0113 45.1127 94.5263 45.7669 95.0066 46.4463C95.5141 47.1561 95.9644 47.9052 96.3534 48.6863C96.8215 49.5907 97.1213 50.5727 97.2382 51.5843C97.2554 51.7339 97.2638 51.8845 97.2634 52.0351V52.2703V52.4327L97.2158 53.0683C97.1654 53.4855 97.115 53.9083 97.045 54.3031C96.9154 55.1018 96.7453 55.8933 96.5354 56.6747C96.1326 58.211 95.5986 59.7098 94.9394 61.1547C94.8318 61.398 94.6411 61.5951 94.4014 61.7107C94.1617 61.8262 93.8888 61.8526 93.6314 61.7853C93.374 61.7179 93.149 61.5611 92.9967 61.3429C92.8444 61.1248 92.7747 60.8595 92.8002 60.5947V60.5499C92.9206 59.0715 93.0802 57.5651 93.1614 56.1035C93.2174 55.3699 93.2398 54.6447 93.2566 53.9363C93.2566 53.5807 93.2566 53.2335 93.2566 52.8863L93.2342 52.3823V52.2591V52.2059C93.2284 52.1662 93.22 52.1269 93.209 52.0883C93.0634 51.5957 92.8525 51.1248 92.5818 50.6883C92.2406 50.13 91.8666 49.5923 91.4618 49.0783C91.039 48.5407 90.5854 48.0059 90.115 47.4795C89.8798 47.2163 89.6362 46.9587 89.3954 46.6983L89.0314 46.3147L88.687 45.9591L88.631 45.9003C88.2317 45.4802 88.0108 44.9217 88.0147 44.3421C88.0186 43.7625 88.247 43.207 88.6519 42.7923C89.0568 42.3776 89.6067 42.136 90.186 42.1182C90.7654 42.1005 91.329 42.308 91.7586 42.6971L91.7166 42.7027Z" fill="#263238"/>
<path d="M88.4802 42.3836C88.7602 42.3444 88.833 41.6892 88.609 41.2636C88.427 40.9136 87.769 40.9612 87.181 41.1124C86.7078 41.2179 86.2549 41.3995 85.8398 41.65C85.2462 41.9776 85.4618 42.3724 85.599 42.6832C85.7362 42.994 85.9966 43.708 86.5566 43.33C87.1166 42.952 88.0882 42.4424 88.4802 42.3836Z" fill="#263238"/>
<path d="M95.542 112.736C95.5 111.843 95.7352 110.401 93.5372 111.336C92.224 111.896 94.0692 113.375 94.0692 113.375L95.542 112.736Z" fill="#263238"/>
<path d="M68.012 43.1203H71.0192C71.1027 43.1233 71.1834 43.1517 71.2504 43.2017C71.3175 43.2518 71.3677 43.321 71.3944 43.4003L72.968 49.0003C72.9782 49.0329 72.9805 49.0675 72.9747 49.1012C72.9689 49.1349 72.9552 49.1667 72.9347 49.1941C72.9142 49.2214 72.8875 49.2435 72.8567 49.2585C72.826 49.2735 72.7921 49.2809 72.758 49.2803H69.748C69.6651 49.2759 69.5854 49.247 69.519 49.1971C69.4527 49.1472 69.4027 49.0787 69.3756 49.0003L67.802 43.4003C67.7911 43.3676 67.7883 43.3328 67.7938 43.2989C67.7993 43.2649 67.8129 43.2328 67.8336 43.2052C67.8542 43.1777 67.8812 43.1556 67.9123 43.1408C67.9434 43.126 67.9776 43.119 68.012 43.1203Z" fill="#0F7757"/>
<path d="M69.6495 46.8945L69.0195 44.7021L67.9219 45.139L68.3195 47.7318L69.6495 46.8945Z" fill="#CE7A63"/>
<path opacity="0.3" d="M71.2603 43.3218C71.2898 43.3236 71.3181 43.3345 71.3412 43.353C71.3643 43.3716 71.381 43.3969 71.3891 43.4254L72.9655 49.0002C72.9703 49.0117 72.9721 49.0243 72.9707 49.0367C72.9693 49.0491 72.9647 49.0609 72.9574 49.071C72.9501 49.0811 72.9403 49.0892 72.929 49.0945C72.9176 49.0997 72.9051 49.102 72.8927 49.101C72.8633 49.0998 72.8351 49.0894 72.812 49.0713C72.7889 49.0533 72.7721 49.0284 72.7639 49.0002L71.1931 43.417C71.1902 43.4062 71.1896 43.395 71.1916 43.384C71.1935 43.3731 71.1978 43.3627 71.2043 43.3536C71.2107 43.3445 71.219 43.3369 71.2287 43.3314C71.2384 43.3259 71.2492 43.3226 71.2603 43.3218Z" fill="black"/>
<path d="M34.3198 21.3638H32.2002V21.6438H34.3198V21.3638Z" fill="#0F7757"/>
<path d="M24.3601 24.539H24.0801C24.0808 23.6995 24.4136 22.8944 25.0059 22.2995C25.5982 21.7046 26.4018 21.3682 27.2413 21.3638H31.0493V21.6438H27.2413C26.4761 21.6482 25.7437 21.9551 25.2039 22.4975C24.6641 23.0399 24.3608 23.7738 24.3601 24.539Z" fill="#0F7757"/>
<path d="M60.3008 22.3438H27.2412C26.0304 22.3438 25.0488 23.3253 25.0488 24.5361V29.9793C25.0488 31.1902 26.0304 32.1718 27.2412 32.1718H60.3008C61.5117 32.1718 62.4932 31.1902 62.4932 29.9793V24.5361C62.4932 23.3253 61.5117 22.3438 60.3008 22.3438Z" fill="#0F7757"/>
<path d="M39.2979 25.7764L39.7795 26.7508L40.8575 26.9076L40.0763 27.6664L40.2611 28.7416L39.2979 28.2348L38.3347 28.7416L38.5195 27.6664L37.7383 26.9076L38.8163 26.7508L39.2979 25.7764Z" fill="white"/>
<path d="M43.6719 25.7764L44.1535 26.7508L45.2315 26.9076L44.4503 27.6664L44.6351 28.7416L43.6719 28.2348L42.7087 28.7416L42.8935 27.6664L42.1123 26.9076L43.1903 26.7508L43.6719 25.7764Z" fill="white"/>
<path d="M48.0449 25.7764L48.5265 26.7508L49.6046 26.9076L48.8262 27.6664L49.0082 28.7416L48.0449 28.2348L47.0817 28.7416L47.2665 27.6664L46.4854 26.9076L47.5633 26.7508L48.0449 25.7764Z" fill="white"/>
<path d="M52.419 25.7764L52.9006 26.7508L53.9786 26.9076L53.2002 27.6664L53.3822 28.7416L52.419 28.2348L51.4558 28.7416L51.6406 27.6664L50.8594 26.9076L51.9374 26.7508L52.419 25.7764Z" fill="white"/>
<path opacity="0.3" d="M56.7929 26.4093L57.0225 26.8769C57.043 26.9175 57.0731 26.9525 57.1102 26.9788C57.1472 27.0052 57.1902 27.0221 57.2353 27.0281L57.7505 27.1037L57.3781 27.4677C57.3457 27.4992 57.3213 27.538 57.3072 27.5809C57.2931 27.6238 57.2895 27.6695 57.2969 27.7141L57.3837 28.2293L56.9245 27.9997C56.8834 27.98 56.8385 27.9695 56.7929 27.9689C56.7481 27.9687 56.7039 27.9793 56.6641 27.9997L56.2021 28.2433L56.2805 27.7197C56.2878 27.6751 56.2843 27.6294 56.2701 27.5865C56.256 27.5436 56.2317 27.5048 56.1993 27.4733L55.8269 27.1093L56.3421 27.0337C56.3884 27.0283 56.4327 27.0113 56.4708 26.9844C56.509 26.9575 56.5398 26.9215 56.5605 26.8797L56.7901 26.4121M56.7901 25.7793L56.3085 26.7537L55.2305 26.9105L56.0117 27.6721L55.8269 28.7445L56.7901 28.2377L57.7533 28.7445L57.5685 27.6721L58.3497 26.9105L57.2717 26.7537L56.7901 25.7793Z" fill="white"/>
<path opacity="0.2" d="M31.8784 30.6206C33.7356 30.6206 35.2412 29.115 35.2412 27.2578C35.2412 25.4006 33.7356 23.895 31.8784 23.895C30.0212 23.895 28.5156 25.4006 28.5156 27.2578C28.5156 29.115 30.0212 30.6206 31.8784 30.6206Z" fill="white"/>
<path d="M34.6559 27.2578C34.6566 27.8757 34.4511 28.4761 34.0719 28.9639C33.6927 29.4518 33.1616 29.7991 32.5626 29.9508C31.9637 30.1026 31.3312 30.0501 30.7655 29.8016C30.1997 29.5532 29.7331 29.1231 29.4395 28.5794C29.2177 28.1743 29.1021 27.7196 29.1035 27.2578C29.1264 26.5367 29.429 25.8529 29.9471 25.351C30.4652 24.849 31.1583 24.5684 31.8797 24.5684C32.6011 24.5684 33.2942 24.849 33.8124 25.351C34.3305 25.8529 34.633 26.5367 34.6559 27.2578Z" fill="white"/>
<path d="M34.3199 28.5793C34.0825 29.0198 33.7303 29.3878 33.3007 29.6443C32.8711 29.9008 32.38 30.0362 31.8797 30.0362C31.3793 30.0362 30.8883 29.9008 30.4586 29.6443C30.029 29.3878 29.6768 29.0198 29.4395 28.5793C30.1619 28.0972 31.0111 27.8398 31.8797 27.8398C32.7482 27.8398 33.5974 28.0972 34.3199 28.5793Z" fill="#263238"/>
<path d="M33.1158 26.3196C33.1158 26.5644 33.0432 26.8037 32.9073 27.0072C32.7713 27.2107 32.578 27.3694 32.3518 27.463C32.1257 27.5567 31.8769 27.5812 31.6368 27.5334C31.3967 27.4857 31.1762 27.3678 31.0031 27.1947C30.83 27.0217 30.7122 26.8011 30.6644 26.5611C30.6167 26.321 30.6412 26.0722 30.7348 25.846C30.8285 25.6199 30.9871 25.4266 31.1907 25.2906C31.3942 25.1546 31.6335 25.082 31.8782 25.082C32.2065 25.082 32.5212 25.2124 32.7533 25.4445C32.9854 25.6766 33.1158 25.9914 33.1158 26.3196Z" fill="#FFC3BD"/>
<path d="M58.0217 56.498H52.4189V56.778H58.0217V56.498Z" fill="#0F7757"/>
<path d="M60.3008 45.9702H27.2412C26.0304 45.9702 25.0488 46.9518 25.0488 48.1626V53.6058C25.0488 54.8166 26.0304 55.7982 27.2412 55.7982H60.3008C61.5117 55.7982 62.4932 54.8166 62.4932 53.6058V48.1626C62.4932 46.9518 61.5117 45.9702 60.3008 45.9702Z" fill="#0F7757"/>
<path d="M39.2979 49.4004L39.7795 50.3776L40.8575 50.5316L40.0763 51.2932L40.2611 52.3656L39.2979 51.8588L38.3347 52.3656L38.5195 51.2932L37.7383 50.5316L38.8163 50.3776L39.2979 49.4004Z" fill="white"/>
<path d="M43.6719 49.4004L44.1535 50.3776L45.2315 50.5316L44.4503 51.2932L44.6351 52.3656L43.6719 51.8588L42.7087 52.3656L42.8935 51.2932L42.1123 50.5316L43.1903 50.3776L43.6719 49.4004Z" fill="white"/>
<path d="M48.0449 49.4004L48.5265 50.3776L49.6046 50.5316L48.8262 51.2932L49.0082 52.3656L48.0449 51.8588L47.0817 52.3656L47.2665 51.2932L46.4854 50.5316L47.5633 50.3776L48.0449 49.4004Z" fill="white"/>
<path d="M52.419 49.4004L52.9006 50.3776L53.9786 50.5316L53.2002 51.2932L53.3822 52.3656L52.419 51.8588L51.4558 52.3656L51.6406 51.2932L50.8594 50.5316L51.9374 50.3776L52.419 49.4004Z" fill="white"/>
<path d="M56.792 49.4004L57.2736 50.3776L58.3516 50.5316L57.5732 51.2932L57.7552 52.3656L56.792 51.8588L55.8288 52.3656L56.0136 51.2932L55.2324 50.5316L56.3104 50.3776L56.792 49.4004Z" fill="white"/>
<path opacity="0.2" d="M34.2576 53.2616C35.5709 51.9484 35.5709 49.8192 34.2576 48.5059C32.9443 47.1927 30.8151 47.1927 29.5019 48.5059C28.1886 49.8192 28.1886 51.9484 29.5019 53.2616C30.8151 54.5749 32.9443 54.5749 34.2576 53.2616Z" fill="white"/>
<path d="M34.6559 50.8813C34.6573 51.4994 34.4522 52.1003 34.0732 52.5886C33.6942 53.0769 33.1631 53.4247 32.564 53.5768C31.9649 53.7289 31.3321 53.6767 30.7661 53.4283C30.2001 53.1799 29.7332 52.7496 29.4395 52.2057C29.2176 51.7996 29.1021 51.3441 29.1035 50.8813C29.1264 50.1603 29.429 49.4764 29.9471 48.9745C30.4652 48.4726 31.1583 48.1919 31.8797 48.1919C32.6011 48.1919 33.2942 48.4726 33.8124 48.9745C34.3305 49.4764 34.633 50.1603 34.6559 50.8813Z" fill="white"/>
<path opacity="0.5" d="M34.3199 52.2058C34.0818 52.6455 33.7294 53.0127 33.2999 53.2686C32.8703 53.5245 32.3796 53.6596 31.8797 53.6596C31.3797 53.6596 30.889 53.5245 30.4594 53.2686C30.0299 53.0127 29.6775 52.6455 29.4395 52.2058C30.1619 51.7236 31.0111 51.4663 31.8797 51.4663C32.7482 51.4663 33.5974 51.7236 34.3199 52.2058Z" fill="#0F7757"/>
<path d="M33.1158 49.9321C33.1164 50.177 33.0443 50.4165 32.9086 50.6204C32.773 50.8243 32.5799 50.9834 32.3538 51.0775C32.1277 51.1716 31.8788 51.1965 31.6385 51.149C31.3982 51.1016 31.1775 50.9839 31.0041 50.811C30.8307 50.638 30.7126 50.4175 30.6646 50.1773C30.6166 49.9372 30.641 49.6882 30.7346 49.4619C30.8282 49.2356 30.9868 49.0421 31.1904 48.906C31.3939 48.7699 31.6333 48.6973 31.8782 48.6973C32.206 48.6973 32.5203 48.8273 32.7523 49.0588C32.9844 49.2902 33.1151 49.6043 33.1158 49.9321Z" fill="#FFB573"/>
<path d="M60.3008 34.1567H27.2412C26.0304 34.1567 25.0488 35.1383 25.0488 36.3491V41.7923C25.0488 43.0032 26.0304 43.9847 27.2412 43.9847H60.3008C61.5117 43.9847 62.4932 43.0032 62.4932 41.7923V36.3491C62.4932 35.1383 61.5117 34.1567 60.3008 34.1567Z" fill="#0F7757"/>
<path d="M61.477 39.9111L59.125 43.9851H65.005L61.477 39.9111Z" fill="#0F7757"/>
<path d="M39.2979 37.5869L39.7795 38.5641L40.8575 38.7209L40.0763 39.4797L40.2611 40.5521L39.2979 40.0453L38.3347 40.5521L38.5195 39.4797L37.7383 38.7209L38.8163 38.5641L39.2979 37.5869Z" fill="white"/>
<path d="M43.6719 37.5869L44.1535 38.5641L45.2315 38.7209L44.4503 39.4797L44.6351 40.5521L43.6719 40.0453L42.7087 40.5521L42.8935 39.4797L42.1123 38.7209L43.1903 38.5641L43.6719 37.5869Z" fill="white"/>
<path opacity="0.3" d="M48.0448 38.2198L48.2744 38.6874C48.2946 38.7286 48.3245 38.7641 48.3616 38.7909C48.3987 38.8178 48.4419 38.8351 48.4872 38.8414L48.9996 38.9198L48.6272 39.2838C48.5948 39.3153 48.5705 39.3542 48.5564 39.3971C48.5422 39.44 48.5387 39.4857 48.546 39.5302L48.6328 40.0454L48.1736 39.8018C48.1332 39.78 48.088 39.7685 48.042 39.7682C47.9969 39.7681 47.9525 39.7797 47.9132 39.8018L47.4512 40.0454L47.538 39.5302C47.5454 39.4857 47.5418 39.44 47.5277 39.3971C47.5135 39.3542 47.4892 39.3153 47.4568 39.2838L47.0844 38.9198L47.5996 38.8442C47.645 38.8379 47.6881 38.8206 47.7252 38.7937C47.7623 38.7669 47.7923 38.7314 47.8124 38.6902L48.042 38.2226M48.042 37.5898L47.5604 38.567L46.4824 38.7238L47.2636 39.4826L47.0788 40.555L48.042 40.0482L49.0052 40.555L48.8204 39.4826L49.6016 38.7238L48.5236 38.567L48.042 37.5898Z" fill="white"/>
<path opacity="0.3" d="M52.419 38.2197L52.6486 38.6873C52.6687 38.7284 52.6987 38.764 52.7358 38.7908C52.7729 38.8177 52.816 38.835 52.8614 38.8413L53.3766 38.9169L53.0042 39.2809C52.9718 39.3124 52.9475 39.3512 52.9333 39.3941C52.9192 39.437 52.9156 39.4827 52.923 39.5273L53.0098 40.0425L52.5506 39.7989C52.5101 39.7771 52.4649 39.7655 52.419 39.7653C52.3739 39.7652 52.3295 39.7767 52.2902 39.7989L51.8282 40.0425L51.915 39.5273C51.9223 39.4827 51.9188 39.437 51.9046 39.3941C51.8905 39.3512 51.8662 39.3124 51.8338 39.2809L51.4614 38.9169L51.9766 38.8413C52.0219 38.835 52.0651 38.8177 52.1022 38.7908C52.1393 38.764 52.1692 38.7284 52.1894 38.6873L52.419 38.2197ZM52.419 37.5869L51.9374 38.5641L50.8594 38.7209L51.6406 39.4797L51.4558 40.5521L52.419 40.0453L53.3822 40.5521L53.2002 39.4797L53.9814 38.7209L52.9034 38.5641L52.4218 37.5869H52.419Z" fill="white"/>
<path opacity="0.3" d="M56.792 38.2197L57.0216 38.6873C57.0418 38.7284 57.0717 38.764 57.1088 38.7908C57.1459 38.8177 57.1891 38.835 57.2344 38.8413L57.7496 38.9169L57.3772 39.2809C57.3448 39.3124 57.3205 39.3512 57.3064 39.3941C57.2922 39.437 57.2887 39.4827 57.296 39.5273L57.3828 40.0425L56.9236 39.7989C56.8832 39.7771 56.838 39.7655 56.792 39.7653C56.7469 39.7652 56.7025 39.7767 56.6632 39.7989L56.2012 40.0425L56.288 39.5273C56.2954 39.4827 56.2918 39.437 56.2777 39.3941C56.2635 39.3512 56.2392 39.3124 56.2068 39.2809L55.8344 38.9169L56.3496 38.8413C56.395 38.835 56.4381 38.8177 56.4752 38.7908C56.5123 38.764 56.5423 38.7284 56.5624 38.6873L56.792 38.2197ZM56.792 37.5869L56.3104 38.5641L55.2324 38.7209L56.0136 39.4797L55.8288 40.5521L56.792 40.0453L57.7552 40.5521L57.5704 39.4797L58.3516 38.7209L57.2736 38.5641L56.792 37.5869Z" fill="white"/>
<path opacity="0.2" d="M31.8784 42.4336C33.7356 42.4336 35.2412 40.928 35.2412 39.0708C35.2412 37.2136 33.7356 35.708 31.8784 35.708C30.0212 35.708 28.5156 37.2136 28.5156 39.0708C28.5156 40.928 30.0212 42.4336 31.8784 42.4336Z" fill="white"/>
<path d="M34.6554 39.0709C34.6561 39.6887 34.4506 40.2892 34.0714 40.777C33.6922 41.2648 33.161 41.6122 32.562 41.7639C31.9631 41.9156 31.3306 41.8631 30.7649 41.6147C30.1992 41.3663 29.7325 40.9361 29.439 40.3925C29.2171 39.9874 29.1015 39.5327 29.103 39.0709C29.0911 38.6989 29.1542 38.3283 29.2884 37.9811C29.4226 37.634 29.6252 37.3174 29.8842 37.05C30.1431 36.7827 30.4532 36.5702 30.7959 36.425C31.1386 36.2799 31.507 36.2051 31.8792 36.2051C32.2513 36.2051 32.6197 36.2799 32.9624 36.425C33.3051 36.5702 33.6152 36.7827 33.8742 37.05C34.1331 37.3174 34.3357 37.634 34.4699 37.9811C34.6041 38.3283 34.6672 38.6989 34.6554 39.0709Z" fill="white"/>
<path d="M34.3199 40.3928C34.0818 40.8325 33.7294 41.1997 33.2999 41.4556C32.8703 41.7115 32.3796 41.8466 31.8797 41.8466C31.3797 41.8466 30.889 41.7115 30.4594 41.4556C30.0299 41.1997 29.6775 40.8325 29.4395 40.3928C30.1619 39.9106 31.0111 39.6533 31.8797 39.6533C32.7482 39.6533 33.5974 39.9106 34.3199 40.3928Z" fill="#0F7757"/>
<path d="M33.1158 38.1219C33.1158 38.3667 33.0432 38.6059 32.9073 38.8095C32.7713 39.013 32.578 39.1716 32.3518 39.2653C32.1257 39.3589 31.8769 39.3835 31.6368 39.3357C31.3967 39.288 31.1762 39.1701 31.0031 38.997C30.83 38.8239 30.7122 38.6034 30.6644 38.3633C30.6167 38.1233 30.6412 37.8744 30.7348 37.6483C30.8285 37.4221 30.9871 37.2288 31.1907 37.0929C31.3942 36.9569 31.6335 36.8843 31.8782 36.8843C32.0409 36.8839 32.202 36.9157 32.3523 36.9777C32.5026 37.0398 32.6392 37.1309 32.7542 37.2459C32.8692 37.3609 32.9603 37.4975 33.0224 37.6478C33.0844 37.7982 33.1162 37.9593 33.1158 38.1219Z" fill="#B55B52"/>
</svg>
