<svg width="151" height="147" viewBox="0 0 151 147" fill="none" xmlns="http://www.w3.org/2000/svg">
<path d="M71.8618 0.00111194C72.1298 0.00090529 72.3979 0.000698647 72.674 0.000485741C73.2388 0.000339409 73.8036 0.000733398 74.3683 0.00163926C75.2232 0.00279078 76.078 0.0016505 76.9329 0.000268221C83.8145 -0.00209416 83.8145 -0.00209415 87.1677 0.610274C87.3761 0.647635 87.5845 0.684996 87.7992 0.72349C93.23 1.72406 98.5739 3.06346 103.667 5.21358C104.05 5.36281 104.434 5.51138 104.818 5.65906C105.738 6.02467 106.616 6.45448 107.495 6.90945C107.993 7.16382 107.993 7.16382 108.509 7.35662C114.019 9.59726 119.266 13.5115 123.749 17.3546C124.232 17.7677 124.72 18.1729 125.213 18.573C125.334 18.6714 125.455 18.7698 125.579 18.8713C125.914 19.1436 126.251 19.4147 126.587 19.6858C126.742 19.8281 126.897 19.9704 127.056 20.117C127.056 20.2595 127.056 20.4021 127.056 20.5489C127.181 20.5979 127.306 20.6469 127.435 20.6974C128.048 21.0539 128.352 21.5063 128.789 22.0609C128.954 22.1901 129.119 22.3193 129.29 22.4524C129.94 22.98 130.449 23.5622 130.988 24.1997C131.393 24.6702 131.393 24.6702 131.89 25.1446C132.591 25.8549 133.222 26.6064 133.851 27.3796C134.038 27.6097 134.038 27.6097 134.229 27.8444C135.04 28.8524 135.771 29.8783 136.442 30.9848C136.848 31.639 137.289 32.2605 137.736 32.8874C139.695 35.6743 141.278 38.6813 142.843 41.7002C143.075 42.1356 143.322 42.5596 143.574 42.9841C143.947 43.6585 144.04 43.9874 143.948 44.7399C144.091 44.7399 144.234 44.7399 144.381 44.7399C146.978 50.9036 148.641 57.1483 149.755 63.7336C149.8 63.9983 149.845 64.263 149.891 64.5357C150.367 67.4556 150.497 70.3259 150.499 73.2777C150.5 73.4583 150.5 73.6388 150.5 73.8248C150.497 76.9844 150.281 80.0612 149.796 83.1863C149.763 83.4048 149.731 83.6233 149.697 83.8484C149.09 87.9084 148.297 91.9337 147.007 95.837C146.794 96.4858 146.599 97.1361 146.412 97.7927C146.173 98.5924 145.851 99.2921 145.464 100.034C145.321 100.379 145.182 100.725 145.045 101.073C144.33 102.874 143.509 104.605 142.628 106.33C142.165 107.242 141.744 108.162 141.349 109.105C141.207 109.105 141.064 109.105 140.916 109.105C140.863 109.287 140.81 109.469 140.756 109.657C140.454 110.481 140.049 111.198 139.59 111.94C139.46 112.152 139.46 112.152 139.328 112.368C137.073 116.034 134.544 119.457 131.635 122.632C131.061 123.265 130.509 123.916 129.96 124.57C129.655 124.873 129.655 124.873 129.222 124.873C129.173 124.997 129.124 125.122 129.073 125.251C128.716 125.862 128.262 126.165 127.706 126.6C127.516 126.848 127.516 126.848 127.322 127.101C126.776 127.757 126.163 128.25 125.486 128.76C125.216 128.967 124.947 129.174 124.677 129.381C124.536 129.49 124.395 129.599 124.25 129.71C123.789 130.071 123.336 130.44 122.884 130.812C122.655 131.001 122.655 131.001 122.421 131.194C122.125 131.438 121.83 131.683 121.535 131.929C120.74 132.584 119.984 133.076 119.043 133.512C118.732 133.708 118.425 133.911 118.123 134.12C113.627 137.168 108.643 139.667 103.578 141.627C102.832 141.923 102.109 142.25 101.38 142.584C99.3206 143.464 97.1734 143.987 95.0046 144.528C94.7232 144.599 94.4418 144.671 94.1604 144.743C93.3888 144.939 92.6161 145.13 91.8426 145.318C91.5419 145.392 91.2413 145.467 90.9411 145.542C85.9271 146.804 80.8402 147.024 75.6898 146.998C75.2707 146.997 75.2707 146.997 74.8432 146.996C70.6661 146.983 66.6281 146.831 62.5199 146.04C62.2928 145.998 62.0657 145.956 61.8317 145.914C60.3191 145.634 58.8201 145.31 57.3224 144.96C57.0963 144.908 56.8703 144.856 56.6375 144.803C52.0882 143.751 52.0882 143.751 50.2096 142.886C49.4552 142.553 48.6896 142.273 47.9147 141.991C45.7459 141.198 43.7377 140.259 41.7206 139.142C41.0434 138.775 40.3512 138.439 39.6588 138.102C38.7488 137.652 37.8819 137.185 37.033 136.631C36.4615 136.276 35.8765 135.953 35.2876 135.629C33.7579 134.786 32.308 133.902 30.9015 132.864C30.6374 132.674 30.3732 132.485 30.1088 132.296C28.8083 131.36 27.5264 130.427 26.3401 129.348C25.8368 128.902 25.3109 128.49 24.7835 128.072C23.4038 126.955 22.1781 125.708 20.9395 124.441C20.6694 124.173 20.6694 124.173 20.3938 123.9C17.8933 121.39 15.7679 118.713 13.8316 115.755C13.6069 115.415 13.3763 115.08 13.1448 114.745C10.8548 111.428 8.9989 107.867 7.31515 104.214C7.10135 103.753 6.88292 103.295 6.66144 102.837C6.28243 102.052 5.9174 101.262 5.56339 100.466C5.50295 100.33 5.44251 100.195 5.38024 100.055C3.98057 96.8544 3.15986 93.4756 2.31492 90.098C2.24242 89.8139 2.24242 89.8139 2.16846 89.5241C1.93307 88.5941 1.72552 87.6631 1.54679 86.7206C1.47841 86.365 1.4059 86.0101 1.33023 85.6559C0.52327 81.7895 0.500804 77.9413 0.50119 74.0067C0.500797 73.7462 0.500404 73.4857 0.5 73.2173C0.500542 70.0359 0.608473 66.9039 1.01553 63.7471C1.04481 63.5135 1.07409 63.2799 1.10425 63.0392C1.82611 57.7244 3.14877 52.3212 5.13026 47.3318C5.18547 47.1925 5.24067 47.0531 5.29755 46.9095C6.01654 45.121 6.86306 43.4004 7.74141 41.6854C7.95725 41.2612 8.16964 40.8354 8.38127 40.4091C9.21159 38.7373 10.0535 37.0753 10.9775 35.4523C11.0878 35.2527 11.198 35.053 11.3117 34.8474C11.4158 34.6906 11.5199 34.5339 11.6272 34.3724C11.7701 34.3724 11.9131 34.3724 12.0603 34.3724C12.1181 34.2167 12.1759 34.0611 12.2354 33.9007C13.4542 31.0273 15.7375 28.5449 17.7604 26.1984C18.288 25.5845 18.7878 24.9515 19.2882 24.3153C20.6032 22.7012 22.1662 21.3204 23.7726 20.0005C24.3794 19.4901 24.9273 18.9493 25.4873 18.389C25.9621 17.961 26.4476 17.5465 26.9356 17.1336C27.1243 16.9709 27.1243 16.9709 27.3167 16.805C28.2511 16.0131 28.2511 16.0131 28.7358 16.0131C28.7358 15.8706 28.7358 15.728 28.7358 15.5811C29.1646 15.4386 29.5934 15.296 30.0352 15.1492C30.0352 15.0066 30.0352 14.8641 30.0352 14.7172C30.3235 14.5129 30.6144 14.3118 30.9133 14.1232C31.3896 13.818 31.8481 13.4925 32.3091 13.1647C34.4193 11.6934 36.5116 10.3662 38.8315 9.25075C39.5489 8.893 40.2307 8.50157 40.9176 8.08896C41.858 7.53044 42.7836 7.09668 43.8074 6.71539C44.3365 6.50637 44.8267 6.26094 45.3301 5.99655C50.8856 3.17874 57.2879 1.89906 63.3726 0.826265C63.6091 0.784423 63.6091 0.784423 63.8503 0.741735C66.5426 0.268688 69.1263 -0.00360817 71.8618 0.00111194ZM49.9592 7.80547C49.4191 8.01698 48.8779 8.22538 48.3365 8.43356C47.577 8.72571 46.8191 9.02164 46.061 9.31741C46.061 9.45996 46.061 9.60252 46.061 9.74939C45.8798 9.76944 45.6986 9.78948 45.512 9.81014C44.6482 9.98884 43.9279 10.3209 43.1509 10.7213C43.001 10.7973 42.851 10.8733 42.6966 10.9515C41.352 11.6433 40.0582 12.4105 38.7697 13.2002C38.1931 13.5494 37.6152 13.8762 37.0194 14.1907C36.0611 14.7133 35.1977 15.3456 34.3225 15.9954C33.94 16.2794 33.5546 16.5595 33.1652 16.8341C29.7137 19.2698 26.4909 22.0687 23.5383 25.0847C22.4554 26.1647 22.4554 26.1647 21.9546 26.6372C21.54 26.9922 21.54 26.9922 21.5892 27.4606C21.2676 27.5676 21.2676 27.5676 20.9395 27.6766C20.5531 28.0814 20.5531 28.0814 20.168 28.5946C20.0164 28.7889 19.8648 28.9833 19.7086 29.1835C19.5431 29.399 19.3775 29.6145 19.207 29.8365C19.0241 30.0723 18.8411 30.308 18.6579 30.5436C18.2842 31.0251 17.9124 31.5081 17.5421 31.9922C17.2565 32.3642 16.969 32.7348 16.6759 33.1009C15.96 34.0069 15.3713 34.9676 14.7945 35.9653C14.678 36.1661 14.678 36.1661 14.5592 36.3711C14.1434 37.0567 14.1434 37.0567 14.0094 37.8282C13.8665 37.8282 13.7235 37.8282 13.5763 37.8282C10.6055 43.2555 10.6055 43.2555 8.38635 49.0108C8.16217 49.7077 8.16217 49.7077 7.83647 50.4586C7.51483 51.2141 7.2909 51.9385 7.07934 52.7316C7.00119 53.0163 7.00119 53.0163 6.92147 53.3067C3.45556 65.9813 2.02355 80.2918 6.44662 92.9798C6.6126 93.4572 6.76528 93.9337 6.90677 94.4187C7.58766 96.7271 8.49157 98.9125 9.46156 101.114C9.56993 101.365 9.56993 101.365 9.6805 101.622C10.0971 102.58 10.5499 103.476 11.0993 104.367C11.6889 105.352 12.1364 106.288 12.4935 107.377C12.6364 107.377 12.7793 107.377 12.9266 107.377C12.9816 107.564 13.0366 107.75 13.0932 107.943C13.3716 108.706 13.721 109.312 14.1583 109.996C14.3137 110.242 14.4687 110.488 14.6236 110.734C14.7017 110.857 14.7798 110.981 14.8602 111.108C15.3496 111.895 15.8096 112.698 16.274 113.499C16.3843 113.689 16.4946 113.878 16.6082 114.073C16.7207 114.276 16.8332 114.478 16.9491 114.687C17.102 114.918 17.102 114.918 17.2579 115.153C17.4008 115.153 17.5438 115.153 17.691 115.153C17.766 115.377 17.766 115.377 17.8424 115.605C18.1843 116.367 18.6522 116.986 19.1664 117.637C19.2586 117.757 19.3509 117.877 19.446 118C20.0413 118.764 20.6835 119.439 21.3726 120.121C21.6146 120.394 21.8547 120.669 22.0934 120.945C24.0961 123.247 26.305 125.401 28.7358 127.248C28.993 127.449 29.2502 127.649 29.5073 127.85C32.3939 130.077 35.4602 132.047 38.6978 133.728C38.9611 133.869 39.2241 134.01 39.4871 134.151C40.3048 134.59 41.1249 135.024 41.9463 135.456C42.1559 135.567 42.3656 135.677 42.5816 135.791C43.5852 136.308 44.5284 136.706 45.6279 136.968C45.6279 137.111 45.6279 137.253 45.6279 137.4C45.7878 137.465 45.9478 137.531 46.1126 137.598C47.2148 138.052 48.304 138.514 49.3771 139.033C50.5685 139.583 51.7911 139.902 53.0613 140.21C53.6331 140.364 54.1454 140.527 54.6923 140.741C55.6672 141.116 56.6558 141.358 57.6743 141.585C57.8766 141.63 58.079 141.675 58.2875 141.722C60.0605 142.106 61.8421 142.437 63.6298 142.746C63.8846 142.791 64.1394 142.837 64.4018 142.884C72.235 144.189 80.9797 144.053 88.7242 142.368C89.2317 142.265 89.7393 142.163 90.247 142.061C94.8515 141.111 99.3149 139.854 103.646 138.023C104.05 137.853 104.456 137.69 104.863 137.528C106.13 137.022 107.319 136.443 108.504 135.765C109.054 135.471 109.613 135.228 110.188 134.988C110.939 134.658 111.66 134.274 112.384 133.89C112.545 133.805 112.705 133.721 112.871 133.633C114.01 133.025 115.108 132.37 116.185 131.657C116.622 131.378 117.059 131.142 117.527 130.92C117.527 130.778 117.527 130.635 117.527 130.488C117.649 130.432 117.77 130.376 117.895 130.319C118.93 129.774 119.842 129.028 120.776 128.328C120.894 128.24 121.012 128.152 121.134 128.061C122.654 126.915 124.11 125.714 125.513 124.427C125.712 124.246 125.712 124.246 125.916 124.06C126.233 123.764 126.537 123.456 126.84 123.145C126.84 123.002 126.84 122.86 126.84 122.713C127.054 122.641 127.268 122.57 127.489 122.497C127.859 122.2 127.859 122.2 128.139 121.849C128.139 121.706 128.139 121.564 128.139 121.417C128.282 121.417 128.425 121.417 128.572 121.417C128.572 121.274 128.572 121.132 128.572 120.985C128.787 120.913 129.001 120.842 129.222 120.769C129.504 120.446 129.504 120.446 129.75 120.053C130.176 119.429 130.626 118.92 131.171 118.393C132.376 117.147 132.376 117.147 132.903 115.585C133.046 115.585 133.189 115.585 133.337 115.585C133.638 115.141 133.909 114.699 134.176 114.235C134.351 113.936 134.527 113.636 134.703 113.337C134.797 113.176 134.891 113.015 134.988 112.85C135.292 112.334 135.603 111.823 135.916 111.312C141.967 101.427 145.535 91.3373 146.703 79.8015C146.748 79.4318 146.808 79.0639 146.876 78.698C146.999 77.8786 147.015 77.0739 147.017 76.2476C147.017 76.0802 147.018 75.9128 147.019 75.7403C147.022 75.1984 147.022 74.6566 147.021 74.1147C147.02 73.929 147.02 73.7434 147.02 73.5521C147.005 68.3401 146.332 63.438 145.248 58.3473C145.178 58.0165 145.178 58.0165 145.106 57.679C144.411 54.4478 143.49 51.2511 142.216 48.1958C142.073 48.1958 141.93 48.1958 141.783 48.1958C141.756 48.0048 141.728 47.8138 141.701 47.617C141.02 43.9874 138.561 40.2458 136.585 37.1802C136.406 36.8929 136.228 36.6051 136.05 36.3171C134.681 34.1044 133.264 31.9706 131.616 29.9521C131.306 29.5704 131 29.1848 130.699 28.7962C130.546 28.6005 130.394 28.4048 130.237 28.2031C130.099 28.0246 129.962 27.8462 129.82 27.6623C129.451 27.1903 129.451 27.1903 128.789 27.0287C128.71 26.7425 128.638 26.4541 128.572 26.1647C128.279 25.6792 128.279 25.6792 127.922 25.3007C127.78 25.3007 127.637 25.3007 127.489 25.3007C127.418 25.0869 127.346 24.8731 127.273 24.6528C126.906 24.2901 126.906 24.2901 126.461 23.9373C125.907 23.4714 125.416 23.023 124.972 22.4524C124.418 21.7981 123.877 21.4447 123.158 20.9809C122.889 20.7507 122.623 20.5163 122.359 20.2789C121.477 19.4908 120.534 18.8095 119.567 18.1292C119.043 17.7411 119.043 17.7411 118.74 17.4263C118.197 16.9046 117.554 16.5325 116.918 16.1346C116.655 15.9685 116.392 15.8023 116.129 15.636C115.937 15.5153 115.937 15.5153 115.741 15.3923C115.369 15.1539 115.006 14.9058 114.642 14.6556C114.116 14.2464 114.116 14.2464 113.629 14.2852C113.629 14.1426 113.629 14.0001 113.629 13.8532C112.457 13.0436 111.217 12.4207 109.932 11.8072C109.298 11.4773 109.298 11.4773 108.671 11.0563C107.925 10.565 107.169 10.1797 106.361 9.80339C106.204 9.72995 106.047 9.65652 105.885 9.58086C104.067 8.74766 102.199 8.04523 100.321 7.35967C99.9493 7.22354 99.5786 7.08505 99.2088 6.94436C91.6991 4.12508 83.4468 3.15178 75.4732 3.14817C75.1418 3.14723 75.1418 3.14723 74.8037 3.14627C66.5499 3.14893 57.6105 4.61353 49.9592 7.80547Z" fill="white"/>
<path d="M75.2972 36.3163C75.7503 36.9941 75.7844 37.1437 75.7837 37.9143C75.7845 38.1097 75.7854 38.3051 75.7863 38.5065C75.785 38.7214 75.7837 38.9363 75.7824 39.1578C75.7828 39.3859 75.7832 39.614 75.7836 39.8491C75.7843 40.6172 75.7819 41.3852 75.7795 42.1533C75.7794 42.7024 75.7795 43.2515 75.7797 43.8007C75.7798 44.9848 75.7786 46.1689 75.7762 47.353C75.7726 49.065 75.7715 50.7771 75.771 52.4891C75.77 55.2667 75.7671 58.0442 75.763 60.8218C75.7591 63.5202 75.756 66.2186 75.7542 68.917C75.754 69.0833 75.7539 69.2496 75.7538 69.4209C75.7532 70.2551 75.7527 71.0892 75.7522 71.9234C75.7477 78.8456 75.74 85.7678 75.7304 92.69C73.5409 92.7402 71.3516 92.7785 69.1617 92.8019C68.1446 92.8131 67.1279 92.8283 66.111 92.8529C65.1281 92.8765 64.1455 92.8893 63.1622 92.8949C62.7888 92.8989 62.4154 92.9066 62.0421 92.9183C60.1132 92.9765 58.7332 92.9941 57.2499 91.6643C56.9054 91.2932 56.5683 90.9151 56.2395 90.5301C55.8787 90.17 55.5178 89.81 55.1567 89.4501C54.8887 89.1227 54.8887 89.1227 54.6153 88.7886C54.1085 88.1947 53.6063 87.7658 52.9911 87.2902C52.8356 87.1348 52.6801 86.9795 52.5199 86.8194C52.0569 86.3583 51.5897 85.9136 51.1071 85.4737C50.8954 85.2801 50.8954 85.2801 50.6795 85.0826C50.387 84.8158 50.0937 84.5497 49.7997 84.2845C49.6594 84.1557 49.5191 84.0269 49.3746 83.8942C49.2477 83.779 49.1207 83.6637 48.99 83.5449C48.6598 83.1864 48.6598 83.1864 48.4527 82.7371C48.1645 82.2084 47.8994 82.1456 47.3604 81.8904C47.0064 81.5773 46.6633 81.2517 46.3283 80.9185C46.1357 80.7269 45.9431 80.5354 45.7446 80.338C45.5453 80.1375 45.346 79.9371 45.1406 79.7305C44.9379 79.5301 44.7352 79.3296 44.5264 79.123C44.2392 78.8357 44.2392 78.8357 43.9461 78.5426C43.7702 78.3666 43.5942 78.1906 43.4129 78.0093C43.0291 77.5706 43.0291 77.5706 43.0291 77.1386C42.913 77.0896 42.7968 77.0406 42.6772 76.9901C41.4586 76.3185 40.6016 75.3601 39.7104 74.3156C39.3943 73.9526 39.0699 73.613 38.7249 73.2778C38.2647 72.8188 38.2647 72.8188 38.0481 72.3868C38.1505 72.3002 38.253 72.2136 38.3586 72.1244C39.1894 71.4121 39.9857 70.6811 40.7552 69.9029C41.501 69.1489 42.2723 68.4442 43.0782 67.7548C43.4075 67.4669 43.721 67.161 44.0307 66.8521C44.545 66.3391 44.545 66.3391 45.1812 65.8261C45.7989 65.3237 46.2973 64.761 46.7995 64.1454C47.6014 63.2179 48.5118 62.4016 49.4228 61.5831C50.374 60.721 51.297 59.8366 52.2009 58.9254C52.3131 58.8123 52.4253 58.6992 52.5409 58.5827C52.999 58.1199 53.4561 57.6562 53.9124 57.1918C54.2524 56.8463 54.5936 56.5021 54.9351 56.158C55.134 55.9559 55.333 55.7539 55.5379 55.5457C56.023 55.1076 56.023 55.1076 56.4561 55.1076C56.4561 54.965 56.4561 54.8224 56.4561 54.6756C56.7209 54.4166 56.7209 54.4166 57.1193 54.0951C58.0307 53.3222 58.8755 52.4973 59.7181 51.6517C59.8566 51.5129 59.9951 51.374 60.1378 51.231C60.5713 50.7956 61.0043 50.3598 61.4371 49.9238C65.5339 45.7963 65.5339 45.7963 66.4181 45.172C66.561 45.172 66.7039 45.172 66.8512 45.172C66.9048 45.0517 66.9584 44.9314 67.0136 44.8075C67.334 44.2164 67.7033 43.7299 68.1506 43.2281C68.2935 43.2281 68.4365 43.2281 68.5837 43.2281C68.6409 43.1008 68.6981 42.9735 68.757 42.8423C69.0268 42.3458 69.3082 42.0208 69.7088 41.6242C69.8452 41.4884 69.9816 41.3527 70.1222 41.2128C70.2666 41.0715 70.411 40.9302 70.5599 40.7847C70.707 40.6393 70.8541 40.494 71.0056 40.3443C71.859 39.5062 72.7247 38.6921 73.64 37.9211C74.2242 37.4169 74.758 36.8676 75.2972 36.3163Z" fill="white"/>
<path d="M103.353 12.7489C103.779 12.9417 104.209 13.1228 104.642 13.2998C105.507 13.6852 106.327 14.1285 107.155 14.5874C107.564 14.813 107.975 15.0348 108.388 15.2522C109.581 15.8812 110.684 16.5683 111.779 17.353C113.207 18.3595 114.7 19.2703 116.228 20.1171C116.228 20.2596 116.228 20.4022 116.228 20.549C116.353 20.5669 116.478 20.5847 116.607 20.603C117.229 20.8098 117.517 21.1569 117.96 21.629C118.103 21.7003 118.246 21.7715 118.394 21.845C118.394 21.9875 118.394 22.1301 118.394 22.277C118.517 22.3335 118.64 22.39 118.767 22.4482C119.299 22.7298 119.746 23.0542 120.221 23.4244C120.381 23.5483 120.542 23.6722 120.707 23.7999C121.27 24.2719 121.776 24.7783 122.292 25.3008C122.535 25.5372 122.78 25.7732 123.024 26.0087C124.632 27.5714 126.103 29.1631 127.452 30.9537C127.886 31.5465 127.886 31.5465 128.311 31.9459C128.572 32.2125 128.572 32.2125 128.572 32.6445C128.786 32.7158 129.001 32.7871 129.222 32.8605C130.088 33.996 130.088 33.996 130.088 34.8044C130.302 34.8757 130.517 34.947 130.738 35.0204C131.101 35.5317 131.43 36.037 131.753 36.5729C131.847 36.7269 131.941 36.8809 132.039 37.0396C132.329 37.517 132.617 37.9963 132.903 38.4763C132.992 38.6245 133.081 38.7727 133.173 38.9253C134.636 41.3706 134.636 41.3706 134.636 42.1481C134.779 42.1481 134.922 42.1481 135.069 42.1481C135.453 42.9082 135.836 43.6688 136.219 44.4295C136.328 44.6435 136.436 44.8575 136.547 45.0779C137.1 46.1777 137.625 47.2768 138.101 48.4119C138.272 48.7676 138.443 49.1231 138.615 49.4783C139.253 50.868 139.681 52.2983 140.115 53.7612C140.222 54.1017 140.338 54.4395 140.46 54.7749C141.219 56.8807 141.616 59.0453 142.04 61.2363C142.117 61.6298 142.195 62.0233 142.273 62.4167C142.473 63.4356 142.673 64.4546 142.865 65.4751C142.928 65.8001 142.928 65.8001 142.991 66.1316C143.106 66.9402 143.14 67.7455 143.166 68.5606C143.171 68.7288 143.177 68.897 143.182 69.0703C143.194 69.4241 143.204 69.7779 143.215 70.1317C143.231 70.6716 143.25 71.2113 143.27 71.7511C143.281 72.096 143.291 72.441 143.301 72.7859C143.31 73.0266 143.31 73.0266 143.32 73.2721C143.342 74.1573 143.297 74.8437 142.865 75.6267C141.969 76.2747 141.969 76.2747 141.349 76.2747C141.349 76.4172 141.349 76.5598 141.349 76.7067C140.985 76.9611 140.62 77.2149 140.253 77.4652C139.695 77.8925 139.281 78.3907 138.838 78.9315C138.263 79.626 137.638 80.235 136.923 80.7835C136.345 81.2617 135.894 81.7704 135.421 82.3486C134.968 82.871 134.479 83.3493 133.986 83.8344C133.695 84.1251 133.695 84.1251 133.397 84.4216C132.8 85.0178 132.202 85.6141 131.604 86.2103C131.412 86.4046 131.219 86.599 131.021 86.7992C130.521 87.2902 130.521 87.2902 129.993 87.6952C129.401 88.1849 128.95 88.7158 128.461 89.3042C128.041 89.7765 127.556 90.1451 127.056 90.5301C126.985 90.6726 126.913 90.8152 126.84 90.9621C126.697 90.9621 126.554 90.9621 126.406 90.9621C126.406 91.1046 126.406 91.2472 126.406 91.3941C126.092 91.7024 126.092 91.7024 125.655 92.0623C124.66 92.9059 123.748 93.8133 122.833 94.7419C121.963 95.6257 121.097 96.5006 120.153 97.3068C119.038 98.2637 118.018 99.3135 116.986 100.358C115.689 101.67 114.382 102.939 112.979 104.138C112.529 104.539 112.084 104.945 111.639 105.352C111.532 105.45 111.425 105.547 111.315 105.648C110.821 106.1 110.337 106.557 109.863 107.031C109.145 107.745 108.403 108.431 107.66 109.119C106.416 110.273 105.197 111.445 104.02 112.668C103.766 112.928 103.501 113.178 103.234 113.425C103.091 113.425 102.948 113.425 102.801 113.425C102.746 113.552 102.692 113.68 102.636 113.811C102.334 114.349 102.017 114.64 101.542 115.032C100.84 115.615 100.193 116.231 99.5524 116.881C97.4527 119.005 97.4527 119.005 96.5746 119.729C96.0713 120.146 95.6509 120.576 95.2346 121.079C94.4481 122.026 93.519 123.057 92.3804 123.566C91.9444 123.758 91.9444 123.758 91.7806 124.178C91.4289 124.876 90.8601 125.323 90.2807 125.831C90.0535 126.033 89.8265 126.235 89.5997 126.438C89.4887 126.537 89.3778 126.636 89.2634 126.737C88.7794 127.18 88.3218 127.649 87.8579 128.113C87.5806 128.354 87.301 128.593 87.0187 128.828C86.2354 129.5 85.5749 130.23 84.9224 131.028C84.8191 131.135 84.7158 131.242 84.6094 131.352C84.4665 131.352 84.3235 131.352 84.1763 131.352C84.0892 131.56 84.0892 131.56 84.0003 131.771C83.7432 132.216 83.7432 132.216 83.0935 132.432C83.0935 132.575 83.0935 132.717 83.0935 132.864C82.7678 133.184 82.7678 133.184 82.322 133.553C81.7296 134.054 81.1681 134.56 80.63 135.119C79.87 135.891 79.0422 136.554 78.1827 137.213C77.6903 137.586 77.6903 137.586 77.3587 137.965C76.8446 138.524 76.4049 138.692 75.6651 138.799C73.5649 138.882 73.5649 138.882 72.794 138.222C72.5322 137.922 72.5322 137.922 72.2652 137.616C72.0559 137.417 71.8438 137.222 71.6291 137.029C71.5202 136.93 71.4113 136.831 71.2991 136.729C71.1892 136.63 71.0792 136.531 70.9658 136.428C68.8767 134.54 68.8767 134.54 68.1776 133.634C67.6981 133.057 67.1881 132.608 66.6083 132.135C66.085 131.684 65.6075 131.193 65.1186 130.704C64.6897 130.304 64.2547 129.91 63.8192 129.516C63.0038 128.78 62.2102 128.03 61.437 127.249C61.3052 127.117 61.1735 126.986 61.0377 126.85C60.9193 126.732 60.801 126.614 60.679 126.493C60.4843 126.299 60.4843 126.299 60.2856 126.101C59.9861 125.802 59.6892 125.5 59.3932 125.197C58.7998 124.619 58.1823 124.08 57.5524 123.543C57.2288 123.254 56.9155 122.954 56.6091 122.648C56.1651 122.206 55.7172 121.781 55.2539 121.36C55.0539 121.178 55.0539 121.178 54.85 120.993C54.5726 120.741 54.2945 120.49 54.0158 120.24C53.818 120.06 53.818 120.06 53.6161 119.875C53.496 119.767 53.3759 119.658 53.2521 119.547C52.991 119.257 52.991 119.257 52.991 118.825C52.7766 118.754 52.5622 118.682 52.3413 118.609C51.9707 118.259 51.6109 117.897 51.2584 117.529C51.0858 117.357 50.9131 117.185 50.7352 117.007C46.7106 112.993 46.7106 112.993 46.2125 112.496C45.6131 111.899 45.0125 111.303 44.4114 110.707C43.2333 109.539 42.0562 108.37 40.8798 107.2C40.1692 106.494 39.4581 105.788 38.7462 105.082C38.0559 104.399 37.3668 103.714 36.6783 103.028C36.4157 102.767 36.1528 102.507 35.8895 102.246C35.523 101.884 35.1578 101.52 34.7929 101.156C34.6832 101.048 34.5736 100.94 34.4606 100.829C33.7167 100.083 33.7167 100.083 33.7167 99.6017C33.5981 99.5541 33.4794 99.5065 33.3572 99.4574C32.6912 99.0793 32.2004 98.5672 31.6729 98.0223C31.5722 97.92 31.4716 97.8176 31.3679 97.7122C31.0674 97.4067 30.7678 97.1003 30.4682 96.7938C29.366 95.6741 28.2096 94.6129 27.0548 93.5476C26.1729 92.7265 25.3828 91.8937 24.621 90.9621C24.3484 90.7068 24.0693 90.4581 23.7818 90.2196C23.178 89.7044 22.5911 89.1802 22.0222 88.6267C21.8971 88.505 21.7721 88.3833 21.6432 88.258C21.3725 87.9382 21.3725 87.9382 21.3725 87.5062C21.1916 87.4862 21.1916 87.4862 21.0071 87.4657C20.0318 87.124 19.4458 86.2394 18.8008 85.4678C18.2294 84.7898 17.6058 84.2299 16.9152 83.6749C16.6081 83.4024 16.6081 83.4024 16.3915 82.9704C16.0307 82.7542 15.6697 82.5383 15.3087 82.3224C14.5622 81.7012 13.8539 81.0398 13.1431 80.3785C12.9584 80.2081 12.9584 80.2081 12.77 80.0343C12.2842 79.571 12.0609 79.3004 11.8437 78.6506C11.7007 78.6506 11.5578 78.6506 11.4105 78.6506C11.7248 77.9192 12.1309 77.4651 12.7099 76.9227C12.927 76.7072 13.1437 76.4913 13.3596 76.2747C14.8756 77.7866 14.8756 77.7866 15.3738 78.3038C16.038 78.9432 16.7413 79.4968 17.4743 80.0545C18.4051 80.7627 19.2541 81.4835 20.0731 82.3224C20.3592 82.5775 20.6477 82.8298 20.9394 83.0784C21.784 83.81 22.6 84.5373 23.281 85.4273C23.9384 86.2142 24.7069 86.8434 25.4872 87.5062C25.8494 87.8153 26.2103 88.1258 26.5701 88.4377C26.818 88.6503 26.818 88.6503 27.0709 88.8671C27.4363 89.2341 27.4363 89.2341 27.4363 89.6661C27.6265 89.75 27.6265 89.75 27.8206 89.8356C28.3391 90.118 28.6731 90.4215 29.0842 90.8431C29.23 90.9908 29.3757 91.1385 29.5258 91.2907C29.676 91.4451 29.8262 91.5995 29.981 91.7585C30.995 92.7959 32.0166 93.7959 33.1271 94.731C33.4847 95.0521 33.7815 95.3806 34.0822 95.7544C34.5699 96.346 35.0613 96.7586 35.6658 97.2258C36.2855 97.8122 36.8514 98.4223 37.3983 99.0752C37.925 99.6972 38.4823 100.184 39.1308 100.682C39.737 101.255 40.2907 101.85 40.8227 102.491C41.4225 103.199 42.0844 103.788 42.7904 104.389C43.5554 105.055 44.3133 105.746 44.9781 106.513C44.9781 106.656 44.9781 106.799 44.9781 106.945C45.1535 107.018 45.1535 107.018 45.3325 107.092C46.0062 107.468 46.5421 107.963 47.1031 108.484C47.2188 108.591 47.3344 108.697 47.4536 108.807C48.2196 109.521 48.9149 110.268 49.5877 111.07C50.1617 111.705 50.8138 112.246 51.4615 112.804C51.841 113.148 52.1594 113.484 52.4766 113.884C52.884 114.376 53.2359 114.727 53.7219 115.126C54.2584 115.57 54.7116 116.022 55.1566 116.557C56.1735 117.754 57.3523 118.786 58.5083 119.847C59.1399 120.427 59.7479 121.026 60.3542 121.633C60.8013 122.056 61.2541 122.472 61.7077 122.888C61.8308 123.001 61.9539 123.115 62.0808 123.231C62.9393 124.019 63.8068 124.795 64.6855 125.56C65.2088 126.034 65.7026 126.533 66.2014 127.033C66.4089 127.24 66.6164 127.447 66.824 127.654C71.2095 132.027 71.2095 132.027 71.5262 132.343C71.8249 132.641 72.1237 132.939 72.4226 133.236C72.7603 133.574 73.0957 133.913 73.4293 134.255C74.0972 134.905 74.7987 135.506 75.5137 136.104C75.6058 135.902 75.6058 135.902 75.6998 135.697C76.029 135.088 76.4873 134.806 77.0296 134.376C77.2372 134.142 77.4399 133.903 77.6387 133.661C78.3663 132.791 79.1981 132.084 80.0616 131.352C81.7378 129.918 83.287 128.367 84.8364 126.798C85.7481 125.879 86.6752 125.002 87.6586 124.159C88.3719 123.53 89.0324 122.85 89.6987 122.173C90.6743 121.189 91.6513 120.227 92.7137 119.335C93.055 119.041 93.3661 118.731 93.6781 118.406C94.1383 117.961 94.1383 117.961 94.5714 117.961C94.6429 117.747 94.7143 117.533 94.788 117.313C95.0967 117.01 95.0967 117.01 95.5053 116.678C96.32 115.991 97.0721 115.262 97.8199 114.505C98.6612 113.655 99.5153 112.844 100.43 112.072C101.12 111.459 101.754 110.791 102.393 110.125C102.801 109.753 102.801 109.753 103.234 109.753C103.292 109.615 103.35 109.477 103.41 109.335C103.667 108.889 103.667 108.889 104.317 108.673C104.388 108.459 104.46 108.246 104.533 108.025C104.676 108.025 104.819 108.025 104.966 108.025C105.025 107.887 105.083 107.749 105.142 107.607C105.4 107.161 105.4 107.161 106.049 106.945C106.049 106.803 106.049 106.66 106.049 106.513C106.39 106.171 106.39 106.171 106.848 105.784C107.007 105.649 107.166 105.513 107.33 105.374C107.659 105.102 107.996 104.84 108.337 104.583C108.987 104.035 109.505 103.412 110.045 102.757C110.156 102.642 110.266 102.528 110.381 102.41C110.524 102.41 110.666 102.41 110.814 102.41C110.871 102.282 110.929 102.154 110.988 102.022C111.68 100.747 113.009 99.8069 114.096 98.8727C114.43 98.5792 114.749 98.2687 115.064 97.9548C115.578 97.4418 115.578 97.4418 116.214 96.9288C116.866 96.4028 117.376 95.7965 117.896 95.1427C117.989 95.0461 118.081 94.9495 118.177 94.8499C118.32 94.8499 118.463 94.8499 118.61 94.8499C118.667 94.7218 118.724 94.5937 118.782 94.4617C119.056 93.9624 119.33 93.667 119.75 93.2857C119.89 93.1579 120.029 93.0301 120.173 92.8984C120.318 92.7673 120.463 92.6361 120.613 92.501C120.899 92.2408 121.184 91.9804 121.469 91.7197C121.608 91.5939 121.746 91.4682 121.889 91.3386C122.278 90.9753 122.649 90.6 123.019 90.2179C123.591 89.6661 123.591 89.6661 124.024 89.6661C124.083 89.5365 124.141 89.4068 124.201 89.2732C124.457 88.8022 124.692 88.5331 125.088 88.1778C125.216 88.0619 125.343 87.9459 125.475 87.8265C125.612 87.703 125.75 87.5795 125.892 87.4522C127.285 86.1824 128.63 84.8744 129.951 83.5308C130.773 82.7004 131.618 81.9152 132.508 81.1576C132.91 80.8048 133.287 80.4359 133.661 80.0545C134.322 79.3834 135.019 78.7685 135.735 78.1562C136.136 77.8004 136.51 77.4295 136.883 77.0442C137.451 76.4907 137.451 76.4907 137.884 76.4907C137.956 76.2768 138.027 76.063 138.101 75.8427C138.424 75.5698 138.747 75.2975 139.077 75.0336C139.827 74.4048 140.13 73.7105 140.483 72.8188C140.626 72.6763 140.769 72.5337 140.916 72.3869C140.702 72.3156 140.487 72.2443 140.267 72.1709C140.247 71.9798 140.247 71.9798 140.228 71.7849C139.254 62.4189 137.191 53.6042 132.903 45.172C132.815 44.9954 132.726 44.8188 132.635 44.6369C130.533 40.4558 127.884 36.6704 124.89 33.0765C124.547 32.6583 124.204 32.2398 123.862 31.8211C123.619 31.5266 123.619 31.5266 123.372 31.2262C123.125 30.9251 122.88 30.6227 122.639 30.3167C122.049 29.5744 121.39 28.9772 120.67 28.3669C120.233 27.9861 119.808 27.599 119.386 27.2026C119.188 27.0167 119.188 27.0167 118.986 26.8272C118.723 26.5797 118.46 26.3315 118.199 26.0825C117.441 25.3712 116.675 24.7821 115.795 24.2209C115.494 23.9904 115.196 23.7565 114.901 23.5189C113.551 22.4597 112.126 21.4743 110.628 20.6334C110.398 20.4847 110.398 20.4847 110.164 20.333C110.164 20.1905 110.164 20.0479 110.164 19.9011C109.983 19.8482 109.801 19.7953 109.614 19.7408C108.775 19.4366 108.034 19.0263 107.268 18.5781C105.015 17.2896 102.721 16.0526 100.289 15.1324C99.698 14.9061 99.1189 14.6564 98.5372 14.4068C93.9624 12.5219 89.0682 11.5139 84.1763 10.8294C83.8304 10.7756 83.8304 10.7756 83.4776 10.7206C80.8137 10.3391 78.1614 10.2931 75.4731 10.2895C75.2312 10.289 74.9893 10.2885 74.7401 10.2879C70.2699 10.2918 66.0122 10.7178 61.6536 11.6934C61.5109 11.7252 61.3682 11.757 61.2213 11.7897C58.6335 12.3717 56.1315 13.0496 53.6629 14.0217C53.0669 14.2555 52.4687 14.4773 51.8658 14.6928C49.3843 15.5912 47.0819 16.6665 44.7706 17.9352C44.1679 18.2595 43.552 18.5536 42.9342 18.8481C41.5851 19.5153 40.3613 20.3345 39.1308 21.197C38.9424 21.3276 38.7539 21.4582 38.5598 21.5927C37.1489 22.5919 35.8121 23.6722 34.4897 24.7842C33.7571 25.3909 33.1278 25.8828 32.2008 26.1648C32.2008 26.3074 32.2008 26.4499 32.2008 26.5968C31.8364 26.8512 31.4716 27.105 31.1044 27.3553C30.5452 27.7837 30.1303 28.2836 29.6857 28.8259C29.1378 29.4878 28.5109 30.0726 27.8855 30.661C26.5341 31.9609 25.391 33.3745 24.2574 34.8615C23.992 35.2093 23.7237 35.555 23.4553 35.9004C22.2305 37.4943 21.137 39.1496 20.0731 40.8522C19.9576 41.0337 19.842 41.2152 19.7229 41.4023C18.7102 43.0292 17.8784 44.747 17.0412 46.4679C16.927 46.6996 16.8129 46.9312 16.6952 47.1699C13.0793 54.7096 11.335 63.4532 11.0155 71.7667C10.9489 72.8515 10.9489 72.8515 10.7608 73.2508C10.2414 73.5242 10.2414 73.5242 9.59681 73.7368C9.2794 73.8454 9.2794 73.8454 8.95557 73.9562C8.37863 74.1148 8.37863 74.1148 7.72894 74.1148C7.56547 69.6556 7.95448 65.5427 8.81176 61.1553C8.86156 60.8914 8.91135 60.6276 8.96266 60.3557C9.64457 56.7737 10.5762 53.3438 11.8437 49.9238C11.9377 49.6701 11.9377 49.6701 12.0336 49.4112C12.5908 47.9281 13.212 46.5421 14.0093 45.172C14.1674 44.8087 14.3253 44.4453 14.4771 44.0794C15.9222 40.7477 17.906 37.7065 20.0731 34.8044C20.2297 34.5926 20.3863 34.3807 20.5477 34.1624C22.273 31.8432 24.0604 29.4848 26.1369 27.4607C26.2799 27.4607 26.4228 27.4607 26.5701 27.4607C26.6773 27.14 26.6773 27.14 26.7866 26.8128C27.0954 26.5023 27.0954 26.5023 27.504 26.1648C28.2581 25.5296 28.9793 24.87 29.6967 24.1939C31.3005 22.71 33.04 21.4101 34.7995 20.1171C34.9507 20.0053 35.1018 19.8935 35.2575 19.7784C38.4183 17.453 41.7653 15.5028 45.297 13.7926C45.9552 13.4727 46.6034 13.139 47.252 12.8004C48.1395 12.3548 48.9865 12.107 49.9591 11.9094C49.9591 11.7668 49.9591 11.6243 49.9591 11.4774C67.6327 5.86068 86.1432 4.84003 103.353 12.7489Z" fill="white"/>
<path d="M75.2973 16.2291C75.4402 16.2291 75.5832 16.2291 75.7304 16.2291C75.7304 19.3653 75.7304 22.5015 75.7304 25.7327C75.9448 25.7327 76.1592 25.7327 76.3801 25.7327C76.3801 25.8753 76.3801 26.0178 76.3801 26.1647C76.5231 26.1647 76.666 26.1647 76.8133 26.1647C76.8133 26.3072 76.8133 26.4498 76.8133 26.5967C76.9874 26.6702 76.9874 26.6702 77.1652 26.7452C77.8495 27.1223 78.3872 27.5989 78.9789 28.1086C78.9789 27.966 78.9789 27.8235 78.9789 27.6766C79.1218 27.6766 79.2648 27.6766 79.412 27.6766C79.5058 27.9172 79.5996 28.1577 79.6963 28.4056C79.9966 29.2264 79.9966 29.2264 80.7114 29.6205C80.7114 29.7631 80.7114 29.9056 80.7114 30.0525C80.8376 30.1051 80.9638 30.1578 81.0938 30.212C81.662 30.532 81.9728 30.8897 82.3898 31.389C83.2091 32.3345 84.086 33.1372 85.0427 33.9404C85.405 34.2493 85.766 34.5598 86.1255 34.8718C86.2908 35.0135 86.4561 35.1553 86.6263 35.3013C86.9918 35.6683 86.9918 35.6683 86.9918 36.1003C87.1727 36.1804 87.1727 36.1804 87.3572 36.2623C87.9499 36.5818 88.4377 36.9501 88.9409 37.3962C88.9409 37.5388 88.9409 37.6813 88.9409 37.8282C89.0838 37.8282 89.2267 37.8282 89.374 37.8282C89.6689 38.1832 89.9565 38.5442 90.2403 38.9081C90.7502 39.4428 91.2491 39.9318 91.8374 40.3796C92.3452 40.8016 92.7271 41.2141 93.1504 41.716C93.6204 42.2691 94.05 42.7074 94.6663 43.093C94.8494 43.2088 95.0326 43.3246 95.2213 43.444C95.2213 43.5865 95.2213 43.7291 95.2213 43.8759C95.3452 43.9266 95.4692 43.9773 95.5969 44.0295C96.2013 44.3725 96.5546 44.7816 97.0079 45.3069C97.7741 46.1793 98.5668 47.0046 99.3969 47.8161C99.7691 48.1958 99.7691 48.1958 100.27 48.8302C100.616 49.3335 100.616 49.3335 101.285 49.4917C101.619 49.8452 101.619 49.8452 101.975 50.2882C102.645 51.0828 103.349 51.6689 104.208 52.2506C104.315 52.3381 104.423 52.4255 104.534 52.5156C104.534 52.6581 104.534 52.8007 104.534 52.9476C104.676 52.9476 104.819 52.9476 104.967 52.9476C104.967 53.0901 104.967 53.2327 104.967 53.3795C105.154 53.4597 105.154 53.4597 105.346 53.5415C105.904 53.851 106.279 54.1969 106.699 54.6755C106.699 54.818 106.699 54.9606 106.699 55.1075C106.887 55.1876 106.887 55.1876 107.078 55.2695C107.637 55.579 108.012 55.9248 108.432 56.4034C108.432 56.546 108.432 56.6885 108.432 56.8354C108.619 56.9156 108.619 56.9156 108.811 56.9974C109.369 57.3069 109.744 57.6528 110.164 58.1313C110.164 58.2739 110.164 58.4164 110.164 58.5633C110.334 58.6301 110.504 58.697 110.679 58.7658C111.247 58.9953 111.247 58.9953 111.68 59.2113C111.816 59.7648 111.816 59.7648 111.897 60.2912C112.183 60.2912 112.468 60.2912 112.763 60.2912C113.331 60.8177 113.331 60.8177 113.846 61.3712C113.989 61.4425 114.132 61.5138 114.279 61.5872C114.279 61.801 114.279 62.0149 114.279 62.2352C114.422 62.2352 114.565 62.2352 114.712 62.2352C114.712 62.3777 114.712 62.5203 114.712 62.6671C114.926 62.7384 115.141 62.8097 115.362 62.8831C115.362 63.0257 115.362 63.1682 115.362 63.3151C115.576 63.3864 115.791 63.4577 116.011 63.5311C116.011 63.6737 116.011 63.8162 116.011 63.9631C116.154 63.9631 116.297 63.9631 116.445 63.9631C116.663 64.3222 116.879 64.6823 117.094 65.043C117.309 65.1856 117.523 65.3282 117.744 65.475C117.744 65.6176 117.744 65.7601 117.744 65.907C117.905 65.9605 118.066 66.0139 118.231 66.069C118.896 66.3704 119.192 66.6749 119.693 67.203C119.985 67.4517 120.279 67.6991 120.573 67.9454C121.237 68.5188 121.637 69.0342 122.075 69.7948C122.745 70.5382 123.464 71.2035 124.241 71.8333C124.907 72.4006 125.453 73.0023 126.015 73.6692C126.484 74.2023 126.985 74.6947 127.489 75.1946C127.914 75.631 128.332 76.0731 128.748 76.5176C128.857 76.6309 128.966 76.7442 129.078 76.861C129.872 77.712 129.872 77.712 129.872 78.4345C125.274 78.3437 125.274 78.3437 123.956 77.5941C123.483 77.098 123.483 77.098 123.138 76.6163C122.768 76.1166 122.444 75.8016 121.973 75.4066C120.844 74.4339 119.802 73.3822 118.752 72.326C118.541 72.1138 118.329 71.9017 118.117 71.6896C117.338 70.91 116.56 70.1292 115.783 69.3484C115.123 68.686 114.462 68.0241 113.802 67.3627C113.496 67.0561 113.19 66.7488 112.885 66.4415C111.907 65.4625 110.919 64.5127 109.865 63.6154C109.425 63.238 109.014 62.8372 108.608 62.4242C108.475 62.29 108.342 62.1558 108.206 62.0175C108.066 61.8755 107.926 61.7335 107.782 61.5872C107.61 61.416 107.439 61.2447 107.262 61.0683C106.882 60.6893 106.503 60.3091 106.126 59.9276C104.691 58.48 104.691 58.48 103.155 57.1408C102.65 56.7048 102.187 56.2294 101.718 55.7554C101.078 55.1113 100.437 54.4681 99.7962 53.825C99.6278 53.6553 99.4595 53.4856 99.2861 53.3108C98.4265 52.4499 97.5604 51.6169 96.6231 50.8404C95.9541 50.2769 95.3596 49.6724 94.8287 48.9787C94.3064 48.3536 93.734 47.8628 93.1148 47.336C92.3889 46.6928 91.716 46.0005 91.0388 45.3069C90.5808 44.8607 90.1183 44.4431 89.6337 44.027C88.6937 43.2144 87.822 42.3446 86.9512 41.4595C86.0604 40.5544 85.1877 39.6815 84.1765 38.9081C83.6927 38.4383 83.2209 37.9583 82.7493 37.4764C81.945 36.6633 81.1121 35.9016 80.2453 35.1553C79.727 34.7007 79.2437 34.2175 78.7623 33.7244C78.5613 33.5328 78.3603 33.3412 78.1532 33.1439C77.6795 32.6444 77.6795 32.6444 77.6795 32.2124C77.55 32.159 77.4204 32.1055 77.287 32.0504C76.7512 31.7451 76.5028 31.4239 76.1636 30.9165C75.4394 31.0368 74.857 31.2084 74.2145 31.5645C74.2145 31.707 74.2145 31.8496 74.2145 31.9964C74.0715 31.9964 73.9286 31.9964 73.7813 31.9964C73.7317 32.1189 73.682 32.2414 73.6308 32.3677C73.2741 32.9896 72.8347 33.3638 72.2925 33.8324C71.7451 34.3082 71.2108 34.7751 70.7071 35.297C70.3163 35.6683 70.3163 35.6683 69.8832 35.6683C69.8095 35.8504 69.8095 35.8504 69.7343 36.0361C69.3701 36.6718 68.9149 37.0723 68.3672 37.5582C68.1752 37.7308 67.9831 37.9034 67.7852 38.0813C67.2844 38.4762 67.2844 38.4762 66.8513 38.4762C66.7798 38.69 66.7083 38.9038 66.6347 39.1241C66.4918 39.1241 66.3488 39.1241 66.2016 39.1241C66.2016 39.2667 66.2016 39.4092 66.2016 39.5561C65.8905 39.8621 65.8905 39.8621 65.456 40.22C64.4316 41.0894 63.4853 42.0218 62.5377 42.9732C62.3601 43.1506 62.1825 43.3281 61.9994 43.511C61.437 44.0731 60.8754 44.636 60.3137 45.1989C59.9344 45.5783 59.555 45.9577 59.1755 46.337C58.3305 47.182 57.486 48.0275 56.6417 48.8732C56.3009 49.2143 55.9598 49.555 55.6182 49.8954C55.2745 50.2382 54.9323 50.5826 54.5908 50.9277C53.3361 52.1918 52.0664 53.4186 50.6774 54.5371C50.1366 54.973 49.6915 55.3873 49.2554 55.9309C49.1303 56.0868 49.0053 56.2428 48.8764 56.4034C48.7335 56.4034 48.5905 56.4034 48.4433 56.4034C48.4433 56.546 48.4433 56.6885 48.4433 56.8354C47.9379 57.3826 47.424 57.8666 46.8326 58.3203C46.3737 58.6999 46.0433 59.0412 45.6685 59.4948C45.2244 60.0277 44.7713 60.4849 44.238 60.9282C42.9364 62.0492 41.7464 63.2836 40.5387 64.5031C36.5904 68.4896 36.5904 68.4896 35.6325 68.9288C35.1567 69.1297 35.1567 69.1297 35.0163 69.7948C34.7227 70.0826 34.7227 70.0826 34.326 70.4023C33.4348 71.1525 32.6239 71.9623 31.8084 72.7917C30.721 73.8928 29.6087 74.8896 28.3933 75.8493C27.0935 76.8872 27.0935 76.8872 26.1371 78.2185C25.1626 78.2311 24.1881 78.2387 23.2135 78.2455C22.9388 78.2491 22.6641 78.2527 22.3811 78.2565C18.9306 78.2744 18.9306 78.2744 17.7858 77.3275C17.6116 77.1226 17.4374 76.9177 17.2579 76.7066C17.1226 76.5665 16.9872 76.4265 16.8477 76.2822C16.7061 76.1327 16.5646 75.9831 16.4188 75.8291C16.2853 75.6885 16.1519 75.5479 16.0144 75.403C15.742 74.9786 15.742 74.9786 15.7572 74.5466C16.0118 74.0004 16.3329 73.6787 16.7707 73.2642C16.9273 73.1141 17.0839 72.9641 17.2453 72.8094C17.3924 72.6699 17.5395 72.5305 17.6911 72.3867C17.8831 72.1907 18.0752 71.9947 18.2731 71.7928C18.7739 71.3068 18.7739 71.3068 19.3018 70.9018C19.7607 70.5222 20.0911 70.1809 20.4658 69.7273C21.0603 69.015 21.7125 68.4291 22.4208 67.8315C23.1286 67.2073 23.7766 66.5271 24.43 65.8471C24.8377 65.475 24.8377 65.475 25.2708 65.475C25.3244 65.3503 25.378 65.2256 25.4333 65.097C25.7436 64.5399 26.0904 64.1659 26.5702 63.7471C26.7132 63.7471 26.8561 63.7471 27.0034 63.7471C27.057 63.6224 27.1106 63.4976 27.1658 63.3691C27.4761 62.812 27.8229 62.4379 28.3027 62.0192C28.4457 62.0192 28.5886 62.0192 28.7359 62.0192C28.7359 61.8766 28.7359 61.7341 28.7359 61.5872C29.0007 61.3282 29.0007 61.3282 29.3991 61.0067C30.3105 60.2338 31.1553 59.409 31.9979 58.5633C32.1364 58.4245 32.2749 58.2856 32.4176 58.1426C32.8511 57.7073 33.2841 57.2714 33.7169 56.8354C36.9638 53.5642 36.9638 53.5642 38.2785 52.4547C39.3615 51.4963 40.3535 50.4351 41.3652 49.4026C41.6657 49.0964 41.9675 48.7916 42.2695 48.4868C42.5353 48.2162 42.5353 48.2162 42.8066 47.9402C43.2457 47.5478 43.2457 47.5478 43.6788 47.5478C43.6788 47.4052 43.6788 47.2627 43.6788 47.1158C43.9724 46.8281 43.9724 46.8281 44.3691 46.5083C45.2051 45.8163 45.9599 45.0684 46.7141 44.2885C46.8694 44.1301 47.0246 43.9717 47.1845 43.8084C47.3305 43.6578 47.4765 43.5072 47.6269 43.352C48.0101 43.012 48.0101 43.012 48.4433 43.012C48.5147 42.7981 48.5862 42.5843 48.6598 42.364C49.0295 42.0004 49.0295 42.0004 49.4855 41.6215C49.9836 41.202 50.4511 40.792 50.9067 40.3256C51.2586 39.9881 51.2586 39.9881 51.6917 39.9881C51.7633 39.8106 51.7633 39.8106 51.8364 39.6295C52.2155 38.9653 52.729 38.4758 53.2754 37.9497C53.4293 37.7991 53.4293 37.7991 53.5863 37.6455C53.8926 37.3458 54.1998 37.047 54.5071 36.7482C55.2387 36.0214 55.9658 35.2902 56.692 34.558C57.2684 33.9773 57.846 33.3978 58.4236 32.8184C58.7287 32.5118 59.0335 32.2049 59.3379 31.8977C59.778 31.4534 60.2196 31.0106 60.6614 30.568C60.7979 30.4297 60.9344 30.2913 61.075 30.1488C61.4042 29.8204 61.7445 29.5033 62.0868 29.1886C62.2298 29.1886 62.3727 29.1886 62.52 29.1886C62.52 29.046 62.52 28.9034 62.52 28.7566C62.8135 28.4689 62.8135 28.4689 63.2103 28.1491C64.2177 27.3131 65.0975 26.4072 65.9579 25.4222C66.4842 24.8254 67.0075 24.28 67.6228 23.7753C68.1423 23.3483 68.583 22.9115 69.0169 22.3983C70.6909 20.4373 72.5812 18.5775 74.5571 16.9201C74.8947 16.6426 74.8947 16.6426 75.2973 16.2291Z" fill="white"/>
<path d="M141.417 72.9132C141.999 73.0347 141.999 73.0347 142.216 73.2507C142.231 73.6869 142.234 74.1237 142.229 74.5601C142.227 74.7987 142.225 75.0374 142.223 75.2832C142.22 75.5601 142.22 75.5601 142.216 75.8426C141.93 75.9851 141.644 76.1277 141.349 76.2746C141.349 76.4171 141.349 76.5597 141.349 76.7065C140.985 76.9609 140.62 77.2147 140.253 77.465C139.695 77.8923 139.281 78.3906 138.838 78.9314C138.263 79.6259 137.638 80.2349 136.923 80.7834C136.345 81.2616 135.895 81.7702 135.421 82.3485C134.968 82.8709 134.479 83.3492 133.986 83.8342C133.792 84.028 133.598 84.2218 133.397 84.4215C132.8 85.0177 132.202 85.6139 131.604 86.2101C131.412 86.4045 131.219 86.5988 131.021 86.7991C130.521 87.2901 130.521 87.2901 129.993 87.6951C129.401 88.1847 128.95 88.7157 128.461 89.304C128.041 89.7764 127.557 90.145 127.056 90.53C126.985 90.6725 126.913 90.8151 126.84 90.9619C126.697 90.9619 126.554 90.9619 126.407 90.9619C126.407 91.1045 126.407 91.2471 126.407 91.3939C126.092 91.7023 126.092 91.7023 125.655 92.0622C124.661 92.9058 123.748 93.8131 122.833 94.7418C121.963 95.6256 121.097 96.5005 120.153 97.3067C119.038 98.2636 118.018 99.3133 116.986 100.358C115.689 101.67 114.382 102.939 112.979 104.137C112.529 104.539 112.084 104.945 111.64 105.352C111.532 105.45 111.425 105.547 111.315 105.648C110.821 106.099 110.337 106.557 109.863 107.03C109.146 107.745 108.403 108.43 107.66 109.119C106.416 110.273 105.197 111.445 104.02 112.668C103.766 112.928 103.501 113.178 103.234 113.425C103.091 113.425 102.948 113.425 102.801 113.425C102.747 113.552 102.692 113.679 102.636 113.811C102.334 114.349 102.017 114.64 101.542 115.031C100.84 115.615 100.194 116.231 99.5525 116.881C97.4528 119.005 97.4528 119.005 96.5747 119.729C96.0714 120.146 95.651 120.576 95.2347 121.079C94.4482 122.026 93.5191 123.056 92.3805 123.566C91.9445 123.758 91.9445 123.758 91.7807 124.178C91.429 124.876 90.8602 125.323 90.2808 125.831C90.0536 126.033 89.8266 126.235 89.5998 126.438C89.4334 126.586 89.4334 126.586 89.2635 126.737C88.7795 127.18 88.3219 127.649 87.858 128.112C87.5807 128.354 87.3011 128.592 87.0188 128.828C86.2355 129.5 85.575 130.23 84.9225 131.027C84.8192 131.135 84.7159 131.242 84.6095 131.352C84.4666 131.352 84.3237 131.352 84.1764 131.352C84.1183 131.49 84.0603 131.628 84.0004 131.771C83.7433 132.216 83.7433 132.216 83.0936 132.432C83.0936 132.575 83.0936 132.717 83.0936 132.864C82.7679 133.184 82.7679 133.184 82.3221 133.553C81.7297 134.053 81.1682 134.56 80.6301 135.119C79.8702 135.89 79.0423 136.554 78.1828 137.213C77.6904 137.586 77.6904 137.586 77.3588 137.965C76.8447 138.524 76.405 138.692 75.6652 138.799C73.565 138.882 73.565 138.882 72.7941 138.222C72.5323 137.922 72.5323 137.922 72.2653 137.616C72.056 137.417 71.8439 137.222 71.6292 137.029C71.5203 136.93 71.4114 136.831 71.2993 136.729C71.1893 136.63 71.0793 136.53 70.9659 136.428C68.8768 134.54 68.8768 134.54 68.1777 133.634C67.6982 133.057 67.1882 132.607 66.6084 132.135C66.0851 131.684 65.6076 131.193 65.1187 130.704C64.6898 130.304 64.2548 129.91 63.8193 129.516C63.004 128.779 62.2103 128.03 61.4371 127.248C61.3053 127.117 61.1736 126.986 61.0378 126.85C60.9194 126.732 60.8011 126.614 60.6791 126.492C60.5493 126.363 60.4195 126.234 60.2858 126.101C59.9862 125.802 59.6894 125.499 59.3933 125.197C58.7999 124.619 58.1824 124.08 57.5525 123.543C57.2289 123.254 56.9156 122.954 56.6092 122.648C56.1652 122.206 55.7173 121.781 55.254 121.36C55.1207 121.239 54.9874 121.118 54.8501 120.993C54.5727 120.741 54.2946 120.49 54.0159 120.24C53.884 120.12 53.7521 119.999 53.6162 119.875C53.4961 119.767 53.376 119.658 53.2522 119.546C52.9911 119.257 52.9911 119.257 52.9911 118.825C52.7767 118.753 52.5623 118.682 52.3414 118.609C51.9708 118.259 51.611 117.897 51.2586 117.529C51.0859 117.357 50.9132 117.184 50.7353 117.007C46.7107 112.993 46.7107 112.993 46.2126 112.496C45.6132 111.898 45.0126 111.302 44.4115 110.707C43.2334 109.539 42.0563 108.37 40.8799 107.2C40.1693 106.494 39.4582 105.787 38.7463 105.082C38.056 104.399 37.3669 103.714 36.6784 103.028C36.4158 102.767 36.1529 102.507 35.8896 102.246C35.5231 101.884 35.1579 101.52 34.793 101.156C34.6833 101.048 34.5737 100.94 34.4607 100.829C33.7168 100.083 33.7168 100.083 33.7168 99.6016C33.5388 99.5302 33.5388 99.5302 33.3573 99.4573C32.6913 99.0792 32.2005 98.5671 31.673 98.0222C31.5723 97.9198 31.4717 97.8175 31.368 97.7121C31.0675 97.4065 30.7679 97.1001 30.4683 96.7937C29.3661 95.674 28.2098 94.6128 27.0549 93.5475C26.173 92.7263 25.3829 91.8936 24.6211 90.9619C24.3485 90.7066 24.0694 90.458 23.7819 90.2195C23.1781 89.7043 22.5912 89.1801 22.0223 88.6265C21.8973 88.5049 21.7722 88.3832 21.6433 88.2578C21.3726 87.9381 21.3726 87.9381 21.3726 87.5061C21.252 87.4927 21.1314 87.4794 21.0072 87.4656C20.0319 87.1238 19.4459 86.2393 18.8009 85.4677C18.2295 84.7897 17.6059 84.2298 16.9153 83.6748C16.6082 83.4023 16.6082 83.4023 16.3916 82.9703C16.0308 82.7541 15.6698 82.5382 15.3088 82.3223C14.5623 81.7011 13.854 81.0397 13.1432 80.3784C13.0201 80.2648 12.8969 80.1512 12.7701 80.0342C12.2843 79.5709 12.061 79.3003 11.8438 78.6505C11.7008 78.6505 11.5579 78.6505 11.4106 78.6505C11.7249 77.9191 12.131 77.465 12.71 76.9225C12.9271 76.7071 13.1438 76.4912 13.3597 76.2746C14.8757 77.7865 14.8757 77.7865 15.3739 78.3037C16.0381 78.9431 16.7414 79.4967 17.4745 80.0544C18.4052 80.7625 19.2542 81.4834 20.0732 82.3223C20.3593 82.5773 20.6478 82.8296 20.9395 83.0783C21.7841 83.8098 22.6001 84.5372 23.2811 85.4272C23.9386 86.214 24.707 86.8433 25.4874 87.5061C25.8495 87.8152 26.2104 88.1257 26.5702 88.4376C26.7354 88.5793 26.9007 88.721 27.071 88.867C27.4364 89.234 27.4364 89.234 27.4364 89.666C27.5632 89.7219 27.6901 89.7778 27.8207 89.8354C28.3393 90.1179 28.6732 90.4214 29.0844 90.843C29.3029 91.0645 29.3029 91.0645 29.5259 91.2906C29.6761 91.445 29.8263 91.5993 29.9811 91.7584C30.9951 92.7957 32.0167 93.7958 33.1272 94.7309C33.4849 95.052 33.7816 95.3805 34.0823 95.7542C34.57 96.3459 35.0614 96.7585 35.6659 97.2257C36.2856 97.8121 36.8515 98.4222 37.3984 99.0751C37.9251 99.6971 38.4824 100.184 39.1309 100.682C39.7371 101.255 40.2908 101.849 40.8228 102.49C41.4226 103.199 42.0845 103.788 42.7905 104.389C43.5555 105.055 44.3134 105.746 44.9782 106.513C44.9782 106.656 44.9782 106.798 44.9782 106.945C45.1536 107.018 45.1536 107.018 45.3326 107.092C46.0064 107.467 46.5422 107.963 47.1032 108.484C47.2189 108.591 47.3345 108.697 47.4537 108.807C48.2197 109.521 48.915 110.268 49.5878 111.07C50.1618 111.705 50.8139 112.245 51.4616 112.804C51.8411 113.148 52.1595 113.484 52.4767 113.884C52.8841 114.376 53.236 114.727 53.722 115.126C54.2585 115.57 54.7117 116.022 55.1567 116.557C56.1736 117.754 57.3524 118.786 58.5084 119.847C59.14 120.427 59.7481 121.026 60.3543 121.633C60.8014 122.056 61.2542 122.472 61.7078 122.888C61.8925 123.058 61.8925 123.058 62.0809 123.231C62.9394 124.019 63.8069 124.795 64.6856 125.56C65.2089 126.034 65.7027 126.533 66.2015 127.032C66.409 127.239 66.6166 127.446 66.8241 127.653C71.2096 132.027 71.2096 132.027 71.5263 132.343C71.825 132.641 72.1238 132.939 72.4227 133.236C72.7604 133.574 73.0958 133.913 73.4294 134.255C74.0973 134.905 74.7989 135.506 75.5138 136.104C75.5752 135.97 75.6366 135.835 75.6999 135.697C76.0291 135.088 76.4874 134.806 77.0298 134.376C77.2373 134.142 77.4401 133.903 77.6388 133.661C78.3664 132.791 79.1982 132.084 80.0617 131.352C81.7379 129.917 83.2871 128.367 84.8365 126.798C85.7482 125.879 86.6753 125.001 87.6587 124.159C88.372 123.53 89.0325 122.85 89.6988 122.173C90.6744 121.189 91.6514 120.227 92.7138 119.335C93.0551 119.041 93.3662 118.731 93.6782 118.406C94.1384 117.961 94.1384 117.961 94.5715 117.961C94.643 117.747 94.7144 117.533 94.7881 117.313C95.0968 117.01 95.0968 117.01 95.5054 116.678C96.3201 115.991 97.0722 115.262 97.82 114.505C98.6613 113.655 99.5154 112.844 100.43 112.072C101.12 111.459 101.754 110.791 102.393 110.125C102.801 109.753 102.801 109.753 103.234 109.753C103.292 109.615 103.35 109.477 103.41 109.335C103.667 108.889 103.667 108.889 104.317 108.673C104.388 108.459 104.46 108.246 104.533 108.025C104.676 108.025 104.819 108.025 104.967 108.025C105.025 107.887 105.083 107.749 105.143 107.607C105.4 107.161 105.4 107.161 106.049 106.945C106.049 106.803 106.049 106.66 106.049 106.513C106.39 106.171 106.39 106.171 106.848 105.784C107.007 105.649 107.166 105.513 107.33 105.373C107.66 105.102 107.996 104.84 108.337 104.583C108.987 104.034 109.505 103.412 110.045 102.757C110.156 102.642 110.267 102.528 110.381 102.409C110.524 102.409 110.667 102.409 110.814 102.409C110.871 102.282 110.929 102.154 110.988 102.022C111.68 100.747 113.009 99.8068 114.096 98.8726C114.43 98.579 114.749 98.2686 115.064 97.9547C115.578 97.4417 115.578 97.4417 116.214 96.9287C116.867 96.4027 117.376 95.7964 117.896 95.1426C118.035 94.9976 118.035 94.9976 118.177 94.8498C118.32 94.8498 118.463 94.8498 118.61 94.8498C118.696 94.6576 118.696 94.6576 118.783 94.4616C119.056 93.9622 119.33 93.6669 119.751 93.2855C119.89 93.1577 120.029 93.0299 120.173 92.8983C120.318 92.7671 120.464 92.636 120.613 92.5009C120.899 92.2407 121.184 91.9803 121.47 91.7196C121.608 91.5938 121.746 91.468 121.889 91.3385C122.278 90.9752 122.649 90.5999 123.019 90.2178C123.591 89.666 123.591 89.666 124.024 89.666C124.083 89.5363 124.141 89.4066 124.201 89.273C124.457 88.8021 124.692 88.533 125.089 88.1777C125.216 88.0617 125.343 87.9458 125.475 87.8263C125.612 87.7028 125.75 87.5793 125.892 87.4521C127.285 86.1823 128.63 84.8743 129.951 83.5307C130.773 82.7003 131.618 81.9151 132.508 81.1575C132.91 80.8047 133.287 80.4357 133.661 80.0544C134.322 79.3833 135.019 78.7684 135.735 78.156C136.136 77.8003 136.51 77.4294 136.883 77.044C137.451 76.4906 137.451 76.4906 137.884 76.4906C137.956 76.2767 138.027 76.0629 138.101 75.8426C138.411 75.5909 138.722 75.3399 139.037 75.0951C139.455 74.7123 139.735 74.3007 140.05 73.8312C140.608 73.0503 140.608 73.0503 141.417 72.9132Z" fill="white"/>
<path d="M75.2972 16.2291C75.4402 16.2291 75.5831 16.2291 75.7304 16.2291C75.7578 17.6282 75.7768 19.0273 75.7899 20.4266C75.7953 20.9026 75.8027 21.3786 75.8121 21.8546C75.8252 22.5387 75.8313 23.2226 75.8361 23.9069C75.8417 24.1198 75.8473 24.3326 75.8531 24.552C75.8537 26.029 75.8537 26.029 75.2094 26.7378C74.6476 27.0286 74.6476 27.0286 74.2144 27.0286C74.2144 27.1712 74.2144 27.3137 74.2144 27.4606C73.9116 27.7576 73.9116 27.7576 73.4835 28.1086C72.5189 28.9212 71.6467 29.8064 70.7714 30.7131C70.3163 31.1325 70.3163 31.1325 69.8831 31.1325C69.8117 31.3463 69.7402 31.5601 69.6666 31.7804C69.3049 32.0329 68.9427 32.2847 68.577 32.5313C67.958 33.0091 67.4911 33.589 66.9891 34.1842C66.555 34.6792 66.0955 35.0805 65.5518 35.4523C65.4089 35.4523 65.266 35.4523 65.1187 35.4523C65.1187 35.5948 65.1187 35.7374 65.1187 35.8843C64.8006 36.1964 64.8006 36.1964 64.3607 36.5592C63.527 37.2621 62.7667 38.0113 62.014 38.7993C61.6537 39.1241 61.6537 39.1241 61.2205 39.1241C61.2205 39.2667 61.2205 39.4092 61.2205 39.5561C60.872 39.8438 60.872 39.8438 60.4084 40.1636C59.681 40.6853 59.168 41.2197 58.6218 41.932C58.4788 41.932 58.3359 41.932 58.1886 41.932C58.1886 42.0746 58.1886 42.2171 58.1886 42.364C57.8734 42.6728 57.8734 42.6728 57.4357 43.0331C56.2788 44.0137 55.2331 45.0915 54.1763 46.1772C54.0291 46.3263 53.882 46.4754 53.7304 46.629C53.5326 46.8317 53.5326 46.8317 53.3308 47.0385C52.9911 47.3318 52.9911 47.3318 52.558 47.3318C52.5027 47.4574 52.4474 47.5829 52.3905 47.7123C51.6549 49.0509 50.257 50.0506 49.1098 51.0349C48.0628 51.9672 47.096 52.9865 46.1152 53.987C45.6279 54.4595 45.6279 54.4595 45.1135 54.8375C44.5864 55.2881 44.2491 55.7009 43.8412 56.2549C43.1685 57.148 42.4389 57.7594 41.5402 58.4165C40.9756 58.8617 40.5567 59.3631 40.1055 59.9183C39.643 60.4493 39.1113 60.8801 38.5735 61.3332C37.7388 62.0799 36.9624 62.885 36.184 63.6894C35.8747 64.0044 35.5546 64.3088 35.2328 64.6111C35.0898 64.6111 34.9469 64.6111 34.7996 64.6111C34.7996 64.7536 34.7996 64.8962 34.7996 65.043C34.6567 65.043 34.5138 65.043 34.3665 65.043C34.3665 65.1856 34.3665 65.3282 34.3665 65.475C34.2236 65.475 34.0807 65.475 33.9334 65.475C33.7905 65.7601 33.6475 66.0452 33.5003 66.339C33.3573 66.339 33.2144 66.339 33.0671 66.339C33.0671 66.4815 33.0671 66.6241 33.0671 66.771C32.9242 66.771 32.7813 66.771 32.634 66.771C32.634 66.9135 32.634 67.0561 32.634 67.203C32.4911 67.203 32.3481 67.203 32.2009 67.203C32.1294 67.4168 32.0579 67.6306 31.9843 67.8509C31.607 68.2373 31.607 68.2373 31.1451 68.6339C30.9182 68.8319 30.9182 68.8319 30.6866 69.0338C30.2518 69.3629 30.2518 69.3629 29.6021 69.5788C29.6021 69.7214 29.6021 69.864 29.6021 70.0108C29.196 70.4698 29.196 70.4698 28.7358 70.8748C28.5929 70.8748 28.45 70.8748 28.3027 70.8748C28.3027 71.0174 28.3027 71.1599 28.3027 71.3068C28.0092 71.5945 28.0092 71.5945 27.6124 71.9143C26.7208 72.6514 25.9219 73.4552 25.1219 74.2902C24.6211 74.7626 24.6211 74.7626 24.188 74.7626C24.1347 74.889 24.0813 75.0154 24.0264 75.1457C23.7129 75.7009 23.3667 76.0056 22.875 76.4096C22.2435 76.9128 22.2435 76.9128 21.8058 77.5705C21.6628 77.5705 21.5199 77.5705 21.3726 77.5705C21.3726 77.7131 21.3726 77.8556 21.3726 78.0025C20.9576 78.0142 20.5425 78.0226 20.1274 78.0295C19.8962 78.0345 19.6651 78.0395 19.4269 78.0447C18.4425 77.9811 18.0812 77.7538 17.4043 77.039C17.2354 76.8313 17.0665 76.6236 16.8924 76.4096C16.6366 76.0997 16.6366 76.0997 16.3756 75.7835C15.7342 74.8778 15.7342 74.8778 15.7419 74.3307C16.1091 73.859 16.1091 73.859 16.6353 73.3722C16.8156 73.2024 16.996 73.0325 17.1818 72.8575C17.4339 72.6245 17.4339 72.6245 17.691 72.3867C17.8876 72.1863 18.0841 71.9858 18.2866 71.7793C18.7739 71.3068 18.7739 71.3068 19.3017 70.9018C19.7606 70.5222 20.091 70.1809 20.4658 69.7273C21.0602 69.015 21.7124 68.4291 22.4208 67.8315C23.1285 67.2073 23.7765 66.5271 24.4299 65.8471C24.8377 65.475 24.8377 65.475 25.2708 65.475C25.3244 65.3503 25.378 65.2256 25.4332 65.097C25.7436 64.5399 26.0903 64.1659 26.5702 63.7471C26.7131 63.7471 26.8561 63.7471 27.0033 63.7471C27.0569 63.6224 27.1105 63.4976 27.1657 63.3691C27.4761 62.812 27.8228 62.4379 28.3027 62.0192C28.4456 62.0192 28.5886 62.0192 28.7358 62.0192C28.7358 61.8766 28.7358 61.7341 28.7358 61.5872C29.0006 61.3282 29.0006 61.3282 29.3991 61.0067C30.3104 60.2338 31.1553 59.409 31.9978 58.5633C32.1363 58.4245 32.2748 58.2856 32.4175 58.1426C32.8511 57.7073 33.284 57.2714 33.7168 56.8354C36.9638 53.5642 36.9638 53.5642 38.2784 52.4547C39.3614 51.4963 40.3534 50.4351 41.3651 49.4026C41.6656 49.0964 41.9675 48.7916 42.2694 48.4868C42.5353 48.2162 42.5353 48.2162 42.8065 47.9402C43.2457 47.5478 43.2457 47.5478 43.6788 47.5478C43.6788 47.4052 43.6788 47.2627 43.6788 47.1158C43.9723 46.8281 43.9723 46.8281 44.3691 46.5083C45.2051 45.8163 45.9599 45.0684 46.7141 44.2885C46.8693 44.1301 47.0245 43.9717 47.1844 43.8084C47.3304 43.6578 47.4764 43.5072 47.6269 43.352C48.0101 43.012 48.0101 43.012 48.4432 43.012C48.5147 42.7981 48.5862 42.5843 48.6598 42.364C49.0295 42.0004 49.0295 42.0004 49.4854 41.6215C49.9836 41.202 50.451 40.792 50.9066 40.3256C51.2586 39.9881 51.2586 39.9881 51.6917 39.9881C51.7633 39.8106 51.7633 39.8106 51.8364 39.6295C52.2155 38.9653 52.7289 38.4758 53.2753 37.9497C53.4292 37.7991 53.4292 37.7991 53.5862 37.6455C53.8926 37.3458 54.1998 37.047 54.507 36.7482C55.2387 36.0214 55.9658 35.2902 56.692 34.558C57.2684 33.9773 57.8459 33.3978 58.4235 32.8184C58.7287 32.5118 59.0334 32.2049 59.3378 31.8977C59.778 31.4534 60.2195 31.0106 60.6614 30.568C60.7978 30.4297 60.9343 30.2913 61.0749 30.1488C61.4041 29.8204 61.7445 29.5033 62.0868 29.1885C62.2297 29.1885 62.3727 29.1885 62.5199 29.1885C62.5199 29.046 62.5199 28.9034 62.5199 28.7566C62.8135 28.4689 62.8135 28.4689 63.2102 28.1491C64.2177 27.3131 65.0975 26.4072 65.9579 25.4222C66.4842 24.8254 67.0074 24.28 67.6227 23.7753C68.1423 23.3483 68.5829 22.9115 69.0169 22.3983C70.6908 20.4373 72.5812 18.5775 74.557 16.9201C74.8947 16.6426 74.8947 16.6426 75.2972 16.2291Z" fill="white"/>
<path d="M75.7303 16.2291C75.8018 16.5142 75.8733 16.7993 75.9469 17.0931C76.3454 17.3318 76.3454 17.3318 76.8132 17.525C77.6634 18.1791 78.4541 18.89 79.1277 19.7254C79.6154 20.3171 80.1069 20.7297 80.7113 21.1969C81.6332 22.0679 82.5369 22.998 83.3101 24.0048C83.3101 24.1473 83.3101 24.2899 83.3101 24.4368C83.453 24.4368 83.596 24.4368 83.7432 24.4368C83.7432 24.5793 83.7432 24.7219 83.7432 24.8687C83.8683 24.9266 83.9934 24.9846 84.1222 25.0442C84.6215 25.307 85.0471 25.5822 85.4758 25.9487C85.4758 26.0912 85.4758 26.2338 85.4758 26.3807C85.6187 26.3807 85.7616 26.3807 85.9089 26.3807C85.9965 26.5344 86.0842 26.6881 86.1745 26.8464C86.6552 27.6151 87.2374 28.0858 87.9392 28.6486C90.3994 30.6485 90.3994 30.6485 90.6733 31.7804C90.8609 31.8702 90.8609 31.8702 91.0523 31.9618C91.6562 32.2724 92.0311 32.6688 92.5006 33.1574C93.0197 33.6887 93.5163 34.1784 94.0977 34.6423C94.6407 35.0755 95.0356 35.5358 95.4377 36.1003C95.4377 36.2428 95.4377 36.3854 95.4377 36.5322C95.5586 36.5865 95.6795 36.6408 95.804 36.6968C97.214 37.451 99.2464 38.8563 99.769 40.4201C99.9767 40.5203 99.9767 40.5203 100.189 40.6226C100.635 40.8521 100.635 40.8521 100.838 41.284C101.156 41.8801 101.528 41.9305 102.151 42.148C102.584 42.58 102.584 42.58 102.584 43.444C102.781 43.5063 102.977 43.5687 103.18 43.6329C104.226 43.994 104.834 44.3282 105.562 45.1719C105.695 45.3233 105.828 45.4748 105.965 45.6309C106.266 46.0358 106.266 46.0358 106.266 46.4678C106.409 46.4678 106.552 46.4678 106.699 46.4678C106.815 46.6148 106.931 46.7618 107.051 46.9133C107.476 47.437 107.853 47.8089 108.364 48.2363C109.051 48.82 109.651 49.4357 110.245 50.1127C111.076 51.0535 111.962 51.8859 112.905 52.7122C113.353 53.1105 113.778 53.5192 114.198 53.9465C114.706 54.4632 115.231 54.9458 115.781 55.4179C116.698 56.2066 117.546 57.0543 118.394 57.9153C118.567 58.0863 118.74 58.2573 118.919 58.4334C119.484 59.0025 120.021 59.5892 120.559 60.1833C121.805 61.5418 123.1 62.8493 124.403 64.1521C124.595 64.3446 124.787 64.5371 124.985 64.7355C125.962 65.7071 126.95 66.65 127.999 67.543C128.505 67.9804 128.971 68.4526 129.438 68.9309C129.555 69.0428 129.672 69.1547 129.793 69.2701C130.116 69.5809 130.428 69.9032 130.738 70.2268C130.738 70.3694 130.738 70.5119 130.738 70.6588C130.864 70.7106 130.99 70.7624 131.12 70.8157C131.701 71.1456 132.007 71.511 132.416 72.0358C132.549 72.2023 132.682 72.3687 132.819 72.5403C133.12 73.0347 133.12 73.0347 133.12 73.8987C133.477 73.8987 133.835 73.8987 134.203 73.8987C134.379 74.2632 134.379 74.2632 134.419 74.7626C133.905 75.3296 133.905 75.3296 133.337 75.8426C133.265 75.9851 133.194 76.1277 133.12 76.2746C132.977 76.2746 132.834 76.2746 132.687 76.2746C132.638 76.4038 132.589 76.533 132.538 76.6661C132.179 77.2634 131.768 77.4378 131.171 77.7865C130.785 78.2335 130.785 78.2335 130.521 78.6505C129.693 78.375 129.649 78.0937 129.222 77.3545C128.168 76.0948 127.026 74.9105 125.836 73.778C125.514 73.4658 125.201 73.1429 124.891 72.8187C124.891 72.6762 124.891 72.5336 124.891 72.3867C124.605 72.2442 124.319 72.1016 124.024 71.9548C124.024 71.8122 124.024 71.6696 124.024 71.5228C123.9 71.4688 123.775 71.4147 123.647 71.3591C123.091 71.0539 122.711 70.7027 122.265 70.2538C122.043 70.0341 122.043 70.0341 121.816 69.81C121.445 69.385 121.236 69.0021 120.992 68.4989C120.706 68.2802 120.417 68.0638 120.126 67.8509C120.126 67.7084 120.126 67.5658 120.126 67.4189C119.965 67.3655 119.805 67.312 119.639 67.257C118.974 66.9556 118.678 66.6511 118.177 66.123C117.718 65.7369 117.257 65.3541 116.793 64.9747C116.445 64.6111 116.445 64.6111 116.445 63.9631C116.302 63.9631 116.159 63.9631 116.011 63.9631C115.718 63.6067 115.43 63.2466 115.145 62.8831C115.002 62.8119 114.859 62.7406 114.712 62.6671C114.712 62.5246 114.712 62.382 114.712 62.2352C114.569 62.2352 114.426 62.2352 114.279 62.2352C114.279 62.0213 114.279 61.8075 114.279 61.5872C114.024 61.507 114.024 61.507 113.765 61.4252C113.126 61.122 113.001 60.9378 112.763 60.2912C112.477 60.2912 112.191 60.2912 111.897 60.2912C111.883 60.122 111.87 59.9527 111.856 59.7783C111.798 59.5912 111.74 59.4041 111.68 59.2113C111.325 59.0538 110.963 58.9118 110.597 58.7793C110.227 58.4287 109.866 58.068 109.514 57.6994C109.253 57.4989 109.253 57.4989 108.987 57.2944C108.397 56.807 107.94 56.282 107.451 55.6981C106.839 54.9785 106.187 54.3501 105.44 53.771C105.284 53.6418 105.128 53.5126 104.967 53.3795C104.967 53.237 104.967 53.0944 104.967 52.9476C104.824 52.9476 104.681 52.9476 104.533 52.9476C104.292 52.7141 104.052 52.4785 103.82 52.2355C103.154 51.5722 102.431 50.9687 101.721 50.3531C101.505 50.1406 101.505 50.1406 101.285 49.9237C101.285 49.7811 101.285 49.6386 101.285 49.4917C101.089 49.4563 101.089 49.4563 100.889 49.4201C100.116 49.1827 99.6782 48.5433 99.1599 47.9528C98.9281 47.6949 98.696 47.4373 98.4637 47.1799C98.3526 47.0562 98.2416 46.9324 98.1271 46.8049C97.7579 46.3998 97.3737 46.0131 96.9808 45.6309C96.4997 45.1627 96.0666 44.678 95.6408 44.1594C95.0758 43.4827 94.4427 43.0647 93.7052 42.58C93.5542 42.2954 93.4086 42.0078 93.2721 41.716C92.9853 41.5681 92.6962 41.4247 92.4058 41.284C92.0355 40.9337 91.6753 40.5725 91.323 40.2041C91.1399 40.0214 90.9567 39.8388 90.7681 39.6506C90.5939 39.4769 90.4197 39.3031 90.2402 39.1241C90.0749 38.9682 89.9097 38.8123 89.7394 38.6517C89.3739 38.2602 89.3739 38.2602 89.3739 37.8282C89.231 37.8282 89.0881 37.8282 88.9408 37.8282C88.9408 37.6856 88.9408 37.5431 88.9408 37.3962C88.8202 37.3427 88.6996 37.2893 88.5753 37.2342C87.6881 36.7559 87.0214 36.1548 86.3826 35.3848C85.6558 34.5153 84.826 33.8042 83.9598 33.0764C82.2744 31.6564 82.2744 31.6564 81.6588 30.8895C81.2618 30.4102 80.9297 30.0709 80.4542 29.688C79.8451 29.1886 79.8451 29.1886 79.4119 28.5406C79.4119 28.2555 79.4119 27.9704 79.4119 27.6766C79.269 27.6766 79.1261 27.6766 78.9788 27.6766C78.9788 27.8192 78.9788 27.9617 78.9788 28.1086C78.7644 28.0373 78.55 27.966 78.3291 27.8926C78.3291 27.7501 78.3291 27.6075 78.3291 27.4606C78.1348 27.3671 78.1348 27.3671 77.9366 27.2716C77.4629 27.0286 77.4629 27.0286 76.8132 26.5967C76.8132 26.4541 76.8132 26.3116 76.8132 26.1647C76.6702 26.1647 76.5273 26.1647 76.38 26.1647C76.38 26.0221 76.38 25.8796 76.38 25.7327C76.1656 25.7327 75.9512 25.7327 75.7303 25.7327C75.7303 22.5965 75.7303 19.4603 75.7303 16.2291Z" fill="white"/>
<path d="M35.1921 75.7483C35.7255 76.0978 36.0758 76.5185 36.4712 77.0138C37.0698 77.7492 37.7532 78.3696 38.4812 78.9746C39.0977 79.487 39.6466 80.0289 40.2137 80.5946C40.5286 80.8701 40.8445 81.1445 41.1612 81.418C41.941 82.1021 42.6135 82.8216 43.2803 83.6134C43.885 84.2767 44.5666 84.8437 45.2548 85.4189C45.3779 85.5375 45.501 85.6561 45.6278 85.7783C45.6278 85.9209 45.6278 86.0635 45.6278 86.2103C45.7708 86.2103 45.9137 86.2103 46.0609 86.2103C46.4351 86.5621 46.7895 86.9194 47.1438 87.2903C47.4045 87.5567 47.6663 87.8221 47.9288 88.0868C48.0522 88.2123 48.1756 88.3379 48.3027 88.4673C48.6865 88.846 48.6865 88.846 49.3094 89.2342C49.3094 89.3768 49.3094 89.5193 49.3094 89.6662C49.4313 89.7172 49.5533 89.7683 49.6789 89.8208C50.291 90.1625 50.7032 90.5795 51.1942 91.0794C51.4861 91.3741 51.4861 91.3741 51.7838 91.6746C51.9878 91.8825 52.1917 92.0905 52.3955 92.2986C53.6119 93.5348 54.8143 94.7563 56.1589 95.8551C56.257 95.9511 56.355 96.047 56.4561 96.1459C56.4561 96.2885 56.4561 96.431 56.4561 96.5779C56.5664 96.5432 56.6768 96.5084 56.7906 96.4727C57.4937 96.3262 58.1849 96.3235 58.9 96.3176C59.0606 96.3154 59.2211 96.3133 59.3865 96.3111C59.9301 96.3042 60.4738 96.2988 61.0175 96.2936C61.4142 96.2891 61.811 96.2845 62.2078 96.2799C63.3069 96.2676 64.4061 96.257 65.5052 96.2469C66.2009 96.2404 66.8965 96.2335 67.5922 96.2265C82.0709 96.0837 96.5511 96.1261 111.03 96.1459C110.688 96.8705 110.314 97.3322 109.731 97.8873C109.217 98.3785 108.829 98.7908 108.432 99.3858C108.04 99.4699 108.04 99.4699 107.556 99.4743C107.372 99.4776 107.188 99.4808 106.998 99.4841C106.693 99.4846 106.693 99.4846 106.381 99.485C106.166 99.4878 105.951 99.4906 105.729 99.4935C105.002 99.5021 104.276 99.5061 103.55 99.51C103.031 99.5151 102.512 99.5205 101.993 99.5261C100.579 99.5405 99.1657 99.5505 97.7521 99.5591C96.869 99.5645 95.986 99.5709 95.1029 99.5774C92.6571 99.5953 90.2114 99.612 87.7656 99.6242C87.609 99.625 87.4523 99.6258 87.291 99.6266C87.134 99.6274 86.977 99.6281 86.8152 99.6289C86.4971 99.6305 86.1789 99.6321 85.8608 99.6337C85.6241 99.6349 85.6241 99.6349 85.3826 99.6361C82.8291 99.6491 80.2757 99.6709 77.7223 99.6965C75.0996 99.7227 72.477 99.7415 69.8542 99.7529C68.3821 99.7595 66.9101 99.7692 65.4381 99.7871C64.0521 99.8035 62.6663 99.8106 61.2802 99.8105C60.7724 99.8121 60.2646 99.817 59.7568 99.8255C55.4464 99.8946 55.4464 99.8946 53.8883 98.6706C53.2945 98.0812 52.9198 97.5399 52.5579 96.7939C52.2747 96.6392 51.985 96.4963 51.6916 96.3619C50.6197 95.4955 49.6227 94.5384 48.6597 93.554C47.4737 92.3482 46.2661 91.1949 44.9781 90.0982C44.6754 89.8377 44.3731 89.5767 44.0713 89.3152C43.9387 89.201 43.8061 89.0869 43.6694 88.9693C43.1486 88.4985 42.6571 88.0048 42.1628 87.5063C41.5633 86.9027 40.9631 86.2999 40.3626 85.6974C40.2064 85.5398 40.0502 85.3822 39.8893 85.2198C38.707 84.0354 37.4972 82.8954 36.1666 81.877C35.6687 81.4609 35.2876 81.0075 34.8833 80.5026C34.451 80.0131 33.9558 79.6158 33.4452 79.21C32.97 78.7785 32.5925 78.2936 32.2008 77.7867C32.5522 77.4666 32.9042 77.1473 33.2566 76.8282C33.4525 76.6503 33.6485 76.4724 33.8504 76.2891C34.6645 75.585 34.6645 75.585 35.1921 75.7483Z" fill="white"/>
<path d="M28.5193 80.8105C29.1555 81.0939 29.1555 81.0939 29.8187 81.4584C29.8902 81.6723 29.9616 81.8861 30.0353 82.1064C30.155 82.166 30.2748 82.2256 30.3982 82.287C31.1232 82.6491 31.6592 83.2011 32.2415 83.7533C32.4918 83.9872 32.7422 84.2209 32.9927 84.4545C33.1153 84.5691 33.2378 84.6838 33.3641 84.802C33.8508 85.2549 34.3441 85.7001 34.8403 86.1427C34.9908 86.2772 35.1412 86.4117 35.2963 86.5502C35.6561 86.874 35.6561 86.874 36.0991 87.0742C36.2063 87.3949 36.2063 87.3949 36.3156 87.7222C36.6565 88.0668 36.6565 88.0668 37.0804 88.4039C38.2392 89.3846 39.2892 90.461 40.3534 91.5417C41.4841 92.6818 42.6275 93.8315 43.9457 94.7575C44.0721 94.8592 44.1984 94.961 44.3285 95.0659C44.3285 95.2084 44.3285 95.351 44.3285 95.4978C44.4477 95.5461 44.5669 95.5944 44.6897 95.6442C45.3539 96.0198 45.8112 96.5002 46.3461 97.0435C46.4539 97.1521 46.5617 97.2608 46.6728 97.3727C47.0158 97.7187 47.3574 98.0661 47.6988 98.4137C48.0412 98.7611 48.3838 99.1082 48.7272 99.4547C49.0383 99.7689 49.3485 100.084 49.6585 100.399C50.1697 100.921 50.1697 100.921 50.8255 101.33C50.8255 101.472 50.8255 101.615 50.8255 101.762C50.9505 101.819 51.0756 101.877 51.2045 101.937C51.6917 102.194 51.6917 102.194 52.0485 102.529C52.7698 102.972 53.4463 102.928 54.2675 102.918C54.4411 102.918 54.6147 102.919 54.7935 102.919C55.3762 102.92 55.9588 102.916 56.5415 102.912C56.9592 102.911 57.377 102.911 57.7948 102.911C58.6964 102.91 59.598 102.908 60.4996 102.903C61.9338 102.897 63.368 102.895 64.8022 102.893C67.0811 102.89 69.36 102.883 71.6388 102.876C75.6911 102.863 79.7435 102.854 83.7959 102.848C85.2123 102.845 86.6288 102.841 88.0452 102.836C93.5455 102.817 99.0361 102.873 104.534 103.058C104.534 103.2 104.534 103.343 104.534 103.489C104.113 103.876 103.669 104.225 103.222 104.58C102.749 105.054 102.598 105.461 102.368 106.081C102.249 106.081 102.131 106.08 102.009 106.08C100.38 106.074 98.75 106.071 97.1204 106.069C96.8387 106.068 96.5569 106.068 96.2666 106.067C92.2172 106.062 88.1692 106.091 84.1201 106.15C80.5196 106.202 76.9192 106.235 73.3184 106.254C71.1149 106.267 68.9122 106.289 66.7091 106.332C64.7459 106.371 62.7834 106.391 60.8199 106.391C59.7929 106.391 58.7676 106.4 57.7411 106.431C50.876 106.627 50.876 106.627 48.4321 104.428C47.4806 103.509 46.6434 102.505 45.8557 101.443C45.3945 100.877 44.9101 100.473 44.3285 100.034C43.9625 99.6788 43.6021 99.3181 43.2457 98.9537C41.018 96.6811 41.018 96.6811 38.6589 94.5478C38.0049 93.9739 37.4051 93.3462 36.7936 92.7279C36.3716 92.3131 35.941 91.9253 35.49 91.5425C34.7166 90.8833 34.0087 90.1739 33.2973 89.4501C32.4084 88.548 31.5068 87.7301 30.476 86.9873C29.9212 86.5529 29.4466 86.0644 28.9524 85.5623C28.7124 85.3294 28.4718 85.0972 28.2308 84.8653C27.9796 84.6207 27.7283 84.376 27.4771 84.1313C27.283 83.9459 27.283 83.9459 27.085 83.7567C26.7566 83.4348 26.4453 83.0956 26.1371 82.7544C26.1371 82.5405 26.1371 82.3267 26.1371 82.1064C26.2909 82.0309 26.4447 81.9555 26.6032 81.8778C26.8023 81.7795 27.0013 81.6812 27.2064 81.5799C27.5041 81.4333 27.5041 81.4333 27.8078 81.2838C28.2822 81.0685 28.2822 81.0685 28.5193 80.8105Z" fill="white"/>
<path d="M8.37878 81.4584C9.23096 81.8525 9.84442 82.4089 10.5174 83.0513C11.348 83.8437 12.1731 84.5048 13.1432 85.1303C13.7714 85.7098 14.3274 86.3267 14.8757 86.9797C15.4024 87.6017 15.9598 88.0886 16.6082 88.5861C16.9721 88.9432 17.3324 89.3038 17.6911 89.6661C17.9316 89.9063 18.1723 90.1463 18.4131 90.3862C23.6826 95.6417 23.6826 95.6417 24.0569 96.015C24.3732 96.3305 24.6897 96.6459 25.0062 96.9613C25.3589 97.3135 25.7103 97.667 26.061 98.0214C27.032 98.9995 28.0019 99.9593 29.0633 100.841C29.7376 101.411 30.3359 102.022 30.8744 102.72C31.255 103.178 31.5973 103.507 32.052 103.881C32.607 104.341 33.0779 104.814 33.5409 105.366C34.2991 106.259 35.1538 107.028 36.025 107.808C36.7331 108.446 37.3593 109.103 37.9602 109.84C38.4301 110.373 38.973 110.812 39.5133 111.272C40.439 112.085 41.3414 112.939 42.1629 113.857C42.1629 114 42.1629 114.142 42.1629 114.289C42.3371 114.363 42.3371 114.363 42.5148 114.438C43.7319 115.108 44.5437 116.032 45.4114 117.097C46.3219 118.032 47.2827 118.908 48.2474 119.786C49.0562 120.526 49.8558 121.268 50.6089 122.065C50.6089 122.207 50.6089 122.35 50.6089 122.497C50.8233 122.568 51.0377 122.639 51.2586 122.713C51.633 123.064 51.9862 123.423 52.3414 123.793C52.6657 124.117 52.9906 124.441 53.316 124.765C53.8376 125.284 54.3573 125.805 54.8725 126.331C55.2679 126.714 55.6619 127.054 56.0907 127.397C56.2828 127.562 56.4748 127.727 56.6727 127.896C56.6727 128.039 56.6727 128.182 56.6727 128.328C56.7989 128.383 56.9251 128.438 57.0551 128.495C57.5914 128.789 57.9299 129.115 58.3511 129.557C59.4028 130.633 60.52 131.613 61.6943 132.554C62.341 133.113 62.8473 133.715 63.3862 134.376C63.7427 134.741 64.1036 135.101 64.4691 135.456C64.6343 135.625 64.7996 135.795 64.9699 135.969C65.6017 136.585 66.2653 137.149 66.9435 137.713C67.056 137.824 67.1685 137.934 67.2844 138.048C67.2844 138.191 67.2844 138.333 67.2844 138.48C63.5413 138.798 63.5413 138.798 62.2366 138.093C61.7075 137.601 61.2476 137.092 60.7875 136.536C60.5177 136.296 60.2429 136.061 59.9618 135.834C59.3383 135.305 58.7604 134.745 58.1887 134.16C58.0714 134.048 57.9542 133.936 57.8334 133.82C57.5107 133.51 57.1991 133.188 56.8893 132.864C56.8893 132.722 56.8893 132.579 56.8893 132.432C56.7609 132.377 56.6325 132.323 56.5001 132.266C55.9702 131.971 55.6996 131.673 55.3192 131.204C54.6602 130.425 53.9553 129.766 53.1789 129.106C52.6503 128.654 52.1618 128.193 51.6917 127.68C51.6917 127.538 51.6917 127.395 51.6917 127.248C51.5703 127.196 51.4489 127.143 51.3237 127.088C49.7994 126.257 48.5803 124.825 47.4729 123.513C47.0495 123.039 46.5601 122.674 46.0611 122.281C45.8014 121.966 45.5421 121.651 45.2862 121.333C44.9513 120.954 44.5939 120.642 44.2067 120.317C43.1327 119.391 42.1431 118.389 41.1477 117.38C40.791 117.019 40.4337 116.658 40.0759 116.298C39.9202 116.14 39.7645 115.982 39.6041 115.82C39.1083 115.347 38.5862 114.928 38.0482 114.505C37.5074 113.992 37.0144 113.489 36.5593 112.899C36.0798 112.322 35.5698 111.872 34.99 111.4C34.4663 110.948 33.987 110.46 33.5003 109.969C33.311 109.783 33.1217 109.597 32.9267 109.405C31.8865 108.378 30.8693 107.349 29.9346 106.223C29.6016 105.842 29.6016 105.842 29.1275 105.521C28.9983 105.421 28.869 105.321 28.7359 105.217C28.7359 105.075 28.7359 104.932 28.7359 104.785C28.4143 104.679 28.4143 104.679 28.0862 104.569C27.4705 104.005 26.9266 103.401 26.3943 102.761C25.7894 102.046 25.1209 101.451 24.408 100.845C23.7224 100.249 23.0905 99.6026 22.4555 98.9537C21.9342 98.4214 21.4361 97.9223 20.8448 97.4687C20.2558 96.9816 19.7991 96.4576 19.3111 95.8733C18.756 95.2233 18.1411 94.6347 17.5151 94.0534C17.2579 93.7699 17.2579 93.7699 17.2579 93.3379C17.1324 93.2818 17.0068 93.2257 16.8775 93.1679C15.9997 92.6945 15.3261 91.9658 14.605 91.286C14.4437 91.137 14.2823 90.9881 14.1161 90.8346C13.9636 90.6918 13.8112 90.5489 13.6542 90.4018C13.5145 90.2711 13.3749 90.1403 13.231 90.0057C12.9266 89.6661 12.9266 89.6661 12.9266 89.2341C12.8086 89.1826 12.6905 89.1311 12.5688 89.078C11.9324 88.7326 11.4135 88.3045 10.8557 87.8436C10.65 87.6746 10.4443 87.5056 10.2323 87.3315C10.0494 87.1753 9.86657 87.0191 9.67817 86.8582C9.56378 86.7642 9.4494 86.6703 9.33154 86.5735C8.92908 86.091 8.89837 85.7274 8.82291 85.1075C8.79569 84.8952 8.76847 84.6829 8.74043 84.4641C8.71489 84.2429 8.68934 84.0217 8.66303 83.7938C8.63497 83.5701 8.60691 83.3464 8.57801 83.1159C8.50911 82.5636 8.44281 82.0112 8.37878 81.4584Z" fill="white"/>
<path d="M143.082 81.0262C143.053 81.1651 143.024 81.3041 142.995 81.4472C142.767 82.6102 142.643 83.6873 142.635 84.8735C142.558 86.0755 142.558 86.0755 142.031 86.6377C141.529 86.9639 141.018 87.2358 140.483 87.5059C139.797 87.9978 139.226 88.5327 138.697 89.1933C138.509 89.4272 138.509 89.4272 138.318 89.6658C138.175 89.6658 138.032 89.6658 137.884 89.6658C137.836 89.7842 137.788 89.9026 137.738 90.0246C137.365 90.6815 136.867 91.1739 136.335 91.7009C136.226 91.8099 136.117 91.9189 136.005 92.0313C135.775 92.2605 135.545 92.4892 135.314 92.7174C134.96 93.068 134.609 93.4208 134.258 93.7739C134.034 93.9965 133.811 94.2189 133.587 94.4412C133.482 94.5472 133.376 94.6532 133.268 94.7623C132.52 95.4976 132.52 95.4976 132.037 95.4976C131.966 95.7114 131.894 95.9252 131.821 96.1455C131.678 96.1455 131.535 96.1455 131.387 96.1455C131.387 96.2881 131.387 96.4307 131.387 96.5775C130.761 97.2649 130.068 97.8663 129.371 98.4809C128.137 99.5753 126.985 100.746 125.834 101.927C125.69 102.073 125.546 102.219 125.398 102.37C125.269 102.502 125.14 102.634 125.007 102.771C124.674 103.057 124.674 103.057 124.241 103.057C124.241 103.2 124.241 103.342 124.241 103.489C123.933 103.79 123.933 103.79 123.501 104.145C122.24 105.214 121.103 106.399 119.949 107.581C119.783 107.749 119.616 107.918 119.444 108.092C119.294 108.245 119.144 108.398 118.99 108.556C118.61 108.889 118.61 108.889 118.177 108.889C118.119 109.027 118.061 109.165 118.001 109.307C117.744 109.753 117.744 109.753 117.094 109.969C117.094 110.112 117.094 110.254 117.094 110.401C116.801 110.689 116.801 110.689 116.404 111.008C115.56 111.708 114.771 112.417 114.103 113.29C113.558 113.942 112.954 114.464 112.308 115.013C111.867 115.384 111.867 115.384 111.382 115.895C111.03 116.233 111.03 116.233 110.597 116.233C110.597 116.375 110.597 116.518 110.597 116.665C110.454 116.665 110.311 116.665 110.164 116.665C110.093 116.879 110.021 117.092 109.948 117.313C109.601 117.654 109.601 117.654 109.162 118.015C108.398 118.658 107.698 119.335 107.012 120.059C106.699 120.337 106.699 120.337 106.266 120.337C106.212 120.461 106.159 120.586 106.104 120.715C105.793 121.272 105.446 121.646 104.967 122.064C104.824 122.064 104.681 122.064 104.533 122.064C104.533 122.207 104.533 122.35 104.533 122.496C104.193 122.839 104.193 122.839 103.735 123.225C103.577 123.36 103.418 123.495 103.255 123.634C102.91 123.918 102.559 124.195 102.205 124.467C101.7 124.859 101.7 124.859 101.312 125.385C100.734 126.098 100.084 126.713 99.3359 127.248C99.1929 127.248 99.05 127.248 98.9027 127.248C98.8578 127.365 98.8129 127.483 98.7665 127.603C98.3561 128.307 97.7846 128.803 97.1838 129.341C97.0672 129.448 96.9507 129.556 96.8306 129.667C96.2982 130.149 95.9111 130.475 95.2211 130.704C95.2211 130.847 95.2211 130.989 95.2211 131.136C94.9059 131.45 94.9059 131.45 94.4682 131.814C93.5096 132.627 92.5901 133.474 91.6749 134.335C91.5141 134.486 91.3533 134.636 91.1877 134.791C90.4917 135.444 89.8018 136.098 89.148 136.793C88.1182 137.887 87.4355 138.592 85.9089 138.696C85.6509 138.718 85.393 138.741 85.1272 138.764C84.3773 138.823 83.6281 138.872 82.877 138.912C83.2377 137.976 83.9326 137.371 84.6365 136.684C84.7644 136.558 84.8923 136.432 85.024 136.303C85.7891 135.554 86.5671 134.829 87.3859 134.138C87.7904 133.787 88.1827 133.428 88.5736 133.061C88.7009 132.942 88.8282 132.823 88.9594 132.701C89.2145 132.462 89.4689 132.222 89.7224 131.981C90.6255 131.136 90.6255 131.136 91.1064 131.136C91.1779 130.922 91.2493 130.708 91.323 130.488C91.8509 129.908 91.8509 129.908 92.4058 129.408C92.5487 129.408 92.6917 129.408 92.8389 129.408C92.9104 129.194 92.9819 128.98 93.0555 128.76C93.3643 128.457 93.3643 128.457 93.7729 128.126C94.5875 127.439 95.3395 126.709 96.0874 125.952C98.7543 123.266 98.7543 123.266 99.769 122.928C99.8429 122.641 99.9149 122.353 99.9856 122.064C100.294 121.74 100.294 121.74 100.703 121.416C101.522 120.736 102.271 120.013 103.017 119.257C103.859 118.407 104.713 117.596 105.627 116.823C106.318 116.211 106.952 115.542 107.591 114.877C107.998 114.505 107.998 114.505 108.432 114.505C108.503 114.291 108.575 114.077 108.648 113.857C108.972 113.531 108.972 113.531 109.393 113.182C109.552 113.047 109.711 112.911 109.875 112.772C110.042 112.631 110.209 112.49 110.381 112.345C112.102 110.872 113.686 109.275 115.27 107.658C115.443 107.482 115.616 107.307 115.795 107.126C115.951 106.967 116.107 106.807 116.269 106.643C116.661 106.297 116.661 106.297 117.094 106.297C117.146 106.173 117.197 106.048 117.25 105.92C117.586 105.33 117.977 104.992 118.493 104.551C119.714 103.482 120.854 102.348 121.994 101.194C123.159 100.016 124.322 98.8592 125.583 97.7822C126.187 97.2549 126.75 96.6897 127.313 96.1185C127.474 95.9569 127.474 95.9569 127.638 95.792C127.848 95.5802 128.058 95.3681 128.268 95.1558C128.568 94.8542 128.868 94.5545 129.169 94.2548C129.457 93.9669 129.742 93.6758 130.02 93.3782C130.305 93.1217 130.305 93.1217 130.738 93.1217C130.818 92.9346 130.818 92.9346 130.9 92.7437C131.211 92.1866 131.557 91.8125 132.037 91.3937C132.18 91.3937 132.323 91.3937 132.47 91.3937C132.551 91.2066 132.551 91.2066 132.633 91.0158C132.943 90.4586 133.29 90.0846 133.77 89.6658C133.913 89.6658 134.056 89.6658 134.203 89.6658C134.283 89.4787 134.283 89.4787 134.365 89.2878C134.676 88.7307 135.022 88.3567 135.502 87.9379C135.645 87.9379 135.788 87.9379 135.935 87.9379C135.984 87.8221 136.034 87.7062 136.084 87.5869C136.822 86.2555 137.969 85.1703 139.184 84.266C139.327 84.266 139.47 84.266 139.617 84.266C139.691 84.0789 139.691 84.0789 139.766 83.8881C140.125 83.2747 140.575 82.9804 141.133 82.5381C141.474 82.1421 141.801 81.7388 142.123 81.3265C142.432 81.0262 142.432 81.0262 143.082 81.0262Z" fill="white"/>
<path d="M10.7609 93.1217C10.992 93.3556 10.992 93.3556 11.2278 93.5942C11.8162 94.1746 12.4194 94.73 13.0348 95.2816C13.6241 95.81 14.2036 96.3393 14.7631 96.899C15.5458 97.6772 16.3789 98.3963 17.2079 99.1248C17.3673 99.2821 17.5267 99.4394 17.6909 99.6015C17.6909 99.744 17.6909 99.8866 17.6909 100.033C17.9053 100.105 18.1197 100.176 18.3406 100.249C18.6113 100.562 18.8809 100.876 19.1401 101.198C19.9408 102.18 20.8657 102.912 21.8979 103.634C22.0104 103.729 22.1229 103.823 22.2388 103.921C22.2388 104.064 22.2388 104.206 22.2388 104.353C22.3817 104.353 22.5247 104.353 22.6719 104.353C22.9704 104.655 22.9704 104.655 23.3228 105.082C24.2722 106.194 25.2983 107.22 26.3349 108.251C26.6379 108.554 26.6379 108.554 26.947 108.862C27.3714 109.286 27.7963 109.709 28.2214 110.132C28.7641 110.672 29.3058 111.213 29.8473 111.755C30.3679 112.275 30.8893 112.794 31.4107 113.314C31.604 113.507 31.7973 113.7 31.9966 113.899C32.178 114.079 32.3595 114.26 32.5465 114.446C32.7049 114.603 32.8634 114.761 33.0266 114.924C33.5241 115.391 34.0472 115.81 34.583 116.233C34.9489 116.588 35.3093 116.948 35.6658 117.313C35.9028 117.551 36.1401 117.788 36.3775 118.026C36.5063 118.155 36.635 118.284 36.7676 118.417C37.3516 119.002 37.9361 119.587 38.5206 120.172C38.8272 120.479 39.1336 120.786 39.4398 121.093C39.8859 121.541 40.3327 121.987 40.7796 122.434C40.9141 122.569 41.0486 122.705 41.1872 122.844C41.8406 123.496 42.5034 124.123 43.2047 124.724C44.3114 125.678 45.3343 126.713 46.3655 127.747C46.5766 127.958 46.7877 128.169 46.9989 128.38C47.5491 128.929 48.0986 129.479 48.648 130.03C49.211 130.593 49.7745 131.156 50.3381 131.72C51.4395 132.82 52.5403 133.922 53.6407 135.024C52.9405 135.257 52.6988 135.224 51.9953 135.08C51.8039 135.041 51.6126 135.002 51.4154 134.962C51.1166 134.899 51.1166 134.899 50.8118 134.835C50.6118 134.795 50.4118 134.754 50.2057 134.713C48.7246 134.408 48.7246 134.408 48.2266 134.16C48.2266 134.017 48.2266 133.875 48.2266 133.728C48.1051 133.676 47.9837 133.623 47.8586 133.569C47.2605 133.241 46.8188 132.841 46.3181 132.378C45.6787 131.792 45.0382 131.215 44.369 130.664C43.6871 130.087 43.1578 129.453 42.5959 128.76C42.2376 128.398 41.8762 128.038 41.5131 127.68C41.3021 127.469 41.0914 127.258 40.8809 127.046C40.2639 126.427 39.6462 125.809 39.0283 125.19C38.7638 124.925 38.4994 124.66 38.2352 124.395C36.3281 122.477 36.3281 122.477 34.3172 120.669C33.6174 120.063 32.9644 119.41 32.3091 118.757C32.1723 118.623 32.0355 118.49 31.8945 118.352C31.7011 118.159 31.7011 118.159 31.5037 117.963C31.3877 117.848 31.2717 117.734 31.1522 117.615C30.9014 117.313 30.9014 117.313 30.9014 116.881C30.7864 116.836 30.6714 116.792 30.5529 116.746C29.8169 116.324 29.2749 115.753 28.6816 115.153C28.5616 115.035 28.4415 114.917 28.3178 114.795C27.4363 113.912 27.4363 113.912 27.4363 113.425C27.311 113.368 27.1857 113.312 27.0565 113.254C25.5311 112.436 24.2275 110.972 23.1321 109.659C22.5824 109.009 21.9926 108.464 21.3311 107.929C20.8112 107.483 20.3384 107 19.8566 106.513C19.5973 106.254 19.3379 105.996 19.0783 105.737C18.5143 105.174 17.9504 104.612 17.3864 104.05C17.2524 103.916 17.1184 103.783 16.9804 103.645C16.6625 103.328 16.347 103.008 16.032 102.687C15.5285 102.196 15 101.761 14.456 101.316C12.3846 99.452 11.543 96.5969 10.7609 93.9857C10.7609 93.7006 10.7609 93.4155 10.7609 93.1217Z" fill="white"/>
<path d="M140.483 93.554C139.912 97.0694 139.359 99.3396 136.453 101.628C135.935 101.978 135.935 101.978 135.502 101.978C135.431 102.191 135.359 102.405 135.286 102.626C134.984 102.921 134.984 102.921 134.582 103.247C133.718 103.974 132.925 104.753 132.132 105.555C131.196 106.5 130.246 107.39 129.222 108.241C128.676 108.761 128.182 109.267 127.719 109.861C127.197 110.493 126.608 110.964 125.973 111.481C125.443 111.998 124.926 112.523 124.417 113.061C124.024 113.425 124.024 113.425 123.591 113.425C123.537 113.55 123.482 113.675 123.426 113.803C123.123 114.352 122.78 114.715 122.333 115.154C122.09 115.394 122.09 115.394 121.843 115.639C121.674 115.804 121.505 115.969 121.331 116.139C121.078 116.387 121.078 116.387 120.821 116.641C120.508 116.949 120.195 117.257 119.881 117.564C119.624 117.816 119.371 118.074 119.125 118.337C118.827 118.609 118.827 118.609 118.394 118.609C118.394 118.751 118.394 118.894 118.394 119.041C118.083 119.345 118.083 119.345 117.649 119.702C116.958 120.287 116.309 120.893 115.673 121.538C115.106 122.113 114.536 122.658 113.913 123.172C113.406 123.593 112.98 124.027 112.56 124.535C111.971 125.246 111.317 125.827 110.613 126.423C109.995 126.964 109.427 127.549 108.851 128.134C108.468 128.509 108.074 128.852 107.66 129.192C106.81 129.902 106.119 130.731 105.4 131.568C103.315 133.873 100.625 135.117 97.6033 135.672C97.2425 135.682 96.8812 135.685 96.5205 135.672C97.5437 133.845 99.1754 132.573 100.807 131.301C101.373 130.85 101.869 130.364 102.368 129.84C103.414 128.774 104.474 127.747 105.609 126.776C106.101 126.339 106.562 125.88 107.024 125.413C107.593 124.837 108.165 124.287 108.783 123.766C109.834 122.869 110.793 121.881 111.76 120.897C112.423 120.226 113.094 119.581 113.811 118.967C114.894 118.036 115.888 117.019 116.891 116.004C119.342 113.523 119.342 113.523 120.559 112.561C120.702 112.561 120.845 112.561 120.992 112.561C121.05 112.432 121.108 112.303 121.168 112.17C121.43 111.688 121.677 111.412 122.083 111.047C122.22 110.921 122.357 110.796 122.498 110.666C122.649 110.53 122.8 110.393 122.955 110.253C124.176 109.131 125.371 107.988 126.54 106.813C126.662 106.69 126.784 106.568 126.91 106.441C127.523 105.825 128.134 105.206 128.744 104.587C128.971 104.358 129.197 104.13 129.424 103.901C129.528 103.794 129.633 103.687 129.741 103.577C129.993 103.323 130.256 103.081 130.521 102.842C130.664 102.842 130.807 102.842 130.954 102.842C131.012 102.703 131.07 102.565 131.13 102.423C131.387 101.978 131.387 101.978 132.037 101.762C132.037 101.619 132.037 101.477 132.037 101.33C132.969 100.3 132.969 100.3 133.77 100.034C133.841 99.8199 133.913 99.606 133.986 99.3857C134.129 99.3857 134.272 99.3857 134.419 99.3857C134.5 99.1986 134.5 99.1986 134.582 99.0077C134.892 98.4506 135.239 98.0765 135.719 97.6578C135.862 97.6578 136.005 97.6578 136.152 97.6578C136.21 97.5197 136.268 97.3816 136.328 97.2393C136.585 96.7938 136.585 96.7938 137.235 96.5778C137.235 96.4353 137.235 96.2927 137.235 96.1458C137.585 95.7638 137.937 95.416 138.318 95.0659C138.464 94.9317 138.61 94.7975 138.76 94.6592C139.992 93.554 139.992 93.554 140.483 93.554Z" fill="white"/>
<path d="M59.4557 109.293C59.7472 109.293 60.0387 109.293 60.3301 109.292C61.1163 109.291 61.9025 109.291 62.6887 109.292C63.5246 109.293 64.3604 109.292 65.1962 109.292C66.6071 109.291 68.0179 109.292 69.4287 109.293C70.8554 109.294 72.2821 109.294 73.7088 109.293C81.6762 109.287 89.6386 109.303 97.6034 109.537C97.474 109.678 97.474 109.678 97.342 109.822C97.2272 109.951 97.1125 110.08 96.9943 110.212C96.8247 110.4 96.8247 110.4 96.6517 110.592C96.2333 111.142 95.9491 111.722 95.6543 112.345C89.0642 112.615 82.475 112.646 75.8802 112.668C73.7321 112.675 71.5842 112.689 69.4362 112.709C67.9116 112.723 66.387 112.73 64.8623 112.732C63.9564 112.734 63.0507 112.739 62.1448 112.75C61.2977 112.761 60.4509 112.764 59.6036 112.76C59.2937 112.761 58.9837 112.764 58.6739 112.77C56.3267 112.815 56.3267 112.815 55.565 112.178C55.2178 111.712 55.2178 111.712 54.9593 111.246C54.6384 110.684 54.218 110.456 53.6407 110.185C53.7122 109.971 53.7837 109.757 53.8573 109.537C55.7276 109.35 57.5768 109.29 59.4557 109.293Z" fill="white"/>
<path d="M45.7362 26.2488C46.7562 26.8847 47.4267 27.4661 48.0101 28.5404C48.1352 28.723 48.2602 28.9057 48.3891 29.0939C49.052 30.912 48.7479 32.7353 48.0465 34.4936C47.3147 36.0169 47.3147 36.0169 46.5618 36.3835C46.3966 36.4325 46.2313 36.4816 46.061 36.532C46.061 36.6746 46.061 36.8171 46.061 36.964C44.1764 37.6874 42.5439 38.3071 40.5894 37.5563C38.6799 36.6215 37.4182 35.4781 36.5457 33.5352C35.9272 31.5881 36.2808 29.6869 37.1819 27.8924C37.949 26.6723 38.8896 26.0453 40.2138 25.5165C40.4326 25.4274 40.6515 25.3383 40.877 25.2465C42.7208 24.777 44.1325 25.3592 45.7362 26.2488Z" fill="white"/>
<path d="M101.935 23.5731C101.94 25.1729 101.944 26.7727 101.946 28.3725C101.947 29.1155 101.949 29.8586 101.951 30.6016C101.954 31.4578 101.955 32.3141 101.956 33.1703C101.957 33.4343 101.958 33.6983 101.959 33.9703C101.959 35.3476 101.903 36.6793 101.718 38.0445C101.504 37.9732 101.289 37.9019 101.068 37.8285C101.068 37.6859 101.068 37.5434 101.068 37.3965C100.948 37.3831 100.827 37.3698 100.703 37.356C99.8706 37.0643 99.3781 36.4175 98.83 35.7462C97.959 34.6808 96.9713 33.8978 95.8708 33.0767C94.6184 32.0904 94.6184 32.0904 94.3549 31.5647C94.3361 30.9818 94.3299 30.4045 94.3337 29.8216C94.334 29.6496 94.3344 29.4777 94.3347 29.3005C94.3359 28.7503 94.3386 28.2001 94.3414 27.6499C94.3424 27.2773 94.3434 26.9046 94.3443 26.532C94.3467 25.6177 94.3504 24.7034 94.3549 23.7891C96.8856 23.6101 99.3978 23.5464 101.935 23.5731Z" fill="white"/>
<path d="M60.5708 116.233C70.5046 116.233 80.4384 116.233 90.6733 116.233C90.2445 116.732 89.8157 117.231 89.3739 117.745C88.9367 118.286 88.73 118.591 88.5077 119.257C85.1982 119.297 81.8888 119.327 78.5792 119.346C77.0425 119.355 75.5058 119.367 73.9692 119.387C72.4863 119.406 71.0037 119.416 69.5207 119.421C68.9548 119.424 68.3889 119.43 67.823 119.439C67.0306 119.452 66.2389 119.454 65.4464 119.453C65.2121 119.459 64.9778 119.465 64.7364 119.472C63.172 119.454 63.172 119.454 62.5326 118.877C62.1864 118.412 62.1864 118.412 61.911 117.95C61.567 117.387 61.0906 117.061 60.5708 116.665C60.5708 116.522 60.5708 116.38 60.5708 116.233Z" fill="white"/>
<path d="M101.935 82.9702C109.582 82.9702 117.229 82.9702 125.107 82.9702C124.703 83.776 124.437 84.0671 123.728 84.5817C123.321 84.9259 123.321 84.9259 123.046 85.5725C122.471 86.2543 122.43 86.3027 121.607 86.3742C121.232 86.3817 120.857 86.3822 120.482 86.3771C120.277 86.3794 120.072 86.3817 119.86 86.384C119.183 86.3901 118.506 86.387 117.829 86.3839C117.359 86.3863 116.889 86.3893 116.419 86.3929C115.183 86.4007 113.947 86.4007 112.711 86.3992C111.449 86.399 110.188 86.4061 108.927 86.4126C106.452 86.4242 103.977 86.4277 101.502 86.4261C101.645 85.2857 101.787 84.1452 101.935 82.9702Z" fill="white"/>
<path d="M132.687 110.401C132.556 111.238 132.159 111.737 131.645 112.399C131.468 112.629 131.291 112.858 131.114 113.088C131.019 113.211 130.924 113.334 130.825 113.461C130.502 113.882 130.184 114.308 129.867 114.735C128.453 116.638 127.03 118.465 125.324 120.121C125.167 120.286 125.011 120.451 124.85 120.62C124.457 120.985 124.457 120.985 124.024 120.985C123.944 121.172 123.944 121.172 123.862 121.363C123.551 121.92 123.205 122.294 122.725 122.713C122.582 122.713 122.439 122.713 122.292 122.713C122.292 122.855 122.292 122.998 122.292 123.145C121.858 123.524 121.423 123.876 120.965 124.225C120.828 124.331 120.69 124.437 120.549 124.546C119.401 125.426 118.23 126.27 117.047 127.102C116.442 127.527 115.844 127.959 115.247 128.394C110.597 131.784 110.597 131.784 109.514 131.784C109.826 131.053 110.212 130.627 110.814 130.11C110.966 129.978 111.118 129.845 111.274 129.709C111.68 129.408 111.68 129.408 112.113 129.408C112.113 129.266 112.113 129.123 112.113 128.976C112.45 128.68 112.799 128.399 113.155 128.126C113.933 127.533 113.933 127.533 114.647 126.87C114.929 126.601 114.929 126.601 115.362 126.601C115.362 126.458 115.362 126.315 115.362 126.169C115.678 125.855 115.678 125.855 116.116 125.49C117.067 124.684 117.975 123.84 118.881 122.983C119.913 122.008 120.949 121.041 122.007 120.094C123.534 118.709 124.976 117.239 126.425 115.775C127.435 114.757 128.451 113.771 129.553 112.852C129.899 112.571 129.899 112.571 130.088 112.129C130.231 112.129 130.374 112.129 130.521 112.129C130.57 112.004 130.619 111.88 130.67 111.751C131.155 110.922 131.708 110.401 132.687 110.401Z" fill="white"/>
<path d="M18.3407 109.537C19.5407 109.765 19.9298 110.272 20.5867 111.219C21.0742 111.879 21.6498 112.423 22.238 112.993C22.657 113.41 23.0448 113.841 23.43 114.289C23.949 114.891 24.4867 115.46 25.0542 116.017C25.6172 116.57 26.1506 117.133 26.6649 117.731C27.8953 119.154 29.2376 120.456 30.6688 121.676C30.9848 121.949 31.2951 122.229 31.6011 122.514C32.6307 123.471 33.6906 124.324 34.8402 125.129C37.1553 126.758 37.1553 126.758 37.8315 127.464C37.9263 128.193 37.9263 128.193 37.8315 128.76C37.4517 128.9 37.4517 128.9 36.9653 128.976C36.5533 128.782 36.5533 128.782 36.1125 128.463C35.9448 128.345 35.777 128.226 35.6041 128.104C35.4101 127.964 35.2161 127.824 35.0162 127.68C34.6469 127.424 34.2764 127.169 33.9058 126.915C33.5404 126.663 33.1759 126.411 32.8116 126.158C32.3941 125.87 31.9738 125.585 31.5511 125.304C31.5511 125.162 31.5511 125.019 31.5511 124.872C31.4317 124.821 31.3122 124.77 31.1891 124.717C30.5619 124.373 30.0796 123.946 29.5479 123.469C29.3547 123.297 29.1616 123.126 28.9625 122.949C28.5192 122.497 28.5192 122.497 28.5192 122.065C28.2981 122.004 28.2981 122.004 28.0726 121.943C26.7568 121.301 25.8523 120.06 24.9231 118.957C24.6598 118.653 24.3778 118.366 24.0932 118.082C21.6129 115.609 19.6272 112.796 18.3407 109.537Z" fill="white"/>
<path d="M112.167 89.6389C112.732 89.6411 113.296 89.643 113.861 89.6448C115.227 89.6495 116.594 89.6567 117.96 89.6659C117.651 90.2984 117.339 90.8569 116.878 91.3938C116.735 91.3938 116.592 91.3938 116.445 91.3938C116.302 91.7502 116.159 92.1066 116.011 92.4738C112.943 92.6442 109.88 92.7132 106.807 92.7168C106.643 92.7173 106.478 92.7178 106.308 92.7184C105.832 92.7197 105.355 92.7193 104.879 92.7184C104.603 92.7182 104.328 92.718 104.044 92.7177C101.664 92.6356 101.664 92.6356 101.285 92.2578C101.264 91.9344 101.257 91.6099 101.258 91.2858C101.257 91.1099 101.257 90.9339 101.256 90.7526C101.285 90.3139 101.285 90.3139 101.502 90.0979C105.038 89.5544 108.6 89.6148 112.167 89.6389Z" fill="white"/>
<path d="M67.5009 122.929C72.8608 122.929 78.2208 122.929 83.7432 122.929C83.3144 123.499 82.8856 124.069 82.4438 124.656C82.3278 124.901 82.2118 125.146 82.0923 125.398C81.3643 126.182 80.7659 126.13 79.7242 126.171C79.4762 126.174 79.2283 126.176 78.9729 126.179C78.7171 126.186 78.4613 126.192 78.1978 126.199C77.657 126.211 77.1161 126.22 76.5753 126.226C75.7472 126.236 74.9206 126.261 74.093 126.288C73.5675 126.298 73.042 126.306 72.5165 126.314C72.1453 126.327 72.1453 126.327 71.7665 126.34C70.0942 126.342 70.0942 126.342 69.4797 125.837C69.0982 125.324 68.8002 124.878 68.8002 124.224C68.6662 124.171 68.5322 124.118 68.3942 124.062C67.934 123.792 67.934 123.792 67.5009 122.929Z" fill="white"/>
<path d="M61.8702 73.0345C64.6574 73.1414 64.6574 73.1414 67.5009 73.2505C67.5009 75.3175 67.5009 77.3845 67.5009 79.5142C65.7143 79.5142 63.9276 79.5142 62.0868 79.5142C62.0153 77.3759 61.9439 75.2376 61.8702 73.0345Z" fill="white"/>
<path d="M83.5266 73.2507C85.3847 73.2507 87.2429 73.2507 89.1573 73.2507C89.1573 75.2465 89.1573 77.2422 89.1573 79.2984C87.2992 79.2984 85.441 79.2984 83.5266 79.2984C83.5266 77.3027 83.5266 75.3069 83.5266 73.2507Z" fill="white"/>
<path d="M54.2905 73.2507C56.0772 73.2507 57.8638 73.2507 59.7046 73.2507C59.7046 75.3177 59.7046 77.3848 59.7046 79.5144C57.0247 79.6214 57.0247 79.6214 54.2905 79.7304C54.2905 77.5921 54.2905 75.4538 54.2905 73.2507Z" fill="white"/>
<path d="M83.5266 64.179C84.2949 64.1746 85.0631 64.1701 85.8547 64.1655C86.0955 64.1636 86.3364 64.1616 86.5845 64.1596C86.7758 64.159 86.9671 64.1585 87.1642 64.1579C87.3593 64.1568 87.5544 64.1557 87.7553 64.1545C88.291 64.179 88.291 64.179 89.1573 64.395C89.1573 66.3195 89.1573 68.244 89.1573 70.2268C87.2992 70.2268 85.441 70.2268 83.5266 70.2268C83.5266 68.231 83.5266 66.2353 83.5266 64.179Z" fill="white"/>
<path d="M62.0868 64.3948C63.8735 64.3948 65.6601 64.3948 67.5009 64.3948C67.5009 66.3906 67.5009 68.3863 67.5009 70.4426C65.7143 70.4426 63.9276 70.4426 62.0868 70.4426C62.0868 68.4468 62.0868 66.4511 62.0868 64.3948Z" fill="white"/>
<path d="M91.9728 73.2507C93.7594 73.2507 95.5461 73.2507 97.3869 73.2507C97.3154 75.2465 97.244 77.2422 97.1703 79.2984C95.4551 79.2984 93.7399 79.2984 91.9728 79.2984C91.9728 77.3027 91.9728 75.3069 91.9728 73.2507Z" fill="white"/>
<path d="M91.9728 64.1791C93.688 64.1791 95.4032 64.1791 97.1703 64.1791C97.1703 66.1749 97.1703 68.1706 97.1703 70.2269C95.4551 70.2981 93.7399 70.3694 91.9728 70.4428C91.9728 68.3758 91.9728 66.3088 91.9728 64.1791Z" fill="white"/>
<path d="M54.2905 64.3948C56.0772 64.3948 57.8638 64.3948 59.7046 64.3948C59.7046 66.3193 59.7046 68.2438 59.7046 70.2266C57.0247 70.3335 57.0247 70.3335 54.2905 70.4426C54.2905 68.4468 54.2905 66.4511 54.2905 64.3948Z" fill="white"/>
<path d="M118.61 36.1001C119.456 36.3988 119.636 36.654 120.099 37.423C120.532 38.5823 120.332 39.7056 119.869 40.8249C119.351 41.4303 118.932 41.6713 118.177 41.9318C116.962 41.8886 115.855 41.595 115.005 40.6865C114.471 39.806 114.6 38.8234 114.712 37.828C115.01 37.1395 115.01 37.1395 115.362 36.7481C115.505 36.7481 115.648 36.7481 115.795 36.7481C115.795 36.6055 115.795 36.4629 115.795 36.3161C116.646 35.8916 117.68 36.0289 118.61 36.1001Z" fill="white"/>
<path d="M42.4876 29.4179C43.6405 29.7259 43.6405 29.7259 44.1119 30.2684C44.342 30.9973 44.342 30.9973 44.3284 31.7803C43.8953 32.4148 43.8953 32.4148 43.2456 32.8603C42.278 33.0326 41.8926 32.972 41.08 32.4148C40.6468 31.7803 40.6468 31.7803 40.6333 31.0108C40.9815 29.8874 41.2547 29.396 42.4876 29.4179Z" fill="white"/>
</svg>
