<svg width="25" height="25" viewBox="0 0 25 25" fill="none" xmlns="http://www.w3.org/2000/svg">
<path d="M18 17V19C18 19.1333 18.05 19.25 18.15 19.35C18.25 19.45 18.3667 19.5 18.5 19.5C18.6333 19.5 18.75 19.45 18.85 19.35C18.95 19.25 19 19.1333 19 19V17H21C21.1333 17 21.25 16.95 21.35 16.85C21.45 16.75 21.5 16.6333 21.5 16.5C21.5 16.3667 21.45 16.25 21.35 16.15C21.25 16.05 21.1333 16 21 16H19V14C19 13.8667 18.95 13.75 18.85 13.65C18.75 13.55 18.6333 13.5 18.5 13.5C18.3667 13.5 18.25 13.55 18.15 13.65C18.05 13.75 18 13.8667 18 14V16H16C15.8667 16 15.75 16.05 15.65 16.15C15.55 16.25 15.5 16.3667 15.5 16.5C15.5 16.6333 15.55 16.75 15.65 16.85C15.75 16.95 15.8667 17 16 17H18ZM18.5 21.5C17.1167 21.5 15.9377 21.0123 14.963 20.037C13.9883 19.0617 13.5007 17.8827 13.5 16.5C13.4993 15.1173 13.987 13.9383 14.963 12.963C15.939 11.9877 17.118 11.5 18.5 11.5C19.882 11.5 21.0613 11.9877 22.038 12.963C23.0147 13.9383 23.502 15.1173 23.5 16.5C23.498 17.8827 23.0103 19.062 22.037 20.038C21.0637 21.014 19.8847 21.5013 18.5 21.5ZM4.5 17.5V8.5C4.5 8.18333 4.571 7.88333 4.713 7.6C4.855 7.31667 5.05067 7.08333 5.3 6.9L11.3 2.4C11.65 2.13333 12.05 2 12.5 2C12.95 2 13.35 2.13333 13.7 2.4L19.7 6.9C19.95 7.08333 20.146 7.31667 20.288 7.6C20.43 7.88333 20.5007 8.18333 20.5 8.5V9.025C20.5 9.225 20.4207 9.37933 20.262 9.488C20.1033 9.59667 19.9243 9.634 19.725 9.6C18.6083 9.4 17.5043 9.471 16.413 9.813C15.3217 10.155 14.3673 10.734 13.55 11.55C12.65 12.45 12.0373 13.5 11.712 14.7C11.3867 15.9 11.391 17.1083 11.725 18.325C11.8083 18.625 11.7667 18.896 11.6 19.138C11.4333 19.38 11.2083 19.5007 10.925 19.5H6.5C5.95 19.5 5.47933 19.3043 5.088 18.913C4.69667 18.5217 4.50067 18.0507 4.5 17.5Z" fill="white"/>
</svg>
