<svg width="24" height="24" viewBox="0 0 24 24" fill="none" xmlns="http://www.w3.org/2000/svg">
<g clip-path="url(#clip0_1233_1760)">
<mask id="mask0_1233_1760" style="mask-type:luminance" maskUnits="userSpaceOnUse" x="0" y="0" width="24" height="24">
<path d="M0 0H24V24H0V0Z" fill="white"/>
<path fill-rule="evenodd" clip-rule="evenodd" d="M6.73604 6.41893L5.63019 10.7546C5.21302 10.8396 4.83803 11.066 4.56871 11.3958C4.29939 11.7255 4.1523 12.1381 4.15234 12.5638V15.2306C4.15234 15.7202 4.34685 16.1898 4.69307 16.536C5.03929 16.8823 5.50887 17.0768 5.9985 17.0768H17.9985C18.4881 17.0768 18.9577 16.8823 19.3039 16.536C19.6501 16.1898 19.8447 15.7202 19.8447 15.2306V12.5638C19.8447 12.1381 19.6976 11.7255 19.4283 11.3958C19.159 11.066 18.784 10.8396 18.3668 10.7546L17.2619 6.41893C17.1788 6.09259 17.008 5.7952 16.768 5.55895C16.528 5.3227 16.228 5.1566 15.9003 5.07862C14.6226 4.77214 13.3134 4.61662 11.9994 4.61523C10.6973 4.61523 9.39634 4.7697 8.09665 5.07862C7.76905 5.1566 7.46901 5.3227 7.22902 5.55895C6.98903 5.7952 6.81915 6.09259 6.73604 6.41893ZM5.99942 11.6408C6.102 11.6409 6.2017 11.6068 6.28278 11.544C6.36385 11.4811 6.42167 11.3931 6.44711 11.2937L7.6305 6.646C7.67209 6.48278 7.75756 6.33404 7.87764 6.21591C7.99772 6.09778 8.14784 6.01477 8.31173 5.97585C9.51961 5.68625 10.7573 5.5394 11.9994 5.53831C13.2271 5.53831 14.4563 5.68447 15.6871 5.97677C15.8508 6.01584 16.0008 6.09892 16.1207 6.21704C16.2406 6.33516 16.3259 6.48381 16.3674 6.64693L17.5508 11.2937C17.5762 11.3931 17.6341 11.4811 17.7151 11.544C17.7962 11.6068 17.8959 11.6409 17.9985 11.6408C18.2433 11.6408 18.4781 11.738 18.6512 11.9111C18.8243 12.0842 18.9216 12.319 18.9216 12.5638V15.2306C18.9216 15.4754 18.8243 15.7102 18.6512 15.8833C18.4781 16.0564 18.2433 16.1537 17.9985 16.1537H5.9985C5.75368 16.1537 5.51889 16.0564 5.34578 15.8833C5.17267 15.7102 5.07542 15.4754 5.07542 15.2306V12.5638C5.07542 12.319 5.17267 12.0842 5.34578 11.9111C5.51889 11.738 5.75461 11.6408 5.99942 11.6408Z" fill="black"/>
<path fill-rule="evenodd" clip-rule="evenodd" d="M7.8454 17.5382C7.8454 17.171 7.69952 16.8188 7.43986 16.5592C7.18019 16.2995 6.82801 16.1536 6.46079 16.1536C6.09356 16.1536 5.74138 16.2995 5.48172 16.5592C5.22205 16.8188 5.07617 17.171 5.07617 17.5382V18.4613C5.07617 18.8285 5.22205 19.1807 5.48172 19.4404C5.74138 19.7 6.09356 19.8459 6.46079 19.8459C6.82801 19.8459 7.18019 19.7 7.43986 19.4404C7.69952 19.1807 7.8454 18.8285 7.8454 18.4613V17.5382ZM5.99925 17.5382C5.99925 17.4158 6.04788 17.2984 6.13443 17.2119C6.22099 17.1253 6.33838 17.0767 6.46079 17.0767C6.58319 17.0767 6.70059 17.1253 6.78714 17.2119C6.8737 17.2984 6.92233 17.4158 6.92233 17.5382V18.4613C6.92233 18.5837 6.8737 18.7011 6.78714 18.7877C6.70059 18.8742 6.58319 18.9229 6.46079 18.9229C6.33838 18.9229 6.22099 18.8742 6.13443 18.7877C6.04788 18.7011 5.99925 18.5837 5.99925 18.4613V17.5382ZM18.9223 17.5382C18.9223 17.171 18.7764 16.8188 18.5168 16.5592C18.2571 16.2995 17.9049 16.1536 17.5377 16.1536C17.1705 16.1536 16.8183 16.2995 16.5586 16.5592C16.299 16.8188 16.1531 17.171 16.1531 17.5382V18.4613C16.1531 18.8285 16.299 19.1807 16.5586 19.4404C16.8183 19.7 17.1705 19.8459 17.5377 19.8459C17.9049 19.8459 18.2571 19.7 18.5168 19.4404C18.7764 19.1807 18.9223 18.8285 18.9223 18.4613V17.5382ZM17.0762 17.5382C17.0762 17.4158 17.1248 17.2984 17.2114 17.2119C17.2979 17.1253 17.4153 17.0767 17.5377 17.0767C17.6601 17.0767 17.7775 17.1253 17.8641 17.2119C17.9506 17.2984 17.9992 17.4158 17.9992 17.5382V18.4613C17.9992 18.5837 17.9506 18.7011 17.8641 18.7877C17.7775 18.8742 17.6601 18.9229 17.5377 18.9229C17.4153 18.9229 17.2979 18.8742 17.2114 18.7877C17.1248 18.7011 17.0762 18.5837 17.0762 18.4613V17.5382ZM16.6146 15.2305C16.9819 15.2305 17.334 15.0847 17.5937 14.825C17.8534 14.5653 17.9992 14.2132 17.9992 13.8459C17.9992 13.4787 17.8534 13.1265 17.5937 12.8669C17.334 12.6072 16.9819 12.4613 16.6146 12.4613C16.2474 12.4613 15.8952 12.6072 15.6356 12.8669C15.3759 13.1265 15.23 13.4787 15.23 13.8459C15.23 14.2132 15.3759 14.5653 15.6356 14.825C15.8952 15.0847 16.2474 15.2305 16.6146 15.2305ZM16.6146 13.3844C16.737 13.3844 16.8544 13.433 16.941 13.5196C17.0275 13.6061 17.0762 13.7235 17.0762 13.8459C17.0762 13.9683 17.0275 14.0857 16.941 14.1723C16.8544 14.2588 16.737 14.3075 16.6146 14.3075C16.4922 14.3075 16.3748 14.2588 16.2883 14.1723C16.2017 14.0857 16.1531 13.9683 16.1531 13.8459C16.1531 13.7235 16.2017 13.6061 16.2883 13.5196C16.3748 13.433 16.4922 13.3844 16.6146 13.3844ZM7.38386 15.2305C7.75109 15.2305 8.10327 15.0847 8.36294 14.825C8.6226 14.5653 8.76848 14.2132 8.76848 13.8459C8.76848 13.4787 8.6226 13.1265 8.36294 12.8669C8.10327 12.6072 7.75109 12.4613 7.38386 12.4613C7.01664 12.4613 6.66446 12.6072 6.40479 12.8669C6.14513 13.1265 5.99925 13.4787 5.99925 13.8459C5.99925 14.2132 6.14513 14.5653 6.40479 14.825C6.66446 15.0847 7.01664 15.2305 7.38386 15.2305ZM7.38386 13.3844C7.50627 13.3844 7.62367 13.433 7.71022 13.5196C7.79678 13.6061 7.8454 13.7235 7.8454 13.8459C7.8454 13.9683 7.79678 14.0857 7.71022 14.1723C7.62367 14.2588 7.50627 14.3075 7.38386 14.3075C7.26146 14.3075 7.14406 14.2588 7.05751 14.1723C6.97095 14.0857 6.92233 13.9683 6.92233 13.8459C6.92233 13.7235 6.97095 13.6061 7.05751 13.5196C7.14406 13.433 7.26146 13.3844 7.38386 13.3844ZM14.4436 6.92285H9.55494C9.24503 6.92283 8.94406 7.02678 8.70023 7.21807C8.45639 7.40936 8.28378 7.67692 8.21002 7.97793L7.75771 9.82408C7.70776 10.0279 7.7048 10.2405 7.74906 10.4456C7.79333 10.6508 7.88365 10.8432 8.0132 11.0083C8.14275 11.1734 8.30815 11.3069 8.49688 11.3987C8.68562 11.4906 8.89276 11.5383 9.10263 11.5382H14.8959C15.1057 11.5383 15.3129 11.4906 15.5016 11.3987C15.6903 11.3069 15.8557 11.1734 15.9853 11.0083C16.1149 10.8432 16.2052 10.6508 16.2494 10.4456C16.2937 10.2405 16.2907 10.0279 16.2408 9.82408L15.7885 7.97793C15.7147 7.67677 15.5419 7.40909 15.2979 7.21779C15.0539 7.02648 14.7536 6.92262 14.4436 6.92285ZM9.10633 8.19762C9.13093 8.09723 9.18851 8.00801 9.26985 7.94424C9.35119 7.88047 9.45158 7.84585 9.55494 7.84593H14.4436C14.5468 7.84606 14.6469 7.88077 14.7281 7.94453C14.8092 8.00828 14.8667 8.09739 14.8912 8.19762L15.3436 10.0438C15.3602 10.1117 15.3612 10.1825 15.3465 10.2508C15.3318 10.3191 15.3017 10.3832 15.2586 10.4383C15.2155 10.4933 15.1604 10.5378 15.0976 10.5685C15.0347 10.5991 14.9658 10.6151 14.8959 10.6152H9.10263C9.03265 10.6152 8.96357 10.5993 8.90062 10.5688C8.83767 10.5382 8.7825 10.4937 8.73928 10.4386C8.69606 10.3836 8.66592 10.3194 8.65115 10.251C8.63638 10.1826 8.63736 10.1117 8.65402 10.0438L9.10633 8.19762Z" fill="black"/>
</mask>
<g mask="url(#mask0_1233_1760)">
<path d="M12 24C18.6274 24 24 18.6274 24 12C24 5.37258 18.6274 0 12 0C5.37258 0 0 5.37258 0 12C0 18.6274 5.37258 24 12 24Z" fill="#282929"/>
</g>
</g>
<defs>
<clipPath id="clip0_1233_1760">
<rect width="24" height="24" fill="white"/>
</clipPath>
</defs>
</svg>
