<svg width="22" height="22" viewBox="0 0 22 22" fill="none" xmlns="http://www.w3.org/2000/svg">
<path d="M18.713 7.1281L18.467 7.6941C18.4286 7.78627 18.3637 7.865 18.2806 7.92038C18.1975 7.97575 18.0999 8.00531 18 8.00531C17.9001 8.00531 17.8025 7.97575 17.7194 7.92038C17.6363 7.865 17.5714 7.78627 17.533 7.6941L17.287 7.1281C16.8545 6.12683 16.0624 5.32402 15.067 4.8781L14.308 4.5391C14.2159 4.49675 14.1379 4.42887 14.0832 4.34353C14.0286 4.25819 13.9995 4.15896 13.9995 4.0576C13.9995 3.95625 14.0286 3.85702 14.0832 3.77168C14.1379 3.68633 14.2159 3.61846 14.308 3.5761L15.025 3.2571C16.0454 2.79848 16.8511 1.96599 17.276 0.931105L17.529 0.320105C17.5662 0.225458 17.631 0.144203 17.715 0.0869296C17.799 0.0296566 17.8983 -0.000976563 18 -0.000976562C18.1017 -0.000976563 18.201 0.0296566 18.285 0.0869296C18.369 0.144203 18.4338 0.225458 18.471 0.320105L18.724 0.930104C19.1485 1.96518 19.9538 2.79804 20.974 3.2571L21.692 3.5771C21.7838 3.61958 21.8615 3.68745 21.916 3.77268C21.9705 3.85791 21.9994 3.95695 21.9994 4.0581C21.9994 4.15926 21.9705 4.2583 21.916 4.34353C21.8615 4.42876 21.7838 4.49662 21.692 4.5391L20.932 4.8771C19.9368 5.32347 19.1451 6.12663 18.713 7.1281ZM8 2.0001H12V4.0001H8C6.4087 4.0001 4.88258 4.63225 3.75736 5.75746C2.63214 6.88268 2 8.40881 2 10.0001C2 13.6101 4.462 15.9661 10 18.4801V16.0001H12C13.5913 16.0001 15.1174 15.368 16.2426 14.2427C17.3679 13.1175 18 11.5914 18 10.0001H20C20 12.1218 19.1571 14.1567 17.6569 15.657C16.1566 17.1573 14.1217 18.0001 12 18.0001V21.5001C7 19.5001 0 16.5001 0 10.0001C0 7.87837 0.842855 5.84354 2.34315 4.34325C3.84344 2.84296 5.87827 2.0001 8 2.0001Z" fill="white"/>
</svg>
