<svg width="30" height="30" viewBox="0 0 30 30" fill="none" xmlns="http://www.w3.org/2000/svg">
<rect width="30" height="30" rx="15" fill="#0F7757"/>
<path d="M14.9969 7.45588C16.0552 6.45248 17.4336 5.93287 18.8404 6.00696C20.2472 6.08106 21.5722 6.74306 22.535 7.85291C23.4978 8.96277 24.0229 10.4334 23.9992 11.9538C23.9756 13.4741 23.405 14.9249 22.4082 15.9992L17.8587 20.9115L14.996 24L8.65596 17.1565L7.58477 15.9982C6.59099 14.9232 6.02299 13.4735 6.00068 11.9549C5.97837 10.4363 6.50349 8.96783 7.4652 7.85936C8.4269 6.75088 9.74995 6.08916 11.1551 6.01388C12.5602 5.9386 13.9374 6.45565 14.996 7.45588M17.8569 18.2537L21.1759 14.6698C21.5178 14.3006 21.7891 13.8624 21.9741 13.38C22.1592 12.8977 22.2545 12.3808 22.2545 11.8587C22.2545 11.3366 22.1592 10.8197 21.9741 10.3373C21.7891 9.855 21.5178 9.41675 21.1759 9.04759C20.8339 8.67843 20.4279 8.38559 19.9812 8.18581C19.5344 7.98602 19.0555 7.88319 18.5719 7.88319C18.0883 7.88319 17.6094 7.98602 17.1627 8.18581C16.7159 8.38559 16.3099 8.67843 15.968 9.04759L14.996 10.0968L14.0233 9.04665C13.3326 8.3011 12.396 7.88225 11.4193 7.88225C10.4426 7.88225 9.50595 8.3011 8.81534 9.04665C8.12472 9.7922 7.73674 10.8034 7.73674 11.8577C7.73674 12.9121 8.12472 13.9233 8.81534 14.6688L9.88827 15.8271L14.996 21.3412L17.8569 18.2528" fill="white"/>
</svg>
