<svg width="24" height="24" viewBox="0 0 24 24" fill="none" xmlns="http://www.w3.org/2000/svg">
<path d="M12 0.5C12.3284 0.500001 12.6729 0.68105 13.167 1.32617C13.5378 1.81043 13.9395 2.48499 14.4414 3.37305L14.9795 4.33301L15.373 5.03906C15.732 5.68315 15.9829 6.1486 16.334 6.47852L16.4912 6.61133C16.8232 6.86386 17.2152 6.99075 17.7266 7.11426L18.2793 7.24121L19.043 7.41406C20.5357 7.75207 21.5968 7.99359 22.334 8.28418C22.9708 8.53519 23.2672 8.78535 23.4043 9.07812L23.4541 9.20605C23.5641 9.56029 23.4921 9.97548 23.0605 10.6611C22.7343 11.1795 22.2451 11.7874 21.5918 12.5605L20.8838 13.3906L20.3633 13.999V14C19.8875 14.5567 19.5418 14.9494 19.3516 15.3965L19.2793 15.5918V15.5928C19.1555 15.992 19.1601 16.4098 19.2051 16.9521L19.2598 17.541L19.3389 18.3525V18.3535C19.4922 19.9395 19.6013 21.0743 19.5645 21.9023C19.5276 22.7297 19.3492 23.1027 19.0713 23.3135C18.8014 23.5182 18.4245 23.5801 17.6709 23.3643C17.1009 23.201 16.3988 22.904 15.4941 22.4941L14.5195 22.0469H14.5186L13.8018 21.7178H13.8008C13.0582 21.3748 12.5512 21.1299 12 21.1299C11.5862 21.1299 11.1972 21.2677 10.7148 21.4814L10.1973 21.7178L9.48242 22.0469C8.08476 22.6902 7.08921 23.1463 6.3291 23.3643C5.57524 23.5803 5.19882 23.5185 4.92969 23.3145H4.92871C4.65049 23.1028 4.4725 22.7288 4.43555 21.9023C4.39855 21.0742 4.50781 19.9395 4.66113 18.3535L4.66016 18.3525L4.74023 17.542C4.81225 16.7978 4.86996 16.2706 4.77148 15.7939L4.71875 15.5918C4.5949 15.191 4.35419 14.8532 4.0127 14.4424L3.63672 14.001L3.11621 13.3916V13.3906C2.09948 12.2023 1.37435 11.353 0.939453 10.6621C0.561712 10.062 0.459397 9.66863 0.513672 9.3418L0.545898 9.20605C0.654237 8.85691 0.937833 8.57122 1.66602 8.28418C2.21927 8.06612 2.95495 7.87532 3.91797 7.65137L4.95801 7.41406H4.95898L5.72168 7.24121C6.4182 7.08377 6.92434 6.97776 7.33691 6.72852L7.50781 6.6123C7.83831 6.36178 8.07194 6.01535 8.34082 5.54785L8.62695 5.03906L9.02051 4.33301C9.78881 2.95523 10.3385 1.97183 10.833 1.32617C11.3271 0.68105 11.6716 0.5 12 0.5Z" stroke="#0F7757"/>
</svg>
