<svg width="11" height="11" viewBox="0 0 11 11" fill="none" xmlns="http://www.w3.org/2000/svg">
<path d="M5.5 0.5C5.52067 0.5 5.60885 0.496349 5.82031 0.772461C5.92627 0.910809 6.03951 1.08749 6.1709 1.30957L6.62891 2.11816L6.80957 2.44141C6.96371 2.718 7.09937 2.97673 7.30273 3.16797L7.39453 3.24609C7.59006 3.39483 7.82039 3.46613 8.06738 3.52539L8.31836 3.58301L8.66797 3.66211C9.36149 3.81914 9.82379 3.9251 10.1377 4.04883C10.3656 4.1387 10.4434 4.21015 10.4736 4.25879L10.4912 4.2998C10.5064 4.34857 10.5237 4.45161 10.3408 4.74219C10.2477 4.8902 10.1214 5.05684 9.95996 5.25586L9.36621 5.96094L9.12793 6.24023H9.12695C8.92202 6.48003 8.72983 6.69475 8.62012 6.95215L8.57812 7.06543V7.06641C8.50642 7.29763 8.51129 7.53746 8.5332 7.79785L8.55859 8.06543L8.59473 8.43848C8.66581 9.17379 8.71211 9.6707 8.69629 10.0264C8.68442 10.2929 8.64028 10.397 8.60645 10.4414L8.57812 10.4697C8.55713 10.4856 8.49106 10.5391 8.17383 10.4482C8.01207 10.4019 7.82263 10.3298 7.59277 10.2314L6.76758 9.85938V9.8584L6.43945 9.70801H6.44043C6.12167 9.56081 5.8262 9.41406 5.5 9.41406C5.25546 9.4141 5.02855 9.49706 4.7959 9.60059L4.56055 9.70801L4.2334 9.8584L4.23242 9.85938C3.58352 10.158 3.14974 10.3555 2.82617 10.4482C2.5088 10.5392 2.44339 10.4853 2.42285 10.4697H2.42188C2.39172 10.4465 2.31938 10.3768 2.30371 10.0264C2.28783 9.67058 2.33513 9.17316 2.40625 8.4375L2.40527 8.43652L2.44238 8.06641C2.47789 7.69948 2.51866 7.37407 2.42188 7.06543H2.4209C2.3487 6.83258 2.20842 6.6387 2.04395 6.44141L1.87305 6.24121L1.63477 5.96191H1.63379C1.16194 5.41044 0.846376 5.03803 0.660156 4.74219C0.523011 4.52429 0.497401 4.41201 0.5 4.34863L0.508789 4.2998C0.52224 4.25646 0.558546 4.16893 0.863281 4.04883C1.02018 3.98701 1.21396 3.92965 1.45508 3.86816L2.33203 3.66211H2.33301L2.68262 3.58301C2.98162 3.51543 3.26432 3.45979 3.50488 3.31445L3.60449 3.24609C3.79804 3.09938 3.93259 2.89775 4.06152 2.67285L4.19043 2.44141L4.37109 2.11816C4.72769 1.47871 4.96892 1.04894 5.18066 0.772461C5.3914 0.497387 5.47905 0.499984 5.5 0.5Z" fill="#0F7757" stroke="#0F7757"/>
</svg>
